<svg width="86" height="124" fill="none" xmlns="http://www.w3.org/2000/svg"><path d="M19.732 65.365a.213.213 0 00.204-.163l1.435-5.51a.219.219 0 00-.15-.264.209.209 0 00-.258.153l-1.435 5.51a.219.219 0 00.15.265.17.17 0 00.054.006v.003z" fill="#49478A"/><path d="M7.405 57.72l22.64-.681c.236 4.384.788 16.477 1.21 23.184.918 18.76 2.643 40.886 2.643 40.886l2.578 2.803h-6.367l-7.856-43.689-2.494-10.785-1.579 2.285-1.062 8.5-4.261 43.689H7.49l1.33-2.557s-.985-19.398-1.431-41.132c-.147-5.883-.17-17.023.019-22.507l-.004.003z" fill="#153F5E"/><path d="M.036 42.048a5.1 5.1 0 01.23-1.33c.21-1.543.82-3.042 1.425-4.515 1.353-3.295 2.702-6.59 4.054-9.884.514-1.253 1.512-2.85 2.316-3.989 1.697-2.403 4.22-3.192 7.397-3.182 1.48.006-2.466 6.266-3.407 7.794-1.394 2.26-1.847 5.007-4.016 9.28-.724 1.428-1.301 3.646-2.15 5.33.02.31.02.62.017.927-.023 2.209-.042 4.417-.064 6.625-.02 1.997-.087 3.86.392 5.803.194.786-.09 1.608-.791 2.177-1.05.85-1.91.782-1.91.782-1.324-2.984-2.453-6.059-3.05-9.22a27.649 27.649 0 01-.306-2.041 28.607 28.607 0 01-.137-4.557z" fill="#BB793A"/><path d="M6.838 59.815l23.565 1.023c-.063-4.346-.347-10.396-.555-13.745a14.808 14.808 0 01-.031-.62 82.452 82.452 0 01-.192-7.196c.02-.886.06-1.796.131-2.742.105-1.534.27-3.16.517-4.928.34-2.467 1.805-5.94 1.425-7.845-.472-2.308-2.427-4.09-4.816-4.826a8.248 8.248 0 00-2.75-.377l-9.795.339c-6.75.233-7.473 7.056-7.3 11.747.133 3.717.366 7.436.526 11.16.204 5.068.181 7.618-.297 12.651-.134 1.467-.405 3.864-.434 5.36h.006z" fill="#ED971B"/><path d="M15.696 40.834c2.97 1.393 10.124 4.106 11.579 4.956.803.47 1.677.911 2.574 1.301a14.658 14.658 0 01-.032-.62 82.547 82.547 0 01-.201-6.525c-2.9-.678-5.94-1.58-7.936-2.455-.8-.345-3.658-1.99-4.207-1.07-.408.7-1.28 1.498-2.083 2.157-.778.63-.619 1.825.306 2.256z" fill="#BB793A"/><path d="M12.098 28.471a.896.896 0 00.013.205l1.9 7.564a.87.87 0 00.83.617l4.112-.1a.684.684 0 00.35-.114v-.01c.15-.118.214-.306.157-.527l-1.898-7.574c-.083-.342-.456-.616-.823-.607l-4.112.1c-.293.006-.497.19-.529.443v.003z" fill="#686868"/><path d="M12.098 28.47a.89.89 0 00.013.204l1.9 7.565a.87.87 0 00.83.617l4.111-.1a.683.683 0 00.351-.115v-.01a.41.41 0 00-.013-.204l-1.898-7.573c-.082-.342-.455-.617-.832-.608l-4.111.1a.589.589 0 00-.351.124z" fill="#3D403F"/><path d="M18.4 35.3c1.404.642 1.625 2.726 2.173 3.467.667.898-.695 1.189-2.169.997-1.32-.172-2.938-.757-3.467-1.413-.447-.552-1.018-1.217-.966-2.901.041-1.374 2.596-.99 4.43-.15z" fill="#F3C6A0"/><path d="M19.35 36.493c.539-.642 1.106-.172 1.904.08 2.855.898 7.805.678 11.495 1.135-.248-.617-.485-1.211-.705-1.739-2.181-5.202-3.47-7.404-4.306-9.267-.781-1.742-4.35-8.076-2.886-8.127 3.722-.128 5.92.758 7.435 3.448 3.177 5.65 4.756 10.476 5.805 13.445.68 1.92 1.55 3.154 1.68 5.014.007.054.007 1.262.01 1.316.042.889-.105.49-.542 1-.045.09-.083.18-.13.272-.97 1.802-7.439 1.457-11.777-.358-2.057-.863-8.337-3.876-8.337-3.876s-.527-1.291.357-2.346l-.003.003z" fill="#ED971B"/><path d="M15.952 18.841c.051.221.131.425.233.62.51 1.023 1.637 1.656 3.11 1.605 1.7-.058 3.429-1.013 4.58-2.368.042-.042.083-.093.118-.138l-8.04.278v.003z" fill="#BB793A"/><path d="M23.162 13.62v5.214s-3.76 4.465-7.215.106l.303-5.318h6.915l-.003-.003z" fill="#E8BEA9"/><path d="M19.481 17.181c.093.013.185.026.278.032a4.087 4.087 0 003.094-1.026.18.18 0 00.003-.265c-.077-.077-.204-.086-.28-.016a3.687 3.687 0 01-2.8.93c-1.092-.09-2.023-.642-2.773-1.649a.21.21 0 00-.277-.054c-.09.057-.109.172-.045.262.75 1.006 1.71 1.617 2.797 1.783l.003.003z" fill="#BA745D"/><path d="M24.57 7.685c.453 4.253-.058 8.852-3.142 9.152-3.209.313-6.596-1.668-7.05-5.921-.452-4.254 1.66-8.27 4.712-8.974 3.052-.703 5.03 1.49 5.48 5.743z" fill="#F3C6A0"/><path d="M24.77 4.062c.16-.44.109-.958-.232-1.537a3.384 3.384 0 00-.243-.358c-.389-.537-.95-1.042-1.467-1.476-.016 0-.038 0-.05.006-2.537-.853-5.471-1.058-7.765.157-1.122.575-1.748 1.438-2.034 2.435-.594 1.342-.418 3.506-.093 5.129.086.444.185.844.284 1.182.447 1.563 1.017 3.679 2.2 4.861.246.214.645.431 1.005.387l.052-.01c-.042-.07-.087-.144-.125-.224-.118-.473-.093-1.003-.093-1.473-.178.176-.321.265-.49.278-.16.013-.339-.054-.581-.21-.628-.368-.845-1.075-.874-1.806 0-.189.029-.521.105-.834.003-.004.003-.01.007-.013.057-.224.137-.432.255-.575.092-.112.204-.183.344-.183.195 0 .523.269.696.493.012.019.025.041.038.057.038.224.083.444.134.659.054.249.124.498.195.744.277.15.558.348.87.383l.013-.162c-.443-1.35-.434-2.774-.386-4.203.013-.348.029-.696.038-1.045.013-.323.023-.645.023-.965v-.051c1.378-.093 2.781-.189 3.964-.729-.459.218-.848.518-1.205.854-.122.111-.236.227-.351.342-.274.278-.54.562-.813.824 1.569.121 3.916-.818 5.508-1.86.23-.153.443-.303.638-.457l.006.007.007.01c.028.367.05.74.067 1.118.067 1.342.073 2.732-.048 4.087.022 0 .048 0 .073.006.064-.358.16-.706.249-1.054.121-.473.233-.95.271-1.451.073-.978.29-2.432-.2-3.343h.009z" fill="#0F343D"/><path d="M7.433 56.394c-.354-.339-.737-.725-1.12-1.074-.05.064-.114.122-.153.202-.465.987-.915 1.828-2.79 2.154.318.517.615.923 2.344 2.246 1.273.764 2.258.879 3.05.786.637-.073 1.128-.648 1.119-1.006-.893-1.263-1.825-2.685-2.453-3.308h.003z" fill="#F3C6A0"/><path d="M9.868 121.193l3.215.192-.274 2.525H5.996l3.872-2.717zM41.636 124h-8.893l-.673-.892-.568.892H29.95v-4.088l4.42-.847 2.198 2.822 5.069 1.582V124z" fill="#19132E"/><path d="M37.377 19.519h47.066c.86 0 1.557.698 1.557 1.56v92.725c0 .862-.697 1.56-1.557 1.56H37.377c-.86 0-1.556-.698-1.556-1.56V21.078c0-.861.696-1.56 1.556-1.56z" fill="#729EDB"/><path d="M35.82 30.752H86v71.833H35.82V30.752z" fill="#fff"/><path d="M53.396 25.382h14.458v.544H53.396v-.544z" fill="#2C3C77"/><path d="M49.747 71.02h28.499v2.195h-28.5v-2.196z" fill="#ECF5FC"/><path d="M41.651 70.95c.986 1.138 2.093 2.154 3.158 3.215a23.68 23.68 0 002.415-2.422c-.297-.339-.571-.7-.929-.978-.583.41-.985.997-1.53 1.445a54.224 54.224 0 01-2.138-2.145c-.434.186-.654.585-.973.885h-.003z" fill="#ED971B"/><path d="M35.82 51.669H86v11.719H35.82v-11.72zM53.396 34.75h14.458v2.122H53.396V34.75z" fill="#DDE9F7"/><path d="M55.643 40.236h10.49v7.68h-10.49v-7.68z" fill="#273977"/><path d="M69.574 40.236h10.49v7.68h-10.49v-7.68zm-27.864 0h10.491v7.68h-10.49v-7.68z" fill="#DDE9F7"/><path d="M49.918 77.29h28.499v2.196h-28.5V77.29z" fill="#ECF5FC"/><path d="M41.821 77.228c.986 1.138 2.093 2.154 3.158 3.215a23.7 23.7 0 002.415-2.422c-.297-.339-.572-.7-.929-.978-.584.409-.985.997-1.53 1.444a54.088 54.088 0 01-2.138-2.144c-.434.185-.654.585-.973.885h-.003z" fill="#ED971B"/><path d="M49.669 83.576h28.499v2.196h-28.5v-2.196z" fill="#ECF5FC"/><path d="M41.572 83.51c.986 1.137 2.092 2.153 3.158 3.214a23.688 23.688 0 002.414-2.422c-.296-.339-.57-.7-.928-.978-.584.409-.985.997-1.53 1.444a54.156 54.156 0 01-2.138-2.144c-.434.185-.654.585-.973.885h-.003z" fill="#ED971B"/><path d="M49.839 89.85h28.499v2.195h-28.5V89.85z" fill="#ECF5FC"/><path d="M41.74 89.783c.986 1.137 2.093 2.153 3.159 3.215a23.7 23.7 0 002.414-2.423c-.296-.338-.57-.7-.928-.978-.584.41-.985.997-1.53 1.445a54.156 54.156 0 01-2.138-2.145c-.434.186-.654.585-.973.886h-.003zm17.353-47.782h3.594v2.077h-3.594v-2.077z" fill="#ED971B"/><path d="M73.022 42.001h3.595v2.077h-3.595v-2.077zm-27.864 0h3.595v2.077h-3.595v-2.077zm-3.682 12.592H79.97v1.057H41.476v-1.057zm0 2.626H79.97v1.057H41.476V57.22z" fill="#B7CDE2"/></svg>