<svg width="68" height="46" fill="none" xmlns="http://www.w3.org/2000/svg"><path d="M51.31 1.064v8.14h-1.636v-8.14c0-.59.365-1.064.814-1.064.449 0 .814.475.814 1.064h.008zm0 35.58c0 .59-.366 1.064-.815 1.064-.449 0-.814-.475-.814-1.064v-7.648h1.636v7.648h-.008zM68 18.857c0 .483-.442.876-.99.876h-7.56v-1.76h7.56c.548 0 .99.393.99.876v.008zm-34.024-.884h7.103v1.76h-7.103c-.548 0-.989-.393-.989-.876s.441-.876.989-.876v-.008zM62.748 6.907l-5.347 5.756-1.156-1.245 5.347-5.756c.388-.418.958-.475 1.278-.131.32.344.266.958-.122 1.376zM39.391 32.051c-.387.418-.958.475-1.277.131-.32-.343-.267-.958.12-1.375l5.029-5.412 1.156 1.244-5.028 5.412zm23.479.127c-.32.344-.89.287-1.279-.13l-5.346-5.757 1.156-1.244 5.347 5.756c.388.418.441 1.032.122 1.375zM39.391 5.662l5.028 5.412-1.156 1.245-5.028-5.412c-.388-.418-.44-1.032-.121-1.376.32-.344.89-.287 1.277.131z" fill="#38CCF0"/><path d="M16.994 28a3 3 0 110-5.999 3 3 0 010 5.999z" fill="url(#paint0_linear_248_65103)"/><path d="M7.497 46A7.499 7.499 0 010 38.5C0 34.358 3.357 31 7.497 31a7.499 7.499 0 017.497 7.5c0 4.142-3.356 7.5-7.497 7.5z" fill="url(#paint1_linear_248_65103)"/><defs><linearGradient id="paint0_linear_248_65103" x1="16.994" y1="28" x2="16.994" y2="22" gradientUnits="userSpaceOnUse"><stop offset=".082" stop-color="#4C99EB"/><stop offset="1" stop-color="#56BDED"/></linearGradient><linearGradient id="paint1_linear_248_65103" x1="7.497" y1="31" x2="7.497" y2="46" gradientUnits="userSpaceOnUse"><stop stop-color="#80D1E5"/><stop offset="1" stop-color="#24A3C2"/></linearGradient></defs></svg>