<svg width="47" height="63" fill="none" xmlns="http://www.w3.org/2000/svg"><path d="M9.995 63C4.475 63 0 58.523 0 53s4.475-10 9.995-10 9.994 4.477 9.994 10-4.475 10-9.994 10z" fill="url(#paint0_linear_248_54392)"/><path d="M30.314 1.064v8.14h-1.637v-8.14c0-.59.366-1.064.815-1.064.449 0 .814.475.814 1.064h.008zm-.001 35.581c0 .59-.365 1.064-.814 1.064-.45 0-.814-.475-.814-1.064v-7.648h1.636v7.648h-.008zM47 18.856c0 .483-.442.876-.99.876h-7.558v-1.76h7.559c.547 0 .989.393.989.876v.008zm-34.018-.884h7.103v1.76h-7.103c-.547 0-.988-.393-.988-.876s.44-.876.988-.876v-.008zM41.75 6.907l-5.346 5.756-1.156-1.245 5.346-5.756c.387-.418.958-.475 1.278-.131.32.344.266.958-.122 1.376zM18.397 32.05c-.388.418-.958.475-1.277.132-.32-.344-.267-.959.12-1.376l5.028-5.412 1.156 1.244-5.027 5.412zm23.474.128c-.319.344-.89.287-1.278-.13l-5.345-5.757 1.156-1.244 5.346 5.756c.388.418.44 1.032.121 1.375zM18.397 5.662l5.027 5.412-1.156 1.245-5.027-5.412c-.388-.418-.44-1.032-.121-1.376.32-.344.89-.287 1.277.131z" fill="#38CCF0"/><defs><linearGradient id="paint0_linear_248_54392" x1="9.995" y1="63" x2="9.995" y2="43" gradientUnits="userSpaceOnUse"><stop offset=".082" stop-color="#4C99EB"/><stop offset="1" stop-color="#56BDED"/></linearGradient></defs></svg>