<svg width="330" height="242" fill="none" xmlns="http://www.w3.org/2000/svg"><path d="M201.915 241.873c12.326 0 22.32-.774 22.32-1.73s-9.994-1.73-22.32-1.73c-12.327 0-22.32.774-22.32 1.73s9.993 1.73 22.32 1.73zm82.602-13.841c12.327 0 22.32-.774 22.32-1.73s-9.993-1.73-22.32-1.73-22.32.774-22.32 1.73 9.993 1.73 22.32 1.73zm-177.004 12.042c12.327 0 22.32-.775 22.32-1.73 0-.956-9.993-1.731-22.32-1.731s-22.32.775-22.32 1.731c0 .955 9.993 1.73 22.32 1.73zm-60.596-12.652c12.327 0 22.32-.775 22.32-1.73 0-.956-9.993-1.731-22.32-1.731s-22.32.775-22.32 1.731c0 .955 9.993 1.73 22.32 1.73z" fill="#DCE6F5"/><path d="M250.886 33.306a5.28 5.28 0 100-10.559 5.28 5.28 0 000 10.559zm-20.519-16.901a2.64 2.64 0 100-5.279 2.64 2.64 0 000 5.279z" fill="#ECF5FC"/><path d="M175.319.542v4.142h.944V.542c0-.297-.209-.542-.472-.542-.262 0-.472.245-.472.542zm0 18.121c0 .297.21.542.472.542.263 0 .472-.245.472-.542v-3.898h-.944v3.898zm-9.578-9.053c0 .245.262.455.559.455h4.335v-.892H166.3c-.315 0-.559.193-.559.455V9.61zm19.54-.452h-4.072v.892h4.072c.315 0 .559-.193.559-.455s-.262-.454-.559-.454v.017zm-16.53-5.646l3.077 2.937.664-.63-3.076-2.936c-.228-.21-.542-.245-.735-.07-.192.175-.157.49.07.7zm13.424 12.808c.227.21.542.245.734.07.192-.174.157-.489-.07-.699l-2.884-2.761-.664.629 2.884 2.761zm-13.477.072c.175.175.507.14.734-.07l3.077-2.936-.665-.63-3.076 2.937c-.227.21-.245.525-.07.7zm13.477-13.509l-2.884 2.762.664.629 2.884-2.762c.227-.21.245-.524.07-.699-.175-.175-.507-.14-.734.07z" fill="#D7ECFA"/><path d="M227.952 115.526c10.172 27.231-1.608 106.985-69.04 102.004-19.349-1.433-40.864-21.236-56.979-16.832-16.116 4.405-23.841 21.324-54.044 16.098-30.185-5.226-36.949-33.629-30.29-54.865 6.66-21.236-10.819-27.791-9.298-45.863 1.398-16.535 24.05-20.397 34.607-33.436 10.557-13.04 14.98-38.4 38.505-38.873 26.2-.524 24.889 33.28 60.038 27.984 38.855-5.856 73.637 9.438 86.483 43.783h.018z" fill="url(#paint0_linear_248_55612)"/><path d="M177.686 103.326c-11.483 14.804-39.484 10.871-53.571 38.889-14.088 28.018 8.739 78.636 43.766 84.002 35.026 5.383 40.916-15.941 66.155-18.038 25.257-2.098 35.359 3.566 48.503-9.805 12.182-12.375-2.255-24.33 21.848-39.956 10.067-6.52 33.261-24.802 23.089-48.59-12.078-28.228-34.625-30.972-46.44-28.385-11.816 2.587-20.45 8.651-32.073-2.237-11.623-10.89-31.059-17.759-48.171-6.083-15.153 10.347-10.906 14.437-23.124 30.185l.018.018z" fill="url(#paint1_linear_248_55612)"/><path d="M166.693 52.95c.017-.314.052-.629.069-.926 0-.14 0-.262.018-.402 0-.245.017-.49.035-.716v-1.067c0-.35 0-.681-.018-1.013-.594.681-1.188 1.363-1.783 2.062-.209.245-.419.507-.629.77-.384.454-.769.925-1.136 1.397-.227.28-.454.577-.682.857-.367.454-.716.926-1.083 1.38-.21.28-.42.577-.647.857-.367.49-.717.979-1.084 1.468-.087.123-.174.227-.262.35.018-.018.035-.053.07-.07-5.348 7.48-9.735 15.678-11.238 23.141v-.122l-.105.63a4.93 4.93 0 00-.088.489c-.087.524-.157 1.048-.227 1.555-.035.018-.087.035-.122.088-.734 1.136-1.416 2.29-2.255 3.356a358.28 358.28 0 00-4.16-7.132c.752-1.363 1.573-2.744 1.818-4.264.227-.228.454-.472.664-.717.088-.088.157-.192.245-.28.175-.21.35-.437.524-.646.088-.105.157-.228.245-.333.157-.227.314-.454.454-.681.07-.105.14-.21.193-.297.209-.332.402-.665.576-.997 0-.017.018-.035.035-.052.175-.332.332-.647.49-.979.052-.122.105-.245.157-.35a12.5 12.5 0 00.297-.733c.053-.14.105-.263.158-.402l.104-.263c0 .018-.017.035-.035.053 2.727-7.743 1.084-17.531-1.276-25.484v-.017a102.13 102.13 0 00-1.17-3.688c-.018-.07-.053-.14-.07-.21-.175-.524-.368-1.049-.542-1.555-.035-.123-.088-.228-.123-.35-.174-.49-.367-.979-.542-1.45-.192.366-.366.75-.541 1.135-.07.175-.158.35-.228.525-.087.21-.192.437-.279.646-.07.193-.14.385-.227.56a9.66 9.66 0 00-.245.646c-.07.175-.122.367-.192.56-.088.227-.158.454-.245.699-.053.175-.105.35-.157.542-.07.244-.158.506-.228.751-.052.175-.087.35-.139.507-.07.262-.14.524-.21.804-.035.175-.088.332-.123.507-.069.28-.122.542-.192.821l-.105.525c-.052.28-.105.542-.157.821 0 .07-.017.123-.035.193v-.035c-.612 3.32-.874 6.764-.874 10.172v1.416c0 .384.018.769.035 1.136v.21c.018.402.035.786.07 1.188v.157l.105 1.224v.105c.035.42.087.839.122 1.24v.07l.158 1.26v.034c.559 4.16 1.538 7.953 2.814 10.977-.245 1.38-.962 2.656-1.643 3.88-1.836-3.024-3.741-5.995-5.803-8.88-.158-.401-.315-.82-.49-1.24-.122-.332-.244-.682-.384-1.014-.14-.385-.28-.769-.437-1.171a504.405 504.405 0 00-1.259-3.46c-1.555-4.318-3.303-9.037-5.575-13.791-2.167-4.545-4.929-8.74-7.813-12.253l.035.035c-.087-.122-.192-.227-.28-.35l-.209-.262c-.367-.436-.734-.873-1.119-1.293-.07-.07-.14-.14-.192-.227a73.566 73.566 0 00-1.101-1.189c-.035-.035-.053-.07-.088-.087-.367-.385-.751-.752-1.118-1.119-.088-.07-.158-.157-.245-.227-.35-.332-.717-.664-1.066-.979a3.043 3.043 0 01-.263-.227 23.48 23.48 0 00-1.066-.891.922.922 0 00-.157-.123 17.827 17.827 0 00-.979-.734c-.052-.035-.122-.087-.175-.122a15.949 15.949 0 00-.996-.664c-.07-.053-.14-.088-.209-.14-.333-.192-.647-.385-.944-.542-.053-.035-.105-.052-.175-.087-.332-.158-.647-.315-.944-.437.07.35.157.716.245 1.083a.5.5 0 00.035.158c.07.332.157.664.244 1.031.018.087.035.175.07.262.105.402.193.804.315 1.224.052.174.087.367.14.542.052.227.122.436.175.664.035.14.069.262.104.384v-.035c2.098 7.586 6.223 18.615 15.434 28.77-.035-.018-.053-.053-.088-.07.158.175.333.35.49.524.14.14.262.297.402.437.349.367.716.752 1.083 1.119l.263.262c.472.472.943.944 1.45 1.398.07.053.123.123.193.175.419.402.856.787 1.293 1.171l.419.367c.385.332.77.664 1.172.979.157.14.314.262.472.384.402.333.821.665 1.24.997.14.105.28.227.437.332l.997.734c1.52 2.132 2.971 4.3 4.369 6.502-1.538-.717-2.954-1.468-4.23-2.604-.192-.263-.384-.542-.594-.804-.087-.123-.192-.245-.279-.368a3.289 3.289 0 01-.228-.297s.018.035.018.053c-6.275-7.568-18.859-13.092-27.266-16.08-1.206-.437-2.64-.822-4.125-1.154l-.262-.052c-.35-.07-.682-.158-1.032-.228-.14-.035-.279-.052-.419-.087-.175-.035-.332-.07-.49-.105-.14-.035-.297-.052-.436-.087-.158-.035-.298-.053-.455-.088a12.41 12.41 0 00-.787-.14c-.122-.017-.244-.052-.367-.07-.174-.034-.332-.052-.489-.087-.122-.017-.227-.035-.35-.052-.174-.035-.35-.053-.524-.088-.07 0-.157-.035-.227-.035-.227-.035-.455-.07-.664-.104-.07 0-.14-.018-.228-.035-.157-.018-.297-.053-.437-.07-.052 0-.104 0-.157-.018-.157-.017-.314-.052-.454-.07h-.053a7.104 7.104 0 01-.384-.052h-.087c-.07 0-.14-.018-.193-.018h-.105c.123.28.28.56.437.857l.157.262c.123.21.263.42.403.63.052.087.104.174.174.244.193.28.402.542.612.821.07.088.157.193.245.28.157.192.314.385.49.56.104.122.209.244.331.349.175.175.332.35.507.542.21.21.437.437.664.647.123.104.227.227.35.332 7.061 6.502 20.03 12.619 29.608 14.664h.053c.122.017.244.052.367.07.314.07.611.122.909.175.139.017.279.052.419.07.297.052.594.087.891.14.105 0 .21.034.333.052.402.052.786.087 1.171.122h.07c.349.035.681.053 1.013.053h1.329c.174 0 .367-.018.541-.035 1.381 1.136 2.919 1.905 4.58 2.656.035 0 .07.018.105.018 1.835 2.919 3.583 5.908 5.313 8.896-1.119 0-2.255.035-3.373-.017-.402-.227-.822-.454-1.241-.682-.158-.087-.315-.157-.472-.244a40.596 40.596 0 00-1.958-.962h-.035c-6.414-2.954-14.419-5.278-21.935-6.414-4.859-.91-10.767-.752-15.643-.77-1.084 0-2.202.036-3.321.123h.017c-.401.035-.804.07-1.206.122-.122 0-.244.035-.367.053-.332.035-.681.087-1.014.14-.14.017-.28.052-.419.07-.367.07-.716.122-1.066.192-.07 0-.157.035-.227.052-.42.088-.822.193-1.224.28-.105.035-.21.052-.314.087-.298.088-.595.158-.874.245-.105.035-.227.07-.332.105a35.57 35.57 0 00-1.049.367c.56.28 1.101.577 1.66.856.647.332 1.294.682 1.94 1.014l.21.105c.594.314 1.189.612 1.8.909l.106.052c.629.315 1.258.612 1.887.892.017 0 .035.017.07.035h-.017a33.224 33.224 0 004.561 1.678c4.859 1.345 8.844 2.062 13.529 3.076 7.463 1.206 14.839 1.223 22.389-.035-.07.017-.122.035-.192.052.367-.07.752-.14 1.119-.21.349-.07.699-.122 1.048-.192a62.023 62.023 0 002.465-.524c1.223.07 2.447 0 3.688.035a521.09 521.09 0 012.377 4.177c-1.189.192-2.377.402-3.566.577a57.959 57.959 0 00-1.887-.175l-.839-.052a27.074 27.074 0 00-1.206-.07l-.944-.053a629.34 629.34 0 00-1.241-.052c-.315 0-.629-.017-.944-.017h-.28.035c-7.236-.123-15.695.734-24.032 3.985a.136.136 0 00.07-.035c-.333.14-.682.297-1.014.437a35.6 35.6 0 00-1.713.716c-.42.193-.822.402-1.241.612-.507.245-1.014.49-1.521.751-.576.315-1.153.647-1.73.997-.332.192-.664.367-.996.577a51.131 51.131 0 00-2.692 1.782l.577.315c.07.035.14.07.227.105.14.052.262.122.402.175.087.035.192.07.28.104.122.053.244.088.384.14.105.035.21.07.315.088.122.035.245.07.384.105.105.035.227.052.332.087.123.035.245.052.385.087.122.018.227.053.349.07.123.018.263.053.385.07.122.018.245.035.384.053.123 0 .263.035.385.052.14 0 .262.035.402.053.122 0 .245.017.367.034.14 0 .28.018.437.035h.28a23.54 23.54 0 001.922.018h.228c.192 0 .402 0 .611-.018h.227c.21 0 .42-.017.612-.035h.227c.21 0 .437-.034.647-.052.07 0 .123 0 .193-.017.227-.018.454-.053.681-.07h.122c.245-.035.507-.053.752-.088.21-.035.42-.052.629-.087h-.017c3.985-.577 7.935-1.626 10.906-2.569a188.1 188.1 0 006.817-2.308h-.018c.053-.017.105-.035.14-.052.49-.175.979-.35 1.451-.542.035 0 .052-.017.087-.035.455-.175.927-.35 1.381-.524l.42-.158c.349-.14.716-.28 1.066-.437.14-.052.279-.122.419-.174.402-.158.787-.332 1.171-.507.07-.035.157-.07.227-.105.455-.21.909-.402 1.346-.612a2.64 2.64 0 00.227-.105c.35-.157.682-.332 1.014-.489.123-.052.245-.122.35-.175.297-.157.577-.297.839-.454.105-.053.21-.123.314-.175.35-.21.682-.402.997-.612 1.241-.157 2.464-.384 3.705-.594.612 1.084 1.241 2.185 1.853 3.268l2.377 4.178h-.088c-1.345.297-2.674.612-3.915 1.223-.454.105-.908.193-1.398.262-.087 0-.157.035-.245.035-.471.07-.961.14-1.45.193-4.178.489-9.141.524-13.214 2.045-3.496 1.345-8.704 4.352-13.161 7.411-.018.017-.053.034-.07.052-.123.087-.227.157-.35.245-.279.192-.541.384-.821.576-.175.123-.332.245-.49.35-.227.157-.437.332-.664.489-.157.123-.314.228-.472.35-.332.262-.664.507-.978.752-.105.087-.21.174-.315.244-.227.175-.455.367-.682.542-.122.105-.244.192-.367.297-.209.175-.402.332-.576.507-.105.087-.193.175-.298.262-.279.245-.524.49-.769.717.315.122.629.227.962.332.139.035.297.07.437.105.192.052.366.105.559.14.175.035.349.052.524.087.175.035.35.052.525.07l.559.052c.175 0 .349.035.524.035h1.101c.193 0 .385 0 .577-.035.192 0 .385-.017.577-.035.192 0 .384-.035.577-.052.192-.017.402-.052.594-.07.192-.035.384-.052.577-.087.087 0 .175-.035.279-.035h-.052c5.96-1.066 12.654-4.457 18.317-8.11 0 0 .035-.018.053-.035.437-.28.874-.577 1.311-.857.122-.07.227-.157.349-.227.332-.227.647-.437.961-.664.123-.087.263-.175.385-.262.315-.21.612-.437.926-.647.105-.07.21-.157.315-.227l1.154-.839h.017c.384-.28.752-.577 1.119-.857.087-.069.192-.139.279-.227.262-.192.507-.402.752-.594.105-.087.227-.175.332-.262.227-.192.454-.367.664-.542.088-.07.192-.157.28-.227.297-.245.577-.49.856-.717h.053c1.258-.647 2.621-.944 3.967-1.241.07 0 .123-.052.158-.105.891 1.573 1.887 3.321 2.936 5.191 0 0-.018 0-.018.018-.821 1.311-1.608 2.726-2.796 3.758-.297.07-.612.14-.927.209-.087.018-.174.053-.262.07-.419.105-.839.228-1.258.367-.105.035-.192.07-.297.088-.437.14-.874.297-1.328.454-.035 0-.053.018-.088.035-.454.175-.926.35-1.398.56-.105.034-.192.087-.297.122-.472.192-.944.402-1.433.629-.088.035-.193.087-.28.122a30.19 30.19 0 00-1.521.735c-.507.262-1.031.524-1.555.803-.088.053-.175.088-.263.14-.506.28-1.013.56-1.503.857l-.105.052c-3.495 2.045-6.938 4.545-9.857 7.271l.052-.052c-.105.087-.192.192-.28.279a4.104 4.104 0 00-.384.385c-.158.157-.315.315-.472.454-.14.14-.262.263-.385.402-.139.158-.297.315-.437.455-.122.14-.244.28-.367.402l-.419.472c-.122.14-.227.279-.35.402-.139.157-.262.314-.402.472-.105.14-.209.279-.332.402-.122.157-.262.314-.384.489-.105.14-.21.28-.297.42-.123.157-.228.314-.35.489-.105.157-.21.315-.315.454-.104.14-.192.298-.297.437-.192.298-.367.612-.541.909.349-.087.699-.174 1.066-.262.122-.035.227-.07.349-.087.262-.07.542-.14.804-.227.123-.035.262-.07.385-.105.384-.105.769-.21 1.153-.332.105-.035.193-.07.297-.088.315-.087.612-.192.927-.28.175-.052.332-.104.507-.157.262-.087.524-.175.804-.262.174-.052.349-.122.524-.175.402-.14.804-.279 1.224-.437.157-.052.314-.122.454-.175.297-.104.577-.209.874-.332.192-.07.367-.139.559-.209.28-.105.577-.228.857-.35.122-.052.244-.087.367-.14h-.035c5.785-2.412 11.658-5.855 14.996-10.434.14-.21.297-.402.437-.612.07-.105.14-.227.21-.332.105-.175.21-.332.315-.507.069-.105.122-.227.192-.332.122-.227.227-.437.349-.664.035-.07.07-.158.105-.228.123-.262.227-.524.332-.804l.105-.314.21-.629c.035-.105.07-.21.087-.298.053-.209.105-.437.158-.646 1.188-1.014 1.992-2.395 2.796-3.706 2.132 3.776 4.527 8.04 6.956 12.41-1.066.821-2.237 1.486-3.39 2.167-.647.035-1.294.088-1.94.14-.175 0-.35.035-.525.053-.577.052-1.171.122-1.748.209-.104 0-.209.018-.332.035h.018c-2.884.437-5.821 1.206-8.949 2.727-5.209 2.517-9.631 5.436-14.193 9.421a.638.638 0 01.123-.105c-.105.105-.228.192-.332.297-.123.105-.245.227-.367.332-.595.542-1.206 1.084-1.801 1.661.21.07.437.139.647.209.052 0 .105.035.157.053.228.07.455.14.699.192h.035c.228.053.455.105.7.14a.5.5 0 01.157.035c.245.052.507.087.769.105h.087c.245.017.49.052.734.052h1.172c.262 0 .541-.035.821-.052h.157c.315-.035.63-.088.962-.14h.035c.909-.175 1.87-.42 2.918-.804 6.363-2.342 13.668-6.222 18.318-11.606 0 0 0 .018-.018.035 0-.017.035-.035.053-.052.297-.332.559-.682.839-1.031.07-.088.14-.175.192-.245.297-.402.577-.804.856-1.224 1.154-.699 2.325-1.363 3.409-2.185 6.17 11.117 12.532 22.81 15.223 28.525.193.402.787.035.612-.367-1.992-4.247-6.222-12.235-10.854-20.712 1.433-.507 2.902-1.013 4.09-1.992a.23.23 0 00.052-.07h.123c.489-.07.961-.157 1.415-.262.07 0 .158-.035.228-.053.437-.105.856-.227 1.276-.349.069-.018.157-.053.227-.07.419-.14.839-.28 1.223-.455.035 0 .07-.035.105-.052.385-.157.752-.332 1.119-.507.052-.035.122-.052.175-.087.279-.14.559-.28.821-.437a.285.285 0 00-.087.035c4.631-2.587 7.708-6.59 10.19-8.74 3.967-3.425 5.925-7.376 7.166-10.539.384-.961.699-1.853.979-2.64-.175-.017-.35 0-.542 0h-.158c-.157 0-.332.036-.489.07-.035 0-.07 0-.122.018a8.22 8.22 0 00-.63.175c-.069.017-.139.052-.209.07-.175.052-.35.122-.525.192-.07.035-.14.052-.209.087-.228.105-.472.21-.7.332-.07.035-.157.088-.244.123-.175.087-.367.192-.56.297-.087.052-.192.105-.279.157-.245.14-.507.297-.769.455-.07.052-.14.087-.21.14-.21.139-.419.279-.647.419-.105.07-.192.14-.297.21-.245.175-.507.349-.751.524-.035.035-.07.053-.123.088-.297.209-.612.436-.909.681l-.209.157c-.35.263-.699.542-1.032.822 0 0 .018 0 .035-.018-3.74 3.024-7.708 6.957-10.731 10.61v-.018c-.035.035-.07.088-.105.123-.035.035-.07.07-.088.122a.3.3 0 01-.07.088c-.227.279-.454.559-.664.838 0 0 0 .018-.017.035-.018.035-.053.053-.07.088v.017c-.07.105-.157.193-.227.297-.088.105-.158.21-.245.315-.105.14-.21.262-.297.402-.053.07-.105.122-.14.192 0 0 0 .018-.035.035-.07.088-.122.175-.192.28v.017c-.053.07-.105.158-.157.228-.035.035-.053.087-.088.122-.052.07-.105.157-.157.227 0 0 0 .018-.018.035a2.052 2.052 0 01-.174.245s-.018.035-.035.052c-.053.088-.123.175-.175.262v.018c-.053.087-.123.192-.175.28l-.157.262c0 .017-.018.035-.035.052-.035.07-.088.14-.123.21 0 .017-.017.035-.035.052v.018c0 .017-.035.052-.035.07-.034.052-.069.105-.087.157-.052.087-.105.175-.14.262 0 0 0 .035-.035.053-.035.07-.07.139-.104.192 0 .017-.018.035-.035.07-.035.07-.07.122-.105.192 0 .018-.018.035-.035.053-.088.157-.158.314-.227.454 0 .017-.018.035-.035.07 0 .017-.018.035-.035.052a.133.133 0 01-.035.07v.035a.133.133 0 01-.035.07c-.018.053-.053.105-.07.157 0 0 0 .035-.018.053-.035.07-.052.14-.087.21v.035c-.018.052-.035.104-.07.157 0 .017 0 .052-.018.07 0 .052-.034.087-.052.14 0 .017 0 .035-.017.052l-.053.157v.035c0 .07-.035.123-.052.175v.053c0 .052-.018.087-.035.139v.053c0 .035 0 .07-.018.105-1.171.944-2.621 1.415-4.002 1.922a1173.206 1173.206 0 00-5.104-9.263c1.154-.874 2.132-1.923 3.181-2.902.437-.174.874-.367 1.311-.542.14-.069.28-.122.419-.192.595-.262 1.172-.542 1.748-.821.105-.053.192-.105.297-.158.525-.262 1.032-.541 1.521-.804.087-.052.192-.104.28-.157.541-.315 1.083-.629 1.625-.961.123-.07.227-.14.35-.21.507-.315 1.013-.629 1.503-.961 1.835-1.224 3.618-2.535 5.506-4.003 1.31-1.014 2.324-1.818 3.216-2.639 0 0 0 .017-.018.035.052-.053.123-.105.175-.175.07-.052.122-.122.192-.175l.559-.559c.053-.052.105-.105.158-.175.174-.21.367-.402.542-.629.052-.052.087-.122.139-.175.193-.227.368-.472.56-.716a.944.944 0 01.105-.14c.209-.28.419-.577.629-.892 1.992-2.954 3.128-5.75 3.6-8.424-1.835.664-3.373 1.31-5.68 2.43a6.511 6.511 0 00-.682.366c-.07.035-.14.088-.209.123-.175.105-.367.21-.56.332a1.42 1.42 0 00-.21.14c-.244.157-.489.332-.751.507-.262.192-.542.384-.822.594-.052.035-.105.087-.157.122l-.681.524c-.053.053-.123.088-.175.14-.263.192-.507.402-.769.612-.018 0-.035.035-.053.052-.28.228-.542.455-.804.682-.087.07-.157.14-.227.21-.175.14-.332.297-.507.437-.052.052-.122.105-.175.157a82.11 82.11 0 00-3.058 2.814 33.352 33.352 0 00-4.597 5.174v-.018c0 .018-.018.035-.035.053a27.14 27.14 0 00-1.311 1.957s0 .018-.018.035a65.932 65.932 0 00-2.377 4.16c-.262.507-.541 1.031-.804 1.538-1.031.979-1.992 2.01-3.128 2.867a1698.328 1698.328 0 00-5.191-9.264c1.153-.874 2.149-1.94 3.198-2.919 1.765-.402 5.786-2.097 10.138-4.964.07-.052.14-.087.209-.14.228-.157.455-.297.665-.454.139-.087.279-.192.419-.28.157-.122.332-.244.49-.367l.524-.367h-.018c2.902-2.167 5.803-4.824 8.163-7.987a32.844 32.844 0 001.643-2.43c.052-.105.105-.192.175-.297.192-.315.384-.647.559-.979.175-.314.314-.629.472-.961.052-.122.122-.245.174-.35a23.82 23.82 0 001.818-5.698c-.786.367-1.538.77-2.289 1.189-.193.105-.367.21-.56.314-.716.403-1.416.822-2.097 1.259l-.42.262c-.594.385-1.171.77-1.73 1.171-.157.123-.332.227-.489.35a50.84 50.84 0 00-1.836 1.398c-.157.122-.314.262-.489.402-.507.42-1.014.839-1.486 1.276l-.349.297c-.018 0-.035.035-.053.053l.018-.018c-1.905 1.73-3.583 3.53-4.964 5.314-3.269 4.212-5.89 7.603-7.498 9.735l-.158.21c-.105.14-.209.279-.297.402-.07.105-.157.21-.227.297s-.122.175-.192.262c-.07.087-.14.192-.192.262l-.158.21c-.052.07-.087.122-.14.192-1.083.997-2.079 2.08-3.251 2.972a520.145 520.145 0 00-5.243-9.107c.996-1.136 2.115-2.167 3.024-3.39v-.035c.297-.158.611-.315.926-.472.105-.053.21-.123.332-.175.402-.21.804-.437 1.206-.682.035 0 .053-.035.087-.052.402-.245.805-.49 1.207-.752.104-.07.227-.14.332-.227.419-.28.838-.577 1.275-.874 0 0 .018 0 .035-.017.42-.298.84-.612 1.259-.944.105-.07.192-.158.297-.228a48.678 48.678 0 002.604-2.167c.088-.07.158-.14.245-.21 5.768-5.156 10.959-11.955 12.532-18.352 0-.035 0-.087.018-.122.104-.402.174-.822.244-1.224.018-.14.053-.28.07-.437.07-.454.105-.891.14-1.328a3.344 3.344 0 00-.507.157c-.052.018-.105.035-.157.07-.122.053-.262.105-.402.175-.07.035-.123.07-.193.105-.122.07-.262.14-.384.21-.07.034-.14.087-.21.122l-.419.262c-.07.052-.14.087-.21.14-.157.105-.315.21-.472.332-.052.052-.122.087-.175.122a8.882 8.882 0 00-.681.525c-.21.174-.437.35-.647.541-2.709 2.308-5.925 5.803-8.949 9.683a.985.985 0 01-.122.158l-.525.681a2.674 2.674 0 01-.279.35c-.175.227-.35.454-.507.682a6.06 6.06 0 01-.262.35c-.175.227-.35.471-.507.698a2.12 2.12 0 00-.227.332c-.175.245-.35.49-.525.752-.052.07-.105.14-.14.21a72.374 72.374 0 00-1.887 2.814c-.018.035-.035.07-.07.087-.158.262-.332.507-.49.77-.07.104-.122.209-.192.314-.14.227-.28.472-.437.7-.07.121-.14.244-.227.366-.14.227-.262.437-.385.664-.069.14-.157.263-.227.402-.122.21-.244.42-.349.63-.07.14-.158.28-.227.419-.105.21-.228.402-.333.594-.07.14-.157.28-.227.437-.105.192-.192.385-.297.577-.07.157-.157.297-.227.454l-.262.525c-.088.175-.158.35-.245.524-.07.14-.14.297-.192.437-.105.227-.193.437-.28.647-.035 0-.052 0-.087.052-.874 1.171-1.958 2.185-2.937 3.286-1.783-3.006-3.495-6.047-5.226-9.071.892-1.119 1.626-2.342 2.395-3.548l.856-.123c.437-.07.857-.192 1.294-.314.139-.035.279-.088.402-.14.279-.105.576-.21.856-.332.14-.07.28-.123.419-.192.298-.14.577-.297.857-.455.105-.052.21-.122.315-.175 8.11-4.928 12.619-19.19 13.458-29.049v-.192l-.017-.42z" fill="#D7ECFA"/><path d="M261.78 97.761s22.826-33.558 31.845-45.164c2.342-3.006 3.373-.542 3.286-.35-.804 1.609-34.642 48.731-34.642 48.731s-10.365 13.003-13.406 14.629c-1.119.612-1.311-.018-1.643-.122-.314-.105.088-1.224 1.748-2.622 0 0 9.823-10.47 12.794-15.102h.018z" fill="#ECF5FC"/><path d="M272.687 89.616c-.105.35-.175.7.035 1.119.227.42.699.752 1.188 1.154 2.01 1.695 2.325.699 2.762.104.279-.384.139-.926.139-.926-.227-.297-.979-1.101-1.381-1.346-1.101-.664-2.219-1.957-2.761-.105h.018zm19.645-12.776c.123-.49.874-1.294-.367-1.888-.437-.21-2.027-.262-2.621-.437-.734-.21-2.168-1.189-2.745-1.066-.576.122-1.695.28-1.66 1.118.052 1.154.576 1.311.961 1.713.385.402 1.486.647 2.22.874.734.228 1.8.63 2.307.612.787-.035 1.8-.454 1.905-.926zm-47.104-13.284c.105 5.314 6.799 12.934 9.683 16.045 2.272 2.43 7.533 5.174 8.198 2.517.664-2.657-5.716-5.68-9.194-9.578-4.177-4.667-5.733-8.232-4.807-14.525.455-3.058 8.39-9.368 11.903-9.473-2.5 8.74-.402 14.857 1.468 18.947 1.224 2.691 3.461 5.243 6.065 3.39 2.604-1.852-.262-4.894-1.52-8.127-2.15-5.506-.822-10.138.244-12.969 1.241-3.269 7.149-5.261 12.672-3.968-4.247 5.087-2.255 13.669-.769 16.01 1.486 2.325 3.531 1.102 4.16-1.31.489-1.836 3.041-11.833 3.95-12.9 3.408-3.967 11.518-2.639 15.73-3.862.595 5.051 3.584 10.767.909 13.825-.926 1.05-9.595 7.394-11.221 8.547-2.149 1.521-2.552 3.723.367 4.038 2.919.315 12.253-1.503 15.591-7.131 3.531 4.125 5.593 10.627 2.849 12.986-2.394 2.063-8.092 3.548-14.42 3.968-3.722.262-9.001.245-9.788 3.18-.786 2.937 3.496 3.007 6.904 3.322 3.164.297 11.728-.804 19.419-6.45 1.328 3.007-1.398 11.134-4.055 13.04-3.863 2.778-9.351 4.211-17.094 2.149-5.279-1.398-10.714-4.981-13.074-3.356-2.377 1.643 3.146 4.282 6.729 5.855 3.147 1.381 17.706 2.832 20.066 1.189.279 4.911-4.003 9.578-7.796 11.413-5.82 2.814-11.815-.052-15.608-2.534-4.107-2.692-9.98-8.145-10.609-4.789-1.538 8.075 14.524 10.941 17.059 11.868-4.422 8.197-17.321 7.952-23.194-.647-3.566-5.226-1.451-10.924-3.828-13.284.559-.716 25.606-36.302 26.917-38.068 1.538-2.097 5.103-7.725 5.156-8.477-.734.332-4.877 5.61-6.327 7.76-1.241 1.819-27.214 37.177-27.704 37.929-3.303-1.031-5.575 3.618-12.13 2.342-6.991-1.381-16.919-7.096-10.959-20.153 1.941 1.748 7.097 6.415 10.191 8.74 2.446 1.852 6.589 3.67 7.602 1.66 1.556-3.094-6.833-5.977-11.168-8.32-4.003-2.184-6.799-4.194-7.376-8.669-.332-2.5 3.828-10.907 8.792-12.148l.017.018zm14.297 28.787c-1.293-.227-1.66.49-1.8 1.188-.087.403-.262.962.245 1.276.367.245 1.905.507 2.447.595a3.9 3.9 0 001.503-.035c.577-.14 1.206-.053 1.276-.455.07-.332-.157-.891-.647-1.363-.384-.35-2.342-1.119-3.024-1.224v.018zm15.276-16.203c-.856-.908-3.251-2.674-4.02-2.691-2.429-.053-2.726 1.713-2.639 2.167.105.455 2.167 1.154 2.657 1.538.384.315.682 1.171.856 1.294.769.576 2.22.21 2.692-.175.577-.472 1.328-1.224.454-2.132z" fill="#ECF5FC"/><path d="M212.488 38.892v4.143h.944v-4.143c0-.297-.21-.541-.472-.541-.263 0-.472.244-.472.541zm0 18.125c0 .297.209.542.472.542.262 0 .472-.245.472-.542V53.12h-.944v3.897zm-9.597-9.071c0 .245.262.455.559.455h4.334v-.892h-4.334c-.315 0-.559.193-.559.455v-.018zm19.541-.434h-4.073v.892h4.073c.315 0 .559-.193.559-.455s-.262-.454-.559-.454v.017zm-16.519-5.644l3.076 2.936.664-.63-3.076-2.936c-.227-.21-.542-.244-.734-.07-.193.175-.158.49.07.7zm13.405 12.812c.227.21.541.245.734.07.192-.175.157-.49-.07-.7l-2.884-2.76-.664.628 2.884 2.762zm-13.473.07c.175.175.507.14.735-.07l3.076-2.936-.664-.629-3.077 2.937c-.227.21-.244.524-.07.699zm13.473-13.512L216.434 44l.664.63 2.884-2.762c.227-.21.245-.525.07-.7-.175-.174-.507-.14-.734.07z" fill="#D7ECFA"/><path d="M175.533 223.279c58.16 0 105.308-2.316 105.308-5.174 0-2.857-47.148-5.173-105.308-5.173-58.159 0-105.307 2.316-105.307 5.173 0 2.858 47.148 5.174 105.307 5.174z" fill="#DCE6F5"/><path d="M65.267 96.809c5.83 0 10.556-4.727 10.556-10.557s-4.726-10.557-10.556-10.557c-5.83 0-10.557 4.726-10.557 10.557 0 5.83 4.726 10.557 10.557 10.557z" fill="#D7ECFA"/><path d="M5.278 93.957a5.278 5.278 0 100-10.557 5.278 5.278 0 000 10.557z" fill="#ECF5FC"/><path d="M203.869 59.839a2.639 2.639 0 100-5.278 2.639 2.639 0 000 5.278z" fill="#EDF4F4"/><path d="M31.566 57.985v4.143h.943v-4.143c0-.297-.21-.542-.472-.542s-.471.245-.471.542zm0 18.122c0 .297.21.541.471.541.263 0 .472-.244.472-.541v-3.898h-.944v3.898zm-9.598-9.053c0 .245.262.455.56.455h4.335v-.892h-4.335c-.315 0-.56.192-.56.455v-.018zm19.542-.452h-4.073v.89h4.073c.314 0 .559-.191.559-.454 0-.262-.262-.454-.56-.454v.017zM24.992 60.96l3.076 2.937.665-.63-3.077-2.936c-.227-.21-.541-.245-.734-.07-.192.175-.157.49.07.7zm13.405 12.813c.227.21.542.244.734.07.192-.175.158-.49-.07-.7l-2.884-2.761-.664.629 2.884 2.762zm-13.477.069c.175.174.507.14.735-.07l3.076-2.937-.664-.629-3.076 2.936c-.228.21-.245.525-.07.7zm13.477-13.511l-2.884 2.762.664.63 2.884-2.763c.228-.21.245-.524.07-.699-.175-.175-.507-.14-.734.07zm34.82 59.391c-.105-.21-.192-.437-.297-.629-.052-.088-.088-.175-.14-.28-.087-.157-.157-.332-.245-.489-.07-.14-.14-.262-.21-.402a2.742 2.742 0 00-.174-.315c-.123-.227-.262-.454-.385-.664a37.872 37.872 0 00-.42 2.027c-.052.245-.086.49-.139.734-.087.437-.175.892-.245 1.346-.052.28-.087.542-.14.822l-.21 1.311-.104.804c-.07.454-.122.909-.175 1.363 0 .105-.035.227-.052.332v-.07c-.822 6.922-.735 13.966.978 19.471 0-.035-.034-.052-.034-.087.052.157.104.297.157.454.035.123.087.245.122.367.14.385.28.752.42 1.119-.018.035-.053.052-.053.105-.07 1.014-.105 2.027-.28 3.041a334.359 334.359 0 00-5.365-3.216c0-1.171.035-2.395-.35-3.496.07-.244.122-.489.175-.716.017-.088.035-.175.052-.28.035-.21.07-.419.105-.612 0-.105.035-.209.035-.314.018-.21.053-.42.053-.612 0-.087 0-.175.017-.28 0-.297.018-.577.018-.874v-.052c0-.28 0-.559-.035-.839 0-.105-.018-.192-.035-.297-.018-.192-.035-.402-.07-.594 0-.105-.035-.21-.053-.315 0-.07-.017-.14-.035-.21v.053c-1.013-6.135-5.68-12.026-10.155-16.448a56.584 56.584 0 00-2.132-2.01c-.035-.035-.087-.069-.122-.122l-.927-.821c-.07-.07-.14-.123-.21-.193a35.891 35.891 0 00-.89-.769c0 .315.034.629.052.962 0 .139.035.279.035.437 0 .174.035.349.052.541.017.158.035.297.052.455.018.175.053.349.07.524.018.14.053.297.07.437.035.175.07.367.105.542.035.14.053.28.088.419.035.193.087.385.122.577.035.123.07.262.087.385.053.209.105.402.158.611.035.123.07.263.104.385.053.21.123.402.175.612.035.122.088.262.123.384.07.193.122.402.192.595 0 .052.035.087.052.139v-.035c.804 2.43 1.888 4.824 3.146 7.079 0 0 0 .018.018.035l.42.734c.034.053.07.105.104.175.14.245.297.489.437.752.035.052.053.087.088.139.157.263.314.507.472.752.017.035.052.07.07.105.174.262.331.524.506.769 0 .017.035.052.053.07.175.262.35.524.541.786 0 0 .018.035.035.053.193.262.367.524.56.786l.017.018c1.888 2.552 3.916 4.719 5.873 6.257.35 1.014.332 2.115.332 3.181a109.861 109.861 0 00-7.096-3.775 25.75 25.75 0 01-.77-.647c-.209-.175-.419-.349-.628-.542l-.717-.611c-.682-.595-1.38-1.207-2.097-1.836-2.605-2.289-5.506-4.789-8.74-7.113-3.093-2.22-6.467-4.003-9.665-5.296h.035c-.105-.035-.21-.088-.315-.123-.087-.035-.157-.07-.245-.087-.402-.157-.803-.315-1.206-.455-.07-.017-.14-.052-.21-.069-.384-.14-.768-.263-1.153-.385a.136.136 0 01-.087-.035c-.385-.122-.77-.227-1.154-.332-.087-.018-.157-.052-.244-.07-.367-.087-.717-.175-1.067-.262-.087-.018-.174-.035-.244-.053-.35-.07-.7-.139-1.032-.209-.052 0-.104 0-.157-.018-.315-.052-.611-.105-.909-.14-.052 0-.105 0-.157-.017a16.683 16.683 0 00-.909-.07h-1.154c-.28 0-.541.035-.786.052.175.193.367.42.56.63l.087.087.542.594c.052.053.087.105.14.158l.646.699c.087.105.192.209.297.314.123.123.245.245.367.385.07.07.14.14.21.227v-.017c4.16 4.264 10.924 10.085 20.747 13.458-.035 0-.053 0-.087-.017.174.052.349.104.506.174.14.053.28.088.437.14.367.123.752.227 1.119.35.087.035.175.052.28.087.489.14.978.28 1.468.402.07 0 .122.035.192.053.42.104.856.209 1.293.314.14.035.28.053.42.088.367.087.751.157 1.136.227.157.035.314.052.454.087.385.07.787.14 1.189.192.14.018.28.053.402.07.315.053.612.088.926.123 1.783.856 3.548 1.783 5.279 2.726-1.276.088-2.5.105-3.758-.192l-.682-.315c-.105-.052-.21-.087-.314-.139l-.262-.105.034.035c-6.939-2.727-17.303-1.818-23.98-.734-.961.157-2.062.419-3.163.734-.07.017-.123.035-.193.052-.262.07-.507.14-.769.227-.105.035-.21.07-.297.088-.122.035-.245.07-.367.122l-.314.105c-.105.035-.228.07-.333.105-.192.07-.384.122-.576.192-.088.035-.175.053-.263.087-.122.035-.244.088-.367.123-.087.035-.175.052-.262.087-.122.053-.262.088-.384.14a1.87 1.87 0 01-.175.052c-.175.053-.332.123-.49.175l-.157.053-.315.105c-.034 0-.087.035-.122.035-.122.035-.227.087-.314.122h-.035a4.83 4.83 0 00-.28.105c-.018 0-.035 0-.053.017-.052.018-.104.035-.14.053h-.034c-.035 0-.053.017-.053.017.192.14.402.28.612.402.07.035.14.088.21.122.157.088.332.193.506.28l.21.105c.227.105.472.21.717.315l.262.105c.175.069.35.139.525.192.122.035.227.087.35.122.174.053.349.105.54.175.228.07.455.122.683.192.122.035.227.07.35.088 7.06 1.747 17.914 1.066 25.01-1.084h.036c.087-.035.175-.052.28-.087.227-.07.454-.14.663-.21.105-.035.21-.07.297-.105.21-.07.438-.157.63-.227.07-.035.157-.053.227-.088.28-.105.56-.227.822-.349.017 0 .034 0 .052-.018.244-.105.472-.227.699-.332.07-.035.122-.07.192-.105.175-.087.35-.192.525-.297.052-.035.122-.07.174-.105a3.71 3.71 0 00.35-.227c1.328.262 2.64.192 4.002.087.035 0 .053 0 .07-.017a200.848 200.848 0 016.782 3.968c-.751.402-1.486.856-2.255 1.206h-1.468a17.7 17.7 0 00-1.643.087h-.017c-5.331.367-11.501 1.748-16.902 3.758-3.565 1.171-7.428 3.443-10.68 5.191-.733.384-1.45.821-2.149 1.293-.262.175-.507.35-.752.525-.07.052-.14.105-.227.157-.21.157-.42.315-.611.472-.088.07-.175.14-.263.192-.21.175-.437.35-.629.525a.846.846 0 00-.14.122c-.244.21-.472.419-.699.629-.07.053-.122.122-.174.175-.175.157-.333.332-.49.489-.052.07-.122.123-.175.193-.192.209-.384.419-.56.629.473 0 .945-.035 1.417-.035.541 0 1.1-.018 1.66-.035h.175c.507 0 1.014-.035 1.52-.053h.088a25.079 25.079 0 001.59-.104h.053c1.223-.105 2.447-.263 3.635-.56 3.723-.891 6.625-1.852 10.103-2.901a51.959 51.959 0 0014.857-8.198l-.105.105c.227-.174.454-.367.664-.542.21-.174.42-.332.629-.506.49-.402.961-.822 1.45-1.259.84-.402 1.626-.891 2.448-1.328 1.03.629 2.08 1.276 3.11 1.905-.716.559-1.415 1.136-2.149 1.678-.437.175-.874.367-1.31.577l-.578.262c-.28.122-.542.262-.821.384-.21.105-.437.21-.647.315l-.839.419c-.21.105-.42.21-.629.333-.07.035-.122.069-.192.087h.035c-4.842 2.569-10.155 6.222-14.507 11.413 0 0 .017-.035.035-.052-.175.21-.35.437-.525.664-.297.367-.594.717-.874 1.101-.21.28-.402.577-.594.857-.245.349-.507.681-.734 1.048-.28.42-.524.857-.787 1.294-.157.245-.314.489-.454.734a28.296 28.296 0 00-1.136 2.167h.681c.105 0 .21 0 .333-.035.07 0 .14-.017.227-.035.105 0 .192-.035.297-.052.087 0 .157-.035.245-.053.087-.017.192-.035.297-.069.087-.018.175-.035.245-.07.087-.018.192-.053.28-.088.087-.035.174-.052.261-.087.088-.035.193-.07.28-.105a4.71 4.71 0 01.28-.105l.262-.105c.087-.035.192-.07.28-.122.087-.035.174-.07.262-.122.104-.053.192-.088.297-.14.07-.035.122-.07.192-.088.42-.209.857-.437 1.276-.681.052-.035.105-.053.14-.088a4.8 4.8 0 00.384-.244.73.73 0 01.158-.088c.14-.087.262-.175.402-.245.052-.034.104-.069.14-.087.14-.087.279-.175.401-.28.035-.035.088-.052.123-.087.14-.105.28-.192.437-.297.017-.018.052-.035.07-.053.157-.104.314-.227.471-.332.123-.087.263-.192.385-.279 2.43-1.836 4.684-3.985 6.31-5.698a165.576 165.576 0 003.688-4.02c.017-.035.052-.053.07-.088.262-.297.507-.594.769-.891 0-.018.035-.035.052-.053.245-.279.49-.576.717-.856l.21-.262c.192-.227.367-.455.541-.682l.21-.262c.21-.262.402-.507.594-.752.035-.052.088-.104.123-.157.227-.297.454-.612.664-.909.035-.052.07-.105.122-.157.175-.245.332-.472.49-.699.052-.088.104-.175.174-.245.14-.21.263-.402.385-.612a1.54 1.54 0 00.14-.227c.157-.262.314-.524.437-.769.769-.559 1.503-1.171 2.254-1.748.804.49 1.608.997 2.43 1.486.856.524 1.905 1.171 3.094 1.905-.018 0-.035 0-.053.035-.787.682-1.556 1.381-2.15 2.237-.262.228-.541.455-.821.682-.053.035-.088.07-.14.105-.28.227-.594.437-.891.664-2.605 1.853-5.89 3.688-8.04 6.187-1.836 2.168-4.195 6.065-6.048 9.718 0 .018-.018.035-.035.07-.053.105-.087.193-.14.297-.105.228-.227.455-.332.682-.07.14-.14.28-.192.42-.088.192-.175.384-.262.559-.07.14-.122.262-.192.402a32.5 32.5 0 00-.385.856c-.035.105-.07.193-.122.28-.088.21-.175.402-.245.612-.053.105-.087.227-.122.332-.07.192-.14.367-.21.542-.035.087-.07.192-.105.279-.087.262-.175.507-.245.752.245-.035.507-.07.752-.14.105-.017.21-.052.332-.087.14-.035.28-.07.42-.123.122-.035.244-.087.367-.14.122-.052.244-.087.366-.139.123-.053.263-.105.385-.175.122-.053.245-.105.367-.175.122-.07.245-.14.385-.192.122-.07.244-.123.367-.21.122-.07.244-.157.367-.227.122-.07.244-.157.367-.227.122-.088.244-.158.367-.245l.367-.262c.122-.088.227-.175.35-.262a.62.62 0 01.174-.123s-.017 0-.035.018c3.566-2.884 6.764-7.586 9.211-12.078 0 0 0-.017.018-.035.192-.349.384-.699.559-1.049.052-.087.088-.192.14-.279.14-.262.262-.525.402-.787l.157-.314c.123-.263.245-.507.367-.769.035-.088.088-.175.123-.263.157-.332.314-.664.454-.978.157-.332.297-.647.437-.979.035-.088.07-.157.105-.245.105-.227.192-.454.28-.664.035-.105.087-.192.122-.297.087-.21.157-.402.245-.594l.105-.263c.104-.279.21-.541.296-.786l.036-.035c.594-.892 1.398-1.573 2.184-2.272.053-.035.07-.088.053-.123 1.153.717 2.464 1.521 3.845 2.377v.018c-.07 1.171-.07 2.394-.49 3.513-.174.157-.349.315-.541.472-.053.052-.105.087-.157.14-.228.227-.472.454-.7.699-.052.052-.105.122-.157.175-.245.244-.472.507-.717.786 0 .018-.035.035-.052.053-.245.279-.49.577-.734.874-.052.07-.105.122-.157.192-.245.297-.49.612-.717.944l-.14.192c-.245.332-.49.682-.734 1.031l-.734 1.101c-.035.07-.087.123-.122.193-.228.367-.472.734-.682 1.118 0 .018-.035.053-.052.07-1.573 2.639-2.954 5.558-3.898 8.442v-.052c-.035.087-.053.192-.088.279-.035.123-.087.263-.122.385-.052.157-.087.315-.14.472-.035.14-.07.262-.105.402-.034.157-.087.315-.122.472-.035.14-.07.279-.105.402l-.105.472c-.035.14-.052.262-.087.402-.035.157-.07.314-.088.454-.017.123-.052.262-.07.385-.017.157-.052.314-.07.454-.017.123-.034.262-.052.385l-.052.454c0 .14-.018.28-.035.42 0 .139-.017.262-.035.402 0 .262-.017.541-.035.804l.612-.56c.07-.07.14-.122.192-.192.157-.14.297-.297.454-.437.07-.07.14-.14.228-.21l.646-.646c.053-.053.105-.123.175-.175.175-.175.35-.35.507-.525.087-.104.192-.192.28-.297.14-.157.28-.314.437-.472.087-.104.192-.192.28-.297.209-.244.436-.489.646-.734.087-.087.157-.192.245-.279.157-.175.314-.35.454-.542.105-.123.192-.228.297-.35.158-.175.297-.367.437-.542.07-.07.123-.157.192-.227l-.017.018c2.971-3.723 5.61-8.145 6.152-12.393.018-.192.053-.384.053-.559 0-.105 0-.192.017-.297 0-.157 0-.297.018-.454v-1.067c0-.227-.035-.437-.07-.664 0-.087-.018-.157-.035-.245-.035-.174-.053-.332-.088-.489 0-.07-.034-.157-.052-.227a5.147 5.147 0 00-.14-.49c.42-1.101.437-2.307.507-3.478 2.78 1.731 5.925 3.688 9.141 5.698-.402.944-.944 1.8-1.45 2.674-.42.263-.822.525-1.242.804-.104.07-.227.158-.331.228-.368.244-.735.506-1.084.786-.07.053-.14.088-.21.14-1.748 1.328-3.426 2.936-4.946 5.069-2.535 3.565-4.422 7.131-5.978 11.431 0-.035.018-.088.035-.123l-.105.315c-.035.122-.087.245-.122.349-.21.577-.402 1.154-.594 1.766.174-.035.332-.07.507-.105.034 0 .07 0 .122-.018.175-.035.35-.087.524-.122h.035c.175-.052.332-.105.507-.157.035 0 .07-.018.122-.035.175-.07.368-.123.56-.21.017 0 .035-.017.07-.035.174-.07.332-.14.507-.227l.104-.053a3.5 3.5 0 00.56-.314c.035 0 .052-.035.087-.053.175-.104.35-.209.524-.332.035-.017.07-.052.105-.07.193-.139.385-.279.594-.454 0 0 .018 0 .035-.035a12.765 12.765 0 001.643-1.608c3.374-3.88 6.8-9.124 7.936-14.385v-.035c.07-.332.122-.664.174-.996 0-.087.035-.157.035-.245a26.3 26.3 0 00.123-1.118c.524-.874 1.049-1.748 1.468-2.692 8.162 5.121 16.657 10.575 20.52 13.389.279.209.541-.28.262-.472-2.867-2.098-8.6-5.856-14.77-9.806.769-.856 1.556-1.73 1.993-2.814v-.07c.035 0 .053-.035.07-.052.297-.227.577-.455.839-.699a.9.9 0 00.14-.123c.244-.227.489-.454.716-.699.035-.052.088-.087.123-.14.227-.244.454-.489.646-.751.018-.018.035-.053.053-.07.192-.245.384-.49.559-.752.035-.035.053-.087.087-.122.14-.192.263-.385.385-.594l-.052.052c2.132-3.408 2.709-7.184 3.583-9.526 1.38-3.723 1.241-7.061.909-9.613a64.08 64.08 0 00-.315-2.097 2.221 2.221 0 00-.35.192c-.035.018-.069.052-.104.07a3.46 3.46 0 00-.298.227c-.017.018-.052.035-.07.053a3.382 3.382 0 00-.349.349c-.035.035-.07.088-.105.122-.087.105-.175.21-.28.315-.035.053-.07.088-.105.14-.122.157-.227.315-.349.472-.035.052-.07.105-.105.175a7.807 7.807 0 00-.262.402c-.035.07-.088.14-.122.209-.123.193-.228.385-.35.595a.771.771 0 00-.087.175 7.497 7.497 0 01-.28.506c-.035.088-.087.158-.122.245-.105.21-.21.402-.315.629 0 .035-.035.07-.053.105a8.312 8.312 0 00-.349.787c-.018.052-.053.122-.07.174-.14.298-.262.612-.385.927v-.018c-1.38 3.374-2.586 7.446-3.25 10.959v-.017a.305.305 0 01-.018.122c0 .035 0 .07-.017.105v.07c-.053.262-.088.524-.14.787v.122c0 .087-.035.192-.053.279 0 .105-.035.193-.035.298-.017.122-.035.244-.052.384 0 .053-.017.122-.017.175v.035c0 .087-.018.175-.035.245 0 .07 0 .139-.018.209v.105c0 .07 0 .14-.017.21v.035c0 .07 0 .157-.018.227v.053c0 .069 0 .157-.017.227v2.517c0 .052 0 .122.017.174v.228c0 .035 0 .07.018.105v.052c0 .035 0 .087.017.122v.035c0 .053.018.088.035.14v.035c0 .035.017.07.035.105v.035c0 .017 0 .052.017.07-.437 1.049-1.223 1.888-1.957 2.726a747.854 747.854 0 00-6.764-4.282c.454-.996.716-2.045 1.049-3.093.227-.28.454-.56.663-.839.07-.088.14-.193.21-.28.297-.402.577-.787.857-1.189.052-.069.087-.139.14-.209.244-.367.489-.734.716-1.101.035-.07.088-.14.123-.21.244-.402.489-.822.734-1.224l.157-.262c.227-.402.437-.786.647-1.188a69.004 69.004 0 002.202-4.667c.507-1.154.874-2.045 1.171-2.936v.034c.018-.052.035-.122.052-.174.018-.07.035-.123.053-.193l.157-.576c0-.053.035-.105.035-.175.052-.193.088-.402.14-.612 0-.052.017-.105.035-.157l.105-.682v-.14c.035-.262.07-.524.087-.821.245-2.692-.017-4.964-.681-6.904-.979 1.118-1.766 2.097-2.884 3.688-.105.157-.21.314-.315.489-.035.053-.07.105-.087.157-.088.14-.158.28-.245.42-.035.052-.053.105-.088.157-.105.193-.21.402-.314.612-.105.227-.227.454-.332.699a.523.523 0 01-.07.14c-.088.192-.175.384-.262.594-.018.053-.053.105-.07.158-.088.227-.193.454-.28.681 0 0 0 .035-.018.053-.104.244-.192.489-.297.751-.034.07-.052.14-.087.227-.052.158-.122.315-.175.472a.625.625 0 01-.07.158 54.214 54.214 0 00-.996 2.988 25.843 25.843 0 00-1.171 5.122v-.018.053c-.07.594-.122 1.188-.157 1.782v.035a50.454 50.454 0 00-.053 3.636c0 .437 0 .874.035 1.311-.332 1.031-.594 2.062-1.03 3.041-2.395-1.503-4.72-2.954-6.835-4.265.437-1.013.717-2.062 1.066-3.111 1.031-.926 3.077-3.496 4.912-6.991.035-.053.052-.105.087-.158.087-.174.192-.367.28-.541.052-.105.122-.228.174-.333.07-.139.14-.279.193-.419.07-.14.14-.297.21-.437 1.135-2.499 2.097-5.331 2.499-8.285.105-.734.175-1.468.192-2.219v-1.119c0-.262-.017-.542-.035-.804v-.297a18.278 18.278 0 00-.874-4.457 43.671 43.671 0 00-1.083 1.625l-.263.42a29.56 29.56 0 00-.943 1.608c-.053.105-.123.227-.175.332-.245.472-.49.926-.717 1.398-.07.14-.14.28-.192.42-.245.541-.49 1.066-.717 1.608-.052.139-.122.297-.174.437-.193.471-.368.926-.525 1.38-.035.105-.087.21-.122.332 0 .018 0 .035-.018.053v-.018a33.89 33.89 0 00-1.363 5.349c-.63 3.985-1.136 7.201-1.433 9.193 0 .07-.018.123-.035.193-.018.14-.035.262-.053.384 0 .105-.035.192-.035.28 0 .087-.017.157-.035.245 0 .087-.017.174-.035.244 0 .07 0 .123-.017.193 0 .052 0 .122-.017.174-.367 1.049-.612 2.133-1.067 3.164a437.151 437.151 0 00-6.799-4.142c.245-1.119.612-2.22.77-3.356v-.018c.14-.21.296-.419.436-.647.053-.069.105-.157.157-.227.193-.297.368-.594.543-.891 0-.018.017-.035.035-.07.174-.297.349-.612.524-.944.052-.087.087-.175.14-.262.174-.332.35-.682.524-1.049v-.035c.175-.349.332-.716.49-1.083l.104-.263c.332-.769.647-1.573.944-2.377.035-.07.052-.157.087-.227 1.94-5.541 2.92-11.938 1.608-16.762 0-.035-.017-.052-.034-.087a13.695 13.695 0 00-.28-.909l-.105-.315c-.123-.314-.245-.629-.402-.943-.088.087-.192.174-.28.297a.367.367 0 01-.07.087c-.07.088-.14.175-.192.262-.035.035-.052.088-.087.14-.07.088-.123.192-.175.28a.706.706 0 00-.087.157c-.053.105-.123.21-.175.332-.035.053-.053.105-.087.175-.07.122-.123.262-.193.385-.017.052-.052.104-.07.157-.087.192-.175.384-.262.594-.087.192-.157.385-.245.594-.961 2.517-1.817 6.013-2.412 9.701 0 .052 0 .105-.017.14-.035.209-.07.419-.105.646 0 .105-.035.228-.052.333-.035.209-.07.419-.088.646 0 .105-.035.227-.052.332-.035.21-.053.437-.088.647 0 .105-.017.21-.035.297-.035.227-.052.455-.087.682 0 .07 0 .122-.017.192a65.797 65.797 0 00-.228 2.552v.087c0 .228-.035.455-.035.682v.28c0 .209-.017.419-.035.629v.314c0 .193 0 .385-.017.577v3.024c0 .14 0 .297.017.437 0 .14.018.297.035.437 0 .122 0 .245.035.367 0 .175.035.35.053.524 0 .018-.035.035-.035.053-.157 1.101-.507 2.167-.752 3.251-2.29-1.346-4.527-2.744-6.781-4.125.174-1.066.227-2.15.297-3.216l.524-.402c.262-.21.507-.437.734-.682.07-.07.14-.157.227-.245.158-.174.297-.349.455-.524.07-.087.14-.192.21-.28.14-.192.28-.402.402-.611.052-.088.104-.158.14-.245 3.582-6.24 1.38-17.356-1.661-24.208a.518.518 0 00-.07-.139l-.035.052z" fill="#D7ECFA"/><path d="M230.192 146.06c0-1.066-.297-2.08-.804-2.989-1.119-2.447-3.793-10.103 2.954-10.103h30.831v-30.989c0-6.746-7.637-4.072-10.102-2.954a5.939 5.939 0 01-2.989.804c-4.038 0-7.323-4.125-7.323-9.21 0-5.087 3.268-9.212 7.323-9.212a6.21 6.21 0 012.639.612c.07 0 .14 0 .21.052 2.29 1.084 10.242 3.985 10.242-2.884V48.198h-30.831c-6.869 0-3.968-7.953-2.884-10.242a.464.464 0 00.052-.21 5.97 5.97 0 00.612-2.64c0-4.037-4.125-7.323-9.211-7.323-5.087 0-9.211 3.269-9.211 7.324 0 1.066.297 2.08.804 2.989 1.118 2.447 3.792 10.102-2.954 10.102h-31.129v30.99c0 6.746 7.638 4.072 10.102 2.953a5.939 5.939 0 012.989-.804c4.038 0 7.323 4.125 7.323 9.211 0 5.087-3.268 9.211-7.323 9.211a6.216 6.216 0 01-2.639-.611c-.07 0-.14 0-.21-.053-2.29-1.083-10.242-3.985-10.242 2.884v30.989h31.129c6.869 0 3.967 7.953 2.884 10.243a.467.467 0 00-.053.21 5.965 5.965 0 00-.612 2.639c0 4.037 4.125 7.323 9.212 7.323 5.086 0 9.211-3.268 9.211-7.323z" fill="#415B95"/><path d="M262.855 217.721v-84.736h-30.989c-6.746 0-4.072 7.638-2.953 10.103.524.909.803 1.923.803 2.989 0 4.037-4.124 7.323-9.211 7.323-5.086 0-9.211-3.268-9.211-7.323 0-.927.228-1.818.612-2.64 0-.069 0-.139.052-.209 1.084-2.29 3.986-10.243-2.883-10.243h-30.99v30.832c0 6.869-7.952 3.968-10.242 2.884a.465.465 0 00-.21-.052 5.968 5.968 0 00-2.639-.612c-4.038 0-7.323 4.125-7.323 9.211s3.268 9.211 7.323 9.211c1.066 0 2.08-.297 2.989-.804 2.447-1.118 10.102-3.793 10.102 2.954v31.129h84.735l.035-.017z" fill="#F8CD82"/><path d="M164.804 166.179c.927 0 1.818.227 2.64.611.069 0 .139 0 .209.053 2.29 1.083 10.243 3.985 10.243-2.884v-30.99h-31.129c-6.869 0-3.968-7.952-2.884-10.242a.465.465 0 00.052-.21 5.965 5.965 0 00.612-2.639c0-4.037-4.125-7.323-9.211-7.323s-9.211 3.268-9.211 7.323c0 1.066.297 2.08.804 2.989 1.118 2.447 3.793 10.102-2.954 10.102H93.143v30.99c0 6.746 7.638 4.072 10.103 2.954a5.926 5.926 0 012.988-.804c4.038 0 7.324 4.125 7.324 9.211s-3.269 9.211-7.324 9.211a6.21 6.21 0 01-2.639-.612c-.07 0-.14 0-.21-.052-2.289-1.084-10.242-3.985-10.242 2.884v30.989h84.735v-30.989c0-6.747-7.638-4.073-10.102-2.954a5.943 5.943 0 01-2.989.804c-4.038 0-7.324-4.125-7.324-9.211 0-5.087 3.269-9.211 7.324-9.211h.017z" fill="#6698C5"/><path d="M123.382 86.791a5.78 5.78 0 01-.07 2.57v.21c-.577 2.341-1.748 10.294 4.649 8.983l28.84-5.925-5.961-28.962c-1.31-6.397 6.642-5.208 8.984-4.65.07.018.14.018.21 0 .839.21 1.713.246 2.569.07 3.758-.768 6.013-5.243 5.052-9.962-.962-4.72-4.807-7.935-8.565-7.166a5.74 5.74 0 00-2.639 1.328c-2.062 1.52-8.669 5.471-9.963-.804l-5.907-28.7-28.84 5.926c-6.274 1.293-2.324 7.9-.804 9.963a5.911 5.911 0 011.329 2.639c.769 3.758-2.43 7.603-7.167 8.564-4.736.962-9.193-1.293-9.962-5.051a5.786 5.786 0 01.07-2.57v-.21c.577-2.341 1.748-10.294-4.65-8.983l-28.839 5.925 5.908 28.7c1.31 6.397-6.642 5.208-8.984 4.65a.425.425 0 00-.21 0 5.794 5.794 0 00-2.569-.07c-3.758.768-6.013 5.243-5.051 9.962.961 4.72 4.806 7.935 8.564 7.166a5.737 5.737 0 002.64-1.328c2.062-1.521 8.669-5.471 9.962.804l5.96 28.961 28.84-5.925c6.274-1.293 2.324-7.9.803-9.962a5.92 5.92 0 01-1.328-2.64c-.769-3.758 2.43-7.603 7.166-8.564 4.737-.961 9.194 1.293 9.963 5.051z" fill="#FCA259"/><path d="M121.793 221.579l14.629-74.843m14.312 75.699l-14.315-75.699m32.267 74.668l-14.402-75.699m-6.222 62.538l17.636-1.014m-20.674-15.064l18.073-1.049m-20.174-14.001l16.343-.944m-19.244-13.286l16.919-.979m-20.382-12.934l17.846-1.031" stroke="#231F20" stroke-width="1.123" stroke-miterlimit="10"/><path d="M44.396 181.958s.14-.052.157-.122l1.136-4.125s-.035-.175-.122-.193a.19.19 0 00-.21.123l-1.136 4.125s.035.174.123.192h.052z" fill="#49478A"/><path d="M34.712 176.225l17.792-.507c.193 3.286.612 12.357.944 17.391.717 14.07 2.08 30.674 2.08 30.674l2.028 2.098h-5l-6.169-32.772-1.958-8.093-1.24 1.713-.84 6.38-3.355 32.772H34.78l1.05-1.923s-.77-14.542-1.12-30.849c-.122-4.405-.14-12.777 0-16.884z" fill="#314572"/><path d="M28.908 164.481c0-.297.07-.664.175-.996.157-1.154.647-2.29 1.119-3.391 1.066-2.464 2.132-4.946 3.18-7.411.403-.944 1.19-2.132 1.818-2.989 1.329-1.8 3.321-2.394 5.82-2.394 1.172 0-1.94 4.702-2.674 5.855-1.1 1.696-1.45 3.758-3.163 6.957-.577 1.066-1.031 2.744-1.696 4.002v.699c0 1.661-.035 3.321-.052 4.964 0 1.503-.07 2.902.315 4.352.157.595-.07 1.206-.63 1.626-.821.629-1.503.594-1.503.594-1.03-2.237-1.922-4.544-2.394-6.921a21.712 21.712 0 01-.245-1.539 20.354 20.354 0 01-.105-3.425l.035.017z" fill="#E5B375"/><path d="M34.258 177.8l18.527.769c-.053-3.268-.28-7.795-.437-10.312 0-.157-.018-.315-.018-.472a63.917 63.917 0 01-.157-4.894v-.507c0-.664.052-1.346.105-2.062.087-1.154.21-2.377.402-3.706.262-1.852 1.416-4.457 1.118-5.89-.367-1.73-1.904-3.076-3.792-3.618a6.365 6.365 0 00-2.167-.28l-7.709.263c-5.313.174-5.872 5.296-5.733 8.809.105 2.779.28 5.575.42 8.372.157 3.81.14 5.715-.227 9.491-.105 1.101-.315 2.901-.332 4.02v.017z" fill="#F4C572"/><path d="M41.23 163.571c2.343 1.049 7.953 3.077 9.107 3.723.63.35 1.31.682 2.027.979 0-.157-.017-.315-.017-.472a63.917 63.917 0 01-.157-4.894c-2.272-.507-4.667-1.188-6.24-1.835-.63-.262-2.884-1.486-3.304-.804-.314.524-.996 1.119-1.642 1.625-.612.472-.49 1.364.244 1.696l-.017-.018z" fill="#E5B375"/><path d="M43.344 159.414c1.101.49 1.276 2.045 1.713 2.605.524.681-.542.891-1.713.751-1.031-.122-2.307-.559-2.727-1.066-.35-.419-.804-.909-.751-2.185.035-1.031 2.045-.751 3.478-.105z" fill="#F3C6A0"/><path d="M44.097 160.305c.42-.489.874-.122 1.503.053 2.238.664 6.135.507 9.036.856-.192-.454-.384-.909-.559-1.311-1.713-3.897-2.726-5.558-3.39-6.956-.612-1.311-3.426-6.065-2.273-6.1 2.92-.105 4.65.559 5.838 2.587 2.5 4.23 3.74 7.865 4.562 10.085.542 1.433 1.223 2.359 1.328 3.758v.979c.035.664-.087.367-.42.751l-.104.21c-.769 1.346-5.855 1.101-9.264-.262-1.625-.647-6.554-2.902-6.554-2.902s-.42-.961.28-1.765l.017.017z" fill="#F4C572"/><path d="M41.422 147.074c.035.175.105.315.192.472.402.769 1.294 1.241 2.447 1.206 1.329-.052 2.692-.752 3.6-1.783a.454.454 0 00.088-.105l-6.327.21z" fill="#BB793A"/><path d="M47.087 143.155v3.915s-2.954 3.356-5.68.07l.244-3.985h5.436z" fill="#E8BEA9"/><path d="M44.202 145.83s.14.018.227.018c.909.07 1.748-.192 2.43-.769.07-.053.07-.14 0-.192a.163.163 0 00-.228 0 2.944 2.944 0 01-2.202.699c-.856-.07-1.59-.49-2.185-1.241-.052-.07-.157-.088-.21-.035-.07.035-.087.122-.034.192.594.752 1.345 1.206 2.202 1.346v-.018z" fill="#BA745D"/><path d="M48.205 138.698c.35 3.199-.053 6.642-2.465 6.869-2.517.227-5.19-1.258-5.54-4.439-.35-3.199 1.31-6.205 3.705-6.729 2.395-.525 3.95 1.118 4.317 4.299h-.017z" fill="#F3C6A0"/><path d="M48.36 135.991c.123-.332.088-.716-.174-1.153-.053-.088-.123-.175-.193-.263-.297-.402-.751-.786-1.153-1.101h-.035c-1.993-.646-4.3-.786-6.1.123-.892.437-1.38 1.083-1.59 1.835-.473 1.014-.333 2.622-.07 3.845.07.332.14.629.227.892.35 1.171.804 2.761 1.73 3.653.192.157.507.332.787.297h.035c-.035-.053-.07-.105-.105-.175-.088-.35-.07-.752-.07-1.101a.649.649 0 01-.385.209c-.122 0-.262-.034-.454-.157-.49-.279-.664-.804-.682-1.346 0-.139.018-.384.087-.629.053-.175.105-.332.193-.437a.34.34 0 01.28-.14c.157 0 .419.193.541.367 0 0 .018.035.035.035.035.175.07.332.105.49.035.192.105.367.157.559.228.105.437.262.682.28v-.123c-.332-1.013-.332-2.08-.297-3.146 0-.262.017-.524.035-.786v-.752c1.084-.07 2.185-.14 3.111-.542-.367.158-.664.385-.944.647-.087.087-.192.175-.28.262-.21.21-.419.42-.646.612 1.24.087 3.076-.612 4.335-1.398.174-.123.35-.228.507-.35l.052.839a22.326 22.326 0 01-.035 3.059h.052c.053-.262.123-.525.193-.787.087-.349.192-.716.21-1.083.052-.735.227-1.818-.158-2.5l.017-.035z" fill="#314572"/><path d="M34.73 175.23c-.28-.262-.578-.542-.875-.804-.035.053-.087.088-.122.158-.367.734-.717 1.363-2.202 1.608.244.384.489.699 1.852 1.677.996.577 1.783.665 2.395.595.507-.053.891-.49.874-.752-.7-.944-1.434-2.01-1.923-2.482z" fill="#F3C6A0"/><path d="M36.636 223.836l2.534.157-.21 1.888h-5.365l3.041-2.045zm24.975 2.115h-6.99l-.525-.664-.437.664h-1.224v-3.076l3.478-.629 1.73 2.115 3.968 1.188v.402z" fill="#3C3A43"/><path d="M293.547 218.233l-.577-2.359c.263-.035.525-.07.787-.14a6.445 6.445 0 001.224-.455l.576 2.36a6.018 6.018 0 01-1.223.437c-.262.07-.525.105-.787.14v.017z" fill="#55B6CA"/><path d="M273.588 189.495l.279-1.136c.577.192 1.189.35 1.783.507.384.087.751.175 1.136.245l-.28 1.136c-.384-.07-.751-.158-1.136-.245a27.073 27.073 0 01-1.782-.489v-.018z" fill="#ABD8E1"/><path d="M284.252 146.765s2.08-2.639 1.469-5.663c-.315-1.59-4.3-2.779-5.663-2.779-1.364 0-1.189 1.853-1.189 1.853s-2.517 3.251-2.726 3.828l1.276.891s-1.504 2.727-.665 3.129c.49.245 2.884.437 2.884.437l.35 4.037 4.125-1.276.139-4.457z" fill="#E8BEA9"/><path d="M281.978 140.192c.087-.962-1.975-.298-2.971-.595-.647-.192-.018-1.276.786-1.643 1.486-.681 3.653.804 3.653.804s2.203 1.049 2.552 2.482c.35 1.434-.874 5.296-.874 5.296s.822-.402-.664-.769c-1.485-.367-.787-2.027-1.573-2.097-.787-.07-2.027 1.363-2.027 1.363l-.944-.227s1.992-3.653 2.079-4.614h-.017z" fill="#0F343D"/><path d="M283.15 145.678l-1.748 3.007-1.591.332-.174-.542 1.678-.175 1.643-2.622h.192zm-6.343-2.255l1.52-2.552-2.184 3.129.192.21.472-.787z" fill="#D3AF94"/><path d="M272.925 222.744l4.965 1.45 1.398-16.01-.56-5.261 2.238-16.639 4.457 15.643 8.04 22.267h4.911l-3.74-14.21-3.339-10.347-1.398-19.051-10.557-.682-6.083-.664-.332 43.504z" fill="url(#paint2_linear_248_55612)"/><path d="M257.509 157.372l8.459 3.093s.35.892 1.032-.07c.419-.611 3.687-4.194 6.047-6.746l2.132-2.552h.245l.07-.088v.07l2.902-.209 1.45 12.479 5.803-13.231 6.869 4.929 1.853 3.251.454 7.044-4.981-3.95-.664 8.267.943 11.571-17.862-1.171 2.009-18.527-1.468.943-6.239 4.999s-1.119 0-1.486-.489c-.367-.49-8.966-5.104-8.966-5.104l1.398-4.474v-.035z" fill="#608EC6"/><path opacity=".6" d="M278.275 202.03l.472 5.872-1.014 15.783 1.573-16.062-.507-5.523 2.167-15.818-.611-2.168-2.08 17.916z" fill="#232339"/><path d="M288.166 202.991l1.678 1.782" stroke="#3E2B68" stroke-width=".561" stroke-miterlimit="10"/><path d="M265.095 226.761h9.613l.717-.664.629.664h1.678v-3.076l-4.789-.646-2.377 2.132-5.471 1.189v.401zm28.593.384l4.789-.227.122-1.276-.664-1.451-4.247.175v2.779z" fill="#322E3D"/><path d="M279.846 163.331l5.628-13.057-.699-.105-3.81 2.063-1.626-1.695-.943.332 1.45 12.462z" fill="#fff"/><path d="M280.63 153.895l-1.328 4.824.541 4.615 2.011-4.58-.735-4.736.735-.787-.839-1.066-.892 1.014.507.716z" fill="#B63033"/><path d="M286.996 152.673l-7.149 10.662 5.803-13.231 1.171 1.573-1.084.052 1.259.944zm-10.4-.948l3.25 11.606-1.45-12.462-1.8.856z" fill="#7CA2D1"/><path d="M289.95 181.37l-8.547-.332-7.988-1.014 16.64.734-.105.612z" fill="#29667D"/><path d="M279.41 179.902h-.139l.506-16.552-3.233-11.431.123-.052 3.25 11.466v.017l-.507 16.552z" fill="#7CA2D1"/><path d="M290.177 157.757l-.333 3.565" stroke="#382B66" stroke-width=".561" stroke-miterlimit="10"/><path d="M274.674 156.288l-.42 5.209" stroke="#25596B" stroke-width=".561" stroke-miterlimit="10"/><path d="M254.187 155.224l-.629.611.874 1.329-1.94-.332-1.224.926.053.769 1.66 1.031 1.801.577 1.607.192.962-1.852-3.164-3.251z" fill="#E8BEA9"/><path d="M288.866 202.589l2.621 2.675m-17.564-3.179l1.678 1.8" stroke="#3E2B68" stroke-width=".561" stroke-miterlimit="10"/><path opacity=".6" d="M274.428 160.554l-.052.786-7.83 6.1 7.882-6.886zm19.157 3.776l-3.688-2.831.157-.787 4.02 3.601-.489.017z" fill="#19132E"/><path d="M294.04 168.017l-4.737-4.894.926-9.788 2.57 1.853 6.135 11.396-1.067 14.175-3.81-.752-.017-11.99z" fill="#7CA2D1"/><path d="M292.936 183.886l.735.385.978-1.084.228 1.766-1.311 2.761.856.035 1.643-1.975 1.188-1.958.053-1.695-.262-1.433-1.975-.385-2.133 3.583z" fill="#E8BEA9"/><path d="M122.552 76.355l3.373 8.756s9.298-7.516 12.305-6.642l-.105 4.387-10.347 6.52s-3.496 1.608-4.702-1.573a4109.248 4109.248 0 01-3.95-10.452l3.426-.996z" fill="#528BBF"/><path d="M121.855 71.617l-.997-.263-.332 1.748-1.346-2.22-.052-1.066-1.224.927-.454 2.394 1.014 2.255 1.153 1.783 2.255-.192-.017-5.366z" fill="#E8BEA9"/><path d="M139.63 150.199c1.293.385 2.359-.035 2.359-.035s.193.647 1.276-.262c1.084-.909-1.241-1.328-1.241-1.328l-3.426-.525-1.013.14s-2.15 1.154-.664 1.398c1.485.245 1.73.333 2.726.63l-.017-.018z" fill="#19132E"/><path d="M141.903 124.77h-5.278l3.6 22.984c-.122 0-.192.018-.244.088-.105.174.07.524.384.856v.035h.053c.07.07.157.14.244.227.507.402 1.014.577 1.154.367.035-.07.035-.157 0-.262h.087V124.77z" fill="#ECB5A1"/><path d="M147.042 150.428c1.083.262 1.887-.088 1.887-.088s.018.07.857-.559-.962-1.363-.962-1.363l-2.866-.192-.822.227s-1.678 1.363-.437 1.45c1.241.088 1.486.333 2.325.525h.018z" fill="#19132E"/><path d="M148.685 124.806h-5.279l3.601 22.984c-.123 0-.193.017-.245.087-.105.175.07.525.385.857v.035h.052c.07.07.157.139.245.227.507.402 1.013.577 1.153.367.035-.07.035-.157 0-.262h.088v-24.295z" fill="#ECB5A1"/><path d="M150.116 126.204s-4.807-.227-9.211-.122c-4.405.105-7.673-1.031-7.673-1.031s1.083-2.78.891-6.66c-.192-3.88-.559-8.739-.035-12.374.525-3.636 3.164-8.408 3.164-8.408h10.329s2.605 3.321 3.129 11.833c.524 8.53-.612 16.762-.612 16.762h.018z" fill="#47587D"/><path d="M148.721 97.1c1.276 1.905-12.725.647-12.725.647s-2.045-1.958-.279-9.526c1.765-7.568 1.083-9.858 1.083-9.858l10.75-.647s2.132 4.632 2.062 7.586c-.07 2.954-2.167 9.893-.891 11.798z" fill="#528BBF"/><path d="M153.315 92.751s-2.202-11.5-5.873-13.685c-3.67-2.185-.192 6.152-.192 6.152l2.429 7.376-1.713 4.37s.665 4.247 1.556 3.932c.891-.314 3.81-8.145 3.81-8.145h-.017z" fill="#528BBF"/><path d="M139.177 74.774c1.127-.068 1.952-1.6 1.842-3.421-.11-1.821-1.112-3.242-2.24-3.174-1.127.068-1.952 1.599-1.842 3.42.11 1.821 1.113 3.242 2.24 3.175z" fill="#ECB5A1"/><path d="M146.991 73.103c-.594-.961-.262-1.538.227-2.657.49-1.118.228-2.517.175-3.373-.157-2.5-2.604-4.405-5.488-4.23-2.884.175-5.104 2.342-4.946 4.86.104 1.712 1.468 2.376 2.114 3.355.647.979.245 1.625 0 2.674-.244 1.049-.629 2.203-.542 3.618.158 2.674 2.657 4.684 5.594 4.51 2.936-.175 5.173-2.482 5.016-5.139-.087-1.486-1.538-2.64-2.132-3.6l-.018-.018z" fill="#586073"/><path d="M198.309 238.033l-5.366.699 2.535-3.32.577-5.139h2.779l-.297 4.23-.228 3.53z" fill="#F3C6A0"/><path d="M196.859 237.826s-2.184.245-3.076.385c-1.748.279-2.849 1.38-2.849 1.38h2.937l2.988-1.118v.821h1.416v-2.167l-1.416.699z" fill="url(#paint3_linear_248_55612)"/><path d="M209.2 238.471l-5.278 1.258 2.202-3.565.035-5.174 2.779-.28.14 4.23.122 3.531z" fill="#F3C6A0"/><path d="M207.732 238.419s-2.15.454-3.024.682c-1.713.454-2.709 1.66-2.709 1.66l2.936-.297 2.849-1.416.088.822 1.398-.14-.227-2.15-1.329.839h.018z" fill="url(#paint4_linear_248_55612)"/><path d="M208.937 235.746l-4.037-.297s.262-8.6.157-18.248c-.105-9.666-1.363-18.195-1.363-18.195l-4.964 36.023-3.338-.245s.716-24.959 1.083-32.23c.367-7.271 2.045-14.053 2.045-14.053s4.667.123 7.936-.122c3.268-.227 5.523-1.416 5.523-1.416s1.73 6.695 1.73 15.731-4.789 33.052-4.789 33.052h.017z" fill="#314572"/><path d="M211.997 186.962l-4.737 1.87-8.547-.349-1.503-1.626s.35-4.335-.244-10.068c-.577-5.732-.577-7.655.489-8.581 1.066-.927 3.426-1.539 7.288-1.871 2.867-.244 6.24.297 7.254.297 2.36 0 4.3 3.863 4.3 3.863l-2.587 6.555s-1.696 1.555-1.993 3.985c-.314 2.429.28 5.907.28 5.907v.018z" fill="#EA924A"/><path d="M216.294 170.534l-2.569 6.118 3.74 5.698-3.74 5.698 1.922 1.608 6.45-7.743-5.803-11.379zm-18.614 22.039h-1.905l1.433-5.698 1.311 1.625-.839 4.073z" fill="#EA924A"/><path d="M209.41 166.985s-4.369 4.212-5.523 4.23c-1.153.017-2.359.21-3.443-.682-1.084-.891.349-3.548.349-3.548s3.374-1.293 1.643-4.16c-1.73-2.866 4.72-2.866 3.968 0-.751 2.867 2.971 4.16 2.971 4.16h.035z" fill="#ECB5A1"/><path d="M206.282 163.367c0-.175.035-.35.088-.542.751-2.866-5.698-2.866-3.968 0 .594.979.577 1.783.315 2.412 1.45-.14 2.726-.839 3.565-1.87z" fill="#BB673D"/><path d="M207.977 158.702c0 3.024-1.765 5.488-3.967 5.488-2.203 0-3.199-2.062-3.776-5.488-.489-2.989 1.591-5.488 3.776-5.488 2.184 0 3.967 2.447 3.967 5.488z" fill="#ECB5A1"/><path d="M204.901 149.208c-3.513 0-6.38 2.57-6.38 5.733 0 1.364.682 2.745 1.731 3.881v-.123c0-1.748 1.538-3.111 3.548-3.111.507 0 2.359-.751 2.359-.751s-.087 1.031.228 2.045c.314 1.066 1.031 2.132 1.031 2.796 0 .472-.193 1.031-.49 1.573 2.762-.664 4.352-3.531 4.352-6.31 0-3.163-2.848-5.733-6.379-5.733z" fill="#314572"/><path d="M207.522 153.229a2.622 2.622 0 100-5.244 2.622 2.622 0 000 5.244z" fill="#314572"/><path d="M215.388 189.338l-1.556-.979-.577.629c-.559.385-1.136 1.171-1.538 2.115-.612 1.468-.542 2.779.14 2.936.699.158 1.765-.908 2.377-2.377.262-.646.402-1.241.419-1.748l.735-.576zm-17.881 3.235h-1.853l-.14.857c-.262.629-.332 1.608-.157 2.621.28 1.573 1.049 2.64 1.713 2.395.664-.245.996-1.713.717-3.286-.123-.682-.332-1.276-.595-1.695l.298-.892h.017z" fill="#F3C6A0"/><path d="M105.131 155.494s-2.132-2.866-1.503-6.135c.332-1.73 4.422-3.006 5.82-3.006 1.399 0 2.028 2.01 2.028 2.01l1.485 4.632s-.034 3.059-.891 3.496c-.507.262-2.202.873-2.202.873l-.35 4.37-4.229-1.049-.14-5.173-.018-.018z" fill="#CF8E5A"/><path d="M106.267 154.327l1.783 3.268 1.625.35.175-.577-1.713-.192-1.678-2.849h-.192z" fill="#CF8E5A"/><path d="M99.312 237.282c-1.381.262-3.496.594-3.496.594l-.122-1.276.21-1.468 4.823-.14 2.378.42.541.489s-3.251 1.189-4.334 1.398v-.017z" fill="#312E3B"/><path d="M115.969 234.451l-4.754 1.468-1.346-18.929-.21-5.296-1.765-15.8-3.915 14.786-3.478 25.239h-4.667l1.258-16.989 1.276-10.557 1.328-18.824 10.12-.699 5.838-.664.315 46.265z" fill="url(#paint5_linear_248_55612)"/><path d="M124.553 186.911s-2.36-11.71-3.688-15.188c-1.329-3.479-2.797-5.157-5.016-8.355-2.22-3.216-5.121-2.814-5.121-2.814h-2.465s-.944-.227-4.492-.088c-3.548.14-5.174 2.185-5.174 2.185l-5.226 13.93-1.223 13.267 3.793-.315-.105-12.48 4.072-4.894.49 5.961-.91 12.06 17.13-1.189-1.923-19.086-.035.961s2.43 2.482 3.653 5.838c1.224 3.356 2.237 10.627 2.237 10.627l4.02-.42h-.017z" fill="url(#paint6_linear_248_55612)"/><path d="M120.464 238.523h-6.747l-.524-.682-.419.682h-1.189v-3.111l3.356-.647 1.678 2.15 3.845 1.206v.402z" fill="#312E3B"/><path d="M97.094 193.447l-.734.419-.979-1.153-.227 1.853 1.31 2.901-.838.035-1.643-2.062-1.189-2.046-.052-1.8.262-1.503 1.958-.384 2.132 3.74z" fill="#CF8E5A"/><path opacity=".6" d="M99.648 190.334l8.198-.349 7.655-1.014-15.958.734.105.629z" fill="#19132E"/><path d="M120.236 191.346l.804.263.751-1.294.56 1.783-.752 3.076.856-.122 1.207-2.325.786-2.219-.28-1.766-.541-1.433-1.993-.035-1.398 4.072z" fill="#CF8E5A"/><path d="M112.144 146.413c-.297-.542-1.468-.927-2.272-1.032 0 0-.524-2.831-2.552-1.538-2.027 1.294-3.81 2.272-4.369 4.527-.28 1.154-.123 4.947.542 7.568.664 2.64 4.981 1.643 5.628.839.262-.314.384-1.276.541-2.447-.244-.227-.489-.542-.734-.891-.664-1.014-.489-1.521-.174-1.818.297-.279.629-.279 1.223.559.07-.419.157-.821.262-1.206.192-.769.227-1.747.647-2.184.926-.909 1.573-1.766 1.241-2.377h.017z" fill="#0F343D"/><path d="M98.598 162.631s-.664.384-2.167 2.429c-1.503 2.045-3.006 6.852-3.688 11.361-.682 4.51-.594 13.406-.594 13.406l3.793-.314s.28-7.796 1.24-11.589c.962-3.792 2.727-5.785 2.727-5.785l.297 3.601v-.734c0-4.667-.332-8.967-1.625-12.375h.017z" fill="url(#paint7_linear_248_55612)"/><defs><linearGradient id="paint0_linear_248_55612" x1="119.672" y1="217.788" x2="119.672" y2="43.753" gradientUnits="userSpaceOnUse"><stop offset=".082" stop-color="#4C99EB"/><stop offset="1" stop-color="#56BDED"/></linearGradient><linearGradient id="paint1_linear_248_55612" x1="224.94" y1="227.085" x2="224.94" y2="67.043" gradientUnits="userSpaceOnUse"><stop offset=".082" stop-color="#4C99EB"/><stop offset="1" stop-color="#56BDED"/></linearGradient><linearGradient id="paint2_linear_248_55612" x1="285.65" y1="224.194" x2="285.65" y2="179.24" gradientUnits="userSpaceOnUse"><stop stop-color="#354854"/><stop offset="1" stop-color="#34474F"/></linearGradient><linearGradient id="paint3_linear_248_55612" x1="194.605" y1="239.591" x2="194.605" y2="237.127" gradientUnits="userSpaceOnUse"><stop stop-color="#002D49"/><stop offset="1" stop-color="#002737"/></linearGradient><linearGradient id="paint4_linear_248_55612" x1="205.636" y1="240.841" x2="205.386" y2="238.389" gradientUnits="userSpaceOnUse"><stop stop-color="#002D49"/><stop offset="1" stop-color="#002737"/></linearGradient><linearGradient id="paint5_linear_248_55612" x1="105.901" y1="235.919" x2="105.901" y2="188.186" gradientUnits="userSpaceOnUse"><stop offset=".082" stop-color="#6784A2"/><stop offset="1" stop-color="#62767F"/></linearGradient><linearGradient id="paint6_linear_248_55612" x1="108.358" y1="190.18" x2="108.358" y2="160.421" gradientUnits="userSpaceOnUse"><stop offset=".082" stop-color="#1C78DA"/><stop offset="1" stop-color="#229CD4"/></linearGradient><linearGradient id="paint7_linear_248_55612" x1="96.175" y1="189.827" x2="96.175" y2="162.631" gradientUnits="userSpaceOnUse"><stop offset=".082" stop-color="#1C78DA"/><stop offset="1" stop-color="#229CD4"/></linearGradient></defs></svg>