<svg width="355" height="284" fill="none" xmlns="http://www.w3.org/2000/svg"><g filter="url(#filter0_n_248_55763)"><path d="M8.54 72.658L70.69 9.036A30 30 0 0192.15 0H325c16.569 0 30 13.431 30 30v224c0 16.569-13.431 30-30 30H92.052a30 30 0 01-21.343-8.917L8.657 212.264A30 30 0 010 191.182v-97.56a30 30 0 018.54-20.964z" fill="url(#paint0_linear_248_55763)"/></g><g filter="url(#filter1_n_248_55763)"><path d="M101.786 217.229a236.561 236.561 0 01-32.54-63.404c-5.281-15.793-8.596-34.15.177-48.311 6.824-11.011 19.76-17.008 32.596-18.865 12.836-1.856 25.88-.178 38.811.836 12.931 1.015 26.293 1.307 38.476-3.135 8.716-3.178 16.394-8.624 24.712-12.73 8.317-4.104 17.957-6.877 26.841-4.208 10.522 3.162 17.549 13.274 21.074 23.665 3.525 10.39 4.374 21.495 7.302 32.069 2.929 10.573 8.584 21.218 18.416 26.114 8.272 4.12 18.27 3.568 26.555 7.66 9.571 4.728 15.348 15.075 17.257 25.563 1.909 10.488.521 24.175-.871 34.744H101.786v.002z" fill="url(#paint1_linear_248_55763)"/></g><path d="M330.43 215.994H87.512a.836.836 0 100 1.669H330.43a.835.835 0 100-1.669z" fill="#1D28A8"/><path d="M320.772 192.456s2.83-3.636 3.467-6.21c.638-2.573-.143-4.989-1.818-4.855-1.675.132-3.993 3.823-1.65 11.067l.001-.002zm-4.235 6.003s2.271-4.899 1.98-7.864c-.292-2.966-1.015-4.91-3.151-4.852-2.136.058-4.298 2.576 1.171 12.716zm-4.858 6.521s1.402-5.214.61-8.087c-.794-2.872-1.838-4.665-3.932-4.244-2.096.421-3.797 3.267 3.322 12.33v.001zm-1.498 6.583s4.589-4.324 9.08-5.753c4.492-1.428 5.494.78 5.441 2.522-.052 1.74-4.491 3.701-14.521 3.231zm14.898-13.4c1.063-.121 2.307-.071 2.969.766.68.861.366 2.205-.416 2.976-.782.771-1.893 1.095-2.969 1.321-1.415.298-9.343 1.597-8.941-.675.243-1.375 2.828-2.381 3.914-2.874a18.03 18.03 0 015.444-1.514h-.001zm2.803-17.885c.531-.988 1.16-1.973 2.105-2.582.944-.609 2.276-.745 3.159-.051 1.003.79 1.064 2.362.487 3.5-.579 1.138-1.636 1.943-2.658 2.708-1.536 1.15-3.766 3.557-5.561 3.986-.385-2.152 1.415-5.714 2.471-7.561h-.003zm-1.91 9.274c.942-.612 1.967-1.173 3.088-1.254 1.122-.081 2.355.438 2.794 1.471.5 1.174-.202 2.582-1.258 3.302-1.056.72-2.37.92-3.635 1.1-1.901.272-5.015 1.313-6.795.828.699-2.073 3.991-4.333 5.806-5.447z" fill="#69CCB4"/><path d="M306.919 216.439a.256.256 0 01.005-.194c6.297-15.146 21.088-32.153 21.236-32.323a.267.267 0 01.375-.026.265.265 0 01.026.374c-.148.17-14.882 17.113-21.146 32.178a.268.268 0 01-.347.144.258.258 0 01-.147-.153h-.002z" fill="#1D28A8"/><path d="M319.783 194.738a.267.267 0 01.196-.354c.032-.008 3.279-.678 6.372-2.377a.265.265 0 01.36.105.27.27 0 01-.105.36c-3.166 1.739-6.489 2.424-6.521 2.431a.264.264 0 01-.301-.167l-.001.002z" fill="#1D28A8"/><path d="M318.904 195.956a.27.27 0 01.025-.235c.031-.046 3.016-4.797 2.721-10.067a.265.265 0 11.53-.03c.306 5.443-2.677 10.183-2.803 10.382a.267.267 0 01-.473-.05zm-5.003 7.406a.264.264 0 01.157-.341c.044-.016 4.46-1.634 7.612-2.073a.266.266 0 01.3.226.266.266 0 01-.227.299c-3.097.431-7.458 2.028-7.501 2.045a.265.265 0 01-.341-.155v-.001zm2.125-3.261a.27.27 0 01-.007-.164c.01-.037.982-3.661-.389-8.287a.266.266 0 01.181-.33.26.26 0 01.33.18c1.416 4.779.432 8.427.389 8.579a.265.265 0 01-.504.022zm-7.134 12.05a.265.265 0 01.138-.333c.232-.106 5.737-2.615 8.913-3.322a.27.27 0 01.317.202.264.264 0 01-.202.316c-3.121.694-8.751 3.261-8.807 3.287a.265.265 0 01-.359-.15zm2.211-4.131a.271.271 0 01.004-.198c.013-.029 1.216-2.949-.695-8.056a.265.265 0 01.497-.186c1.994 5.327.741 8.328.687 8.453a.267.267 0 01-.493-.013z" fill="#1D28A8"/><path d="M120.158 197.778s1.206-3.327 2.619-4.799c1.413-1.47 3.305-1.955 3.907-.814.601 1.141-.849 4.159-6.526 5.613zm-2.168 5.208s2.257-3.486 4.306-4.513c2.05-1.028 3.612-1.358 4.451.052.839 1.41.088 3.845-8.757 4.461zm-2.252 5.83s2.818-3.05 5.014-3.715c2.195-.665 3.791-.723 4.377.809.586 1.531-.569 3.804-9.391 2.906zm-3.668 3.673s.931-4.752.016-8.252c-.914-3.5-2.762-3.243-3.875-2.494-1.112.749-.565 4.433 3.859 10.746zm2.608-15.164c-.358-.739-.9-1.525-1.719-1.611-.84-.089-1.585.668-1.767 1.492-.18.823.066 1.678.359 2.468.387 1.041 2.797 6.715 4.111 5.523.795-.721.388-2.812.265-3.719a13.827 13.827 0 00-1.249-4.153zm10.486-9.165c.426-.75.808-1.563.816-2.425.008-.863-.45-1.781-1.264-2.069-.926-.326-1.975.279-2.478 1.121-.503.842-.593 1.859-.672 2.836-.117 1.468-.767 3.904-.311 5.243 1.561-.634 3.14-3.263 3.907-4.706h.002zm-5.252 5.051c.012-.863-.044-1.758-.452-2.519-.407-.761-1.252-1.347-2.104-1.208-.97.159-1.597 1.192-1.633 2.172-.036.98.375 1.915.776 2.81.604 1.345 1.206 3.792 2.251 4.749 1.063-1.305 1.182-4.368 1.162-6.003v-.001z" fill="#69CCB4"/><path d="M110.234 216.607a.2.2 0 00.125-.083c7.273-10.303 12.269-26.879 12.32-27.045a.205.205 0 00-.391-.117c-.049.165-5.028 16.679-12.262 26.927a.201.201 0 00.049.283.21.21 0 00.16.034l-.001.001z" fill="#1D28A8"/><path d="M119.078 199.355l.031-.009a.204.204 0 00.118-.263c-.009-.023-.905-2.405-1.069-5.108a.205.205 0 00-.217-.191.208.208 0 00-.192.216c.169 2.768 1.086 5.204 1.095 5.229a.207.207 0 00.233.127l.001-.001z" fill="#1D28A8"/><path d="M118.647 200.423a.198.198 0 00.142-.113c.019-.039 1.885-3.926 5.435-5.898a.204.204 0 00-.197-.357c-3.669 2.037-5.529 5.917-5.607 6.081a.204.204 0 00.225.286l.002.001zm-2.766 6.285a.204.204 0 00.157-.242c-.007-.035-.768-3.564-1.775-5.789-.047-.102-.166-.147-.271-.102a.204.204 0 00-.102.27c.991 2.186 1.742 5.672 1.75 5.706.023.111.13.18.241.157zm1.25-2.715a.205.205 0 00.109-.062c.019-.022 1.979-2.141 5.553-3.15a.204.204 0 00.141-.251.2.2 0 00-.252-.141c-3.692 1.042-5.662 3.179-5.743 3.269a.203.203 0 00.193.335h-.001zm-4.914 9.574a.204.204 0 00.16-.227c-.026-.194-.653-4.794-1.497-7.144a.209.209 0 00-.262-.124.205.205 0 00-.124.261c.829 2.31 1.47 7.015 1.478 7.063a.203.203 0 00.244.172l.001-.001zm1.781-3.131a.202.202 0 00.127-.084c.013-.02 1.42-1.999 5.53-2.857a.203.203 0 10-.083-.399c-4.285.894-5.723 2.94-5.783 3.025a.204.204 0 00.211.314l-.002.001z" fill="#1D28A8"/><path d="M88.68 187.886s-2.628-4.433-2.974-7.381c-.346-2.947.861-5.518 2.702-5.136 1.84.382 3.892 4.805.273 12.517h-.001zm3.852 7.254s-1.83-5.757-1.09-9.009c.741-3.251 1.817-5.307 4.18-4.943 2.363.365 4.409 3.462-3.091 13.952h.001zm4.471 7.924s-.823-5.985.463-9.062c1.285-3.078 2.697-4.921 4.962-4.159 2.266.76 3.755 4.16-5.426 13.221h.001zm.738 7.516s-4.485-5.443-9.27-7.662c-4.786-2.216-6.208.095-6.396 2.036-.187 1.939 4.466 4.741 15.666 5.626zm-14.649-16.967c-1.163-.283-2.55-.403-3.404.434-.877.861-.717 2.397.042 3.362.76.965 1.949 1.481 3.11 1.883 1.53.53 10.147 3.083 10.022.506-.076-1.559-2.805-3.039-3.94-3.74a20.161 20.161 0 00-5.829-2.446l-.001.001zm-.596-20.248c-.451-1.173-1.011-2.353-1.974-3.161-.962-.809-2.42-1.147-3.498-.5-1.226.736-1.515 2.472-1.032 3.817.482 1.344 1.542 2.387 2.569 3.38 1.543 1.493 3.68 4.477 5.611 5.206.731-2.337-.765-6.543-1.676-8.742zm.818 10.565c-.96-.812-2.02-1.58-3.252-1.827-1.233-.246-2.676.156-3.308 1.242-.72 1.233-.139 2.894.93 3.842 1.07.948 2.503 1.354 3.881 1.732 2.07.567 5.382 2.16 7.427 1.872-.484-2.399-3.82-5.371-5.678-6.861z" fill="#69CCB4"/><path d="M100.678 216.452a.302.302 0 00.023-.216c-4.856-17.699-18.88-38.655-19.02-38.864a.298.298 0 10-.495.331c.141.209 14.11 21.087 18.942 38.689a.297.297 0 00.55.06z" fill="#1D28A8"/><path d="M89.451 190.557a.296.296 0 00-.167-.419c-.035-.012-3.544-1.212-6.738-3.533a.3.3 0 00-.416.065.304.304 0 00.066.415c3.27 2.375 6.861 3.603 6.898 3.615a.295.295 0 00.357-.143z" fill="#1D28A8"/><path d="M90.26 192.028a.295.295 0 00.005-.264c-.026-.057-2.673-5.75-1.602-11.558a.296.296 0 00-.239-.345.296.296 0 00-.346.238c-1.105 6.001 1.537 11.68 1.65 11.919a.296.296 0 00.533.01h-.002zm4.512 8.926a.296.296 0 00-.127-.4c-.046-.025-4.721-2.439-8.159-3.369a.299.299 0 00-.365.209.298.298 0 00.21.364c3.376.914 7.994 3.299 8.04 3.323a.298.298 0 00.4-.125v-.002zm-1.902-3.919a.301.301 0 00.03-.18c-.005-.04-.575-4.202 1.599-9.145a.296.296 0 00-.153-.39.29.29 0 00-.391.152c-2.247 5.107-1.668 9.293-1.642 9.469a.298.298 0 00.558.094h-.001zm6.22 14.378a.297.297 0 00-.105-.389c-.243-.151-6.001-3.709-9.427-4.938a.301.301 0 00-.38.178.296.296 0 00.18.379c3.365 1.209 9.254 4.849 9.313 4.885a.3.3 0 00.41-.096l.01-.019zm-1.871-4.896a.293.293 0 00.023-.219c-.01-.034-.934-3.447 1.908-8.847a.298.298 0 00-.526-.275c-2.964 5.633-1.994 9.14-1.952 9.287a.297.297 0 00.548.055l-.001-.001z" fill="#1D28A8"/><path d="M121.49 94.514c-.057.09-.774-2.247-2.271-2.788 0 0 1.339-.404 2.381 1.51 0 0 1.737-1.047 3.258.068 0 0-2.514-.156-3.368 1.21z" fill="#EFF1F5"/><path d="M105.299 141.332c-.011.087-1.369-1.401-2.673-1.279 0 0 .855-.771 2.305.287 0 0 .923-1.389 2.448-1.093 0 0-1.926.767-2.079 2.085h-.001zm41.235-44.093c.012.082-1.595-.961-2.765-.536 0 0 .6-.913 2.188-.288 0 0 .516-1.498 1.989-1.592 0 0-1.588 1.167-1.412 2.416z" fill="#F4F4FD"/><path d="M145.814 118.499c1.264-.144 2.554-.703 3.414-1.148a9.635 9.635 0 015.52-1.748c.358 0 .711.02 1.06.06.714-2.017 2.543-3.452 4.689-3.452.899 0 1.741.252 2.469.692a5.214 5.214 0 013.427-1.296c.242 0 .479.019.711.051 1.154-1.664 3.007-2.744 5.1-2.744.608 0 1.195.093 1.752.263a8.41 8.41 0 014.474-1.292c4.348 0 7.961 3.331 8.714 7.724.07-.005.141-.009.213-.009 1.151 0 2.236.423 3.197 1.167v-.006s1.972 1.487 3.874 1.735c1.901.247 10.367.274 11.1.814h-72.441c.839-.54 10.546-.566 12.727-.814v.003z" fill="url(#paint2_linear_248_55763)"/><path d="M81.296 108.669c1.135-.11 2.3-.601 2.922-.9a7.023 7.023 0 014.691-.91 3.36 3.36 0 014.231-1.457 3.78 3.78 0 013.301-1.207 4.413 4.413 0 014.831-1.607 6.639 6.639 0 014.145-1.445 6.65 6.65 0 015.272 2.588 4.693 4.693 0 015.86 3.051c.396.023.78.112 1.145.261.225.067.431.176.612.317.088.055.177.115.264.177v-.003s1.375.973 2.701 1.134c1.324.161 7.226.178 7.737.532H71.61c.64-.352 8.028-.37 9.689-.532l-.003.001z" fill="url(#paint3_linear_248_55763)"/><path d="M241.485 216.626l-115.473 9.62-1.972-13.178 118.146-9.997-.701 13.555zM230.95 84.153L125.32 161.74l-8.963-10.225 105.629-77.587 8.964 10.225z" fill="#49B79A"/><path d="M246.332 60.928l-5.598 16.404-5.596 16.405-11.432-13.041-11.432-13.043 17.03-3.362 17.028-3.363z" fill="url(#paint4_linear_248_55763)"/><path d="M200.23 234.003c39.159 0 70.904-2.028 70.904-4.53 0-2.502-31.745-4.53-70.904-4.53-39.159 0-70.904 2.028-70.904 4.53 0 2.502 31.745 4.53 70.904 4.53z" fill="#F4F4FD"/><path d="M181.829 226.318h33.92v-27.834h-33.92v27.834z" fill="url(#paint5_linear_248_55763)"/><path d="M132.862 106.845h131.85a5.29 5.29 0 015.293 5.284v81.731a4.626 4.626 0 01-4.628 4.621H132.196a4.627 4.627 0 01-4.629-4.621v-81.731a5.29 5.29 0 015.293-5.284h.002z" fill="url(#paint6_linear_248_55763)"/><path d="M131.222 189.527a5.289 5.289 0 005.292 5.284h124.55a5.289 5.289 0 005.293-5.284v-72.984H131.223v72.984h-.001z" fill="url(#paint7_linear_248_55763)"/><path d="M262.95 109.844H134.627a3.402 3.402 0 00-3.405 3.399v3.3h135.133v-3.3a3.402 3.402 0 00-3.405-3.399z" fill="#1D28A8"/><path d="M137.468 114.803a1.246 1.246 0 10-1.247-1.245c0 .688.558 1.245 1.247 1.245z" fill="#C9316F"/><path d="M142.711 114.803a1.246 1.246 0 10-1.247-1.245c0 .688.558 1.245 1.247 1.245z" fill="#E38735"/><path d="M147.953 114.803a1.246 1.246 0 100-2.491 1.246 1.246 0 100 2.491z" fill="#69CCB4"/><path d="M265.667 229.872H131.905a1.355 1.355 0 01-1.344-1.54l.633-3.698a1.713 1.713 0 011.698-1.476H264.68c.856 0 1.58.63 1.698 1.476l.633 3.698a1.355 1.355 0 01-1.344 1.54z" fill="url(#paint8_linear_248_55763)"/><path d="M134.001 222.756h7.374a.64.64 0 01.641.64v1.707h-8.655v-1.707c0-.353.287-.64.642-.64h-.002z" fill="url(#paint9_linear_248_55763)"/><path d="M143.401 222.756h7.373a.64.64 0 01.641.64v1.707h-8.654v-1.707a.64.64 0 01.641-.64h-.001z" fill="url(#paint10_linear_248_55763)"/><path d="M152.8 222.756h7.373c.354 0 .642.286.642.64v1.707h-8.655v-1.707a.64.64 0 01.641-.64h-.001z" fill="url(#paint11_linear_248_55763)"/><path d="M162.199 222.756h7.374a.64.64 0 01.641.64v1.707h-8.654v-1.707a.64.64 0 01.641-.64h-.002z" fill="url(#paint12_linear_248_55763)"/><path d="M171.601 222.756h7.373a.64.64 0 01.641.64v1.707h-8.654v-1.707a.64.64 0 01.641-.64h-.001z" fill="url(#paint13_linear_248_55763)"/><path d="M181 222.756h7.374a.64.64 0 01.641.64v1.707h-8.655v-1.707c0-.353.287-.64.642-.64H181z" fill="url(#paint14_linear_248_55763)"/><path d="M190.401 222.756h7.374a.64.64 0 01.641.64v1.707h-8.654v-1.707a.64.64 0 01.641-.64h-.002z" fill="url(#paint15_linear_248_55763)"/><path d="M199.802 222.756h7.373c.354 0 .642.286.642.64v1.707h-8.655v-1.707a.64.64 0 01.641-.64h-.001z" fill="url(#paint16_linear_248_55763)"/><path d="M209.201 222.756h7.374a.64.64 0 01.641.64v1.707h-8.654v-1.707a.64.64 0 01.641-.64h-.002z" fill="url(#paint17_linear_248_55763)"/><path d="M218.602 222.756h7.373a.64.64 0 01.641.64v1.707h-8.654v-1.707a.64.64 0 01.641-.64h-.001z" fill="url(#paint18_linear_248_55763)"/><path d="M228.004 222.756h7.374a.64.64 0 01.641.64v1.707h-8.655v-1.707a.64.64 0 01.641-.64h-.001z" fill="url(#paint19_linear_248_55763)"/><path d="M237.405 222.756h7.374a.64.64 0 01.641.64v1.707h-8.654v-1.707a.64.64 0 01.641-.64h-.002z" fill="url(#paint20_linear_248_55763)"/><path d="M246.803 222.756h7.373c.354 0 .642.286.642.64v1.707h-8.655v-1.707a.64.64 0 01.641-.64h-.001z" fill="url(#paint21_linear_248_55763)"/><path d="M256.202 222.756h7.374a.64.64 0 01.641.64v1.707h-8.655v-1.707c0-.353.287-.64.642-.64h-.002z" fill="url(#paint22_linear_248_55763)"/><path d="M133.072 224.142h7.502c.356 0 .645.289.645.644v1.702h-8.792v-1.702c0-.355.289-.644.645-.644z" fill="url(#paint23_linear_248_55763)"/><path d="M142.623 224.142h7.502c.356 0 .645.289.645.644v1.702h-8.792v-1.702c0-.355.289-.644.645-.644z" fill="url(#paint24_linear_248_55763)"/><path d="M152.172 224.142h7.502c.356 0 .645.288.645.644v1.701h-8.792v-1.701c0-.356.289-.644.645-.644z" fill="url(#paint25_linear_248_55763)"/><path d="M161.722 224.142h7.501c.357 0 .646.288.646.644v1.701h-8.793v-1.701c0-.356.29-.644.646-.644z" fill="url(#paint26_linear_248_55763)"/><path d="M171.272 224.142h7.502c.356 0 .646.288.646.644v1.701h-8.793v-1.701c0-.356.289-.644.645-.644z" fill="url(#paint27_linear_248_55763)"/><path d="M180.819 224.142h7.502c.356 0 .645.288.645.644v1.701h-8.792v-1.701c0-.356.289-.644.645-.644z" fill="url(#paint28_linear_248_55763)"/><path d="M190.37 224.142h7.502c.356 0 .645.289.645.644v1.702h-8.792v-1.702c0-.355.289-.644.645-.644z" fill="url(#paint29_linear_248_55763)"/><path d="M199.92 224.142h7.501c.357 0 .646.289.646.644v1.702h-8.793v-1.702c0-.355.29-.644.646-.644z" fill="url(#paint30_linear_248_55763)"/><path d="M209.469 224.142h7.501c.357 0 .646.289.646.644v1.702h-8.793v-1.702c0-.355.29-.644.646-.644z" fill="url(#paint31_linear_248_55763)"/><path d="M219.017 224.142h7.501c.356 0 .646.289.646.644v1.702h-8.793v-1.702c0-.355.289-.644.646-.644z" fill="url(#paint32_linear_248_55763)"/><path d="M228.567 224.142h7.501c.356 0 .646.288.646.644v1.701h-8.793v-1.701c0-.356.289-.644.646-.644z" fill="url(#paint33_linear_248_55763)"/><path d="M238.117 224.142h7.502c.356 0 .645.288.645.644v1.701h-8.792v-1.701c0-.356.289-.644.645-.644z" fill="url(#paint34_linear_248_55763)"/><path d="M247.667 224.142h7.501c.357 0 .646.288.646.644v1.701h-8.793v-1.701c0-.356.29-.644.646-.644z" fill="url(#paint35_linear_248_55763)"/><path d="M257.218 224.142h7.501c.356 0 .646.288.646.644v1.701h-8.793v-1.701c0-.356.289-.644.646-.644z" fill="url(#paint36_linear_248_55763)"/><path d="M132.432 225.734h7.595c.359 0 .65.29.65.648v1.699h-8.895v-1.699c0-.358.291-.648.65-.648z" fill="url(#paint37_linear_248_55763)"/><path d="M142.092 225.734h7.595c.359 0 .65.29.65.649v1.698h-8.895v-1.698a.65.65 0 01.65-.649z" fill="url(#paint38_linear_248_55763)"/><path d="M151.752 225.734h7.594c.359 0 .65.29.65.649v1.698h-8.894v-1.698c0-.359.29-.649.65-.649z" fill="url(#paint39_linear_248_55763)"/><path d="M161.409 225.734h7.594c.36 0 .65.29.65.649v1.698h-8.894v-1.698a.65.65 0 01.65-.649z" fill="url(#paint40_linear_248_55763)"/><path d="M171.07 225.734h55.865c.359 0 .65.29.65.648v1.699h-57.163v-1.699c0-.358.291-.648.65-.648h-.002z" fill="url(#paint41_linear_248_55763)"/><path d="M229.027 225.734h7.594c.36 0 .65.29.65.648v1.699h-8.894v-1.699c0-.358.291-.648.65-.648z" fill="url(#paint42_linear_248_55763)"/><path d="M238.692 225.734h7.594c.36 0 .65.29.65.648v1.699h-8.894v-1.699c0-.358.291-.648.65-.648z" fill="url(#paint43_linear_248_55763)"/><path d="M248.348 225.734h7.594c.36 0 .65.29.65.649v1.698h-8.894v-1.698a.65.65 0 01.65-.649z" fill="url(#paint44_linear_248_55763)"/><path d="M258.008 225.734h7.595c.359 0 .65.29.65.649v1.698h-8.895v-1.698a.65.65 0 01.65-.649z" fill="url(#paint45_linear_248_55763)"/><path opacity=".13" d="M260.218 148.469h-8.88c-.864 0-1.565.699-1.565 1.562v8.865c0 .862.701 1.561 1.565 1.561h8.88c.864 0 1.564-.699 1.564-1.561v-8.865c0-.863-.7-1.562-1.564-1.562z" fill="#1D1D1B"/><path d="M260.88 147.713H252c-.864 0-1.564.699-1.564 1.562v8.865c0 .862.7 1.562 1.564 1.562h8.88c.864 0 1.565-.7 1.565-1.562v-8.865c0-.863-.701-1.562-1.565-1.562z" fill="url(#paint46_linear_248_55763)"/><path d="M256.721 150.691l.791 1.601a.318.318 0 00.236.171l1.769.257a.312.312 0 01.173.533l-1.281 1.247a.311.311 0 00-.09.276l.303 1.759a.313.313 0 01-.454.329l-1.584-.83a.31.31 0 00-.29 0l-1.584.83a.313.313 0 01-.454-.329l.303-1.759a.31.31 0 00-.09-.276l-1.281-1.247a.313.313 0 01.173-.533l1.769-.257a.309.309 0 00.236-.171l.791-1.601a.312.312 0 01.56 0h.004z" fill="#fff"/><path opacity=".13" d="M151.125 123.96h84.107v58.136h-84.107a4.14 4.14 0 01-4.14-4.133v-49.871a4.14 4.14 0 014.14-4.133v.001z" fill="#1D1D1B"/><path d="M242.517 122.328h-89.184a4.145 4.145 0 00-4.148 4.142v49.981a4.145 4.145 0 004.148 4.142h89.184a4.145 4.145 0 004.149-4.142V126.47a4.145 4.145 0 00-4.149-4.142z" fill="#fff"/><path d="M153.334 180.592h89.185a4.145 4.145 0 004.148-4.142v-46.808c-10.055 4.565-8.13 9.142-17.883 9.142-14.049 0-19.835 20.957-32.727 21.121-12.893.165-14.049-9.9-21.322-10.413-7.273-.511-12.727 6.122-16.694 12.062-2.562 3.836-6.433 5.47-8.854 6.146v8.749a4.144 4.144 0 004.149 4.141l-.002.002z" fill="url(#paint47_linear_248_55763)"/><path d="M149.185 168.16v-.878c2.597-.726 6.094-2.321 8.516-5.95 3.991-5.976 9.537-12.77 17.059-12.241 3.186.223 5.265 2.21 7.468 4.314 3.037 2.902 6.489 6.19 13.819 6.097 6.113-.079 10.568-4.949 15.284-10.106 4.952-5.416 10.073-11.017 17.448-11.017 5.529 0 7.134-1.451 9.565-3.649 1.738-1.571 4.067-3.594 8.32-5.525v.881c-4.138 1.88-6.081 3.711-7.776 5.243-2.478 2.24-4.268 3.859-10.107 3.859-7.017 0-12.016 5.467-16.851 10.752-4.624 5.057-9.406 10.286-15.871 10.369-7.67.098-11.24-3.311-14.389-6.321-2.186-2.087-4.073-3.888-6.967-4.092-7.104-.499-12.46 6.088-16.329 11.883-2.56 3.835-6.46 5.618-9.189 6.38v.001z" fill="#3036BC"/><path d="M175.246 129.076h-18.842c-.913 0-1.653.739-1.653 1.65 0 .911.74 1.65 1.653 1.65h18.842c.913 0 1.653-.739 1.653-1.65 0-.911-.74-1.65-1.653-1.65zm-8.678 5.938h-11.073a.744.744 0 100 1.485h11.073a.744.744 0 100-1.485z" fill="#1D1D1B"/><path d="M160.942 174.861h-4.336a.77.77 0 00-.771.77v.001a.77.77 0 00.771.769h4.336a.77.77 0 00.77-.769v-.001a.77.77 0 00-.77-.77zm13.225 0h-4.336a.77.77 0 00-.77.77v.001a.77.77 0 00.77.769h4.336a.77.77 0 00.771-.769v-.001a.77.77 0 00-.771-.77zm13.22 0h-4.336a.77.77 0 00-.771.77v.001a.77.77 0 00.771.769h4.336a.77.77 0 00.771-.769v-.001a.77.77 0 00-.771-.77zm13.223 0h-4.336a.77.77 0 00-.771.77v.001a.77.77 0 00.771.769h4.336a.77.77 0 00.77-.769v-.001a.77.77 0 00-.77-.77zm13.222 0h-4.336a.77.77 0 00-.77.77v.001a.77.77 0 00.77.769h4.336a.77.77 0 00.771-.769v-.001a.77.77 0 00-.771-.77zm13.226 0h-4.336a.77.77 0 00-.771.77v.001a.77.77 0 00.771.769h4.336a.77.77 0 00.77-.769v-.001a.77.77 0 00-.77-.77zm13.223 0h-4.336a.77.77 0 00-.77.77v.001a.77.77 0 00.77.769h4.336a.77.77 0 00.771-.769v-.001a.77.77 0 00-.771-.77z" fill="#DADADA"/><path d="M158.974 174.18a.202.202 0 01-.203-.202v-2.342c0-.111.091-.201.203-.201.112 0 .202.09.202.201v2.342c0 .112-.09.202-.202.202zm13.192 0a.201.201 0 01-.202-.202v-2.342c0-.111.09-.201.202-.201.112 0 .202.09.202.201v2.342c0 .112-.09.202-.202.202zm13.187 0a.202.202 0 01-.202-.202v-2.342a.202.202 0 01.405 0v2.342a.202.202 0 01-.203.202zm13.193 0a.201.201 0 01-.202-.202v-2.342c0-.111.09-.201.202-.201.112 0 .202.09.202.201v2.342c0 .112-.09.202-.202.202zm13.188 0a.201.201 0 01-.202-.202v-2.342c0-.111.09-.201.202-.201.112 0 .202.09.202.201v2.342c0 .112-.09.202-.202.202zm13.191 0a.201.201 0 01-.202-.202v-2.342c0-.111.09-.201.202-.201.112 0 .202.09.202.201v2.342c0 .112-.09.202-.202.202zm13.187 0a.201.201 0 01-.202-.202v-2.342c0-.111.09-.201.202-.201.112 0 .202.09.202.201v2.342c0 .112-.09.202-.202.202z" fill="#3036BC"/><path opacity=".13" d="M162.797 81.872h-34.643c-.89 0-1.611.72-1.611 1.609v19.415a1.61 1.61 0 001.611 1.608h34.643c.89 0 1.611-.72 1.611-1.608V83.481a1.61 1.61 0 00-1.611-1.609z" fill="#1D1D1B"/><path d="M163.627 81.112h-34.643c-.89 0-1.611.72-1.611 1.609v19.415a1.61 1.61 0 001.611 1.608h34.643c.89 0 1.611-.72 1.611-1.608V82.721a1.61 1.61 0 00-1.611-1.609z" fill="#fff"/><path d="M134.419 95.595a1.367 1.367 0 00-2.736 0v1.694c0 .755.612 1.366 1.368 1.366.756 0 1.368-.611 1.368-1.366v-1.694z" fill="url(#paint48_linear_248_55763)"/><path d="M139.688 93.85a1.368 1.368 0 00-2.737-.001v3.438c0 .754.613 1.365 1.368 1.365.756 0 1.369-.611 1.369-1.365v-3.438z" fill="url(#paint49_linear_248_55763)"/><path d="M150.222 93.85a1.367 1.367 0 00-2.737 0v3.436a1.368 1.368 0 002.737 0V93.85z" fill="url(#paint50_linear_248_55763)"/><path d="M155.49 91.888a1.367 1.367 0 00-2.736 0v5.399a1.367 1.367 0 002.736 0v-5.399z" fill="url(#paint51_linear_248_55763)"/><path d="M160.757 88.355a1.367 1.367 0 00-2.736 0v8.932a1.367 1.367 0 002.736 0v-8.932z" fill="url(#paint52_linear_248_55763)"/><path d="M144.952 90.55a1.367 1.367 0 00-2.736 0v6.74a1.367 1.367 0 002.736 0v-6.74z" fill="url(#paint53_linear_248_55763)"/><path d="M139.644 84.161h-7.319a.641.641 0 100 1.282h7.319a.641.641 0 100-1.282zm-3.371 2.309h-4.301a.288.288 0 100 .576h4.301a.288.288 0 100-.576z" fill="#1D1D1B"/><path opacity=".13" d="M281.701 165.9h-31.439c-.808 0-1.463.654-1.463 1.461v17.619c0 .807.655 1.461 1.463 1.461h31.439c.808 0 1.463-.654 1.463-1.461v-17.619c0-.807-.655-1.461-1.463-1.461z" fill="#1D1D1B"/><path d="M282.452 165.206h-31.439c-.808 0-1.463.654-1.463 1.46v17.62c0 .807.655 1.46 1.463 1.46h31.439c.808 0 1.463-.653 1.463-1.46v-17.62c0-.806-.655-1.46-1.463-1.46z" fill="#fff"/><path d="M260.687 167.977h-6.642a.582.582 0 100 1.161h6.642a.582.582 0 100-1.161zm-2.199 2.091h-4.763a.262.262 0 00-.262.262v.001c0 .144.117.261.262.261h4.763a.261.261 0 00.262-.261v-.001a.262.262 0 00-.262-.262zm0 1.21h-4.763a.262.262 0 00-.262.262v.001c0 .144.117.261.262.261h4.763a.261.261 0 00.262-.261v-.001a.262.262 0 00-.262-.262zm-.858 1.208h-3.905a.262.262 0 00-.262.262v.001c0 .144.117.261.262.261h3.905a.261.261 0 00.262-.261v-.001a.262.262 0 00-.262-.262zm.858 6.859h-4.763a.261.261 0 00-.262.261v.001a.26.26 0 00.262.261h4.763a.26.26 0 00.262-.261v-.001a.261.261 0 00-.262-.261zm0 1.206h-4.763a.261.261 0 00-.262.261v.001a.26.26 0 00.262.261h4.763a.26.26 0 00.262-.261v-.001a.261.261 0 00-.262-.261zm-.858 1.208h-3.905a.261.261 0 00-.262.261v.001a.26.26 0 00.262.261h3.905a.26.26 0 00.262-.261v-.001a.261.261 0 00-.262-.261zm0-6.956h-3.905a.261.261 0 00-.262.261v.001a.26.26 0 00.262.261h3.905a.26.26 0 00.262-.261v-.001a.261.261 0 00-.262-.261zm.524 1.207h-4.429a.261.261 0 00-.262.261v.001a.26.26 0 00.262.261h4.429a.26.26 0 00.261-.261v-.001a.261.261 0 00-.261-.261zm-1.832 1.208h-2.597a.261.261 0 00-.262.261v.001a.26.26 0 00.262.261h2.597a.26.26 0 00.261-.261v-.001a.261.261 0 00-.261-.261z" fill="#1D1D1B"/><path d="M271.837 170.642a5.952 5.952 0 00-5.957 5.947 5.952 5.952 0 005.957 5.947 5.951 5.951 0 005.957-5.947h-5.957v-5.947z" fill="url(#paint54_linear_248_55763)"/><path d="M272.353 169.8v5.947h5.957a5.952 5.952 0 00-5.957-5.947z" fill="url(#paint55_linear_248_55763)"/><path d="M241.551 216.685L121.183 167.09l-4.948-15.861 126.017 51.901-.701 13.555z" fill="#69CCB4"/><path d="M104.369 244.928c16.761 0 30.349-1.795 30.349-4.008 0-2.214-13.588-4.008-30.349-4.008-16.762 0-30.35 1.794-30.35 4.008 0 2.213 13.588 4.008 30.35 4.008z" fill="#F4F4FD"/><path d="M96.714 98.323s-1.137 5.111-.222 9.45c.913 4.339-2.107 10.37-5.15 13.586-3.042 3.215-5.888 9.444 3.105 13.188 7.47 3.109 19.909-.574 20.587-7.237.679-6.662-2.857-12.9-1.925-20.001.932-7.1 2.488-11.95-4.736-14.486-7.224-2.536-11.659 5.5-11.659 5.5z" fill="#1D1D1B"/><path d="M111.701 116.847s11.906-9.614 12.997-10.804c1.09-1.19 6.364-23.875 6.364-23.875l6.119.698s-4.792 17.452-5.726 22.869c-.764 4.43-9.367 12.616-9.367 12.616s-3.439 5.195-8.315 3.336c-4.875-1.86-2.073-4.841-2.073-4.841l.001.001z" fill="url(#paint56_linear_248_55763)"/><path d="M132.203 80.273c-.016-.726-.327-1.192-.327-1.192l-.231-1.936s.21-3.268.44-3.681c.268-.482.761-.797 1.304-.89 1.504-.254 3.397-.122 4.611.772.874.643.81 2.633-.093 5.565-.672 2.18-.574 3.195-.574 3.195l-5.271-.62s.161-.384.144-1.21l-.003-.003z" fill="#EFA8A8"/><path d="M131.183 83.027l6.02.737a.645.645 0 00.719-.56l.206-1.673a.644.644 0 00-.562-.719l-6.02-.737a.645.645 0 00-.719.56l-.206 1.673a.645.645 0 00.562.719z" fill="#E5CD34"/><path d="M131.819 78.605s-.343-.695-.48-1.482c-.136-.787-.471-2.45.99-2.386 1.462.063-.511 3.868-.511 3.868h.001zm-24.85 153.471l-.236 3.975 4.991.294.703-4.283-5.458.014z" fill="#EFA8A8"/><path d="M106.783 235.212s.633.994 5.042.522c0 0 6.956 1.758 8.126 1.94 1.171.181 1.712.55 1.834 1.344.122.794-.114 1.903-.114 1.903l-16.097-.501s-.141-4.278 1.208-5.208h.001z" fill="#686863"/><path d="M114.73 196.269c.719-4.86 2.629-21.748 2.629-21.748l2.322-13.573-8.851-1.925-.743 7.597c-1.389 7.179-.583 32.234-.583 32.234-3.795 17.859-3.017 34.866-3.017 34.866l2.629-.063c.101-3.119.394-9.764 1.15-14.797 1.02-6.801 3.742-17.73 4.462-22.59l.002-.001z" fill="#1D28A8"/><path d="M118.649 197.274c.845-4.287 3.425-16.702 4.64-26.279.784-6.183.495-11.549.495-11.549l-4.378-.143-2.049 15.216s-1.909 16.888-2.629 21.748c-.72 4.86-3.442 15.789-4.463 22.589-.756 5.033-1.048 11.679-1.15 14.797l3.55-.077s4.593-29.244 5.984-36.299v-.003z" fill="url(#paint57_linear_248_55763)"/><path d="M91.495 229.225l-1.54 3.457 4.34 1.927 2.06-3.576-4.86-1.808z" fill="#EFA8A8"/><path d="M90.474 231.662s.244 1.163 4.577 2.282c0 0 1.2.857 3.103 1.767 1.517.724 4.227 1.981 4.74 3.056.349.731-.02 1.787-.02 1.787l-7.023-.253c-.829-.123-1.76-.736-2.507-1.121l-5.865-3.025s1.388-4.09 2.995-4.493z" fill="#686863"/><path d="M103.325 156.997s-4.853-.694-1.977 19.114c2.092 14.405 1.886 20.348 1.886 20.348l-12.358 33.792 5.461 2.025s14.336-25.718 16.552-34.703c1.172-4.752 3.002-14.72 4.468-23.059l2.606-15.193-16.639-2.322.001-.002z" fill="url(#paint58_linear_248_55763)"/><path d="M118.004 172.945c1.184-6.739 2.104-12.304 2.104-12.304l-2.104 12.304z" fill="#1D28A8"/><path d="M120.11 142.759c.002-3.835.195-10.789.461-12.409 1.352-8.262-3.73-14-8.061-15.99l-9.417-.887c-1.883.499-3.21 1.132-4.144 1.887-.608-.085-1.553-.389-2.559-1.363-2.925-2.836-6.799-8.387-7.536-9.366-1.166-1.547-5.385-23.519-5.385-23.519l-6.357 1.127s1.622 13.447 3.717 20.893c.001.009.446 2.025 1.339 3.871.894 1.85 7.653 11.854 10.679 14.975 2.104 2.17 4.507 7.084 6.032 10.758.634 2.903 1.197 6.063 1.325 9.261.303 7.485-.39 19.691-.39 19.691l4.092-.38s16.267.135 20.041-1.658c0 0-3.055-8.614-3.837-16.892v.001z" fill="url(#paint59_linear_248_55763)"/><path d="M82.592 80.55c-.023-.725.263-1.207.263-1.207l.128-1.945s-.385-3.252-.638-3.654c-.294-.468-.803-.756-1.35-.819-1.516-.174-3.399.06-4.562 1.018-.838.69-.666 2.672.392 5.552.788 2.143.746 3.159.746 3.159l5.23-.902s-.181-.376-.207-1.201h-.002z" fill="#EFA8A8"/><path d="M83.247 80.325l-5.972 1.058a.645.645 0 00-.523.748l.296 1.66c.062.35.397.583.748.521l5.972-1.059a.645.645 0 00.522-.747l-.295-1.66a.646.646 0 00-.748-.521z" fill="#F0AD30"/><path d="M82.888 78.864s.305-.713.398-1.507c.094-.793.34-2.472-1.116-2.33-1.456.142.718 3.837.718 3.837zm27.48 39.846c-2.187 1.232-6.036-1.851-6.301-4.828-.264-2.976.137-2.809.387-7.365 0 0 5.098 1.193 6.686 1.21 0 0-.698 4.645-.22 6.238.479 1.591 1.345 3.677-.552 4.745z" fill="#EFA8A8"/><path d="M110.901 109.729s-4.403-.18-5.943-1.687c0 0-.068 1.819 5.873 2.474l.068-.787h.002z" fill="#D89595"/><path d="M112.137 95.463s-9.905-6.9-13.716-.225c0 0-2.523 2.178-1.934 7.496.6 5.428 5.257 8.166 6.688 6.637.917-.981 1.071-.133 1.071-.133l.166-1.979 7.725-11.796z" fill="#1D1D1B"/><path d="M104.411 107.263s-2.895.096-4.454-1.925c-1.114-1.443-3.382-7.759 2.994-9.999 0 0 1.812-.727 4.002-.479 1.742.198 4.58 1.105 5.188 7.329l.368 2.018-8.098 3.054v.002z" fill="#1D1D1B"/><path d="M113.835 109.01s-7.962 2.977-9.589-2.195c-1.569-4.987-3.787-7.946 1.212-9.923 4.999-1.977 6.731-.476 7.573 1.11.948 1.789.941 2.616 1.077 4.103.064.691.473 1.305.477 2.274.011 2.304.2 4.233-.748 4.631h-.002z" fill="#EFA8A8"/><path d="M108.689 95.34s-.266 6.801-3.455 8.846-5.009 1.613-5.009 1.613 1.97-3.004 1.298-6.887c0 0 4.497-5.886 7.164-3.572h.002z" fill="#1D1D1B"/><path d="M108.287 96.016s1.797.11 3.269 1.285c1.134.906 1.852 1.505 2.427 3.729 0 0 .334-4.256-2.36-5.948-2.856-1.794-3.336.934-3.336.934z" fill="#1D1D1B"/><path d="M293.953 240.108c16.762 0 30.349-1.795 30.349-4.008 0-2.214-13.587-4.008-30.349-4.008-16.761 0-30.349 1.794-30.349 4.008 0 2.213 13.588 4.008 30.349 4.008z" fill="#F4F4FD"/><path d="M291.512 223.854s-.415 5.021 0 7.106c0 0-1.363 1.043-5.148-1.59 0 0-.547-2.317.034-5.39 0 0 2.323-4.599 5.112-.126h.002z" fill="#EFA8A8"/><path d="M290.71 229.81s1.191.014 1.595 1.923c.405 1.909.441 3.072.441 3.072s-4.814 0-7.612.461c-2.796.463-6.087.756-10.786-1.556 0 0-.801-1.711.602-1.884 1.403-.173 4.438.025 5.778-.809 1.341-.833 3.094-2.02 3.836-2.459.742-.438 1.149-1.308 1.637-.543.49.765.689 2.959 4.509 1.795z" fill="url(#paint60_linear_248_55763)"/><path d="M284.721 231.105a.217.217 0 01-.318-.069l-.825-1.331a.264.264 0 01.063-.347.218.218 0 01.318.069l.825 1.331a.264.264 0 01-.063.347zm-.549.398a.218.218 0 01-.318-.068l-.825-1.331a.264.264 0 01.063-.347.217.217 0 01.318.068l.825 1.331a.264.264 0 01-.063.347zm-.544.396a.217.217 0 01-.318-.068l-.825-1.331a.264.264 0 01.063-.347.218.218 0 01.318.068l.825 1.331a.264.264 0 01-.063.347z" fill="#fff"/><path d="M292.745 234.805l.118 1.9s-7.109-.05-9.292-.073c-2.182-.023-4.301.034-6.015-.543-1.716-.576-3.1-.901-3.209-2.379 0 0 2.976 1.971 7.255 1.864 4.28-.109 3.542-.794 8.121-.727 3.262.048 3.022-.042 3.022-.042z" fill="#EAF0FF"/><path d="M311.669 221.468s.801 4.966 1.699 6.862c0 0-1.065 1.393-5.349-.082 0 0-1.082-2.083-1.256-5.214 0 0 1.143-5.096 4.907-1.565l-.001-.001z" fill="#EFA8A8"/><path d="M312.32 227.446s1.153-.322 2 1.407c.846 1.728 1.16 2.842 1.16 2.842s-4.65 1.359-7.24 2.595c-2.59 1.237-5.697 2.449-10.787 1.543 0 0-1.183-1.427.13-1.99 1.313-.563 4.291-1.229 5.388-2.412 1.096-1.183 2.505-2.825 3.116-3.458.61-.632.795-1.588 1.451-.987.656.601 1.374 2.662 4.782.459v.001z" fill="url(#paint61_linear_248_55763)"/><path d="M306.844 230.39a.217.217 0 01-.324.024l-1.114-1.054a.264.264 0 01-.022-.352.218.218 0 01.325-.025l1.113 1.054c.096.09.107.248.022.353zm-.429.534a.218.218 0 01-.325.025l-1.113-1.054a.264.264 0 01-.022-.353.218.218 0 01.324-.025l1.114 1.054c.096.09.106.249.022.353zm-.431.542a.217.217 0 01-.324.024l-1.114-1.053a.265.265 0 01-.022-.353.217.217 0 01.324-.025l1.114 1.054c.096.09.106.248.022.353z" fill="#fff"/><path d="M315.483 231.696l.568 1.801s-6.876 1.96-8.988 2.554c-2.115.595-4.145 1.246-5.939 1.174-1.794-.073-3.209.006-3.667-1.391 0 0 3.346 1.064 7.452-.249 4.106-1.314 3.23-1.767 7.667-2.995 3.161-.875 2.908-.894 2.908-.894h-.001z" fill="#EAF0FF"/><path d="M285.642 146.731s-3.263 38.515-3.011 44.352c.252 5.837 2.771 35.457 2.771 35.457s3.007-.548 6.667.519c0 0 1.2-28.121 1.152-35.977 0 0 3.41-20.449 3.41-44.382 0 0-5.574 0-10.987.028l-.002.003z" fill="url(#paint62_linear_248_55763)"/><path d="M308.446 145.698s2.208 8.158.955 15.295c-2.069 11.778-2.651 25.597-2.651 25.597l5.977 37.841s-2.599.059-6.377 1.581c0 0-10.089-31.531-10.089-37.291 0-5.76-3.016-18.136-3.997-24.875-.982-6.737-3.295-17.017-3.295-17.017s15.17-.116 19.477-1.131z" fill="url(#paint63_linear_248_55763)"/><path d="M294.902 178.097l-2.25-11.874 1.716 16.569.534-4.695z" fill="#1D1D1B"/><path d="M277.063 109.094s2.928-2.538 3.601-7.258l-10.405-2.7s-2.605-10.45-7.013-21.203l-4.048.83s2.687 12.4 4.227 18.79c.849 3.522 1.149 6.91 3.856 8.066 2.708 1.155 9.782 3.473 9.782 3.473v.002z" fill="#EFA8A8"/><path d="M280.211 101.723s-2.711 4.783-4.966 6.763l.542.181s2.576-2.082 4.425-6.944h-.001z" fill="#D89595"/><path d="M293.185 112s-3.562 3.975-17.94-3.041c0 0 3.134-2.373 4.985-7.443 0 0 4.792.419 9.134 1.778 3.085.965 3.821 8.706 3.821 8.706z" fill="#E15CA7"/><path d="M263.246 77.932s-.378-1.047.122-1.805c.5-.757 1.155-1.219.742-2.77-.413-1.553-1.019-.54-1.019-.54s-.396-1.323-.983-1.904c-.588-.58-2.128-.546-3.15.179-1.022.724-2.796 1.698.24 7.67l4.048-.83z" fill="#EFA8A8"/><path d="M309.207 149.928s2.356-23.857.188-34.611c-2.168-10.753-3.693-12.807-5.236-13.706-1.543-.898-11.317-.641-18.517.642-7.202 1.283-7.973 10.784-7.973 10.784s2.057-.257 4.887.834c0 0 3.19 23.676 2.072 36.057 0 0 18.858 1.476 24.579 0z" fill="url(#paint64_linear_248_55763)"/><path d="M298.888 101.079s-1.543 5.378-6.752 5.474c-5.208.096-6.493-4.301-6.493-4.301s3.504-1.546 13.245-1.175v.002z" fill="#EFA8A8"/><path d="M279.466 85.01s-1.059 3.02.233 6.8c0 0-.86 2.84-.789 3.312.072.472 1.706.451 1.706.451s.681 2.532.98 3.528c.3.994.535 1.813 1.819 1.694 1.284-.119 3.653-.698 4.435.297.102.13 1.232 3.625 3.639 2.777.557-.196 8.632-2.849 6.881-2.849-2.161 0-5.223-6.223-4.355-9.585.868-3.362.416-7.826-2.757-9.13-3.174-1.306-10.686-1.287-11.794 2.705h.002z" fill="#EFA8A8"/><path d="M293.697 93.266c-.331-1.583-2.476.114-2.476.114s.078 1.866-.643 2.883c-.278.39-2.783 3.242-6.37 4.376 0 0 2.763-.271 6.449-2.383 1.74-.998 3.322-3.642 3.04-4.99z" fill="#D89595"/><path d="M290.215 91.153s-2.095.167-2.034-1.884c0 0-1.32.868-2.313-1.026-.994-1.893-2.215-3.084-4.797-2.694-2.583.388-2.398-.604-2.487-1.187-.087-.58.335-1.721 1.697-1.815 1.363-.095.768-1.565 1.857-1.99 1.089-.423 2.523-.046 3.36-.172.836-.126 1.521-1.009 2.613-1.174 1.092-.164 2.471.594 3.115 1.647.642 1.054.868 1.8 2.194 1.713 1.326-.088 2.229.22 2.59 1.133.36.911-.188 1.216-.139 1.543.05.326.98.818 1.059 1.586.078.768-.625 1.765-1.314 2.13 0 0 .468.636.312 1.327-.155.692-1.199.923-1.176 1.328.025.405.135 1.874-1.078 1.983-1.212.109-2.453-.225-2.453-.225s2.107-2.063 1.782-3.722c-.326-1.66-1.899-1.237-2.241-1.037-.342.2-1.112.762-1.025 1.343.087.58.478 1.19.478 1.19v.003z" fill="#1D1D1B"/><path d="M264.942 134.393l40.616-8.323a1.42 1.42 0 011.674 1.102l-42.005 8.607-.285-1.386z" fill="url(#paint65_linear_248_55763)"/><path d="M292.963 130.082l-9.048-19.157a1.122 1.122 0 00-1.238-.618l-26.857 5.504a.78.78 0 00-.55 1.099l8.423 17.758a1.82 1.82 0 002.01 1.002l27.26-5.588z" fill="url(#paint66_linear_248_55763)"/><path d="M273.076 124.285c.597-.203.841-1.067.546-1.93-.295-.863-1.017-1.397-1.614-1.194-.597.204-.841 1.068-.546 1.93.295.863 1.018 1.398 1.614 1.194z" fill="#fff"/><path d="M315.519 112.536s-3.626.683-6.448 4.24l5.432 5.23s-10.001 5.757-17.481 6.632l.361 4.139s18.321-3.333 22.965-5.024c4.645-1.691 3.212-5.43 1.542-7.678-1.671-2.245-6.372-7.541-6.372-7.541l.001.002z" fill="#EFA8A8"/><path d="M297.619 128.558s-1.085.254-1.781-.33c-.697-.583-1.081-1.286-2.673-1.055-1.592.231-.654.948-.654.948s-1.361.239-2.007.755c-.645.516-.789 2.046-.186 3.144.602 1.097 1.368 2.968 7.66.647l-.359-4.109z" fill="#EFA8A8"/><path d="M309.395 117.084s4.526-2.633 7.331-3.181l-.358-.409s-3.117.478-6.973 3.59z" fill="#D89595"/><path d="M302.097 101.568s5.465-2.152 14.833 11.881c0 0-3.94.35-8.609 4.558 0 0-6.676-7.513-7.817-10.726-1.14-3.212 1.593-5.713 1.593-5.713z" fill="url(#paint67_linear_248_55763)"/><g opacity=".2" fill="#1D1D1B"><path d="M308.975 117.437l-.653.569s-2.597-2.319-4.05-4.883c0 0 3.404 3.378 4.703 4.314z"/><path d="M309.396 117.086s-.793.542-1.075.92c0 0 .495.042 1.469-.541l-.394-.379z"/></g><path opacity=".2" d="M316.931 113.448s-.013.214-.203.456l-.358-.409.561-.049v.002z" fill="#1D1D1B"/><path d="M29.051 36.476A2.06 2.06 0 0127 34.408a2.06 2.06 0 012.051-2.068 2.06 2.06 0 012.052 2.068 2.06 2.06 0 01-2.052 2.068z" fill="url(#paint68_linear_248_55763)"/><path d="M43.956 22.44v3.366h-.672V22.44c0-.244.15-.44.335-.44.184 0 .334.196.334.44h.003zm-.001 14.716c0 .244-.15.44-.334.44-.184 0-.334-.196-.334-.44v-3.163h.672v3.163h-.004zm6.851-7.357c0 .2-.182.362-.407.362h-3.102v-.728h3.102c.225 0 .407.163.407.362v.004zm-13.964-.366h2.916v.728h-2.916c-.224 0-.405-.163-.405-.362 0-.2.18-.363.405-.363v-.003zm11.808-4.577l-2.194 2.38-.474-.514 2.194-2.38c.16-.173.394-.197.525-.055.13.142.109.396-.05.569zm-9.585 10.4c-.16.173-.394.196-.525.054-.13-.142-.11-.396.05-.569l2.063-2.238.475.514-2.063 2.239zm9.635.053c-.13.142-.365.118-.524-.055l-2.194-2.38.474-.515 2.195 2.38c.159.173.18.427.05.57zm-9.635-10.968l2.063 2.239-.475.515-2.063-2.239c-.16-.173-.18-.427-.05-.569.131-.142.365-.118.525.054z" fill="#38CCF0"/><path d="M170.526 46.193a1.642 1.642 0 110-3.284 1.642 1.642 0 010 3.284z" fill="url(#paint69_linear_248_55763)"/><path d="M173.399 56.864a4.104 4.104 0 110-8.208 4.104 4.104 0 010 8.208z" fill="url(#paint70_linear_248_55763)"/><path d="M53.102 206.857A4.104 4.104 0 0149 202.752a4.103 4.103 0 014.102-4.104 4.103 4.103 0 014.102 4.104 4.104 4.104 0 01-4.102 4.105z" fill="url(#paint71_linear_248_55763)"/><path d="M61.442 181.436v3.34h-.671v-3.34c0-.242.15-.437.334-.437.184 0 .334.195.334.437h.003zm0 14.603c0 .242-.15.437-.334.437-.184 0-.334-.195-.334-.437V192.9h.671v3.139h-.003zm6.849-7.301c0 .198-.181.359-.406.359h-3.102v-.722h3.102c.225 0 .406.161.406.359v.004zm-13.961-.363h2.914v.722H54.33c-.224 0-.406-.161-.406-.359 0-.199.181-.36.406-.36v-.003zm11.805-4.541l-2.194 2.362-.474-.511 2.194-2.362c.159-.172.393-.195.524-.054.131.141.11.393-.05.565zm-9.585 10.32c-.159.171-.393.195-.524.054-.131-.142-.11-.394.05-.565l2.063-2.221.474.51-2.063 2.222zm9.635.052c-.13.141-.365.117-.524-.054l-2.194-2.363.474-.51 2.194 2.362c.16.172.181.424.05.565zm-9.635-10.883l2.064 2.221-.475.511-2.063-2.221c-.16-.172-.181-.424-.05-.565.131-.141.365-.118.524.054z" fill="#38CCF0"/><path d="M301.044 264.956a5.747 5.747 0 11.001-11.493 5.747 5.747 0 01-.001 11.493z" fill="url(#paint72_linear_248_55763)"/><path d="M300.671 253.464c-1.483 0-2.827.643-3.799 1.683s-1.573 2.477-1.573 4.063h5.746v-5.731a5.15 5.15 0 00-.374-.014v-.001z" fill="#37A9E6" fill-opacity=".7"/><path d="M291.809 269.882a3.078 3.078 0 110-6.156 3.078 3.078 0 010 6.156z" fill="url(#paint73_linear_248_55763)"/><path d="M308.15 27.753v3.366h-.672v-3.366c0-.244.15-.44.334-.44.185 0 .335.196.335.44h.003zm-.001 14.717c0 .243-.15.44-.334.44-.184 0-.334-.197-.334-.44v-3.164h.671v3.163h-.003zm6.85-7.358c0 .2-.181.362-.406.362h-3.103v-.728h3.103c.225 0 .406.163.406.362v.004zm-13.964-.366h2.916v.728h-2.916c-.225 0-.406-.162-.406-.362 0-.2.181-.363.406-.363v-.003zm11.809-4.576l-2.194 2.38-.475-.515 2.195-2.38c.159-.173.393-.197.524-.055.131.143.11.397-.05.57zm-9.587 10.4c-.159.172-.393.196-.524.053-.131-.142-.11-.396.05-.569l2.063-2.238.475.515-2.064 2.238zm9.637.052c-.131.142-.365.118-.524-.054l-2.195-2.381.475-.515 2.194 2.38c.16.174.181.428.05.57zm-9.637-10.967l2.064 2.238-.475.515-2.063-2.239c-.16-.172-.181-.426-.05-.569.131-.142.365-.118.524.055z" fill="#38CCF0"/><path d="M294.475 31.863c-.68 0-1.231-.556-1.231-1.241s.551-1.24 1.231-1.24 1.231.555 1.231 1.24c0 .685-.551 1.24-1.231 1.24z" fill="url(#paint74_linear_248_55763)"/><path d="M290.578 39.308c-1.7 0-3.077-1.389-3.077-3.102 0-1.713 1.377-3.102 3.077-3.102 1.699 0 3.077 1.389 3.077 3.102 0 1.713-1.378 3.102-3.077 3.102z" fill="url(#paint75_linear_248_55763)"/><defs><linearGradient id="paint0_linear_248_55763" x1="177.5" y1="0" x2="177.5" y2="284" gradientUnits="userSpaceOnUse"><stop stop-color="#F8FCFF"/><stop offset="1" stop-color="#EBF4FA"/></linearGradient><linearGradient id="paint1_linear_248_55763" x1="193.191" y1="217.229" x2="193.191" y2="66.359" gradientUnits="userSpaceOnUse"><stop offset=".082" stop-color="#9EC8F4"/><stop offset="1" stop-color="#C1EBFF"/></linearGradient><linearGradient id="paint2_linear_248_55763" x1="205.528" y1="113.6" x2="133.087" y2="113.6" gradientUnits="userSpaceOnUse"><stop stop-color="#fff"/><stop offset=".75" stop-color="#fff"/></linearGradient><linearGradient id="paint3_linear_248_55763" x1="129.005" y1="105.172" x2="71.607" y2="105.172" gradientUnits="userSpaceOnUse"><stop stop-color="#fff"/><stop offset=".75" stop-color="#fff"/></linearGradient><linearGradient id="paint4_linear_248_55763" x1="239.055" y1="68.602" x2="212.354" y2="89.71" gradientUnits="userSpaceOnUse"><stop offset=".08" stop-color="#69CCB4"/><stop offset="1" stop-color="#47AD9E"/></linearGradient><linearGradient id="paint5_linear_248_55763" x1="198.789" y1="226.318" x2="198.789" y2="198.484" gradientUnits="userSpaceOnUse"><stop offset=".21" stop-color="#D8D9DF"/><stop offset=".51" stop-color="#D5D6DC"/><stop offset=".69" stop-color="#CECFD4"/><stop offset=".84" stop-color="#C2C2C5"/><stop offset=".97" stop-color="#B1B1B1"/><stop offset="1" stop-color="#ADADAD"/></linearGradient><linearGradient id="paint6_linear_248_55763" x1="198.787" y1="106.845" x2="198.787" y2="198.481" gradientUnits="userSpaceOnUse"><stop stop-color="#fff"/><stop offset=".88" stop-color="#fff"/><stop offset=".94" stop-color="#FDFDFD"/><stop offset=".96" stop-color="#F7F6F7"/><stop offset=".98" stop-color="#ECEAED"/><stop offset=".99" stop-color="#DDD9DE"/><stop offset="1" stop-color="#D7D2D8"/></linearGradient><linearGradient id="paint7_linear_248_55763" x1="198.789" y1="116.543" x2="198.789" y2="194.809" gradientUnits="userSpaceOnUse"><stop offset=".89" stop-color="#EEE8EE"/><stop offset=".94" stop-color="#ECE6EC"/><stop offset=".96" stop-color="#E5E1E6"/><stop offset=".98" stop-color="#D9D7DB"/><stop offset=".99" stop-color="#C8CACD"/><stop offset="1" stop-color="#BBBFC1"/></linearGradient><linearGradient id="paint8_linear_248_55763" x1="198.787" y1="223.16" x2="198.787" y2="229.872" gradientUnits="userSpaceOnUse"><stop offset=".21" stop-color="#EEE8EE"/><stop offset=".61" stop-color="#ECE6EC"/><stop offset=".76" stop-color="#E5E1E6"/><stop offset=".86" stop-color="#D9D7DB"/><stop offset=".95" stop-color="#C8CACD"/><stop offset="1" stop-color="#BBBFC1"/></linearGradient><linearGradient id="paint9_linear_248_55763" x1="137.687" y1="222.756" x2="137.687" y2="225.102" gradientUnits="userSpaceOnUse"><stop offset=".3" stop-color="#F3F0F4"/><stop offset=".55" stop-color="#DDDDE0"/><stop offset="1" stop-color="#BBBFC1"/></linearGradient><linearGradient id="paint10_linear_248_55763" x1="147.087" y1="222.756" x2="147.087" y2="225.102" gradientUnits="userSpaceOnUse"><stop offset=".3" stop-color="#F3F0F4"/><stop offset=".55" stop-color="#DDDDE0"/><stop offset="1" stop-color="#BBBFC1"/></linearGradient><linearGradient id="paint11_linear_248_55763" x1="156.487" y1="222.756" x2="156.487" y2="225.102" gradientUnits="userSpaceOnUse"><stop offset=".3" stop-color="#F3F0F4"/><stop offset=".55" stop-color="#DDDDE0"/><stop offset="1" stop-color="#BBBFC1"/></linearGradient><linearGradient id="paint12_linear_248_55763" x1="165.887" y1="222.756" x2="165.887" y2="225.102" gradientUnits="userSpaceOnUse"><stop offset=".3" stop-color="#F3F0F4"/><stop offset=".55" stop-color="#DDDDE0"/><stop offset="1" stop-color="#BBBFC1"/></linearGradient><linearGradient id="paint13_linear_248_55763" x1="175.288" y1="222.756" x2="175.288" y2="225.102" gradientUnits="userSpaceOnUse"><stop offset=".3" stop-color="#F3F0F4"/><stop offset=".55" stop-color="#DDDDE0"/><stop offset="1" stop-color="#BBBFC1"/></linearGradient><linearGradient id="paint14_linear_248_55763" x1="184.688" y1="222.756" x2="184.688" y2="225.102" gradientUnits="userSpaceOnUse"><stop offset=".3" stop-color="#F3F0F4"/><stop offset=".55" stop-color="#DDDDE0"/><stop offset="1" stop-color="#BBBFC1"/></linearGradient><linearGradient id="paint15_linear_248_55763" x1="194.089" y1="222.756" x2="194.089" y2="225.102" gradientUnits="userSpaceOnUse"><stop offset=".3" stop-color="#F3F0F4"/><stop offset=".55" stop-color="#DDDDE0"/><stop offset="1" stop-color="#BBBFC1"/></linearGradient><linearGradient id="paint16_linear_248_55763" x1="203.489" y1="222.756" x2="203.489" y2="225.102" gradientUnits="userSpaceOnUse"><stop offset=".3" stop-color="#F3F0F4"/><stop offset=".55" stop-color="#DDDDE0"/><stop offset="1" stop-color="#BBBFC1"/></linearGradient><linearGradient id="paint17_linear_248_55763" x1="212.887" y1="222.756" x2="212.887" y2="225.102" gradientUnits="userSpaceOnUse"><stop offset=".3" stop-color="#F3F0F4"/><stop offset=".55" stop-color="#DDDDE0"/><stop offset="1" stop-color="#BBBFC1"/></linearGradient><linearGradient id="paint18_linear_248_55763" x1="222.288" y1="222.756" x2="222.288" y2="225.102" gradientUnits="userSpaceOnUse"><stop offset=".3" stop-color="#F3F0F4"/><stop offset=".55" stop-color="#DDDDE0"/><stop offset="1" stop-color="#BBBFC1"/></linearGradient><linearGradient id="paint19_linear_248_55763" x1="231.69" y1="222.756" x2="231.69" y2="225.102" gradientUnits="userSpaceOnUse"><stop offset=".3" stop-color="#F3F0F4"/><stop offset=".55" stop-color="#DDDDE0"/><stop offset="1" stop-color="#BBBFC1"/></linearGradient><linearGradient id="paint20_linear_248_55763" x1="241.091" y1="222.756" x2="241.091" y2="225.102" gradientUnits="userSpaceOnUse"><stop offset=".3" stop-color="#F3F0F4"/><stop offset=".55" stop-color="#DDDDE0"/><stop offset="1" stop-color="#BBBFC1"/></linearGradient><linearGradient id="paint21_linear_248_55763" x1="250.49" y1="222.756" x2="250.49" y2="225.102" gradientUnits="userSpaceOnUse"><stop offset=".3" stop-color="#F3F0F4"/><stop offset=".55" stop-color="#DDDDE0"/><stop offset="1" stop-color="#BBBFC1"/></linearGradient><linearGradient id="paint22_linear_248_55763" x1="259.89" y1="222.756" x2="259.89" y2="225.102" gradientUnits="userSpaceOnUse"><stop offset=".3" stop-color="#F3F0F4"/><stop offset=".55" stop-color="#DDDDE0"/><stop offset="1" stop-color="#BBBFC1"/></linearGradient><linearGradient id="paint23_linear_248_55763" x1="136.822" y1="224.142" x2="136.822" y2="226.488" gradientUnits="userSpaceOnUse"><stop offset=".3" stop-color="#F3F0F4"/><stop offset=".58" stop-color="#DFDEE2"/><stop offset="1" stop-color="#BBBFC1"/></linearGradient><linearGradient id="paint24_linear_248_55763" x1="146.373" y1="224.142" x2="146.373" y2="226.488" gradientUnits="userSpaceOnUse"><stop offset=".3" stop-color="#F3F0F4"/><stop offset=".58" stop-color="#DFDEE2"/><stop offset="1" stop-color="#BBBFC1"/></linearGradient><linearGradient id="paint25_linear_248_55763" x1="155.922" y1="224.142" x2="155.922" y2="226.487" gradientUnits="userSpaceOnUse"><stop offset=".3" stop-color="#F3F0F4"/><stop offset=".58" stop-color="#DFDEE2"/><stop offset="1" stop-color="#BBBFC1"/></linearGradient><linearGradient id="paint26_linear_248_55763" x1="165.473" y1="224.142" x2="165.473" y2="226.487" gradientUnits="userSpaceOnUse"><stop offset=".3" stop-color="#F3F0F4"/><stop offset=".58" stop-color="#DFDEE2"/><stop offset="1" stop-color="#BBBFC1"/></linearGradient><linearGradient id="paint27_linear_248_55763" x1="175.022" y1="224.142" x2="175.022" y2="226.487" gradientUnits="userSpaceOnUse"><stop offset=".3" stop-color="#F3F0F4"/><stop offset=".58" stop-color="#DFDEE2"/><stop offset="1" stop-color="#BBBFC1"/></linearGradient><linearGradient id="paint28_linear_248_55763" x1="184.571" y1="224.142" x2="184.571" y2="226.487" gradientUnits="userSpaceOnUse"><stop offset=".3" stop-color="#F3F0F4"/><stop offset=".58" stop-color="#DFDEE2"/><stop offset="1" stop-color="#BBBFC1"/></linearGradient><linearGradient id="paint29_linear_248_55763" x1="194.12" y1="224.142" x2="194.12" y2="226.488" gradientUnits="userSpaceOnUse"><stop offset=".3" stop-color="#F3F0F4"/><stop offset=".58" stop-color="#DFDEE2"/><stop offset="1" stop-color="#BBBFC1"/></linearGradient><linearGradient id="paint30_linear_248_55763" x1="203.671" y1="224.142" x2="203.671" y2="226.488" gradientUnits="userSpaceOnUse"><stop offset=".3" stop-color="#F3F0F4"/><stop offset=".58" stop-color="#DFDEE2"/><stop offset="1" stop-color="#BBBFC1"/></linearGradient><linearGradient id="paint31_linear_248_55763" x1="213.219" y1="224.142" x2="213.219" y2="226.488" gradientUnits="userSpaceOnUse"><stop offset=".3" stop-color="#F3F0F4"/><stop offset=".58" stop-color="#DFDEE2"/><stop offset="1" stop-color="#BBBFC1"/></linearGradient><linearGradient id="paint32_linear_248_55763" x1="222.768" y1="224.142" x2="222.768" y2="226.488" gradientUnits="userSpaceOnUse"><stop offset=".3" stop-color="#F3F0F4"/><stop offset=".58" stop-color="#DFDEE2"/><stop offset="1" stop-color="#BBBFC1"/></linearGradient><linearGradient id="paint33_linear_248_55763" x1="232.317" y1="224.142" x2="232.317" y2="226.487" gradientUnits="userSpaceOnUse"><stop offset=".3" stop-color="#F3F0F4"/><stop offset=".58" stop-color="#DFDEE2"/><stop offset="1" stop-color="#BBBFC1"/></linearGradient><linearGradient id="paint34_linear_248_55763" x1="241.867" y1="224.142" x2="241.867" y2="226.487" gradientUnits="userSpaceOnUse"><stop offset=".3" stop-color="#F3F0F4"/><stop offset=".58" stop-color="#DFDEE2"/><stop offset="1" stop-color="#BBBFC1"/></linearGradient><linearGradient id="paint35_linear_248_55763" x1="251.418" y1="224.142" x2="251.418" y2="226.487" gradientUnits="userSpaceOnUse"><stop offset=".3" stop-color="#F3F0F4"/><stop offset=".58" stop-color="#DFDEE2"/><stop offset="1" stop-color="#BBBFC1"/></linearGradient><linearGradient id="paint36_linear_248_55763" x1="260.968" y1="224.142" x2="260.968" y2="226.487" gradientUnits="userSpaceOnUse"><stop offset=".3" stop-color="#F3F0F4"/><stop offset=".58" stop-color="#DFDEE2"/><stop offset="1" stop-color="#BBBFC1"/></linearGradient><linearGradient id="paint37_linear_248_55763" x1="136.229" y1="225.734" x2="136.229" y2="228.079" gradientUnits="userSpaceOnUse"><stop offset=".3" stop-color="#F3F0F4"/><stop offset=".65" stop-color="#F1EEF2"/><stop offset=".78" stop-color="#EAE8EC"/><stop offset=".87" stop-color="#DEDEE1"/><stop offset=".94" stop-color="#CDCFD2"/><stop offset="1" stop-color="#BBBFC1"/></linearGradient><linearGradient id="paint38_linear_248_55763" x1="145.89" y1="225.734" x2="145.89" y2="228.08" gradientUnits="userSpaceOnUse"><stop offset=".3" stop-color="#F3F0F4"/><stop offset=".65" stop-color="#F1EEF2"/><stop offset=".78" stop-color="#EAE8EC"/><stop offset=".87" stop-color="#DEDEE1"/><stop offset=".94" stop-color="#CDCFD2"/><stop offset="1" stop-color="#BBBFC1"/></linearGradient><linearGradient id="paint39_linear_248_55763" x1="155.55" y1="225.734" x2="155.55" y2="228.08" gradientUnits="userSpaceOnUse"><stop offset=".3" stop-color="#F3F0F4"/><stop offset=".65" stop-color="#F1EEF2"/><stop offset=".78" stop-color="#EAE8EC"/><stop offset=".87" stop-color="#DEDEE1"/><stop offset=".94" stop-color="#CDCFD2"/><stop offset="1" stop-color="#BBBFC1"/></linearGradient><linearGradient id="paint40_linear_248_55763" x1="165.205" y1="225.734" x2="165.205" y2="228.08" gradientUnits="userSpaceOnUse"><stop offset=".3" stop-color="#F3F0F4"/><stop offset=".65" stop-color="#F1EEF2"/><stop offset=".78" stop-color="#EAE8EC"/><stop offset=".87" stop-color="#DEDEE1"/><stop offset=".94" stop-color="#CDCFD2"/><stop offset="1" stop-color="#BBBFC1"/></linearGradient><linearGradient id="paint41_linear_248_55763" x1="199.003" y1="225.734" x2="199.003" y2="228.079" gradientUnits="userSpaceOnUse"><stop offset=".3" stop-color="#F3F0F4"/><stop offset=".65" stop-color="#F1EEF2"/><stop offset=".78" stop-color="#EAE8EC"/><stop offset=".87" stop-color="#DEDEE1"/><stop offset=".94" stop-color="#CDCFD2"/><stop offset="1" stop-color="#BBBFC1"/></linearGradient><linearGradient id="paint42_linear_248_55763" x1="232.823" y1="225.734" x2="232.823" y2="228.079" gradientUnits="userSpaceOnUse"><stop offset=".3" stop-color="#F3F0F4"/><stop offset=".65" stop-color="#F1EEF2"/><stop offset=".78" stop-color="#EAE8EC"/><stop offset=".87" stop-color="#DEDEE1"/><stop offset=".94" stop-color="#CDCFD2"/><stop offset="1" stop-color="#BBBFC1"/></linearGradient><linearGradient id="paint43_linear_248_55763" x1="242.49" y1="225.734" x2="242.49" y2="228.079" gradientUnits="userSpaceOnUse"><stop offset=".3" stop-color="#F3F0F4"/><stop offset=".65" stop-color="#F1EEF2"/><stop offset=".78" stop-color="#EAE8EC"/><stop offset=".87" stop-color="#DEDEE1"/><stop offset=".94" stop-color="#CDCFD2"/><stop offset="1" stop-color="#BBBFC1"/></linearGradient><linearGradient id="paint44_linear_248_55763" x1="252.146" y1="225.734" x2="252.146" y2="228.08" gradientUnits="userSpaceOnUse"><stop offset=".3" stop-color="#F3F0F4"/><stop offset=".65" stop-color="#F1EEF2"/><stop offset=".78" stop-color="#EAE8EC"/><stop offset=".87" stop-color="#DEDEE1"/><stop offset=".94" stop-color="#CDCFD2"/><stop offset="1" stop-color="#BBBFC1"/></linearGradient><linearGradient id="paint45_linear_248_55763" x1="261.806" y1="225.734" x2="261.806" y2="228.08" gradientUnits="userSpaceOnUse"><stop offset=".3" stop-color="#F3F0F4"/><stop offset=".65" stop-color="#F1EEF2"/><stop offset=".78" stop-color="#EAE8EC"/><stop offset=".87" stop-color="#DEDEE1"/><stop offset=".94" stop-color="#CDCFD2"/><stop offset="1" stop-color="#BBBFC1"/></linearGradient><linearGradient id="paint46_linear_248_55763" x1="250.436" y1="153.706" x2="262.445" y2="153.706" gradientUnits="userSpaceOnUse"><stop stop-color="#E38735"/><stop offset="1" stop-color="#EB9E44"/></linearGradient><linearGradient id="paint47_linear_248_55763" x1="197.927" y1="180.592" x2="197.927" y2="129.642" gradientUnits="userSpaceOnUse"><stop offset=".28" stop-color="#fff"/><stop offset="1" stop-color="#E15CA7"/></linearGradient><linearGradient id="paint48_linear_248_55763" x1="133.051" y1="98.654" x2="133.051" y2="94.229" gradientUnits="userSpaceOnUse"><stop stop-color="#3036BC"/><stop offset="1" stop-color="#3D52E1"/></linearGradient><linearGradient id="paint49_linear_248_55763" x1="138.319" y1="98.653" x2="138.319" y2="92.483" gradientUnits="userSpaceOnUse"><stop stop-color="#3036BC"/><stop offset="1" stop-color="#3D52E1"/></linearGradient><linearGradient id="paint50_linear_248_55763" x1="148.854" y1="98.653" x2="148.854" y2="92.483" gradientUnits="userSpaceOnUse"><stop stop-color="#3036BC"/><stop offset="1" stop-color="#3D52E1"/></linearGradient><linearGradient id="paint51_linear_248_55763" x1="154.121" y1="98.653" x2="154.121" y2="90.522" gradientUnits="userSpaceOnUse"><stop stop-color="#3036BC"/><stop offset="1" stop-color="#3D52E1"/></linearGradient><linearGradient id="paint52_linear_248_55763" x1="159.389" y1="98.653" x2="159.389" y2="86.989" gradientUnits="userSpaceOnUse"><stop stop-color="#E38735"/><stop offset="1" stop-color="#EB9E44"/></linearGradient><linearGradient id="paint53_linear_248_55763" x1="143.584" y1="98.655" x2="143.584" y2="89.184" gradientUnits="userSpaceOnUse"><stop stop-color="#3036BC"/><stop offset="1" stop-color="#3D52E1"/></linearGradient><linearGradient id="paint54_linear_248_55763" x1="265.88" y1="176.589" x2="277.796" y2="176.589" gradientUnits="userSpaceOnUse"><stop stop-color="#3036BC"/><stop offset="1" stop-color="#3D52E1"/></linearGradient><linearGradient id="paint55_linear_248_55763" x1="272.353" y1="172.773" x2="278.31" y2="172.773" gradientUnits="userSpaceOnUse"><stop stop-color="#E38735"/><stop offset="1" stop-color="#EB9E44"/></linearGradient><linearGradient id="paint56_linear_248_55763" x1="137.181" y1="102.129" x2="110.898" y2="102.129" gradientUnits="userSpaceOnUse"><stop stop-color="#E3D535"/><stop offset="1" stop-color="#F2A72F"/></linearGradient><linearGradient id="paint57_linear_248_55763" x1="116.476" y1="233.651" x2="116.476" y2="159.303" gradientUnits="userSpaceOnUse"><stop offset=".21" stop-color="#303EBC"/><stop offset="1" stop-color="#365FC8"/></linearGradient><linearGradient id="paint58_linear_248_55763" x1="105.419" y1="232.276" x2="105.419" y2="156.994" gradientUnits="userSpaceOnUse"><stop offset=".21" stop-color="#3036BC"/><stop offset="1" stop-color="#3D52E1"/></linearGradient><linearGradient id="paint59_linear_248_55763" x1="123.947" y1="121.4" x2="77.112" y2="121.4" gradientUnits="userSpaceOnUse"><stop stop-color="#E3D535"/><stop offset="1" stop-color="#F2A72F"/></linearGradient><linearGradient id="paint60_linear_248_55763" x1="274.12" y1="231.65" x2="292.745" y2="231.65" gradientUnits="userSpaceOnUse"><stop offset=".21" stop-color="#717170"/><stop offset="1" stop-color="#848484"/></linearGradient><linearGradient id="paint61_linear_248_55763" x1="296.964" y1="231.473" x2="315.481" y2="231.473" gradientUnits="userSpaceOnUse"><stop offset=".21" stop-color="#888884"/><stop offset="1" stop-color="#6E6E6D"/></linearGradient><linearGradient id="paint62_linear_248_55763" x1="289.623" y1="227.059" x2="289.623" y2="146.7" gradientUnits="userSpaceOnUse"><stop offset=".082" stop-color="#6784A2"/><stop offset="1" stop-color="#62767F"/></linearGradient><linearGradient id="paint63_linear_248_55763" x1="300.847" y1="226.012" x2="300.847" y2="145.698" gradientUnits="userSpaceOnUse"><stop offset=".082" stop-color="#6784A2"/><stop offset="1" stop-color="#62767F"/></linearGradient><linearGradient id="paint64_linear_248_55763" x1="293.991" y1="150.584" x2="293.991" y2="101.08" gradientUnits="userSpaceOnUse"><stop stop-color="#C9316F"/><stop offset=".67" stop-color="#E15CA7"/></linearGradient><linearGradient id="paint65_linear_248_55763" x1="286.228" y1="131.476" x2="285.944" y2="130.089" gradientUnits="userSpaceOnUse"><stop offset=".082" stop-color="#4C99EB"/><stop offset="1" stop-color="#56BDED"/></linearGradient><linearGradient id="paint66_linear_248_55763" x1="274.078" y1="135.707" x2="274.078" y2="110.284" gradientUnits="userSpaceOnUse"><stop offset=".082" stop-color="#4C99EB"/><stop offset="1" stop-color="#56BDED"/></linearGradient><linearGradient id="paint67_linear_248_55763" x1="308.578" y1="118.007" x2="308.578" y2="101.449" gradientUnits="userSpaceOnUse"><stop stop-color="#C9316F"/><stop offset="1" stop-color="#E15CA7"/></linearGradient><linearGradient id="paint68_linear_248_55763" x1="29.051" y1="36.476" x2="29.051" y2="32.34" gradientUnits="userSpaceOnUse"><stop offset=".082" stop-color="#4C99EB"/><stop offset="1" stop-color="#56BDED"/></linearGradient><linearGradient id="paint69_linear_248_55763" x1="170.526" y1="42.909" x2="170.526" y2="46.193" gradientUnits="userSpaceOnUse"><stop stop-color="#80D1E5"/><stop offset="1" stop-color="#24A3C2"/></linearGradient><linearGradient id="paint70_linear_248_55763" x1="173.399" y1="56.864" x2="173.399" y2="48.655" gradientUnits="userSpaceOnUse"><stop offset=".082" stop-color="#4C99EB"/><stop offset="1" stop-color="#56BDED"/></linearGradient><linearGradient id="paint71_linear_248_55763" x1="53.102" y1="206.857" x2="53.102" y2="198.648" gradientUnits="userSpaceOnUse"><stop offset=".082" stop-color="#4C99EB"/><stop offset="1" stop-color="#56BDED"/></linearGradient><linearGradient id="paint72_linear_248_55763" x1="301.045" y1="264.956" x2="301.045" y2="253.464" gradientUnits="userSpaceOnUse"><stop offset=".082" stop-color="#4C99EB"/><stop offset="1" stop-color="#56BDED"/></linearGradient><linearGradient id="paint73_linear_248_55763" x1="291.809" y1="263.725" x2="291.809" y2="269.882" gradientUnits="userSpaceOnUse"><stop stop-color="#80D1E5"/><stop offset="1" stop-color="#24A3C2"/></linearGradient><linearGradient id="paint74_linear_248_55763" x1="294.475" y1="31.863" x2="294.475" y2="29.381" gradientUnits="userSpaceOnUse"><stop offset=".082" stop-color="#4C99EB"/><stop offset="1" stop-color="#56BDED"/></linearGradient><linearGradient id="paint75_linear_248_55763" x1="290.578" y1="33.104" x2="290.578" y2="39.308" gradientUnits="userSpaceOnUse"><stop stop-color="#80D1E5"/><stop offset="1" stop-color="#24A3C2"/></linearGradient><filter id="filter0_n_248_55763" x="0" y="0" width="355" height="284" filterUnits="userSpaceOnUse" color-interpolation-filters="sRGB"><feFlood flood-opacity="0" result="BackgroundImageFix"/><feBlend in="SourceGraphic" in2="BackgroundImageFix" result="shape"/><feTurbulence type="fractalNoise" baseFrequency="2.6376810073852539 2.6376810073852539" stitchTiles="stitch" numOctaves="3" result="noise" seed="7531"/><feColorMatrix in="noise" type="luminanceToAlpha" result="alphaNoise"/><feComponentTransfer in="alphaNoise" result="coloredNoise1"><feFuncA type="discrete" tableValues="1 1 1 1 1 1 1 1 1 1 1 1 1 1 1 1 1 1 1 1 1 1 1 1 1 1 1 1 1 1 1 1 1 1 1 1 1 1 1 1 1 1 1 1 1 1 1 1 1 1 1 0 0 0 0 0 0 0 0 0 0 0 0 0 0 0 0 0 0 0 0 0 0 0 0 0 0 0 0 0 0 0 0 0 0 0 0 0 0 0 0 0 0 0 0 0 0 0 0 0"/></feComponentTransfer><feComposite operator="in" in2="shape" in="coloredNoise1" result="noise1Clipped"/><feFlood flood-color="#DEECFC" result="color1Flood"/><feComposite operator="in" in2="noise1Clipped" in="color1Flood" result="color1"/><feMerge result="effect1_noise_248_55763"><feMergeNode in="shape"/><feMergeNode in="color1"/></feMerge></filter><filter id="filter1_n_248_55763" x="64" y="66.359" width="258.397" height="150.87" filterUnits="userSpaceOnUse" color-interpolation-filters="sRGB"><feFlood flood-opacity="0" result="BackgroundImageFix"/><feBlend in="SourceGraphic" in2="BackgroundImageFix" result="shape"/><feTurbulence type="fractalNoise" baseFrequency="1.2266449928283691 1.2266449928283691" stitchTiles="stitch" numOctaves="3" result="noise" seed="5782"/><feColorMatrix in="noise" type="luminanceToAlpha" result="alphaNoise"/><feComponentTransfer in="alphaNoise" result="coloredNoise1"><feFuncA type="discrete" tableValues="1 1 1 1 1 1 1 1 1 1 1 1 1 1 1 1 1 1 1 1 1 1 1 1 1 1 1 1 1 1 1 1 1 1 1 1 1 1 1 1 1 1 1 1 1 1 1 1 1 1 1 0 0 0 0 0 0 0 0 0 0 0 0 0 0 0 0 0 0 0 0 0 0 0 0 0 0 0 0 0 0 0 0 0 0 0 0 0 0 0 0 0 0 0 0 0 0 0 0 0"/></feComponentTransfer><feComposite operator="in" in2="shape" in="coloredNoise1" result="noise1Clipped"/><feFlood flood-color="rgba(176, 210, 249, 0.5)" result="color1Flood"/><feComposite operator="in" in2="noise1Clipped" in="color1Flood" result="color1"/><feMerge result="effect1_noise_248_55763"><feMergeNode in="shape"/><feMergeNode in="color1"/></feMerge></filter></defs></svg>