<svg width="910" height="788" fill="none" xmlns="http://www.w3.org/2000/svg"><g filter="url(#filter0_n_248_53890)"><path d="M19.322 204.447L181.495 24.751A75 75 0 01237.173 0H835c41.421 0 75 33.579 75 75v638c0 41.421-33.579 75-75 75H236.925a74.998 74.998 0 01-55.399-24.444L19.601 586.12A75 75 0 010 535.564V254.696a75 75 0 0119.322-50.249z" fill="url(#paint0_linear_248_53890)"/></g><g filter="url(#filter1_n_248_53890)"><path d="M282.452 597.561c-34.176-47.266-61.122-99.724-79.619-155.003-12.922-38.611-21.034-83.489.434-118.107 16.696-26.921 48.346-41.581 79.754-46.12 31.408-4.538 63.325-.436 94.964 2.045 31.64 2.48 64.332 3.193 94.143-7.666 21.325-7.768 40.114-21.083 60.464-31.119 20.35-10.036 43.939-16.814 65.676-10.288 25.745 7.729 42.939 32.45 51.563 57.852 8.624 25.402 10.702 52.55 17.867 78.4 7.166 25.849 21.002 51.872 45.06 63.842 20.24 10.071 44.703 8.723 64.975 18.727 23.418 11.558 37.553 36.854 42.224 62.493 4.671 25.64 1.274 59.102-2.131 84.94H282.452v.004z" fill="url(#paint1_linear_248_53890)"/></g><path d="M841.898 594.538H247.526c-1.13 0-2.046.914-2.046 2.041 0 1.127.916 2.04 2.046 2.04h594.372c1.13 0 2.046-.913 2.046-2.04a2.044 2.044 0 00-2.046-2.041z" fill="#1D28A8"/><path d="M818.266 537.004s6.923-8.89 8.482-15.182c1.562-6.292-.349-12.197-4.448-11.871-4.098.323-9.769 9.348-4.038 27.056l.004-.003zm-10.359 14.67s5.558-11.977 4.846-19.227c-.715-7.25-2.483-12.002-7.71-11.86-5.226.142-10.516 6.296 2.864 31.087zm-11.885 15.946s3.43-12.747 1.491-19.77c-1.943-7.023-4.497-11.406-9.62-10.376-5.127 1.029-9.29 7.988 8.129 30.143v.003zm-3.667 16.09s11.229-10.571 22.219-14.063c10.99-3.492 13.441 1.905 13.313 6.164-.128 4.255-10.99 9.049-35.532 7.899zm36.448-32.759c2.601-.295 5.647-.174 7.265 1.873 1.665 2.105.897 5.391-1.017 7.275-1.914 1.885-4.632 2.676-7.265 3.23-3.462.727-22.859 3.903-21.877-1.651.594-3.36 6.92-5.82 9.578-7.026a44.15 44.15 0 0113.32-3.701h-.004zm6.865-43.722c1.298-2.417 2.839-4.823 5.151-6.314 2.309-1.487 5.568-1.82 7.728-.124 2.455 1.931 2.604 5.774 1.192 8.556-1.416 2.782-4.003 4.752-6.504 6.622-3.757 2.811-9.215 8.695-13.605 9.745-.943-5.263 3.462-13.971 6.045-18.485h-.007zm-4.679 22.673c2.306-1.498 4.814-2.868 7.557-3.066 2.743-.199 5.76 1.071 6.835 3.595 1.223 2.87-.495 6.313-3.078 8.073-2.583 1.76-5.799 2.25-8.894 2.69-4.65.664-12.271 3.208-16.626 2.023 1.711-5.068 9.766-10.593 14.206-13.315z" fill="#69CCB4"/><path d="M784.373 595.631a.636.636 0 01.011-.475c15.409-37.028 51.599-78.605 51.961-79.02a.653.653 0 01.918-.064.648.648 0 01.064.915c-.363.416-36.413 41.837-51.74 78.666a.656.656 0 01-.851.351.64.64 0 01-.359-.373h-.004z" fill="#1D28A8"/><path d="M815.852 542.58a.652.652 0 01.48-.866c.079-.017 8.023-1.657 15.59-5.809a.65.65 0 01.883.255.663.663 0 01-.256.881c-7.749 4.251-15.879 5.926-15.957 5.944a.646.646 0 01-.736-.408l-.004.003z" fill="#1D28A8"/><path d="M813.697 545.555a.65.65 0 01.06-.575c.075-.114 7.379-11.729 6.657-24.611a.65.65 0 011.299-.075c.747 13.308-6.55 24.895-6.86 25.381a.65.65 0 01-1.156-.12zm-12.238 18.107a.647.647 0 01.384-.834c.107-.039 10.912-3.992 18.625-5.068a.649.649 0 11.178 1.285c-7.578 1.054-18.248 4.958-18.355 5a.648.648 0 01-.832-.38v-.003zm5.196-7.974a.673.673 0 01-.018-.401c.025-.088 2.405-8.95-.95-20.259a.648.648 0 01.442-.806.633.633 0 01.807.44c3.465 11.683 1.057 20.601.954 20.973a.652.652 0 01-1.235.053zm-17.454 29.458a.65.65 0 01.338-.816c.569-.259 14.039-6.391 21.809-8.119a.658.658 0 01.775.493.647.647 0 01-.494.773c-7.635 1.697-21.411 7.971-21.55 8.035a.649.649 0 01-.861-.32c-.007-.014-.01-.028-.017-.046zm5.409-10.099a.651.651 0 01.01-.483c.032-.071 2.975-7.211-1.7-19.695a.648.648 0 011.216-.455c4.878 13.024 1.811 20.36 1.68 20.665a.652.652 0 01-1.206-.032z" fill="#1D28A8"/><path d="M327.405 550.006s2.95-8.134 6.408-11.732c3.458-3.595 8.087-4.78 9.56-1.991 1.469 2.79-2.078 10.167-15.968 13.723zm-5.304 12.737s5.521-8.521 10.534-11.033c5.017-2.513 8.838-3.318 10.89.128 2.053 3.446.218 9.4-21.424 10.905zm-5.509 14.252s6.895-7.456 12.267-9.081c5.372-1.626 9.275-1.768 10.709 1.976 1.434 3.744-1.391 9.302-22.976 7.105zm-8.976 8.978s2.277-11.618.039-20.174-6.76-7.928-9.482-6.097c-2.721 1.831-1.384 10.838 9.443 26.271zm6.378-37.071c-.875-1.807-2.203-3.73-4.206-3.94-2.056-.216-3.878 1.633-4.322 3.649-.441 2.012.16 4.102.879 6.033.946 2.544 6.841 16.416 10.057 13.503 1.946-1.764.95-6.874.648-9.092a33.71 33.71 0 00-3.056-10.153zm25.66-22.404c1.042-1.835 1.978-3.822 1.995-5.93.022-2.108-1.099-4.354-3.091-5.057-2.267-.798-4.832.681-6.063 2.74-1.231 2.058-1.451 4.546-1.643 6.934-.289 3.588-1.879 9.543-.762 12.818 3.818-1.551 7.681-7.977 9.56-11.505h.004zm-12.852 12.344c.029-2.108-.106-4.298-1.106-6.157-.996-1.86-3.063-3.294-5.148-2.953-2.373.387-3.907 2.914-3.996 5.309-.089 2.395.918 4.681 1.9 6.87 1.477 3.287 2.95 9.27 5.508 11.608 2.6-3.19 2.892-10.678 2.842-14.674v-.003z" fill="#69CCB4"/><path d="M303.122 596.039a.477.477 0 00.306-.202c17.796-25.189 30.021-65.712 30.145-66.117a.5.5 0 00-.957-.287c-.121.404-12.302 40.775-30.002 65.829a.491.491 0 00.121.692.514.514 0 00.391.082l-.004.003z" fill="#1D28A8"/><path d="M324.762 553.861l.075-.021a.497.497 0 00.288-.642c-.021-.057-2.213-5.881-2.615-12.489a.503.503 0 00-.53-.468.51.51 0 00-.47.529c.413 6.767 2.658 12.722 2.679 12.782a.507.507 0 00.57.313l.003-.004z" fill="#1D28A8"/><path d="M323.71 556.475a.49.49 0 00.349-.276c.046-.096 4.611-9.6 13.299-14.419a.5.5 0 00-.484-.873c-8.976 4.979-13.527 14.465-13.719 14.866a.498.498 0 00.552.699l.003.003zm-6.769 15.37a.5.5 0 00.384-.593c-.018-.085-1.878-8.712-4.344-14.152a.504.504 0 00-.662-.249.497.497 0 00-.249.66c2.423 5.345 4.262 13.865 4.28 13.951.057.269.32.44.591.383zm3.06-6.641a.499.499 0 00.266-.153c.047-.053 4.843-5.234 13.588-7.701a.498.498 0 00.345-.614.487.487 0 00-.616-.344c-9.033 2.548-13.854 7.772-14.053 7.992a.495.495 0 00.036.703c.124.11.288.149.437.117h-.003zm-12.024 23.403a.499.499 0 00.391-.553c-.064-.476-1.598-11.722-3.665-17.467a.51.51 0 00-.64-.302.498.498 0 00-.302.639c2.027 5.646 3.596 17.148 3.614 17.265a.5.5 0 00.598.422l.004-.004zm4.355-7.652a.498.498 0 00.31-.206c.032-.05 3.476-4.887 13.53-6.984a.498.498 0 10-.203-.976c-10.484 2.186-14.003 7.186-14.149 7.396a.5.5 0 00.132.692.484.484 0 00.384.074l-.004.004z" fill="#1D28A8"/><path d="M250.384 525.826s-6.429-10.838-7.275-18.045c-.847-7.204 2.106-13.489 6.61-12.556 4.504.933 9.524 11.746.669 30.601h-.004zm9.427 17.737s-4.479-14.074-2.668-22.023c1.814-7.95 4.447-12.975 10.228-12.084 5.782.891 10.788 8.464-7.563 34.107h.003zm10.943 19.368s-2.014-14.631 1.131-22.155c3.145-7.523 6.6-12.03 12.143-10.167 5.543 1.859 9.186 10.171-13.278 32.322h.004zm1.802 18.378s-10.976-13.308-22.685-18.73c-11.708-5.419-15.188.23-15.647 4.975-.459 4.741 10.926 11.59 38.332 13.755zm-35.844-41.48c-2.846-.692-6.24-.987-8.328 1.061-2.146 2.104-1.754 5.859.103 8.219 1.857 2.36 4.767 3.62 7.61 4.603 3.743 1.295 24.826 7.537 24.52 1.238-.185-3.811-6.863-7.431-9.638-9.145-4.405-2.718-9.229-4.759-14.263-5.98l-.004.004zm-1.457-49.502c-1.103-2.868-2.473-5.753-4.828-7.729-2.355-1.977-5.924-2.804-8.56-1.221-2.999 1.799-3.707 6.043-2.526 9.329 1.181 3.287 3.775 5.838 6.286 8.266 3.775 3.648 9.005 10.944 13.73 12.725 1.789-5.713-1.872-15.994-4.102-21.37zm2 25.829c-2.348-1.984-4.942-3.861-7.959-4.464-3.017-.604-6.546.379-8.094 3.034-1.761 3.016-.338 7.076 2.277 9.393 2.618 2.318 6.123 3.311 9.496 4.234 5.066 1.388 13.167 5.281 18.173 4.578-1.185-5.866-9.347-13.13-13.893-16.775z" fill="#69CCB4"/><path d="M279.743 595.665a.728.728 0 00.057-.529c-11.883-43.267-46.197-94.5-46.539-95.011a.728.728 0 00-1.21.809c.345.511 34.525 51.553 46.347 94.585a.727.727 0 001.345.146z" fill="#1D28A8"/><path d="M252.276 532.355a.724.724 0 00-.409-1.026c-.086-.028-8.67-2.963-16.487-8.638a.733.733 0 00-1.017.16.742.742 0 00.16 1.015c8.001 5.806 16.789 8.808 16.878 8.837a.725.725 0 00.875-.348z" fill="#1D28A8"/><path d="M254.25 535.954a.722.722 0 00.014-.646c-.064-.139-6.539-14.057-3.92-28.255a.727.727 0 00-.584-.845.726.726 0 00-.847.582c-2.703 14.671 3.761 28.553 4.039 29.139.17.362.604.518.967.344a.746.746 0 00.335-.319h-.004zm11.04 21.824a.726.726 0 00-.31-.98c-.114-.06-11.552-5.961-19.963-8.236a.734.734 0 00-.893.511.728.728 0 00.513.89c8.261 2.236 19.56 8.067 19.671 8.124a.728.728 0 00.978-.306l.004-.003zm-4.649-9.579a.74.74 0 00.074-.44c-.014-.1-1.409-10.274 3.91-22.358a.725.725 0 00-.373-.954c-.367-.16-.801-.015-.957.372-5.497 12.485-4.081 22.72-4.017 23.149a.727.727 0 001.366.231h-.003zm15.22 35.146a.724.724 0 00-.259-.951c-.594-.37-14.683-9.068-23.065-12.073a.738.738 0 00-.929.436.724.724 0 00.438.926c8.236 2.956 22.645 11.853 22.787 11.942a.734.734 0 001.004-.234c.01-.014.017-.032.024-.046zm-4.582-11.969a.713.713 0 00.057-.536c-.025-.081-2.284-8.424 4.668-21.626a.722.722 0 00-.306-.979.728.728 0 00-.982.305c-7.251 13.773-4.878 22.347-4.775 22.705a.726.726 0 00.901.493.724.724 0 00.441-.358l-.004-.004z" fill="#1D28A8"/><path d="M330.664 297.562c-.139.22-1.893-5.494-5.557-6.817 0 0 3.276-.987 5.827 3.69 0 0 4.248-2.558 7.97.167 0 0-6.152-.38-8.24 2.96z" fill="#EFF1F5"/><path d="M291.049 412.014c-.025.213-3.348-3.424-6.539-3.126 0 0 2.092-1.885 5.639.702 0 0 2.259-3.396 5.991-2.672 0 0-4.714 1.874-5.088 5.096h-.003zm100.895-107.796c.028.202-3.903-2.349-6.767-1.309 0 0 1.469-2.233 5.354-.703 0 0 1.263-3.662 4.867-3.893 0 0-3.885 2.853-3.454 5.905z" fill="#F4F4FD"/><path d="M390.183 356.197c3.091-.351 6.247-1.718 8.353-2.807 3.885-2.697 8.521-4.273 13.506-4.273.875 0 1.739.05 2.593.146 1.747-4.93 6.223-8.439 11.474-8.439 2.199 0 4.259.617 6.041 1.692 2.288-1.98 5.205-3.169 8.386-3.169.59 0 1.17.047 1.74.125 2.821-4.067 7.357-6.708 12.477-6.708 1.487 0 2.924.228 4.287.643 3.212-2.005 6.952-3.159 10.947-3.159 10.638 0 19.479 8.145 21.322 18.883.171-.01.345-.021.519-.021 2.818 0 5.472 1.033 7.824 2.853v-.014s4.824 3.634 9.478 4.241c4.653.603 25.367.671 27.16 1.991H359.042c2.052-1.32 25.804-1.384 31.141-1.991v.007z" fill="url(#paint2_linear_248_53890)"/><path d="M232.317 332.166c2.778-.269 5.628-1.469 7.151-2.2a17.196 17.196 0 0111.477-2.225 8.225 8.225 0 017.176-4.198c1.128 0 2.199.227 3.177.635a9.253 9.253 0 018.076-2.949 10.802 10.802 0 018.696-4.386c1.085 0 2.134.163 3.123.458a16.252 16.252 0 0110.144-3.535c5.251 0 9.919 2.481 12.9 6.327a11.548 11.548 0 013.398-.511c5.123 0 9.463 3.35 10.94 7.971a8.707 8.707 0 012.8.639 4.522 4.522 0 011.498.773c.217.135.434.281.647.433v-.007s3.362 2.378 6.607 2.772c3.241.394 17.682.436 18.931 1.302h-140.44c1.566-.862 19.643-.905 23.706-1.302l-.007.003z" fill="url(#paint3_linear_248_53890)"/><path d="M624.268 596.086l-282.54 23.518-4.825-32.216 289.08-24.44-1.715 33.138zM598.492 272.23L340.037 461.908l-21.93-24.998 258.451-189.678 21.934 24.998z" fill="#49B79A"/><path d="M636.127 215.453l-13.698 40.105-13.694 40.104-27.971-31.882-27.971-31.885 41.669-8.219 41.665-8.223z" fill="url(#paint4_linear_248_53890)"/><path d="M523.324 638.572c95.815 0 173.488-4.958 173.488-11.075 0-6.117-77.673-11.076-173.488-11.076-95.814 0-173.487 4.959-173.487 11.076 0 6.117 77.673 11.075 173.487 11.075z" fill="#F4F4FD"/><path d="M478.301 619.778h82.996v-68.044h-82.996v68.044z" fill="url(#paint5_linear_248_53890)"/><path d="M358.491 327.71h322.612c7.147 0 12.95 5.788 12.95 12.917v199.81c0 6.235-5.074 11.296-11.325 11.296H356.861c-6.251 0-11.324-5.061-11.324-11.296v-199.81c0-7.129 5.803-12.917 12.95-12.917h.004z" fill="url(#paint6_linear_248_53890)"/><path d="M354.476 529.837c0 7.133 5.8 12.918 12.951 12.918h304.748c7.151 0 12.95-5.785 12.95-12.918V351.412H354.48v178.425h-.004z" fill="url(#paint7_linear_248_53890)"/><path d="M676.789 335.036h-313.98c-4.6 0-8.333 3.723-8.333 8.311v8.067h330.646v-8.067c0-4.588-3.733-8.311-8.333-8.311z" fill="#1D28A8"/><path d="M369.759 347.157a3.049 3.049 0 003.053-3.045 3.05 3.05 0 00-3.053-3.045 3.05 3.05 0 00-3.052 3.045 3.049 3.049 0 003.052 3.045z" fill="#C9316F"/><path d="M382.59 347.157a3.049 3.049 0 003.052-3.045 3.05 3.05 0 00-3.052-3.045 3.05 3.05 0 00-3.053 3.045 3.049 3.049 0 003.053 3.045z" fill="#E38735"/><path d="M395.415 347.157a3.048 3.048 0 003.052-3.045 3.048 3.048 0 00-3.052-3.045 3.049 3.049 0 00-3.053 3.045 3.049 3.049 0 003.053 3.045z" fill="#69CCB4"/><path d="M683.44 628.469H356.15a3.314 3.314 0 01-3.288-3.766l1.548-9.038a4.193 4.193 0 014.155-3.609h322.459a4.19 4.19 0 014.155 3.609l1.548 9.038a3.313 3.313 0 01-3.287 3.766z" fill="url(#paint8_linear_248_53890)"/><path d="M361.276 611.078h18.042c.864 0 1.569.699 1.569 1.565v4.173h-21.176v-4.173c0-.862.701-1.565 1.569-1.565h-.004z" fill="url(#paint9_linear_248_53890)"/><path d="M384.277 611.078h18.042c.864 0 1.569.699 1.569 1.565v4.173h-21.176v-4.173c0-.862.701-1.565 1.569-1.565h-.004z" fill="url(#paint10_linear_248_53890)"/><path d="M407.27 611.078h18.042c.864 0 1.569.699 1.569 1.565v4.173h-21.176v-4.173c0-.862.701-1.565 1.569-1.565h-.004z" fill="url(#paint11_linear_248_53890)"/><path d="M430.274 611.078h18.042c.864 0 1.569.699 1.569 1.565v4.173h-21.176v-4.173c0-.862.701-1.565 1.569-1.565h-.004z" fill="url(#paint12_linear_248_53890)"/><path d="M453.275 611.078h18.042c.864 0 1.569.699 1.569 1.565v4.173H451.71v-4.173c0-.862.701-1.565 1.569-1.565h-.004z" fill="url(#paint13_linear_248_53890)"/><path d="M476.276 611.078h18.042c.864 0 1.569.699 1.569 1.565v4.173h-21.176v-4.173c0-.862.701-1.565 1.569-1.565h-.004z" fill="url(#paint14_linear_248_53890)"/><path d="M499.277 611.078h18.042c.864 0 1.568.699 1.568 1.565v4.173h-21.175v-4.173c0-.862.701-1.565 1.569-1.565h-.004z" fill="url(#paint15_linear_248_53890)"/><path d="M522.282 611.078h18.042c.864 0 1.569.699 1.569 1.565v4.173h-21.176v-4.173c0-.862.701-1.565 1.569-1.565h-.004z" fill="url(#paint16_linear_248_53890)"/><path d="M545.279 611.078h18.042c.864 0 1.569.699 1.569 1.565v4.173h-21.176v-4.173c0-.862.701-1.565 1.569-1.565h-.004z" fill="url(#paint17_linear_248_53890)"/><path d="M568.279 611.078h18.042c.864 0 1.569.699 1.569 1.565v4.173h-21.176v-4.173c0-.862.701-1.565 1.569-1.565h-.004z" fill="url(#paint18_linear_248_53890)"/><path d="M591.28 611.078h18.042c.864 0 1.569.699 1.569 1.565v4.173h-21.176v-4.173c0-.862.701-1.565 1.569-1.565h-.004z" fill="url(#paint19_linear_248_53890)"/><path d="M614.282 611.078h18.042c.864 0 1.569.699 1.569 1.565v4.173h-21.176v-4.173c0-.862.701-1.565 1.569-1.565h-.004z" fill="url(#paint20_linear_248_53890)"/><path d="M637.278 611.078h18.042c.864 0 1.569.699 1.569 1.565v4.173h-21.176v-4.173c0-.862.701-1.565 1.569-1.565h-.004z" fill="url(#paint21_linear_248_53890)"/><path d="M660.278 611.078h18.042c.864 0 1.569.699 1.569 1.565v4.173h-21.176v-4.173c0-.862.701-1.565 1.569-1.565h-.004z" fill="url(#paint22_linear_248_53890)"/><path d="M359.007 614.462h18.355c.871 0 1.579.706 1.579 1.576v4.159h-21.513v-4.159c0-.87.708-1.576 1.579-1.576z" fill="url(#paint23_linear_248_53890)"/><path d="M382.371 614.462h18.354c.872 0 1.58.706 1.58 1.576v4.159h-21.514v-4.159c0-.87.708-1.576 1.58-1.576z" fill="url(#paint24_linear_248_53890)"/><path d="M405.737 614.462h18.354c.872 0 1.58.706 1.58 1.576v4.159h-21.514v-4.159c0-.87.708-1.576 1.58-1.576z" fill="url(#paint25_linear_248_53890)"/><path d="M429.104 614.462h18.354c.872 0 1.58.706 1.58 1.576v4.159h-21.514v-4.159c0-.87.708-1.576 1.58-1.576z" fill="url(#paint26_linear_248_53890)"/><path d="M452.47 614.462h18.355c.871 0 1.579.706 1.579 1.576v4.159h-21.513v-4.159c0-.87.708-1.576 1.579-1.576z" fill="url(#paint27_linear_248_53890)"/><path d="M475.833 614.462h18.355c.872 0 1.58.706 1.58 1.576v4.159h-21.514v-4.159c0-.87.708-1.576 1.579-1.576z" fill="url(#paint28_linear_248_53890)"/><path d="M499.2 614.462h18.354c.872 0 1.58.706 1.58 1.576v4.159H497.62v-4.159c0-.87.708-1.576 1.58-1.576z" fill="url(#paint29_linear_248_53890)"/><path d="M522.567 614.462h18.354c.872 0 1.58.706 1.58 1.576v4.159h-21.514v-4.159c0-.87.708-1.576 1.58-1.576z" fill="url(#paint30_linear_248_53890)"/><path d="M545.933 614.462h18.355c.871 0 1.579.706 1.579 1.576v4.159h-21.514v-4.159c0-.87.708-1.576 1.58-1.576z" fill="url(#paint31_linear_248_53890)"/><path d="M569.296 614.462h18.355c.872 0 1.58.706 1.58 1.576v4.159h-21.514v-4.159c0-.87.708-1.576 1.579-1.576z" fill="url(#paint32_linear_248_53890)"/><path d="M592.662 614.462h18.354c.872 0 1.58.706 1.58 1.576v4.159h-21.514v-4.159c0-.87.708-1.576 1.58-1.576z" fill="url(#paint33_linear_248_53890)"/><path d="M616.029 614.462h18.354c.872 0 1.58.706 1.58 1.576v4.159h-21.514v-4.159c0-.87.708-1.576 1.58-1.576z" fill="url(#paint34_linear_248_53890)"/><path d="M639.396 614.462h18.354c.872 0 1.58.706 1.58 1.576v4.159h-21.514v-4.159c0-.87.708-1.576 1.58-1.576z" fill="url(#paint35_linear_248_53890)"/><path d="M662.763 614.462h18.355c.871 0 1.579.706 1.579 1.576v4.159h-21.514v-4.159c0-.87.708-1.576 1.58-1.576z" fill="url(#paint36_linear_248_53890)"/><path d="M357.44 618.354h18.582c.879 0 1.59.71 1.59 1.587v4.152h-21.763v-4.152c0-.877.712-1.587 1.591-1.587z" fill="url(#paint37_linear_248_53890)"/><path d="M381.076 618.354h18.582c.879 0 1.59.71 1.59 1.587v4.152h-21.763v-4.152c0-.877.712-1.587 1.591-1.587z" fill="url(#paint38_linear_248_53890)"/><path d="M404.707 618.354h18.583c.878 0 1.59.71 1.59 1.587v4.152h-21.763v-4.152c0-.877.712-1.587 1.59-1.587z" fill="url(#paint39_linear_248_53890)"/><path d="M428.342 618.354h18.582c.879 0 1.591.71 1.591 1.587v4.152h-21.763v-4.152c0-.877.711-1.587 1.59-1.587z" fill="url(#paint40_linear_248_53890)"/><path d="M451.982 618.354h136.69c.879 0 1.59.71 1.59 1.587v4.152H450.395v-4.152c0-.877.712-1.587 1.591-1.587h-.004z" fill="url(#paint41_linear_248_53890)"/><path d="M593.789 618.354h18.583c.878 0 1.59.71 1.59 1.587v4.152h-21.763v-4.152c0-.877.712-1.587 1.59-1.587z" fill="url(#paint42_linear_248_53890)"/><path d="M617.43 618.354h18.582c.879 0 1.591.71 1.591 1.587v4.152H615.84v-4.152c0-.877.711-1.587 1.59-1.587z" fill="url(#paint43_linear_248_53890)"/><path d="M641.061 618.354h18.582c.879 0 1.59.71 1.59 1.587v4.152h-21.762v-4.152c0-.877.711-1.587 1.59-1.587z" fill="url(#paint44_linear_248_53890)"/><path d="M664.696 618.354h18.582c.879 0 1.59.71 1.59 1.587v4.152h-21.763v-4.152c0-.877.712-1.587 1.591-1.587z" fill="url(#paint45_linear_248_53890)"/><path opacity=".13" d="M670.102 429.463h-21.727a3.824 3.824 0 00-3.828 3.818v21.673a3.823 3.823 0 003.828 3.818h21.727a3.823 3.823 0 003.828-3.818v-21.673a3.824 3.824 0 00-3.828-3.818z" fill="#1D1D1B"/><path d="M671.725 427.613h-21.727a3.824 3.824 0 00-3.828 3.819v21.672a3.824 3.824 0 003.828 3.819h21.727a3.823 3.823 0 003.828-3.819v-21.672a3.823 3.823 0 00-3.828-3.819z" fill="url(#paint46_linear_248_53890)"/><path d="M661.546 434.891l1.935 3.914c.11.224.327.38.576.419l4.33.628a.763.763 0 01.424 1.302l-3.135 3.049a.757.757 0 00-.22.674l.74 4.301a.766.766 0 01-1.11.806l-3.875-2.03a.764.764 0 00-.711 0l-3.875 2.03a.765.765 0 01-1.11-.806l.74-4.301a.755.755 0 00-.22-.674l-3.135-3.049a.763.763 0 01.424-1.302l4.329-.628a.763.763 0 00.577-.419l1.935-3.914a.764.764 0 011.37 0h.011z" fill="#fff"/><path opacity=".13" d="M403.175 369.546h205.792V511.67H403.175c-5.589 0-10.129-4.528-10.129-10.103V379.645c0-5.575 4.54-10.103 10.129-10.103v.004z" fill="#1D1D1B"/><path d="M626.794 365.556H408.578c-5.606 0-10.15 4.532-10.15 10.124v122.191c0 5.592 4.544 10.125 10.15 10.125h218.216c5.606 0 10.151-4.533 10.151-10.125V375.68c0-5.592-4.545-10.124-10.151-10.124z" fill="#fff"/><path d="M408.581 507.994h218.216c5.607 0 10.151-4.532 10.151-10.125V383.436c-24.602 11.161-19.892 22.35-43.757 22.35-34.376 0-48.532 51.233-80.075 51.634-31.547.405-34.375-24.202-52.171-25.455-17.796-1.249-31.142 14.965-40.847 29.487-6.269 9.379-15.74 13.372-21.663 15.025v21.389c0 5.593 4.543 10.124 10.15 10.124l-.004.004z" fill="url(#paint47_linear_248_53890)"/><path d="M398.427 477.6v-2.147c6.354-1.774 14.91-5.675 20.838-14.546 9.766-14.611 23.335-31.219 41.739-29.927 7.796.546 12.883 5.405 18.273 10.547 7.432 7.094 15.878 15.132 33.813 14.905 14.957-.192 25.858-12.098 37.396-24.707 12.118-13.24 24.648-26.932 42.693-26.932 13.527 0 17.455-3.548 23.403-8.921 4.252-3.84 9.951-8.787 20.358-13.507v2.154c-10.126 4.596-14.879 9.071-19.027 12.818-6.063 5.476-10.442 9.433-24.73 9.433-17.17 0-29.402 13.365-41.231 26.286-11.314 12.364-23.015 25.146-38.833 25.349-18.768.241-27.502-8.095-35.208-15.452-5.347-5.103-9.965-9.507-17.045-10.004-17.384-1.22-30.487 14.884-39.954 29.051-6.265 9.375-15.807 13.733-22.485 15.596v.004z" fill="#3036BC"/><path d="M462.197 382.05h-46.102a4.04 4.04 0 00-4.045 4.033 4.039 4.039 0 004.045 4.033h46.102a4.039 4.039 0 004.045-4.033 4.04 4.04 0 00-4.045-4.033zm-21.233 14.519h-27.093a1.818 1.818 0 00-1.821 1.816c0 1.002.815 1.815 1.821 1.815h27.093a1.818 1.818 0 001.821-1.815 1.818 1.818 0 00-1.821-1.816z" fill="#1D1D1B"/><path d="M427.197 493.985h-10.609a1.883 1.883 0 00-1.886 1.88v.004c0 1.039.844 1.881 1.886 1.881h10.609a1.884 1.884 0 001.886-1.881v-.004c0-1.038-.845-1.88-1.886-1.88zm32.356 0h-10.61a1.883 1.883 0 00-1.885 1.88v.004c0 1.039.844 1.881 1.885 1.881h10.61a1.883 1.883 0 001.885-1.881v-.004c0-1.038-.844-1.88-1.885-1.88zm32.35 0h-10.609a1.883 1.883 0 00-1.886 1.88v.004c0 1.039.844 1.881 1.886 1.881h10.609a1.884 1.884 0 001.886-1.881v-.004c0-1.038-.845-1.88-1.886-1.88zm32.352 0h-10.61a1.883 1.883 0 00-1.885 1.88v.004c0 1.039.844 1.881 1.885 1.881h10.61a1.883 1.883 0 001.885-1.881v-.004c0-1.038-.844-1.88-1.885-1.88zm32.354 0H546a1.883 1.883 0 00-1.886 1.88v.004c0 1.039.844 1.881 1.886 1.881h10.609a1.883 1.883 0 001.886-1.881v-.004c0-1.038-.844-1.88-1.886-1.88zm32.359 0h-10.61a1.883 1.883 0 00-1.885 1.88v.004c0 1.039.844 1.881 1.885 1.881h10.61a1.883 1.883 0 001.885-1.881v-.004c0-1.038-.844-1.88-1.885-1.88zm32.355 0h-10.609a1.883 1.883 0 00-1.886 1.88v.004c0 1.039.844 1.881 1.886 1.881h10.609a1.884 1.884 0 001.886-1.881v-.004c0-1.038-.845-1.88-1.886-1.88z" fill="#DADADA"/><path d="M422.382 492.316a.492.492 0 01-.494-.493v-5.724a.493.493 0 11.989 0v5.724a.493.493 0 01-.495.493zm32.277 0a.493.493 0 01-.495-.493v-5.724a.493.493 0 11.989 0v5.724c0 .273-.22.493-.494.493zm32.269 0a.492.492 0 01-.494-.493v-5.724a.493.493 0 11.989 0v5.724a.493.493 0 01-.495.493zm32.276 0a.493.493 0 01-.494-.493v-5.724a.493.493 0 11.989 0v5.724a.493.493 0 01-.495.493zm32.27 0a.493.493 0 01-.495-.493v-5.724c0-.274.221-.494.495-.494s.495.22.495.494v5.724a.493.493 0 01-.495.493zm32.276 0a.492.492 0 01-.494-.493v-5.724a.493.493 0 11.989 0v5.724a.493.493 0 01-.495.493zm32.264 0a.492.492 0 01-.494-.493v-5.724a.493.493 0 11.989 0v5.724a.493.493 0 01-.495.493z" fill="#3036BC"/><path opacity=".13" d="M431.736 266.653h-84.764a3.937 3.937 0 00-3.942 3.932v47.465a3.937 3.937 0 003.942 3.932h84.764a3.937 3.937 0 003.942-3.932v-47.465a3.937 3.937 0 00-3.942-3.932z" fill="#1D1D1B"/><path d="M433.759 264.792h-84.763a3.936 3.936 0 00-3.942 3.932v47.465a3.937 3.937 0 003.942 3.932h84.763a3.937 3.937 0 003.942-3.932v-47.465a3.936 3.936 0 00-3.942-3.932z" fill="#fff"/><path d="M362.301 300.201a3.344 3.344 0 00-3.348-3.34 3.344 3.344 0 00-3.348 3.34v4.141a3.344 3.344 0 003.348 3.339 3.344 3.344 0 003.348-3.339v-4.141z" fill="url(#paint48_linear_248_53890)"/><path d="M375.19 295.934a3.344 3.344 0 00-3.348-3.339 3.344 3.344 0 00-3.348 3.339v8.404a3.344 3.344 0 003.348 3.339 3.344 3.344 0 003.348-3.339v-8.404z" fill="url(#paint49_linear_248_53890)"/><path d="M400.964 295.934a3.344 3.344 0 00-3.348-3.339 3.344 3.344 0 00-3.348 3.339v8.404a3.344 3.344 0 003.348 3.339 3.344 3.344 0 003.348-3.339v-8.404z" fill="url(#paint50_linear_248_53890)"/><path d="M413.857 291.14a3.344 3.344 0 00-3.348-3.339 3.344 3.344 0 00-3.348 3.339v13.198a3.344 3.344 0 003.348 3.339 3.344 3.344 0 003.348-3.339V291.14z" fill="url(#paint51_linear_248_53890)"/><path d="M426.742 282.502a3.344 3.344 0 00-3.348-3.339 3.343 3.343 0 00-3.347 3.339v21.836a3.343 3.343 0 003.347 3.339 3.344 3.344 0 003.348-3.339v-21.836z" fill="url(#paint52_linear_248_53890)"/><path d="M388.075 287.864a3.344 3.344 0 00-3.348-3.34 3.344 3.344 0 00-3.347 3.34v16.476a3.344 3.344 0 003.347 3.34 3.344 3.344 0 003.348-3.34v-16.476z" fill="url(#paint53_linear_248_53890)"/><path d="M375.084 272.249h-17.906a1.57 1.57 0 00-1.573 1.567 1.57 1.57 0 001.573 1.566h17.906a1.57 1.57 0 001.573-1.566 1.57 1.57 0 00-1.573-1.567zm-8.247 5.642h-10.524a.706.706 0 00-.708.704c0 .389.317.704.708.704h10.524a.706.706 0 00.708-.704.706.706 0 00-.708-.704z" fill="#1D1D1B"/><path opacity=".13" d="M722.665 472.072h-76.926a3.575 3.575 0 00-3.579 3.57v43.075a3.575 3.575 0 003.579 3.57h76.926a3.575 3.575 0 003.58-3.57v-43.075a3.576 3.576 0 00-3.58-3.57z" fill="#1D1D1B"/><path d="M724.505 470.382h-76.926a3.574 3.574 0 00-3.579 3.57v43.075a3.574 3.574 0 003.579 3.57h76.926a3.574 3.574 0 003.579-3.57v-43.075a3.574 3.574 0 00-3.579-3.57z" fill="#fff"/><path d="M671.255 477.154h-16.252c-.788 0-1.427.637-1.427 1.422 0 .785.639 1.421 1.427 1.421h16.252c.788 0 1.426-.636 1.426-1.421s-.638-1.422-1.426-1.422zm-5.381 5.117h-11.655a.64.64 0 00-.641.639v.004a.64.64 0 00.641.639h11.655a.64.64 0 00.64-.639v-.004a.64.64 0 00-.64-.639zm0 2.955h-11.655a.64.64 0 00-.641.638v.004a.64.64 0 00.641.639h11.655a.64.64 0 00.64-.639v-.004a.64.64 0 00-.64-.638zm-2.099 2.948h-9.556a.64.64 0 00-.641.639v.003a.64.64 0 00.641.639h9.556a.64.64 0 00.64-.639v-.003a.64.64 0 00-.64-.639zm2.099 16.77h-11.655a.64.64 0 00-.641.639v.004a.64.64 0 00.641.638h11.655a.64.64 0 00.64-.638v-.004a.64.64 0 00-.64-.639zm0 2.949h-11.655a.64.64 0 00-.641.638v.004a.64.64 0 00.641.639h11.655a.64.64 0 00.64-.639v-.004a.64.64 0 00-.64-.638zm-2.099 2.953h-9.556a.64.64 0 00-.641.638v.004a.64.64 0 00.641.639h9.556a.64.64 0 00.64-.639v-.004a.64.64 0 00-.64-.638zm0-17.006h-9.556a.64.64 0 00-.641.639v.003a.64.64 0 00.641.639h9.556a.64.64 0 00.64-.639v-.003a.64.64 0 00-.64-.639zm1.281 2.948h-10.837a.64.64 0 00-.641.639v.003a.64.64 0 00.641.639h10.837a.64.64 0 00.64-.639v-.003a.64.64 0 00-.64-.639zm-4.483 2.954h-6.354a.64.64 0 00-.641.639v.004a.64.64 0 00.641.638h6.354a.64.64 0 00.64-.638v-.004a.64.64 0 00-.64-.639z" fill="#1D1D1B"/><path d="M698.535 483.671c-8.051 0-14.576 6.508-14.576 14.539 0 8.031 6.525 14.539 14.576 14.539s14.576-6.508 14.576-14.539h-14.576v-14.539z" fill="url(#paint54_linear_248_53890)"/><path d="M699.797 481.611v14.539h14.576c0-8.03-6.525-14.539-14.576-14.539z" fill="url(#paint55_linear_248_53890)"/><path d="M624.43 596.234L329.914 474.987l-12.107-38.774 308.337 126.882-1.714 33.139z" fill="#69CCB4"/><path d="M288.773 665.281c41.012 0 74.258-4.387 74.258-9.798 0-5.412-33.246-9.798-74.258-9.798-41.011 0-74.257 4.386-74.257 9.798 0 5.411 33.246 9.798 74.257 9.798z" fill="#F4F4FD"/><path d="M270.045 306.874s-2.782 12.495-.544 23.102c2.234 10.607-5.155 25.352-12.598 33.213-7.447 7.86-14.409 23.088 7.596 32.24 18.276 7.602 48.713-1.401 50.371-17.69 1.661-16.289-6.991-31.538-4.711-48.899 2.281-17.357 6.087-29.213-11.588-35.413-17.675-6.199-28.526 13.447-28.526 13.447z" fill="#1D1D1B"/><path d="M306.714 352.154s29.131-23.503 31.799-26.413c2.669-2.91 15.573-58.367 15.573-58.367l14.971 1.707s-11.723 42.663-14.011 55.907c-1.867 10.831-22.919 30.843-22.919 30.843s-8.414 12.701-20.343 8.155c-11.929-4.546-5.073-11.835-5.073-11.835l.003.003z" fill="url(#paint56_linear_248_53890)"/><path d="M356.875 262.746c-.039-1.774-.8-2.914-.8-2.914l-.566-4.734s.516-7.988 1.078-8.999c.655-1.179 1.861-1.949 3.192-2.176 3.678-.621 8.311-.298 11.281 1.888 2.139 1.572 1.982 6.438-.227 13.606-1.644 5.33-1.406 7.811-1.406 7.811l-12.897-1.515s.395-.941.353-2.96l-.008-.007z" fill="#EFA8A8"/><path d="M354.379 269.476l14.728 1.804a1.58 1.58 0 001.761-1.372l.503-4.09a1.576 1.576 0 00-1.375-1.756l-14.729-1.803a1.577 1.577 0 00-1.76 1.371l-.504 4.09c-.106.864.51 1.65 1.376 1.756z" fill="#E5CD34"/><path d="M355.935 258.665s-.839-1.7-1.174-3.623c-.334-1.924-1.153-5.991 2.423-5.835 3.576.157-1.252 9.458-1.252 9.458h.003zm-60.801 375.191l-.576 9.716 12.21.721 1.722-10.473-13.356.036z" fill="#EFA8A8"/><path d="M294.68 641.522s1.548 2.431 12.335 1.278c0 0 17.021 4.298 19.885 4.741 2.864.444 4.187 1.345 4.486 3.286.299 1.941-.278 4.653-.278 4.653l-39.388-1.225s-.345-10.458 2.957-12.733h.003z" fill="#686863"/><path d="M314.124 546.316c1.761-11.882 6.433-53.168 6.433-53.168l5.681-33.181-21.656-4.706-1.818 18.571c-3.397 17.552-1.426 78.804-1.426 78.804-9.286 43.661-7.383 85.238-7.383 85.238l6.433-.156c.249-7.623.964-23.869 2.814-36.173 2.497-16.626 9.158-43.344 10.919-55.226l.003-.003z" fill="#1D28A8"/><path d="M323.714 548.779c2.067-10.479 8.379-40.832 11.353-64.243 1.918-15.118 1.21-28.234 1.21-28.234l-10.713-.352-5.013 37.199s-4.671 41.286-6.432 53.167c-1.761 11.881-8.421 38.6-10.919 55.226-1.85 12.304-2.565 28.55-2.814 36.173l8.684-.188s11.239-71.494 14.644-88.741v-.007z" fill="url(#paint57_linear_248_53890)"/><path d="M257.278 626.886l-3.767 8.453 10.62 4.709 5.041-8.741-11.894-4.421z" fill="#EFA8A8"/><path d="M254.774 632.847s.598 2.842 11.2 5.578c0 0 2.935 2.094 7.592 4.319 3.711 1.771 10.343 4.844 11.599 7.47.854 1.789-.05 4.369-.05 4.369l-17.184-.618c-2.028-.301-4.308-1.799-6.134-2.739l-14.352-7.396s3.398-10 7.329-10.983z" fill="#686863"/><path d="M286.219 450.313s-11.875-1.697-4.838 46.726c5.12 35.218 4.614 49.747 4.614 49.747l-30.237 82.612 13.363 4.95s35.076-62.873 40.498-84.84c2.868-11.615 7.347-35.985 10.933-56.372l6.376-37.142-40.712-5.678.003-.003z" fill="url(#paint58_linear_248_53890)"/><path d="M322.133 489.299c2.896-16.473 5.148-30.079 5.148-30.079l-5.148 30.079z" fill="#1D28A8"/><path d="M327.289 415.501c.003-9.376.477-26.378 1.128-30.338 3.308-20.196-9.126-34.225-19.725-39.09l-23.04-2.168c-4.607 1.22-7.855 2.768-10.139 4.613-1.487-.209-3.8-.951-6.262-3.332-7.158-6.935-16.636-20.505-18.44-22.897-2.853-3.783-13.174-57.497-13.174-57.497l-15.555 2.754s3.967 32.876 9.094 51.077c.003.022 1.092 4.951 3.276 9.465 2.188 4.521 18.725 28.979 26.129 36.609 5.148 5.305 11.029 17.318 14.761 26.3 1.551 7.097 2.928 14.823 3.241 22.641.74 18.297-.953 48.139-.953 48.139l10.011-.93s39.801.33 49.037-4.053c0 0-7.475-21.058-9.389-41.297v.004z" fill="url(#paint59_linear_248_53890)"/><path d="M235.494 263.424c-.057-1.775.644-2.953.644-2.953l.313-4.755s-.943-7.949-1.562-8.932c-.719-1.143-1.964-1.849-3.305-2.002-3.708-.426-8.315.146-11.161 2.488-2.049 1.685-1.63 6.533.96 13.574 1.929 5.238 1.826 7.722 1.826 7.722l12.797-2.204s-.445-.919-.509-2.938h-.003z" fill="#EFA8A8"/><path d="M237.091 262.868l-14.611 2.588a1.575 1.575 0 00-1.279 1.827l.722 4.057a1.58 1.58 0 001.832 1.275l14.61-2.588a1.577 1.577 0 001.28-1.827l-.723-4.056a1.579 1.579 0 00-1.831-1.276z" fill="#F0AD30"/><path d="M236.213 259.297s.747-1.743.975-3.684c.227-1.937.829-6.043-2.733-5.695-3.561.347 1.758 9.379 1.758 9.379zm67.241 97.416c-5.351 3.013-14.769-4.525-15.416-11.803-.648-7.275.334-6.867.946-18.007 0 0 12.474 2.917 16.359 2.96 0 0-1.708 11.356-.537 15.249 1.17 3.889 3.29 8.989-1.352 11.601z" fill="#EFA8A8"/><path d="M304.756 334.755s-10.773-.44-14.541-4.123c0 0-.167 4.446 14.37 6.047l.167-1.924h.004z" fill="#D89595"/><path d="M307.782 299.881s-24.236-16.87-33.561-.55c0 0-6.172 5.323-4.731 18.326 1.469 13.269 12.861 19.962 16.362 16.225 2.245-2.399 2.622-.326 2.622-.326l.405-4.837 18.903-28.838z" fill="#1D1D1B"/><path d="M288.874 328.72s-7.083.234-10.897-4.706c-2.725-3.527-8.275-18.968 7.325-24.443 0 0 4.433-1.778 9.791-1.172 4.263.483 11.207 2.701 12.695 17.918l.9 4.933-19.814 7.467v.003z" fill="#1D1D1B"/><path d="M311.939 332.996s-19.482 7.278-23.463-5.366c-3.839-12.193-9.265-19.426 2.967-24.259 12.231-4.834 16.469-1.164 18.529 2.715 2.319 4.372 2.302 6.394 2.636 10.028.157 1.69 1.156 3.191 1.167 5.561.025 5.632.487 10.349-1.832 11.321h-.004z" fill="#EFA8A8"/><path d="M299.342 299.577s-.651 16.626-8.453 21.627c-7.803 5-12.257 3.942-12.257 3.942s4.821-7.342 3.177-16.835c0 0 11.004-14.39 17.529-8.734h.004z" fill="#1D1D1B"/><path d="M298.363 301.231s4.398.266 7.998 3.141c2.775 2.214 4.533 3.68 5.938 9.116 0 0 .818-10.404-5.774-14.542-6.988-4.387-8.162 2.285-8.162 2.285z" fill="#1D1D1B"/><path d="M752.648 653.491c41.012 0 74.258-4.387 74.258-9.798 0-5.412-33.246-9.798-74.258-9.798-41.011 0-74.257 4.386-74.257 9.798 0 5.411 33.246 9.798 74.257 9.798z" fill="#F4F4FD"/><path d="M746.673 613.755s-1.014 12.275 0 17.371c0 0-3.333 2.552-12.594-3.886 0 0-1.338-5.663.082-13.176 0 0 5.685-11.243 12.509-.309h.003z" fill="#EFA8A8"/><path d="M744.714 628.321s2.914.035 3.903 4.702c.989 4.666 1.078 7.509 1.078 7.509s-11.78 0-18.625 1.128c-6.842 1.132-14.893 1.849-26.392-3.804 0 0-1.96-4.184 1.473-4.606 3.433-.422 10.858.06 14.139-1.977 3.28-2.037 7.571-4.94 9.385-6.011 1.815-1.072 2.811-3.198 4.006-1.328 1.199 1.871 1.687 7.233 11.033 4.387z" fill="url(#paint60_linear_248_53890)"/><path d="M730.056 631.482a.533.533 0 01-.779-.167l-2.017-3.254a.644.644 0 01.153-.848.533.533 0 01.779.167l2.017 3.254c.174.28.103.66-.153.848zm-1.338.973a.534.534 0 01-.779-.167l-2.017-3.254a.646.646 0 01.153-.849.534.534 0 01.779.167l2.017 3.254a.646.646 0 01-.153.849zm-1.336.972a.533.533 0 01-.779-.167l-2.017-3.254a.645.645 0 01.153-.848.534.534 0 01.779.167l2.017 3.254c.175.28.103.66-.153.848z" fill="#fff"/><path d="M749.69 640.53l.288 4.645s-17.394-.12-22.734-.177c-5.34-.057-10.524.082-14.718-1.327-4.198-1.409-7.585-2.204-7.852-5.817 0 0 7.283 4.819 17.753 4.557 10.471-.266 8.667-1.941 19.87-1.778 7.98.117 7.393-.103 7.393-.103z" fill="#EAF0FF"/><path d="M795.994 607.922s1.96 12.14 4.159 16.775c0 0-2.608 3.407-13.089-.199 0 0-2.647-5.092-3.074-12.747 0 0 2.797-12.46 12.008-3.825l-.004-.004z" fill="#EFA8A8"/><path d="M797.589 622.539s2.822-.788 4.892 3.439c2.071 4.226 2.839 6.948 2.839 6.948s-11.377 3.322-17.714 6.345c-6.336 3.024-13.939 5.987-26.395 3.773 0 0-2.892-3.489.32-4.866 3.213-1.377 10.499-3.005 13.182-5.898 2.683-2.892 6.13-6.906 7.624-8.453 1.495-1.544 1.946-3.882 3.551-2.413 1.604 1.469 3.362 6.508 11.701 1.121v.004z" fill="url(#paint61_linear_248_53890)"/><path d="M784.189 629.733a.533.533 0 01-.794.06l-2.725-2.576a.645.645 0 01-.053-.863.532.532 0 01.793-.06l2.725 2.576c.235.22.26.607.054.863zm-1.053 1.312a.533.533 0 01-.794.061l-2.725-2.577a.644.644 0 01-.053-.862.53.53 0 01.793-.06l2.725 2.576c.235.22.26.607.054.862zm-1.053 1.318a.532.532 0 01-.793.06l-2.726-2.576a.647.647 0 01-.053-.863.532.532 0 01.793-.06l2.726 2.576c.235.22.259.607.053.863z" fill="#fff"/><path d="M805.326 632.928l1.392 4.404s-16.825 4.79-21.995 6.242c-5.173 1.455-10.139 3.048-14.53 2.871-4.39-.178-7.852.014-8.972-3.4 0 0 8.186 2.601 18.233-.61 10.047-3.212 7.902-4.319 18.76-7.321 7.735-2.14 7.116-2.186 7.116-2.186h-.004z" fill="#EAF0FF"/><path d="M732.314 425.21s-7.984 94.16-7.368 108.429c.615 14.27 6.781 86.682 6.781 86.682s7.357-1.341 16.312 1.267c0 0 2.936-68.746 2.818-87.952 0 0 8.343-49.992 8.343-108.5 0 0-13.637 0-26.882.067l-.004.007z" fill="url(#paint62_linear_248_53890)"/><path d="M788.107 422.69s5.405 19.944 2.338 37.39c-5.063 28.795-6.486 62.579-6.486 62.579l14.623 92.509s-6.358.146-15.601 3.865c0 0-24.688-77.083-24.688-91.164 0-14.082-7.378-44.339-9.78-60.812-2.401-16.47-8.062-41.602-8.062-41.602s37.118-.284 47.656-2.765z" fill="url(#paint63_linear_248_53890)"/><path d="M754.965 501.897l-5.504-29.029 4.198 40.506 1.306-11.477z" fill="#1D1D1B"/><path d="M711.32 333.201s7.166-6.203 8.813-17.744l-25.459-6.601s-6.376-25.547-17.16-51.833l-9.904 2.03s6.574 30.314 10.342 45.935c2.078 8.61 2.811 16.892 9.435 19.717 6.625 2.825 23.933 8.492 23.933 8.492v.004z" fill="#EFA8A8"/><path d="M719.021 315.185s-6.632 11.694-12.15 16.534l1.327.444s6.301-5.089 10.826-16.978h-.003z" fill="#D89595"/><path d="M750.767 340.308s-8.717 9.717-43.896-7.434c0 0 7.667-5.803 12.196-18.198 0 0 11.726 1.025 22.35 4.347 7.55 2.36 9.35 21.285 9.35 21.285z" fill="#E15CA7"/><path d="M677.514 257.02s-.925-2.558.299-4.411c1.224-1.852 2.825-2.981 1.814-6.774-1.01-3.794-2.494-1.321-2.494-1.321s-.967-3.233-2.405-4.652c-1.437-1.42-5.205-1.334-7.706.436-2.501 1.771-6.842 4.153.587 18.752l9.905-2.03z" fill="#EFA8A8"/><path d="M789.973 433.026s5.763-58.324.459-84.613c-5.305-26.289-9.037-31.311-12.812-33.507-3.775-2.197-27.69-1.569-45.308 1.568-17.622 3.137-19.507 26.364-19.507 26.364s5.034-.628 11.957 2.041c0 0 7.806 57.88 5.07 88.147 0 0 46.141 3.609 60.141 0z" fill="url(#paint64_linear_248_53890)"/><path d="M764.722 313.606s-3.775 13.149-16.519 13.383c-12.744.234-15.889-10.515-15.889-10.515s8.575-3.78 32.408-2.871v.003z" fill="#EFA8A8"/><path d="M717.201 274.325s-2.59 7.382.569 16.623c0 0-2.102 6.944-1.928 8.098.175 1.153 4.173 1.103 4.173 1.103s1.666 6.19 2.398 8.624c.733 2.431 1.31 4.432 4.451 4.141 3.142-.291 8.937-1.707 10.851.728.249.316 3.014 8.861 8.906 6.789 1.362-.479 21.118-6.967 16.835-6.967-5.287 0-12.78-15.213-10.656-23.432 2.124-8.219 1.018-19.131-6.745-22.322-7.767-3.19-26.146-3.144-28.857 6.615h.003z" fill="#EFA8A8"/><path d="M752.021 294.507c-.811-3.872-6.059.277-6.059.277s.192 4.564-1.573 7.048c-.679.954-6.809 7.928-15.586 10.699 0 0 6.759-.663 15.778-5.827 4.259-2.438 8.13-8.904 7.44-12.197z" fill="#D89595"/><path d="M743.503 289.343s-5.127.408-4.977-4.606c0 0-3.231 2.122-5.661-2.509-2.43-4.628-5.418-7.538-11.737-6.587-6.318.951-5.867-1.476-6.084-2.899-.213-1.42.819-4.209 4.152-4.44 3.334-.23 1.879-3.825 4.544-4.861 2.664-1.037 6.172-.114 8.222-.423 2.045-.308 3.721-2.466 6.393-2.871 2.672-.401 6.045 1.452 7.621 4.028 1.572 2.577 2.124 4.401 5.368 4.188 3.245-.217 5.454.539 6.337 2.768.882 2.228-.459 2.974-.338 3.772.121.799 2.398 2.002 2.59 3.879.192 1.877-1.53 4.315-3.216 5.206 0 0 1.145 1.554.764 3.244-.38 1.692-2.935 2.257-2.878 3.247.061.99.331 4.581-2.636 4.847s-6.002-.55-6.002-.55 5.155-5.043 4.358-9.099c-.797-4.056-4.646-3.023-5.482-2.534-.836.49-2.722 1.864-2.509 3.283.214 1.42 1.171 2.91 1.171 2.91v.007z" fill="#1D1D1B"/><path d="M681.664 395.047l99.378-20.348a3.47 3.47 0 014.095 2.693l-102.775 21.044-.698-3.389z" fill="url(#paint65_linear_248_53890)"/><path d="M750.226 384.513l-22.14-46.833a2.745 2.745 0 00-3.028-1.512l-65.716 13.457a1.909 1.909 0 00-1.345 2.687l20.611 43.412a4.452 4.452 0 004.916 2.449l66.702-13.66z" fill="url(#paint66_linear_248_53890)"/><path d="M701.565 370.341c1.46-.497 2.058-2.609 1.337-4.718-.722-2.109-2.491-3.416-3.95-2.919-1.46.497-2.058 2.61-1.337 4.719.722 2.109 2.491 3.415 3.95 2.918z" fill="#fff"/><path d="M805.416 341.613s-8.873 1.671-15.778 10.366l13.291 12.786s-24.47 14.074-42.771 16.214l.882 10.118s44.828-8.148 56.192-12.283c11.363-4.134 7.859-13.276 3.771-18.769-4.088-5.49-15.59-18.436-15.59-18.436l.003.004z" fill="#EFA8A8"/><path d="M761.614 380.787s-2.654.621-4.358-.806c-1.704-1.427-2.644-3.144-6.539-2.58-3.896.564-1.601 2.317-1.601 2.317s-3.33.586-4.91 1.846c-1.58 1.263-1.932 5.003-.455 7.686 1.473 2.683 3.347 7.258 18.742 1.583l-.879-10.046z" fill="#EFA8A8"/><path d="M790.43 352.738s11.075-6.438 17.938-7.775l-.875-1.001s-7.628 1.167-17.063 8.776z" fill="#D89595"/><path d="M772.578 314.8s13.37-5.259 36.292 29.047c0 0-9.641.855-21.065 11.143 0 0-16.334-18.368-19.127-26.222-2.789-7.853 3.9-13.968 3.9-13.968z" fill="url(#paint67_linear_248_53890)"/><g opacity=".2" fill="#1D1D1B"><path d="M789.402 353.599l-1.597 1.391s-6.354-5.671-9.908-11.938c0 0 8.328 8.258 11.505 10.547z"/><path d="M790.434 352.74s-1.939 1.327-2.629 2.25c0 0 1.209.103 3.593-1.324l-.964-.926z"/></g><path opacity=".2" d="M808.869 343.846s-.032.525-.498 1.118l-.875-1.001 1.373-.12v.003z" fill="#1D1D1B"/><path d="M55.998 152.27c-2.76 0-4.998-2.256-4.998-5.039 0-2.782 2.238-5.038 4.998-5.038 2.76 0 4.998 2.256 4.998 5.038 0 2.783-2.238 5.039-4.998 5.039z" fill="url(#paint68_linear_248_53890)"/><path d="M92.312 118.073v8.201h-1.636v-8.201c0-.594.365-1.073.814-1.073.45 0 .815.479.815 1.073h.007zm-.001 35.854c0 .594-.365 1.073-.814 1.073-.449 0-.814-.479-.814-1.073v-7.706h1.636v7.706h-.008zM109 136.001c0 .487-.441.883-.989.883h-7.559v-1.774h7.559c.548 0 .989.396.989.883v.008zm-34.02-.891h7.102v1.774H74.98c-.547 0-.988-.396-.988-.883 0-.486.44-.883.988-.883v-.008zm28.769-11.15l-5.346 5.801-1.156-1.255 5.346-5.8c.388-.421.959-.479 1.278-.132.32.346.266.965-.122 1.386zm-23.354 25.338c-.388.42-.958.478-1.277.132-.32-.347-.267-.966.12-1.387l5.028-5.454 1.156 1.254-5.027 5.455zm23.476.129c-.319.346-.89.289-1.278-.132l-5.346-5.801 1.156-1.254 5.346 5.8c.388.421.442 1.04.122 1.387zm-23.476-26.721l5.027 5.454-1.156 1.254-5.027-5.454c-.388-.421-.44-1.04-.121-1.386.319-.347.89-.289 1.277.132z" fill="#38CCF0"/><path d="M408 193a4 4 0 110-8 4 4 0 010 8z" fill="url(#paint69_linear_248_53890)"/><path d="M415 219c-5.523 0-10-4.477-10-10s4.477-10 10-10 10 4.477 10 10-4.477 10-10 10z" fill="url(#paint70_linear_248_53890)"/><path d="M155.995 565c-5.52 0-9.995-4.477-9.995-10s4.475-10 9.995-10c5.519 0 9.994 4.477 9.994 10s-4.475 10-9.994 10z" fill="url(#paint71_linear_248_53890)"/><path d="M176.314 503.064v8.139h-1.636v-8.139c0-.589.365-1.064.814-1.064.449 0 .814.475.814 1.064h.008zm-.001 35.581c0 .589-.365 1.064-.814 1.064-.449 0-.814-.475-.814-1.064v-7.648h1.636v7.648h-.008zM193 520.856c0 .483-.442.876-.989.876h-7.559v-1.76h7.559c.547 0 .989.393.989.876v.008zm-34.018-.884h7.103v1.76h-7.103c-.547 0-.988-.393-.988-.876s.441-.876.988-.876v-.008zm28.767-11.065l-5.346 5.756-1.155-1.245 5.345-5.756c.388-.418.959-.475 1.278-.131.32.344.266.958-.122 1.376zm-23.352 25.144c-.388.417-.958.474-1.278.131-.319-.344-.266-.958.121-1.376l5.027-5.412 1.157 1.244-5.027 5.413zm23.474.127c-.319.344-.89.287-1.278-.131l-5.345-5.756 1.155-1.244 5.346 5.756c.388.417.442 1.032.122 1.375zm-23.474-26.516l5.027 5.412-1.157 1.245-5.027-5.412c-.387-.418-.44-1.032-.121-1.376.32-.344.89-.287 1.278.131z" fill="#38CCF0"/><path d="M726 726c-7.732 0-14-6.268-14-14s6.268-14 14-14 14 6.268 14 14-6.268 14-14 14z" fill="url(#paint72_linear_248_53890)"/><path d="M725.09 698c-3.614 0-6.887 1.566-9.258 4.101-2.367 2.534-3.832 6.034-3.832 9.899h14v-13.964a12.471 12.471 0 00-.91-.034V698z" fill="#37A9E6" fill-opacity=".7"/><path d="M703.5 738a7.5 7.5 0 110-15 7.5 7.5 0 010 15z" fill="url(#paint73_linear_248_53890)"/><path d="M743.311 148.073v8.201h-1.637v-8.201c0-.594.366-1.073.815-1.073.449 0 .814.479.814 1.073h.008zm-.001 35.854c0 .594-.366 1.073-.814 1.073-.449 0-.814-.479-.814-1.073v-7.706h1.635v7.706h-.007zM760 166.001c0 .487-.442.883-.989.883h-7.56v-1.774h7.56c.547 0 .989.396.989.883v.008zm-34.024-.891h7.104v1.774h-7.104c-.547 0-.988-.396-.988-.883 0-.486.441-.883.988-.883v-.008zm28.773-11.15l-5.347 5.801-1.156-1.255 5.346-5.8c.388-.421.959-.479 1.279-.132.319.346.266.965-.122 1.386zm-23.357 25.338c-.388.42-.958.478-1.277.132-.32-.347-.267-.966.121-1.387l5.027-5.454 1.157 1.254-5.028 5.455zm23.479.129c-.32.346-.891.289-1.279-.132l-5.346-5.801 1.156-1.254 5.347 5.8c.388.421.441 1.04.122 1.387zm-23.479-26.721l5.028 5.454-1.156 1.254-5.028-5.454c-.388-.421-.441-1.04-.121-1.386.319-.347.889-.289 1.277.132z" fill="#38CCF0"/><path d="M709.993 158.085c-1.656 0-2.999-1.354-2.999-3.023 0-1.67 1.343-3.023 2.999-3.023 1.657 0 2.999 1.353 2.999 3.023 0 1.669-1.342 3.023-2.999 3.023z" fill="url(#paint74_linear_248_53890)"/><path d="M700.497 176.224c-4.141 0-7.497-3.384-7.497-7.558 0-4.174 3.356-7.558 7.497-7.558 4.14 0 7.497 3.384 7.497 7.558 0 4.174-3.357 7.558-7.497 7.558z" fill="url(#paint75_linear_248_53890)"/><defs><linearGradient id="paint0_linear_248_53890" x1="455" y1="0" x2="455" y2="788" gradientUnits="userSpaceOnUse"><stop stop-color="#F8FCFF"/><stop offset="1" stop-color="#EBF4FA"/></linearGradient><linearGradient id="paint1_linear_248_53890" x1="506.1" y1="597.561" x2="506.1" y2="228.729" gradientUnits="userSpaceOnUse"><stop offset=".082" stop-color="#9EC8F4"/><stop offset="1" stop-color="#C1EBFF"/></linearGradient><linearGradient id="paint2_linear_248_53890" x1="536.29" y1="344.22" x2="359.042" y2="344.22" gradientUnits="userSpaceOnUse"><stop stop-color="#fff"/><stop offset=".75" stop-color="#fff"/></linearGradient><linearGradient id="paint3_linear_248_53890" x1="349.051" y1="323.617" x2="208.611" y2="323.617" gradientUnits="userSpaceOnUse"><stop stop-color="#fff"/><stop offset=".75" stop-color="#fff"/></linearGradient><linearGradient id="paint4_linear_248_53890" x1="618.32" y1="234.215" x2="553.031" y2="285.873" gradientUnits="userSpaceOnUse"><stop offset=".08" stop-color="#69CCB4"/><stop offset="1" stop-color="#47AD9E"/></linearGradient><linearGradient id="paint5_linear_248_53890" x1="519.799" y1="619.778" x2="519.799" y2="551.734" gradientUnits="userSpaceOnUse"><stop offset=".21" stop-color="#D8D9DF"/><stop offset=".51" stop-color="#D5D6DC"/><stop offset=".69" stop-color="#CECFD4"/><stop offset=".84" stop-color="#C2C2C5"/><stop offset=".97" stop-color="#B1B1B1"/><stop offset="1" stop-color="#ADADAD"/></linearGradient><linearGradient id="paint6_linear_248_53890" x1="519.797" y1="327.71" x2="519.797" y2="551.733" gradientUnits="userSpaceOnUse"><stop stop-color="#fff"/><stop offset=".88" stop-color="#fff"/><stop offset=".94" stop-color="#FDFDFD"/><stop offset=".96" stop-color="#F7F6F7"/><stop offset=".98" stop-color="#ECEAED"/><stop offset=".99" stop-color="#DDD9DE"/><stop offset="1" stop-color="#D7D2D8"/></linearGradient><linearGradient id="paint7_linear_248_53890" x1="519.799" y1="351.412" x2="519.799" y2="542.751" gradientUnits="userSpaceOnUse"><stop offset=".89" stop-color="#EEE8EE"/><stop offset=".94" stop-color="#ECE6EC"/><stop offset=".96" stop-color="#E5E1E6"/><stop offset=".98" stop-color="#D9D7DB"/><stop offset=".99" stop-color="#C8CACD"/><stop offset="1" stop-color="#BBBFC1"/></linearGradient><linearGradient id="paint8_linear_248_53890" x1="519.796" y1="612.059" x2="519.796" y2="628.469" gradientUnits="userSpaceOnUse"><stop offset=".21" stop-color="#EEE8EE"/><stop offset=".61" stop-color="#ECE6EC"/><stop offset=".76" stop-color="#E5E1E6"/><stop offset=".86" stop-color="#D9D7DB"/><stop offset=".95" stop-color="#C8CACD"/><stop offset="1" stop-color="#BBBFC1"/></linearGradient><linearGradient id="paint9_linear_248_53890" x1="370.295" y1="611.078" x2="370.295" y2="616.813" gradientUnits="userSpaceOnUse"><stop offset=".3" stop-color="#F3F0F4"/><stop offset=".55" stop-color="#DDDDE0"/><stop offset="1" stop-color="#BBBFC1"/></linearGradient><linearGradient id="paint10_linear_248_53890" x1="393.296" y1="611.078" x2="393.296" y2="616.813" gradientUnits="userSpaceOnUse"><stop offset=".3" stop-color="#F3F0F4"/><stop offset=".55" stop-color="#DDDDE0"/><stop offset="1" stop-color="#BBBFC1"/></linearGradient><linearGradient id="paint11_linear_248_53890" x1="416.293" y1="611.078" x2="416.293" y2="616.813" gradientUnits="userSpaceOnUse"><stop offset=".3" stop-color="#F3F0F4"/><stop offset=".55" stop-color="#DDDDE0"/><stop offset="1" stop-color="#BBBFC1"/></linearGradient><linearGradient id="paint12_linear_248_53890" x1="439.297" y1="611.078" x2="439.297" y2="616.813" gradientUnits="userSpaceOnUse"><stop offset=".3" stop-color="#F3F0F4"/><stop offset=".55" stop-color="#DDDDE0"/><stop offset="1" stop-color="#BBBFC1"/></linearGradient><linearGradient id="paint13_linear_248_53890" x1="462.298" y1="611.078" x2="462.298" y2="616.813" gradientUnits="userSpaceOnUse"><stop offset=".3" stop-color="#F3F0F4"/><stop offset=".55" stop-color="#DDDDE0"/><stop offset="1" stop-color="#BBBFC1"/></linearGradient><linearGradient id="paint14_linear_248_53890" x1="485.299" y1="611.078" x2="485.299" y2="616.813" gradientUnits="userSpaceOnUse"><stop offset=".3" stop-color="#F3F0F4"/><stop offset=".55" stop-color="#DDDDE0"/><stop offset="1" stop-color="#BBBFC1"/></linearGradient><linearGradient id="paint15_linear_248_53890" x1="508.3" y1="611.078" x2="508.3" y2="616.813" gradientUnits="userSpaceOnUse"><stop offset=".3" stop-color="#F3F0F4"/><stop offset=".55" stop-color="#DDDDE0"/><stop offset="1" stop-color="#BBBFC1"/></linearGradient><linearGradient id="paint16_linear_248_53890" x1="531.305" y1="611.078" x2="531.305" y2="616.813" gradientUnits="userSpaceOnUse"><stop offset=".3" stop-color="#F3F0F4"/><stop offset=".55" stop-color="#DDDDE0"/><stop offset="1" stop-color="#BBBFC1"/></linearGradient><linearGradient id="paint17_linear_248_53890" x1="554.298" y1="611.078" x2="554.298" y2="616.813" gradientUnits="userSpaceOnUse"><stop offset=".3" stop-color="#F3F0F4"/><stop offset=".55" stop-color="#DDDDE0"/><stop offset="1" stop-color="#BBBFC1"/></linearGradient><linearGradient id="paint18_linear_248_53890" x1="577.298" y1="611.078" x2="577.298" y2="616.813" gradientUnits="userSpaceOnUse"><stop offset=".3" stop-color="#F3F0F4"/><stop offset=".55" stop-color="#DDDDE0"/><stop offset="1" stop-color="#BBBFC1"/></linearGradient><linearGradient id="paint19_linear_248_53890" x1="600.299" y1="611.078" x2="600.299" y2="616.813" gradientUnits="userSpaceOnUse"><stop offset=".3" stop-color="#F3F0F4"/><stop offset=".55" stop-color="#DDDDE0"/><stop offset="1" stop-color="#BBBFC1"/></linearGradient><linearGradient id="paint20_linear_248_53890" x1="623.301" y1="611.078" x2="623.301" y2="616.813" gradientUnits="userSpaceOnUse"><stop offset=".3" stop-color="#F3F0F4"/><stop offset=".55" stop-color="#DDDDE0"/><stop offset="1" stop-color="#BBBFC1"/></linearGradient><linearGradient id="paint21_linear_248_53890" x1="646.301" y1="611.078" x2="646.301" y2="616.813" gradientUnits="userSpaceOnUse"><stop offset=".3" stop-color="#F3F0F4"/><stop offset=".55" stop-color="#DDDDE0"/><stop offset="1" stop-color="#BBBFC1"/></linearGradient><linearGradient id="paint22_linear_248_53890" x1="669.301" y1="611.078" x2="669.301" y2="616.813" gradientUnits="userSpaceOnUse"><stop offset=".3" stop-color="#F3F0F4"/><stop offset=".55" stop-color="#DDDDE0"/><stop offset="1" stop-color="#BBBFC1"/></linearGradient><linearGradient id="paint23_linear_248_53890" x1="368.183" y1="614.462" x2="368.183" y2="620.197" gradientUnits="userSpaceOnUse"><stop offset=".3" stop-color="#F3F0F4"/><stop offset=".58" stop-color="#DFDEE2"/><stop offset="1" stop-color="#BBBFC1"/></linearGradient><linearGradient id="paint24_linear_248_53890" x1="391.546" y1="614.462" x2="391.546" y2="620.197" gradientUnits="userSpaceOnUse"><stop offset=".3" stop-color="#F3F0F4"/><stop offset=".58" stop-color="#DFDEE2"/><stop offset="1" stop-color="#BBBFC1"/></linearGradient><linearGradient id="paint25_linear_248_53890" x1="414.912" y1="614.462" x2="414.912" y2="620.197" gradientUnits="userSpaceOnUse"><stop offset=".3" stop-color="#F3F0F4"/><stop offset=".58" stop-color="#DFDEE2"/><stop offset="1" stop-color="#BBBFC1"/></linearGradient><linearGradient id="paint26_linear_248_53890" x1="438.283" y1="614.462" x2="438.283" y2="620.197" gradientUnits="userSpaceOnUse"><stop offset=".3" stop-color="#F3F0F4"/><stop offset=".58" stop-color="#DFDEE2"/><stop offset="1" stop-color="#BBBFC1"/></linearGradient><linearGradient id="paint27_linear_248_53890" x1="461.646" y1="614.462" x2="461.646" y2="620.197" gradientUnits="userSpaceOnUse"><stop offset=".3" stop-color="#F3F0F4"/><stop offset=".58" stop-color="#DFDEE2"/><stop offset="1" stop-color="#BBBFC1"/></linearGradient><linearGradient id="paint28_linear_248_53890" x1="485.012" y1="614.462" x2="485.012" y2="620.197" gradientUnits="userSpaceOnUse"><stop offset=".3" stop-color="#F3F0F4"/><stop offset=".58" stop-color="#DFDEE2"/><stop offset="1" stop-color="#BBBFC1"/></linearGradient><linearGradient id="paint29_linear_248_53890" x1="508.375" y1="614.462" x2="508.375" y2="620.197" gradientUnits="userSpaceOnUse"><stop offset=".3" stop-color="#F3F0F4"/><stop offset=".58" stop-color="#DFDEE2"/><stop offset="1" stop-color="#BBBFC1"/></linearGradient><linearGradient id="paint30_linear_248_53890" x1="531.746" y1="614.462" x2="531.746" y2="620.197" gradientUnits="userSpaceOnUse"><stop offset=".3" stop-color="#F3F0F4"/><stop offset=".58" stop-color="#DFDEE2"/><stop offset="1" stop-color="#BBBFC1"/></linearGradient><linearGradient id="paint31_linear_248_53890" x1="555.109" y1="614.462" x2="555.109" y2="620.197" gradientUnits="userSpaceOnUse"><stop offset=".3" stop-color="#F3F0F4"/><stop offset=".58" stop-color="#DFDEE2"/><stop offset="1" stop-color="#BBBFC1"/></linearGradient><linearGradient id="paint32_linear_248_53890" x1="578.475" y1="614.462" x2="578.475" y2="620.197" gradientUnits="userSpaceOnUse"><stop offset=".3" stop-color="#F3F0F4"/><stop offset=".58" stop-color="#DFDEE2"/><stop offset="1" stop-color="#BBBFC1"/></linearGradient><linearGradient id="paint33_linear_248_53890" x1="601.837" y1="614.462" x2="601.837" y2="620.197" gradientUnits="userSpaceOnUse"><stop offset=".3" stop-color="#F3F0F4"/><stop offset=".58" stop-color="#DFDEE2"/><stop offset="1" stop-color="#BBBFC1"/></linearGradient><linearGradient id="paint34_linear_248_53890" x1="625.204" y1="614.462" x2="625.204" y2="620.197" gradientUnits="userSpaceOnUse"><stop offset=".3" stop-color="#F3F0F4"/><stop offset=".58" stop-color="#DFDEE2"/><stop offset="1" stop-color="#BBBFC1"/></linearGradient><linearGradient id="paint35_linear_248_53890" x1="648.575" y1="614.462" x2="648.575" y2="620.197" gradientUnits="userSpaceOnUse"><stop offset=".3" stop-color="#F3F0F4"/><stop offset=".58" stop-color="#DFDEE2"/><stop offset="1" stop-color="#BBBFC1"/></linearGradient><linearGradient id="paint36_linear_248_53890" x1="671.939" y1="614.462" x2="671.939" y2="620.197" gradientUnits="userSpaceOnUse"><stop offset=".3" stop-color="#F3F0F4"/><stop offset=".58" stop-color="#DFDEE2"/><stop offset="1" stop-color="#BBBFC1"/></linearGradient><linearGradient id="paint37_linear_248_53890" x1="366.729" y1="618.354" x2="366.729" y2="624.089" gradientUnits="userSpaceOnUse"><stop offset=".3" stop-color="#F3F0F4"/><stop offset=".65" stop-color="#F1EEF2"/><stop offset=".78" stop-color="#EAE8EC"/><stop offset=".87" stop-color="#DEDEE1"/><stop offset=".94" stop-color="#CDCFD2"/><stop offset="1" stop-color="#BBBFC1"/></linearGradient><linearGradient id="paint38_linear_248_53890" x1="390.368" y1="618.354" x2="390.368" y2="624.089" gradientUnits="userSpaceOnUse"><stop offset=".3" stop-color="#F3F0F4"/><stop offset=".65" stop-color="#F1EEF2"/><stop offset=".78" stop-color="#EAE8EC"/><stop offset=".87" stop-color="#DEDEE1"/><stop offset=".94" stop-color="#CDCFD2"/><stop offset="1" stop-color="#BBBFC1"/></linearGradient><linearGradient id="paint39_linear_248_53890" x1="414" y1="618.354" x2="414" y2="624.089" gradientUnits="userSpaceOnUse"><stop offset=".3" stop-color="#F3F0F4"/><stop offset=".65" stop-color="#F1EEF2"/><stop offset=".78" stop-color="#EAE8EC"/><stop offset=".87" stop-color="#DEDEE1"/><stop offset=".94" stop-color="#CDCFD2"/><stop offset="1" stop-color="#BBBFC1"/></linearGradient><linearGradient id="paint40_linear_248_53890" x1="437.632" y1="618.354" x2="437.632" y2="624.089" gradientUnits="userSpaceOnUse"><stop offset=".3" stop-color="#F3F0F4"/><stop offset=".65" stop-color="#F1EEF2"/><stop offset=".78" stop-color="#EAE8EC"/><stop offset=".87" stop-color="#DEDEE1"/><stop offset=".94" stop-color="#CDCFD2"/><stop offset="1" stop-color="#BBBFC1"/></linearGradient><linearGradient id="paint41_linear_248_53890" x1="520.327" y1="618.354" x2="520.327" y2="624.089" gradientUnits="userSpaceOnUse"><stop offset=".3" stop-color="#F3F0F4"/><stop offset=".65" stop-color="#F1EEF2"/><stop offset=".78" stop-color="#EAE8EC"/><stop offset=".87" stop-color="#DEDEE1"/><stop offset=".94" stop-color="#CDCFD2"/><stop offset="1" stop-color="#BBBFC1"/></linearGradient><linearGradient id="paint42_linear_248_53890" x1="603.079" y1="618.354" x2="603.079" y2="624.089" gradientUnits="userSpaceOnUse"><stop offset=".3" stop-color="#F3F0F4"/><stop offset=".65" stop-color="#F1EEF2"/><stop offset=".78" stop-color="#EAE8EC"/><stop offset=".87" stop-color="#DEDEE1"/><stop offset=".94" stop-color="#CDCFD2"/><stop offset="1" stop-color="#BBBFC1"/></linearGradient><linearGradient id="paint43_linear_248_53890" x1="626.723" y1="618.354" x2="626.723" y2="624.089" gradientUnits="userSpaceOnUse"><stop offset=".3" stop-color="#F3F0F4"/><stop offset=".65" stop-color="#F1EEF2"/><stop offset=".78" stop-color="#EAE8EC"/><stop offset=".87" stop-color="#DEDEE1"/><stop offset=".94" stop-color="#CDCFD2"/><stop offset="1" stop-color="#BBBFC1"/></linearGradient><linearGradient id="paint44_linear_248_53890" x1="650.354" y1="618.354" x2="650.354" y2="624.089" gradientUnits="userSpaceOnUse"><stop offset=".3" stop-color="#F3F0F4"/><stop offset=".65" stop-color="#F1EEF2"/><stop offset=".78" stop-color="#EAE8EC"/><stop offset=".87" stop-color="#DEDEE1"/><stop offset=".94" stop-color="#CDCFD2"/><stop offset="1" stop-color="#BBBFC1"/></linearGradient><linearGradient id="paint45_linear_248_53890" x1="673.989" y1="618.354" x2="673.989" y2="624.089" gradientUnits="userSpaceOnUse"><stop offset=".3" stop-color="#F3F0F4"/><stop offset=".65" stop-color="#F1EEF2"/><stop offset=".78" stop-color="#EAE8EC"/><stop offset=".87" stop-color="#DEDEE1"/><stop offset=".94" stop-color="#CDCFD2"/><stop offset="1" stop-color="#BBBFC1"/></linearGradient><linearGradient id="paint46_linear_248_53890" x1="646.17" y1="442.266" x2="675.553" y2="442.266" gradientUnits="userSpaceOnUse"><stop stop-color="#E38735"/><stop offset="1" stop-color="#EB9E44"/></linearGradient><linearGradient id="paint47_linear_248_53890" x1="517.691" y1="507.994" x2="517.691" y2="383.436" gradientUnits="userSpaceOnUse"><stop offset=".28" stop-color="#fff"/><stop offset="1" stop-color="#E15CA7"/></linearGradient><linearGradient id="paint48_linear_248_53890" x1="358.953" y1="307.678" x2="358.953" y2="296.861" gradientUnits="userSpaceOnUse"><stop stop-color="#3036BC"/><stop offset="1" stop-color="#3D52E1"/></linearGradient><linearGradient id="paint49_linear_248_53890" x1="371.842" y1="307.677" x2="371.842" y2="292.595" gradientUnits="userSpaceOnUse"><stop stop-color="#3036BC"/><stop offset="1" stop-color="#3D52E1"/></linearGradient><linearGradient id="paint50_linear_248_53890" x1="397.616" y1="307.677" x2="397.616" y2="292.595" gradientUnits="userSpaceOnUse"><stop stop-color="#3036BC"/><stop offset="1" stop-color="#3D52E1"/></linearGradient><linearGradient id="paint51_linear_248_53890" x1="410.505" y1="307.677" x2="410.505" y2="287.801" gradientUnits="userSpaceOnUse"><stop stop-color="#3036BC"/><stop offset="1" stop-color="#3D52E1"/></linearGradient><linearGradient id="paint52_linear_248_53890" x1="423.394" y1="307.677" x2="423.394" y2="279.163" gradientUnits="userSpaceOnUse"><stop stop-color="#E38735"/><stop offset="1" stop-color="#EB9E44"/></linearGradient><linearGradient id="paint53_linear_248_53890" x1="384.728" y1="307.676" x2="384.728" y2="284.524" gradientUnits="userSpaceOnUse"><stop stop-color="#3036BC"/><stop offset="1" stop-color="#3D52E1"/></linearGradient><linearGradient id="paint54_linear_248_53890" x1="683.959" y1="498.21" x2="713.115" y2="498.21" gradientUnits="userSpaceOnUse"><stop stop-color="#3036BC"/><stop offset="1" stop-color="#3D52E1"/></linearGradient><linearGradient id="paint55_linear_248_53890" x1="699.797" y1="488.879" x2="714.373" y2="488.879" gradientUnits="userSpaceOnUse"><stop stop-color="#E38735"/><stop offset="1" stop-color="#EB9E44"/></linearGradient><linearGradient id="paint56_linear_248_53890" x1="369.057" y1="316.171" x2="304.75" y2="316.171" gradientUnits="userSpaceOnUse"><stop stop-color="#E3D535"/><stop offset="1" stop-color="#F2A72F"/></linearGradient><linearGradient id="paint57_linear_248_53890" x1="318.395" y1="637.711" x2="318.395" y2="455.95" gradientUnits="userSpaceOnUse"><stop offset=".21" stop-color="#303EBC"/><stop offset="1" stop-color="#365FC8"/></linearGradient><linearGradient id="paint58_linear_248_53890" x1="291.343" y1="634.348" x2="291.343" y2="450.306" gradientUnits="userSpaceOnUse"><stop offset=".21" stop-color="#3036BC"/><stop offset="1" stop-color="#3D52E1"/></linearGradient><linearGradient id="paint59_linear_248_53890" x1="336.678" y1="363.284" x2="222.082" y2="363.284" gradientUnits="userSpaceOnUse"><stop stop-color="#E3D535"/><stop offset="1" stop-color="#F2A72F"/></linearGradient><linearGradient id="paint60_linear_248_53890" x1="704.12" y1="632.82" x2="749.691" y2="632.82" gradientUnits="userSpaceOnUse"><stop offset=".21" stop-color="#717170"/><stop offset="1" stop-color="#848484"/></linearGradient><linearGradient id="paint61_linear_248_53890" x1="760.016" y1="632.383" x2="805.324" y2="632.383" gradientUnits="userSpaceOnUse"><stop offset=".21" stop-color="#888884"/><stop offset="1" stop-color="#6E6E6D"/></linearGradient><linearGradient id="paint62_linear_248_53890" x1="742.055" y1="621.588" x2="742.055" y2="425.136" gradientUnits="userSpaceOnUse"><stop offset=".082" stop-color="#6784A2"/><stop offset="1" stop-color="#62767F"/></linearGradient><linearGradient id="paint63_linear_248_53890" x1="769.515" y1="619.033" x2="769.515" y2="422.69" gradientUnits="userSpaceOnUse"><stop offset=".082" stop-color="#6784A2"/><stop offset="1" stop-color="#62767F"/></linearGradient><linearGradient id="paint64_linear_248_53890" x1="752.741" y1="434.63" x2="752.741" y2="313.607" gradientUnits="userSpaceOnUse"><stop stop-color="#C9316F"/><stop offset=".67" stop-color="#E15CA7"/></linearGradient><linearGradient id="paint65_linear_248_53890" x1="733.746" y1="387.915" x2="733.052" y2="384.525" gradientUnits="userSpaceOnUse"><stop offset=".082" stop-color="#4C99EB"/><stop offset="1" stop-color="#56BDED"/></linearGradient><linearGradient id="paint66_linear_248_53890" x1="704.016" y1="398.264" x2="704.016" y2="336.113" gradientUnits="userSpaceOnUse"><stop offset=".082" stop-color="#4C99EB"/><stop offset="1" stop-color="#56BDED"/></linearGradient><linearGradient id="paint67_linear_248_53890" x1="788.435" y1="354.99" x2="788.435" y2="314.509" gradientUnits="userSpaceOnUse"><stop stop-color="#C9316F"/><stop offset="1" stop-color="#E15CA7"/></linearGradient><linearGradient id="paint68_linear_248_53890" x1="55.998" y1="152.27" x2="55.998" y2="142.193" gradientUnits="userSpaceOnUse"><stop offset=".082" stop-color="#4C99EB"/><stop offset="1" stop-color="#56BDED"/></linearGradient><linearGradient id="paint69_linear_248_53890" x1="408" y1="185" x2="408" y2="193" gradientUnits="userSpaceOnUse"><stop stop-color="#80D1E5"/><stop offset="1" stop-color="#24A3C2"/></linearGradient><linearGradient id="paint70_linear_248_53890" x1="415.001" y1="219" x2="415.001" y2="199" gradientUnits="userSpaceOnUse"><stop offset=".082" stop-color="#4C99EB"/><stop offset="1" stop-color="#56BDED"/></linearGradient><linearGradient id="paint71_linear_248_53890" x1="155.995" y1="565" x2="155.995" y2="545" gradientUnits="userSpaceOnUse"><stop offset=".082" stop-color="#4C99EB"/><stop offset="1" stop-color="#56BDED"/></linearGradient><linearGradient id="paint72_linear_248_53890" x1="726.001" y1="726" x2="726.001" y2="698" gradientUnits="userSpaceOnUse"><stop offset=".082" stop-color="#4C99EB"/><stop offset="1" stop-color="#56BDED"/></linearGradient><linearGradient id="paint73_linear_248_53890" x1="703.5" y1="723" x2="703.5" y2="738" gradientUnits="userSpaceOnUse"><stop stop-color="#80D1E5"/><stop offset="1" stop-color="#24A3C2"/></linearGradient><linearGradient id="paint74_linear_248_53890" x1="709.994" y1="158.085" x2="709.994" y2="152.039" gradientUnits="userSpaceOnUse"><stop offset=".082" stop-color="#4C99EB"/><stop offset="1" stop-color="#56BDED"/></linearGradient><linearGradient id="paint75_linear_248_53890" x1="700.497" y1="161.108" x2="700.497" y2="176.224" gradientUnits="userSpaceOnUse"><stop stop-color="#80D1E5"/><stop offset="1" stop-color="#24A3C2"/></linearGradient><filter id="filter0_n_248_53890" x="0" y="0" width="910" height="788" filterUnits="userSpaceOnUse" color-interpolation-filters="sRGB"><feFlood flood-opacity="0" result="BackgroundImageFix"/><feBlend in="SourceGraphic" in2="BackgroundImageFix" result="shape"/><feTurbulence type="fractalNoise" baseFrequency="1 1" stitchTiles="stitch" numOctaves="3" result="noise" seed="7531"/><feColorMatrix in="noise" type="luminanceToAlpha" result="alphaNoise"/><feComponentTransfer in="alphaNoise" result="coloredNoise1"><feFuncA type="discrete" tableValues="1 1 1 1 1 1 1 1 1 1 1 1 1 1 1 1 1 1 1 1 1 1 1 1 1 1 1 1 1 1 1 1 1 1 1 1 1 1 1 1 1 1 1 1 1 1 1 1 1 1 1 0 0 0 0 0 0 0 0 0 0 0 0 0 0 0 0 0 0 0 0 0 0 0 0 0 0 0 0 0 0 0 0 0 0 0 0 0 0 0 0 0 0 0 0 0 0 0 0 0"/></feComponentTransfer><feComposite operator="in" in2="shape" in="coloredNoise1" result="noise1Clipped"/><feFlood flood-color="#DEECFC" result="color1Flood"/><feComposite operator="in" in2="noise1Clipped" in="color1Flood" result="color1"/><feMerge result="effect1_noise_248_53890"><feMergeNode in="shape"/><feMergeNode in="color1"/></feMerge></filter><filter id="filter1_n_248_53890" x="189.997" y="228.729" width="632.245" height="368.832" filterUnits="userSpaceOnUse" color-interpolation-filters="sRGB"><feFlood flood-opacity="0" result="BackgroundImageFix"/><feBlend in="SourceGraphic" in2="BackgroundImageFix" result="shape"/><feTurbulence type="fractalNoise" baseFrequency="0.5 0.5" stitchTiles="stitch" numOctaves="3" result="noise" seed="5782"/><feColorMatrix in="noise" type="luminanceToAlpha" result="alphaNoise"/><feComponentTransfer in="alphaNoise" result="coloredNoise1"><feFuncA type="discrete" tableValues="1 1 1 1 1 1 1 1 1 1 1 1 1 1 1 1 1 1 1 1 1 1 1 1 1 1 1 1 1 1 1 1 1 1 1 1 1 1 1 1 1 1 1 1 1 1 1 1 1 1 1 0 0 0 0 0 0 0 0 0 0 0 0 0 0 0 0 0 0 0 0 0 0 0 0 0 0 0 0 0 0 0 0 0 0 0 0 0 0 0 0 0 0 0 0 0 0 0 0 0"/></feComponentTransfer><feComposite operator="in" in2="shape" in="coloredNoise1" result="noise1Clipped"/><feFlood flood-color="rgba(176, 210, 249, 0.5)" result="color1Flood"/><feComposite operator="in" in2="noise1Clipped" in="color1Flood" result="color1"/><feMerge result="effect1_noise_248_53890"><feMergeNode in="shape"/><feMergeNode in="color1"/></feMerge></filter></defs></svg>