<svg width="98" height="106" fill="none" xmlns="http://www.w3.org/2000/svg"><path d="M34.563 106c-15.63 0-28.299-1.66-28.299-3.709 0-2.048 12.67-3.708 28.299-3.708 15.628 0 28.298 1.66 28.298 3.708 0 2.049-12.67 3.709-28.298 3.709zm47.014-6.84c-9.07 0-16.424-1.325-16.424-2.96 0-1.634 7.353-2.96 16.424-2.96C90.647 93.24 98 94.566 98 96.2c0 1.635-7.353 2.96-16.423 2.96z" fill="#CDDAE7"/><path d="M33.266 10.785C46.234.999 64.12 4.38 73.213 18.339c4.673 7.17 6.113 15.74 4.651 23.702-.487 2.656-2.214 7.54-.115 11.072 1.71 2.88 3.151 4.865 4.297 6.87 2.518 4.406 2.36 5.66 2.36 5.66s-3.407 4.463-9.498 9.06c-6.091 4.597-11.152 6.522-11.152 6.522s-1.151-.267-4.141-4.317c-1.36-1.84-2.602-3.976-4.536-6.689-2.369-3.327-7.227-3.247-9.711-3.658-7.454-1.236-14.45-5.613-19.122-12.786-9.093-13.956-5.951-33.204 7.02-42.99z" fill="#F1B146"/><path opacity=".6" d="M44.685 7.314c-3.806.772-7.355 2.386-10.553 4.798-5.942 4.484-9.907 11.19-11.164 18.884-1.258 7.694.348 15.452 4.514 21.847 2.164 3.321 4.88 6.07 8.069 8.166 3.083 2.024 6.46 3.354 10.046 3.949.389.063.873.12 1.388.177 2.76.314 6.933.785 9.292 4.096a112.24 112.24 0 012.527 3.735c.72 1.1 1.342 2.048 1.994 2.93 1.61 2.182 2.598 3.134 3.086 3.535 1.509-.658 5.548-2.576 10.161-6.057 4.614-3.481 7.665-6.916 8.755-8.216-.183-.631-.68-1.954-2.036-4.326-.547-.96-1.165-1.912-1.882-3.014a110.862 110.862 0 01-2.403-3.829c-2.09-3.515-1.08-7.898-.413-10.798.125-.538.242-1.05.317-1.464a31.256 31.256 0 00-.025-11.51 30.223 30.223 0 00-4.384-10.945c-3.058-4.694-7.277-8.286-12.204-10.387-4.806-2.052-10.022-2.593-15.088-1.567m-.277-1.597c10.727-2.172 22.133 2.372 28.808 12.615 4.673 7.17 6.113 15.74 4.651 23.702-.487 2.656-2.214 7.54-.115 11.072 1.71 2.88 3.151 4.865 4.297 6.87 2.518 4.407 2.36 5.66 2.36 5.66s-3.407 4.463-9.498 9.06c-6.091 4.598-11.152 6.522-11.152 6.522s-1.151-.267-4.141-4.316c-1.36-1.841-2.602-3.976-4.536-6.69-2.369-3.327-7.227-3.247-9.711-3.658-7.454-1.236-14.45-5.613-19.122-12.786-9.093-13.956-5.951-33.204 7.02-42.99 3.452-2.602 7.25-4.276 11.14-5.065v.004z" fill="#FFF6E1"/><path opacity=".32" d="M44.404 5.72c-3.89.79-7.687 2.46-11.139 5.066-12.968 9.786-16.11 29.03-7.02 42.99 4.673 7.17 11.668 11.55 19.122 12.786 2.484.41 7.342.33 9.711 3.658 1.934 2.713 3.173 4.845 4.536 6.689 2.99 4.05 4.142 4.317 4.142 4.317s5.06-1.925 11.151-6.522c6.092-4.597 9.497-9.061 9.497-9.061s.159-1.256-2.359-5.66c-1.146-2.005-2.586-3.99-4.297-6.87-2.099-3.53-.372-8.419.115-11.071 1.462-7.965.022-16.532-4.65-23.702C66.54 8.096 55.13 3.549 44.403 5.724m-.279-1.597c5.626-1.14 11.422-.538 16.759 1.737 5.476 2.34 10.164 6.328 13.56 11.54a33.554 33.554 0 014.869 12.162 34.85 34.85 0 01.028 12.786c-.09.491-.217 1.036-.348 1.614-.577 2.502-1.366 5.93.025 8.27.841 1.416 1.636 2.639 2.335 3.721.71 1.096 1.381 2.132 1.977 3.17 1.804 3.158 2.717 5.55 2.57 6.73l-.055.457-.27.355c-.146.19-3.608 4.687-9.798 9.358-6.191 4.67-11.301 6.639-11.515 6.722l-.404.154-.419-.097c-1.08-.25-2.856-1.991-5.002-4.891-.704-.956-1.381-1.988-2.098-3.08a107.878 107.878 0 00-2.453-3.63c-1.571-2.204-4.834-2.575-7.215-2.842-.55-.064-1.068-.12-1.53-.198-3.984-.658-7.738-2.135-11.162-4.386-3.546-2.33-6.563-5.383-8.966-9.071-4.63-7.103-6.411-15.724-5.014-24.27 1.394-8.546 5.8-15.997 12.4-20.979 3.551-2.68 7.498-4.473 11.726-5.329v-.003z" fill="#FFF6E1"/><path d="M30.942 43.615c-6.085-9.338-3.095-22.887 6.677-30.262C47.39 5.98 60.246 7.57 66.33 16.91c6.085 9.338 3.096 22.886-6.677 30.26-9.772 7.376-22.627 5.784-28.712-3.554z" fill="url(#paint0_linear_248_53798)"/><path d="M64.5 78.966c-.587-.898 2.807-4.546 7.579-8.147 4.771-3.602 9.115-5.792 9.7-4.893.586.899-2.807 4.547-7.58 8.148-4.77 3.6-9.114 5.791-9.7 4.892z" fill="#0D657F"/><path d="M63.982 81.166s4.958-1.848 10.907-6.335c5.945-4.487 9.251-8.874 9.251-8.874s.075-.44.183-.207c.944 2.051.882 2.7.882 2.7s-3.138 4.263-8.851 8.573c-5.71 4.31-10.506 6.03-10.506 6.03s-.596-.16-2.083-1.84c-.1-.11.217-.047.217-.047z" fill="#5D819F"/><path opacity=".5" d="M85.42 94.928l3.698-2.79c3.688-2.783-.171-4.894 4.222-8.877-1.366-2.098-5.505-1.537-9.193 1.246l-3.697 2.79c-3.689 2.783-5.592 6.78-4.223 8.877 4.492-2.79 5.505 1.537 9.193-1.246z" fill="#1F638B"/><path d="M67.472 82.81c1.198-.461 4.536-1.921 9.115-5.38 4.282-3.23 6.8-6.053 7.824-7.31.363-.444 3.07 1.547 3.07 1.547s-3.51 4.293-9.074 8.493c-5.567 4.2-10.42 6.251-10.42 6.251s-.832-3.481-.515-3.605v.004z" fill="#144A5B"/><path d="M67.248 82.113c1.18-.448 4.464-1.868 8.963-5.262 4.204-3.171 6.668-5.954 7.671-7.194.354-.438 3.043 1.567 3.043 1.567s-3.434 4.237-8.898 8.36C72.563 83.706 67.782 85.7 67.782 85.7s-.85-3.468-.537-3.588h.003z" fill="#195871"/><path opacity=".7" d="M70.787 81.548a57.104 57.104 0 005.957-3.93c4.108-3.1 7.07-6.264 8.284-7.64.829.46 1.8 1.176 1.884 1.24a.125.125 0 01-.012.03c-.27.327-3.639 4.383-8.88 8.335a55.212 55.212 0 01-2.427 1.73c-1.742.479-3.4.559-4.81.235h.004z" fill="#3488A2"/><path d="M69.258 85.011c-.928.458-1.475.685-1.475.685s-.314-1.286-.49-2.318c.325-.154.745-.358 1.241-.609.112.792.351 1.55.724 2.242zm14.849-14.018c.372-.398.686-.745.928-1.02.87.482 1.894 1.247 1.894 1.247s-.385.478-1.102 1.263a6.03 6.03 0 00-1.717-1.49h-.003z" opacity=".7" fill="#7CBDD7"/><path opacity=".5" d="M78.537 77.912c-2.31 1.744-4.7 2.77-6.532 2.943a57.022 57.022 0 004.66-3.16 58.924 58.924 0 006.97-6.215c-.55 1.958-2.422 4.414-5.095 6.432h-.003z" fill="#7CBDD7"/><path d="M90.43 90.805c-.27.441-.67.886-1.288 1.354l-3.697 2.79c-.612.46-1.146.724-1.64.858a40.495 40.495 0 013.207-2.683 40.208 40.208 0 013.419-2.319z" fill="#195871"/><path d="M69.456 86.15c1.198-.46 4.535-1.92 9.114-5.379 4.282-3.23 6.8-6.054 7.824-7.31.363-.444 3.07 1.547 3.07 1.547s-3.51 4.293-9.074 8.493c-5.567 4.2-10.42 6.251-10.42 6.251s-.831-3.481-.514-3.605v.004z" fill="#144A5B"/><path d="M69.232 85.454c1.18-.448 4.464-1.868 8.963-5.263 4.204-3.17 6.669-5.953 7.671-7.193.354-.438 3.043 1.567 3.043 1.567s-3.434 4.237-8.898 8.36c-5.464 4.122-10.245 6.117-10.245 6.117s-.85-3.468-.537-3.588h.003z" fill="#195871"/><path opacity=".7" d="M72.77 84.888a57.094 57.094 0 005.959-3.929c4.107-3.1 7.069-6.264 8.283-7.64.829.46 1.8 1.175 1.885 1.239-.004.01-.007.02-.013.03-.27.327-3.639 4.384-8.88 8.336a55.143 55.143 0 01-2.427 1.73c-1.742.478-3.4.559-4.81.234h.004z" fill="#3488A2"/><path d="M71.241 88.353c-.928.458-1.475.685-1.475.685s-.313-1.286-.49-2.319c.326-.153.745-.357 1.242-.608.112.792.35 1.55.723 2.242zM86.09 74.334c.373-.398.686-.746.928-1.02.87.482 1.894 1.247 1.894 1.247s-.385.477-1.102 1.263a6.034 6.034 0 00-1.717-1.49h-.003z" opacity=".7" fill="#7CBDD7"/><path opacity=".5" d="M80.523 81.253c-2.31 1.744-4.7 2.77-6.532 2.943a57.046 57.046 0 004.66-3.16 58.908 58.908 0 006.97-6.215c-.55 1.958-2.421 4.414-5.094 6.432h-.004z" fill="#7CBDD7"/><path d="M71.608 89.495c1.198-.46 4.536-1.92 9.115-5.379 4.281-3.23 6.799-6.054 7.823-7.31.364-.444 3.071 1.547 3.071 1.547s-3.511 4.293-9.075 8.493c-5.566 4.2-10.419 6.251-10.419 6.251s-.832-3.481-.515-3.605v.003z" fill="#144A5B"/><path d="M71.383 88.801c1.18-.448 4.465-1.867 8.964-5.262 4.203-3.17 6.668-5.954 7.671-7.193.354-.438 3.043 1.567 3.043 1.567s-3.434 4.236-8.898 8.359c-5.465 4.123-10.246 6.118-10.246 6.118s-.85-3.469-.537-3.589h.003z" fill="#195871"/><path opacity=".7" d="M74.923 88.233a57.098 57.098 0 005.958-3.929c4.108-3.1 7.07-6.264 8.283-7.64.83.46 1.801 1.175 1.885 1.239a.122.122 0 01-.013.03c-.27.327-3.638 4.383-8.879 8.336a55.27 55.27 0 01-2.428 1.73c-1.741.478-3.4.558-4.809.234h.003z" fill="#3488A2"/><path d="M73.392 91.699c-.929.458-1.475.685-1.475.685s-.314-1.287-.49-2.319a55.04 55.04 0 001.241-.608c.112.792.351 1.55.724 2.242zM88.239 77.68a47.8 47.8 0 00.927-1.02c.87.481 1.895 1.246 1.895 1.246s-.385.478-1.103 1.263a6.036 6.036 0 00-1.716-1.49h-.004z" opacity=".7" fill="#7CBDD7"/><path opacity=".5" d="M82.673 84.598c-2.31 1.744-4.7 2.77-6.532 2.943a57.04 57.04 0 004.66-3.16 58.915 58.915 0 006.97-6.215c-.55 1.958-2.422 4.414-5.095 6.432h-.003z" fill="#7CBDD7"/><path d="M73.8 92.863c1.198-.46 4.535-1.92 9.115-5.379 4.28-3.23 6.799-6.054 7.823-7.31.364-.444 3.07 1.547 3.07 1.547s-3.51 4.293-9.074 8.493c-5.567 4.2-10.42 6.251-10.42 6.251s-.831-3.481-.515-3.605v.003z" fill="#144A5B"/><path d="M73.575 92.165c1.18-.447 4.464-1.867 8.963-5.262 4.204-3.17 6.669-5.954 7.672-7.193.353-.438 3.042 1.567 3.042 1.567s-3.434 4.236-8.898 8.36c-5.464 4.122-10.245 6.117-10.245 6.117s-.85-3.468-.537-3.589h.003z" fill="#195871"/><path opacity=".7" d="M77.114 91.597a57.098 57.098 0 005.958-3.93c4.107-3.1 7.069-6.264 8.283-7.64.829.46 1.8 1.175 1.884 1.239a.126.126 0 01-.012.03c-.27.327-3.639 4.383-8.88 8.336a55.23 55.23 0 01-2.427 1.73c-1.742.478-3.4.559-4.809.235h.003z" fill="#3488A2"/><path d="M75.585 95.061c-.928.458-1.475.685-1.475.685s-.313-1.286-.49-2.319c.326-.153.745-.357 1.242-.608.112.792.35 1.55.723 2.242zm14.849-14.019c.372-.398.686-.745.928-1.02.87.482 1.894 1.247 1.894 1.247s-.385.478-1.102 1.263a6.033 6.033 0 00-1.717-1.49h-.003z" opacity=".7" fill="#7CBDD7"/><path opacity=".5" d="M84.864 87.96c-2.31 1.745-4.7 2.77-6.532 2.944a57.04 57.04 0 004.66-3.16 58.93 58.93 0 006.97-6.215c-.55 1.958-2.422 4.414-5.095 6.432h-.003z" fill="#7CBDD7"/><path d="M48.024 49.945l-.984.742c2.71 4.163 6.516 6.933 8.789 8.586.87.635 1.692 1.233 1.872 1.507l9.364 14.373.984-.741-9.364-14.374c-.307-.47-1.052-1.012-2.182-1.834-2.205-1.607-5.896-4.293-8.482-8.259h.003z" fill="#153F5E"/><path d="M64.428 40.437l-.143-.124-.723.855-.01-.006a3.02 3.02 0 01-1.63 1.002c.286-.618.41-1.306.314-1.955-.224-1.503-1.54-2.238-2.94-1.643l.01.066-.057-.033c-.996 1.213-.804 2.797.435 3.535.534.317 1.177.428 1.816.35-.344.579-.844 1.056-1.431 1.307l.006.05-.044-.027a3.02 3.02 0 01-1.63 1.003c.286-.618.41-1.307.314-1.955-.223-1.503-1.54-2.238-2.94-1.644l.01.067-.057-.033c-.996 1.213-.804 2.796.435 3.535.534.317 1.177.427 1.816.35-.344.578-.844 1.056-1.43 1.307l.02.14-.114-.07a3.02 3.02 0 01-1.63 1.002c.286-.618.41-1.306.314-1.954-.224-1.504-1.54-2.239-2.94-1.644l.009.067-.056-.034c-.997 1.213-.804 2.797.435 3.535.534.318 1.176.428 1.816.351-.345.578-.845 1.056-1.431 1.306l.006.05-.044-.026a3.021 3.021 0 01-1.63 1.002c.286-.618.41-1.306.314-1.954-.223-1.504-1.54-2.239-2.94-1.644l.01.067-.057-.034c-.996 1.213-.804 2.797.435 3.535.534.317 1.177.428 1.816.35-.344.579-.844 1.057-1.431 1.307v.01l-.99.438.059.187.959-.424v.017c.705-.301 1.297-.883 1.682-1.58a3.462 3.462 0 001.904-1.107c.674-.307 1.242-.872 1.614-1.547a3.445 3.445 0 001.928-1.136c.69-.304 1.27-.878 1.649-1.563a3.462 3.462 0 001.903-1.106c.674-.307 1.242-.872 1.614-1.547a3.464 3.464 0 001.953-1.163l-.016-.01.699-.828h.019zm-15.163 9.478c-1.115-.665-1.32-2.058-.478-3.137 1.23-.484 2.378.2 2.58 1.554.093.634-.04 1.306-.33 1.897-.617.094-1.248 0-1.77-.314h-.002zm3.517-2.656c-1.114-.665-1.32-2.058-.478-3.137 1.23-.485 2.378.2 2.58 1.553.093.635-.04 1.307-.329 1.898-.618.094-1.248 0-1.77-.314h-.003zm3.577-2.7c-1.115-.664-1.32-2.058-.478-3.137 1.229-.484 2.378.2 2.58 1.554.093.635-.04 1.306-.33 1.898-.617.093-1.248 0-1.77-.315h-.002zm3.517-2.652c-1.114-.665-1.32-2.058-.478-3.138 1.23-.484 2.378.2 2.58 1.554.093.635-.04 1.306-.329 1.898-.618.093-1.248 0-1.77-.314h-.003z" fill="#153F5E"/><path d="M59.223 38.395l-.037.047-.053.023.006.037c-.525.638-.757 1.423-.64 2.152.11.684.507 1.26 1.118 1.623a2.925 2.925 0 001.584.391c-.317.435-.72.772-1.162.962l-.03-.02-.041.05-.059.024.006.04a2.87 2.87 0 01-1.235.845c.208-.578.28-1.182.195-1.734-.108-.745-.478-1.343-1.037-1.687-.596-.367-1.363-.398-2.099-.084l-.027-.016-.038.043-.053.024.007.033c-.525.638-.758 1.423-.64 2.152a2.28 2.28 0 001.118 1.623 2.922 2.922 0 001.583.391 2.923 2.923 0 01-1.182.973l-.072.016-.016.02-.021.01v.017l-.04.05c-.32.388-.755.689-1.252.866.208-.578.28-1.183.196-1.734-.109-.745-.478-1.344-1.037-1.688-.596-.367-1.363-.397-2.099-.083l-.028-.017-.037.044-.053.023.006.033c-.524.638-.757 1.424-.64 2.152a2.29 2.29 0 001.118 1.624 2.93 2.93 0 001.584.39c-.317.435-.72.772-1.161.963l-.031-.02-.04.05-.06.023.007.04c-.32.381-.749.675-1.236.846.208-.578.28-1.183.195-1.734-.108-.745-.478-1.343-1.036-1.688-.597-.367-1.363-.397-2.1-.083l-.027-.017-.037.047-.05.02.006.033c-.525.639-.757 1.424-.642 2.152.108.682.505 1.26 1.12 1.624.453.27 1.006.404 1.584.39a2.924 2.924 0 01-1.183.973l-.112.047v.01l-1.012.447.158.492 1.105-.471c.693-.295 1.301-.856 1.72-1.584a3.61 3.61 0 001.888-1.106l.025.013v-.03c.646-.307 1.21-.848 1.605-1.53a3.598 3.598 0 001.888-1.106l.096.057-.019-.117c.646-.307 1.214-.849 1.611-1.533a3.588 3.588 0 001.888-1.106l.025.013v-.03c.646-.307 1.21-.849 1.605-1.53a3.557 3.557 0 001.972-1.203l.124-.15-.013-.007.68-.802-.376-.328-.735.873-.09.093c-.32.388-.758.688-1.252.866.208-.578.28-1.183.196-1.734-.109-.746-.478-1.344-1.037-1.688-.596-.367-1.36-.397-2.099-.087l-.027-.016-.016.013zm2.325 3.675c-.584.07-1.148-.037-1.602-.304a1.813 1.813 0 01-.89-1.26c-.094-.537.055-1.099.421-1.587l.029.017-.007-.033c.55-.2 1.09-.16 1.528.117.428.27.71.741.798 1.33.08.547-.02 1.159-.28 1.724l.003-.004zm-7.094 5.353c-.583.07-1.148-.037-1.602-.305a1.813 1.813 0 01-.89-1.26c-.094-.537.055-1.098.421-1.586l.028.017-.006-.034c.55-.2 1.09-.16 1.528.117.428.27.71.742.797 1.33.081.551-.018 1.16-.279 1.724l.003-.003zm-5.56-.482l-.006-.033c.55-.204 1.093-.164 1.53.114.429.27.711.741.798 1.33.08.55-.019 1.159-.28 1.723-.583.07-1.148-.036-1.601-.304a1.812 1.812 0 01-.891-1.26c-.094-.537.056-1.098.419-1.586l.028.017h.003zm7.538-2.522c-.484-.287-.801-.735-.891-1.26-.093-.538.059-1.099.422-1.587l.028.017-.006-.033c.55-.2 1.09-.16 1.527.117.429.27.711.741.798 1.33.08.55-.018 1.159-.28 1.723-.583.07-1.148-.036-1.601-.304l.003-.003z" fill="#153F5E"/><path d="M63.547 38.23l-.984.742c2.583 3.966 3.673 8.617 4.325 11.397.332 1.423.553 2.362.86 2.833l9.364 14.373.984-.742-9.364-14.373c-.18-.274-.422-1.31-.68-2.409-.67-2.863-1.794-7.658-4.505-11.82z" fill="#153F5E"/><path opacity=".65" d="M67.788 82.351c1.18-.447 4.465-1.867 8.963-5.262 4.204-3.17 6.67-5.954 7.672-7.193.136-.167.611.02 1.149.317.869.481 1.893 1.246 1.893 1.246s-.009.014-.028.037c.345.237.584.411.584.411s-.407.498-1.164 1.32c.198.067.44.184.695.324.87.481 1.894 1.246 1.894 1.246l-.028.037c.345.237.584.41.584.41s-.398.485-1.133 1.287c.217.047.515.187.832.364.869.481 1.893 1.246 1.893 1.246l-.027.037c.344.237.583.411.583.411s-.4.488-1.142 1.297c.22.036.54.18.881.37.87.482 1.894 1.247 1.894 1.247l-.028.036c.345.238.584.411.584.411s-.314.385-.907 1.036c.168.147.314.314.438.505-3.685 3.34-1.562 5.365-2.962 7.574.019-.01.034-.024.053-.034-.27.441-.67.886-1.288 1.354l-3.698 2.79c-.611.46-1.145.724-1.64.858l.035-.03c-2.52.745-3.837-1.945-7.616.4a2.415 2.415 0 01-.248-.494c-1.046.525-1.664.789-1.664.789s-.072-.3-.165-.732c-.025.01-.037.017-.037.017v-.003s-.313-1.287-.49-2.32a7.259 7.259 0 01-.115-.975c-.876.435-1.385.648-1.385.648s-.071-.3-.165-.731l-.037.016v-.003s-.313-1.286-.49-2.319a7.564 7.564 0 01-.115-.935c-.85.417-1.345.628-1.345.628s-.07-.3-.164-.732a.403.403 0 00-.037.017v-.003s-.314-1.287-.49-2.319a7.933 7.933 0 01-.11-.852c-.75.368-1.182.548-1.182.548s-.072-.3-.165-.732c-.025.01-.037.017-.037.017v-.003s-.314-1.287-.49-2.32c-.113-.66-.168-1.219-.047-1.265l.012.006z" fill="#729EDB"/><path d="M25.869 51.24c.173 3.193.034 4.102.844 8.155 1.257 6.278 1.115 4.798 1.236 5.68.555 1.55 2.2 8.359 2.806 9.665.034 2.653.404 4.741 1.124 7.976.857 3.862 3.353 10.41 4.61 13.995l2.49-.641c-.363-7.147-1.294-16.96-2.71-27.761-.907-6.916-.031-13.334-1.024-18.947l-9.38 1.874.004.003z" fill="#1E2D54"/><path d="M20.467 50.575c-.617 3.15-.723 6.609-.826 10.755-.158 6.422.854 9.352.767 10.237.245 1.647.553 3.198.92 4.62-.64 2.59-1.013 5.684-1.013 9.008 0 3.973.22 8.463.758 12.266h3.036c1.412-7.043 2.853-16.82 3.986-27.678.727-6.953 1.236-13.501 1.531-19.208h-9.159z" fill="#153F5E"/><path d="M29.412 57.1c-3.41 0-6.175-2.273-6.175-5.076 0-2.803 2.765-5.075 6.175-5.075 3.41 0 6.175 2.272 6.175 5.075 0 2.803-2.765 5.075-6.175 5.075z" fill="#153F5E"/><path d="M23.438 99.754h-2.133V96.37h2.511l-.378 3.384z" fill="#EA9F88"/><path d="M24.524 103.316v.491H19.47v-.491c0-.127.022-.247.053-.357-.214-.014-.177-.017.003-.017a.97.97 0 01.338-.501c.137-.291.314-.675.485-1.076.149-.351.23-1.43.462-1.965.323-.738.786-.905.786-.905h.226c.503.364.479 1.1.95 1.21.472.11.957-.154.957-.154l.524 2.265c.056.187.09.411.09.655v.234c.103.173.168.384.168.618l.012-.007zm-2.133-1.026v.007h.143v-.007h-.142z" fill="#16415D"/><path d="M39.43 99.156l-1.78.588-.918-3.237 2.096-.689.602 3.338z" fill="#EA9F88"/><path d="M35.83 101.526l.771-2.336s1.14.271 1.831.16c.696-.113.693-.794.97-1.245h.925s1.216 2.322 3.6 2.9h1.789c.416 0 .758.537.758 1.199v.531h-7.517l-.378-.711h-.212v.711h-2.673v-.531c0-.251.05-.481.134-.675l.003-.003z" fill="#16415D"/><path d="M24.558 20.636a5.57 5.57 0 005.443-.184c-.33-.595-.531-1.367-.531-2.215 0-1.156.37-2.175.934-2.783v-1.447H26.99c-.149 2.693-1.07 5.055-2.43 6.629z" fill="#EA9F86"/><path d="M31.305 11.096c-.382-2.068-2.496-1.694-4.036-1.363-.99.21-1.847.551-2.22 1.77-.223-.2-.46.342-.71.405-.522.13-.799.401-.625 1.19.174.788.73 1.797 1.251 1.667.025-.007.047-.02.072-.03.18.631.087 1.183.475 1.627.76.872 2.22 1.35 3.191 1.363 3.167.04 2.987-4.56 2.605-6.629h-.003z" fill="#EBB190"/><path d="M32.828 8.43c-.258-1.68-.997-2.589-3.508-2.174-1.667.274-4.412 1.069-6.048 1.954-1.667.902-1.04 2.309-.807 2.93.574 1.534 1.608 3.732 2.39 3.77.18.01.314-.071.413-.208-.276-.087-.559-.32-.748-.662-.32-.574-.267-1.226.121-1.46.317-.19.758-.033 1.084.341.263-1.273.804-2.62 3.095-2.215 2.505.444 4.269-.595 4.008-2.275z" fill="#1C3054"/><path d="M25.921 34.23c4.784 0 9.342-.271 13.48-.759-.226-6.354-3.809-11.667-8.693-13.454-.76.711-1.89 1.166-3.154 1.166-1.394 0-2.623-.552-3.378-1.397-5.306 1.534-9.27 7.163-9.416 13.932 3.499.331 7.252.512 11.158.512h.003z" fill="#729EDB"/><path d="M20.718 51.54H35.33c.336 0 .267-1.006.224-1.15-.28-.902-.568-1.146-.755-2.168a29.492 29.492 0 01-.462-5.262c0-5.93 1.657-11.53 3.834-14.838-1.444-3.849-4.222-6.83-7.637-8.079-.761.712-1.891 1.166-3.155 1.166-1.394 0-2.623-.551-3.377-1.396-4.002 1.156-7.24 4.647-8.656 9.194 3.157 1.5 5.541 8.363 5.541 16.609 0 1.29-.059 2.542-.17 3.748-.062.659-.32.943-.351 1.177-.087.655.174.995.348.995l.003.004z" fill="#729EDB"/><path d="M37.95 32.932c.655 6.907-.307 7.842-1.627 7.976-1.316.133-2.49-.585-3.145-7.491-.655-6.906-.117-12.616 1.199-12.75 1.316-.133 2.915 5.36 3.57 12.265h.003z" fill="#EA9F86"/><path d="M35.098 17.647c.53 1.648.28 3.168-.702 3.505-.981.337-1.804-.805-2.334-2.449-.531-1.647-.634-2.105.347-2.442.981-.338 2.158-.258 2.689 1.39v-.004z" fill="#EA9F86"/><path d="M37.708 39.458c-.708.134-2.024.18-2.682.18-1.428 0-.922-.801-.922-1.676 0-.19-.193-.488-.36-.445-.907.227-1.615.712-1.925 1.313l-10.341.358v-6.044l-6.455.711c-.078.682-.121 1.798-.121 2.523 0 5.556 1.468 8.34 4.47 8.34 3.419 0 9.526-1.802 12.91-3.462.475.625 1.204 1.102 2.173 1.102 1.53 0 3.005-1.282 3.635-2.271.4-.629-.205-.662-.382-.629z" fill="#EFB290"/><path d="M5.52 17.642c-3.049 0-5.52-2.66-5.52-5.94C0 8.42 2.47 5.76 5.52 5.76c3.049 0 5.52 2.66 5.52 5.94 0 3.281-2.471 5.94-5.52 5.94z" fill="#EAF0F9"/><path d="M87.454 6.745v3.32h-.667v-3.32c0-.24.149-.434.332-.434.183 0 .332.193.332.434h.003zm0 14.518c0 .24-.15.434-.332.434-.183 0-.332-.193-.332-.434v-3.12h.667v3.12h-.003zm6.813-7.259c0 .197-.18.358-.404.358h-3.086v-.718h3.086c.223 0 .404.16.404.357v.003zm-13.888-.36h2.9v.718h-2.9c-.224 0-.404-.16-.404-.358 0-.197.18-.357.404-.357v-.003zm11.744-4.515l-2.183 2.348-.471-.507 2.182-2.35c.158-.17.391-.193.522-.053.13.14.108.391-.05.562zM82.59 19.388c-.159.17-.392.194-.522.054s-.11-.391.05-.561l2.052-2.209.472.508-2.053 2.208zm9.583.052c-.13.14-.364.117-.522-.053l-2.182-2.349.471-.508 2.183 2.35c.158.17.18.42.05.56zM82.59 8.62l2.052 2.21-.472.507-2.053-2.208c-.158-.17-.18-.421-.05-.562.131-.14.364-.117.522.054z" fill="#E5803C"/><defs><linearGradient id="paint0_linear_248_53798" x1="52.171" y1="8.603" x2="44.022" y2="51.721" gradientUnits="userSpaceOnUse"><stop stop-color="#FCF5B8"/><stop offset="1" stop-color="#F7C959" stop-opacity="0"/></linearGradient></defs></svg>