<svg width="46" height="46" fill="none" xmlns="http://www.w3.org/2000/svg"><g clip-path="url(#clip0_248_55225)"><circle cx="23" cy="23" r="23" fill="#fff"/><path d="M33 18.535V28a3 3 0 01-2.824 2.995L30 31H16a3 3 0 01-2.995-2.824L13 28v-9.465l9.445 6.297.116.066a1 1 0 00.878 0l.116-.066L33 18.535z" fill="#FBBF33"/><path d="M29.998 15c1.08 0 2.027.57 2.555 1.427l-9.555 6.37-9.555-6.37a3 3 0 012.354-1.42l.201-.007h14z" fill="#FBBF33"/></g><defs><clipPath id="clip0_248_55225"><path fill="#fff" d="M0 0h46v46H0z"/></clipPath></defs></svg>