<svg width="49" height="57" fill="none" xmlns="http://www.w3.org/2000/svg"><g clip-path="url(#clip0_249_65614)"><path d="M0 0l15.432 8.952V0H0z" fill="#7586DD"/><path d="M14.429 17.555a14.352 14.352 0 00-10.205 4.247A14.497 14.497 0 000 32.055h15.432V17.592a14.883 14.883 0 00-1.003-.035v-.002z" fill="#fff"/><path d="M0 0v32.055c0-4.003 1.614-7.628 4.227-10.253a14.351 14.351 0 0111.207-4.212V8.952L0 0z" fill="#101841"/><path d="M15.432 17.592v14.463H0c0 4.003 1.614 7.628 4.227 10.253a14.353 14.353 0 0010.204 4.247c3.987 0 7.592-1.622 10.202-4.247a14.489 14.489 0 004.227-10.253c0-4.003-1.614-7.628-4.227-10.253a14.365 14.365 0 00-9.201-4.212v.002z" fill="#70ACCE"/><path d="M15.432 8.953v8.638a14.346 14.346 0 019.201 4.213 14.485 14.485 0 014.227 10.253c0 4.005-1.614 7.628-4.227 10.253-.408.41-.844.798-1.3 1.16L49.13 28.503 15.432 8.954zM0 32.055v24.944l19.797-11.484a14.311 14.311 0 01-5.368 1.037 14.351 14.351 0 01-10.205-4.247A14.487 14.487 0 010 32.055z" fill="#144DA0"/></g><defs><clipPath id="clip0_249_65614"><path fill="#fff" d="M0 0h49v57H0z"/></clipPath></defs></svg>