<svg width="180" height="39" fill="none" xmlns="http://www.w3.org/2000/svg"><g clip-path="url(#clip0_248_55253)"><path d="M156.168 15.328l.009 1.176c-.995-.404-2.207-.628-3.678-.628-5.725 0-7.575 3.403-7.575 7.536 0 4.133 1.851 7.536 7.575 7.536V27.96c-3.385 0-3.725-2.759-3.725-4.548 0-1.79.34-4.549 3.725-4.549 3.386 0 3.707 2.632 3.724 4.423l.048 7.076c0 1.94-.369 4.93-4.039 4.93h-5.628v3.24h5.628c6.206 0 8.213-3.69 8.213-8.17V15.33h-4.277v-.001zM43.574 9.824V31.91h4.205V19.114h3.518c3.67 0 4.038 2.99 4.038 4.93 0 1.939-.368 4.93-4.038 4.93v3.239c6.205 0 8.213-3.689 8.213-8.17 0-4.48-2.006-8.169-8.213-8.169h-3.518v-6.05h-4.205zm30.072 6.052c-3.203 0-5.675 1.525-7.068 3.372V16.18h-4.022v15.733h4.234V24.65c0-3.938 4.757-5.235 6.856-5.235v-3.539zm6.838.514h-4.265v15.52h4.265V16.39zm.366-4.68c0 .659-.263 1.289-.731 1.755a2.512 2.512 0 01-1.768.727 2.491 2.491 0 01-2.499-2.482c0-.659.264-1.289.732-1.755a2.51 2.51 0 013.535 0c.468.465.732 1.096.732 1.755zm43.252-1.886h-4.265V31.91h4.265V9.824zm-15.876 9.289c3.671 0 4.039 2.992 4.039 4.93 0 1.94-.368 4.93-4.039 4.93-3.67 0-4.039-2.99-4.039-4.93 0-1.938.369-4.93 4.039-4.93zm0-3.239c-6.205 0-8.213 3.69-8.213 8.17 0 4.478 2.006 8.169 8.213 8.169 6.208 0 8.213-3.69 8.213-8.17s-2.007-8.169-8.213-8.169zm-16.026 0c-6.206 0-8.214 3.69-8.214 8.17 0 4.478 2.006 8.169 8.213 8.169h5.628v-3.24H92.2c-3.67 0-4.038-2.99-4.038-4.93 0-1.938.368-4.93 4.038-4.93h5.628v-3.239H92.2zm41.603-.004v.004h-5.628v3.24h5.628v-.004c2.402 0 3.39 1.282 3.786 2.71h-3.359c-5.158 0-6.826 2.299-6.826 5.089 0 2.79 1.668 5.088 6.826 5.088h1.951v-2.775h-1.951c-2.149 0-3.356-1.34-3.356-2.315 0-.976 1.207-2.314 3.356-2.314h3.611v7.317h4.174v-7.872c0-4.48-2.006-8.169-8.213-8.169h.001zm37.984 3.244c3.329 0 3.939 2.458 4.025 4.363h-8.05c.085-1.905.696-4.363 4.025-4.363zm0-3.24c-6.206 0-8.213 3.69-8.213 8.17 0 4.479 2.005 8.17 8.213 8.17h5.628v-3.24h-5.628c-2.467 0-3.441-1.352-3.816-2.826h12.027v-2.106c0-4.48-2.005-8.17-8.213-8.17l.002.002z" fill="#000"/><path d="M0 0l10.683 6.125V0H0z" fill="#7586DD"/><path d="M9.99 12.012a9.994 9.994 0 00-7.065 2.906A9.86 9.86 0 000 21.933h10.683v-9.896c-.23-.015-.46-.024-.694-.024v-.001z" fill="#fff"/><path d="M0 0v21.933a9.855 9.855 0 012.926-7.016 9.994 9.994 0 017.76-2.882v-5.91L0 0z" fill="#101841"/><path d="M10.683 12.037v9.895H0a9.855 9.855 0 002.926 7.016 9.995 9.995 0 007.065 2.905c2.76 0 5.256-1.11 7.063-2.905a9.855 9.855 0 002.926-7.016 9.855 9.855 0 00-2.926-7.015 9.996 9.996 0 00-6.37-2.882v.002z" fill="#70ACCE"/><path d="M10.683 6.125v5.91a9.984 9.984 0 016.37 2.882 9.852 9.852 0 012.927 7.016 9.855 9.855 0 01-2.926 7.015c-.283.28-.585.546-.9.793l17.86-10.24-23.33-13.376zM0 21.933V39l13.706-7.858c-1.149.458-2.402.71-3.717.71a9.994 9.994 0 01-7.064-2.906A9.854 9.854 0 010 21.933z" fill="#144DA0"/></g><defs><clipPath id="clip0_248_55253"><path fill="#fff" d="M0 0h180v39H0z"/></clipPath></defs></svg>