<svg width="260" height="57" fill="none" xmlns="http://www.w3.org/2000/svg"><g clip-path="url(#clip0_248_55235)"><path d="M225.575 22.402l.013 1.72c-1.436-.59-3.187-.919-5.312-.919-8.27 0-10.942 4.974-10.942 11.015 0 6.04 2.674 11.014 10.942 11.014v-4.366c-4.89 0-5.381-4.033-5.381-6.648 0-2.615.491-6.648 5.381-6.648 4.891 0 5.354 3.846 5.379 6.464l.069 10.342c0 2.834-.532 7.206-5.834 7.206h-8.129v4.734h8.129c8.964 0 11.863-5.394 11.863-11.94V22.405h-6.178v-.003zM62.94 14.36v32.279h6.073V27.936h5.082c5.301 0 5.834 4.372 5.834 7.206 0 2.833-.533 7.205-5.834 7.205v4.734c8.963 0 11.863-5.391 11.863-11.94 0-6.548-2.897-11.94-11.863-11.94h-5.082V14.36H62.94zm43.436 8.843c-4.626 0-8.196 2.23-10.21 4.929v-4.486h-5.809V46.64h6.117V36.026c0-5.755 6.871-7.65 9.902-7.65v-5.173zm9.879.75h-6.161V46.64h6.161V23.953zm.528-6.837c0 .963-.381 1.883-1.057 2.565a3.607 3.607 0 01-2.553 1.062 3.62 3.62 0 01-3.611-3.627 3.64 3.64 0 011.058-2.565 3.602 3.602 0 015.106 0 3.637 3.637 0 011.057 2.565zm62.475-2.756h-6.16v32.279h6.16v-32.28zm-22.932 13.574c5.302 0 5.834 4.371 5.834 7.205 0 2.834-.532 7.205-5.834 7.205-5.301 0-5.834-4.371-5.834-7.205 0-2.834.533-7.205 5.834-7.205zm0-4.735c-8.963 0-11.863 5.394-11.863 11.94 0 6.546 2.897 11.94 11.863 11.94 8.967 0 11.864-5.392 11.864-11.94 0-6.548-2.9-11.94-11.864-11.94zm-23.15.001c-8.964 0-11.864 5.393-11.864 11.94 0 6.545 2.898 11.939 11.864 11.939h8.129v-4.735h-8.129c-5.302 0-5.834-4.371-5.834-7.205 0-2.834.532-7.205 5.834-7.205h8.129v-4.735h-8.129zm60.097-.007v.008h-8.129v4.735h8.129v-.006c3.469 0 4.895 1.874 5.467 3.961h-4.851c-7.45 0-9.86 3.36-9.86 7.437 0 4.078 2.41 7.437 9.86 7.437h2.818v-4.056h-2.818c-3.105 0-4.848-1.958-4.848-3.384 0-1.425 1.743-3.38 4.848-3.38h5.215v10.693h6.03V35.133c0-6.548-2.897-11.94-11.864-11.94h.003zm54.864 4.741c4.809 0 5.69 3.593 5.814 6.377h-11.628c.124-2.784 1.005-6.377 5.814-6.377zm0-4.734c-8.964 0-11.864 5.394-11.864 11.94 0 6.546 2.898 11.94 11.864 11.94h8.129v-4.735h-8.129c-3.563 0-4.97-1.976-5.512-4.13h17.373v-3.078c0-6.548-2.897-11.94-11.864-11.94l.003.003z" fill="#fff"/><path d="M0 0l15.432 8.952V0H0z" fill="#7586DD"/><path d="M14.429 17.555a14.352 14.352 0 00-10.205 4.247A14.497 14.497 0 000 32.055h15.432V17.592a14.883 14.883 0 00-1.003-.035v-.002z" fill="#fff"/><path d="M0 0v32.055c0-4.003 1.614-7.628 4.227-10.253a14.351 14.351 0 0111.207-4.212V8.952L0 0z" fill="#101841"/><path d="M15.432 17.592v14.463H0c0 4.003 1.614 7.628 4.227 10.253a14.353 14.353 0 0010.204 4.247c3.987 0 7.592-1.622 10.202-4.247a14.489 14.489 0 004.227-10.253c0-4.003-1.614-7.628-4.227-10.253a14.365 14.365 0 00-9.201-4.212v.002z" fill="#70ACCE"/><path d="M15.432 8.953v8.638a14.346 14.346 0 019.201 4.213 14.485 14.485 0 014.227 10.253c0 4.005-1.614 7.628-4.227 10.253-.408.41-.844.798-1.3 1.16L49.13 28.503 15.432 8.954zM0 32.055v24.944l19.797-11.484a14.311 14.311 0 01-5.368 1.037 14.351 14.351 0 01-10.205-4.247A14.487 14.487 0 010 32.055z" fill="#144DA0"/></g><defs><clipPath id="clip0_248_55235"><path fill="#fff" d="M0 0h260v57H0z"/></clipPath></defs></svg>