<svg width="200" height="150" fill="none" xmlns="http://www.w3.org/2000/svg"><path d="M78.033 135.106c40.202-2.939 58.506 29.731 88.73-9.847 20.938-27.415 17.816-72.668-4.57-99.044-16.89-19.895-37.485-29.582-53.631-12.123C92.417 31.547 71.888 35.544 54.363 40.81c-22.054 6.627-41.044 41.1-31.85 66.279 9.198 25.18 28.046 30.027 55.52 28.021v-.004z" fill="url(#paint0_linear_248_55003)"/><path d="M109.016 73.87s19.614-28.827 27.353-38.798c2.006-2.582 2.907-.463 2.827-.306-.693 1.382-29.768 41.86-29.768 41.86s-8.902 11.168-11.51 12.565c-.963.518-1.13-.022-1.408-.106-.277-.084.084-1.05 1.506-2.246 0 0 8.436-8.99 10.993-12.97h.007z" fill="#CDDAE7"/><path d="M94.798 44.488c.084 4.566 5.843 11.116 8.326 13.779 1.952 2.093 6.467 4.446 7.04 2.162.576-2.283-4.906-4.883-7.9-8.231-3.596-4.012-4.924-7.079-4.125-12.484.39-2.63 7.203-8.042 10.226-8.133-2.148 7.513-.346 12.768 1.255 16.273 1.058 2.316 2.969 4.508 5.208 2.914 2.24-1.593-.219-4.197-1.302-6.977-1.842-4.722-.708-8.705.215-11.145 1.065-2.812 6.135-4.526 10.891-3.403-3.648 4.373-1.945 11.747-.657 13.75 1.28 2.002 3.027.952 3.578-1.135.416-1.575 2.611-10.164 3.395-11.076 2.921-3.406 9.895-2.265 13.516-3.311.504 4.343 3.075 9.256.784 11.871-.795.908-8.238 6.353-9.635 7.342-1.846 1.305-2.189 3.202.321 3.468 2.509.266 10.533-1.287 13.399-6.123 3.042 3.544 4.811 9.125 2.447 11.16-2.053 1.765-6.947 3.049-12.385 3.413-3.202.22-7.728.205-8.407 2.736-.678 2.527 2.998 2.578 5.934 2.859 2.713.259 10.081-.686 16.678-5.536 1.138 2.578-1.207 9.562-3.479 11.2-3.319 2.382-8.042 3.614-14.683 1.853-4.53-1.204-9.202-4.286-11.237-2.882-2.039 1.412 2.706 3.68 5.781 5.026 2.706 1.185 15.204 2.436 17.239 1.025.234 4.216-3.446 8.224-6.703 9.8-5.004 2.425-10.157-.04-13.414-2.174-3.523-2.305-8.567-6.991-9.114-4.114-1.32 6.944 12.484 9.399 14.654 10.201-3.804 7.039-14.88 6.831-19.927-.562-3.068-4.49-1.252-9.38-3.287-11.411.474-.613 22-31.18 23.126-32.711 1.328-1.802 4.388-6.634 4.424-7.28-.623.292-4.194 4.822-5.441 6.67-1.065 1.569-23.381 31.935-23.804 32.58-2.842-.886-4.789 3.111-10.427 2.006-6.01-1.181-14.542-6.09-9.417-17.309 1.674 1.503 6.101 5.51 8.753 7.513 2.104 1.594 5.656 3.155 6.528 1.433 1.339-2.651-5.872-5.127-9.592-7.155-3.44-1.875-5.843-3.607-6.342-7.451-.281-2.145 3.286-9.373 7.556-10.438l.004.007zM81.755 135.08c23.486 0 42.526-2.067 42.526-4.617s-19.04-4.617-42.526-4.617c-23.485 0-42.524 2.067-42.524 4.617s19.038 4.617 42.524 4.617z" fill="#CDDAE7"/><path d="M103.489 72.502H50.293a4.183 4.183 0 00-4.184 4.183v49.466a4.183 4.183 0 004.184 4.183h53.196a4.184 4.184 0 004.184-4.183V76.685a4.184 4.184 0 00-4.184-4.183z" fill="#FF9A2E"/><path d="M110.483 72.502H57.287a4.183 4.183 0 00-4.184 4.183v49.466a4.183 4.183 0 004.184 4.183h53.196a4.183 4.183 0 004.183-4.183V76.685a4.183 4.183 0 00-4.183-4.183z" fill="#FFCB49"/><path d="M77.824 113.856l3.728-13.972c-1.974-.996-3.338-3.119-3.338-5.577 0-3.414 2.626-6.178 5.868-6.178 3.243 0 5.869 2.768 5.869 6.178 0 2.6-1.525 4.822-3.684 5.733l3.76 13.816H77.824z" fill="#FF9B2F"/><path d="M75.488 113.856l3.728-13.972c-1.974-.996-3.337-3.119-3.337-5.577 0-3.414 2.625-6.178 5.868-6.178 3.242 0 5.868 2.768 5.868 6.178 0 2.6-1.524 4.822-3.684 5.733l3.76 13.816H75.488z" fill="#3B2B5C"/><path d="M97.954 72.501V57.384c0-9.001-7.363-16.36-16.36-16.36-9.001 0-16.361 7.363-16.361 16.36v15.117h-5.909V56.527c0-12.247 10.023-22.27 22.27-22.27s22.269 10.023 22.269 22.27v15.974h-5.909z" fill="#3E3F44"/><path d="M100.91 58.719c0-10.93-8.939-20.052-20.832-22.182 12.167.496 21.846 8.724 21.846 18.8 0 2.087-.415 4.093-1.181 5.968.113-.85.171-1.715.171-2.59l-.004.004z" fill="#5D6079"/><path d="M135.467 122.538c2.17-4.326 3.738-10.883 4.278-18.491 3.457-5.321 5.861-13.585 6.408-23.086h-9.869a249.616 249.616 0 00-1.087 6.871c-1.889 13.079-2.622 25.209-2.309 34.702h2.575l.004.004z" fill="#1E2D54"/><path d="M154.315 100.879c.423-2.951.656-6.117.656-9.417 0-3.819-.309-7.462-.871-10.792h-13.217c1.429 6.437 4.059 14.296 7.688 22.47 3.585 8.067 7.553 15.106 11.259 20.296l2.556-1.364a63.973 63.973 0 00-2.939-10.518c-1.474-3.972-3.235-7.575-5.139-10.672l.007-.003z" fill="#153F5E"/><path d="M138.276 62.347c.452-.803.835-1.605 1.149-2.382l-5.274-2.99c-.398.55-.784 1.145-1.149 1.787-.857 1.502-1.477 3.016-1.831 4.365a48.945 48.945 0 00-1.163-.303c-5.212-1.258-9.639-1.287-9.884-.065-.248 1.218 3.779 3.228 8.994 4.482.317.077 2.578 1.102 3.76.868 1.182-.233 3.191-1.83 5.405-5.762h-.007z" fill="#EA9F87"/><path d="M121.046 60.922s-.252-.496-.558-.051c-.365.521-.887.572-1.346-.063-.234-.32-.562-.755-.996-1.582-.094-.482-.405-.544-.481-.274-.263.934-.16 2.043.751 3.294.912 1.254 1.849 1.848 2.549 1.243.555-.481.562-1.532.084-2.567h-.003z" fill="#EA9F87"/><path d="M155.588 60.167l4.289-2.364c-.153-4.777-4.191-8.778-9.665-10.037-.565 1-1.944 1.71-3.559 1.71-1.616 0-3.035-.728-3.586-1.753-5.182 1.123-9.114 4.69-9.77 9.07l5.248 2.502c-.058 7.112-4.282 19.11-3.348 20.723 1.025 1.769 17.988 2.122 19.446 1.769 1.456-.354-1.119-16.77-.171-21.54l1.112-.08h.004z" fill="#729EDB"/><path d="M160.994 59.813c-.368-.923-.78-1.78-1.21-2.557l-5.628 3.224c.201.715.442 1.451.733 2.192.686 1.74 1.521 3.257 2.389 4.42-.317.303-.635.61-.956.93-4.194 4.223-6.922 8.447-6.094 9.428.828.98 4.902-1.649 9.096-5.872.255-.259 2.458-1.794 2.994-3.07.533-1.277.478-4.177-1.327-8.695h.003z" fill="#EFB495"/><path d="M149.32 75.442s-.551-.066-.383.503c.197.668-.08 1.196-.872 1.251-.401.03-.952.077-1.878-.015-.445-.204-.686.059-.514.296.591.82 1.542 1.4 3.103 1.295 1.561-.106 2.616-.642 2.557-1.682-.047-.824-.886-1.47-2.013-1.648z" fill="#EFB495"/><path d="M149.666 48.981a6.78 6.78 0 01-3.02.704 6.785 6.785 0 01-3.407-.916c.391-.674.628-1.55.628-2.512 0-1.31-.438-2.466-1.105-3.159v-1.641h4.033c.179 3.056 1.266 5.737 2.871 7.524z" fill="#EA9F86"/><path d="M141.895 39.767c.368-2.02 2.399-1.652 3.884-1.33.952.204 1.776.54 2.137 1.728.215-.197.445.336.686.398.499.127.766.39.602 1.16-.168.769-.705 1.754-1.204 1.626-.026-.007-.044-.022-.069-.03-.175.617-.084 1.157-.456 1.587-.73.85-2.137 1.317-3.071 1.331-3.045.04-2.874-4.449-2.506-6.47h-.003z" fill="#EBB190"/><path d="M140.428 37.168c.248-1.641 3.494-2.257 5.923-1.962l.485.058s1.178.245 1.969 1.237c.817 1.021 1.248 2.812 1.109 4.249-.153 1.604-1.065 2.706-1.816 2.742a.44.44 0 01-.398-.2c.267-.084.536-.314.719-.646.31-.562.255-1.2-.117-1.422-.306-.186-.729-.033-1.043.332-.251-1.244-.773-2.557-2.976-2.163-2.411.434-4.107-.58-3.859-2.221l.004-.004z" fill="#1C3054"/><path d="M133.096 124.249l1.71.572.887-3.158-2.017-.675-.58 3.261z" fill="#EA9F88"/><path d="M136.557 126.56l-.74-2.279s-1.094.266-1.761.156c-.668-.109-.668-.776-.93-1.214h-.89s-1.171 2.265-3.465 2.83h-1.721c-.402 0-.73.525-.73 1.171v.518h7.232l.365-.693h.204v.693h2.571v-.518c0-.245-.047-.471-.127-.66l-.008-.004z" fill="#16415D"/><path d="M160.788 124.915l1.784-.153-.237-3.293-2.101.182.554 3.264z" fill="#EA9F88"/><path d="M164.789 125.679l-1.459-1.824s-.93.686-1.586.85c-.661.164-.879-.456-1.277-.758l-.828.357s-.324 2.575-2.272 4.023l-1.601.689c-.372.161-.5.781-.285 1.379l.175.485 6.726-2.9.106-.791.189-.08.234.645 2.392-1.032-.175-.485a1.61 1.61 0 00-.339-.562v.004z" fill="#16415D"/><path d="M28 59.195v3.625h.784v-3.625c0-.263-.175-.474-.39-.474-.215 0-.39.212-.39.474H28zm.002 15.845c0 .262.175.474.39.474.215 0 .39-.212.39-.474v-3.407h-.784v3.407h.004zM20 67.119c0 .215.212.39.474.39H24.1v-.784h-3.625c-.262 0-.474.175-.474.39v.004zm16.316-.39H32.91v.784h3.407c.262 0 .474-.175.474-.39 0-.216-.212-.39-.474-.39v-.004zm-13.798-4.936l2.564 2.564.554-.554-2.564-2.564c-.186-.186-.46-.212-.613-.059-.153.154-.127.427.059.613zm11.203 11.204c.186.186.46.211.613.058.153-.153.128-.427-.058-.613l-2.411-2.41-.554.554 2.41 2.41zm-11.261.061c.152.153.426.127.612-.059l2.564-2.563-.554-.555-2.564 2.564c-.186.186-.212.46-.059.613zm11.261-11.819l-2.41 2.41.554.555 2.41-2.411c.187-.186.212-.46.059-.613-.153-.153-.427-.127-.613.059z" fill="#E5803C"/><path d="M75.49 24.666a6.485 6.485 0 100-12.969 6.485 6.485 0 000 12.97z" fill="#EAF0F9"/><defs><linearGradient id="paint0_linear_248_55003" x1="100.496" y1="5" x2="100.496" y2="145" gradientUnits="userSpaceOnUse"><stop stop-color="#F6FBFF"/><stop offset="1" stop-color="#EAF0F9"/></linearGradient></defs></svg>