<svg width="200" height="150" fill="none" xmlns="http://www.w3.org/2000/svg"><path d="M10.587 104.72C-.491 87.178.499 30.755 55.22 25.993c15.7-1.366 35.099 9.678 47.582 4.676 12.488-5.003 16.899-17.603 41.72-17.669 24.819-.066 33.273 18.694 30.176 34.146-3.097 15.451 11.649 17.847 12.344 30.493.636 11.567-17.165 16.99-24.256 27.267-7.093 10.276-7.96 28.299-26.81 31.482-21 3.547-23.535-19.919-51.231-11.991-30.61 8.761-60.186 2.448-74.158-19.677z" fill="url(#paint0_linear_248_54406)"/><path d="M90 46.1c0-.205 0-.41-.01-.609 0-.09-.007-.175-.01-.261-.007-.159-.01-.318-.02-.47-.007-.132-.017-.258-.027-.387-.007-.103-.013-.209-.023-.311-.02-.228-.043-.45-.07-.662-.344.483-.688.976-1.029 1.476-.122.178-.241.36-.363.542-.219.328-.44.659-.656.993l-.387.609c-.205.324-.413.652-.615.982a104.72 104.72 0 00-.976 1.641c-.05.083-.1.166-.15.252.01-.017.024-.036.037-.056-3.027 5.27-5.386 10.942-5.935 15.921v-.086c-.017.142-.024.278-.037.417l-.03.328a18.35 18.35 0 00-.053 1.035.162.162 0 00-.072.063c-.407.79-.788 1.592-1.261 2.346a214.304 214.304 0 00-3.084-4.351c.407-.943.854-1.906.933-2.922.136-.172.268-.344.39-.519.047-.066.09-.136.136-.202.103-.152.202-.304.298-.46l.139-.231c.09-.156.175-.315.261-.477.037-.073.077-.142.113-.215.112-.228.222-.46.318-.695l.016-.04c.093-.224.179-.45.258-.678l.08-.241a13.767 13.767 0 00.225-.771l.05-.182a.162.162 0 00-.014.036c1.32-5.25-.298-11.52-2.266-16.55 0-.006-.004-.01-.007-.016a61.555 61.555 0 00-1.466-3.425c-.033-.076-.07-.149-.102-.221a84.994 84.994 0 00-.43-.904c-.103.258-.2.516-.288.781-.04.12-.076.238-.116.358-.05.148-.1.297-.146.446-.04.13-.072.258-.109.387a9.743 9.743 0 00-.122.444c-.033.125-.063.251-.093.377-.04.159-.076.314-.112.473-.027.119-.05.242-.077.36-.036.17-.069.338-.102.507-.023.116-.04.231-.06.347-.03.179-.063.354-.089.536l-.05.341c-.026.182-.052.364-.076.55l-.04.347c-.02.182-.04.36-.056.546-.003.043-.01.086-.013.125a37.572 37.572 0 00.02 6.684v-.01a51.941 51.941 0 00.076.758c.007.056.01.112.017.168.026.248.06.497.092.745.007.046.01.092.017.139.033.258.072.513.112.764.007.036.01.07.017.106.043.265.086.53.132.79.004.024.007.047.013.074.05.27.1.539.153.804 0 .016.006.03.01.046.056.271.112.542.171.81 0 .01.004.017.007.027.6 2.673 1.443 5.082 2.432 6.962-.08.923-.463 1.8-.84 2.656-1.35-1.84-2.747-3.642-4.242-5.38-.126-.258-.255-.51-.38-.777-.1-.209-.202-.42-.302-.635-.116-.242-.228-.487-.344-.735a434.42 434.42 0 01-1.002-2.167v.003c-1.251-2.706-2.644-5.668-4.374-8.602a39.184 39.184 0 00-5.724-7.445c.01.007.02.017.03.023-.067-.07-.136-.135-.203-.202l-.152-.152a55.458 55.458 0 00-.79-.764l-.14-.13a34.984 34.984 0 00-.833-.747 40.192 40.192 0 00-.953-.784 25.55 25.55 0 00-.741-.563c-.06-.043-.116-.086-.175-.125a24.652 24.652 0 00-.732-.503c-.036-.023-.076-.046-.112-.073-.225-.146-.45-.281-.669-.41l-.119-.07a11.379 11.379 0 00-.681-.36c-.05-.023-.1-.05-.146-.073a9.573 9.573 0 00-.642-.285l-.112-.043a9.003 9.003 0 00-.636-.215c.07.219.146.453.222.695.01.033.02.063.033.096.07.208.14.427.215.652l.056.165c.087.252.172.51.268.778.04.112.083.228.123.344l.152.423c.03.083.056.163.09.245 0-.006 0-.013-.004-.02 1.78 4.801 5.062 11.71 11.574 17.675-.02-.013-.036-.03-.056-.043.112.103.228.206.344.308l.288.258c.248.218.503.437.76.652.064.053.123.106.186.159.33.271.665.542 1.01.81.042.034.092.07.135.103.294.228.595.453.903.675a38.578 38.578 0 001.102.774c.109.073.218.15.33.222.282.188.57.374.86.556l.299.188c.225.14.453.275.681.41a85.77 85.77 0 013.183 3.938c-1.025-.354-1.992-.741-2.875-1.4a11.33 11.33 0 00-.632-.694c-.056-.06-.109-.12-.169-.176 0 .01.014.023.02.033-4.477-4.486-12.897-7.196-18.482-8.543-.801-.195-1.75-.344-2.72-.463l-.169-.02a46.906 46.906 0 00-.946-.102l-.328-.03c-.096-.01-.191-.017-.284-.027-.1-.01-.199-.016-.298-.026l-.513-.04-.238-.016c-.109-.007-.215-.017-.321-.023a67.678 67.678 0 01-.569-.033c-.05 0-.103-.007-.149-.01-.152-.01-.297-.017-.437-.024-.05 0-.096-.003-.145-.006l-.281-.014c-.037 0-.073 0-.11-.003-.105-.003-.205-.01-.294-.013h-.03a20.11 20.11 0 01-.251-.01h-.056c-.05 0-.09 0-.12-.003h-.072a7.6 7.6 0 00.334.522c.036.057.08.11.119.163.093.129.195.258.298.383.04.05.079.103.122.153.139.165.288.327.447.49l.172.171c.112.113.228.225.347.334l.228.209c.116.106.239.208.361.31.149.127.305.252.467.378.082.063.159.13.245.192 0 0-.004-.007-.007-.007 4.917 3.742 13.622 6.806 19.908 7.445h-.003.033l.242.02c.201.02.4.033.595.046.093.007.182.01.275.017.195.01.387.02.576.023.069 0 .142.003.211.007.258.003.513.003.758 0h.05c.225-.007.446-.02.658-.037a11.385 11.385 0 00.688-.076c.057-.007.113-.017.169-.023.116-.02.231-.04.34-.063.953.648 1.996 1.035 3.098 1.406.023.007.046.01.066.007a166.23 166.23 0 013.927 5.433c-.724.076-1.449.188-2.174.225a33.257 33.257 0 00-1.154-.477 37.815 37.815 0 00-1.314-.483.044.044 0 01-.02-.007h.004c-4.298-1.475-9.589-2.415-14.492-2.607-3.187-.245-6.982.288-10.125.616-.702.07-1.42.178-2.127.32l.013-.003c-.258.05-.513.106-.765.166-.076.016-.152.04-.231.056-.215.053-.43.11-.642.165-.09.023-.179.05-.268.076a32.68 32.68 0 00-.675.206l-.149.046a20.972 20.972 0 00-.973.354 11.775 11.775 0 00-.75.32c-.226.103-.447.21-.65.319.371.142.748.29 1.126.443l1.306.523c.047.02.093.036.14.053.4.158.803.314 1.21.463.024.01.047.016.073.026a34.017 34.017 0 001.314.46 20.57 20.57 0 003.02.758c3.21.53 5.814.718 8.891 1.036a43.787 43.787 0 0014.42-1.632c-.043.017-.08.033-.126.05.238-.066.476-.146.714-.215.222-.066.447-.132.672-.202.52-.162 1.042-.337 1.562-.523.79-.04 1.578-.175 2.376-.245.592.85 1.18 1.704 1.773 2.561-.755.215-1.502.437-2.26.626-.397.003-.807.013-1.224.023l-.543.02c-.258.01-.516.02-.78.036a39.67 39.67 0 00-1.42.096l-.61.05a3.27 3.27 0 01-.177.013h.026c-4.666.443-10.068 1.611-15.256 4.328.016-.01.03-.017.043-.027-.212.11-.42.239-.633.354-.354.196-.708.384-1.062.593-.258.152-.509.324-.764.486-.31.198-.625.387-.936.599-.357.245-.708.51-1.062.77-.202.15-.407.289-.61.444-.552.43-1.098.88-1.637 1.357.126.06.258.112.394.158.046.017.1.033.145.05.09.03.176.06.268.086.06.017.123.033.186.046.083.02.165.043.251.06l.205.04a6.5 6.5 0 00.248.043l.219.03c.083.01.165.02.248.026l.232.02.251.016.245.01c.083 0 .165 0 .248.004h.258c.08 0 .159-.004.238-.007.093 0 .186-.003.282-.01.06 0 .119-.007.178-.013.404-.027.817-.066 1.234-.123l.146-.02c.13-.016.258-.04.387-.059.05-.007.1-.017.152-.023l.397-.07c.05-.01.096-.016.146-.026.136-.027.274-.053.413-.083.04-.01.083-.016.123-.026.146-.03.294-.063.44-.096l.08-.02c.162-.036.32-.076.483-.116h.006l.397-.1h-.013c2.531-.664 5.023-1.63 6.885-2.464a116.301 116.301 0 004.252-1.992c.03-.016.063-.03.093-.046.3-.15.605-.301.906-.457l.056-.03c.288-.145.573-.294.857-.443l.259-.139c.221-.12.443-.238.661-.357.086-.05.176-.096.262-.146.245-.136.486-.271.724-.41l.142-.083c.285-.165.563-.33.834-.5.05-.03.096-.06.146-.089.215-.132.424-.265.622-.397.073-.05.145-.096.218-.145.179-.12.351-.239.516-.358.067-.046.13-.093.192-.139.215-.155.424-.314.612-.466.791-.196 1.572-.434 2.356-.652h.003c.46.668.92 1.333 1.384 2.002.483.698 1.085 1.565 1.763 2.554-.016 0-.036 0-.053.007-.847.287-1.684.592-2.452 1.075-.28.096-.578.188-.886.275-.05.013-.1.03-.153.043-.3.082-.612.158-.93.231-2.666.616-5.862.996-8.404 2.283-2.18 1.135-5.363 3.464-8.063 5.784 0 0 0-.004.004-.007-.017.013-.03.026-.047.04-.073.063-.142.122-.211.185l-.493.43-.298.268-.4.364c-.096.086-.19.175-.282.261-.205.19-.404.378-.592.563-.066.063-.126.126-.189.189-.139.135-.274.27-.403.403-.073.076-.143.15-.215.222l-.348.367a25.845 25.845 0 00-.629.708c.21.06.42.106.636.146.093.016.192.026.285.04.122.016.248.036.373.046.113.01.225.013.338.016a5.772 5.772 0 00.698.004c.112-.004.225-.007.34-.017.12-.01.242-.023.365-.036.115-.013.234-.023.35-.04a7.09 7.09 0 00.368-.06c.122-.02.241-.043.364-.066.122-.023.244-.053.367-.08.126-.029.251-.059.38-.092.123-.033.242-.063.364-.099l.176-.046c-.01 0-.023 0-.03.003 3.775-1.122 7.898-3.825 11.346-6.61l-.007.006c.01-.007.02-.017.03-.023a56.5 56.5 0 00.797-.655c.07-.06.139-.116.208-.176.199-.168.394-.334.586-.5l.232-.201c.188-.166.374-.328.555-.493l.192-.172c.235-.212.467-.424.692-.632l.01-.01c.231-.215.453-.427.671-.635.057-.057.113-.11.17-.163.151-.148.303-.294.45-.44a43.405 43.405 0 00.596-.599l.168-.172c.175-.181.347-.36.506-.532a.089.089 0 00.036-.017c.774-.51 1.631-.8 2.485-1.095.05-.017.08-.05.09-.086L85.512 81c-.004.007-.01.007-.014.013-.456.92-.88 1.9-1.588 2.657-.192.063-.384.132-.582.209-.056.02-.113.043-.169.062-.258.103-.523.212-.794.331-.06.027-.122.056-.185.083a18.54 18.54 0 00-.827.394c-.017.01-.037.016-.053.026a37.739 37.739 0 00-1.06.563c-.29.162-.588.33-.883.51-.06.032-.115.069-.175.105-.31.189-.622.38-.933.582 0 0-.003 0-.007.004-.317.205-.635.42-.953.642-.056.04-.109.076-.165.112a40.29 40.29 0 00-.972.702c-2.135 1.588-4.216 3.464-5.947 5.462.01-.01.017-.023.027-.036-.056.066-.112.132-.169.202-.076.092-.155.182-.231.274-.093.113-.186.222-.275.334l-.228.288c-.086.113-.172.222-.258.334l-.219.292-.241.334c-.07.096-.136.195-.202.291-.076.112-.156.225-.232.34-.063.097-.125.196-.185.292-.073.116-.145.228-.215.344a24.402 24.402 0 00-.367.635c-.06.11-.116.215-.172.325-.053.102-.113.208-.163.31-.105.212-.204.42-.297.632.215-.079.44-.165.672-.25.073-.027.145-.057.221-.087.166-.066.338-.132.51-.202l.245-.099c.238-.096.476-.195.724-.301l.189-.083c.192-.083.387-.169.582-.255.106-.046.212-.096.321-.142.166-.076.33-.152.5-.228a39.296 39.296 0 001.376-.668c.182-.093.364-.183.546-.278.116-.06.232-.12.347-.183.18-.095.358-.191.537-.287.076-.04.148-.08.224-.123l-.023.01c3.597-1.995 7.18-4.655 9.07-7.888.082-.142.165-.288.241-.43a15.503 15.503 0 00.288-.589 8.858 8.858 0 00.284-.692l.06-.155c.063-.182.119-.364.172-.55.02-.069.036-.138.056-.21.036-.143.07-.285.1-.428.013-.07.03-.135.039-.205.026-.145.046-.29.066-.437.708-.744 1.145-1.707 1.592-2.623a1369.3 1369.3 0 015.181 7.603c-.642.616-1.353 1.128-2.058 1.661-.413.073-.83.152-1.247.235a28.782 28.782 0 00-1.456.337c-.07.017-.139.03-.208.05h.016c-1.83.49-3.686 1.208-5.608 2.419-3.21 2.021-5.903 4.241-8.612 7.173.023-.027.05-.056.069-.083l-.199.219a71.962 71.962 0 00-1.29 1.455c.142.033.288.063.433.09l.1.02c.152.026.304.053.46.072h.026c.149.02.3.033.453.047.033 0 .07.006.103.006.165.01.33.017.503.02h.06c.155 0 .314-.006.476-.016.036 0 .073-.004.106-.007.178-.013.36-.033.549-.06.03-.003.06-.009.09-.013a10.448 10.448 0 00.625-.119c.198-.046.403-.099.612-.162l.036-.01h-.013a11.98 11.98 0 001.833-.738c3.967-1.982 8.457-5.046 11.147-8.89l-.01.02c.01-.014.016-.027.026-.04.169-.242.328-.486.48-.735.037-.06.08-.119.116-.178.172-.285.33-.573.48-.864.708-.536 1.419-1.052 2.067-1.667 4.61 6.812 9.371 13.992 11.422 17.536.146.251.513-.04.371-.288-1.522-2.631-4.702-7.54-8.163-12.749.89-.433 1.813-.866 2.525-1.591a.138.138 0 00.03-.046c.026 0 .053-.007.076-.01.307-.08.605-.172.897-.275l.142-.05c.278-.099.545-.208.803-.324l.146-.066c.262-.12.52-.248.768-.384.02-.013.043-.023.063-.036.238-.133.466-.268.691-.414.037-.023.073-.043.106-.066.172-.112.337-.225.503-.344l-.053.03c2.835-2.019 4.589-4.854 6.072-6.436 2.365-2.524 3.397-5.237 4.019-7.395.189-.651.341-1.257.48-1.786a1.83 1.83 0 00-.344.036l-.102.02a3.16 3.16 0 00-.387.11 3.649 3.649 0 00-.398.161l-.128.06c-.106.05-.216.106-.325.169l-.129.069c-.142.083-.288.169-.437.265-.049.03-.095.066-.145.096-.113.076-.225.152-.341.235-.056.04-.112.079-.169.122a14.23 14.23 0 00-.47.357l-.132.106c-.129.103-.258.209-.39.318-.06.05-.12.102-.182.152-.149.13-.302.262-.454.397-.023.02-.046.04-.069.063-.182.162-.364.334-.546.506-.04.04-.083.076-.122.116-.209.198-.414.397-.626.605.007-.003.01-.01.017-.013-2.243 2.24-4.576 5.102-6.316 7.703 0-.003.006-.01.006-.013l-.06.089a.72.72 0 00-.052.083c-.014.02-.027.036-.037.056l-.006.007a21.53 21.53 0 00-.381.588c-.003.007-.01.014-.013.02a.757.757 0 00-.04.063c0 .004-.006.007-.006.013-.047.07-.09.14-.133.209 0 0 0 .007-.006.01-.047.076-.09.149-.136.221-.06.096-.116.19-.172.285-.026.043-.056.09-.08.132a.1.1 0 01-.016.024 6.919 6.919 0 01-.11.192c-.003.006-.006.01-.006.013l-.09.159-.049.086c-.03.056-.063.109-.093.165 0 .007-.006.016-.013.023-.033.056-.063.116-.092.172-.007.014-.014.023-.02.033-.03.06-.063.12-.093.179-.003.003-.003.01-.007.013l-.099.195v.004l-.09.178-.019.04c-.023.05-.05.096-.07.146l-.02.04c0 .003-.003.01-.006.013l-.023.05-.05.108-.08.18c-.006.009-.009.019-.012.029l-.06.136a.345.345 0 01-.02.043 1.406 1.406 0 01-.053.125.203.203 0 01-.016.04c-.043.106-.083.212-.123.314a.217.217 0 00-.013.043.165.165 0 00-.013.043c-.007.017-.01.033-.017.047 0 .006-.006.016-.006.023-.007.016-.014.03-.017.046-.013.037-.023.076-.036.113a.27.27 0 01-.013.036l-.043.142a.062.062 0 01-.007.023c-.013.04-.02.077-.033.113l-.01.046c-.007.03-.017.06-.023.093 0 .013-.007.026-.01.04-.01.036-.017.07-.023.105 0 .007 0 .017-.004.024-.006.043-.013.082-.02.122a.08.08 0 01-.006.03l-.01.09v.036a.37.37 0 01-.007.066c-.704.698-1.605 1.111-2.471 1.538a892.999 892.999 0 00-3.809-5.677c.695-.652 1.268-1.407 1.886-2.128.278-.149.55-.301.814-.453.09-.05.176-.103.262-.152.367-.215.728-.437 1.075-.662.063-.04.122-.083.185-.123.318-.208.632-.423.94-.638l.172-.12c.338-.24.665-.486.99-.737.069-.056.142-.11.211-.165.308-.242.616-.487.917-.742a67.28 67.28 0 003.325-3.004c.791-.754 1.393-1.35 1.919-1.959-.003.007-.01.014-.013.02.036-.04.069-.083.102-.122l.109-.13c.109-.132.219-.27.325-.41.029-.04.059-.079.089-.122.106-.145.212-.294.314-.45.027-.04.053-.083.08-.122.106-.162.211-.334.321-.513l.059-.103c.116-.198.232-.403.351-.625 1.112-2.071 1.694-3.98 1.84-5.757a36.638 36.638 0 00-3.527 1.992 8.89 8.89 0 00-.421.288 14.35 14.35 0 00-.463.354l-.126.099a13.45 13.45 0 00-.453.384l-.007.006c-.162.142-.33.295-.496.447l-.099.093a18.97 18.97 0 00-.407.387l-.109.105c-.153.15-.305.302-.457.454-.01.013-.023.023-.033.033a35.612 35.612 0 00-.622.648c-.103.106-.202.215-.301.321-.033.037-.07.073-.103.11.004 0 .007-.007.01-.01a52.488 52.488 0 00-1.813 2.06 22.518 22.518 0 00-2.67 3.71c0-.007.007-.01.007-.017a45.087 45.087 0 00-2.065 4.331c0 .004 0 .007-.003.01-.146.351-.288.705-.43 1.063-.613.707-1.172 1.455-1.853 2.1a920.96 920.96 0 00-3.868-5.677c.695-.659 1.27-1.416 1.899-2.141 1.118-.394 3.61-1.783 6.25-3.97l.126-.103c.136-.112.271-.232.407-.347.082-.073.165-.143.248-.215l.301-.272c.103-.092.209-.185.311-.281-.003 0-.01.007-.013.01 1.75-1.621 3.467-3.573 4.807-5.8 0 0 0 .006-.003.006a20.85 20.85 0 00.92-1.707c.033-.066.06-.135.093-.205.102-.225.205-.447.301-.675.089-.218.172-.437.251-.658.03-.083.066-.162.096-.245.434-1.228.728-2.511.85-3.851a32.13 32.13 0 00-1.753 1.184c-.437.314-.867.639-1.284.97-.086.066-.165.138-.251.205a33.66 33.66 0 00-1.046.886c-.1.09-.202.176-.298.262-.38.344-.748.691-1.105 1.045-.1.096-.192.195-.288.291-.304.308-.602.622-.886.933l-.206.222c-.01.013-.023.023-.033.037 0 0 .01-.01.017-.014a28.671 28.671 0 00-2.902 3.825 695.964 695.964 0 00-4.278 6.892c-.03.05-.06.1-.09.146-.059.099-.119.195-.171.284-.043.073-.086.142-.126.212-.036.063-.073.122-.106.179l-.112.188c-.03.053-.057.1-.087.146-.026.043-.053.093-.076.132l-.01.007c-.645.728-1.22 1.505-1.922 2.174a369.94 369.94 0 00-3.894-5.572c.579-.814 1.244-1.572 1.76-2.425.003-.007 0-.014.003-.02.189-.12.378-.245.566-.374l.199-.14c.244-.171.49-.347.734-.535l.05-.04c.241-.185.486-.38.728-.579.066-.056.135-.112.201-.169.255-.215.513-.433.768-.661l.02-.02a37.04 37.04 0 00.94-.877 37.561 37.561 0 001.697-1.757c3.428-3.785 6.383-8.593 7.031-12.884v.01c.003-.026.003-.053.01-.083.04-.274.07-.546.09-.814.006-.096.012-.188.016-.284.016-.298.023-.593.01-.884a2.863 2.863 0 00-.315.14c-.03.016-.063.032-.092.049a3.87 3.87 0 00-.361.218c-.08.053-.159.106-.241.169-.043.03-.083.063-.126.096a11.21 11.21 0 00-.255.202l-.129.106c-.093.08-.189.165-.285.251-.036.033-.072.063-.109.1a14.58 14.58 0 00-.407.39c-.129.126-.258.261-.39.397 0 0 .007-.003.007-.007-1.618 1.698-3.485 4.209-5.222 6.962 0-.004.004-.007.007-.01a2.11 2.11 0 00-.066.109c-.1.159-.199.32-.301.48-.053.083-.103.169-.156.251a30.85 30.85 0 00-.29.483l-.15.252c-.099.165-.195.33-.29.496-.047.076-.09.152-.133.232-.1.175-.202.347-.302.522-.026.05-.052.1-.082.146a64.16 64.16 0 00-1.062 1.969c-.01.023-.023.043-.033.066a19.99 19.99 0 00-.268.536c-.037.073-.073.142-.106.215-.08.162-.159.324-.235.486-.04.086-.083.169-.122.255-.073.156-.146.308-.216.46l-.125.275c-.067.145-.133.29-.196.436-.043.096-.082.192-.125.288-.06.14-.12.278-.176.417-.043.1-.082.199-.122.298-.053.132-.106.261-.156.394l-.119.31c-.046.12-.092.242-.135.361-.043.12-.083.239-.126.358-.033.099-.07.198-.103.297-.05.15-.095.298-.138.444-.017.01-.037.013-.05.036-.503.83-1.142 1.569-1.71 2.356-1.321-1.84-2.602-3.7-3.885-5.552.506-.797.91-1.644 1.343-2.485l.546-.145a6.97 6.97 0 00.81-.295c.087-.036.173-.08.259-.119a6.95 6.95 0 00.79-.427c.18-.112.355-.231.53-.357.066-.046.132-.093.195-.14 4.95-3.8 7.044-13.439 7.031-19.94V46.1H90z" fill="#D9E7F4"/><path d="M172.261 48.338h-94.85a4.417 4.417 0 00-4.417 4.417v62.107a4.417 4.417 0 004.417 4.417h94.85a4.416 4.416 0 004.417-4.417V52.755a4.417 4.417 0 00-4.417-4.417z" fill="#C5DAEF"/><path d="M172.261 48.848h-94.85a4.431 4.431 0 00-4.417 4.417v56.39h103.684v-56.39a4.43 4.43 0 00-4.417-4.417z" fill="#2F61A8"/><path d="M135.492 119.279h-21.308v9.354h21.308v-9.354z" fill="#7AA9D7"/><path d="M173.043 52.754H76.635v52.492h96.408V52.754z" fill="#D7E7F5"/><path d="M126.787 112.266h-3.9a1.558 1.558 0 100 3.116h3.9a1.558 1.558 0 100-3.116z" fill="#7AA9D7"/><path d="M144.326 132.011v-.519a2.869 2.869 0 00-2.859-2.859h-33.262a2.868 2.868 0 00-2.859 2.859v.519h38.98z" fill="#C5DAEF"/><path d="M168.254 103.112c0 .215-.433.387-.963.39l-83.69.417c-.532 0-.966-.165-.97-.38l-.297-46.011c0-.212.43-.387.963-.39l83.69-.417c.532 0 .966.168.969.38l.298 46.011z" fill="#fff"/><path d="M92.298 71.021l2.71 1.78a4.25 4.25 0 013.848-3.93l1.773-2.697-1.806-2.746c-5.056.218-9.106 4.314-9.255 9.386l2.733-1.796-.003.003z" fill="#729EDB"/><path d="M101.33 66.175l-1.767 2.69a4.254 4.254 0 013.921 3.914l2.71 1.78 2.729-1.793c-.175-5.1-4.294-9.199-9.4-9.344l1.81 2.753h-.003z" fill="#083E7F"/><path d="M97.086 80.07l1.797-2.732a4.253 4.253 0 01-3.868-3.829L92.3 71.723l-2.727 1.793c.212 5.03 4.262 9.066 9.294 9.261l-1.78-2.71v.004z" fill="#F4A82F"/><path d="M106.194 75.268l-2.713-1.784a4.25 4.25 0 01-3.891 3.859l-1.797 2.732 1.78 2.71c5.075-.168 9.158-4.242 9.35-9.31l-2.729 1.793z" fill="#fff"/><path d="M151.723 69.06l-.223 29.668 2.227.017.222-29.668-2.226-.017z" fill="#729EDB"/><path d="M148.491 74.87l-.179 23.839 2.227.017.179-23.839-2.227-.016zm9.644-10.5l-.258 34.41 2.227.016.258-34.41-2.227-.016z" fill="#F4A82F"/><path d="M154.828 80.32l-.139 18.436 2.227.017.138-18.436-2.226-.017zm-9.705 6.9l-.086 11.462 2.227.016.086-11.46-2.227-.017z" fill="#083E7F"/><path d="M136.375 68.03l-23.994.32-.033-2.16 23.991-.32.036 2.16zm2.009 2.941l-25.957.348-.013-.927 25.957-.347.013.926zm.029 1.93l-25.956.348-.014-.924 25.957-.35.013.926zm.03 1.909l-25.957.347-.013-.927 25.953-.347.017.926zm.031 1.93l-25.957.348-.013-.926 25.953-.348.017.927zm.029 2.052l-25.953.351-.017-.927 25.957-.347.013.923zm-2.744 1.969l-23.18.311-.017-.926 23.181-.308.016.923zm2.276 6.714l-46.834.626-.013-.924 46.834-.628.013.926zm.031 1.854l-46.838.625-.013-.926 46.838-.626.013.927zm.03 2.021l-46.835.629-.013-.927 46.834-.628.014.926zm.028 1.852l-46.837.625-.014-.926 46.838-.626.013.927zm.031 1.919l-46.837.626-.013-.923 46.837-.629.013.927zm.027 1.854l-46.835.626-.013-.927 46.834-.625.014.926z" fill="#BFD7E8"/><path d="M61.612 46.951l-8.235 5.956s-.182.8-1.092.404c-.573-.252-4.765-1.387-7.779-2.188l-2.776-.896-.258.092-.08-.02.02.044 3.491 6.958 1.74.036 7.604.844s1.171-.493 1.452-1.003c.282-.51 8.328-7.616 8.328-7.616l-2.412-2.607-.003-.004z" fill="#F29B00"/><path d="M40.283 42.918s-.473-8.12 1.79-8.964c2.263-.843 3.891 3.097 3.891 3.097s1.122 1.88 1.367 3.597c.244 1.72-.49 2.574-.49 2.574s-2.978.245-3.855 2.673c-.877 2.429.216 9.195.216 9.195s-6.621-2.018-4.563-5.095c1.78-2.664 1.64-7.074 1.64-7.074l.004-.003z" fill="#314572"/><path d="M40.94 48.698c3.15-6.98 3.845-13.478 1.55-14.514-2.295-1.036-6.71 3.782-9.862 10.762-3.151 6.98-3.846 13.478-1.55 14.514 2.294 1.036 6.71-3.782 9.861-10.762z" fill="#314572"/><path d="M30.805 132.176l7.623.771-4.96-3.633v-5.615H31.41l-.122 4.626-.483 3.851z" fill="#F3C6A0"/><path d="M32.862 131.955s3.104.261 4.358.413c2.481.301 4.053 1.512 4.053 1.512h-4.176l-4.235-1.224v.893h-1.995v-2.365l1.995.771z" fill="url(#paint1_linear_248_54406)"/><path d="M45.828 131.942l7.623.767-4.96-3.629v-5.615h-2.057l-.12 4.622-.486 3.855z" fill="#F3C6A0"/><path d="M47.888 131.72s3.103.262 4.357.414c2.482.301 4.053 1.512 4.053 1.512h-4.175l-4.235-1.224v.893h-1.995v-2.366l1.995.771z" fill="url(#paint2_linear_248_54406)"/><path d="M50.216 125.496l-4.788.258-1.508-16.268-1.357-5.774-.668-5.727-2.058 5.787-4.92 21.989h-4.04l1.029-14.73 1.413-10.734 1.148-19.752 8.679-.705 5.006-.682 2.064 46.338z" fill="#2F61A8"/><path d="M33.432 58.994l3.867-10.773 5.566 2.362s2.359 3.7 3.43 7.723c.841 3.15.47 6.365.361 9.01-.241 6.018 2.284 12.767 2.284 12.767s-3.819-.215-7.366-.07c-3.55.146-7.295.954-7.295.954s3.07-6.561 3.087-10.985c.013-4.427-3.934-10.985-3.934-10.985v-.003z" fill="#F29B00"/><path d="M20.06 64.305l16.875-15.6s1.813 1.658 1.41 4.741c-.404 3.084-4.914 5.55-4.914 5.55l-7.024 7.351 3.55 3.097-2.098 4.255s-6.12-4.43-7.458-5.483c-1.336-1.052-.337-3.91-.337-3.91h-.003z" fill="#F29B00"/><path d="M39.638 43.11l4.413-8.45 1.244 2.071s.523.735.712 1.344c.142.463 1.79 1.902 1.23 2.071 0 0-.327.08-.403.45-.076.37.103 1.032.103 1.21 0 1.738-.848 2.486-.848 2.486s-2.984-.16-4.195 2.13c-1.21 2.287 0 3.753 0 3.753s-7.352 1.227-4.88-1.546c2.137-2.398 2.62-5.518 2.62-5.518h.004z" fill="#F3C6A0"/><path d="M43.638 39.688c1.111-2.404.776-4.923-.748-5.628-1.524-.705-3.66.672-4.772 3.075-1.111 2.403-.777 4.923.747 5.628 1.524.705 3.661-.672 4.773-3.075z" fill="#314572"/><path d="M34.245 74.516l-5.665-1.863.847-2.085 5.456 1.986-.638 1.962z" fill="#F3C6A0"/><path d="M37.31 75.131c2.141 0 3.877-.653 3.877-1.459s-1.736-1.46-3.878-1.46c-2.141 0-3.877.654-3.877 1.46 0 .806 1.736 1.46 3.877 1.46z" fill="#F3C6A0"/><path d="M42.262 33.815c.31.09.612.192.903.311-2.481 1.698-4.51 4.404-5.505 7.742a15.62 15.62 0 00-.338 1.357c-2.521-1.416-3.917-3.914-3.232-6.204.84-2.815 4.5-4.248 8.172-3.203v-.003z" fill="#314572"/><path d="M64.628 43.27l.99.287-.61 1.668 2.277-1.218 1.816.311.206.758-1.704 1.75-2.009 1.4-1.91.926-1.828-1.31 2.772-4.572z" fill="#F3C6A0"/><path d="M67.083 32.961l-3.613.728a3.759 3.759 0 00-2.943 4.427l.05.247a3.759 3.759 0 004.427 2.942l3.613-.728a3.759 3.759 0 002.943-4.427l-.05-.246a3.759 3.759 0 00-4.427-2.943z" fill="#314572"/><path d="M68.538 40.85c2.974-.6 10.763-.45 15.067 3.645L79.774 24.68c-4.5 5.529-8.653 7.726-12.769 8.556 0 0-1.531 1.098-.916 4.146.566 2.812 2.452 3.467 2.452 3.467h-.003z" fill="#4B94D0"/><path d="M85.03 44.684c1.982-.4 2.64-5.439 1.468-11.255-1.171-5.817-3.729-10.208-5.712-9.809-1.983.4-2.64 5.439-1.469 11.256 1.172 5.816 3.73 10.207 5.712 9.808z" fill="#ADD1F0"/><path d="M85.332 44.322c1.743-.35 2.232-5.224 1.092-10.885-1.14-5.66-3.478-9.965-5.221-9.614-1.743.351-2.232 5.225-1.091 10.886 1.14 5.66 3.477 9.964 5.22 9.613z" fill="#3D6194"/><path d="M68.464 40.821c-.35-.152-1.879-.956-2.379-3.437-.542-2.69.59-3.862.86-4.1l-.013-.06c-.29.077-.582.146-.87.202 0 0-1.532 1.099-.916 4.146.566 2.813 2.451 3.468 2.451 3.468.255-.053.553-.093.887-.123l-.02-.096z" fill="#F4A82F"/><path d="M68.91 48.51s-1.038.447-1.855.777c-.821.331-1.02-.714-1.02-.714l-1.664-7.098 2.899-.178 1.64 7.213z" fill="#263558"/><path d="M66.805 41.313l.466-.03 1.641 7.213-.384.159-1.723-7.342z" fill="#314572"/><path d="M68.097 46.785l-.17-.738-1.217.202c-.159.026-.268.212-.241.413v.017c.03.202.181.344.344.317l1.284-.211zm-2.211-2.835c.027.203.182.345.341.319l1.25-.209-.168-.738-1.184.195c-.16.027-.269.212-.242.414v.017l.003.003zm1.91 1.499l-.17-.738-1.263.208c-.159.027-.268.212-.242.414v.017c.03.201.182.344.344.317l1.33-.221v.003z" fill="#4B598D"/><path d="M80.171 35.02c.189.929.407 1.826.652 2.666l2.336-.837-.966-4.794-2.468.129c.102.91.248 1.86.446 2.835z" fill="#D4E7F8"/><path d="M83.117 36.612c.507-.102.702-1.256.436-2.576-.266-1.32-.892-2.307-1.399-2.205-.507.102-.702 1.255-.436 2.575.266 1.32.892 2.308 1.4 2.206z" fill="#F6F5FB"/><path d="M91.701 32.425l-3.11.626a.29.29 0 01-.34-.225.29.29 0 01.225-.34l3.11-.626a.29.29 0 01.116.566zm-4.641-4.244a.293.293 0 01-.328-.178.29.29 0 01.165-.374l3.034-1.165a.29.29 0 01.209.54l-3.034 1.164-.046.014zm-1.83-4.325a.29.29 0 01-.236-.513l2.356-1.846a.29.29 0 11.357.457L85.352 23.8a.296.296 0 01-.123.056zm7.073 14.146s-.032.007-.05.007l-3.248.102a.287.287 0 01-.298-.28.287.287 0 01.281-.299l3.25-.102a.289.289 0 01.066.572zm-.373 5.588a.295.295 0 01-.132-.004l-2.888-.79a.287.287 0 01-.202-.355.287.287 0 01.354-.202l2.889.791a.287.287 0 01.201.354.295.295 0 01-.222.209v-.004z" fill="#EB7104"/><path d="M19.89 64.862l12.782-12.65-11.458 13.755s-.874.804.159 1.654c.575.477 4.543 4.858 4.543 4.858s-4.729-3.594-5.76-4.444c-1.033-.85-.262-3.173-.262-3.173h-.003z" fill="#EF8200"/><path d="M32.632 125.132l.734-14.73 1.013-10.733 4.023-19.214-4.172.546-1.353 19.399-1.01 10.733-.734 14.727h2.885l.116-.728h-1.502z" fill="#1E5184"/><path d="M156.44 74.504c0 .196-.172.351-.387.355l-33.636.158c-.215 0-.39-.155-.39-.35l-.242-41.941c0-.192.172-.351.387-.354l33.636-.16c.215 0 .391.156.391.352l.241 41.94z" fill="#fff"/><path d="M151.76 55.077l-13.668.181-.02-1.23 13.669-.182.019 1.23z" fill="#BFD7E8"/><path d="M130.266 54.303c-2.918.04-5.248 2.323-5.205 5.099.043 2.776 2.442 4.996 5.36 4.956 2.919-.04 5.248-2.322 5.205-5.098-.043-2.776-2.442-4.996-5.36-4.957zm.116 7.57c-1.476.02-2.687-1.101-2.71-2.504-.023-1.403 1.155-2.558 2.63-2.578 1.476-.02 2.687 1.102 2.71 2.505.023 1.403-1.155 2.558-2.63 2.578z" fill="#F4A82F"/><path d="M132.355 54.47c-2.7-.963-5.724.294-6.803 2.852l-.013.033 2.442.933s.006-.023.013-.033c.536-1.274 2.028-1.91 3.375-1.466l-.02.043a2.592 2.592 0 011.429 1.506l2.422-.986c-.496-1.234-1.498-2.283-2.868-2.843l.02-.043.003.004z" fill="#FCF2F2"/><path d="M127.464 54.78c-2.422 1.485-3.164 4.549-1.648 6.901l.02.03 2.243-1.31-.02-.03c-.754-1.171-.404-2.69.778-3.45l.026.039a2.8 2.8 0 012.121-.195l.612-2.439a5.53 5.53 0 00-4.106.496l-.026-.04v-.003z" fill="#2F61A8"/><path d="M133.131 59.12c.008-1.492-1.256-2.71-2.824-2.719-1.567-.009-2.845 1.194-2.854 2.687-.009 1.493 1.255 2.71 2.823 2.72 1.568.008 2.846-1.194 2.855-2.687z" fill="#fff"/><path d="M152.904 56.753l-14.79.198-.007-.526 14.79-.198.007.526zm.017 1.101l-14.79.199-.006-.53 14.79-.195.006.526zm.016 1.087l-14.786.196-.01-.526 14.79-.199.006.53zm.018 1.101l-14.787.198-.01-.526 14.79-.198.007.526zm.019 1.171l-14.79.198-.006-.529 14.786-.198.01.529zm-1.566 1.121l-13.208.175-.007-.526 13.209-.178.006.53zm1.566 4.229l-26.685.357-.01-.53 26.688-.357.007.53zm.017 1.051l-26.684.357-.01-.526 26.688-.357.006.526zm.016 1.156l-26.684.357-.011-.53L153 68.24l.007.53zm.016 1.054l-26.685.358-.01-.53 26.688-.357.007.53zm.017 1.093l-26.685.357-.009-.526 26.687-.357.007.526zm.016 1.056l-26.685.358-.01-.526 26.688-.358.007.526z" fill="#BFD7E8"/><path d="M129.453 48.718l-.03-3.745-.013-1.717-2.631.016.013 1.77.03 3.693 2.631-.017zm-2.631.045l.017 2.362 2.63-.017-.016-2.362-2.631.017z" fill="#2F61A8"/><path d="M133.118 49.854l-.013-1.542-.053-7.16-2.63.017.05 6.776.003.152.013 1.952.007 1 2.63-.017-.007-1.178z" fill="#F4A82F"/><path d="M136.902 46.828l-.003-.305v-.31l-.007-.517-.013-1.77-2.627.016.007.95.013 1.674.033 4.46 2.63-.016-.033-4.182z" fill="#729EDB"/><path d="M140.771 46.38l-.013-1.366-2.627.016.01 1.324.02 2.885 2.63-.017-.02-2.842zm-2.611 2.879l.013 1.82 2.63-.017-.013-1.82-2.63.017z" fill="#2F61A8"/><path d="M144.457 50.228l-.014-1.502-.039-5.333-2.631.016.043 5.512v.315l.007.602.003.407.007.81 2.63-.016-.006-.81z" fill="#F4A82F"/><path d="M152.262 47.73l-.01-1.013-.006-1.22-2.631.016.01 1.363.003.394.027 3.695 2.63-.016-.023-3.22zm-3.807-.703l-.007-1.032-.003-.536-2.631.016.01 1.364.007 1.022.023 3.067 2.63-.016-.016-2.478-.013-1.407z" fill="#2F61A8"/><path d="M148.328 37.256l-18.066.242-.02-1.231 18.066-.242.02 1.231zm-3.352 2.174l-10.524.142-.02-1.23 10.525-.143.019 1.231z" fill="#BFD7E8"/><path d="M108.375 23.959c0 .725.201 1.4.549 1.975l-2.224 1.344a6.402 6.402 0 01-.923-3.319h2.598z" fill="#2F61A8"/><path d="M114.809 29.785a6.404 6.404 0 01-2.581.543c-2.329 0-4.404-1.191-5.529-3.047l2.224-1.343c.668 1.105 1.919 1.793 3.305 1.793.546 0 1.065-.116 1.535-.324l1.046 2.378z" fill="#F4A82F"/><path d="M114.799 29.782l-1.055-2.376a3.829 3.829 0 001.942-1.949l2.379 1.049a6.425 6.425 0 01-3.262 3.272l-.004.004z" fill="#fff"/><path d="M118.068 26.506l-2.378-1.05a3.815 3.815 0 00-.173-3.424l2.26-1.28c.53.933.834 2.012.834 3.163 0 .923-.195 1.8-.546 2.59h.003z" fill="#729EDB"/><path d="M113.39 20.336l.824-2.465a6.427 6.427 0 013.58 2.918l-2.264 1.28a3.819 3.819 0 00-2.143-1.733h.003z" fill="#729EDB"/><path d="M112.193 17.543c.708 0 1.386.116 2.021.328l-.817 2.465a3.817 3.817 0 00-5.022 3.623h-2.598a6.415 6.415 0 016.416-6.416z" fill="#729EDB"/><path d="M188.363 37.346v2.74h.593v-2.74c0-.199-.133-.358-.295-.358-.162 0-.294.16-.294.358h-.004zm0 11.966c0 .199.132.358.294.358.162 0 .295-.159.295-.358v-2.574h-.593v2.574h.004zm-6.045-5.985c0 .162.159.294.358.294h2.736v-.592h-2.736c-.199 0-.358.133-.358.295v.003zm12.327-.296h-2.575v.593h2.575c.198 0 .357-.133.357-.295 0-.162-.159-.294-.357-.294v-.004zm-10.428-3.726l1.936 1.935.417-.416-1.936-1.936c-.139-.139-.347-.159-.463-.043-.116.116-.096.321.043.463l.003-.003zm8.463 8.46c.138.14.347.16.463.043.116-.115.096-.32-.043-.463l-1.82-1.82-.417.417 1.82 1.82-.003.003zm-8.506.045c.115.115.321.096.463-.044l1.935-1.935-.417-.417-1.935 1.936c-.139.139-.159.347-.043.463l-.003-.003zm8.507-8.924l-1.82 1.82.417.416 1.82-1.82c.139-.139.159-.347.043-.463-.116-.116-.321-.096-.463.043l.003.004z" fill="#F29B00"/><path d="M12.257 78.037h-1.69v-1.013h1.69v-1.79h1.036v1.79h1.69v1.013h-1.69v1.79h-1.036v-1.79zm12.2 7.798h-1.092v-.655h1.092v-1.16h.668v1.159h1.092v.655h-1.092v1.158h-.668v-1.158zm43.517 30.089h13.89l-.364 6.075c-.162 2.726-1.102 5.363-2.76 7.537a8.87 8.87 0 01-.598.711c0 .255-1.443.46-3.223.46-1.78 0-3.223-.205-3.223-.46h-.01a8.686 8.686 0 01-.615-.731c-1.658-2.184-2.597-4.827-2.756-7.567l-.344-6.025h.003z" fill="#729EDB"/><path d="M74.918 116.915c3.835 0 6.945-.445 6.945-.993s-3.11-.992-6.945-.992c-3.836 0-6.945.444-6.945.992s3.11.993 6.945.993z" fill="#BBD4F2"/><path d="M74.94 116.502c3.007 0 5.444-.259 5.444-.579 0-.32-2.437-.579-5.443-.579s-5.443.259-5.443.579c0 .32 2.437.579 5.443.579z" fill="#2F61A8"/><path d="M78.27 128.969a.348.348 0 00-.47-.153.347.347 0 00-.152.47.346.346 0 00.47.152.346.346 0 00.152-.469zm-2.105-.455a.347.347 0 00-.47-.153.347.347 0 00-.152.47.346.346 0 00.47.152.346.346 0 00.152-.469z" fill="#A6A6A6"/><path d="M74.297 116.27c0-.086-.106-8.689 3.008-18.006l.324.208c-3.077 9.208-2.978 17.702-2.974 17.784l-.358.01v.004z" fill="#2F61A8"/><path d="M74.525 112.253l-2.449-12.864.344-.13 2.449 12.868-.344.126zm1.298 4.037l-.354-.056c.033-.427.867-10.525 2.964-15.306l.305.258c-2.055 4.685-2.905 14.998-2.915 15.101v.003zm-2.297.003c-.006-.076-.665-7.828-2.428-16.494l.344-.135c1.77 8.705 2.432 16.494 2.439 16.57l-.355.056v.003z" fill="#2F61A8"/><path d="M69.368 92.697c.672 1.727 1.036 5.985 1.969 5.178.933-.807.496-4.189.496-4.189s1.023-.122 2.459 1.668c0 0 .36.291-1.139 3.818s.03 3.656.03 3.656 2.124-1.231 2.452-4.546c0 0 1.006 4.053-.556 6.584-1.562 2.531-3.441 1.433-3.441 1.433s-.82-9.102-3.173-12.014c-2.353-2.911-3.795-3.504-3.795-3.504s4.027.182 4.698 1.91v.006z" fill="#2F61A8"/><path d="M71.637 106.309s-.536 2.931-4.291 2.981a3.212 3.212 0 01-2.257-.85s.702-1.837 2.69-1.463c1.989.377 1.946-.827 1.946-.827s-6.217.678-6.426-4.248c0 0 6.081.929 6.164-.057.083-.986-6.389-2.99-6.389-2.99s-.198-2.21.513-3.822c0 0 1.998.847 3.295 2.001 1.297 1.155 1.748.407 1.748.407s-.771-2.832-4.176-4.109l.215-2.541s1.443.592 3.795 3.504c2.353 2.912 3.173 12.014 3.173 12.014zm11.338-18.761c-.966 1.62-1.952 5.793-2.842 4.863-.893-.93.05-4.218.05-4.218s-1.082-.261-2.879 1.317c0 0-.43.238.692 3.94 1.121 3.703-.543 3.62-.543 3.62s-2.114-1.509-2.005-4.84c0 0-1.648 3.877-.324 6.6 1.327 2.723 3.504 1.89 3.504 1.89s2.154-8.907 5.095-11.475c2.938-2.564 4.573-2.955 4.573-2.955s-4.358-.37-5.324 1.251l.004.007z" fill="#477EBF"/><path d="M78.63 100.728s.166 2.978 4.203 3.54a3.708 3.708 0 002.547-.536s-.5-1.915-2.693-1.816c-2.193.102-1.978-1.085-1.978-1.085s6.594 1.522 7.507-3.332c0 0-6.674.09-6.624-.897.05-.986 7.292-2.091 7.292-2.091s.523-2.164-.02-3.858c0 0-2.266.566-3.825 1.532-1.558.966-1.935.165-1.935.165s1.228-2.7 5.07-3.503l.125-2.548s-1.635.39-4.573 2.954c-2.938 2.565-5.095 11.475-5.095 11.475zm-4.929 15.006s-3.276-8.536-10.707-8.39c-7.431.145 9.926 7.375 10.707 8.39z" fill="#2F61A8"/><path d="M87.225 100.225s1.132 1.485-1.998 2.518c-.169-1.013-.668-1.678-.668-1.678a9.306 9.306 0 002.666-.84z" fill="#477EBF"/><path d="M85.85 98.905c4.698-1.797 4.893-2.561 4.893-2.561s-.665 2.452-3.517 3.881a9.273 9.273 0 01-2.667.84s.5.665.668 1.678c.172 1.039-.006 2.445-1.439 3.878-2.826 2.825-6.69 2.177-6.69 2.177s2.647-7.557 8.751-9.893z" fill="#477EBF"/><path d="M41.391 53.032a.278.278 0 100-.555.278.278 0 000 .555zm1.002 1.895a.278.278 0 100-.556.278.278 0 000 .556z" fill="#fff"/><defs><linearGradient id="paint0_linear_248_54406" x1="96.029" y1="13" x2="96.029" y2="136.756" gradientUnits="userSpaceOnUse"><stop stop-color="#F6FBFF"/><stop offset="1" stop-color="#EAF0F9"/></linearGradient><linearGradient id="paint1_linear_248_54406" x1="36.069" y1="133.883" x2="36.069" y2="131.187" gradientUnits="userSpaceOnUse"><stop stop-color="#002D49"/><stop offset="1" stop-color="#002737"/></linearGradient><linearGradient id="paint2_linear_248_54406" x1="51.094" y1="133.646" x2="51.094" y2="130.949" gradientUnits="userSpaceOnUse"><stop stop-color="#002D49"/><stop offset="1" stop-color="#002737"/></linearGradient></defs></svg>