<svg width="200" height="150" fill="none" xmlns="http://www.w3.org/2000/svg"><path d="M147.767 49.714C112.483 30.522 114.353-7.55 68.112 10.25c-32.034 12.333-53.291 53.051-48.417 87.9 3.675 26.29 15.85 45.775 38.609 39.443 22.76-6.332 42.096 1.32 59.579 6.247 22.003 6.204 56.127-13.264 61.693-39.955 5.565-26.688-7.693-41.06-31.809-54.176v.004z" fill="url(#paint0_linear_248_54885)"/><path d="M142.898 32.83H29.474a5.282 5.282 0 00-5.283 5.282v74.268a5.282 5.282 0 005.283 5.283h113.424a5.282 5.282 0 005.282-5.283V38.112a5.282 5.282 0 00-5.282-5.282z" fill="#C5DAEF"/><path d="M142.898 33.438H29.474c-2.907 0-5.283 2.376-5.283 5.282v67.433H148.18V38.72c0-2.906-2.376-5.282-5.282-5.282z" fill="#284C7D"/><path d="M98.926 117.664H73.443v11.186h25.483v-11.186z" fill="#7AA9D7"/><path d="M143.828 38.113H28.541v62.772h115.287V38.113z" fill="#D7E7F5"/><path d="M88.516 109.271h-4.664a1.864 1.864 0 00-1.864 1.864v.003c0 1.029.835 1.863 1.864 1.863h4.664a1.863 1.863 0 001.863-1.863v-.003a1.864 1.864 0 00-1.863-1.864z" fill="#7AA9D7"/><path d="M109.49 132.89v-.621a3.43 3.43 0 00-3.419-3.419H66.294a3.43 3.43 0 00-3.419 3.419v.621h46.615z" fill="#C5DAEF"/><path d="M135.75 56.043H64.59v26.772h71.16V56.043zm-76.395.049H36.619v25.01h22.736v-25.01zm76.395 29.467H64.59v4.455h71.16v-4.455zm-13.987-41.336h-71.16v4.455h71.16v-4.455z" fill="#fff"/><path fill-rule="evenodd" clip-rule="evenodd" d="M41.027 74.143c.78-.74 2.397-1.013 3.841-1.522 1.462-.517 1.671-2.761 1.556-4.105l3.264-.23c-.118 1.344-.03 3.737 1.431 4.335 1.462.597 3.095.783 3.983 1.495a9.699 9.699 0 01-5.954 2.953h-2.194a9.768 9.768 0 01-5.92-2.926h-.007z" fill="#2E6A3F"/><path fill-rule="evenodd" clip-rule="evenodd" d="M47.943 75.998c-1.38-.567-3.085-1.546-3.318-3.635.786-.287 1.225-1.067 1.448-1.954a15.581 15.581 0 011.867-.109c.651 0 1.282.038 1.87.109.222.887.661 1.67 1.447 1.954-.23 2.089-1.937 3.068-3.317 3.635h.003z" fill="#E8B88E"/><path fill-rule="evenodd" clip-rule="evenodd" d="M49.643 74.682c.034.25-2.744-3.207-2.598-4.142.584-.07.242-.24.897-.24s1.283.038 1.87.109c.223.887.662 1.67 1.448 1.954-.23 2.089-.233 1.752-1.613 2.319h-.004z" fill="#CBA07E"/><path fill-rule="evenodd" clip-rule="evenodd" d="M51.791 65.442c.867.752-.5 3.618-.5 3.618s-1.72 2.541-3.246 2.541-3.248-2.541-3.248-2.541-1.366-2.515-.499-3.264c.175-2.127 1.353-4.027 3.75-4.027 2.396 0 3.567 1.543 3.746 3.673h-.003z" fill="#F5D3AE"/><path fill-rule="evenodd" clip-rule="evenodd" d="M44.123 66.914c-.013-.972.112-1.816.476-2.43.355-.594.483-1.883 1.512-1.586.5.145 1.52.428 2.167.428.648 0 1.472-.283 1.971-.428.898-.26.736.982 1.097 1.515.432.635.605 1.505.57 2.49.446-1.515-.178-5.558-.178-5.558s-2.2-.81-3.737-.81c-1.772 0-3.682 1.286-3.682 1.286s-.631 3.57-.2 5.096l.004-.003z" fill="#83422A"/><path d="M54.47 71.888l-4.002-.24-2.555 1.404-2.498-1.387-3.763.226a.625.625 0 00-.625.625v3.513c1.813 1.691 4.243 1.195 6.916 1.195s5.323.817 7.156-1.01v-3.702a.625.625 0 00-.625-.624h-.003z" fill="#ED971B"/><path d="M47.912 72.858l-2.393-1.199-.101.007.61 5.519c.622.118 3.16.124 3.758.013l.681-5.535-.104-.007-2.45 1.202z" fill="#C9E3F1"/><path d="M48.583 60.146l-3.169 1.063.584 1.165 2.585.52v-2.748z" fill="#83422A"/><path d="M48.648 63.707c.938-.233 1.09-.736 1.28-1.283.1-.29.776.068 1.106.631.355.605.372 1.432.557 1.516.304-.392.371-1.114.371-1.587 0-.786-.138-1.535-.847-2.183-.708-.645-1.988-.216-3.166-.216-1.005 0-2.339-.331-3.098.526-.51.574-.661 1.239-.661 1.873 0 .47.037 1.449.34 1.837.358-.166.125-1.09 1.38-1.62 1.189-.5 1.874.718 2.741.499l-.003.007z" fill="#83422A"/><path d="M94.671 25.253s6.913.908 9.802.807c2.889-.101 8.033-.152 8.033-.152s.82 2.727-.341 3.736c-1.161 1.01-8.107 3.936-12.934 1.867-4.826-2.069-5.002-5.91-4.56-6.261v.003z" fill="#1F3E68"/><path d="M100.963 33.23s5.859-4.036 7.982-5.41c1.847-1.195 5.391-4.074 7.055-1.654 1.664 2.424-.605 4.59-2.474 5.853-1.627 1.1-8.651 4.121-9.991 5.299-.858.05-2.714-2.622-2.572-4.087z" fill="#1E598D"/><path d="M104.716 33.722c-.547-.658-.867-1.454-1.232-2.224a799.772 799.772 0 00-2.521 1.732c-.142 1.464 1.714 4.138 2.572 4.087.52-.46 1.9-1.195 3.486-1.988-.874-.371-1.684-.864-2.305-1.607z" fill="#1E598D"/><path d="M97.482 34.989s-1.387 1.023-1.69 1.573c-.304.55.843.827.843.827s4.351-.476 5.613-1.286c1.263-.807-.293-1.992-1.293-1.992-.999 0-2.717.274-3.473.878zm7.011.056s1.917 1.465 3.936 1.613c2.018.152 2.774.456 2.774.456s-1.161-2.177-2.474-2.933c-1.313-.756-3.834-1.56-4.239-1.256-.405.304-.304 1.161 0 2.12h.003z" fill="#EBCEAD"/><path d="M99.424 34.283l-4.614.901c-.577.142-.966.908-.864 1.702.101.793.658 1.326 1.235 1.188l5.09-1.253c-.412-.597-.715-1.488-.85-2.535l.003-.003z" fill="#24447E"/><path d="M95.58 35.031l-.767.149c-.577.142-.965.908-.864 1.7.102.794.658 1.327 1.236 1.189l.705-.176c0-1.05-.115-2.028-.314-2.858l.004-.004zm1.717-.148l-.309.037.189 1.592.308-.037-.188-1.592zm.564-.158l-.308.037.188 1.592.308-.037-.188-1.592zm.527-.085l-.308.036.189 1.592.308-.037-.189-1.592z" fill="#fff"/><path d="M100.268 36.956l-5.036 1.158-.04-.321 5.039-1.154.037.317z" fill="#fff"/><path d="M105.604 32.622s-3.027-2.1-6.126-3.983c-2.011-1.225-5.43-4.695-6.993-4.09-1.563.604-2.474 2.45-1.968 4 .503 1.548 5.026 4.36 7.28 5.403 2.761 1.28 6.147 1.88 7.004 2.535.857.654 1.755-3.467.803-3.868v.003z" fill="#284C7D"/><path d="M107.784 33.627l4.823.942c.604.148 1.009.948.901 1.778-.108.83-.689 1.388-1.293 1.242l-5.322-1.31c.428-.623.749-1.559.891-2.649v-.003z" fill="#24447E"/><path d="M111.804 34.41l.803.155c.604.149 1.009.949.901 1.78-.108.83-.688 1.386-1.292 1.241l-.739-.182c0-1.1.121-2.123.327-2.99v-.004zm-1.613-.281l-.197 1.666.309.036.196-1.666-.308-.036zm-.584-.133l-.197 1.666.309.037.196-1.666-.308-.037zm-.553-.123l-.197 1.666.309.036.197-1.666-.309-.036z" fill="#fff"/><path d="M106.9 36.423l5.269 1.211.041-.334-5.269-1.208-.041.33z" fill="#fff"/><path d="M110.404 14.024s-3-2.217-6.639-2.217c-3.638 0-7.409 2.217-7.409 2.217s-1.775 3.254-2.366 8.725c-.59 5.471 18.267 4.364 19.374 0 1.11-4.364-2.957-8.725-2.957-8.725h-.003zm-12.792 8.654v-3.105l1.33 3.105h-1.33zm11.904 0h-1.329l1.329-3.105v3.105z" fill="#EA9646"/><path d="M108.699 28.594h-9.91l-1.771-7.469h13.679l-1.998 7.47z" fill="#C2C6C6"/><path d="M96.498 25.598l2.292 2.406v.591l-2.292-2.403v-.594z" fill="#D3D3D5"/><path d="M98.57 27.782l-2.072-2.184h1.59l.482 2.184z" fill="#AEA9A9"/><path d="M108.736 28.021h-9.947v.574h9.947v-.573zm2.295-2.401l-2.295 2.402v.591l2.295-2.403v-.59z" fill="#D3D3D5"/><path d="M108.898 27.854l2.133-2.235h-1.535l-.598 2.235z" fill="#AEA9A9"/><path d="M106.639 9.886s.199-.335.547-.358c.348-.024.121 1.066.02 1.481-.101.416-.496.574-.638.335l.071-1.458z" fill="#EED3C0"/><path d="M106.681 7.248c-.05-1.151-1.684-.915-2.825-1.033-1.141.118-2.774-.118-2.825 1.033-.05 1.16.108 4.499.206 5.353.095.843 1.725 2.366 2.619 2.464.898-.095 2.525-1.62 2.619-2.464.098-.854.257-4.192.206-5.353z" fill="#EBCEAD"/><path d="M106.455 5.593c-.75-.57-1.931-.614-2.599-.587-.669-.027-1.847.017-2.599.587-1.097.834-.743 1.25-.794 1.603-.05.355.115 2.245.216 2.572.102.328.395.119.395.119s-.016-1.708.665-1.884c.682-.175 1.138-.148 1.816.037.105.03 1.738-.216 2.42-.037.682.176.665 1.884.665 1.884s.294.209.395-.119c.101-.327.263-2.22.216-2.572-.051-.354.3-.77-.793-1.603h-.003z" fill="#6A2119"/><path d="M101.075 9.886s-.199-.335-.547-.358c-.347-.024-.121 1.066-.02 1.481.101.416.496.574.638.335l-.071-1.458z" fill="#EED3C0"/><path d="M97.614 62.955a.2.2 0 00-.064-.145l-.395-.381a.215.215 0 00-.297 0l-2.08 2.079-1.454-1.411a.21.21 0 00-.148-.06.21.21 0 00-.149.06l-.412.412a.208.208 0 000 .293l1.999 1.934a.22.22 0 00.296 0l2.643-2.636c.04-.04.061-.09.061-.145zm-6.94-1.199H70.676v.965h19.998v-.965zm-.004 2.242H70.672v.965H90.67v-.965zm-.01 2.18H70.662v.965H90.66v-.965zm.014 3.482H70.676v.966h19.998v-.966zm-.004 2.246H70.672v.966H90.67v-.966zm-.006 2.18H70.666v.965h19.998v-.965zm6.95-3.311a.2.2 0 00-.064-.145l-.395-.381a.215.215 0 00-.297 0l-2.08 2.08-1.454-1.412a.21.21 0 00-.148-.06.209.209 0 00-.149.06l-.412.412a.208.208 0 000 .294l1.999 1.934c.08.077.219.074.296 0l2.643-2.636a.205.205 0 00.061-.146zm-6.95 5.555H70.666v.965h19.998v-.965zm39.39-13.053a.201.201 0 00-.064-.145l-.395-.381a.215.215 0 00-.297 0l-2.08 2.079-1.454-1.41a.211.211 0 00-.297 0l-.412.411a.208.208 0 000 .294l1.998 1.934c.081.077.22.074.297 0l2.643-2.636a.2.2 0 00.061-.146zm-6.939-1.195h-19.998v.965h19.998v-.965zm-.007 2.242h-19.999v.966h19.999v-.966zm-.006 2.18h-19.998v.965h19.998v-.965zm.013 3.484h-19.998v.966h19.998v-.966zm-.004 2.244h-19.998v.966h19.998v-.966zm-.005 2.18h-19.999v.965h19.999v-.965zm6.948-3.314a.201.201 0 00-.064-.145l-.395-.382a.215.215 0 00-.297 0l-2.08 2.08-1.454-1.411a.211.211 0 00-.297 0l-.412.411a.208.208 0 000 .294l1.998 1.934c.081.078.22.074.297 0l2.643-2.636a.2.2 0 00.061-.145zm-6.948 5.556h-19.999v.966h19.999v-.966z" fill="#729EDB"/><path d="M73.243 94.465H56.175a2.61 2.61 0 00-2.603 2.602v33.155a2.61 2.61 0 002.603 2.602h17.068a2.61 2.61 0 002.602-2.602V97.067a2.61 2.61 0 00-2.602-2.602zm.73 32.631l-.038 1.023H55.53l-.037-1.023V99.028h-.645 19.087l.037 1.195v26.873z" fill="#284C7D"/><path d="M73.929 99.027H55.486v29.091H73.93v-29.09zm-7.247 30.483h-3.946v1.114h3.946v-1.114z" fill="#fff"/><path d="M72.684 101.066H56.732v24.693h15.952v-24.693z" fill="#D7E7F5"/><path d="M70.77 104.061H59.004v18.212H70.77v-18.212z" fill="#F2F2F2"/><path d="M61.64 112.539l-.962-.003v-3.001l.962.004v3zm1.251.005l-.965-.004.003-3.901.962.003v3.902zm1.27.003l-.962-.003.004-5.073.962.003-.004 5.073zm1.251.006l-.965-.004.004-3 .961.003v3.001zm1.235.003l-.962-.004.004-4.421.962.003-.004 4.422zm1.253.003l-.965-.003.004-5.951.965.004-.003 5.95z" fill="#729EDB"/><path d="M69.17 112.564l-.963-.004.003-6.892.966.003-.007 6.893z" fill="#ED971B"/><path d="M69.949 113.953H59.904v6.875H69.95v-6.875z" fill="#fff"/><path d="M69.01 115.334h-8.297v.381h8.296v-.381zm0 .885h-8.297v.381h8.296v-.381zm-.003.861h-8.296v.381h8.296v-.381zm.052 1.349l-2.258.018.005.709 2.259-.018-.006-.709z" fill="#729EDB"/><path d="M149.724 122.146c.425 1.212.718 2.673.813 4.259.239 4.074-.429 5.543-1.607 12.074l-1.458.101c-.614-3.126-1.184-8.685-1.444-13.076a111.1 111.1 0 01-.135-3.095l3.831-.266v.003zm-7.573-.118c.56 1.134 1.032 2.538 1.336 4.094.78 3.993.358 5.539.159 12.167l-1.34.311c-.996-3.004-2.808-8.097-3.436-11.688-.628-3.592-.53-4.381-.753-5.701l4.034.82v-.003z" fill="#EFB495"/><path d="M143.936 142.557c.601-.746 1.468-.399 2.248-1.766.779-1.367.969-2.089.969-2.089l.948-.118c.05.115.152.192.26.186.118-.007.212-.112.243-.25l.391-.01c.416.266.766 1.262.837 2.477.048.783-.033 1.489-.199 1.981l-.547.038c.037-.564.041-1.205.014-1.891l-.56.372-.672 1.6-4.067.283s-.473-.078.132-.82l.003.007z" fill="#16415D"/><path d="M138.596 142.913c.601-.746 1.468-.399 2.248-1.766.78-1.367.969-2.089.969-2.089l.948-.118c.05.115.152.192.26.186.118-.007.212-.112.243-.247l.391-.01c.416.267.767 1.262.838 2.478.047.783-.034 1.488-.2 1.981l-.546.037c.037-.564.04-1.205.013-1.89l-.56.371-.672 1.6-4.067.283s-.473-.077.132-.82l.003.004z" fill="#16415D"/><path d="M150.008 123.192c.563-1.012 1.687-3.044 2.025-4.384.779-3.109 1.529-4.351.239-10.2l-3.996-.094c-.847 2.673-1.711 7.479-2.15 11.293a67.772 67.772 0 00-.253 2.697l4.138.692-.003-.004zm-8.743-1.322c.456-1.029 1.367-3.088 1.661-4.435.678-3.122 1.283-4.384.462-10.169l-3.037.033c-.719 2.69-1.509 7.507-1.948 11.321a95.603 95.603 0 00-.266 2.693l3.128.554v.003z" fill="#EFB495"/><path d="M142.22 122.693c.391-1.036 1.175-3.112 1.441-4.466.618-3.132 1.134-4.404.597-10.149l-2.463.115c-.642 2.7-1.388 7.523-1.826 11.337a108.57 108.57 0 00-.274 2.694l2.522.472.003-.003z" fill="#EFB495"/><path d="M143.624 82.66c.54 1.008-1.91 3.651-5.474 5.9-1.023.644-3.291 1.866-5.191 2.2-4.722.83-10.176.017-10.561-.706-.348-.651 3.716-1.157 7.597-2.281 2.13-.618 4.206-1.657 5.468-2.454 2.096-1.323 3.591-7.05 5.002-7.355.989-.212 2.94 4.28 3.163 4.695h-.004z" fill="#EFB291"/><path d="M124.713 89.45c0 1.028-1.805 1.862-3.405 1.862-1.6 0-2.849-1.59-2.849-2.619 0-.773 1.846.675 2.873.604.34-.023-.422-1.711-.024-1.711.8 0 .702 1.073 1.228 1.41.523.338 2.177-.06 2.177.453z" fill="#EFB291"/><path d="M140.26 68.946c1.269 5.883.971 6.953 1.319 6.875 1.89-.412 4.307-3.507 4.307-7.368s-1.246-6.99-2.781-6.99c-1.536 0-3.663 3.723-2.849 7.48l.004.003z" fill="#1C3054"/><path d="M147.897 75.382c-.631.328-1.387 1.276-2.109 1.54-1.499.543-2.751-1.226-3.446-1.651.273-.496 1.252-1.182 1.252-1.89 0-.962-.051-1.813-.52-2.323v-1.205h2.818c.125 2.248.885 4.216 2.005 5.53z" fill="#EA9F86"/><path d="M140.942 64.733c.317-2.05 2.059-1.675 3.331-1.35.817.209 1.526.546 1.833 1.755.182-.2.382.337.587.401.429.132.659.395.517 1.178-.142.78-.604 1.779-1.033 1.647-.02-.006-.04-.02-.057-.03-.149.624-.071 1.171-.392 1.61-.628.86-1.833 1.337-2.633 1.35-2.612.04-2.464-4.513-2.15-6.561h-.003z" fill="#EBB190"/><path d="M140.03 63.167c.209-1.401 3.18-2.653 5.215-2.306 1.296.22 1.893.21 3.007 1.739 1.114 1.529 1.144 8.245.955 8.765-.465 1.28-2.508 3.142-3.142 3.173-.091.003-.31-2.231-.25-4.007.041-1.14.378-2.092.348-2.136.226-.074.452-.267.608-.55.26-.48.216-1.023-.098-1.215-.257-.159-.615-.027-.878.283-.213-1.063-.651-2.184-2.511-1.846-2.032.371-3.463-.496-3.254-1.897v-.003z" fill="#1C3054"/><path d="M152.188 93.055c-1.573-2.525-3.109-7.682-3.109-9.549 0-2.51 1.553-4.546 3.466-4.546a2.7 2.7 0 011.172.273c-1.046-2.946-5.066-6.038-6.001-6.659a5.722 5.722 0 00-.416-.25l-3.523 3.98-1.29-1.367c-1.07.773-3.388 2.774-4.053 6.048-.874 4.3 1.977 7.419 2.133 10.412.152 2.994.152 8.634.152 8.634h11.725s-.418-2.97-.256-6.973v-.003z" fill="#C0E1E4"/><path d="M152.215 97.318a6.314 6.314 0 00-.317-.459c-2.134.868-5.556 1.472-7.878 1.634-1.897.132-2.943-.179-3.527-.753l-.041.091c-1.849 4.874-2.39 17.832-2.39 17.832s15.871 1.525 15.726.624c-1.188-7.344.989-14.807-1.577-18.972l.004.003z" fill="url(#paint1_linear_248_54885)"/><path d="M152.873 78.97c-1.475.139-2.815 1.003-3.852 2.36.152 1.491.476 3.358.834 5.437.868 5.046 2.751 8.944 4.209 8.708 1.458-.236 1.897-4.506 1.07-9.559-.608-3.72-1.418-5.802-2.258-6.95l-.003.004z" fill="#EFB291"/><path d="M153 94.975c-.533.517-2.096-.78-5.552-4.12-3.456-3.342-5.822-6.471-5.289-6.987.533-.517 3.767 1.775 7.223 5.116 3.456 3.342 4.152 5.475 3.618 5.991z" fill="#EFB291"/><path d="M143.948 82.16c.699 1.439.557 2.924-.31 3.319-.871.395-1.283-.078-1.981-1.516-.699-1.438-.892-2.008-.024-2.403.871-.395 1.62-.837 2.315.6z" fill="#EFB291"/><defs><linearGradient id="paint0_linear_248_54885" x1="99.918" y1="5.633" x2="99.918" y2="145.001" gradientUnits="userSpaceOnUse"><stop stop-color="#F6FBFF"/><stop offset="1" stop-color="#EAF0F9"/></linearGradient><linearGradient id="paint1_linear_248_54885" x1="138.063" y1="106.718" x2="153.791" y2="106.718" gradientUnits="userSpaceOnUse"><stop stop-color="#002D49"/><stop offset="1" stop-color="#002737"/></linearGradient></defs></svg>