<svg width="200" height="150" fill="none" xmlns="http://www.w3.org/2000/svg"><path d="M16.882 120.141C2.994 101.952-4.192 39.759 51.118 29.008c15.87-3.084 37.327 7.117 49.377.354 12.051-6.764 14.735-21.075 40.127-23.645 25.392-2.574 36.768 17.219 35.847 34.536-.925 17.317 14.518 18.464 17.067 32.31 2.331 12.664-15.097 20.426-20.862 32.452-5.764 12.026-4.033 31.945-22.863 37.348-20.976 6.019-26.983-19.55-54.175-8.034-30.05 12.725-61.24 8.757-78.754-14.184v-.004z" fill="url(#paint0_linear_248_54564)"/><path d="M166.038 44.867l-46.707.448a2.985 2.985 0 00-2.957 3.014l.78 81.232a2.985 2.985 0 003.014 2.956l46.707-.448a2.985 2.985 0 002.956-3.013l-.78-81.233a2.985 2.985 0 00-3.013-2.956z" fill="#314572"/><path d="M162.931 50.59l-40.388.387a2.586 2.586 0 00-2.561 2.61l.063 6.575a2.587 2.587 0 002.611 2.56l40.388-.387a2.586 2.586 0 002.561-2.61l-.063-6.575a2.586 2.586 0 00-2.611-2.56zm-31.619 20.235l-10.278.098a.883.883 0 00-.875.893l.014 1.434c.004.489.404.88.892.876l10.278-.099a.883.883 0 00.875-.892l-.013-1.435a.884.884 0 00-.893-.876z" fill="#F0B644"/><path d="M129.116 77.915l-7.458.071a1.447 1.447 0 00-1.433 1.461l.046 4.855c.008.8.662 1.441 1.462 1.434l7.457-.072a1.448 1.448 0 001.434-1.46l-.047-4.856a1.448 1.448 0 00-1.461-1.433z" fill="#BCC1B5"/><path d="M129.114 77.303l-7.458.072a1.447 1.447 0 00-1.433 1.46l.046 4.856c.008.8.662 1.441 1.461 1.433l7.458-.071a1.447 1.447 0 001.433-1.461l-.046-4.856a1.447 1.447 0 00-1.461-1.433z" fill="#F2F2F2"/><path d="M140.922 77.805l-7.457.072a1.448 1.448 0 00-1.434 1.46l.047 4.856c.008.8.662 1.441 1.461 1.433l7.458-.071a1.447 1.447 0 001.433-1.461l-.046-4.856a1.448 1.448 0 00-1.462-1.433z" fill="#BCC1B5"/><path d="M140.913 77.192l-7.458.072a1.447 1.447 0 00-1.433 1.46l.046 4.856c.008.8.662 1.44 1.461 1.433l7.458-.072a1.447 1.447 0 001.433-1.46l-.046-4.856a1.447 1.447 0 00-1.461-1.433z" fill="#F2F2F2"/><path d="M152.528 77.694l-7.458.071a1.447 1.447 0 00-1.433 1.461l.047 4.856c.007.799.661 1.44 1.46 1.433l7.458-.072a1.446 1.446 0 001.433-1.46l-.046-4.856a1.448 1.448 0 00-1.461-1.433z" fill="#BCC1B5"/><path d="M152.522 77.08l-7.457.072c-.8.008-1.442.662-1.434 1.461l.047 4.856c.007.799.662 1.44 1.461 1.433l7.457-.072a1.447 1.447 0 001.434-1.46l-.047-4.856a1.447 1.447 0 00-1.461-1.433z" fill="#F2F2F2"/><path d="M164.328 77.579l-7.457.071a1.447 1.447 0 00-1.433 1.461l.046 4.855c.008.8.662 1.441 1.461 1.434l7.458-.072a1.447 1.447 0 001.433-1.46l-.046-4.856a1.448 1.448 0 00-1.462-1.433z" fill="#BCC1B5"/><path d="M164.323 76.963l-7.458.072a1.447 1.447 0 00-1.433 1.46l.046 4.856c.008.8.662 1.441 1.462 1.433l7.457-.071a1.448 1.448 0 001.434-1.461l-.047-4.855a1.448 1.448 0 00-1.461-1.434z" fill="#F2F2F2"/><path d="M129.221 88.43l-7.457.072a1.448 1.448 0 00-1.434 1.46l.047 4.856c.008.8.662 1.441 1.461 1.433l7.458-.071a1.447 1.447 0 001.433-1.461l-.046-4.856a1.448 1.448 0 00-1.462-1.433z" fill="#BCC1B5"/><path d="M129.212 87.817l-7.458.072c-.8.007-1.441.661-1.433 1.46l.046 4.856c.008.8.662 1.44 1.461 1.433l7.458-.072a1.447 1.447 0 001.433-1.46l-.047-4.856a1.446 1.446 0 00-1.46-1.433z" fill="#F2F2F2"/><path d="M141.022 88.315l-7.458.072a1.447 1.447 0 00-1.433 1.46l.047 4.856c.007.8.661 1.44 1.461 1.433l7.457-.072a1.448 1.448 0 001.434-1.46l-.047-4.856a1.448 1.448 0 00-1.461-1.433z" fill="#BCC1B5"/><path d="M141.02 87.702l-7.458.071a1.447 1.447 0 00-1.433 1.461l.047 4.856c.007.799.661 1.44 1.461 1.433l7.458-.072a1.448 1.448 0 001.433-1.46l-.047-4.856a1.448 1.448 0 00-1.461-1.433z" fill="#F2F2F2"/><path d="M152.629 88.2l-7.457.071c-.8.008-1.441.662-1.433 1.461l.046 4.856c.008.799.662 1.44 1.461 1.433l7.457-.072a1.447 1.447 0 001.434-1.46l-.047-4.856a1.447 1.447 0 00-1.461-1.433z" fill="#BCC1B5"/><path d="M152.624 87.589l-7.458.071a1.447 1.447 0 00-1.433 1.461l.046 4.856c.008.799.662 1.44 1.462 1.433l7.457-.072a1.448 1.448 0 001.434-1.46l-.047-4.856a1.447 1.447 0 00-1.461-1.433z" fill="#F2F2F2"/><path d="M164.43 88.09l-7.457.072a1.448 1.448 0 00-1.434 1.46l.047 4.856c.008.8.662 1.441 1.461 1.434l7.458-.072a1.447 1.447 0 001.433-1.461l-.046-4.856a1.448 1.448 0 00-1.462-1.433z" fill="#BCC1B5"/><path d="M164.426 87.479l-7.457.072a1.448 1.448 0 00-1.434 1.46l.047 4.856c.008.8.662 1.44 1.461 1.433l7.458-.071a1.448 1.448 0 001.433-1.461l-.047-4.856a1.446 1.446 0 00-1.461-1.433z" fill="#F2F2F2"/><path d="M129.323 98.94l-7.458.072a1.447 1.447 0 00-1.433 1.461l.046 4.855a1.447 1.447 0 001.461 1.433l7.458-.072a1.446 1.446 0 001.433-1.461l-.046-4.855a1.447 1.447 0 00-1.461-1.433z" fill="#BCC1B5"/><path d="M129.317 98.329l-7.458.071a1.447 1.447 0 00-1.433 1.461l.047 4.855c.007.8.661 1.441 1.46 1.434l7.458-.072a1.447 1.447 0 001.433-1.461l-.046-4.855a1.447 1.447 0 00-1.461-1.433z" fill="#F2F2F2"/><path d="M141.128 98.834l-7.458.072c-.8.008-1.441.662-1.433 1.461l.046 4.855c.008.8.662 1.441 1.461 1.434l7.458-.072a1.447 1.447 0 001.433-1.461l-.047-4.855a1.446 1.446 0 00-1.46-1.434z" fill="#BCC1B5"/><path d="M141.117 98.223l-7.457.072a1.447 1.447 0 00-1.433 1.46l.046 4.856a1.447 1.447 0 001.461 1.433l7.458-.071a1.447 1.447 0 001.433-1.461l-.046-4.856a1.448 1.448 0 00-1.462-1.433z" fill="#F2F2F2"/><path d="M152.731 98.721l-7.458.072a1.447 1.447 0 00-1.433 1.461l.047 4.855a1.446 1.446 0 001.461 1.433l7.457-.071a1.449 1.449 0 001.434-1.461l-.047-4.856a1.447 1.447 0 00-1.461-1.433z" fill="#BCC1B5"/><path d="M152.725 98.11l-7.457.071c-.8.008-1.441.662-1.434 1.462l.047 4.855a1.447 1.447 0 001.461 1.433l7.458-.072a1.447 1.447 0 001.433-1.461l-.047-4.855a1.448 1.448 0 00-1.461-1.433z" fill="#F2F2F2"/><path d="M164.534 98.606l-7.458.072a1.447 1.447 0 00-1.433 1.461l.047 4.855a1.447 1.447 0 001.461 1.433l7.457-.071a1.447 1.447 0 001.434-1.461l-.047-4.856a1.447 1.447 0 00-1.461-1.433z" fill="#BCC1B5"/><path d="M164.528 97.993l-7.458.072a1.447 1.447 0 00-1.433 1.46l.046 4.856a1.447 1.447 0 001.462 1.433l7.457-.071a1.447 1.447 0 001.433-1.462l-.046-4.855a1.447 1.447 0 00-1.461-1.433z" fill="#F2F2F2"/><path d="M129.422 109.459l-7.457.072c-.8.008-1.441.662-1.434 1.461l.047 4.855c.008.8.662 1.441 1.461 1.434l7.458-.072a1.447 1.447 0 001.433-1.461l-.047-4.855a1.447 1.447 0 00-1.461-1.434z" fill="#BCC1B5"/><path d="M129.417 108.848l-7.458.072a1.447 1.447 0 00-1.433 1.461l.046 4.855a1.447 1.447 0 001.461 1.433l7.458-.071a1.447 1.447 0 001.433-1.461l-.046-4.856a1.447 1.447 0 00-1.461-1.433z" fill="#F2F2F2"/><path d="M141.223 109.348l-7.458.072a1.447 1.447 0 00-1.433 1.461l.047 4.855a1.447 1.447 0 001.461 1.433l7.458-.071a1.448 1.448 0 001.433-1.461l-.047-4.856a1.447 1.447 0 00-1.461-1.433z" fill="#BCC1B5"/><path d="M141.221 108.733l-7.458.071a1.448 1.448 0 00-1.433 1.462l.047 4.855a1.447 1.447 0 001.461 1.433l7.457-.072a1.446 1.446 0 001.434-1.461l-.047-4.855a1.447 1.447 0 00-1.461-1.433z" fill="#F2F2F2"/><path d="M152.831 109.237l-7.458.071a1.447 1.447 0 00-1.433 1.461l.046 4.856a1.447 1.447 0 001.462 1.433l7.457-.072a1.448 1.448 0 001.434-1.461l-.047-4.855a1.447 1.447 0 00-1.461-1.433z" fill="#BCC1B5"/><path d="M152.825 108.625l-7.458.072a1.447 1.447 0 00-1.433 1.461l.046 4.855c.008.8.662 1.441 1.462 1.434l7.457-.072a1.447 1.447 0 001.433-1.461l-.046-4.855a1.448 1.448 0 00-1.461-1.434z" fill="#F2F2F2"/><path d="M164.629 109.124l-7.457.071a1.447 1.447 0 00-1.433 1.461l.046 4.855c.008.8.662 1.441 1.461 1.434l7.458-.072a1.447 1.447 0 001.433-1.461l-.047-4.855a1.446 1.446 0 00-1.461-1.433z" fill="#BCC1B5"/><path d="M164.628 108.51l-7.458.072c-.8.007-1.441.662-1.433 1.461l.046 4.855a1.447 1.447 0 001.461 1.433l7.458-.071a1.447 1.447 0 001.433-1.461l-.047-4.856a1.446 1.446 0 00-1.46-1.433z" fill="#F2F2F2"/><path d="M163.061 61.427l-40.291.387a2.645 2.645 0 01-2.66-2.61l.012 1.265a2.644 2.644 0 002.66 2.611l40.291-.386a2.643 2.643 0 002.611-2.66l-.012-1.267a2.647 2.647 0 01-2.611 2.66z" fill="#EEA443"/><path d="M124.295 79.802l2.442-.025v.564l-1.488 2.845-.843.008 1.493-2.763-1.596.016-.008-.645zm12.894 3.322c-.753.008-1.312-.375-1.32-.97 0-.416.181-.663.538-.831-.263-.157-.435-.374-.439-.744-.004-.523.464-.942 1.184-.946.719-.008 1.196.403 1.2.925 0 .37-.164.588-.423.752.345.177.551.391.555.802.004.637-.547 1.007-1.299 1.016l.004-.004zm-.029-2.878c-.304 0-.485.189-.481.402 0 .243.193.42.489.42s.485-.181.481-.424c0-.214-.185-.403-.489-.398zm.016 1.41c-.341 0-.583.16-.583.427 0 .243.222.424.592.42.37 0 .584-.19.584-.432 0-.267-.251-.42-.593-.415zm11.607 1.365a1.642 1.642 0 01-1.118-.39l.386-.572c.251.197.46.288.744.284.415 0 .638-.321.683-.777a1.013 1.013 0 01-.687.238c-.736.008-1.217-.395-1.221-1.09-.008-.686.518-1.196 1.283-1.204.456-.004.723.103.982.358.247.238.407.608.416 1.282.012 1.106-.502 1.863-1.468 1.871zm.098-2.874c-.37 0-.575.218-.571.526 0 .305.226.514.596.51.37 0 .58-.218.576-.514 0-.304-.226-.522-.601-.518v-.004zm-22.49 10.123l.021 2.08h.456l.004.6h-.456l.008.736-.711.008-.008-.731-1.657.016-.128-.526 1.842-2.175h.629v-.009zm-.703 1.032l-.892 1.064.9-.008-.008-1.056zm10.426-1.098l2.085-.02.008.653-1.443.013-.033.588c.136-.037.255-.062.444-.062.67-.008 1.192.308 1.2 1.081.009.724-.497 1.184-1.278 1.193a1.748 1.748 0 01-1.275-.498l.444-.543c.259.23.514.362.815.362.349 0 .567-.177.563-.48 0-.297-.243-.466-.605-.461-.214 0-.407.061-.567.131l-.436-.284.083-1.673h-.005zm13.552.759c-.227-.168-.407-.267-.695-.263-.424 0-.633.345-.675.793.169-.115.366-.222.703-.226.675-.008 1.197.362 1.205 1.073.009.7-.546 1.184-1.282 1.193-.44.004-.744-.12-.983-.354-.251-.247-.407-.608-.415-1.287-.009-1.052.456-1.862 1.471-1.87.461-.005.761.127 1.065.361l-.386.58h-.008zm-.806.925c-.37 0-.58.21-.576.502 0 .296.226.505.596.501.37 0 .58-.214.576-.51 0-.291-.226-.497-.596-.493zm10.361-1.05l.481-.493.847.834.834-.85.477.468-.835.85.848.835-.481.494-.848-.835-.834.851-.477-.468.835-.851-.847-.835zm-33.528 9.898h.51l.033 3.413-.736.008-.025-2.664-.592.152-.16-.609.97-.3zm10.928.996l-.527-.415c.329-.46.654-.711 1.259-.715.723-.009 1.171.407 1.179 1.04.005.567-.283.855-.879 1.328l-.547.432 1.48-.013v.646l-2.504.024v-.592l1.114-.937c.42-.354.58-.539.58-.822 0-.288-.193-.44-.461-.436-.263 0-.439.148-.69.46h-.004zm11.314-.543v-.641l2.286-.02v.563l-.847.826c.464.074.913.313.921.946.004.645-.457 1.118-1.213 1.126-.613.004-1.036-.234-1.328-.575l.51-.494c.234.259.481.403.822.399.28 0 .477-.164.477-.423 0-.28-.243-.436-.67-.432h-.309l-.119-.473.802-.822-1.332.012v.008zm12.081 1.489l-.008-.707 1.492-.012.009.707-1.493.012zm-34.471 12.288c-.909.008-1.509-.748-1.521-1.735-.009-.991.588-1.768 1.496-1.776.909-.008 1.509.748 1.522 1.735.008.991-.589 1.768-1.497 1.776zm-.029-2.837c-.452.005-.732.457-.728 1.086.004.625.305 1.085.757 1.077.452-.004.732-.465.728-1.085-.004-.621-.304-1.086-.757-1.078zm11.33 2.674l-.008-.777.785-.008.008.777-.785.008zm11.756-3.027l.69-.008.009.871.875-.008.009.67-.876.008.008.872-.69.008-.009-.871-.876.008-.008-.67.876-.009-.008-.871zm13.184.115l.009.67-2.299.02-.008-.67 2.298-.02zm.013 1.262l.008.67-2.298.021-.009-.671 2.299-.02z" fill="#000"/><path d="M157.58 54.973c0-.604.181-1.069.547-1.398a1.748 1.748 0 011.229-.493c.494-.004.913.152 1.258.473.354.32.539.785.556 1.39l.029 2.882c-.005.6-.181 1.065-.531 1.394a1.811 1.811 0 01-1.25.505c-.477 0-.892-.16-1.238-.48-.37-.322-.563-.782-.575-1.382l-.029-2.886.004-.005zm2.689.033c-.025-.653-.325-.986-.905-.99-.579.016-.875.353-.879 1.01l.025 2.776c.016.662.316.99.9.99.58-.011.872-.349.884-1.01l-.025-2.776z" fill="#fff"/><path d="M161.849 80.838v.563l-2.923.029v-.563l2.923-.03zm-1.862-.592l-.008-.777.785-.008.008.777-.785.008zm.025 2.612l-.008-.778.785-.008.008.777-.785.009z" fill="#000"/><path d="M116.516 67.243l52.679-.596" stroke="#032A36" stroke-width=".96" stroke-miterlimit="10"/><path d="M100.87 140.387c10.652 0 19.287-1.649 19.287-3.684 0-2.034-8.635-3.683-19.287-3.683-10.651 0-19.286 1.649-19.286 3.683 0 2.035 8.635 3.684 19.286 3.684z" fill="#E69200"/><path d="M120.153 133.02H81.584v3.683h38.569v-3.683z" fill="#E69200"/><path d="M100.87 136.706c10.652 0 19.287-1.65 19.287-3.684 0-2.035-8.635-3.684-19.287-3.684-10.651 0-19.286 1.649-19.286 3.684 0 2.034 8.635 3.684 19.286 3.684z" fill="#F4CA44"/><path d="M100.871 135.465c8.522 0 15.43-1.105 15.43-2.467s-6.908-2.467-15.43-2.467c-8.521 0-15.43 1.105-15.43 2.467s6.909 2.467 15.43 2.467z" fill="#EA9403"/><path d="M100.87 135.336c8.242 0 14.924-.982 14.924-2.192 0-1.21-6.682-2.191-14.924-2.191-8.243 0-14.925.981-14.925 2.191s6.682 2.192 14.925 2.192z" fill="#FFD237"/><path d="M98.554 134.864c10.651 0 19.286-1.65 19.286-3.684 0-2.035-8.635-3.684-19.286-3.684-10.652 0-19.287 1.649-19.287 3.684 0 2.034 8.635 3.684 19.287 3.684z" fill="#E69200"/><path d="M117.836 127.492H79.267v3.684h38.569v-3.684z" fill="#E69200"/><path d="M98.554 131.177c10.651 0 19.286-1.65 19.286-3.684 0-2.035-8.635-3.684-19.286-3.684-10.652 0-19.287 1.649-19.287 3.684 0 2.034 8.635 3.684 19.287 3.684z" fill="#F4CA44"/><path d="M98.553 129.938c8.522 0 15.43-1.105 15.43-2.467s-6.908-2.467-15.43-2.467c-8.522 0-15.43 1.105-15.43 2.467s6.908 2.467 15.43 2.467z" fill="#EA9403"/><path d="M98.553 129.811c8.243 0 14.924-.981 14.924-2.192 0-1.21-6.681-2.191-14.924-2.191-8.242 0-14.924.981-14.924 2.191 0 1.211 6.682 2.192 14.924 2.192z" fill="#FFD237"/><path d="M101.638 130.954c10.652 0 19.286-1.65 19.286-3.684 0-2.035-8.634-3.684-19.286-3.684-10.651 0-19.286 1.649-19.286 3.684 0 2.034 8.635 3.684 19.286 3.684z" fill="#E69200"/><path d="M120.92 123.586H82.352v3.684h38.568v-3.684z" fill="#E69200"/><path d="M101.638 127.27c10.652 0 19.286-1.649 19.286-3.684 0-2.034-8.634-3.684-19.286-3.684-10.651 0-19.286 1.65-19.286 3.684 0 2.035 8.635 3.684 19.286 3.684z" fill="#F4CA44"/><path d="M101.639 126.033c8.522 0 15.43-1.104 15.43-2.467 0-1.362-6.908-2.466-15.43-2.466-8.522 0-15.43 1.104-15.43 2.466 0 1.363 6.908 2.467 15.43 2.467z" fill="#EA9403"/><path d="M101.639 125.902c8.243 0 14.925-.981 14.925-2.191s-6.682-2.191-14.925-2.191c-8.242 0-14.924.981-14.924 2.191s6.682 2.191 14.924 2.191z" fill="#FFD237"/><path d="M98.554 125.428c10.651 0 19.286-1.649 19.286-3.684 0-2.034-8.635-3.683-19.286-3.683-10.652 0-19.287 1.649-19.287 3.683 0 2.035 8.635 3.684 19.287 3.684z" fill="#E69200"/><path d="M117.836 118.057H79.267v3.683h38.569v-3.683z" fill="#E69200"/><path d="M98.554 121.741c10.651 0 19.286-1.65 19.286-3.684 0-2.035-8.635-3.684-19.286-3.684-10.652 0-19.287 1.649-19.287 3.684 0 2.034 8.635 3.684 19.287 3.684z" fill="#F4CA44"/><path d="M98.553 120.504c8.522 0 15.43-1.104 15.43-2.467 0-1.362-6.908-2.467-15.43-2.467-8.522 0-15.43 1.105-15.43 2.467 0 1.363 6.908 2.467 15.43 2.467z" fill="#EA9403"/><path d="M98.553 120.373c8.243 0 14.924-.981 14.924-2.191 0-1.211-6.681-2.192-14.924-2.192-8.242 0-14.924.981-14.924 2.192 0 1.21 6.682 2.191 14.924 2.191z" fill="#FFD237"/><path d="M101.212 120.76c10.652 0 19.287-1.649 19.287-3.684 0-2.034-8.635-3.683-19.287-3.683-10.651 0-19.286 1.649-19.286 3.683 0 2.035 8.635 3.684 19.286 3.684z" fill="#E69200"/><path d="M120.494 113.393H81.926v3.683h38.568v-3.683z" fill="#E69200"/><path d="M101.212 117.077c10.652 0 19.287-1.65 19.287-3.684 0-2.035-8.635-3.684-19.287-3.684-10.651 0-19.286 1.649-19.286 3.684 0 2.034 8.635 3.684 19.286 3.684z" fill="#F4CA44"/><path d="M101.213 115.84c8.522 0 15.43-1.105 15.43-2.467s-6.908-2.467-15.43-2.467c-8.521 0-15.43 1.105-15.43 2.467s6.909 2.467 15.43 2.467z" fill="#EA9403"/><path d="M101.214 115.707c8.242 0 14.924-.981 14.924-2.191 0-1.211-6.682-2.192-14.924-2.192-8.243 0-14.925.981-14.925 2.192 0 1.21 6.682 2.191 14.925 2.191z" fill="#FFD237"/><path d="M100.13 114.452c10.652 0 19.286-1.65 19.286-3.684 0-2.035-8.634-3.684-19.286-3.684-10.651 0-19.286 1.649-19.286 3.684 0 2.034 8.635 3.684 19.286 3.684z" fill="#E69200"/><path d="M119.416 107.084H80.848v3.684h38.568v-3.684z" fill="#E69200"/><path d="M100.13 110.77c10.652 0 19.286-1.649 19.286-3.684 0-2.034-8.634-3.684-19.286-3.684-10.651 0-19.286 1.65-19.286 3.684 0 2.035 8.635 3.684 19.286 3.684z" fill="#F4CA44"/><path d="M100.131 109.531c8.522 0 15.43-1.104 15.43-2.467 0-1.362-6.908-2.466-15.43-2.466-8.522 0-15.43 1.104-15.43 2.466 0 1.363 6.909 2.467 15.43 2.467z" fill="#EA9403"/><path d="M100.132 109.4c8.242 0 14.924-.981 14.924-2.191s-6.682-2.191-14.924-2.191c-8.243 0-14.925.981-14.925 2.191s6.682 2.191 14.925 2.191z" fill="#FFD237"/><path d="M97.468 109.18c10.652 0 19.287-1.649 19.287-3.684 0-2.034-8.635-3.684-19.287-3.684-10.651 0-19.286 1.65-19.286 3.684 0 2.035 8.635 3.684 19.286 3.684z" fill="#E69200"/><path d="M116.751 101.812h-38.57v3.684h38.57v-3.684z" fill="#E69200"/><path d="M97.468 105.496c10.652 0 19.287-1.649 19.287-3.683 0-2.035-8.635-3.684-19.287-3.684-10.651 0-19.286 1.65-19.286 3.684 0 2.034 8.635 3.683 19.286 3.683z" fill="#F4CA44"/><path d="M97.469 104.26c8.521 0 15.43-1.105 15.43-2.467s-6.909-2.467-15.43-2.467c-8.522 0-15.43 1.105-15.43 2.467s6.908 2.467 15.43 2.467z" fill="#EA9403"/><path d="M97.47 104.127c8.242 0 14.923-.981 14.923-2.191 0-1.211-6.681-2.192-14.924-2.192-8.242 0-14.924.981-14.924 2.192 0 1.21 6.682 2.191 14.924 2.191z" fill="#FFD237"/><path opacity=".3" d="M117.804 121.588v-2.643c1.686-.547 2.656-1.184 2.656-1.867v-3.684c0-.567-.67-1.101-1.862-1.582.506-.329.785-.679.785-1.041v-3.683c0-.683-.974-1.32-2.66-1.867v-3.408c0-2.035-8.634-3.684-19.287-3.684-10.652 0-19.286 1.649-19.286 3.684v3.683c0 .683.975 1.32 2.66 1.867v3.408c0 .568.67 1.102 1.863 1.583-.506.329-.785.679-.785 1.04v2.8c-1.686.547-2.656 1.184-2.656 1.867v3.684c0 .736 1.134 1.422 3.083 1.998v1.755c-1.949.576-3.083 1.262-3.083 1.998v3.684c0 .637.842 1.234 2.326 1.756 0 .029-.012.057-.012.086v3.684c0 2.035 8.634 3.684 19.287 3.684 10.652 0 19.286-1.649 19.286-3.684v-3.684c0-.637-.843-1.233-2.327-1.755 0-.029.012-.058.012-.087v-1.912c1.949-.575 3.084-1.262 3.084-1.998v-3.684c0-.735-1.135-1.422-3.084-1.998z" fill="#FCDD41"/><path d="M122.007 144.997c8.526 0 15.438-1.319 15.438-2.948 0-1.628-6.912-2.947-15.438-2.947s-15.439 1.319-15.439 2.947c0 1.629 6.913 2.948 15.439 2.948z" fill="#E69200"/><path d="M137.441 139.098h-30.873v2.948h30.873v-2.948z" fill="#E69200"/><path d="M122.007 142.046c8.526 0 15.438-1.32 15.438-2.948s-6.912-2.948-15.438-2.948-15.439 1.32-15.439 2.948 6.913 2.948 15.439 2.948z" fill="#F4CA44"/><path d="M122.007 141.054c6.821 0 12.35-.883 12.35-1.973s-5.529-1.974-12.35-1.974-12.351.884-12.351 1.974c0 1.09 5.53 1.973 12.351 1.973z" fill="#EA9403"/><path d="M122.006 140.946c6.599 0 11.948-.784 11.948-1.751 0-.967-5.349-1.752-11.948-1.752-6.598 0-11.947.785-11.947 1.752s5.349 1.751 11.947 1.751z" fill="#FFD237"/><path d="M120.153 140.573c8.526 0 15.439-1.319 15.439-2.947 0-1.628-6.913-2.948-15.439-2.948s-15.438 1.32-15.438 2.948 6.912 2.947 15.438 2.947z" fill="#E69200"/><path d="M135.587 134.674h-30.872v2.948h30.872v-2.948z" fill="#E69200"/><path d="M120.153 137.623c8.526 0 15.439-1.32 15.439-2.948s-6.913-2.948-15.439-2.948-15.438 1.32-15.438 2.948 6.912 2.948 15.438 2.948z" fill="#F4CA44"/><path d="M120.151 136.63c6.821 0 12.351-.883 12.351-1.973s-5.53-1.973-12.351-1.973c-6.821 0-12.35.883-12.35 1.973s5.529 1.973 12.35 1.973z" fill="#EA9403"/><path d="M120.153 136.524c6.598 0 11.947-.784 11.947-1.751 0-.967-5.349-1.752-11.947-1.752-6.599 0-11.948.785-11.948 1.752s5.349 1.751 11.948 1.751z" fill="#FFD237"/><path d="M122.624 137.446c8.526 0 15.438-1.319 15.438-2.947 0-1.628-6.912-2.948-15.438-2.948s-15.438 1.32-15.438 2.948 6.912 2.947 15.438 2.947z" fill="#E69200"/><path d="M138.058 131.547h-30.872v2.948h30.872v-2.948z" fill="#E69200"/><path d="M122.624 134.493c8.526 0 15.438-1.319 15.438-2.948 0-1.628-6.912-2.947-15.438-2.947s-15.438 1.319-15.438 2.947c0 1.629 6.912 2.948 15.438 2.948z" fill="#F4CA44"/><path d="M122.624 133.504c6.821 0 12.351-.884 12.351-1.974 0-1.09-5.53-1.973-12.351-1.973-6.821 0-12.351.883-12.351 1.973s5.53 1.974 12.351 1.974z" fill="#EA9403"/><path d="M122.624 133.396c6.598 0 11.947-.784 11.947-1.752 0-.967-5.349-1.751-11.947-1.751-6.599 0-11.948.784-11.948 1.751 0 .968 5.349 1.752 11.948 1.752z" fill="#FFD237"/><path d="M120.153 133.017c8.526 0 15.438-1.32 15.438-2.948s-6.912-2.948-15.438-2.948-15.438 1.32-15.438 2.948 6.912 2.948 15.438 2.948z" fill="#E69200"/><path d="M135.587 127.121h-30.872v2.948h30.872v-2.948z" fill="#E69200"/><path d="M120.153 130.069c8.526 0 15.439-1.319 15.439-2.947 0-1.628-6.913-2.948-15.439-2.948s-15.438 1.32-15.438 2.948 6.912 2.947 15.438 2.947z" fill="#F4CA44"/><path d="M120.151 129.076c6.821 0 12.351-.884 12.351-1.974 0-1.09-5.53-1.973-12.351-1.973-6.821 0-12.35.883-12.35 1.973s5.529 1.974 12.35 1.974z" fill="#EA9403"/><path d="M120.153 128.97c6.598 0 11.947-.784 11.947-1.752 0-.967-5.349-1.751-11.947-1.751-6.599 0-11.948.784-11.948 1.751 0 .968 5.349 1.752 11.948 1.752z" fill="#FFD237"/><path d="M122.278 129.284c8.526 0 15.438-1.319 15.438-2.947 0-1.628-6.912-2.948-15.438-2.948s-15.438 1.32-15.438 2.948 6.912 2.947 15.438 2.947z" fill="#E69200"/><path d="M137.716 123.389h-30.872v2.948h30.872v-2.948z" fill="#E69200"/><path d="M122.278 126.337c8.526 0 15.438-1.32 15.438-2.948s-6.912-2.948-15.438-2.948-15.438 1.32-15.438 2.948 6.912 2.948 15.438 2.948z" fill="#F4CA44"/><path d="M122.276 125.345c6.821 0 12.351-.883 12.351-1.973s-5.53-1.974-12.351-1.974c-6.821 0-12.35.884-12.35 1.974 0 1.09 5.529 1.973 12.35 1.973z" fill="#EA9403"/><path d="M122.278 125.239c6.598 0 11.947-.784 11.947-1.751 0-.968-5.349-1.752-11.947-1.752-6.599 0-11.948.784-11.948 1.752 0 .967 5.349 1.751 11.948 1.751z" fill="#FFD237"/><path opacity=".3" d="M135.501 129.47v-2.113c1.349-.44 2.126-.95 2.126-1.493v-2.947c0-1.629-6.911-2.948-15.438-2.948-8.527 0-15.438 1.319-15.438 2.948v2.24c-1.349.44-2.126.95-2.126 1.493v2.948c0 .587.909 1.138 2.467 1.599v1.406c-1.558.46-2.467 1.011-2.467 1.599v2.948c0 .51.674.987 1.863 1.406 0 .025-.009.045-.009.07v2.948c0 1.628 6.911 2.948 15.438 2.948 8.527 0 15.439-1.32 15.439-2.948v-2.948c0-.51-.675-.987-1.863-1.406 0-.025.008-.045.008-.07v-1.529c1.558-.461 2.467-1.012 2.467-1.6v-2.948c0-.587-.909-1.138-2.467-1.599v-.004z" fill="#FCDD41"/><path d="M54.143 77.753c.218 3.753.045 4.822 1.068 9.587 1.592 7.38 1.41 5.641 1.563 6.677.703 1.822 2.783 9.826 3.552 11.364.045 3.121.514 5.575 1.423 9.374 1.085 4.539 4.238 12.24 5.833 16.454l3.15-.753c-.46-8.403-1.636-19.94-3.429-32.636-1.147-8.132-.04-15.676-1.295-22.275l-11.865 2.204v.004z" fill="#1E2D54"/><path d="M47.306 76.975c-.781 3.704-.913 7.77-1.044 12.642-.202 7.549 1.08 10.994.97 12.038a51.4 51.4 0 001.16 5.431c-.81 3.047-1.284 6.681-1.284 10.591 0 4.667.28 9.95.959 14.419h3.84c1.788-8.281 3.61-19.776 5.04-32.538.917-8.177 1.563-15.87 1.937-22.58H47.298l.008-.003z" fill="#153F5E"/><path d="M58.624 84.644c4.314 0 7.812-2.67 7.812-5.966 0-3.294-3.498-5.965-7.812-5.965s-7.812 2.67-7.812 5.966c0 3.294 3.498 5.965 7.812 5.965z" fill="#153F5E"/><path d="M51.066 134.79h-2.7v-3.979h3.177l-.477 3.979z" fill="#EA9F88"/><path d="M52.226 138.249v-.272c0-.283-.041-.551-.115-.768l-.666-2.665s-.613.309-1.209.181c-.6-.127-.567-.995-1.204-1.422h-.288s-.588.197-.995 1.065c-.296.629-.4 1.895-.588 2.31-.218.473-.44.925-.613 1.266a1.201 1.201 0 00-.432.588c-.23 0-.275.009-.004.021-.04.132-.07.271-.07.423v.576h6.394v-.576c0-.275-.083-.526-.214-.727h.004zm-2.302-.477v.008h-.185v-.008h.185z" fill="#16415D"/><path d="M71.3 134.087l-2.25.69-1.163-3.803 2.648-.814.764 3.927z" fill="#EA9F88"/><path d="M66.743 136.877l.975-2.747s1.439.321 2.319.185c.88-.131.875-.933 1.225-1.463h1.171s1.538 2.73 4.556 3.408h2.261c.526 0 .958.633.958 1.41v.625h-9.51l-.48-.835h-.268v.835h-3.384v-.625c0-.292.062-.567.169-.793h.008z" fill="#16415D"/><path d="M52.482 41.775c.97.465 2.069.732 3.236.732 1.336 0 2.586-.35 3.647-.946-.42-.699-.67-1.607-.67-2.602 0-1.357.468-2.557 1.184-3.273v-1.698h-4.322c-.189 3.166-1.356 5.945-3.075 7.795v-.008z" fill="#EA9F86"/><path d="M62.07 31.394c.181-2.475-2.516-2.758-4.498-2.902-1.274-.095-2.425.004-3.26 1.262-.21-.3-.67.234-.995.222-.674-.025-1.098.185-1.135 1.139-.037.95.33 2.281 1.004 2.31.032 0 .066-.008.094-.008.025.777-.263 1.37.07 2.002.654 1.242 2.286 2.278 3.466 2.62 3.848 1.113 5.07-4.162 5.25-6.637l.004-.008z" fill="#EBB190"/><path d="M64.763 28.886c.21-1.99-.407-3.269-3.598-3.647-2.121-.25-5.714-.271-7.988.181-2.319.46-1.99 2.265-1.9 3.047.223 1.928.794 4.769 1.736 5.073a.6.6 0 00.567-.094c-.313-.194-.58-.551-.707-1.004-.21-.76.057-1.48.604-1.611.448-.107.934.218 1.213.752.72-1.357 1.8-2.701 4.47-1.468 2.918 1.345 5.39.76 5.599-1.23h.004z" fill="#1C3054"/><path d="M54.206 57.756c6.052 0 11.816-.317 17.058-.893-.287-7.47-4.818-13.715-10.998-15.82-.962.839-2.392 1.369-3.988 1.369-1.764 0-3.322-.65-4.272-1.64-6.714 1.804-11.725 8.424-11.914 16.38 4.428.39 9.176.604 14.118.604h-.004z" fill="#729EDB"/><path d="M70.923 56.527l.337 5.842c-3.158.749-5.18 2.077-5.854 4.136-1.197-1.307-1.88-3.502-2.056-6.578-.041-.711-.053-1.809 0-2.479l7.573-.917v-.004z" fill="#EA9F87"/><path d="M65.39 66.62c.55-3.421 2.733-4.067 5.504-4.392l12.178-.703c.329-.6 1.139-1.097 2.195-1.352.194-.046.44.234.449.423.049.86-.506 1.661 1.18 1.612.777-.02 2.326-.111 3.153-.267.21-.042.92-.03.485.6-.687.99-2.352 2.302-4.156 2.351-1.143.033-2.032-.41-2.628-1.007-3.893 1.743-10.994 3.717-15.027 3.836-1.352.041-2.463-.329-3.338-1.102h.004z" fill="#EFB290"/><path d="M47.626 78.109h18.488c.424 0 .341-1.18.284-1.349-.354-1.06-.72-1.348-.954-2.549a32.182 32.182 0 01-.584-6.188c0-6.968 2.097-13.555 4.852-17.44-1.826-4.526-5.34-8.025-9.662-9.497-.962.839-2.393 1.369-3.988 1.369-1.764 0-3.322-.65-4.272-1.64-5.06 1.36-9.16 5.464-10.948 10.808 3.996 1.764 7.014 9.83 7.014 19.525 0 1.517-.079 2.99-.218 4.408-.078.773-.403 1.106-.444 1.381-.111.769.218 1.172.44 1.172h-.008z" fill="#729EDB"/><path d="M48.13 56.582l-.218 6.997c-3.453.679-5.748 2.126-6.672 4.54-1.152-1.645-1.661-4.31-1.546-7.997.028-.855.123-2.163.246-2.96l8.19-.58z" fill="#EA9F87"/><path d="M41.21 68.255c.926-4.045 3.331-4.666 6.324-4.868l13.09-.008c.416-.695 1.329-1.233 2.484-1.464.214-.04.444.313.44.535-.033 1.028-.703 1.949 1.102 2.006.834.025 2.5.025 3.4-.107.226-.032.987.03.46.753-.834 1.139-2.742 2.586-4.678 2.524a3.47 3.47 0 01-2.71-1.381c-4.337 1.813-12.128 3.688-16.45 3.552-1.45-.045-2.598-.563-3.457-1.546l-.004.004z" fill="#EFB290"/><path d="M87.955 5.535V9.62h.884V5.534c0-.296-.197-.534-.44-.534-.242 0-.44.238-.44.535h-.004zm.002 17.86c0 .296.198.534.44.534.243 0 .44-.238.44-.534v-3.84h-.884v3.84h.004zm-9.025-8.932c0 .243.238.44.534.44h4.087v-.883h-4.087c-.296 0-.534.197-.534.44v.003zm18.394-.437h-3.84v.884h3.84c.296 0 .535-.198.535-.44 0-.243-.239-.44-.535-.44v-.004zM81.768 8.464l2.89 2.89.626-.625-2.89-2.89c-.21-.21-.519-.239-.692-.066-.172.173-.143.48.066.69zm12.629 12.629c.21.21.518.238.691.065.173-.172.144-.48-.066-.69l-2.717-2.718-.625.625 2.717 2.718zm-12.694.064c.172.173.48.144.69-.066l2.89-2.89-.625-.625-2.89 2.89c-.21.21-.238.518-.066.691zM94.397 7.839l-2.717 2.717.625.625 2.717-2.717c.21-.21.239-.518.066-.691-.173-.173-.48-.144-.69.066z" fill="#E5803C"/><path d="M101.017 71.157h-3.742v-2.24h3.742v-3.968h2.298v3.968h3.741v2.24h-3.741v3.968h-2.298v-3.968z" fill="#729EDB"/><defs><linearGradient id="paint0_linear_248_54564" x1="100.374" y1="5.49" x2="100.374" y2="143.294" gradientUnits="userSpaceOnUse"><stop stop-color="#F6FBFF"/><stop offset="1" stop-color="#EAF0F9"/></linearGradient></defs></svg>