<svg width="195" height="127" fill="none" xmlns="http://www.w3.org/2000/svg"><path opacity=".3" d="M140.459 126.032c9.454 0 17.119-1.32 17.119-2.947 0-1.628-7.665-2.947-17.119-2.947-9.455 0-17.119 1.319-17.119 2.947 0 1.627 7.664 2.947 17.119 2.947zm-59.581-2.391c9.454 0 17.119-1.319 17.119-2.947 0-1.628-7.665-2.947-17.12-2.947-9.454 0-17.118 1.319-17.118 2.947 0 1.628 7.664 2.947 17.119 2.947z" fill="#C7D0DD"/><path d="M109.427 88.502H91.901a1.973 1.973 0 00-1.972 1.974v1.299c0 1.09.883 1.973 1.972 1.973h17.526a1.973 1.973 0 001.972-1.974v-1.298c0-1.09-.883-1.974-1.972-1.974zm3.329 28.751l-13.262-1.044v-2.193l13.262 2.299v.938zm-26.521 0l13.258-1.044v-2.193l-13.258 2.299v.938zm26.622 3.551c.778 0 1.408-.656 1.408-1.464 0-.808-.63-1.464-1.408-1.464-.777 0-1.407.656-1.407 1.464 0 .808.63 1.464 1.407 1.464zm-26.622-.208c.778 0 1.408-.655 1.408-1.463 0-.809-.63-1.464-1.408-1.464-.777 0-1.407.655-1.407 1.464 0 .808.63 1.463 1.407 1.463z" fill="#528BBF"/><path d="M112.554 117.214h-.509v.98h.509v-.98zm-25.534-.208h-.51v.98h.51v-.98zm12.473 3.798c.777 0 1.407-.656 1.407-1.464 0-.808-.63-1.464-1.407-1.464s-1.407.656-1.407 1.464c0 .808.63 1.464 1.407 1.464z" fill="#528BBF"/><path d="M99.748 116.806h-.51v1.565h.51v-1.565z" fill="#528BBF"/><path d="M100.298 115.637H98.69v1.357h1.608v-1.357zm2.411-23.627H96.28v11.922h6.429V92.01z" fill="#528BBF"/><path d="M100.599 101.517h-2.21v12.636h2.21v-12.636z" fill="#528BBF"/><path d="M66.694 119.447l7.605.569 1.058.082 1.33.098.356-4.775-3.783-.243-2.015 1.691-4.504 1.962-.047.616z" fill="#19132E"/><path d="M73.663 113.445l-.126 1.691 3.374.252.126-1.69-3.374-.253z" fill="#F3C6A0"/><path d="M81.528 120.553l7.62.192 1.063.024 1.333.035.118-4.787-3.787-.055-1.933 1.789-4.398 2.182-.016.62z" fill="#19132E"/><path d="M88.493 114.312l-.042 1.695 3.382.084.042-1.694-3.382-.085z" fill="#F3C6A0"/><path d="M83.197 98.35c1.768-3.33 10.843-1.816 17.241-7.266s-9.945-6.173-9.945-6.173-9.4 5.207-11.094 5.69c-1.693.483-2.619 2.37-3.199 5.47-.58 3.1-4.94 19.102-4.94 19.102l6.85.616s3.316-14.107 5.084-17.438h.003z" fill="#314572"/><path d="M94.32 97.162c1.125-3.603 8.886-2.123 14.171-8.66 5.284-6.538-10.236-2.147-10.236-2.147s-7.761 4.054-9.333 4.842c-1.576.789-2.137 2.814-2.137 5.969v19.027h5.512s.901-15.425 2.022-19.027v-.004z" fill="#41587F"/><path d="M110.067 86.133s-1.192 3.202-10.38 2.166c-9.189-1.04-10.197-3.528-10.197-3.528s.785-15.3 1.686-20.028c.902-4.729 5.398-6.306 5.398-6.306l3.873 1.601 3.775-1.601s5.398-.153 6.746 5.478c1.349 5.63-.901 22.218-.901 22.218z" fill="#528BBF"/><path d="M99.626 88.388c.063.008.122.012.18.02 2.553-7.95 4.352-20.468 4.352-29.877 0 0 .098 1.047-3.916 1.6-4.014.554-3.332-1.6-3.332-1.6-2.152 4.587-1.807 20.69-3.78 28.558 1.498.495 3.588.97 6.496 1.3z" fill="#ECF5FC"/><path d="M89.844 67.846l-.385 5.054-6.773 6.569c-.09 1.173 1.9 2.515 3.073 2.601l3.975-.53c.227-3.9.694-11.167 1.239-15.417a2.136 2.136 0 00-1.13 1.723z" fill="#6DA2C9"/><path d="M100.864 80.226l-1.039-2.04-6.66 1.934c-.82-.204-1.87-.326-3.018-.326-2.63 0-4.76.64-4.76 1.429 0 .788 2.133 1.428 4.76 1.428 1.709 0 3.206-.27 4.045-.675l6.668-1.75h.004z" fill="#F3C6A0"/><path d="M112.878 75.663c0-2.362-.561-9.57-1.913-11.748-1.349-2.178-.835-.032-2.532.047a3.1 3.1 0 00-2.944 3.237s1.552 7.946.423 9.049c-1.129 1.102-10.463 1.891-10.463 1.891v5.517s13.987-2.488 15.257-3.045c1.274-.557 2.176-3.088 2.172-4.948z" fill="#6DA2C9"/><path d="M86.06 81.902c-.227-.797-.733-1.523-1.454-2.127-.682-.114-1.47-.18-2.305-.18-2.63 0-4.759.64-4.759 1.428 0 .789 2.132 1.428 4.759 1.428 1.529 0 2.889-.216 3.76-.553v.004z" fill="#F3C6A0"/><path d="M97.293 55.246v4.21s3.285 3.606 6.3.083l-.263-4.293h-6.037z" fill="#E8BEA9"/><path d="M100.509 58.127a3.61 3.61 0 01-.243.027c-1.011.075-1.944-.212-2.7-.828-.07-.055-.07-.153 0-.215a.19.19 0 01.246-.012c.687.561 1.533.82 2.447.75.952-.071 1.768-.519 2.418-1.33a.192.192 0 01.243-.044.14.14 0 01.04.212c-.655.812-1.494 1.306-2.443 1.44h-.008z" fill="#BA745D"/><path d="M96.069 50.459c-.396 3.433.05 7.15 2.744 7.389 2.802.25 5.758-1.346 6.154-4.78.396-3.433-1.446-6.678-4.112-7.243-2.666-.565-4.39 1.2-4.786 4.634z" fill="#F3C6A0"/><path d="M95.887 47.532c-.137-.353-.094-.777.204-1.24.059-.094.13-.188.212-.29.337-.436.831-.84 1.278-1.193.016 0 .031 0 .047.004 2.215-.687 4.775-.856 6.778.125.98.463 1.524 1.162 1.775 1.966.518 1.083.365 2.83.079 4.144a9.986 9.986 0 01-.247.953c-.388 1.26-.89 2.971-1.921 3.925-.216.172-.56.349-.878.31-.016 0-.031-.004-.047-.008.035-.06.074-.118.109-.18.102-.382.079-.813.079-1.19.157.141.282.216.427.224.141.012.298-.043.506-.169.549-.298.741-.867.761-1.456 0-.153-.028-.42-.091-.675 0 0 0-.007-.007-.011-.048-.18-.118-.35-.22-.464-.083-.09-.176-.149-.302-.149-.168 0-.458.216-.607.397l-.036.047c-.031.18-.07.357-.118.534a7.42 7.42 0 01-.172.6c-.243.122-.49.282-.76.31l-.012-.13c.388-1.087.38-2.24.337-3.39l-.035-.844c-.012-.263-.02-.522-.02-.78v-.044c-1.203-.074-2.426-.153-3.461-.588.4.176.741.42 1.05.69.106.09.208.185.306.275.239.224.47.451.709.667-1.372.098-3.418-.66-4.81-1.503a8.605 8.605 0 01-.556-.369h-.004l-.008.012a16.97 16.97 0 00-.058.903 22.05 22.05 0 00.042 3.3c-.02 0-.043 0-.062.004-.055-.29-.137-.57-.216-.852-.106-.38-.204-.765-.235-1.17-.063-.788-.255-1.965.172-2.699l.012.004z" fill="#314572"/><path d="M100.85 45.824c0 1.11-3.014 1.644-4.151 1.644s-2.058-.898-2.058-2.009c0-1.11.92-2.009 2.058-2.009 1.136 0 4.151 1.264 4.151 2.37v.004zm-2.817 11.462c-.87-.03-1.47-.372-1.866-.91.18 1.523.816 2.727 2.23 2.845 2.235.18 4.591-.973 4.908-3.461a5.39 5.39 0 00.044-.714c-1.086 1.55-3.266 2.311-5.316 2.24z" fill="#314572"/><path d="M90.696 79.52H79.398v1.582h11.298V79.52z" fill="#fff"/><path d="M80.877 80.948h-15.61l-5.104-12.231h15.61l5.104 12.231z" fill="#fff"/><path d="M80.143 80.948h-15.61L59.43 68.717h15.61l5.103 12.231z" fill="#ADCDE0"/><path d="M69.601 82.328l-14.609 36.451.972.39 14.609-36.45-.972-.391zm102.838.344l-14.609 36.451.971.39 14.61-36.451-.972-.39zm7.951-1.209l-.971.39 14.609 36.452.971-.39-14.609-36.452zm-102.826.429l-.971.39 14.609 36.452.971-.391-14.609-36.45z" fill="#6D819E"/><path d="M189.293 81.18H62.043a.353.353 0 00-.353.353v.769c0 .195.159.353.353.353h127.25a.352.352 0 00.352-.353v-.77a.352.352 0 00-.352-.352z" fill="#314572"/><path d="M139.622 122.241l-5.315.694 2.516-3.284.565-5.082h2.756l-.294 4.183-.228 3.489z" fill="#F3C6A0"/><path d="M138.19 122.04s-2.164.235-3.038.373c-1.729.274-2.827 1.369-2.827 1.369h2.909l2.952-1.106v.808h1.391v-2.142l-1.391.698h.004z" fill="url(#paint0_linear_248_56101)"/><path d="M150.387 122.684l-5.218 1.232 2.172-3.523.047-5.113 2.74-.279.133 4.191.126 3.492z" fill="#F3C6A0"/><path d="M148.94 122.63s-2.129.455-2.983.679c-1.694.447-2.674 1.648-2.674 1.648l2.897-.294 2.826-1.405.083.804 1.384-.141-.216-2.131-1.313.836-.004.004z" fill="url(#paint1_linear_248_56101)"/><path d="M150.125 119.98l-3.998-.286s.262-8.511.156-18.074c-.105-9.563-1.34-18.02-1.34-18.02l-4.9 35.658-3.309-.235s.718-24.71 1.075-31.902c.36-7.19 2.022-13.919 2.022-13.919s4.618.114 7.852-.114c3.234-.227 5.469-1.397 5.469-1.397s1.713 6.632 1.713 15.575-4.744 32.714-4.744 32.714h.004z" fill="#314572"/><path d="M153.154 71.692l-4.676 1.86-8.456-.349-1.489-1.605s.341-4.285-.235-9.97c-.577-5.683-.565-7.574.485-8.496 1.051-.922 3.387-1.519 7.202-1.844 2.842-.244 6.174.298 7.169.298 2.337 0 4.25 3.83 4.25 3.83l-2.552 6.49s-1.67 1.534-1.972 3.947c-.306 2.414.274 5.843.274 5.843v-.004z" fill="#F7882D"/><path d="M157.404 55.415l-2.536 6.063 3.705 5.638-3.705 5.64 1.897 1.592 6.379-7.66-5.74-11.273zM139 77.236h-1.894l1.427-5.634 1.302 1.6-.835 4.034z" fill="#F7882D"/><path d="M150.603 51.902s-4.32 4.164-5.456 4.183c-1.133.024-2.337.212-3.399-.675-1.062-.886.352-3.512.352-3.512s3.329-1.275 1.631-4.112c-1.701-2.837 4.669-2.837 3.928 0-.741 2.837 2.944 4.112 2.944 4.112v.004z" fill="#ECB5A1"/><path d="M147.506 48.327c.011-.172.043-.353.09-.537.741-2.837-5.629-2.837-3.928 0 .584.977.576 1.77.31 2.39a5.143 5.143 0 003.532-1.853h-.004z" fill="#BB673D"/><path d="M149.19 43.713c0 2.998-1.752 5.427-3.916 5.427-2.164 0-3.168-2.04-3.728-5.427-.49-2.955 1.564-5.427 3.728-5.427s3.916 2.43 3.916 5.427z" fill="#ECB5A1"/><path d="M146.142 34.315c-3.481 0-6.303 2.54-6.303 5.675 0 1.35.67 2.719 1.705 3.841v-.118c0-1.722 1.529-3.084 3.505-3.084.494 0 2.336-.745 2.336-.745s-.083 1.02.219 2.02c.318 1.052 1.02 2.104 1.02 2.767 0 .47-.185 1.016-.486 1.562 2.736-.656 4.312-3.493 4.312-6.243 0-3.132-2.823-5.675-6.304-5.675h-.004z" fill="#314572"/><path d="M148.727 38.286a2.584 2.584 0 002.583-2.586 2.584 2.584 0 10-5.166 0 2.584 2.584 0 002.583 2.586z" fill="#314572"/><path d="M156.507 74.038l-1.545-.973-.572.624c-.549.384-1.129 1.157-1.525 2.099-.612 1.452-.545 2.755.145 2.908.69.153 1.745-.899 2.356-2.35.267-.633.404-1.237.416-1.731l.721-.577h.004zm-17.674 3.197l-1.823.02-.145.832c-.255.62-.326 1.585-.153 2.59.27 1.554 1.031 2.613 1.693 2.366.667-.243.984-1.7.714-3.253-.118-.675-.329-1.26-.584-1.68l.298-.879v.004z" fill="#F3C6A0"/><path opacity=".7" d="M66.854 37.242h-9.49v12.035h9.49V37.242z" fill="#89BCC9"/><path d="M66.243 36.815h-9.451v11.812h9.451V36.815z" fill="#E2E2E1"/><path d="M65.714 37.349v10.744h-8.385V37.349h8.385zm.533-.534h-9.451v11.812h9.45V36.815z" fill="#2A2B47"/><path d="M64.466 38.518h-5.88v8.256h5.88v-8.256z" fill="#fff"/><path opacity=".7" d="M90.688 25.919H75.251v15.068h15.437V25.92z" fill="#89BCC9"/><path d="M89.93 25.38H74.54v14.79h15.39V25.38z" fill="#E2E2E1"/><path d="M89.263 26.048v13.451H75.209V26.048h14.054zm.666-.667H74.54v14.79h15.39V25.38z" fill="#2A2B47"/><path d="M87.703 27.51H76.785v10.333h10.918V27.51z" fill="#fff"/><path d="M127.954 33.26v-6.046c0-3.284-2.175-6.086-5.155-7.036l-.592-5.925h-5.245l-.595 5.972c-2.913.985-5.026 3.752-5.026 6.989v6.047h16.613z" fill="#262042"/><path d="M122.98 23.277c1.882 2.386.992 6.227-1.988 8.578-2.979 2.354-8.796-.059-8.796-.059s-.992-6.227 1.987-8.578c2.979-2.354 6.919-2.327 8.797.059zm-4.022-3.02h-2.748l.753-6h1.995v6z" fill="#3F3A55"/><path d="M127.954 33.259h-16.613v.749h16.613v-.749z" fill="#fff"/><path d="M119.577 0h-.364v14.256h.364V0z" fill="#262042"/><path d="M129.647 81h-3.744l-.988-5.254h5.719L129.647 81z" fill="#F7AB5E"/><path d="M125.144 76.947l.219 1.169h4.83l.219-1.17h-5.268z" fill="#F7AB5E"/><path d="M131.023 75.58h-6.492v1.746h6.492V75.58z" fill="#F7AB5E"/><path d="M127.698 74.058a4.632 4.632 0 004.63-4.635 4.632 4.632 0 00-4.63-4.634 4.632 4.632 0 00-4.63 4.634 4.632 4.632 0 004.63 4.635z" fill="#7BB842"/><path d="M130.292 69.369l-.07-.114-2.368 1.514v-3.641h-.184v1.083l-1.368-.734-.067.122 1.435.769v3.853l-2.38-1.279-.062.122 2.442 1.31v3.167h.184v-4.61l2.438-1.562z" fill="#716657"/><path d="M125.287 68.178a.34.34 0 100-.681.34.34 0 000 .681zm1.168 2.254a.34.34 0 100-.681.34.34 0 000 .681zm-1.786-.546a.34.34 0 100-.68.34.34 0 000 .68z" fill="#92C84E"/><path d="M176.202 77.543h-10.023v3.618h10.023v-3.618z" fill="#9DD1F1"/><path d="M183.097 77.543h-6.895v3.618h6.895v-3.618z" fill="#F6F8FA"/><path d="M177.56 80.858h-10.926a.45.45 0 01-.45-.45v-2.265a.45.45 0 01.45-.451h10.926v-.302h-10.926a.753.753 0 00-.752.753v2.264c0 .416.337.754.752.754h10.926v-.303z" fill="#124859"/><path d="M183.738 77.39h-6.177v.302h6.177v-.302zm0 3.469h-6.177v.302h6.177v-.302z" fill="#268EAE"/><path opacity=".3" d="M176.202 78.068h6.895m-6.895.605h6.895m-6.895.604h6.895m-6.895.585h6.895m-6.895.584h6.895" stroke="#93A3BA" stroke-width=".196" stroke-miterlimit="10"/><path d="M175.372 77.337h-8.138c-.082 0-.149-.075-.149-.169v-2.727c0-.094.067-.169.149-.169h8.138c.082 0 .059 0 .059.09l-.236.377.036 2.28.29.322c0 .094-.067 0-.149 0v-.004z" fill="#3ABDB2"/><path d="M181.675 74.29h-6.358a.098.098 0 00-.098.097v2.896c0 .054.044.098.098.098h6.358a.098.098 0 00.098-.098v-2.896a.098.098 0 00-.098-.098z" fill="#D9E8E6"/><path d="M182.757 77.133h-7.26c-.165 0-.302-.165-.302-.373v-1.856c0-.204.133-.373.302-.373h7.26v-.247h-7.26c-.274 0-.502.279-.502.62v1.856c0 .342.224.62.502.62h7.26v-.247z" fill="#2D9285"/><path d="M175.401 74.59l.141-.227c0-.094.023-.09-.059-.09h-8.138c-.082 0-.149.074-.149.168v.149h8.205z" fill="#289285" opacity=".4"/><path opacity=".3" d="M175.051 74.855h6.742m-6.742.605h6.742m-6.742.604h6.742m-6.742.584h6.742m-6.742.583h6.742" stroke="#93A3BA" stroke-width=".196" stroke-miterlimit="10"/><path d="M9.008 95.773h35.026L35.026 37.49H0l9.008 58.283z" fill="#314572"/><path d="M10.543 92.324H41.43L33.488 40.94H2.602l7.941 51.384z" fill="#fff"/><path d="M35.677 120.82V96.153h1.67v24.667h2.669v1.707H33.01v-1.707h2.666zm-22.769 0V96.153h1.67v24.667h2.67v1.707h-7.006v-1.707h2.666z" fill="#CDCEEC"/><path d="M21.392 46.938H8.06v.608h13.332v-.608zm9.678 1.853H8.34v.659h22.73v-.659zm.297 1.848H8.64v.658h22.728v-.658zm-8.503 5.311H9.532v.607h13.332v-.608zm9.676 1.855H9.81v.658h22.73v-.658zm.302 1.845H10.113v.658h22.729v-.659z" fill="#627089"/><path d="M19.728 53.41l3.258 8.488s9-7.283 11.917-6.44l-.098 4.242-10.02 6.318s-3.387 1.55-4.547-1.519l-3.83-10.124 3.32-.965z" fill="#528BBF"/><path d="M19.058 48.818l-.968-.258-.33 1.698-1.285-2.158-.067-1.024-1.172.899-.44 2.319.973 2.178 1.125 1.726 2.184-.172-.02-5.208z" fill="#E8BEA9"/><path opacity=".3" d="M41.297 127c8.638 0 15.64-1.205 15.64-2.692s-7.002-2.692-15.64-2.692c-8.639 0-15.642 1.205-15.642 2.692S32.658 127 41.297 127z" fill="#C7D0DD"/><path d="M36.259 124.956c1.247.376 2.285-.032 2.285-.032s.197.624 1.235-.255c1.04-.879-1.2-1.283-1.2-1.283l-3.32-.51-.983.129s-2.074 1.119-.651 1.346c1.423.228 1.666.318 2.63.609l.004-.004z" fill="#19132E"/><path d="M38.457 100.314h-5.115l3.488 22.268c-.11-.007-.191.02-.235.087-.098.161.063.498.38.832v.035l.044.008c.07.07.149.145.235.212.49.396.984.553 1.113.349.04-.063.04-.153 0-.259l.09.02V100.31v.004z" fill="#ECB5A1"/><path d="M43.436 125.185c1.054.255 1.834-.079 1.834-.079s.024.067.831-.538c.808-.608-.92-1.33-.92-1.33l-2.772-.188-.8.223s-1.619 1.315-.427 1.401c1.192.087 1.442.314 2.258.514l-.004-.003z" fill="#19132E"/><path d="M45.022 100.356h-5.116l3.489 22.268c-.11-.007-.192.02-.235.087-.098.161.062.498.38.832v.035l.043.008c.07.07.149.145.235.212.49.396.984.553 1.114.349.039-.063.039-.153 0-.259l.09.02v-23.556.004z" fill="#ECB5A1"/><path d="M46.405 101.71s-4.657-.227-8.91-.113c-4.253.113-7.425-1.005-7.425-1.005s1.047-2.7.867-6.447c-.18-3.748-.549-8.464-.04-11.992.51-3.524 3.07-8.142 3.07-8.142h9.992s2.525 3.21 3.03 11.466c.506 8.256-.591 16.233-.591 16.233h.007z" fill="#314572"/><path d="M45.06 73.508c1.23 1.852-12.32.628-12.32.628s-1.972-1.903-.267-9.233 1.046-9.56 1.046-9.56l10.412-.627S46 59.2 45.934 62.069c-.07 2.869-2.101 9.587-.87 11.435l-.004.004z" fill="#528BBF"/><path d="M49.502 69.294s-2.129-11.144-5.684-13.267c-3.555-2.123-.188 5.96-.188 5.96l2.348 7.154-1.666 4.226s.65 4.113 1.505 3.814c.855-.298 3.681-7.883 3.681-7.883l.004-.004z" fill="#528BBF"/><path d="M35.828 51.86c1.091-.066 1.89-1.55 1.783-3.315-.106-1.766-1.077-3.143-2.168-3.077-1.092.065-1.89 1.55-1.784 3.315.107 1.765 1.077 3.143 2.169 3.077z" fill="#ECB5A1"/><path d="M43.39 50.255c-.571-.93-.25-1.491.22-2.566.47-1.075.22-2.437.17-3.277-.146-2.429-2.526-4.261-5.317-4.093-2.79.17-4.931 2.272-4.786 4.705.102 1.664 1.423 2.308 2.05 3.25.628.941.243 1.573 0 2.585-.247 1.009-.615 2.131-.533 3.5.157 2.582 2.58 4.54 5.414 4.368 2.834-.173 5.005-2.406 4.849-4.988-.087-1.444-1.49-2.55-2.066-3.484z" fill="#314572"/><path d="M136.174 47.669H102.25l8.287-15.002h17.91l7.727 15.002z" fill="url(#paint2_linear_248_56101)"/><defs><linearGradient id="paint0_linear_248_56101" x1="135.955" y1="123.782" x2="135.955" y2="121.342" gradientUnits="userSpaceOnUse"><stop stop-color="#002D49"/><stop offset="1" stop-color="#002737"/></linearGradient><linearGradient id="paint1_linear_248_56101" x1="146.862" y1="124.787" x2="146.614" y2="122.359" gradientUnits="userSpaceOnUse"><stop stop-color="#002D49"/><stop offset="1" stop-color="#002737"/></linearGradient><linearGradient id="paint2_linear_248_56101" x1="119.212" y1="47.669" x2="119.212" y2="32.667" gradientUnits="userSpaceOnUse"><stop stop-color="#9ACBDD" stop-opacity="0"/><stop offset=".77" stop-color="#fff" stop-opacity=".8"/></linearGradient></defs></svg>