<svg width="195" height="146" viewBox="0 0 195 146" fill="none" xmlns="http://www.w3.org/2000/svg">
<path d="M95.4679 80.1259L178.559 80.4215L178.308 130.677L95.2168 130.378L95.4679 80.1259Z" fill="#EB9950"/>
<path d="M94.8584 130.117L136.618 96.5665L178.012 130.45L94.8584 130.117Z" fill="#C97D3B"/>
<path d="M95.0693 130.12L136.611 98.0254L177.799 130.449L95.0693 130.12Z" fill="#F1B146"/>
<path d="M95.1318 80.3373L136.522 114.22L178.282 80.6662L95.1318 80.3373Z" fill="#C97D3B"/>
<path d="M95.3438 80.3369L136.435 47.0784L178.069 80.6658L95.3438 80.3369Z" fill="#C97D3B"/>
<path d="M168.28 54.5769H105.426V88.7631L136.522 114.22L168.28 88.7631V54.5769Z" fill="white"/>
<path d="M136.888 110.568L105.426 88.7623L136.522 114.219L168.28 88.7623L136.888 110.568Z" fill="#AD6035"/>
<path d="M131.722 77.2951L115.357 77.406L115.339 75.3733L131.703 75.2661L131.722 77.2951Z" fill="#729EDB"/>
<path d="M160.247 81.1374L115.397 81.4331L115.382 79.8809L160.232 79.5852L160.247 81.1374Z" fill="#729EDB"/>
<path d="M147.364 81.2223L138.743 81.2777L138.731 79.7255L147.349 79.67L147.364 81.2223Z" fill="#729EDB"/>
<path d="M160.247 81.1374L148.927 81.2113L148.912 79.6591L160.233 79.5852L160.247 81.1374Z" fill="#729EDB"/>
<path d="M150.974 84.8246L115.428 85.0575L115.413 83.5052L150.959 83.2687L150.974 84.8246Z" fill="#729EDB"/>
<path d="M154.32 84.8001L137.564 84.911L137.55 83.355L154.305 83.2441L154.32 84.8001Z" fill="#729EDB"/>
<path d="M68.79 82.6285C68.9673 85.6923 68.8269 86.5645 69.6614 90.4525C70.9574 96.4767 70.8096 95.0575 70.9351 95.9001C71.5111 97.3858 73.206 103.92 73.83 105.173C73.8669 107.719 74.2471 109.722 74.9892 112.823C75.8754 116.53 78.4453 122.809 79.745 126.25L82.3148 125.637C81.9419 118.777 80.9781 109.364 79.5197 99.0046C78.5855 92.3669 79.4865 86.2097 78.4637 80.825L68.79 82.6248V82.6285Z" fill="#1E2D54"/>
<path d="M63.216 81.9905C62.5772 85.0136 62.4702 88.3325 62.3668 92.3092C62.2043 98.4701 63.2492 101.283 63.1606 102.133C63.4154 103.711 63.7329 105.2 64.1059 106.564C63.4449 109.047 63.0609 112.015 63.0609 115.205C63.0609 119.015 63.2898 123.324 63.8399 126.972H66.971C68.4294 120.216 69.9139 110.836 71.0806 100.418C71.8302 93.7468 72.3544 87.464 72.6609 81.9905H63.216Z" fill="#153F5E"/>
<path d="M72.4405 88.2506C75.9581 88.2506 78.8097 86.0714 78.8097 83.3832C78.8097 80.6951 75.9581 78.5159 72.4405 78.5159C68.9229 78.5159 66.0713 80.6951 66.0713 83.3832C66.0713 86.0714 68.9229 88.2506 72.4405 88.2506Z" fill="#153F5E"/>
<path d="M66.2846 129.174H64.084V125.929H66.6758L66.2846 129.174Z" fill="#EA9F88"/>
<path d="M67.2283 132V131.778C67.2283 131.545 67.1951 131.331 67.136 131.15L66.5934 128.977C66.5934 128.977 66.0949 129.232 65.6076 129.125C65.1202 129.017 65.146 128.312 64.6254 127.964H64.389C64.389 127.964 63.9091 128.127 63.5768 128.833C63.3368 129.346 63.2518 130.381 63.0967 130.717C62.9195 131.106 62.7386 131.471 62.5946 131.752C62.4358 131.863 62.3139 132.029 62.2438 132.233C62.0555 132.233 62.0186 132.236 62.2402 132.248C62.2069 132.355 62.1848 132.469 62.1848 132.591V133.061H67.3984V132.591C67.3984 132.366 67.3318 132.163 67.2247 131.996L67.2283 132ZM65.3528 131.612L65.2014 131.616L65.349 131.612H65.3528Z" fill="#16415D"/>
<path d="M82.7798 128.602L80.9448 129.168L79.9922 126.063L82.1558 125.402L82.7798 128.602Z" fill="#EA9F88"/>
<path d="M79.0641 130.879L79.8581 128.639C79.8581 128.639 81.0321 128.901 81.7484 128.791C82.4647 128.683 82.461 128.029 82.749 127.597H83.7054C83.7054 127.597 84.9608 129.825 87.4199 130.38H89.2622C89.6905 130.38 90.045 130.897 90.045 131.529V132.039H82.2912L81.8998 131.355H81.682V132.039H78.9238V131.529C78.9238 131.289 78.9756 131.067 79.0605 130.882L79.0641 130.879Z" fill="#16415D"/>
<path d="M67.4385 53.2666C68.2286 53.6436 69.1259 53.8616 70.0748 53.8616C71.164 53.8616 72.183 53.5771 73.0506 53.0892C72.711 52.5201 72.5042 51.7772 72.5042 50.9641C72.5042 49.8554 72.8883 48.8797 73.468 48.2921V46.9061H69.9456C69.7905 49.4895 68.8415 51.755 67.4385 53.2666Z" fill="#EA9F86"/>
<path d="M75.2527 44.795C75.4004 42.7771 73.2034 42.5443 71.5862 42.426C70.5487 42.3484 69.6071 42.426 68.9277 43.4572C68.7579 43.2095 68.3813 43.6456 68.1155 43.6383C67.5653 43.6161 67.222 43.7898 67.1924 44.5659C67.1629 45.342 67.4619 46.4286 68.012 46.4508C68.0379 46.4508 68.0637 46.4434 68.0895 46.4434C68.108 47.0753 67.8754 47.5595 68.1487 48.0769C68.6804 49.0896 70.0132 49.9359 70.9732 50.2131C74.1117 51.1222 75.105 46.8166 75.2527 44.7987V44.795Z" fill="#EBB190"/>
<path d="M77.451 42.7525C77.6208 41.1264 77.1187 40.0842 74.5193 39.7774C72.7913 39.5742 69.8596 39.5557 68.0061 39.9216C66.1156 40.2985 66.3853 41.7695 66.4554 42.4088C66.6364 43.9832 67.1053 46.3005 67.8696 46.5518C68.0468 46.611 68.1982 46.574 68.3311 46.4742C68.0764 46.319 67.8585 46.0233 67.7551 45.6574C67.5816 45.0365 67.803 44.4489 68.2461 44.3417C68.6116 44.253 69.0067 44.5191 69.2356 44.9552C69.8227 43.8502 70.7014 42.7525 72.8762 43.7578C75.254 44.8555 77.2701 44.3787 77.4436 42.7562L77.451 42.7525Z" fill="#1C3054"/>
<path d="M68.8448 66.3081C73.7814 66.3081 78.4815 66.0494 82.7498 65.58C82.5135 59.4856 78.8213 54.3854 73.785 52.6706C72.9986 53.3543 71.8355 53.7904 70.5321 53.7904C69.0958 53.7904 67.8256 53.2619 67.0502 52.4525C61.5782 53.9234 57.4873 59.3267 57.3359 65.8202C60.947 66.1381 64.8165 66.3118 68.8448 66.3118V66.3081Z" fill="#729EDB"/>
<path d="M82.4759 65.3077L82.7493 70.0753C80.1757 70.6851 78.5252 71.768 77.9751 73.4496C77.0003 72.3815 76.4428 70.5927 76.2988 68.0796C76.2655 67.4993 76.2544 66.605 76.2988 66.0543L82.4723 65.3077H82.4759Z" fill="#EA9F87"/>
<path d="M77.9619 73.5432C78.4087 70.7528 80.1921 70.2243 82.4518 69.9582L92.3802 69.3854C92.6498 68.8975 93.3107 68.491 94.171 68.2803C94.3298 68.2434 94.5293 68.4725 94.5366 68.6277C94.5773 69.3299 94.1268 69.9841 95.5003 69.9434C96.1354 69.925 97.3981 69.851 98.0701 69.7254C98.2399 69.6921 98.8196 69.7032 98.4651 70.2169C97.9039 71.0263 96.5489 72.0944 95.0757 72.1351C94.1453 72.1609 93.4178 71.7987 92.9341 71.3109C89.7587 72.7301 83.9693 74.3451 80.6832 74.4412C79.5792 74.4745 78.6745 74.1714 77.9619 73.5432Z" fill="#EFB290"/>
<path d="M63.4772 82.9176C63.6581 82.9176 78.2058 82.9176 78.5529 82.9176C78.8999 82.9176 78.8297 81.953 78.7854 81.8162C78.4974 80.9477 78.1984 80.7186 78.0064 79.7355C77.6999 78.1796 77.5301 76.4869 77.5301 74.687C77.5301 68.9992 79.2396 63.6255 81.4845 60.4508C79.9965 56.7587 77.1275 53.9018 73.605 52.7007C72.8186 53.3844 71.6557 53.8205 70.3523 53.8205C68.916 53.8205 67.6458 53.292 66.8704 52.4827C62.7424 53.5914 59.4008 56.9398 57.9424 61.3045C61.199 62.7422 63.6618 69.3281 63.6618 77.2408C63.6618 78.4789 63.5991 79.6801 63.4846 80.8368C63.4218 81.4688 63.156 81.7423 63.1228 81.9641C63.0305 82.5924 63.2999 82.9213 63.4808 82.9213L63.4772 82.9176Z" fill="#729EDB"/>
<path d="M63.8885 65.3569L63.7113 71.0669C60.8978 71.6213 59.0256 72.8003 58.2724 74.7701C57.3346 73.4286 56.9175 71.2554 57.0135 68.2471C57.0356 67.5522 57.1132 66.4841 57.2129 65.83L63.8885 65.3569Z" fill="#EA9F87"/>
<path d="M58.2441 74.8803C59.0011 71.5799 60.958 71.0736 63.3986 70.9073L74.0728 70.8999C74.4088 70.3344 75.1547 69.8946 76.0962 69.7061C76.2697 69.6729 76.4581 69.9611 76.4544 70.1422C76.4286 70.9812 75.8822 71.7351 77.3517 71.7795C78.0311 71.8017 79.3898 71.798 80.1246 71.6945C80.3092 71.6686 80.9296 71.7204 80.4976 72.308C79.8182 73.2356 78.26 74.4183 76.6834 74.3702C75.6828 74.3407 74.9443 73.8565 74.4754 73.243C70.9382 74.7213 64.5874 76.2551 61.0649 76.1442C59.8834 76.1073 58.9457 75.6859 58.2441 74.884V74.8803Z" fill="#EFB290"/>
<path d="M138.007 25.9579C141.633 25.9579 144.572 23.016 144.572 19.3868C144.572 15.7577 141.633 12.8157 138.007 12.8157C134.382 12.8157 131.442 15.7577 131.442 19.3868C131.442 23.016 134.382 25.9579 138.007 25.9579Z" fill="#EAF0F9"/>
<path d="M190.531 65.5914L161.271 71.0461L165.16 91.9523L194.421 86.4976L190.531 65.5914Z" fill="#DEF0FB"/>
<path d="M165.021 91.9685L177.061 75.2191L194.304 86.5246L165.021 91.9685Z" fill="#B2C4C7"/>
<path d="M165.098 91.9534L177.171 75.825L194.23 86.5354L165.098 91.9534Z" fill="white"/>
<path d="M161.178 71.2564L178.424 82.5619L190.461 65.8125L161.178 71.2564Z" fill="#95B6B2"/>
<path d="M161.25 71.242L178.068 80.6626L190.386 65.8276L161.25 71.242Z" fill="white"/>
<path d="M99.6279 34.1753V37.8489H100.422V34.1753C100.422 33.9092 100.245 33.6948 100.027 33.6948C99.8089 33.6948 99.6317 33.9092 99.6317 34.1753H99.6279Z" fill="#E5803C"/>
<path d="M99.6276 50.2297C99.6276 50.4958 99.805 50.7102 100.023 50.7102C100.241 50.7102 100.418 50.4958 100.418 50.2297V46.7778H99.624V50.2297H99.6276Z" fill="#E5803C"/>
<path d="M91.5215 42.2022C91.5215 42.4204 91.7356 42.5979 92.0014 42.5979H95.6715V41.8029H92.0014C91.7356 41.8029 91.5215 41.9804 91.5215 42.1985V42.2022Z" fill="#E5803C"/>
<path d="M108.042 41.8066H104.594V42.6017H108.042C108.308 42.6017 108.522 42.4242 108.522 42.206C108.522 41.9878 108.308 41.8103 108.042 41.8103V41.8066Z" fill="#E5803C"/>
<path d="M94.0705 36.805L96.6662 39.4031L97.2273 38.8413L94.6317 36.2432C94.4434 36.0547 94.1664 36.0288 94.0113 36.1841C93.8563 36.3393 93.8822 36.6165 94.0705 36.805Z" fill="#E5803C"/>
<path d="M105.414 48.16C105.603 48.3484 105.879 48.3743 106.035 48.2191C106.19 48.0639 106.164 47.7867 105.976 47.5982L103.535 45.1553L102.974 45.717L105.414 48.16Z" fill="#E5803C"/>
<path d="M94.0152 48.2195C94.1703 48.3748 94.4473 48.3489 94.6356 48.1604L97.2312 45.5623L96.67 45.0005L94.0744 47.5986C93.8861 47.7871 93.8602 48.0643 94.0152 48.2195Z" fill="#E5803C"/>
<path d="M105.414 36.2489L102.974 38.6919L103.535 39.2536L105.976 36.8107C106.164 36.6222 106.19 36.345 106.035 36.1898C105.879 36.0346 105.603 36.0604 105.414 36.2489Z" fill="#E5803C"/>
</svg>
