<svg width="380" height="285" viewBox="0 0 380 285" fill="none" xmlns="http://www.w3.org/2000/svg">
<path d="M280.759 94.4558C213.718 57.992 217.271 -14.3455 129.414 19.4761C68.5488 42.9089 28.1604 120.274 37.4207 186.487C44.4043 236.437 67.5358 273.459 110.778 261.428C154.02 249.398 190.76 263.936 223.979 273.299C265.784 285.086 330.619 248.096 341.194 197.383C351.769 146.676 326.579 119.37 280.759 94.4494V94.4558Z" fill="url(#paint0_linear_248_63919)"/>
<path d="M271.506 62.3772H56C50.4572 62.3772 45.9639 66.8706 45.9639 72.4134V213.523C45.9639 219.066 50.4572 223.559 56 223.559H271.506C277.049 223.559 281.542 219.066 281.542 213.523V72.4134C281.542 66.8706 277.049 62.3772 271.506 62.3772Z" fill="#C5DAEF"/>
<path d="M271.506 63.5312H56C50.4785 63.5312 45.9639 68.0459 45.9639 73.5674V201.691H281.542V73.5674C281.542 68.0459 277.027 63.5312 271.506 63.5312Z" fill="#284C7D"/>
<path d="M187.96 223.562H139.543V244.814H187.96V223.562Z" fill="#7AA9D7"/>
<path d="M273.274 72.4153H54.2285V191.682H273.274V72.4153Z" fill="#D7E7F5"/>
<path d="M168.181 207.616H159.319C157.364 207.616 155.778 209.201 155.778 211.156V211.162C155.778 213.117 157.364 214.702 159.319 214.702H168.181C170.136 214.702 171.721 213.117 171.721 211.162V211.156C171.721 209.201 170.136 207.616 168.181 207.616Z" fill="#7AA9D7"/>
<path d="M208.032 252.49V251.31C208.032 247.738 205.107 244.814 201.535 244.814H125.959C122.387 244.814 119.463 247.738 119.463 251.31V252.49H208.025H208.032Z" fill="#C5DAEF"/>
<path d="M257.924 106.482H122.721V157.349H257.924V106.482Z" fill="white"/>
<path d="M112.774 106.574H69.5762V154.094H112.774V106.574Z" fill="white"/>
<path d="M257.924 162.561H122.721V171.026H257.924V162.561Z" fill="white"/>
<path d="M231.35 84.0231H96.1465V92.4881H231.35V84.0231Z" fill="white"/>
<path fill-rule="evenodd" clip-rule="evenodd" d="M77.9521 140.871C79.4335 139.467 82.5052 138.948 85.25 137.979C88.0268 136.998 88.4243 132.733 88.2062 130.181L94.4075 129.745C94.183 132.297 94.3499 136.844 97.1267 137.979C99.9035 139.114 103.007 139.467 104.694 140.82C101.802 143.853 97.8707 145.925 93.3817 146.431H93.3303H89.2133C84.8653 145.938 80.9021 143.918 77.965 140.871H77.9521Z" fill="#2E6A3F"/>
<path fill-rule="evenodd" clip-rule="evenodd" d="M91.092 144.396C88.4691 143.319 85.2306 141.459 84.7881 137.489C86.2823 136.944 87.116 135.463 87.5393 133.776C88.6487 133.642 89.8481 133.571 91.0858 133.571C92.3235 133.571 93.5227 133.642 94.6386 133.776C95.0618 135.463 95.8955 136.951 97.3897 137.489C96.9536 141.459 93.7087 143.319 91.0858 144.396H91.092Z" fill="#E8B88E"/>
<path fill-rule="evenodd" clip-rule="evenodd" d="M94.3222 141.895C94.3864 142.37 89.1087 135.803 89.3845 134.026C90.4939 133.892 89.846 133.571 91.0901 133.571C92.3342 133.571 93.527 133.642 94.6429 133.776C95.0661 135.463 95.8998 136.951 97.394 137.489C96.958 141.459 96.9517 140.818 94.3288 141.895H94.3222Z" fill="#CBA07E"/>
<path fill-rule="evenodd" clip-rule="evenodd" d="M98.4036 124.339C100.052 125.769 97.4542 131.214 97.4542 131.214C97.4542 131.214 94.1838 136.042 91.2852 136.042C88.3865 136.042 85.1159 131.214 85.1159 131.214C85.1159 131.214 82.5187 126.436 84.1668 125.012C84.5003 120.972 86.7383 117.362 91.2914 117.362C95.8446 117.362 98.07 120.292 98.4098 124.339H98.4036Z" fill="#F5D3AE"/>
<path fill-rule="evenodd" clip-rule="evenodd" d="M83.8348 127.137C83.8092 125.29 84.0466 123.687 84.7391 122.52C85.4125 121.391 85.6562 118.941 87.6121 119.506C88.5612 119.781 90.4979 120.32 91.7292 120.32C92.9604 120.32 94.5251 119.781 95.4742 119.506C97.18 119.012 96.8722 121.372 97.5584 122.385C98.3793 123.591 98.7063 125.245 98.6422 127.118C99.4887 124.238 98.3024 116.556 98.3024 116.556C98.3024 116.556 94.121 115.016 91.2031 115.016C87.8363 115.016 84.2068 117.46 84.2068 117.46C84.2068 117.46 83.0074 124.245 83.8282 127.143L83.8348 127.137Z" fill="#83422A"/>
<path d="M103.495 136.587L95.8889 136.132L91.0344 138.8L86.2889 136.164L79.1386 136.593C78.4845 136.593 77.9521 137.126 77.9521 137.78V144.456C81.3959 147.669 86.013 146.726 91.0921 146.726C96.1711 146.726 101.205 148.278 104.688 144.808V137.773C104.688 137.119 104.155 136.587 103.501 136.587H103.495Z" fill="#ED971B"/>
<path d="M91.0332 138.429L86.4865 136.153L86.2939 136.166L87.4547 146.651C88.6347 146.875 93.4571 146.888 94.5922 146.676L95.8876 136.159L95.6888 136.146L91.0332 138.429Z" fill="#C9E3F1"/>
<path d="M92.3089 114.278L86.2871 116.298L87.3965 118.511L92.3089 119.498V114.278Z" fill="#83422A"/>
<path d="M92.4314 121.043C94.2142 120.6 94.5028 119.645 94.8619 118.606C95.0543 118.055 96.3368 118.734 96.9652 119.805C97.6386 120.953 97.6706 122.524 98.0233 122.685C98.6004 121.941 98.7288 120.568 98.7288 119.671C98.7288 118.176 98.466 116.753 97.1193 115.521C95.7726 114.297 93.3418 115.111 91.1037 115.111C89.1927 115.111 86.6598 114.483 85.2169 116.111C84.2485 117.202 83.96 118.465 83.96 119.671C83.96 120.562 84.0304 122.422 84.6075 123.159C85.2873 122.845 84.8447 121.088 87.2303 120.081C89.4876 119.132 90.7895 121.447 92.4377 121.03L92.4314 121.043Z" fill="#83422A"/>
<path d="M179.876 47.9814C179.876 47.9814 193.01 49.7064 198.499 49.514C203.989 49.3216 213.762 49.2255 213.762 49.2255C213.762 49.2255 215.321 54.407 213.115 56.3245C210.908 58.242 197.71 63.802 188.54 59.8709C179.37 55.9398 179.036 48.6419 179.876 47.975V47.9814Z" fill="#1F3E68"/>
<path d="M191.83 63.1381C191.83 63.1381 202.963 55.4684 206.997 52.8583C210.505 50.5882 217.239 45.1179 220.4 49.716C223.562 54.3205 219.252 58.4375 215.699 60.8359C212.608 62.9265 199.263 68.6661 196.717 70.9042C195.088 71.0004 191.561 65.9213 191.83 63.1381Z" fill="#1E598D"/>
<path d="M198.961 64.0724C197.922 62.8219 197.314 61.3085 196.621 59.8463C193.921 61.6932 191.83 63.1361 191.83 63.1361C191.561 65.9193 195.088 70.9983 196.717 70.9021C197.704 70.03 200.327 68.632 203.341 67.1249C201.68 66.4195 200.141 65.4832 198.961 64.0724Z" fill="#1E598D"/>
<path d="M185.217 66.4789C185.217 66.4789 182.582 68.422 182.004 69.4673C181.427 70.5126 183.608 71.0384 183.608 71.0384C183.608 71.0384 191.874 70.1342 194.272 68.5951C196.671 67.0624 193.714 64.8115 191.816 64.8115C189.918 64.8115 186.654 65.331 185.217 66.4789Z" fill="#EBCEAD"/>
<path d="M198.537 66.5853C198.537 66.5853 202.18 69.3685 206.015 69.6506C209.85 69.9392 211.286 70.5164 211.286 70.5164C211.286 70.5164 209.081 66.3801 206.586 64.9436C204.091 63.5071 199.301 61.9809 198.531 62.558C197.761 63.1352 197.954 64.764 198.531 66.5853H198.537Z" fill="#EBCEAD"/>
<path d="M188.906 65.1381L180.139 66.8503C179.043 67.1196 178.305 68.5754 178.497 70.0824C178.69 71.5894 179.748 72.6027 180.845 72.3397L190.515 69.9605C189.733 68.8254 189.156 67.1324 188.9 65.1444L188.906 65.1381Z" fill="#24447E"/>
<path d="M181.603 66.5593L180.147 66.8415C179.05 67.1108 178.313 68.5666 178.505 70.0736C178.698 71.5806 179.755 72.5939 180.852 72.3309L182.193 71.9974C182.193 70.003 181.974 68.1433 181.596 66.5657L181.603 66.5593Z" fill="white"/>
<path d="M184.864 66.2786L184.278 66.3479L184.636 69.3729L185.222 69.3036L184.864 66.2786Z" fill="white"/>
<path d="M185.936 65.9779L185.351 66.0472L185.709 69.0723L186.294 69.0029L185.936 65.9779Z" fill="white"/>
<path d="M186.938 65.8147L186.353 65.884L186.711 68.909L187.296 68.8397L186.938 65.8147Z" fill="white"/>
<path d="M190.509 70.2163L180.941 72.416L180.864 71.8067L190.439 69.6135L190.509 70.2163Z" fill="white"/>
<path d="M200.649 61.9819C200.649 61.9819 194.897 57.993 189.01 54.4146C185.188 52.0868 178.691 45.4943 175.722 46.6422C172.752 47.7901 171.022 51.298 171.983 54.2415C172.939 57.185 181.532 62.527 185.816 64.5085C191.061 66.939 197.494 68.0805 199.122 69.3246C200.751 70.5687 202.457 62.7386 200.649 61.9755V61.9819Z" fill="#284C7D"/>
<path d="M204.789 63.8912L213.954 65.6805C215.101 65.9626 215.871 67.4825 215.666 69.0601C215.461 70.6376 214.357 71.6957 213.21 71.42L203.097 68.9318C203.911 67.7454 204.52 65.969 204.789 63.8977V63.8912Z" fill="#24447E"/>
<path d="M212.428 65.3793L213.954 65.6743C215.102 65.9565 215.871 67.4764 215.666 69.0539C215.461 70.6315 214.358 71.6896 213.21 71.4138L211.806 71.0676C211.806 68.977 212.036 67.0338 212.428 65.3857V65.3793Z" fill="white"/>
<path d="M209.363 64.8447L208.989 68.0104L209.575 68.0796L209.949 64.914L209.363 64.8447Z" fill="white"/>
<path d="M208.254 64.593L207.88 67.7581L208.466 67.8273L208.84 64.6623L208.254 64.593Z" fill="white"/>
<path d="M207.204 64.3585L206.83 67.5242L207.416 67.5934L207.79 64.4278L207.204 64.3585Z" fill="white"/>
<path d="M203.111 69.2029L213.122 71.5051L213.199 70.8702L203.188 68.5745L203.111 69.2029Z" fill="white"/>
<path d="M209.768 26.6459C209.768 26.6459 204.067 22.4326 197.154 22.4326C190.241 22.4326 183.077 26.6459 183.077 26.6459C183.077 26.6459 179.704 32.828 178.581 43.2233C177.459 53.6186 213.288 51.5151 215.392 43.2233C217.502 34.9314 209.774 26.6459 209.774 26.6459H209.768ZM185.463 43.0886V37.1887L187.99 43.0886H185.463ZM208.081 43.0886H205.555L208.081 37.1887V43.0886Z" fill="#EA9646"/>
<path d="M206.529 54.3292H187.701L184.334 40.1375H210.325L206.529 54.3292Z" fill="#C2C6C6"/>
<path d="M183.347 48.6356L187.701 53.208V54.3303L183.347 49.7643V48.6356Z" fill="#D3D3D5"/>
<path d="M187.284 52.7848L183.347 48.6356H186.367L187.284 52.7848Z" fill="#AEA9A9"/>
<path d="M206.599 53.2408H187.7V54.331H206.599V53.2408Z" fill="#D3D3D5"/>
<path d="M210.96 48.6764L206.6 53.2424V54.3646L210.96 49.7986V48.6764Z" fill="#D3D3D5"/>
<path d="M206.907 52.9217L210.96 48.6764H208.042L206.907 52.9217Z" fill="#AEA9A9"/>
<path d="M202.615 18.7825C202.615 18.7825 202.994 18.1475 203.654 18.1026C204.315 18.0578 203.885 20.1291 203.692 20.9179C203.5 21.7067 202.75 22.0081 202.48 21.5528L202.615 18.7825Z" fill="#EED3C0"/>
<path d="M202.695 13.7705C202.599 11.5837 199.495 12.0327 197.328 11.8082C195.16 12.0327 192.056 11.5837 191.96 13.7705C191.864 15.9766 192.165 22.3189 192.351 23.9414C192.531 25.5446 195.628 28.4369 197.328 28.6228C199.033 28.4433 202.124 25.5446 202.304 23.9414C202.49 22.3189 202.791 15.9766 202.695 13.7705Z" fill="#EBCEAD"/>
<path d="M202.264 10.6272C200.841 9.54342 198.596 9.45998 197.326 9.51128C196.057 9.45998 193.818 9.54342 192.388 10.6272C190.304 12.2112 190.978 13 190.881 13.6733C190.785 14.3467 191.099 17.9379 191.292 18.56C191.484 19.182 192.042 18.7844 192.042 18.7844C192.042 18.7844 192.01 15.5394 193.306 15.2059C194.601 14.8725 195.467 14.9238 196.756 15.2766C196.955 15.3343 200.058 14.8661 201.354 15.2059C202.649 15.5394 202.617 18.7844 202.617 18.7844C202.617 18.7844 203.175 19.182 203.367 18.56C203.56 17.9379 203.867 14.3403 203.777 13.6733C203.681 13 204.348 12.2112 202.271 10.6272H202.264Z" fill="#6A2119"/>
<path d="M192.044 18.7825C192.044 18.7825 191.665 18.1475 191.005 18.1026C190.344 18.0578 190.774 20.1291 190.966 20.9179C191.159 21.7067 191.909 22.0081 192.178 21.5528L192.044 18.7825Z" fill="#EED3C0"/>
<path d="M185.466 119.615C185.466 119.512 185.421 119.41 185.344 119.339L184.594 118.615C184.433 118.461 184.183 118.467 184.03 118.615L180.079 122.565L177.315 119.884C177.238 119.807 177.136 119.769 177.033 119.769C176.93 119.769 176.828 119.807 176.751 119.884L175.969 120.667C175.815 120.821 175.815 121.071 175.969 121.225L179.765 124.899C179.919 125.047 180.182 125.04 180.33 124.899L185.351 119.891C185.428 119.814 185.466 119.718 185.466 119.615Z" fill="#729EDB"/>
<path d="M172.281 117.336H134.284V119.17H172.281V117.336Z" fill="#729EDB"/>
<path d="M172.273 121.596H134.276V123.43H172.273V121.596Z" fill="#729EDB"/>
<path d="M172.254 125.738H134.258V127.572H172.254V125.738Z" fill="#729EDB"/>
<path d="M172.281 132.354H134.284V134.188H172.281V132.354Z" fill="#729EDB"/>
<path d="M172.273 136.622H134.276V138.456H172.273V136.622Z" fill="#729EDB"/>
<path d="M172.262 140.763H134.266V142.597H172.262V140.763Z" fill="#729EDB"/>
<path d="M185.466 134.473C185.466 134.371 185.421 134.268 185.344 134.198L184.594 133.473C184.433 133.319 184.183 133.326 184.03 133.473L180.079 137.423L177.315 134.743C177.238 134.666 177.136 134.627 177.033 134.627C176.93 134.627 176.828 134.666 176.751 134.743L175.969 135.525C175.815 135.679 175.815 135.929 175.969 136.083L179.765 139.758C179.919 139.905 180.182 139.899 180.33 139.758L185.351 134.749C185.428 134.672 185.466 134.576 185.466 134.473Z" fill="#729EDB"/>
<path d="M172.262 145.027H134.266V146.861H172.262V145.027Z" fill="#729EDB"/>
<path d="M247.102 120.227C247.102 120.124 247.056 120.022 246.979 119.951L246.229 119.227C246.069 119.073 245.819 119.079 245.665 119.227L241.714 123.177L238.951 120.496C238.874 120.419 238.771 120.381 238.668 120.381C238.566 120.381 238.463 120.419 238.387 120.496L237.604 121.279C237.45 121.433 237.45 121.683 237.604 121.837L241.401 125.511C241.555 125.659 241.818 125.652 241.965 125.511L246.986 120.503C247.063 120.426 247.102 120.33 247.102 120.227Z" fill="#729EDB"/>
<path d="M233.919 117.956H195.923V119.79H233.919V117.956Z" fill="#729EDB"/>
<path d="M233.904 122.216H195.907V124.05H233.904V122.216Z" fill="#729EDB"/>
<path d="M233.893 126.357H195.896V128.191H233.893V126.357Z" fill="#729EDB"/>
<path d="M233.919 132.978H195.923V134.812H233.919V132.978Z" fill="#729EDB"/>
<path d="M233.912 137.242H195.915V139.076H233.912V137.242Z" fill="#729EDB"/>
<path d="M233.901 141.383H195.904V143.217H233.901V141.383Z" fill="#729EDB"/>
<path d="M247.102 135.086C247.102 134.983 247.056 134.88 246.979 134.81L246.229 134.085C246.069 133.931 245.819 133.938 245.665 134.085L241.714 138.036L238.951 135.355C238.874 135.278 238.771 135.24 238.668 135.24C238.566 135.24 238.463 135.278 238.387 135.355L237.604 136.137C237.45 136.291 237.45 136.541 237.604 136.695L241.401 140.37C241.555 140.517 241.818 140.511 241.965 140.37L246.986 135.361C247.063 135.284 247.102 135.188 247.102 135.086Z" fill="#729EDB"/>
<path d="M233.901 145.643H195.904V147.477H233.901V145.643Z" fill="#729EDB"/>
<path d="M139.161 179.483H106.732C104.013 179.483 101.787 181.708 101.787 184.427V247.421C101.787 250.141 104.013 252.366 106.732 252.366H139.161C141.881 252.366 144.106 250.141 144.106 247.421V184.427C144.106 181.708 141.881 179.483 139.161 179.483ZM140.547 241.483L140.476 243.426H105.506L105.436 241.483V188.153H104.211H140.476L140.547 190.424V241.483Z" fill="#284C7D"/>
<path d="M140.464 188.152H105.424V243.425H140.464V188.152Z" fill="white"/>
<path d="M126.696 246.068H119.199V248.185H126.696V246.068Z" fill="white"/>
<path d="M138.098 192.026H107.791V238.943H138.098V192.026Z" fill="#D7E7F5"/>
<path d="M134.462 197.715H112.107V232.319H134.462V197.715Z" fill="#F2F2F2"/>
<path d="M117.116 213.824L115.288 213.818V208.117L117.116 208.123V213.824Z" fill="#729EDB"/>
<path d="M119.493 213.833L117.659 213.827L117.666 206.413L119.493 206.42V213.833Z" fill="#729EDB"/>
<path d="M121.906 213.839L120.078 213.833L120.084 204.194L121.912 204.201L121.906 213.839Z" fill="#729EDB"/>
<path d="M124.284 213.85L122.45 213.844L122.456 208.143L124.284 208.149V213.85Z" fill="#729EDB"/>
<path d="M126.63 213.856L124.803 213.849L124.809 205.449L126.636 205.455L126.63 213.856Z" fill="#729EDB"/>
<path d="M129.011 213.863L127.178 213.856L127.184 202.55L129.018 202.557L129.011 213.863Z" fill="#729EDB"/>
<path d="M131.422 213.871L129.594 213.864L129.6 200.769L131.434 200.775L131.422 213.871Z" fill="#ED971B"/>
<path d="M132.903 216.511H113.818V229.574H132.903V216.511Z" fill="white"/>
<path d="M131.117 219.135H115.354V219.859H131.117V219.135Z" fill="#729EDB"/>
<path d="M131.117 220.816H115.354V221.54H131.117V220.816Z" fill="#729EDB"/>
<path d="M131.114 222.452H115.351V223.177H131.114V222.452Z" fill="#729EDB"/>
<path d="M131.212 225.015L126.922 225.05L126.933 226.396L131.223 226.362L131.212 225.015Z" fill="#729EDB"/>
<path d="M284.475 232.077C285.283 234.379 285.841 237.156 286.02 240.17C286.476 247.911 285.206 250.7 282.968 263.109L280.198 263.302C279.031 257.363 277.947 246.801 277.453 238.458C277.338 236.451 277.254 234.488 277.196 232.577L284.475 232.071V232.077Z" fill="#EFB495"/>
<path d="M270.086 231.853C271.151 234.007 272.049 236.675 272.626 239.632C274.107 247.218 273.305 250.155 272.927 262.75L270.381 263.34C268.49 257.633 265.046 247.956 263.853 241.132C262.66 234.309 262.846 232.808 262.423 230.301L270.086 231.859V231.853Z" fill="#EFB495"/>
<path d="M273.478 270.858C274.62 269.44 276.268 270.101 277.749 267.504C279.231 264.906 279.59 263.534 279.59 263.534L281.392 263.31C281.488 263.528 281.681 263.675 281.886 263.662C282.11 263.649 282.29 263.451 282.347 263.188L283.091 263.168C283.88 263.675 284.547 265.567 284.681 267.876C284.771 269.363 284.617 270.704 284.303 271.64L283.264 271.71C283.335 270.64 283.341 269.421 283.29 268.119L282.225 268.825L280.95 271.864L273.222 272.403C273.222 272.403 272.324 272.256 273.472 270.845L273.478 270.858Z" fill="#16415D"/>
<path d="M263.333 271.534C264.474 270.117 266.122 270.777 267.604 268.18C269.085 265.583 269.444 264.21 269.444 264.21L271.246 263.986C271.342 264.204 271.535 264.351 271.74 264.339C271.965 264.326 272.144 264.127 272.202 263.87L272.946 263.851C273.734 264.358 274.402 266.25 274.536 268.558C274.626 270.046 274.472 271.386 274.158 272.323L273.119 272.393C273.19 271.322 273.196 270.104 273.145 268.802L272.08 269.507L270.804 272.547L263.076 273.086C263.076 273.086 262.178 272.938 263.326 271.528L263.333 271.534Z" fill="#16415D"/>
<path d="M285.015 234.066C286.086 232.142 288.221 228.281 288.863 225.735C290.344 219.829 291.768 217.469 289.318 206.355L281.725 206.176C280.116 211.255 278.474 220.387 277.64 227.633C277.441 229.378 277.281 231.09 277.159 232.757L285.021 234.072L285.015 234.066Z" fill="#EFB495"/>
<path d="M268.404 231.553C269.27 229.597 271.002 225.686 271.56 223.127C272.849 217.195 273.997 214.796 272.438 203.805L266.667 203.869C265.301 208.98 263.8 218.131 262.967 225.378C262.768 227.122 262.601 228.834 262.46 230.495L268.404 231.547V231.553Z" fill="#EFB495"/>
<path d="M270.217 233.116C270.961 231.148 272.449 227.204 272.956 224.632C274.13 218.681 275.111 216.263 274.091 205.348L269.41 205.566C268.191 210.697 266.774 219.861 265.94 227.107C265.741 228.852 265.568 230.564 265.421 232.225L270.211 233.123L270.217 233.116Z" fill="#EFB495"/>
<path d="M272.887 157.053C273.913 158.97 269.257 163.991 262.485 168.262C260.542 169.487 256.233 171.809 252.622 172.443C243.651 174.021 233.287 172.476 232.556 171.103C231.896 169.866 239.617 168.904 246.992 166.768C251.038 165.595 254.982 163.619 257.381 162.106C261.363 159.592 264.203 148.709 266.884 148.132C268.763 147.728 272.47 156.264 272.893 157.053H272.887Z" fill="#EFB291"/>
<path d="M236.956 169.953C236.956 171.909 233.525 173.493 230.485 173.493C227.445 173.493 225.072 170.473 225.072 168.517C225.072 167.048 228.581 169.799 230.53 169.665C231.178 169.62 229.728 166.413 230.485 166.413C232.005 166.413 231.819 168.453 232.819 169.094C233.813 169.735 236.956 168.978 236.956 169.953Z" fill="#EFB291"/>
<path d="M266.494 130.997C268.905 142.175 268.34 144.208 269 144.06C272.592 143.278 277.184 137.397 277.184 130.061C277.184 122.724 274.817 116.78 271.899 116.78C268.982 116.78 264.941 123.853 266.487 130.991L266.494 130.997Z" fill="#1C3054"/>
<path d="M281.005 143.226C279.806 143.848 278.369 145.65 276.997 146.15C274.149 147.183 271.77 143.822 270.449 143.014C270.969 142.072 272.828 140.77 272.828 139.423C272.828 137.596 272.732 135.979 271.841 135.011V132.722H277.195C277.433 136.993 278.876 140.731 281.005 143.226Z" fill="#EA9F86"/>
<path d="M267.79 122.992C268.392 119.099 271.702 119.811 274.119 120.427C275.671 120.824 277.018 121.466 277.601 123.761C277.948 123.383 278.326 124.403 278.717 124.525C279.532 124.775 279.968 125.275 279.699 126.763C279.429 128.244 278.55 130.142 277.736 129.892C277.697 129.879 277.659 129.854 277.627 129.834C277.345 131.021 277.492 132.06 276.883 132.893C275.69 134.529 273.401 135.433 271.881 135.459C266.917 135.536 267.199 126.885 267.796 122.992H267.79Z" fill="#EBB190"/>
<path d="M266.057 120.017C266.455 117.355 272.098 114.976 275.965 115.637C278.428 116.053 279.563 116.034 281.679 118.939C283.795 121.844 283.853 134.606 283.494 135.594C282.609 138.024 278.729 141.564 277.523 141.622C277.35 141.628 276.934 137.383 277.049 134.01C277.126 131.842 277.767 130.034 277.709 129.95C278.139 129.809 278.569 129.444 278.864 128.905C279.358 127.994 279.275 126.962 278.678 126.596C278.191 126.295 277.511 126.545 277.01 127.135C276.606 125.115 275.773 122.986 272.24 123.627C268.379 124.332 265.66 122.684 266.057 120.023V120.017Z" fill="#1C3054"/>
<path d="M289.157 176.804C286.169 172.007 283.251 162.208 283.251 158.662C283.251 153.891 286.201 150.024 289.837 150.024C290.619 150.024 291.37 150.21 292.063 150.543C290.075 144.945 282.437 139.071 280.66 137.891C280.391 137.711 280.128 137.557 279.871 137.416L273.176 144.977L270.726 142.38C268.694 143.848 264.288 147.651 263.025 153.872C261.364 162.042 266.782 167.967 267.077 173.655C267.366 179.344 267.366 190.059 267.366 190.059H289.645C289.645 190.059 288.85 184.416 289.157 176.81V176.804Z" fill="#C0E1E4"/>
<path d="M289.209 184.905C289.023 184.603 288.818 184.315 288.606 184.033C284.553 185.681 278.05 186.829 273.638 187.137C270.034 187.387 268.046 186.797 266.937 185.706C266.911 185.764 266.885 185.822 266.86 185.88C263.345 195.14 262.319 219.759 262.319 219.759C262.319 219.759 292.473 222.658 292.198 220.945C289.94 206.991 294.076 192.812 289.202 184.899L289.209 184.905Z" fill="url(#paint1_linear_248_63919)"/>
<path d="M290.458 150.043C287.655 150.306 285.109 151.948 283.141 154.526C283.429 157.36 284.045 160.907 284.724 164.857C286.373 174.444 289.951 181.851 292.721 181.402C295.492 180.953 296.325 172.841 294.754 163.241C293.6 156.174 292.061 152.217 290.464 150.037L290.458 150.043Z" fill="#EFB291"/>
<path d="M290.701 180.453C289.688 181.434 286.718 178.972 280.152 172.623C273.585 166.274 269.089 160.33 270.103 159.348C271.116 158.367 277.259 162.722 283.826 169.07C290.393 175.419 291.714 179.472 290.701 180.453Z" fill="#EFB291"/>
<path d="M273.502 156.106C274.829 158.838 274.56 161.659 272.912 162.409C271.258 163.16 270.475 162.262 269.148 159.53C267.82 156.798 267.454 155.714 269.102 154.964C270.757 154.214 272.181 153.374 273.502 156.106Z" fill="#EFB291"/>
<defs>
<linearGradient id="paint0_linear_248_63919" x1="189.846" y1="10.7024" x2="189.846" y2="275.501" gradientUnits="userSpaceOnUse">
<stop stop-color="#F6FBFF"/>
<stop offset="1" stop-color="#EAF0F9"/>
</linearGradient>
<linearGradient id="paint1_linear_248_63919" x1="262.319" y1="202.765" x2="292.204" y2="202.765" gradientUnits="userSpaceOnUse">
<stop stop-color="#002D49"/>
<stop offset="1" stop-color="#002737"/>
</linearGradient>
</defs>
</svg>
