<svg width="380" height="285" viewBox="0 0 380 285" fill="none" xmlns="http://www.w3.org/2000/svg">
<path d="M20.1151 198.968C-0.93207 165.637 0.947838 58.4337 104.92 49.3874C134.75 46.7911 171.607 67.7754 195.326 58.2702C219.052 48.765 227.431 24.826 274.593 24.7003C321.748 24.5746 337.81 60.219 331.926 89.577C326.042 118.935 354.06 123.486 355.38 147.513C356.587 169.491 322.766 179.795 309.294 199.321C295.816 218.846 294.169 253.089 258.355 259.137C218.454 265.876 213.639 221.292 161.014 236.354C102.858 253.001 46.663 241.006 20.1151 198.968Z" fill="url(#paint0_linear_248_63564)"/>
<path d="M170.998 87.59C170.998 87.2002 170.998 86.8104 170.979 86.4332C170.979 86.2635 170.967 86.1001 170.961 85.9366C170.948 85.6349 170.942 85.3331 170.923 85.0439C170.91 84.7925 170.891 84.5536 170.872 84.3084C170.86 84.1135 170.848 83.9124 170.829 83.7175C170.791 83.2837 170.747 82.8625 170.697 82.4602C170.043 83.378 169.389 84.3147 168.741 85.2639C168.509 85.6034 168.283 85.9492 168.05 86.2949C167.635 86.9173 167.214 87.5459 166.805 88.1809C166.56 88.5644 166.315 88.9541 166.07 89.3376C165.68 89.9537 165.284 90.5761 164.9 91.2047C164.668 91.5882 164.435 91.9717 164.209 92.3551C163.819 93.0089 163.43 93.6627 163.046 94.3228C162.952 94.48 162.857 94.6371 162.763 94.8006C162.782 94.7692 162.807 94.7314 162.832 94.6937C157.08 104.708 152.598 115.483 151.554 124.944C151.554 124.888 151.554 124.837 151.554 124.781C151.523 125.051 151.51 125.309 151.485 125.573C151.466 125.78 151.447 125.988 151.428 126.195C151.378 126.855 151.34 127.516 151.328 128.163C151.277 128.188 151.227 128.22 151.19 128.282C150.416 129.785 149.693 131.306 148.794 132.74C146.864 129.961 144.928 127.195 142.936 124.473C143.709 122.681 144.557 120.852 144.708 118.922C144.966 118.595 145.218 118.268 145.45 117.935C145.538 117.809 145.62 117.677 145.708 117.551C145.903 117.262 146.091 116.973 146.273 116.678C146.361 116.533 146.449 116.382 146.537 116.238C146.707 115.942 146.871 115.64 147.034 115.332C147.103 115.194 147.179 115.062 147.248 114.924C147.461 114.49 147.669 114.05 147.851 113.604C147.864 113.578 147.871 113.553 147.883 113.528C148.059 113.101 148.222 112.673 148.373 112.239C148.423 112.088 148.474 111.931 148.524 111.78C148.625 111.466 148.725 111.152 148.813 110.831C148.863 110.661 148.907 110.485 148.951 110.316C148.983 110.203 149.014 110.089 149.046 109.97C149.033 109.995 149.027 110.014 149.021 110.039C151.529 100.062 148.455 88.1495 144.715 78.594C144.715 78.5814 144.708 78.5751 144.702 78.5625C144.098 77.0286 143.482 75.5513 142.866 74.1557C142.828 74.0677 142.791 73.9797 142.753 73.898C142.47 73.263 142.194 72.6532 141.917 72.056C141.854 71.9114 141.785 71.7731 141.722 71.6348C141.445 71.0439 141.169 70.4655 140.905 69.9186C140.71 70.409 140.527 70.8993 140.358 71.4022C140.282 71.6285 140.213 71.8548 140.138 72.0812C140.044 72.3641 139.949 72.6469 139.861 72.9298C139.786 73.175 139.723 73.4202 139.654 73.6654C139.572 73.942 139.491 74.2248 139.421 74.5077C139.359 74.7466 139.302 74.9855 139.245 75.2244C139.17 75.5262 139.101 75.8216 139.032 76.1234C138.981 76.3497 138.937 76.5823 138.887 76.8086C138.818 77.1292 138.755 77.4498 138.692 77.7704C138.648 77.9905 138.616 78.2105 138.579 78.4305C138.522 78.77 138.459 79.1032 138.409 79.4489C138.378 79.6627 138.346 79.8827 138.315 80.0965C138.264 80.4422 138.214 80.788 138.17 81.14C138.145 81.36 138.12 81.5801 138.095 81.8001C138.057 82.1458 138.019 82.4853 137.988 82.8374C137.982 82.9191 137.969 83.0008 137.963 83.0762C137.963 83.0637 137.963 83.0448 137.969 83.026C137.585 87.2191 137.623 91.5442 138 95.775C138 95.775 138 95.7624 138 95.7561C138 95.7813 138.001 95.8001 138.007 95.8253C138.051 96.2842 138.095 96.7368 138.145 97.1957C138.158 97.3026 138.164 97.4095 138.176 97.5163C138.227 97.9878 138.29 98.4593 138.353 98.9308C138.365 99.0188 138.371 99.1068 138.384 99.1949C138.447 99.6852 138.522 100.169 138.598 100.647C138.61 100.716 138.616 100.779 138.629 100.848C138.711 101.351 138.793 101.854 138.881 102.351C138.887 102.395 138.893 102.439 138.906 102.489C139 103.004 139.094 103.514 139.195 104.017C139.195 104.048 139.208 104.073 139.214 104.105C139.321 104.62 139.427 105.136 139.541 105.645C139.541 105.664 139.547 105.676 139.553 105.695C140.691 110.775 142.294 115.351 144.174 118.922C144.023 120.676 143.294 122.342 142.577 123.97C140.012 120.475 137.359 117.049 134.518 113.748C134.279 113.258 134.034 112.78 133.795 112.271C133.606 111.875 133.411 111.472 133.223 111.064C133.003 110.605 132.789 110.14 132.569 109.668C131.947 108.335 131.318 106.971 130.664 105.55C130.664 105.55 130.664 105.551 130.664 105.557C128.288 100.414 125.641 94.788 122.353 89.2119C119.21 83.8746 115.375 79.0403 111.478 75.0673C111.497 75.0798 111.515 75.0987 111.534 75.1113C111.409 74.9792 111.276 74.8535 111.151 74.7278C111.05 74.6272 110.956 74.5329 110.861 74.4386C110.359 73.942 109.856 73.4579 109.359 72.9864C109.271 72.9047 109.183 72.823 109.095 72.7412C108.605 72.2886 108.114 71.8486 107.63 71.4274C107.593 71.3959 107.548 71.3582 107.511 71.3205C107.008 70.893 106.512 70.4844 106.021 70.0883C105.914 70.0003 105.807 69.9123 105.7 69.8306C105.229 69.4597 104.758 69.1014 104.293 68.7619C104.179 68.6802 104.072 68.5984 103.959 68.523C103.488 68.1898 103.023 67.8629 102.57 67.5674C102.501 67.5234 102.425 67.4794 102.356 67.4291C101.929 67.1525 101.501 66.8948 101.086 66.6496C101.011 66.6056 100.935 66.5616 100.86 66.5176C100.419 66.2661 99.9923 66.0398 99.5648 65.8324C99.4705 65.7884 99.3759 65.7381 99.2879 65.6941C98.873 65.4929 98.4647 65.3106 98.0687 65.1534C97.9932 65.122 97.9242 65.0969 97.855 65.0717C97.4401 64.9145 97.0316 64.7762 96.6481 64.6631C96.7801 65.078 96.9246 65.5243 97.0692 65.9832C97.0881 66.0461 97.1067 66.1027 97.1318 66.1656C97.2639 66.5616 97.3961 66.9765 97.5407 67.404C97.5784 67.5109 97.6098 67.6115 97.6475 67.7183C97.811 68.1961 97.9742 68.6864 98.1565 69.1956C98.2319 69.4094 98.3137 69.6294 98.3891 69.8495C98.4834 70.1135 98.5777 70.3775 98.6783 70.6541C98.7349 70.8113 98.7855 70.9622 98.8484 71.1193C98.8484 71.1067 98.8479 71.0942 98.8416 71.0816C102.224 80.2033 108.46 93.3295 120.832 104.664C120.794 104.639 120.763 104.608 120.725 104.582C120.939 104.777 121.159 104.972 121.379 105.167C121.561 105.33 121.744 105.494 121.926 105.657C122.398 106.072 122.882 106.487 123.372 106.896C123.491 106.996 123.604 107.097 123.724 107.198C124.352 107.713 124.988 108.229 125.642 108.738C125.723 108.801 125.817 108.87 125.899 108.933C126.458 109.366 127.031 109.794 127.615 110.215C127.798 110.347 127.986 110.485 128.175 110.617C128.677 110.976 129.187 111.334 129.709 111.686C129.916 111.824 130.124 111.969 130.337 112.107C130.872 112.466 131.418 112.818 131.972 113.163C132.16 113.283 132.349 113.402 132.538 113.522C132.965 113.786 133.399 114.044 133.832 114.301C135.932 116.74 137.938 119.236 139.88 121.782C137.931 121.11 136.096 120.374 134.417 119.123C134.16 118.815 133.889 118.513 133.606 118.212C133.481 118.073 133.349 117.935 133.217 117.803C133.11 117.69 133.009 117.577 132.896 117.47C132.896 117.489 132.921 117.514 132.934 117.533C124.428 109.008 108.429 103.859 97.817 101.301C96.2956 100.93 94.4916 100.647 92.6496 100.421C92.5428 100.408 92.436 100.396 92.3292 100.383C91.9017 100.333 91.4742 100.282 91.0467 100.238C90.877 100.22 90.707 100.201 90.531 100.188C90.3236 100.169 90.116 100.15 89.9085 100.132C89.7262 100.113 89.5443 100.1 89.3683 100.081C89.1797 100.062 88.9908 100.05 88.8022 100.031C88.469 100.006 88.1423 99.9807 87.8279 99.9555C87.6708 99.9429 87.5264 99.9366 87.3755 99.9241C87.168 99.9115 86.9664 99.8927 86.7653 99.8801C86.6144 99.8675 86.4764 99.8612 86.3318 99.8549C86.1055 99.8424 85.8916 99.8298 85.6841 99.8172C85.5898 99.8172 85.4891 99.8046 85.4011 99.7984C85.1119 99.7795 84.8358 99.7669 84.5717 99.7543C84.4774 99.7543 84.3891 99.7481 84.2949 99.7418C84.1063 99.7355 83.9305 99.7229 83.7607 99.7166C83.6916 99.7166 83.6224 99.7166 83.5532 99.7103C83.3521 99.704 83.1631 99.6915 82.9933 99.6852C82.9745 99.6852 82.9557 99.6852 82.9369 99.6852C82.7483 99.6789 82.5975 99.6726 82.4592 99.6663C82.4152 99.6663 82.3901 99.6663 82.3524 99.6663C82.2581 99.6663 82.1825 99.6663 82.1259 99.66C82.1007 99.66 82.0881 99.66 82.0755 99.66C82.019 99.66 81.9878 99.66 81.9878 99.66C82.1763 99.9932 82.3962 100.32 82.6225 100.653C82.6917 100.76 82.7736 100.861 82.8491 100.961C83.0251 101.207 83.2196 101.452 83.4145 101.691C83.4899 101.785 83.5654 101.885 83.6472 101.98C83.9112 102.294 84.1945 102.602 84.4962 102.91C84.6031 103.017 84.7097 103.124 84.8228 103.237C85.0366 103.451 85.2565 103.665 85.4828 103.872C85.6274 104.004 85.7722 104.136 85.9168 104.268C86.1368 104.469 86.3693 104.664 86.6019 104.859C86.8848 105.098 87.1804 105.337 87.4884 105.576C87.6456 105.695 87.7903 105.821 87.9538 105.94C87.9538 105.94 87.9472 105.928 87.9409 105.928C97.2826 113.038 113.822 118.859 125.767 120.072C125.767 120.072 125.767 120.072 125.761 120.072C125.779 120.072 125.799 120.072 125.824 120.072C125.981 120.085 126.132 120.097 126.282 120.11C126.666 120.148 127.043 120.173 127.414 120.198C127.59 120.211 127.76 120.217 127.936 120.229C128.307 120.248 128.671 120.267 129.03 120.273C129.162 120.273 129.3 120.28 129.432 120.286C129.922 120.292 130.406 120.292 130.871 120.286C130.903 120.286 130.935 120.286 130.966 120.286C131.393 120.273 131.815 120.248 132.217 120.217C132.33 120.211 132.443 120.198 132.557 120.185C132.89 120.154 133.21 120.116 133.525 120.072C133.632 120.06 133.738 120.041 133.845 120.028C134.065 119.991 134.285 119.953 134.492 119.909C136.303 121.141 138.283 121.877 140.377 122.581C140.421 122.593 140.465 122.6 140.503 122.593C143.067 125.975 145.532 129.427 147.965 132.916C146.588 133.06 145.211 133.274 143.834 133.343C143.319 133.117 142.791 132.897 142.25 132.677C142.049 132.595 141.848 132.513 141.64 132.438C140.829 132.124 140 131.816 139.145 131.52C139.132 131.52 139.12 131.514 139.107 131.507C139.107 131.507 139.107 131.507 139.113 131.507C130.947 128.704 120.895 126.918 111.579 126.554C105.525 126.089 98.3136 127.101 92.3415 127.723C91.0087 127.855 89.6447 128.062 88.2994 128.333C88.3057 128.333 88.3183 128.327 88.3246 128.327C87.8343 128.421 87.3498 128.528 86.8721 128.641C86.7275 128.672 86.5834 128.716 86.4325 128.748C86.0239 128.848 85.615 128.955 85.2127 129.062C85.0429 129.106 84.8735 129.156 84.7037 129.207C84.27 129.332 83.8424 129.464 83.4212 129.596C83.327 129.628 83.2325 129.653 83.1382 129.684C82.6353 129.854 82.1512 130.024 81.6734 130.206C81.5414 130.256 81.4155 130.307 81.2897 130.357C80.9314 130.495 80.5923 130.64 80.2528 130.791C80.1208 130.847 79.9887 130.904 79.863 130.967C79.4355 131.162 79.0143 131.363 78.6309 131.57C79.3349 131.841 80.0512 132.124 80.7679 132.413C81.5851 132.74 82.4151 133.073 83.2512 133.406C83.3392 133.444 83.4272 133.475 83.5152 133.507C84.2758 133.808 85.0429 134.104 85.8161 134.387C85.8601 134.406 85.904 134.418 85.9543 134.437C86.7527 134.732 87.5578 135.015 88.3688 135.279C88.3939 135.286 88.4253 135.298 88.4505 135.311C88.4442 135.311 88.4316 135.305 88.4253 135.298C90.3175 135.914 92.2349 136.43 94.19 136.75C100.288 137.756 105.235 138.115 111.082 138.718C120.342 139.202 129.382 138.203 138.478 135.619C138.397 135.65 138.328 135.682 138.24 135.713C138.692 135.587 139.144 135.437 139.597 135.305C140.018 135.179 140.446 135.053 140.873 134.921C141.86 134.613 142.853 134.28 143.84 133.928C145.343 133.852 146.84 133.595 148.355 133.463C149.48 135.078 150.598 136.7 151.724 138.328C150.29 138.737 148.87 139.158 147.43 139.516C146.676 139.523 145.897 139.542 145.104 139.56C144.765 139.573 144.419 139.586 144.073 139.598C143.583 139.617 143.093 139.636 142.59 139.667C142.2 139.686 141.81 139.711 141.42 139.737C140.917 139.768 140.408 139.806 139.893 139.85C139.509 139.881 139.125 139.913 138.736 139.944C138.623 139.957 138.516 139.963 138.397 139.969C138.416 139.969 138.434 139.969 138.447 139.969C129.583 140.811 119.317 143.031 109.46 148.192C109.491 148.173 109.516 148.16 109.542 148.142C109.139 148.349 108.743 148.594 108.341 148.814C107.668 149.185 106.995 149.543 106.323 149.94C105.832 150.229 105.355 150.556 104.871 150.864C104.28 151.241 103.683 151.599 103.092 152.001C102.413 152.467 101.746 152.97 101.074 153.466C100.69 153.749 100.3 154.013 99.9166 154.309C98.8667 155.126 97.8299 155.981 96.8052 156.886C97.0441 156.999 97.2952 157.1 97.553 157.188C97.641 157.219 97.7419 157.251 97.8299 157.282C97.9996 157.339 98.1628 157.395 98.3388 157.446C98.452 157.477 98.5717 157.508 98.6912 157.534C98.8484 157.571 99.0054 157.615 99.1688 157.647C99.2945 157.672 99.4266 157.697 99.5587 157.722C99.7158 157.754 99.873 157.779 100.03 157.804C100.168 157.823 100.307 157.842 100.445 157.86C100.602 157.879 100.759 157.898 100.917 157.911C101.061 157.923 101.212 157.936 101.356 157.949C101.513 157.961 101.671 157.967 101.834 157.98C101.992 157.986 102.142 157.993 102.299 157.999C102.456 157.999 102.614 157.999 102.771 158.005C102.934 158.005 103.098 158.005 103.261 158.005C103.412 158.005 103.563 157.999 103.714 157.993C103.89 157.993 104.066 157.986 104.248 157.974C104.362 157.974 104.475 157.961 104.588 157.949C105.355 157.898 106.14 157.823 106.932 157.716C107.027 157.703 107.115 157.691 107.209 157.678C107.454 157.647 107.7 157.603 107.945 157.565C108.039 157.552 108.133 157.534 108.234 157.521C108.485 157.477 108.737 157.433 108.988 157.389C109.083 157.37 109.17 157.358 109.265 157.339C109.522 157.288 109.786 157.238 110.05 157.182C110.126 157.163 110.208 157.15 110.283 157.131C110.56 157.075 110.843 157.012 111.119 156.949C111.17 156.936 111.22 156.924 111.27 156.911C111.578 156.842 111.88 156.767 112.188 156.691C112.188 156.691 112.194 156.691 112.2 156.691C112.452 156.628 112.703 156.565 112.955 156.503C112.949 156.503 112.942 156.503 112.93 156.503C117.739 155.239 122.473 153.403 126.012 151.819C128.426 150.744 131.255 149.437 134.109 148.022C134.103 148.022 134.097 148.028 134.09 148.035C134.147 148.003 134.21 147.978 134.266 147.947C134.838 147.664 135.417 147.375 135.989 147.079C136.027 147.06 136.058 147.041 136.096 147.023C136.643 146.746 137.183 146.463 137.724 146.18C137.887 146.092 138.051 146.004 138.215 145.916C138.636 145.69 139.057 145.464 139.472 145.237C139.635 145.143 139.805 145.055 139.968 144.961C140.434 144.703 140.892 144.445 141.345 144.181C141.433 144.131 141.527 144.074 141.615 144.024C142.156 143.71 142.684 143.395 143.2 143.075C143.294 143.018 143.381 142.961 143.476 142.905C143.884 142.653 144.281 142.402 144.658 142.151C144.796 142.056 144.934 141.968 145.073 141.874C145.412 141.648 145.739 141.421 146.054 141.195C146.179 141.107 146.299 141.019 146.418 140.931C146.827 140.635 147.223 140.334 147.581 140.045C149.084 139.674 150.567 139.221 152.057 138.806C152.057 138.806 152.057 138.806 152.063 138.806C152.937 140.076 153.811 141.34 154.691 142.609C155.609 143.936 156.753 145.583 158.042 147.463C158.011 147.463 157.973 147.463 157.941 147.475C156.332 148.022 154.742 148.6 153.283 149.518C152.749 149.701 152.183 149.877 151.598 150.04C151.504 150.065 151.409 150.097 151.309 150.122C150.737 150.279 150.146 150.424 149.542 150.562C144.476 151.731 138.403 152.454 133.575 154.9C129.432 157.056 123.385 161.482 118.255 165.888C118.255 165.888 118.255 165.882 118.261 165.876C118.23 165.901 118.204 165.926 118.173 165.951C118.034 166.071 117.902 166.184 117.77 166.303C117.456 166.58 117.142 166.85 116.834 167.121C116.645 167.29 116.457 167.46 116.268 167.63C116.01 167.862 115.759 168.095 115.508 168.321C115.325 168.485 115.149 168.654 114.973 168.818C114.583 169.176 114.206 169.535 113.848 169.887C113.722 170.006 113.609 170.125 113.49 170.245C113.226 170.503 112.967 170.76 112.722 171.012C112.584 171.156 112.452 171.295 112.314 171.433C112.088 171.672 111.868 171.905 111.654 172.131C111.541 172.25 111.427 172.37 111.327 172.489C111.019 172.829 110.73 173.162 110.459 173.476C110.855 173.589 111.258 173.677 111.666 173.753C111.842 173.784 112.031 173.803 112.207 173.828C112.44 173.86 112.679 173.897 112.917 173.916C113.131 173.935 113.345 173.941 113.558 173.948C113.772 173.96 113.986 173.973 114.206 173.973C114.432 173.973 114.659 173.967 114.885 173.954C115.099 173.948 115.313 173.941 115.533 173.923C115.759 173.904 115.991 173.878 116.224 173.853C116.444 173.828 116.67 173.809 116.89 173.778C117.123 173.746 117.356 173.709 117.588 173.665C117.821 173.627 118.047 173.583 118.28 173.539C118.513 173.495 118.745 173.438 118.977 173.388C119.216 173.332 119.455 173.275 119.701 173.212C119.933 173.149 120.159 173.093 120.392 173.024C120.505 172.992 120.612 172.967 120.725 172.936C120.706 172.936 120.681 172.936 120.669 172.942C127.842 170.811 135.675 165.675 142.225 160.381C142.225 160.381 142.219 160.388 142.212 160.394C142.231 160.381 142.25 160.363 142.269 160.35C142.784 159.935 143.287 159.52 143.784 159.105C143.916 158.992 144.048 158.885 144.18 158.772C144.557 158.451 144.928 158.137 145.293 157.823C145.438 157.697 145.582 157.571 145.733 157.439C146.091 157.125 146.443 156.817 146.789 156.503C146.909 156.396 147.034 156.283 147.154 156.176C147.6 155.773 148.04 155.371 148.468 154.975C148.474 154.969 148.48 154.962 148.487 154.956C148.927 154.548 149.347 154.145 149.762 153.749C149.869 153.642 149.976 153.542 150.083 153.441C150.373 153.158 150.661 152.882 150.938 152.605C151.064 152.479 151.19 152.354 151.315 152.234C151.573 151.976 151.825 151.719 152.07 151.467C152.177 151.36 152.284 151.247 152.39 151.14C152.724 150.794 153.05 150.455 153.352 150.128C153.377 150.122 153.396 150.116 153.421 150.097C154.892 149.129 156.52 148.575 158.142 148.016C158.237 147.984 158.293 147.922 158.312 147.852C159.57 149.675 160.972 151.712 162.474 153.9C162.468 153.913 162.455 153.913 162.449 153.925C161.581 155.673 160.777 157.534 159.431 158.973C159.067 159.093 158.702 159.225 158.325 159.369C158.218 159.407 158.111 159.451 158.004 159.489C157.514 159.684 157.011 159.891 156.495 160.117C156.382 160.168 156.263 160.224 156.143 160.274C155.628 160.507 155.106 160.752 154.572 161.023C154.54 161.041 154.502 161.054 154.471 161.073C153.924 161.35 153.371 161.645 152.812 161.947C152.692 162.01 152.579 162.072 152.459 162.142C151.906 162.45 151.34 162.77 150.781 163.11C150.668 163.173 150.561 163.242 150.448 163.311C149.857 163.669 149.266 164.034 148.675 164.417C148.675 164.417 148.668 164.417 148.662 164.424C148.059 164.813 147.455 165.222 146.852 165.643C146.745 165.719 146.644 165.788 146.537 165.857C145.953 166.266 145.368 166.687 144.783 167.121C144.746 167.152 144.708 167.177 144.67 167.202C144.677 167.202 144.683 167.196 144.689 167.19C140.635 170.207 136.68 173.772 133.392 177.569C133.411 177.55 133.424 177.525 133.443 177.5C133.336 177.625 133.229 177.751 133.122 177.883C132.977 178.059 132.826 178.229 132.682 178.405C132.506 178.619 132.33 178.826 132.16 179.04C132.015 179.222 131.871 179.404 131.727 179.587C131.563 179.8 131.4 180.008 131.236 180.222C131.098 180.404 130.959 180.592 130.821 180.775C130.664 180.989 130.513 181.202 130.363 181.41C130.231 181.592 130.105 181.781 129.979 181.963C129.834 182.177 129.683 182.39 129.539 182.61C129.419 182.793 129.3 182.981 129.187 183.164C129.049 183.384 128.91 183.597 128.778 183.817C128.665 184.006 128.558 184.188 128.451 184.377C128.326 184.591 128.2 184.811 128.081 185.024C127.967 185.232 127.86 185.433 127.753 185.641C127.653 185.835 127.539 186.037 127.445 186.231C127.244 186.634 127.056 187.03 126.88 187.432C127.288 187.281 127.716 187.118 128.156 186.954C128.294 186.904 128.433 186.848 128.577 186.791C128.892 186.665 129.218 186.54 129.545 186.407C129.703 186.345 129.853 186.282 130.01 186.219C130.463 186.037 130.916 185.848 131.387 185.647C131.507 185.597 131.626 185.54 131.746 185.49C132.11 185.333 132.481 185.169 132.852 185.006C133.053 184.918 133.254 184.823 133.462 184.735C133.776 184.591 134.09 184.446 134.411 184.302C134.618 184.207 134.82 184.113 135.027 184.012C135.505 183.786 135.989 183.553 136.479 183.308C136.661 183.22 136.844 183.126 137.026 183.032C137.372 182.856 137.718 182.686 138.063 182.504C138.284 182.39 138.503 182.277 138.723 182.158C139.063 181.976 139.402 181.793 139.742 181.611C139.887 181.535 140.025 181.46 140.169 181.378C140.15 181.385 140.138 181.391 140.126 181.397C146.959 177.606 153.767 172.552 157.356 166.41C157.514 166.14 157.671 165.863 157.816 165.593C157.891 165.448 157.967 165.297 158.042 165.147C158.155 164.92 158.262 164.7 158.363 164.474C158.432 164.329 158.494 164.178 158.557 164.034C158.683 163.745 158.796 163.449 158.903 163.16C158.941 163.059 158.979 162.959 159.016 162.865C159.136 162.519 159.242 162.173 159.343 161.821C159.381 161.689 159.412 161.557 159.45 161.419C159.519 161.148 159.582 160.878 159.638 160.608C159.663 160.476 159.695 160.35 159.714 160.218C159.764 159.941 159.802 159.665 159.84 159.388C161.185 157.974 162.015 156.144 162.864 154.403C165.869 158.785 169.263 163.751 172.708 168.849C171.488 170.019 170.137 170.993 168.798 172.005C168.012 172.143 167.22 172.294 166.428 172.451C166.215 172.495 166 172.539 165.787 172.59C165.083 172.741 164.372 172.91 163.662 173.093C163.53 173.124 163.398 173.149 163.266 173.187C163.272 173.187 163.285 173.187 163.297 173.187C159.821 174.117 156.294 175.482 152.642 177.782C146.544 181.623 141.427 185.842 136.278 191.412C136.322 191.361 136.372 191.305 136.41 191.254C136.284 191.393 136.158 191.531 136.033 191.669C135.894 191.82 135.75 191.977 135.612 192.135C134.939 192.883 134.26 193.643 133.581 194.435C133.852 194.498 134.128 194.555 134.405 194.605C134.467 194.618 134.53 194.63 134.593 194.643C134.882 194.693 135.172 194.743 135.467 194.781C135.486 194.781 135.505 194.781 135.518 194.781C135.8 194.819 136.089 194.844 136.378 194.869C136.441 194.869 136.511 194.882 136.574 194.882C136.888 194.901 137.202 194.913 137.529 194.919C137.566 194.919 137.605 194.919 137.642 194.919C137.938 194.919 138.239 194.907 138.547 194.888C138.616 194.888 138.686 194.882 138.749 194.875C139.088 194.85 139.434 194.813 139.792 194.762C139.849 194.756 139.905 194.743 139.962 194.737C140.282 194.687 140.616 194.624 140.955 194.555C141.018 194.542 141.087 194.53 141.15 194.511C141.527 194.423 141.917 194.322 142.313 194.203C142.338 194.196 142.357 194.19 142.382 194.184C142.376 194.184 142.364 194.184 142.357 194.184C143.445 193.851 144.602 193.398 145.84 192.782C153.377 189.016 161.908 183.195 167.019 175.89C167.013 175.903 167.007 175.915 167 175.928C167.019 175.903 167.031 175.878 167.05 175.852C167.371 175.394 167.673 174.928 167.962 174.457C168.031 174.344 168.113 174.231 168.182 174.117C168.509 173.577 168.81 173.03 169.093 172.477C170.439 171.458 171.79 170.478 173.022 169.308C181.779 182.252 190.826 195.894 194.724 202.627C195 203.104 195.698 202.551 195.428 202.08C192.536 197.082 186.495 187.753 179.919 177.858C181.61 177.034 183.364 176.211 184.716 174.834C184.741 174.809 184.76 174.777 184.772 174.746C184.822 174.746 184.873 174.733 184.917 174.727C185.502 174.576 186.067 174.4 186.621 174.205C186.709 174.174 186.803 174.143 186.891 174.111C187.419 173.923 187.928 173.715 188.418 173.495C188.512 173.451 188.601 173.413 188.695 173.369C189.192 173.143 189.682 172.898 190.153 172.64C190.191 172.615 190.235 172.596 190.273 172.571C190.725 172.319 191.159 172.062 191.587 171.785C191.656 171.741 191.725 171.703 191.788 171.659C192.115 171.446 192.429 171.232 192.743 171.006C192.712 171.024 192.674 171.043 192.642 171.062C198.03 167.227 201.362 161.84 204.179 158.835C208.673 154.038 210.634 148.883 211.816 144.785C212.175 143.546 212.464 142.396 212.728 141.39C212.521 141.39 212.3 141.415 212.074 141.459C212.011 141.472 211.949 141.484 211.88 141.497C211.685 141.541 211.49 141.591 211.282 141.66C211.238 141.673 211.194 141.685 211.144 141.704C210.899 141.786 210.647 141.893 210.39 142.012C210.308 142.05 210.226 142.088 210.145 142.125C209.943 142.22 209.736 142.327 209.528 142.446C209.447 142.49 209.365 142.534 209.283 142.578C209.013 142.735 208.736 142.899 208.453 143.081C208.359 143.138 208.271 143.207 208.177 143.263C207.963 143.408 207.749 143.552 207.529 143.71C207.422 143.785 207.316 143.86 207.209 143.942C206.913 144.156 206.617 144.382 206.316 144.621C206.234 144.684 206.153 144.753 206.065 144.822C205.819 145.017 205.574 145.218 205.323 145.426C205.21 145.52 205.096 145.621 204.977 145.715C204.694 145.96 204.405 146.212 204.115 146.469C204.071 146.507 204.027 146.545 203.983 146.589C203.638 146.897 203.292 147.224 202.946 147.551C202.871 147.626 202.789 147.695 202.714 147.771C202.318 148.148 201.928 148.525 201.526 148.921C201.538 148.915 201.545 148.902 201.557 148.896C197.295 153.152 192.863 158.59 189.556 163.531C189.556 163.525 189.569 163.512 189.569 163.506C189.531 163.562 189.493 163.619 189.456 163.675C189.418 163.726 189.386 163.776 189.355 163.833C189.33 163.87 189.304 163.902 189.286 163.94C189.286 163.94 189.28 163.946 189.273 163.952C189.022 164.329 188.783 164.7 188.55 165.071C188.544 165.084 188.531 165.096 188.525 165.109C188.5 165.147 188.475 165.184 188.449 165.228C188.449 165.235 188.437 165.241 188.437 165.253C188.349 165.385 188.267 165.517 188.185 165.649C188.185 165.649 188.186 165.662 188.173 165.668C188.085 165.813 188.003 165.951 187.915 166.09C187.802 166.272 187.696 166.448 187.589 166.63C187.538 166.712 187.482 166.8 187.438 166.882C187.431 166.894 187.419 166.913 187.406 166.926C187.337 167.051 187.268 167.171 187.199 167.29C187.193 167.303 187.186 167.309 187.186 167.315C187.129 167.416 187.073 167.517 187.017 167.617C186.985 167.674 186.953 167.724 186.922 167.781C186.865 167.887 186.802 167.988 186.746 168.095C186.746 168.107 186.733 168.126 186.721 168.139C186.658 168.246 186.602 168.359 186.545 168.466C186.532 168.491 186.52 168.51 186.507 168.529C186.45 168.642 186.388 168.755 186.331 168.868C186.325 168.874 186.325 168.887 186.319 168.893C186.256 169.019 186.193 169.138 186.13 169.264C186.13 169.264 186.13 169.266 186.13 169.271C186.073 169.384 186.017 169.497 185.96 169.61C185.947 169.635 185.935 169.66 185.923 169.685C185.879 169.78 185.828 169.868 185.791 169.962C185.778 169.987 185.765 170.012 185.753 170.037C185.753 170.044 185.747 170.056 185.74 170.063C185.728 170.094 185.709 170.125 185.696 170.157C185.665 170.226 185.634 170.295 185.602 170.364C185.552 170.478 185.501 170.591 185.451 170.704C185.438 170.723 185.432 170.742 185.426 170.76C185.388 170.848 185.351 170.936 185.313 171.018C185.3 171.05 185.287 171.075 185.275 171.1C185.243 171.182 185.212 171.263 185.174 171.339C185.168 171.364 185.155 171.389 185.143 171.414C185.061 171.615 184.986 171.817 184.91 172.011C184.898 172.043 184.891 172.062 184.885 172.093C184.872 172.118 184.866 172.143 184.86 172.175C184.847 172.206 184.841 172.238 184.829 172.263C184.829 172.275 184.816 172.294 184.816 172.307C184.804 172.338 184.791 172.363 184.784 172.395C184.759 172.464 184.741 172.539 184.716 172.609C184.709 172.627 184.703 172.653 184.69 172.678C184.665 172.766 184.634 172.86 184.609 172.948C184.609 172.961 184.602 172.98 184.596 172.992C184.571 173.068 184.558 173.137 184.533 173.206C184.527 173.237 184.521 173.262 184.514 173.294C184.502 173.35 184.483 173.407 184.47 173.47C184.47 173.495 184.458 173.52 184.452 173.545C184.433 173.614 184.42 173.677 184.407 173.746C184.407 173.759 184.408 173.778 184.401 173.79C184.389 173.872 184.376 173.948 184.363 174.023C184.363 174.042 184.357 174.067 184.351 174.08C184.345 174.136 184.338 174.193 184.332 174.249C184.332 174.275 184.332 174.3 184.332 174.319C184.332 174.363 184.326 174.4 184.32 174.444C182.981 175.771 181.27 176.557 179.623 177.368C177.234 173.778 174.783 170.119 172.388 166.58C173.708 165.341 174.795 163.908 175.971 162.538C176.499 162.255 177.015 161.966 177.517 161.676C177.687 161.582 177.851 161.482 178.014 161.387C178.712 160.979 179.397 160.557 180.057 160.13C180.177 160.054 180.29 159.973 180.409 159.897C181.012 159.501 181.61 159.093 182.195 158.684C182.302 158.609 182.415 158.533 182.521 158.458C183.163 157.999 183.785 157.534 184.401 157.056C184.533 156.949 184.671 156.848 184.803 156.741C185.388 156.283 185.973 155.817 186.545 155.333C188.651 153.573 190.713 151.681 192.863 149.625C194.365 148.192 195.509 147.06 196.509 145.904C196.503 145.916 196.49 145.929 196.484 145.941C196.553 145.866 196.616 145.784 196.679 145.709C196.748 145.627 196.817 145.545 196.886 145.463C197.093 145.212 197.301 144.948 197.502 144.684C197.559 144.609 197.615 144.533 197.672 144.451C197.873 144.175 198.074 143.892 198.269 143.596C198.319 143.521 198.37 143.439 198.42 143.364C198.621 143.056 198.822 142.729 199.03 142.389C199.067 142.327 199.106 142.257 199.143 142.195C199.363 141.817 199.583 141.428 199.809 141.006C201.922 137.071 203.028 133.444 203.305 130.068C201.124 131.155 199.313 132.142 196.603 133.852C196.346 134.016 196.075 134.204 195.805 134.399C195.729 134.456 195.648 134.519 195.566 134.575C195.359 134.732 195.145 134.896 194.925 135.072C194.843 135.135 194.767 135.198 194.686 135.261C194.403 135.493 194.114 135.732 193.825 135.99C193.825 135.99 193.818 135.996 193.812 136.002C193.504 136.273 193.183 136.562 192.869 136.851C192.806 136.908 192.743 136.97 192.681 137.027C192.423 137.266 192.165 137.511 191.907 137.763C191.838 137.832 191.769 137.895 191.7 137.964C191.41 138.247 191.121 138.536 190.832 138.825C190.813 138.85 190.788 138.869 190.769 138.888C190.461 139.202 190.153 139.516 189.852 139.837C189.764 139.931 189.676 140.026 189.588 140.12C189.393 140.321 189.204 140.529 189.015 140.73C188.953 140.799 188.884 140.868 188.821 140.937C188.827 140.937 188.833 140.925 188.839 140.918C187.519 142.345 186.312 143.728 185.395 144.835C183.307 147.192 181.679 149.531 180.321 151.882C180.321 151.869 180.334 151.863 180.334 151.851C180.322 151.876 180.309 151.901 180.29 151.932C179.793 152.8 179.328 153.667 178.888 154.541C178.881 154.554 178.876 154.566 178.869 154.585C177.97 156.396 177.178 158.219 176.411 160.08C176.411 160.086 176.411 160.092 176.405 160.098C176.128 160.765 175.858 161.438 175.587 162.116C174.424 163.462 173.362 164.883 172.067 166.108C169.49 162.292 166.987 158.627 164.718 155.321C166.038 154.07 167.132 152.63 168.326 151.253C170.451 150.505 175.185 147.865 180.202 143.71C180.284 143.647 180.359 143.584 180.441 143.515C180.699 143.301 180.956 143.075 181.214 142.855C181.371 142.716 181.528 142.584 181.685 142.446C181.874 142.276 182.063 142.107 182.257 141.93C182.452 141.754 182.654 141.578 182.849 141.396C182.842 141.396 182.83 141.409 182.824 141.415C186.149 138.335 189.411 134.626 191.957 130.395C191.957 130.395 191.958 130.407 191.951 130.407C192.58 129.357 193.165 128.276 193.699 127.163C193.762 127.038 193.812 126.906 193.875 126.774C194.07 126.346 194.264 125.925 194.447 125.491C194.617 125.076 194.774 124.661 194.925 124.24C194.982 124.083 195.051 123.932 195.107 123.775C195.931 121.443 196.49 119.004 196.723 116.458C195.811 117.03 194.918 117.627 194.045 118.243C193.825 118.394 193.605 118.551 193.391 118.708C192.561 119.305 191.744 119.921 190.952 120.55C190.788 120.676 190.638 120.814 190.474 120.94C189.795 121.493 189.135 122.053 188.488 122.625C188.299 122.794 188.104 122.958 187.921 123.121C187.199 123.775 186.501 124.435 185.822 125.108C185.633 125.29 185.457 125.479 185.275 125.661C184.697 126.246 184.131 126.843 183.59 127.434C183.465 127.572 183.326 127.717 183.2 127.855C183.182 127.88 183.157 127.899 183.138 127.924C183.138 127.924 183.157 127.905 183.169 127.899C181.013 130.313 179.158 132.771 177.656 135.166C174.11 140.83 171.256 145.413 169.527 148.261C169.471 148.355 169.414 148.45 169.358 148.538C169.245 148.726 169.131 148.909 169.031 149.078C168.949 149.217 168.867 149.349 168.792 149.481C168.723 149.6 168.653 149.713 168.59 149.82C168.515 149.946 168.446 150.065 168.377 150.178C168.32 150.279 168.27 150.367 168.214 150.455C168.163 150.537 168.113 150.631 168.069 150.706C168.069 150.706 168.057 150.713 168.05 150.719C166.824 152.102 165.73 153.579 164.397 154.849C161.38 150.461 158.784 146.752 156.999 144.263C158.099 142.716 159.362 141.277 160.343 139.655C160.349 139.642 160.343 139.63 160.349 139.617C160.708 139.391 161.066 139.152 161.424 138.907C161.55 138.819 161.675 138.731 161.801 138.643C162.266 138.316 162.731 137.983 163.197 137.624C163.228 137.599 163.26 137.574 163.291 137.549C163.75 137.197 164.215 136.826 164.674 136.449C164.8 136.342 164.932 136.235 165.057 136.128C165.541 135.719 166.032 135.305 166.516 134.871C166.529 134.858 166.541 134.846 166.553 134.833C167.038 134.399 167.516 133.953 168 133.494C168.113 133.387 168.226 133.28 168.339 133.167C169.333 132.205 170.325 131.187 171.294 130.131C171.388 130.03 171.476 129.93 171.564 129.829C178.077 122.637 183.691 113.503 184.923 105.349C184.923 105.356 184.923 105.362 184.923 105.368C184.929 105.318 184.929 105.268 184.942 105.211C185.017 104.689 185.074 104.174 185.112 103.665C185.124 103.482 185.137 103.306 185.143 103.124C185.174 102.558 185.187 101.999 185.162 101.445C184.967 101.515 184.766 101.609 184.565 101.709C184.508 101.741 184.445 101.772 184.388 101.804C184.238 101.885 184.081 101.973 183.924 102.074C183.848 102.118 183.772 102.168 183.703 102.219C183.552 102.319 183.402 102.42 183.245 102.539C183.163 102.596 183.088 102.659 183.006 102.722C182.849 102.841 182.685 102.973 182.521 103.105C182.44 103.174 182.358 103.237 182.277 103.306C182.1 103.457 181.918 103.621 181.736 103.784C181.666 103.847 181.597 103.903 181.528 103.973C181.277 104.205 181.019 104.45 180.755 104.714C180.51 104.953 180.264 105.211 180.013 105.469C180.013 105.469 180.026 105.462 180.026 105.456C176.952 108.681 173.406 113.453 170.106 118.683C170.106 118.677 170.112 118.67 170.119 118.664C170.075 118.733 170.03 118.802 169.993 118.872C169.804 119.173 169.615 119.481 169.42 119.783C169.32 119.94 169.226 120.104 169.125 120.261C168.937 120.569 168.754 120.871 168.572 121.179C168.478 121.336 168.383 121.499 168.289 121.657C168.1 121.971 167.918 122.285 167.736 122.599C167.648 122.744 167.566 122.889 167.484 123.04C167.296 123.373 167.101 123.7 166.912 124.033C166.862 124.127 166.811 124.221 166.755 124.309C166.051 125.56 165.378 126.811 164.737 128.05C164.718 128.094 164.693 128.132 164.674 128.176C164.498 128.515 164.328 128.855 164.165 129.194C164.096 129.332 164.027 129.464 163.964 129.603C163.813 129.911 163.662 130.219 163.518 130.527C163.442 130.69 163.36 130.847 163.285 131.011C163.147 131.306 163.008 131.595 162.876 131.885C162.794 132.061 162.719 132.23 162.637 132.406C162.512 132.683 162.386 132.96 162.267 133.236C162.185 133.419 162.109 133.601 162.028 133.783C161.915 134.047 161.801 134.311 161.694 134.575C161.613 134.764 161.537 134.952 161.462 135.141C161.361 135.393 161.261 135.638 161.166 135.889C161.091 136.09 161.015 136.285 160.94 136.48C160.852 136.706 160.764 136.939 160.682 137.165C160.6 137.392 160.525 137.618 160.443 137.844C160.38 138.033 160.311 138.221 160.249 138.41C160.154 138.693 160.066 138.976 159.985 139.252C159.953 139.271 159.915 139.278 159.89 139.322C158.935 140.9 157.721 142.301 156.64 143.798C154.132 140.302 151.699 136.769 149.259 133.249C150.221 131.734 150.989 130.124 151.812 128.528L152.849 128.251C153.377 128.1 153.886 127.905 154.389 127.692C154.553 127.622 154.716 127.541 154.88 127.465C155.219 127.302 155.559 127.132 155.885 126.95C156.055 126.855 156.219 126.755 156.382 126.654C156.722 126.441 157.055 126.214 157.388 125.975C157.514 125.887 157.64 125.799 157.759 125.711C167.164 118.488 171.143 100.176 171.118 87.8226C171.118 87.8288 171.118 87.8351 171.118 87.8477C171.118 87.7597 171.118 87.678 171.118 87.59H170.998Z" fill="#D9E7F4"/>
<path d="M327.296 91.842H147.081C142.446 91.842 138.688 95.5995 138.688 100.235V218.238C138.688 222.874 142.446 226.631 147.081 226.631H327.296C331.931 226.631 335.688 222.874 335.688 218.238V100.235C335.688 95.5995 331.931 91.842 327.296 91.842Z" fill="#C5DAEF"/>
<path d="M327.296 92.8105H147.081C142.466 92.8105 138.688 96.5887 138.688 101.203V208.344H335.688V101.203C335.688 96.5887 331.91 92.8105 327.296 92.8105Z" fill="#2F61A8"/>
<path d="M257.434 226.631H216.948V244.403H257.434V226.631Z" fill="#7AA9D7"/>
<path d="M328.782 100.232H145.605V199.968H328.782V100.232Z" fill="#D7E7F5"/>
<path d="M240.896 213.305H233.485C231.85 213.305 230.523 214.63 230.523 216.266C230.523 217.901 231.85 219.227 233.485 219.227H240.896C242.531 219.227 243.858 217.901 243.858 216.266C243.858 214.63 242.531 213.305 240.896 213.305Z" fill="#7AA9D7"/>
<path d="M274.219 250.821V249.834C274.219 246.848 271.773 244.403 268.787 244.403H205.589C202.603 244.403 200.157 246.848 200.157 249.834V250.821H274.219Z" fill="#C5DAEF"/>
<path d="M319.682 195.912C319.682 196.321 318.859 196.648 317.853 196.654L158.842 197.446C157.83 197.446 157.007 197.132 157.001 196.723L156.435 109.303C156.435 108.901 157.252 108.568 158.264 108.561L317.275 107.769C318.287 107.769 319.111 108.09 319.117 108.492L319.682 195.912Z" fill="white"/>
<path d="M175.366 134.94L180.514 138.322C180.791 134.374 183.903 131.212 187.825 130.854L191.195 125.731L187.763 120.513C178.157 120.928 170.463 128.71 170.18 138.348L175.372 134.934L175.366 134.94Z" fill="#729EDB"/>
<path d="M192.527 125.732L189.17 130.843C193.143 131.138 196.318 134.307 196.62 138.28L201.768 141.662L206.955 138.255C206.622 128.567 198.795 120.778 189.095 120.501L192.533 125.732H192.527Z" fill="#083E7F"/>
<path d="M184.464 152.134L187.878 146.941C183.999 146.614 180.9 143.54 180.529 139.668L175.368 136.273L170.188 139.68C170.59 149.236 178.284 156.905 187.846 157.276L184.464 152.128V152.134Z" fill="#F4A82F"/>
<path d="M201.767 143.009L196.612 139.621C196.267 143.531 193.136 146.643 189.22 146.951L185.806 152.143L189.188 157.292C198.831 156.971 206.589 149.233 206.954 139.602L201.767 143.009Z" fill="white"/>
<path d="M288.273 131.215L287.85 187.584L292.08 187.616L292.503 131.246L288.273 131.215Z" fill="#729EDB"/>
<path d="M282.134 142.254L281.794 187.547L286.025 187.579L286.365 142.286L282.134 142.254Z" fill="#F4A82F"/>
<path d="M300.456 122.303L299.966 187.68L304.197 187.712L304.687 122.334L300.456 122.303Z" fill="#F4A82F"/>
<path d="M294.173 152.609L293.91 187.636L298.141 187.668L298.404 152.64L294.173 152.609Z" fill="#083E7F"/>
<path d="M275.734 165.719L275.57 187.495L279.801 187.527L279.964 165.75L275.734 165.719Z" fill="#083E7F"/>
<path d="M259.114 129.256L213.524 129.866L213.461 125.761L259.044 125.151L259.114 129.256Z" fill="#BFD7E8"/>
<path d="M262.93 134.846L213.612 135.506L213.587 133.746L262.905 133.085L262.93 134.846Z" fill="#BFD7E8"/>
<path d="M262.985 138.512L213.668 139.172L213.643 137.418L262.96 136.752L262.985 138.512Z" fill="#BFD7E8"/>
<path d="M263.041 142.138L213.723 142.798L213.698 141.038L263.01 140.377L263.041 142.138Z" fill="#BFD7E8"/>
<path d="M263.101 145.808L213.783 146.468L213.758 144.707L263.069 144.047L263.101 145.808Z" fill="#BFD7E8"/>
<path d="M263.156 149.705L213.845 150.372L213.813 148.611L263.131 147.951L263.156 149.705Z" fill="#BFD7E8"/>
<path d="M257.943 153.446L213.9 154.037L213.869 152.277L257.912 151.692L257.943 153.446Z" fill="#BFD7E8"/>
<path d="M262.266 166.203L173.281 167.391L173.256 165.637L262.242 164.443L262.266 166.203Z" fill="#BFD7E8"/>
<path d="M262.325 169.724L173.333 170.912L173.308 169.152L262.3 167.964L262.325 169.724Z" fill="#BFD7E8"/>
<path d="M262.382 173.565L173.396 174.76L173.371 173L262.356 171.805L262.382 173.565Z" fill="#BFD7E8"/>
<path d="M262.436 177.083L173.444 178.271L173.419 176.511L262.41 175.323L262.436 177.083Z" fill="#BFD7E8"/>
<path d="M262.495 180.731L173.504 181.919L173.479 180.165L262.47 178.97L262.495 180.731Z" fill="#BFD7E8"/>
<path d="M262.545 184.253L173.559 185.441L173.534 183.681L262.52 182.493L262.545 184.253Z" fill="#BFD7E8"/>
<path d="M117.063 89.207L101.416 100.523C101.416 100.523 101.069 102.044 99.3406 101.29C98.2531 100.812 90.2882 98.6556 84.5612 97.1343L79.2871 95.4307L78.7965 95.6067C78.6959 95.5815 78.6455 95.569 78.6455 95.569L78.6836 95.6507L85.3157 108.871L88.6223 108.94L103.069 110.543C103.069 110.543 105.294 109.607 105.828 108.639C106.363 107.67 121.652 94.1671 121.652 94.1671L117.069 89.2133L117.063 89.207Z" fill="#F29B00"/>
<path d="M76.538 81.5433C76.538 81.5433 75.6391 66.1162 79.9391 64.5131C84.239 62.9101 87.3319 70.3973 87.3319 70.3973C87.3319 70.3973 89.4629 73.968 89.9281 77.2307C90.3933 80.4997 88.998 82.1216 88.998 82.1216C88.998 82.1216 83.3399 82.5868 81.674 87.2011C80.0081 91.8154 82.0829 104.671 82.0829 104.671C82.0829 104.671 69.5035 100.837 73.4138 94.9901C76.7959 89.9295 76.5318 81.5495 76.5318 81.5495L76.538 81.5433Z" fill="#314572"/>
<path d="M77.7841 92.5266C83.772 79.2648 85.0913 66.9179 80.7309 64.9491C76.3704 62.9803 67.9814 72.1351 61.9935 85.3968C56.0056 98.6586 54.6862 111.005 59.0467 112.974C63.4071 114.943 71.7962 105.788 77.7841 92.5266Z" fill="#314572"/>
<path d="M58.5283 251.134L73.0124 252.599L63.5894 245.697V235.028H59.6788L59.4461 243.817L58.5283 251.134Z" fill="#F3C6A0"/>
<path d="M62.4384 250.714C62.4384 250.714 68.3351 251.21 70.7177 251.499C75.4325 252.071 78.4186 254.372 78.4186 254.372H70.485L62.4384 252.046V253.744H58.6475V249.249L62.4384 250.714Z" fill="url(#paint1_linear_248_63564)"/>
<path d="M87.0732 250.689L101.557 252.147L92.1338 245.251V234.583H88.2237L87.9972 243.365L87.0732 250.689Z" fill="#F3C6A0"/>
<path d="M90.9856 250.268C90.9856 250.268 96.8829 250.765 99.2655 251.054C103.98 251.626 106.966 253.927 106.966 253.927H99.0328L90.9856 251.601V253.298H87.1953V248.803L90.9856 250.268Z" fill="url(#paint2_linear_248_63564)"/>
<path d="M95.4101 238.443L86.3137 238.933L83.4474 208.022L80.8695 197.053L79.6 186.171L75.6899 197.166L66.3418 238.946H58.666L60.6207 210.958L63.3054 190.565L65.4866 153.034L81.9764 151.695L91.4878 150.4L95.4101 238.443Z" fill="#2F61A8"/>
<path d="M63.5195 112.088L70.8681 91.6191L81.4422 96.1077C81.4422 96.1077 85.9246 103.136 87.9614 110.78C89.5582 116.765 88.854 122.876 88.6465 127.899C88.1876 139.334 92.9844 152.158 92.9844 152.158C92.9844 152.158 85.73 151.75 78.9908 152.026C72.2454 152.303 65.1286 153.837 65.1286 153.837C65.1286 153.837 70.9625 141.371 70.994 132.965C71.0191 124.554 63.5195 112.094 63.5195 112.094V112.088Z" fill="#F29B00"/>
<path d="M38.1148 122.18L70.1759 92.5396C70.1759 92.5396 73.6208 95.6891 72.8538 101.548C72.0869 107.407 63.5186 112.091 63.5186 112.091L50.1721 126.059L56.9178 131.943L52.9323 140.028C52.9323 140.028 41.3022 131.61 38.7625 129.611C36.2227 127.612 38.1209 122.18 38.1209 122.18H38.1148Z" fill="#F29B00"/>
<path d="M75.3114 81.91L83.6975 65.8542L86.0617 69.7896C86.0617 69.7896 87.0546 71.1852 87.4129 72.3419C87.6832 73.222 90.8137 75.9567 89.7513 76.2773C89.7513 76.2773 89.1291 76.4281 88.9845 77.1322C88.8399 77.8363 89.1797 79.0936 89.1797 79.4331C89.1797 82.7335 87.57 84.1543 87.57 84.1543C87.57 84.1543 81.8998 83.8525 79.599 88.2028C77.2981 92.5467 79.599 95.3317 79.599 95.3317C79.599 95.3317 65.6303 97.664 70.3264 92.3959C74.3874 87.8382 75.3052 81.91 75.3052 81.91H75.3114Z" fill="#F3C6A0"/>
<path d="M82.9117 75.4064C85.0235 70.8402 84.3878 66.0527 81.4918 64.7134C78.5958 63.374 74.5362 65.99 72.4244 70.5561C70.3126 75.1222 70.9483 79.9097 73.8442 81.2491C76.7402 82.5885 80.7999 79.9725 82.9117 75.4064Z" fill="#314572"/>
<path d="M65.0643 141.58L54.3018 138.04L55.9108 134.08L66.2774 137.852L65.0643 141.58Z" fill="#F3C6A0"/>
<path d="M70.8871 142.749C74.9563 142.749 78.2548 141.508 78.2548 139.977C78.2548 138.446 74.9563 137.204 70.8871 137.204C66.818 137.204 63.5195 138.446 63.5195 139.977C63.5195 141.508 66.818 142.749 70.8871 142.749Z" fill="#F3C6A0"/>
<path d="M80.2974 64.2488C80.8883 64.4185 81.4607 64.6134 82.0139 64.8397C77.299 68.0647 73.4456 73.2071 71.5534 79.5502C71.2956 80.4114 71.0879 81.2664 70.9119 82.1276C66.1215 79.437 63.4689 74.6907 64.7702 70.3404C66.367 64.9906 73.3194 62.2686 80.2974 64.2551V64.2488Z" fill="#314572"/>
<path d="M122.793 82.2119L124.673 82.7588L123.516 85.9272L127.842 83.6138L131.292 84.2047L131.682 85.6443L128.445 88.9699L124.629 91.6291L121.001 93.3893L117.525 90.8999L122.793 82.2119Z" fill="#F3C6A0"/>
<path d="M127.458 62.6266L120.593 64.0095C116.726 64.7884 114.223 68.5543 115.002 72.4207L115.096 72.8891C115.875 76.7556 119.641 79.2585 123.508 78.4795L130.373 77.0966C134.239 76.3176 136.742 72.5518 135.964 68.6853L135.869 68.217C135.09 64.3505 131.324 61.8476 127.458 62.6266Z" fill="#314572"/>
<path d="M130.221 77.6133C135.873 76.4754 150.671 76.7583 158.849 84.541L151.57 46.8911C143.021 57.3959 135.131 61.5701 127.31 63.148C127.31 63.148 124.4 65.2351 125.569 71.025C126.644 76.3685 130.227 77.6133 130.227 77.6133H130.221Z" fill="#4B94D0"/>
<path d="M161.555 84.8991C165.323 84.1401 166.573 74.5658 164.347 63.5144C162.12 52.4631 157.261 44.1195 153.493 44.8786C149.725 45.6376 148.476 55.2118 150.702 66.2632C152.928 77.3146 157.788 85.6581 161.555 84.8991Z" fill="#ADD1F0"/>
<path d="M162.131 84.2122C165.443 83.5451 166.371 74.2853 164.205 63.5301C162.038 52.7748 157.597 44.5969 154.285 45.264C150.973 45.9312 150.046 55.1908 152.212 65.946C154.379 76.7013 158.82 84.8794 162.131 84.2122Z" fill="#3D6194"/>
<path d="M130.082 77.5603C129.416 77.2711 126.512 75.7435 125.562 71.0286C124.531 65.9177 126.681 63.6922 127.197 63.2396L127.171 63.1265C126.618 63.2711 126.065 63.4031 125.518 63.5099C125.518 63.5099 122.608 65.5971 123.777 71.3869C124.852 76.7305 128.435 77.9752 128.435 77.9752C128.919 77.8746 129.485 77.7992 130.12 77.7426L130.082 77.5603Z" fill="#F4A82F"/>
<path d="M130.93 92.1684C130.93 92.1684 128.956 93.0171 127.403 93.6458C125.844 94.2744 125.467 92.2879 125.467 92.2879L122.305 78.8033L127.812 78.4639L130.93 92.1684Z" fill="#263558"/>
<path d="M126.929 78.4946L127.815 78.438L130.933 92.1426L130.204 92.4443L126.929 78.4946Z" fill="#314572"/>
<path d="M129.384 88.8907L129.063 87.4888L126.749 87.8722C126.448 87.9225 126.24 88.2746 126.291 88.6581V88.6895C126.347 89.073 126.636 89.3433 126.944 89.293L129.384 88.8907Z" fill="#4B598D"/>
<path d="M125.184 83.5064C125.234 83.8899 125.53 84.1602 125.831 84.11L128.208 83.7139L127.887 82.312L125.637 82.6829C125.335 82.7332 125.127 83.0853 125.177 83.4687V83.5002L125.184 83.5064Z" fill="#4B598D"/>
<path d="M128.812 86.3523L128.491 84.9504L126.09 85.3465C125.788 85.3968 125.58 85.7488 125.631 86.1323V86.1637C125.687 86.5472 125.976 86.8175 126.284 86.7672L128.812 86.346V86.3523Z" fill="#4B598D"/>
<path d="M152.325 66.5365C152.683 68.303 153.099 70.0067 153.564 71.6034L158.002 70.0129L156.166 60.9038L151.477 61.149C151.671 62.8778 151.948 64.682 152.325 66.5365Z" fill="#D4E7F8"/>
<path d="M157.923 69.5621C158.886 69.368 159.257 67.1773 158.751 64.6689C158.246 62.1605 157.056 60.2842 156.093 60.4782C155.13 60.6723 154.758 62.8631 155.264 65.3715C155.769 67.8799 156.959 69.7561 157.923 69.5621Z" fill="#F6F5FB"/>
<path d="M174.233 61.6083L168.324 62.7964C168.028 62.8593 167.739 62.6644 167.676 62.3689C167.613 62.0735 167.808 61.7843 168.104 61.7214L174.013 60.5333C174.308 60.4704 174.598 60.6653 174.66 60.9608C174.723 61.2562 174.529 61.5454 174.233 61.6083Z" fill="#EB7104"/>
<path d="M165.413 53.5446C165.156 53.5949 164.892 53.4566 164.791 53.2051C164.684 52.9222 164.822 52.6016 165.105 52.4948L170.87 50.2819C171.153 50.175 171.473 50.3133 171.58 50.5962C171.687 50.8791 171.549 51.1997 171.266 51.3066L165.501 53.5195C165.501 53.5195 165.445 53.5383 165.413 53.5446Z" fill="#EB7104"/>
<path d="M161.935 45.3267C161.74 45.3644 161.527 45.2952 161.395 45.1255C161.206 44.8866 161.25 44.5408 161.489 44.3523L165.965 40.8444C166.204 40.6558 166.55 40.6998 166.738 40.9387C166.927 41.1776 166.883 41.5233 166.644 41.7119L162.168 45.2198C162.099 45.2764 162.017 45.3078 161.935 45.3267Z" fill="#EB7104"/>
<path d="M175.376 72.2043C175.376 72.2043 175.313 72.2168 175.282 72.2168L169.109 72.4117C168.807 72.4243 168.549 72.1854 168.543 71.8774C168.537 71.5693 168.769 71.3179 169.077 71.3116L175.251 71.1167C175.552 71.1041 175.81 71.343 175.816 71.651C175.822 71.9214 175.634 72.154 175.376 72.2043Z" fill="#EB7104"/>
<path d="M174.668 82.8193C174.586 82.8381 174.498 82.8318 174.416 82.813L168.928 81.3105C168.633 81.2288 168.463 80.927 168.545 80.6379C168.627 80.3424 168.928 80.1727 169.217 80.2544L174.706 81.7569C175.001 81.8386 175.17 82.1403 175.089 82.4295C175.032 82.637 174.862 82.7816 174.668 82.8256V82.8193Z" fill="#EB7104"/>
<path d="M37.7918 123.238L62.0765 99.2043L40.3064 125.337C40.3064 125.337 38.6465 126.865 40.6078 128.481C41.7017 129.386 49.2395 137.709 49.2395 137.709C49.2395 137.709 40.256 130.882 38.2946 129.266C36.3332 127.651 37.798 123.238 37.798 123.238H37.7918Z" fill="#EF8200"/>
<path d="M62.0003 237.751L63.3957 209.764L65.3197 189.37L72.9642 152.865L65.0367 153.902L62.4657 190.76L60.5484 211.153L59.1523 239.134H64.6346L64.8544 237.751H62.0003Z" fill="#1E5184"/>
<path d="M297.237 141.558C297.237 141.929 296.91 142.225 296.501 142.231L232.592 142.533C232.184 142.533 231.85 142.237 231.85 141.866L231.392 62.1788C231.392 61.8141 231.718 61.5124 232.127 61.5061L296.036 61.2043C296.444 61.2043 296.777 61.4998 296.777 61.8707L297.237 141.558Z" fill="white"/>
<path d="M288.344 104.645L262.375 104.991L262.337 102.653L288.307 102.307L288.344 104.645Z" fill="#BFD7E8"/>
<path d="M247.505 103.176C241.961 103.252 237.535 107.589 237.616 112.864C237.698 118.138 242.256 122.356 247.801 122.281C253.345 122.206 257.771 117.868 257.69 112.593C257.608 107.319 253.05 103.101 247.505 103.176ZM247.725 117.56C244.921 117.598 242.621 115.466 242.577 112.801C242.533 110.135 244.771 107.941 247.575 107.904C250.378 107.866 252.679 109.997 252.723 112.663C252.767 115.328 250.529 117.522 247.725 117.56Z" fill="#F4A82F"/>
<path d="M251.474 103.493C246.345 101.663 240.599 104.052 238.55 108.912C238.543 108.93 238.531 108.956 238.524 108.974L243.164 110.747C243.164 110.747 243.176 110.703 243.189 110.684C244.207 108.264 247.043 107.057 249.601 107.899L249.563 107.981C250.89 108.553 251.839 109.609 252.279 110.842L256.881 108.968C255.938 106.623 254.033 104.63 251.431 103.568L251.468 103.486L251.474 103.493Z" fill="#FCF2F2"/>
<path d="M242.181 104.081C237.579 106.904 236.171 112.725 239.05 117.195C239.063 117.213 239.076 117.232 239.088 117.251L243.35 114.762C243.35 114.762 243.325 114.724 243.312 114.705C241.879 112.48 242.545 109.594 244.79 108.148L244.84 108.224C246.116 107.551 247.568 107.457 248.87 107.853L250.032 103.22C247.493 102.541 244.683 102.805 242.231 104.163L242.181 104.087V104.081Z" fill="#2F61A8"/>
<path d="M252.948 112.329C252.964 109.492 250.563 107.179 247.584 107.162C244.605 107.145 242.177 109.43 242.16 112.267C242.144 115.103 244.546 117.417 247.525 117.434C250.503 117.451 252.932 115.166 252.948 112.329Z" fill="white"/>
<path d="M290.517 107.83L262.417 108.207L262.404 107.208L290.505 106.831L290.517 107.83Z" fill="#BFD7E8"/>
<path d="M290.551 109.923L262.45 110.3L262.438 109.294L290.538 108.923L290.551 109.923Z" fill="#BFD7E8"/>
<path d="M290.58 111.989L262.486 112.36L262.467 111.36L290.568 110.983L290.58 111.989Z" fill="#BFD7E8"/>
<path d="M290.615 114.079L262.52 114.456L262.501 113.457L290.602 113.08L290.615 114.079Z" fill="#BFD7E8"/>
<path d="M290.651 116.305L262.55 116.682L262.538 115.676L290.632 115.299L290.651 116.305Z" fill="#BFD7E8"/>
<path d="M287.676 118.435L262.58 118.768L262.567 117.768L287.663 117.429L287.676 118.435Z" fill="#BFD7E8"/>
<path d="M290.65 126.469L239.949 127.148L239.931 126.142L290.638 125.463L290.65 126.469Z" fill="#BFD7E8"/>
<path d="M290.683 128.467L239.983 129.146L239.964 128.146L290.671 127.467L290.683 128.467Z" fill="#BFD7E8"/>
<path d="M290.713 130.662L240.013 131.341L239.994 130.335L290.701 129.656L290.713 130.662Z" fill="#BFD7E8"/>
<path d="M290.743 132.666L240.042 133.345L240.023 132.339L290.73 131.66L290.743 132.666Z" fill="#BFD7E8"/>
<path d="M290.776 134.742L240.075 135.421L240.057 134.421L290.763 133.742L290.776 134.742Z" fill="#BFD7E8"/>
<path d="M290.806 136.749L240.105 137.428L240.087 136.429L290.794 135.75L290.806 136.749Z" fill="#BFD7E8"/>
<path d="M245.96 92.5651L245.904 85.4487L245.879 82.186L240.881 82.2175L240.906 85.5807L240.963 92.5965L245.96 92.5651Z" fill="#2F61A8"/>
<path d="M240.963 92.6491L240.994 97.1377L245.992 97.1062L245.961 92.6177L240.963 92.6491Z" fill="#2F61A8"/>
<path d="M252.925 94.7232L252.9 91.7937L252.8 78.1897L247.802 78.2211L247.896 91.0959L247.902 91.3851L247.928 95.0941L247.941 96.9926L252.938 96.9612L252.925 94.7232Z" fill="#F4A82F"/>
<path d="M260.114 88.9722L260.108 88.3939V87.803L260.096 86.8223L260.071 83.459L255.079 83.4904L255.092 85.2946L255.117 88.4756L255.18 96.9498L260.178 96.9184L260.114 88.9722Z" fill="#729EDB"/>
<path d="M267.466 88.1222L267.441 85.5259L262.449 85.5573L262.468 88.0719L262.506 93.5537L267.504 93.5223L267.466 88.1222Z" fill="#2F61A8"/>
<path d="M262.505 93.5915L262.53 97.0491L267.527 97.0176L267.502 93.5601L262.505 93.5915Z" fill="#2F61A8"/>
<path d="M274.468 95.4337L274.443 92.5796L274.367 82.4458L269.37 82.4772L269.452 92.9505V93.5478L269.464 94.6919L269.471 95.4651L269.483 97.0053L274.481 96.9739L274.468 95.4337Z" fill="#F4A82F"/>
<path d="M289.299 90.686L289.28 88.7623L289.267 86.4426L284.27 86.4741L284.289 89.0641L284.295 89.8122L284.345 96.8342L289.343 96.8028L289.299 90.686Z" fill="#2F61A8"/>
<path d="M282.064 89.3519L282.052 87.3905L282.046 86.3721L277.048 86.4035L277.066 88.9935L277.079 90.9361L277.123 96.7637L282.121 96.7322L282.089 92.0236L282.064 89.3519Z" fill="#2F61A8"/>
<path d="M281.822 70.7868L247.498 71.2457L247.46 68.9072L281.785 68.4482L281.822 70.7868Z" fill="#BFD7E8"/>
<path d="M275.455 74.9172L255.458 75.1875L255.42 72.8489L275.418 72.5786L275.455 74.9172Z" fill="#BFD7E8"/>
<path d="M205.911 45.522C205.911 46.8987 206.295 48.1812 206.955 49.275L202.731 51.8273C201.618 49.9854 200.977 47.8291 200.977 45.522H205.911Z" fill="#2F61A8"/>
<path d="M218.137 56.5924C216.634 57.2525 214.975 57.6234 213.233 57.6234C208.808 57.6234 204.866 55.3603 202.729 51.8336L206.953 49.2812C208.223 51.3809 210.599 52.6885 213.233 52.6885C214.271 52.6885 215.257 52.4685 216.15 52.0725L218.137 56.5924Z" fill="#F4A82F"/>
<path d="M218.118 56.5846L216.113 52.0709C217.754 51.3417 219.074 50.0152 219.804 48.3682L224.323 50.361C223.104 53.127 220.884 55.3525 218.124 56.5783L218.118 56.5846Z" fill="white"/>
<path d="M224.329 50.3609L219.81 48.3681C220.206 47.4692 220.425 46.4822 220.425 45.4386C220.425 44.1373 220.08 42.9177 219.482 41.8616L223.776 39.4287C224.782 41.2015 225.361 43.2509 225.361 45.4386C225.361 47.1925 224.99 48.8585 224.323 50.3609H224.329Z" fill="#729EDB"/>
<path d="M215.441 38.6385L217.006 33.9551C219.904 34.8981 222.318 36.8972 223.808 39.4998L219.508 41.9327C218.615 40.3799 217.163 39.1917 215.435 38.6385H215.441Z" fill="#729EDB"/>
<path d="M213.166 33.3315C214.511 33.3315 215.8 33.5516 217.007 33.9539L215.454 38.6374C214.737 38.3985 213.964 38.2665 213.166 38.2665C209.155 38.2665 205.911 41.5166 205.911 45.5211H200.977C200.977 38.7882 206.433 33.3315 213.166 33.3315Z" fill="#729EDB"/>
<path d="M357.891 70.9565V76.1618H359.016V70.9565C359.016 70.5793 358.765 70.2776 358.457 70.2776C358.149 70.2776 357.897 70.5793 357.897 70.9565H357.891Z" fill="#F29B00"/>
<path d="M357.889 93.6934C357.889 94.0706 358.14 94.3723 358.448 94.3723C358.756 94.3723 359.008 94.0706 359.008 93.6934V88.8025H357.883V93.6934H357.889Z" fill="#F29B00"/>
<path d="M346.405 82.3214C346.405 82.6294 346.707 82.8809 347.084 82.8809H352.283V81.7556H347.084C346.707 81.7556 346.405 82.0071 346.405 82.3151V82.3214Z" fill="#F29B00"/>
<path d="M369.825 81.7593H364.934V82.8846H369.825C370.202 82.8846 370.504 82.6331 370.504 82.3251C370.504 82.017 370.202 81.7656 369.825 81.7656V81.7593Z" fill="#F29B00"/>
<path d="M350.013 74.6794L353.691 78.3569L354.483 77.5649L350.806 73.8872C350.542 73.6232 350.146 73.5855 349.926 73.8055C349.706 74.0256 349.743 74.4153 350.007 74.6856L350.013 74.6794Z" fill="#F29B00"/>
<path d="M366.091 90.754C366.355 91.018 366.752 91.0558 366.972 90.8357C367.192 90.6157 367.154 90.2259 366.89 89.9556L363.433 86.498L362.641 87.2902L366.098 90.7477L366.091 90.754Z" fill="#F29B00"/>
<path d="M349.93 90.8381C350.15 91.0581 350.54 91.0204 350.81 90.7563L354.487 87.0787L353.695 86.2866L350.018 89.9642C349.754 90.2283 349.716 90.6243 349.936 90.8443L349.93 90.8381Z" fill="#F29B00"/>
<path d="M366.094 73.8823L362.637 77.3399L363.429 78.132L366.887 74.6744C367.151 74.4104 367.189 74.0143 366.968 73.7943C366.748 73.5743 366.358 73.612 366.088 73.876L366.094 73.8823Z" fill="#F29B00"/>
<path d="M23.2888 148.27H20.0762V146.346H23.2888V142.945H25.2564V146.346H28.469V148.27H25.2564V151.671H23.2888V148.27Z" fill="#729EDB"/>
<path d="M46.468 163.086H44.3936V161.841H46.468V159.641H47.7376V161.841H49.8126V163.086H47.7376V165.286H46.468V163.086Z" fill="#729EDB"/>
<path d="M129.15 220.255H142.345H155.541L154.849 231.797C154.541 236.977 152.756 241.988 149.606 246.118C149.216 246.627 148.833 247.086 148.468 247.469C148.468 247.953 145.727 248.343 142.345 248.343C138.963 248.343 136.222 247.953 136.222 247.469H136.204C135.826 247.08 135.436 246.602 135.034 246.08C131.885 241.931 130.099 236.908 129.797 231.703L129.144 220.255H129.15Z" fill="#729EDB"/>
<path d="M142.343 222.138C149.631 222.138 155.538 221.294 155.538 220.252C155.538 219.211 149.631 218.366 142.343 218.366C135.055 218.366 129.147 219.211 129.147 220.252C129.147 221.294 135.055 222.138 142.343 222.138Z" fill="#BBD4F2"/>
<path d="M142.387 221.353C148.099 221.353 152.729 220.861 152.729 220.253C152.729 219.645 148.099 219.153 142.387 219.153C136.676 219.153 132.046 219.645 132.046 220.253C132.046 220.861 136.676 221.353 142.387 221.353Z" fill="#2F61A8"/>
<path d="M148.713 245.04C148.55 244.713 148.147 244.581 147.82 244.751C147.493 244.914 147.361 245.317 147.531 245.644C147.695 245.971 148.097 246.103 148.424 245.933C148.751 245.769 148.883 245.367 148.713 245.04Z" fill="#A6A6A6"/>
<path d="M144.713 244.176C144.55 243.849 144.147 243.717 143.82 243.886C143.493 244.05 143.361 244.452 143.531 244.779C143.695 245.106 144.097 245.238 144.424 245.068C144.751 244.905 144.883 244.503 144.713 244.176Z" fill="#A6A6A6"/>
<path d="M141.164 220.912C141.164 220.749 140.963 204.404 146.878 186.701L147.495 187.097C141.648 204.592 141.837 220.73 141.843 220.887L141.164 220.906V220.912Z" fill="#2F61A8"/>
<path d="M141.597 213.281L136.944 188.839L137.598 188.594L142.25 213.042L141.597 213.281Z" fill="#2F61A8"/>
<path d="M144.063 220.951L143.39 220.844C143.453 220.033 145.037 200.847 149.022 191.763L149.601 192.253C145.697 201.155 144.081 220.75 144.063 220.945V220.951Z" fill="#2F61A8"/>
<path d="M139.699 220.957C139.687 220.813 138.436 206.083 135.085 189.619L135.739 189.361C139.102 205.901 140.359 220.7 140.372 220.844L139.699 220.951V220.957Z" fill="#2F61A8"/>
<path d="M131.799 176.124C133.075 179.406 133.766 187.497 135.539 185.963C137.312 184.429 136.482 178.004 136.482 178.004C136.482 178.004 138.425 177.771 141.153 181.172C141.153 181.172 141.838 181.726 138.99 188.427C136.143 195.128 139.047 195.374 139.047 195.374C139.047 195.374 143.083 193.035 143.705 186.736C143.705 186.736 145.617 194.437 142.649 199.246C139.682 204.055 136.111 201.968 136.111 201.968C136.111 201.968 134.552 184.674 130.083 179.142C125.613 173.61 122.872 172.484 122.872 172.484C122.872 172.484 130.523 172.83 131.799 176.112V176.124Z" fill="#2F61A8"/>
<path d="M136.11 201.987C136.11 201.987 135.092 207.556 127.956 207.651C126.171 207.676 124.769 207.022 123.669 206.035C123.669 206.035 125.001 202.546 128.78 203.257C132.558 203.973 132.476 201.685 132.476 201.685C132.476 201.685 120.664 202.974 120.268 193.613C120.268 193.613 131.822 195.38 131.979 193.506C132.137 191.633 119.84 187.823 119.84 187.823C119.84 187.823 119.463 183.624 120.815 180.562C120.815 180.562 124.612 182.172 127.076 184.366C129.54 186.56 130.395 185.139 130.395 185.139C130.395 185.139 128.931 179.758 122.462 177.331L122.871 172.503C122.871 172.503 125.611 173.628 130.081 179.16C134.551 184.692 136.11 201.987 136.11 201.987Z" fill="#477EBF"/>
<path d="M157.653 166.341C155.818 169.421 153.944 177.348 152.253 175.582C150.555 173.815 152.347 167.566 152.347 167.566C152.347 167.566 150.292 167.07 146.878 170.068C146.878 170.068 146.061 170.521 148.192 177.556C150.323 184.59 147.161 184.433 147.161 184.433C147.161 184.433 143.144 181.566 143.352 175.236C143.352 175.236 140.221 182.604 142.735 187.777C145.256 192.951 149.393 191.367 149.393 191.367C149.393 191.367 153.485 174.444 159.074 169.565C164.656 164.693 167.762 163.952 167.762 163.952C167.762 163.952 159.482 163.248 157.647 166.328L157.653 166.341Z" fill="#477EBF"/>
<path d="M149.398 191.383C149.398 191.383 149.712 197.041 157.382 198.11C159.299 198.374 160.896 197.921 162.223 197.091C162.223 197.091 161.273 193.451 157.106 193.64C152.938 193.835 153.346 191.578 153.346 191.578C153.346 191.578 165.875 194.47 167.61 185.248C167.61 185.248 154.93 185.417 155.024 183.544C155.119 181.671 168.88 179.571 168.88 179.571C168.88 179.571 169.873 175.46 168.842 172.241C168.842 172.241 164.536 173.316 161.575 175.151C158.614 176.987 157.897 175.466 157.897 175.466C157.897 175.466 160.23 170.336 167.529 168.808L167.767 163.968C167.767 163.968 164.662 164.71 159.079 169.582C153.497 174.454 149.398 191.383 149.398 191.383Z" fill="#2F61A8"/>
<path d="M140.032 219.895C140.032 219.895 133.808 203.676 119.688 203.953C105.569 204.229 138.548 217.965 140.032 219.895Z" fill="#2F61A8"/>
<path d="M165.728 190.427C165.728 190.427 167.878 193.249 161.931 195.211C161.61 193.287 160.661 192.023 160.661 192.023C162.66 191.696 164.326 191.124 165.728 190.427Z" fill="#477EBF"/>
<path d="M163.113 187.919C172.04 184.505 172.411 183.053 172.411 183.053C172.411 183.053 171.148 187.711 165.729 190.427C164.333 191.125 162.661 191.697 160.662 192.024C160.662 192.024 161.611 193.287 161.931 195.211C162.258 197.185 161.919 199.857 159.197 202.579C153.828 207.948 146.485 206.715 146.485 206.715C146.485 206.715 151.515 192.357 163.113 187.919Z" fill="#477EBF"/>
<path d="M78.6432 100.761C78.9348 100.761 79.1712 100.525 79.1712 100.233C79.1712 99.9417 78.9348 99.7053 78.6432 99.7053C78.3516 99.7053 78.1152 99.9417 78.1152 100.233C78.1152 100.525 78.3516 100.761 78.6432 100.761Z" fill="white"/>
<path d="M80.5465 104.361C80.8382 104.361 81.0745 104.125 81.0745 103.833C81.0745 103.541 80.8382 103.305 80.5465 103.305C80.2549 103.305 80.0186 103.541 80.0186 103.833C80.0186 104.125 80.2549 104.361 80.5465 104.361Z" fill="white"/>
<defs>
<linearGradient id="paint0_linear_248_63564" x1="182.456" y1="24.7" x2="182.456" y2="259.836" gradientUnits="userSpaceOnUse">
<stop stop-color="#F6FBFF"/>
<stop offset="1" stop-color="#EAF0F9"/>
</linearGradient>
<linearGradient id="paint1_linear_248_63564" x1="68.5299" y1="254.379" x2="68.5299" y2="249.255" gradientUnits="userSpaceOnUse">
<stop stop-color="#002D49"/>
<stop offset="1" stop-color="#002737"/>
</linearGradient>
<linearGradient id="paint2_linear_248_63564" x1="97.0778" y1="253.927" x2="97.0778" y2="248.803" gradientUnits="userSpaceOnUse">
<stop stop-color="#002D49"/>
<stop offset="1" stop-color="#002737"/>
</linearGradient>
</defs>
</svg>
