<svg width="164" height="123" viewBox="0 0 164 123" fill="none" xmlns="http://www.w3.org/2000/svg">
<path d="M157.631 51.9597C164.88 68.822 157.215 117.931 110.337 114.413C96.887 113.402 81.8114 101.043 70.6407 103.66C59.47 106.278 54.213 116.653 33.2043 113.231C12.1957 109.809 7.3154 92.2515 11.8062 79.1976C16.297 66.1468 4.10906 61.9876 5.05229 50.8555C5.91504 40.6731 21.6313 38.4325 28.8746 30.4585C36.1178 22.4813 39.0344 6.87443 55.3687 6.73922C73.567 6.58792 72.8716 27.426 97.2669 24.387C124.225 21.0294 148.485 30.6902 157.631 51.9597Z" fill="#EAF0F9"/>
<g filter="url(#filter0_d_248_64625)">
<path d="M106.337 94.2902C82.0606 89.3809 82.8492 80.557 51.5841 84.1046C29.9252 86.5608 15.9699 95.7517 19.7331 103.909C22.5725 110.064 31.113 114.748 46.5299 113.567C61.95 112.385 75.2164 114.41 87.1855 115.778C102.248 117.501 125.24 113.412 128.691 107.283C132.142 101.154 122.925 97.6446 106.337 94.2902Z" fill="#EAF0F9"/>
</g>
<path d="M145.92 7.21875H77.373V56.65H145.92V7.21875Z" fill="white"/>
<path d="M145.92 7.26758H77.373V19.6326H145.92V7.26758Z" fill="#729EDB"/>
<path d="M135.203 23.9102H88.0898V25.3234H135.203V23.9102Z" fill="#1065E4"/>
<path d="M135.199 27.0703H92.7988V28.4836H135.199V27.0703Z" fill="#ED971B"/>
<path d="M91.1513 27.0703H88.0898V28.4836H91.1513V27.0703Z" fill="#ED971B"/>
<path d="M135.203 30.7422H88.0898V32.1554H135.203V30.7422Z" fill="#BEBEBE"/>
<path d="M119.374 34.3105H88.0898V35.7238H119.374V34.3105Z" fill="#BEBEBE"/>
<path d="M130.49 39.8281H88.0898V41.2414H130.49V39.8281Z" fill="#1065E4"/>
<path d="M123.424 42.9902H88.0898V44.4035H123.424V42.9902Z" fill="#ED971B"/>
<path d="M135.203 46.6641H88.0898V48.0773H135.203V46.6641Z" fill="#BEBEBE"/>
<path d="M119.374 50.2344H88.0898V51.6476H119.374V50.2344Z" fill="#BEBEBE"/>
<path d="M132.795 11.9941H97.3613V15.2648H132.795V11.9941Z" fill="white"/>
<path d="M134.935 11.8613H127.318V15.396H134.935V11.8613Z" fill="#4286F5"/>
<path d="M95.4913 11.9941H85.5117V15.2648H95.4913V11.9941Z" fill="#ED971B"/>
<path d="M145.916 8.18177V5.21365C145.916 4.54727 145.369 4 144.702 4H78.5826C77.9163 4 77.3691 4.54727 77.3691 5.21365V8.18177H145.916Z" fill="#153F5E"/>
<path d="M20.0221 12.826H41.7292C45.383 12.826 48.3737 15.8167 48.3737 19.4705V28.7097C48.3737 31.9321 46.0463 34.6395 42.9913 35.2318V40.9138L37.0035 35.3542H20.0252C16.3714 35.3542 13.3809 32.3635 13.3809 28.7097V19.4705C13.3809 15.8167 16.3714 12.826 20.0252 12.826H20.0221Z" fill="white"/>
<path d="M19.8486 24.1438C19.8486 24.8843 20.0546 25.5764 20.412 26.1655L18.136 27.5401C17.534 26.5486 17.1895 25.3865 17.1895 24.1406H19.8486V24.1438Z" fill="#FFCB49"/>
<path d="M26.4411 30.1096C25.633 30.4669 24.7381 30.6633 23.7981 30.6633C21.4126 30.6633 19.2879 29.4432 18.1387 27.5406L20.4146 26.166C21.1003 27.2992 22.3784 28.0042 23.7981 28.0042C24.3582 28.0042 24.8895 27.8851 25.3723 27.6726L26.4411 30.1096Z" fill="#FFCB49"/>
<path d="M26.4312 30.1068L25.3496 27.6763C26.2349 27.2836 26.9464 26.5689 27.3391 25.6836L29.7729 26.7588C29.113 28.2493 27.9185 29.4469 26.4312 30.11V30.1068Z" fill="#FFCB49"/>
<path d="M29.7756 26.7518L27.3418 25.6766C27.5543 25.1937 27.6766 24.6593 27.6766 24.096C27.6766 23.3942 27.4899 22.7375 27.168 22.1677L29.4827 20.8574C30.0236 21.8135 30.3358 22.9177 30.3358 24.096C30.3358 25.0392 30.1361 25.9374 29.7756 26.7518Z" fill="#FFCB49"/>
<path d="M24.9863 20.4321L25.8329 17.9082C27.3943 18.4168 28.6981 19.4953 29.4997 20.8956L27.1851 22.2059C26.7022 21.3721 25.923 20.7315 24.9895 20.4321H24.9863Z" fill="#FFCB49"/>
<path d="M23.7599 17.5742C24.4843 17.5742 25.1797 17.6933 25.83 17.909L24.9929 20.4329C24.6066 20.3041 24.1913 20.2333 23.7599 20.2333C21.5998 20.2333 19.8486 21.9846 19.8486 24.1447H17.1895C17.1895 20.5166 20.1319 17.5742 23.7599 17.5742Z" fill="#729EDB"/>
<path d="M44.1884 21.4336H32.7988V22.2899H44.1884V21.4336Z" fill="#729EDB"/>
<path d="M44.1925 23.4219H32.8027V24.2782H44.1925V23.4219Z" fill="#729EDB"/>
<path d="M44.1962 25.3574H32.8066V26.2137H44.1962V25.3574Z" fill="#729EDB"/>
<path d="M64.3337 81.1349H46.7472C46.4467 81.1349 46.2031 81.3785 46.2031 81.679V85.1493C46.2031 85.4498 46.4467 85.6933 46.7472 85.6933H64.3337C64.6342 85.6933 64.8778 85.4498 64.8778 85.1493V81.679C64.8778 81.3785 64.6342 81.1349 64.3337 81.1349Z" fill="white"/>
<path d="M45.0195 106.12L56.5572 105.212V103.307L45.0195 105.303V106.12Z" fill="#03263B"/>
<path d="M68.0911 106.12L56.5566 105.213V103.307L68.0911 105.303V106.12Z" fill="#03263B"/>
<path d="M44.9322 109.207C45.6078 109.207 46.1555 108.638 46.1555 107.936C46.1555 107.233 45.6078 106.664 44.9322 106.664C44.2566 106.664 43.709 107.233 43.709 107.936C43.709 108.638 44.2566 109.207 44.9322 109.207Z" fill="#03263B"/>
<path d="M68.0904 109.024C68.766 109.024 69.3138 108.454 69.3138 107.752C69.3138 107.05 68.766 106.481 68.0904 106.481C67.4148 106.481 66.8672 107.05 66.8672 107.752C66.8672 108.454 67.4148 109.024 68.0904 109.024Z" fill="#03263B"/>
<path d="M45.6416 106.084H45.1973V106.937H45.6416V106.084Z" fill="#03263B"/>
<path d="M67.8505 105.904H67.4062V106.758H67.8505V105.904Z" fill="#03263B"/>
<path d="M56.5572 109.207C57.2328 109.207 57.7806 108.638 57.7806 107.936C57.7806 107.233 57.2328 106.664 56.5572 106.664C55.8816 106.664 55.334 107.233 55.334 107.936C55.334 108.638 55.8816 109.207 56.5572 109.207Z" fill="#03263B"/>
<path d="M56.7802 105.731H56.3359V107.092H56.7802V105.731Z" fill="#03263B"/>
<path d="M57.2526 104.713H55.8555V105.891H57.2526V104.713Z" fill="#03263B"/>
<path d="M59.3516 84.1798H53.7598V94.5393H59.3516V84.1798Z" fill="#03263B"/>
<path d="M57.5175 92.4435H55.5957V103.424H57.5175V92.4435Z" fill="#03263B"/>
<path d="M85.0902 108.024L78.4746 108.52L77.5539 108.588L76.395 108.675L76.0859 104.528L79.3761 104.313L81.1304 105.784L85.0482 107.487L85.0902 108.024Z" fill="#19132E"/>
<path d="M78.9594 102.88L76.0254 103.1L76.1352 104.567L79.0692 104.347L78.9594 102.88Z" fill="#F3C6A0"/>
<path d="M72.1866 108.988L65.555 109.152L64.6311 109.175L63.4721 109.204L63.3691 105.045L66.6657 104.996L68.346 106.551L72.1738 108.451L72.1866 108.988Z" fill="#19132E"/>
<path d="M66.3554 103.343L63.4141 103.416L63.4508 104.887L66.3921 104.814L66.3554 103.343Z" fill="#F3C6A0"/>
<path d="M70.7322 89.6951C69.1934 86.7978 61.2997 88.1145 55.7337 83.379C50.1676 78.6435 64.3838 78.0157 64.3838 78.0157C64.3838 78.0157 72.5638 82.542 74.035 82.9605C75.5062 83.379 76.3143 85.0208 76.8165 87.7153C77.3219 90.4065 81.1109 104.314 81.1109 104.314L75.1521 104.848C75.1521 104.848 72.2676 92.5892 70.7289 89.6919L70.7322 89.6951Z" fill="#2C5D82"/>
<path d="M61.0565 88.6614C60.0778 85.5323 53.3271 86.8167 48.7301 81.1348C44.133 75.4529 57.6314 79.2709 57.6314 79.2709C57.6314 79.2709 64.382 82.7927 65.7501 83.4784C67.1183 84.1641 67.6076 85.925 67.6076 88.6646C67.6076 91.4041 67.6076 105.199 67.6076 105.199H62.8142C62.8142 105.199 62.032 91.7969 61.0533 88.6646L61.0565 88.6614Z" fill="#29577B"/>
<path d="M47.3636 79.0752C47.3636 79.0752 48.4003 81.8598 56.3936 80.9552C64.387 80.0538 65.2658 77.8905 65.2658 77.8905C65.2658 77.8905 64.5832 64.5951 63.801 60.4874C63.0187 56.3796 59.1042 55.0083 59.1042 55.0083L55.7369 56.399L52.4532 55.0083C52.4532 55.0083 47.7564 54.8763 46.5846 59.7695C45.4096 64.6627 47.3669 79.0752 47.3669 79.0752H47.3636Z" fill="#729EDB"/>
<path d="M56.4418 81.035C56.3903 81.0414 56.3388 81.0446 56.2841 81.051C54.0628 74.1426 52.4982 63.2616 52.4982 55.088C52.4982 55.088 52.4145 55.999 55.9042 56.4787C59.397 56.9584 58.8015 55.088 58.8015 55.088C60.6719 59.0734 60.3756 73.0674 62.0914 79.9082C60.7877 80.3396 58.9722 80.7517 56.4386 81.035H56.4418Z" fill="#153F5E"/>
<path d="M64.9488 63.1845L65.2803 67.5756L71.1747 73.2832C71.2519 74.3005 69.5201 75.4691 68.5028 75.5464L65.0453 75.086C64.8457 71.6962 64.44 65.3801 63.9668 61.6876C64.5108 61.9774 64.9005 62.5278 64.9488 63.1845Z" fill="#729EDB"/>
<path d="M55.3625 73.9438L56.264 72.17L62.0553 73.8505C62.77 73.6734 63.6842 73.5704 64.6789 73.5704C66.9646 73.5704 68.819 74.1273 68.819 74.813C68.819 75.4987 66.9646 76.0557 64.6789 76.0557C63.1917 76.0557 61.8912 75.8206 61.1604 75.4665L55.3594 73.9438H55.3625Z" fill="#F3C6A0"/>
<path d="M44.916 69.9744C44.916 67.9206 45.4053 61.6591 46.5803 59.7662C47.7553 57.8733 47.3047 59.7373 48.7855 59.8081C50.2632 59.8757 51.4156 61.1441 51.348 62.6217C51.348 62.6217 49.9991 69.5269 50.981 70.4863C51.9628 71.4424 60.0817 72.1281 60.0817 72.1281V76.9215C60.0817 76.9215 47.9163 74.7582 46.8089 74.2753C45.7015 73.7924 44.9159 71.5937 44.9192 69.9744H44.916Z" fill="#729EDB"/>
<path d="M68.2441 75.399C68.4405 74.7068 68.8847 74.0791 69.5092 73.5511C70.1048 73.4513 70.7872 73.3966 71.5148 73.3966C73.8004 73.3966 75.6548 73.9535 75.6548 74.6392C75.6548 75.3249 73.8004 75.8818 71.5148 75.8818C70.1852 75.8818 69.0038 75.6919 68.2473 75.4022L68.2441 75.399Z" fill="#F3C6A0"/>
<path d="M58.4686 52.2365V55.8967C58.4686 55.8967 55.6132 59.029 52.9863 55.9707L53.2149 52.2396H58.4655L58.4686 52.2365Z" fill="#E8BEA9"/>
<path d="M55.6759 54.7368C55.7467 54.7464 55.8174 54.7529 55.8882 54.7593C56.7671 54.8237 57.5784 54.5758 58.2384 54.0414C58.2995 53.9931 58.2995 53.9094 58.2384 53.8547C58.1804 53.8 58.0838 53.7936 58.0258 53.8451C57.4271 54.3312 56.6931 54.5565 55.898 54.4985C55.0706 54.4374 54.3624 54.0479 53.7926 53.3429C53.7443 53.2817 53.6477 53.2656 53.5801 53.3042C53.5125 53.3429 53.4965 53.4265 53.548 53.4877C54.1146 54.1927 54.8485 54.6241 55.6726 54.74L55.6759 54.7368Z" fill="#BA745D"/>
<path d="M59.5389 48.0732C59.8834 51.0575 59.4939 54.2863 57.1503 54.4956C54.7133 54.7145 52.141 53.3238 51.7966 50.3396C51.4521 47.3554 53.0554 44.5385 55.3733 44.046C57.6911 43.5534 59.1944 45.089 59.5356 48.0732H59.5389Z" fill="#F3C6A0"/>
<path d="M59.6955 45.5306C59.8178 45.2215 59.7793 44.8578 59.5185 44.4521C59.467 44.3717 59.4059 44.2879 59.3351 44.201C59.0389 43.8244 58.6138 43.4703 58.2211 43.1644C58.2082 43.1644 58.1922 43.1644 58.1826 43.1677C56.2575 42.5689 54.0298 42.424 52.2882 43.2771C51.4351 43.6795 50.9617 44.288 50.7428 44.9865C50.2921 45.9266 50.4241 47.446 50.6752 48.5856C50.7428 48.8979 50.817 49.178 50.8911 49.4162C51.2291 50.5107 51.6637 51.9948 52.5618 52.8253C52.7485 52.9734 53.051 53.1279 53.3247 53.0957C53.3407 53.0957 53.3537 53.0893 53.3633 53.0893C53.3311 53.041 53.2989 52.9863 53.27 52.9316C53.1798 52.6 53.2024 52.2266 53.2024 51.8982C53.0672 52.0205 52.9576 52.0849 52.8289 52.0914C52.7065 52.101 52.5715 52.0527 52.388 51.9433C51.9115 51.6857 51.7441 51.19 51.7248 50.6781C51.7248 50.5461 51.7473 50.3144 51.8053 50.0922C51.8053 50.0922 51.8053 50.0858 51.8117 50.0826C51.8536 49.9248 51.9148 49.7799 52.0049 49.6802C52.0757 49.6029 52.1593 49.5514 52.2655 49.5514C52.4136 49.5514 52.6647 49.7381 52.7935 49.8959C52.8032 49.9087 52.8129 49.9248 52.8226 49.9345C52.8516 50.0922 52.8837 50.2467 52.9256 50.398C52.9674 50.5751 53.0189 50.7489 53.0736 50.9195C53.2861 51.0226 53.4985 51.1642 53.7335 51.1868L53.7432 51.0741C53.4052 50.1276 53.4148 49.1265 53.4502 48.1253C53.4599 47.8806 53.4727 47.636 53.4792 47.3913C53.4888 47.1627 53.4954 46.9374 53.4954 46.712V46.6766C54.5416 46.609 55.6072 46.5446 56.5054 46.1647C56.1545 46.3193 55.8614 46.5286 55.591 46.7636C55.5009 46.8408 55.4107 46.9213 55.3238 47.0018C55.1145 47.1949 54.915 47.3945 54.7057 47.5812C55.9 47.6681 57.6803 47.0082 58.8907 46.2775C59.0645 46.1712 59.2255 46.065 59.3736 45.9587H59.3769L59.3833 45.9716C59.4059 46.2291 59.4219 46.4899 59.4347 46.7571C59.4862 47.6971 59.4896 48.6757 59.3962 49.6254C59.4123 49.6254 59.4316 49.6254 59.4509 49.6286C59.4992 49.3775 59.5732 49.1329 59.6408 48.8882C59.7309 48.5567 59.8179 48.2218 59.8469 47.871C59.9016 47.1853 60.0689 46.1648 59.6955 45.5273V45.5306Z" fill="#0F343D"/>
<path d="M55.377 44.0468C55.377 45.0093 58.0006 45.4761 58.9857 45.4761C59.974 45.4761 60.7756 44.6938 60.7756 43.7313C60.7756 42.7687 59.974 41.9865 58.9857 41.9865C57.9974 41.9865 55.377 43.0842 55.377 44.0468Z" fill="#0F343D"/>
<path d="M57.8283 54.0064C58.5848 53.9806 59.1064 53.6812 59.4508 53.2144C59.2931 54.5375 58.7425 55.5838 57.5095 55.6836C55.5651 55.8413 53.5146 54.8369 53.2409 52.6768C53.2152 52.4676 53.2023 52.2615 53.2056 52.0587C54.152 53.4044 56.0481 54.0675 57.8283 54.0064Z" fill="#0F343D"/>
<path d="M71.2079 73.3282H61.3828V74.7029H71.2079V73.3282Z" fill="white"/>
<path d="M69.9219 74.5714H83.5006L87.9431 63.9415H74.3645L69.9219 74.5714Z" fill="white"/>
<path d="M70.5605 74.5713H84.1393L88.5818 63.9414H75.0032L70.5605 74.5713Z" fill="#073453"/>
<path d="M116.794 74.1523H30.873V77.0689H116.794V74.1523Z" fill="#C3D6ED"/>
<path d="M30.8743 74.1523H14.7363V77.0689H30.8743V74.1523Z" fill="#A1BAD3"/>
<path d="M31.7715 118.793H33.5968L40.9688 77.0684H37.3471L31.7715 118.793Z" fill="#C3D6ED"/>
<path d="M19.0391 113.185H20.6326L27.0582 77.0684H23.9034L19.0391 113.185Z" fill="#153F5E"/>
<path d="M116.794 118.793H114.966L107.594 77.0684H111.215L116.794 118.793Z" fill="#C3D6ED"/>
<path d="M102.436 113.185H100.843L94.4141 77.0684H97.5721L102.436 113.185Z" fill="#153F5E"/>
<path d="M23.8105 47.7776V50.9775H24.5026V47.7776C24.5026 47.5458 24.3482 47.3591 24.1582 47.3591C23.9683 47.3591 23.8137 47.5458 23.8137 47.7776H23.8105Z" fill="#E5803C"/>
<path d="M23.8119 61.7624C23.8119 61.9941 23.9664 62.1808 24.1563 62.1808C24.3462 62.1808 24.5007 61.9941 24.5007 61.7624V58.7556H23.8086V61.7624H23.8119Z" fill="#E5803C"/>
<path d="M16.748 54.7695C16.748 54.9594 16.9347 55.1139 17.1665 55.1139H20.3664V54.4218H17.1665C16.9347 54.4218 16.748 54.5763 16.748 54.7662V54.7695Z" fill="#E5803C"/>
<path d="M31.1475 54.4218H28.1406V55.1139H31.1475C31.3793 55.1139 31.5659 54.9594 31.5659 54.7695C31.5659 54.5795 31.3793 54.425 31.1475 54.425V54.4218Z" fill="#E5803C"/>
<path d="M18.9658 50.0704L21.229 52.3336L21.7184 51.8442L19.4552 49.5811C19.291 49.417 19.0497 49.3944 18.9144 49.5296C18.7792 49.6648 18.8017 49.9063 18.9658 50.0704Z" fill="#E5803C"/>
<path d="M28.8544 59.959C29.0186 60.1232 29.2601 60.1457 29.3953 60.0105C29.5305 59.8753 29.5079 59.6339 29.3438 59.4697L27.2159 57.3418L26.7266 57.8311L28.8544 59.959Z" fill="#E5803C"/>
<path d="M18.9163 60.009C19.0515 60.1442 19.293 60.1217 19.4572 59.9575L21.7203 57.6944L21.2309 57.2051L18.9679 59.4682C18.8037 59.6324 18.7811 59.8738 18.9163 60.009Z" fill="#E5803C"/>
<path d="M28.8544 49.5811L26.7266 51.7091L27.2159 52.1983L29.3438 50.0704C29.5079 49.9063 29.5305 49.6648 29.3953 49.5296C29.2601 49.3944 29.0186 49.417 28.8544 49.5811Z" fill="#E5803C"/>
<path d="M135.412 79.9704H132.482V78.2159H135.412V75.1094H137.211V78.2159H140.141V79.9704H137.211V83.077H135.412V79.9704Z" fill="#729EDB"/>
<defs>
<filter id="filter0_d_248_64625" x="19.1211" y="83.2852" width="111.973" height="34.5734" filterUnits="userSpaceOnUse" color-interpolation-filters="sRGB">
<feFlood flood-opacity="0" result="BackgroundImageFix"/>
<feColorMatrix in="SourceAlpha" type="matrix" values="0 0 0 0 0 0 0 0 0 0 0 0 0 0 0 0 0 0 127 0" result="hardAlpha"/>
<feOffset dx="1.68398" dy="1.68398"/>
<feColorMatrix type="matrix" values="0 0 0 0 0 0 0 0 0 0 0 0 0 0 0 0 0 0 0.08 0"/>
<feBlend mode="normal" in2="BackgroundImageFix" result="effect1_dropShadow_248_64625"/>
<feBlend mode="normal" in="SourceGraphic" in2="effect1_dropShadow_248_64625" result="shape"/>
</filter>
</defs>
</svg>
