<svg width="380" height="285" viewBox="0 0 380 285" fill="none" xmlns="http://www.w3.org/2000/svg">
<g filter="url(#filter0_d_248_64319)">
<path d="M264.246 104.624C200.562 70.8605 203.891 3.97875 120.494 35.1906C62.7223 56.8095 24.4315 128.318 33.2659 189.551C39.9309 235.742 61.9196 269.988 102.969 258.897C144.019 247.805 178.911 261.267 210.462 269.951C250.164 280.879 311.697 246.721 321.704 199.84C331.711 152.959 307.772 127.698 264.252 104.624H264.246Z" fill="#EAF0F9"/>
</g>
<path d="M260.045 19.9271V23.037H260.716V19.9271C260.716 19.7014 260.566 19.5195 260.378 19.5195C260.19 19.5195 260.039 19.7014 260.039 19.9271H260.045Z" fill="#ED971B"/>
<path d="M260.045 33.5195C260.045 33.7452 260.195 33.927 260.384 33.927C260.572 33.927 260.722 33.7452 260.722 33.5195V30.5977H260.051V33.5195H260.045Z" fill="#ED971B"/>
<path d="M253.174 26.7229C253.174 26.911 253.356 27.0615 253.582 27.0615H256.692V26.3906H253.582C253.356 26.3906 253.174 26.5411 253.174 26.7292V26.7229Z" fill="#ED971B"/>
<path d="M267.174 26.3852H264.252V27.056H267.174C267.4 27.056 267.581 26.9056 267.581 26.7175C267.581 26.5294 267.4 26.3789 267.174 26.3789V26.3852Z" fill="#ED971B"/>
<path d="M255.334 22.1526L257.535 24.3534L258.012 23.8768L255.811 21.6761C255.654 21.5193 255.416 21.4943 255.284 21.6259C255.152 21.7576 255.178 21.9896 255.334 22.1526Z" fill="#ED971B"/>
<path d="M264.948 31.7643C265.105 31.9211 265.343 31.9462 265.475 31.8145C265.606 31.6829 265.581 31.4508 265.425 31.2878L263.356 29.2188L262.879 29.6953L264.948 31.7643Z" fill="#ED971B"/>
<path d="M255.284 31.8134C255.416 31.9451 255.648 31.92 255.811 31.7632L258.012 29.5625L257.535 29.0859L255.334 31.2867C255.178 31.4435 255.152 31.6818 255.284 31.8134Z" fill="#ED971B"/>
<path d="M264.948 21.6761L262.879 23.7451L263.356 24.2216L265.425 22.1526C265.581 21.9958 265.606 21.7576 265.475 21.6259C265.343 21.4943 265.111 21.5193 264.948 21.6761Z" fill="#ED971B"/>
<path d="M110.225 88.8985V91.4691H110.783V88.8985C110.783 88.7104 110.657 88.5662 110.507 88.5662C110.356 88.5662 110.231 88.7167 110.231 88.8985H110.225Z" fill="#56989C"/>
<path d="M110.223 100.133C110.223 100.321 110.349 100.465 110.499 100.465C110.65 100.465 110.775 100.315 110.775 100.133V97.7188H110.217V100.133H110.223Z" fill="#56989C"/>
<path d="M104.549 94.5165C104.549 94.667 104.699 94.7923 104.881 94.7923H107.452V94.2344H104.881C104.693 94.2344 104.549 94.3597 104.549 94.5102V94.5165Z" fill="#56989C"/>
<path d="M116.119 94.2402H113.705V94.7983H116.119C116.307 94.7983 116.451 94.673 116.451 94.5225C116.451 94.372 116.301 94.2465 116.119 94.2465V94.2402Z" fill="#56989C"/>
<path d="M106.332 90.7411L108.15 92.5593L108.545 92.1644L106.727 90.346C106.595 90.2144 106.401 90.1957 106.294 90.3085C106.187 90.4214 106.206 90.6095 106.332 90.7411Z" fill="#56989C"/>
<path d="M114.276 98.6843C114.408 98.816 114.602 98.8348 114.708 98.722C114.815 98.6091 114.796 98.4211 114.671 98.2894L112.966 96.584L112.57 96.9789L114.276 98.6843Z" fill="#56989C"/>
<path d="M106.293 98.7295C106.399 98.8361 106.594 98.8172 106.725 98.6918L108.544 96.8736L108.149 96.4785L106.33 98.2969C106.199 98.4286 106.18 98.6229 106.293 98.7295Z" fill="#56989C"/>
<path d="M114.276 90.3453L112.57 92.0507L112.966 92.4458L114.671 90.7404C114.802 90.6087 114.821 90.4144 114.708 90.3078C114.596 90.2012 114.408 90.2199 114.276 90.3453Z" fill="#56989C"/>
<path d="M327.385 62.5464H325.717V61.4491H327.385V59.5117H328.407V61.4491H330.075V62.5464H328.407V64.4838H327.385V62.5464Z" fill="#FCFDFF"/>
<path d="M49.0937 108.216H47.4258V107.119H49.0937V105.182H50.1156V107.119H51.7835V108.216H50.1156V110.154H49.0937V108.216Z" fill="#FCFDFF"/>
<path d="M183.946 112.116H181.971V110.818H183.946V108.523H185.156V110.818H187.131V112.116H185.156V114.411H183.946V112.116Z" fill="#D68047"/>
<path d="M323.641 102.383H321.008V100.652H323.641V97.5859H325.259V100.652H327.892V102.383H325.259V105.448H323.641V102.383Z" fill="#FCFDFF"/>
<path d="M81.0339 62.859H78.4004V61.1284H81.0339V58.0625H82.6516V61.1284H85.2848V62.859H82.6516V65.925H81.0339V62.859Z" fill="#FCFDFF"/>
<path d="M347.374 154.898C347.449 154.516 347.481 154.108 347.462 153.694C347.462 153.625 347.418 153.569 347.355 153.544L346.49 153.168L346.477 153.111C346.414 152.81 346.314 152.515 346.183 152.24L346.158 152.19L346.621 151.368C346.653 151.312 346.653 151.236 346.615 151.18C346.496 150.998 346.37 150.841 346.245 150.697C346.126 150.559 345.988 150.415 345.819 150.265C345.769 150.221 345.7 150.208 345.637 150.233L344.759 150.578L344.715 150.547C344.458 150.377 344.182 150.24 343.888 150.133L343.838 150.114L343.587 149.211C343.568 149.149 343.518 149.098 343.449 149.086C343.06 149.011 342.653 148.979 342.239 149.004C342.17 149.004 342.113 149.048 342.088 149.111L341.712 149.97L341.656 149.982C341.355 150.045 341.06 150.145 340.778 150.277L340.728 150.302L339.913 149.838C339.856 149.807 339.781 149.807 339.731 149.845C339.568 149.951 339.411 150.07 339.248 150.208C339.091 150.346 338.947 150.49 338.815 150.635C338.772 150.685 338.759 150.754 338.784 150.816L339.129 151.694L339.097 151.738C338.928 151.995 338.79 152.271 338.684 152.566L338.665 152.616L337.756 152.873C337.693 152.892 337.643 152.942 337.63 153.011C337.555 153.4 337.524 153.807 337.542 154.215C337.542 154.284 337.586 154.34 337.649 154.365L338.514 154.741L338.527 154.798C338.596 155.105 338.69 155.4 338.815 155.669L338.841 155.719L338.376 156.541C338.345 156.597 338.345 156.673 338.383 156.729C338.514 156.917 338.627 157.074 338.753 157.212C338.878 157.356 339.022 157.5 339.179 157.638C339.229 157.682 339.298 157.695 339.361 157.669L340.239 157.325L340.282 157.356C340.54 157.519 340.815 157.657 341.104 157.77L341.154 157.789L341.411 158.698C341.43 158.76 341.48 158.811 341.549 158.823C341.95 158.898 342.358 158.923 342.753 158.905C342.822 158.905 342.878 158.861 342.903 158.798L343.286 157.933L343.342 157.92C343.643 157.858 343.938 157.757 344.22 157.626L344.27 157.6L345.092 158.058C345.148 158.089 345.223 158.089 345.273 158.052C345.443 157.933 345.606 157.814 345.756 157.688C345.894 157.569 346.038 157.425 346.189 157.262C346.233 157.212 346.245 157.143 346.22 157.08L345.875 156.209L345.907 156.158C346.076 155.901 346.214 155.619 346.32 155.331L346.339 155.281L347.242 155.024C347.305 155.005 347.355 154.955 347.367 154.886L347.374 154.898ZM347.06 154.654L347.048 154.723L346.158 154.973C346.101 154.992 346.057 155.03 346.038 155.086C345.926 155.444 345.756 155.782 345.537 156.089C345.505 156.14 345.493 156.202 345.518 156.259L345.857 157.118L345.806 157.168C345.706 157.268 345.618 157.356 345.531 157.431C345.436 157.513 345.33 157.594 345.23 157.669L345.173 157.713L344.364 157.262C344.314 157.23 344.251 157.23 344.195 157.262C343.862 157.431 343.505 157.55 343.135 157.613C343.079 157.626 343.029 157.663 343.004 157.713L342.627 158.56H342.558C342.558 158.56 342.527 158.56 342.508 158.56C342.27 158.56 342.032 158.541 341.787 158.503L341.718 158.491L341.468 157.6C341.449 157.544 341.411 157.5 341.355 157.481C340.997 157.362 340.659 157.193 340.358 156.986C340.308 156.955 340.245 156.942 340.195 156.967L339.336 157.306L339.286 157.256C339.192 157.168 339.104 157.074 339.022 156.98C338.941 156.886 338.865 156.792 338.784 156.679L338.74 156.622L339.191 155.82C339.223 155.77 339.223 155.707 339.191 155.657C339.028 155.331 338.909 154.98 338.841 154.597C338.828 154.541 338.79 154.491 338.74 154.465L337.894 154.096V154.027C337.894 153.763 337.906 153.506 337.95 153.255L337.962 153.186L338.853 152.936C338.909 152.917 338.953 152.879 338.972 152.823C339.091 152.465 339.254 152.127 339.468 151.826C339.499 151.776 339.511 151.719 339.486 151.663L339.148 150.804L339.198 150.754C339.286 150.66 339.38 150.572 339.474 150.49C339.58 150.403 339.681 150.321 339.781 150.252L339.837 150.208L340.64 150.666C340.69 150.697 340.753 150.697 340.809 150.666C341.141 150.497 341.499 150.378 341.869 150.309C341.925 150.296 341.975 150.258 342 150.208L342.37 149.362H342.439C342.696 149.356 342.96 149.374 343.211 149.412L343.279 149.424L343.53 150.315C343.549 150.371 343.587 150.415 343.643 150.434C344.001 150.547 344.333 150.716 344.64 150.929C344.69 150.961 344.753 150.973 344.803 150.948L345.662 150.609L345.712 150.66C345.813 150.754 345.9 150.848 345.976 150.942C346.057 151.036 346.139 151.136 346.214 151.243L346.258 151.299L345.8 152.102C345.769 152.152 345.769 152.215 345.8 152.271C345.969 152.61 346.095 152.961 346.158 153.331C346.17 153.387 346.207 153.437 346.258 153.462L347.104 153.832V153.901C347.104 154.165 347.085 154.422 347.048 154.666L347.06 154.654Z" fill="#F2F6F7"/>
<path d="M342.515 158.961C342.195 158.961 341.869 158.93 341.55 158.873C341.468 158.861 341.399 158.792 341.374 158.71L341.123 157.826L341.098 157.814C340.803 157.707 340.521 157.563 340.264 157.4L340.239 157.381L339.386 157.714C339.305 157.745 339.217 157.726 339.155 157.67C338.998 157.532 338.853 157.388 338.728 157.237C338.609 157.099 338.49 156.942 338.358 156.754C338.308 156.685 338.308 156.591 338.346 156.516L338.797 155.72L338.784 155.695C338.659 155.419 338.559 155.124 338.49 154.811V154.779L337.643 154.416C337.562 154.378 337.512 154.303 337.505 154.221C337.487 153.807 337.518 153.394 337.593 153.005C337.612 152.923 337.669 152.854 337.756 152.829L338.64 152.578L338.653 152.553C338.759 152.259 338.904 151.977 339.067 151.719L339.085 151.694L338.753 150.842C338.722 150.76 338.741 150.672 338.797 150.61C338.935 150.459 339.079 150.315 339.236 150.177C339.399 150.039 339.562 149.914 339.725 149.807C339.8 149.757 339.888 149.757 339.963 149.801L340.759 150.252L340.785 150.24C341.067 150.108 341.368 150.008 341.675 149.945H341.706L342.07 149.105C342.108 149.023 342.183 148.973 342.264 148.967C342.685 148.948 343.092 148.973 343.487 149.055C343.568 149.074 343.638 149.136 343.663 149.218L343.907 150.095L343.932 150.108C344.227 150.215 344.509 150.353 344.766 150.522L344.791 150.541L345.644 150.208C345.725 150.177 345.813 150.196 345.876 150.252C346.045 150.403 346.183 150.547 346.302 150.685C346.428 150.829 346.553 150.986 346.672 151.168C346.722 151.237 346.722 151.331 346.685 151.406L346.233 152.202L346.246 152.227C346.377 152.51 346.478 152.81 346.54 153.111V153.143L347.387 153.513C347.468 153.544 347.518 153.625 347.525 153.713C347.544 154.133 347.512 154.541 347.437 154.93C347.418 155.011 347.362 155.08 347.274 155.105L346.396 155.35L346.384 155.381C346.277 155.676 346.139 155.958 345.964 156.221L345.945 156.246L346.283 157.093C346.315 157.174 346.296 157.268 346.24 157.331C346.089 157.494 345.945 157.638 345.807 157.757C345.656 157.883 345.493 158.008 345.318 158.127C345.249 158.178 345.155 158.178 345.08 158.14L344.283 157.695L344.258 157.707C343.976 157.839 343.681 157.939 343.374 158.002H343.343L342.973 158.848C342.935 158.93 342.86 158.98 342.778 158.98C342.697 158.98 342.616 158.98 342.528 158.98L342.515 158.961ZM340.252 157.268L340.321 157.312C340.571 157.475 340.847 157.613 341.136 157.72L341.211 157.745L341.474 158.679C341.487 158.723 341.525 158.761 341.575 158.767C341.976 158.842 342.377 158.867 342.766 158.848C342.816 158.848 342.854 158.817 342.872 158.773L343.267 157.889L343.349 157.87C343.65 157.808 343.938 157.707 344.214 157.582L344.29 157.551L345.13 158.021C345.174 158.046 345.224 158.04 345.261 158.021C345.431 157.908 345.594 157.782 345.738 157.657C345.876 157.538 346.014 157.4 346.164 157.237C346.196 157.199 346.208 157.149 346.189 157.105L345.832 156.209L345.876 156.14C346.045 155.883 346.177 155.607 346.283 155.325L346.308 155.249L347.236 154.986C347.28 154.974 347.318 154.936 347.324 154.892C347.399 154.51 347.431 154.108 347.412 153.701C347.412 153.651 347.381 153.613 347.337 153.594L346.446 153.205L346.427 153.124C346.365 152.829 346.264 152.541 346.139 152.259L346.101 152.183L346.578 151.343C346.603 151.299 346.597 151.249 346.578 151.212C346.459 151.036 346.34 150.879 346.214 150.735C346.095 150.597 345.957 150.459 345.794 150.309C345.757 150.277 345.713 150.265 345.663 150.284L344.766 150.635L344.697 150.591C344.44 150.428 344.17 150.29 343.882 150.183L343.807 150.158L343.55 149.23C343.537 149.186 343.5 149.149 343.456 149.142C343.073 149.067 342.672 149.036 342.258 149.061C342.208 149.061 342.17 149.092 342.151 149.136L341.763 150.02L341.681 150.039C341.38 150.102 341.092 150.202 340.816 150.328L340.741 150.365L339.901 149.889C339.857 149.863 339.807 149.87 339.769 149.889C339.606 149.995 339.455 150.114 339.292 150.252C339.142 150.384 338.998 150.528 338.866 150.679C338.835 150.716 338.822 150.766 338.841 150.81L339.192 151.713L339.148 151.782C338.985 152.039 338.847 152.309 338.741 152.597L338.716 152.673L337.781 152.936C337.737 152.948 337.7 152.986 337.694 153.03C337.618 153.412 337.593 153.814 337.612 154.221C337.612 154.271 337.643 154.309 337.687 154.328L338.577 154.717L338.596 154.798C338.665 155.099 338.759 155.394 338.885 155.657L338.916 155.732L338.44 156.572C338.415 156.616 338.421 156.666 338.44 156.704C338.571 156.892 338.684 157.043 338.803 157.181C338.929 157.325 339.073 157.469 339.223 157.607C339.261 157.638 339.311 157.651 339.355 157.632L340.252 157.281V157.268ZM342.521 158.61C342.283 158.61 342.039 158.591 341.794 158.554L341.694 158.541L341.437 157.619C341.424 157.582 341.393 157.544 341.355 157.532C340.992 157.413 340.653 157.243 340.346 157.024C340.308 156.999 340.264 156.992 340.227 157.011L339.336 157.362L339.261 157.293C339.167 157.206 339.079 157.112 338.991 157.011C338.91 156.917 338.835 156.817 338.747 156.704L338.684 156.623L339.155 155.789C339.173 155.751 339.173 155.707 339.155 155.67C338.985 155.344 338.866 154.98 338.797 154.597C338.791 154.553 338.759 154.522 338.722 154.503L337.844 154.121V154.02C337.844 153.757 337.857 153.494 337.901 153.243L337.913 153.143L338.835 152.879C338.872 152.867 338.904 152.835 338.922 152.798C339.042 152.434 339.211 152.096 339.43 151.782C339.455 151.751 339.462 151.707 339.443 151.663L339.098 150.773L339.167 150.697C339.255 150.603 339.355 150.516 339.449 150.428C339.556 150.34 339.656 150.259 339.756 150.183L339.838 150.121L340.672 150.591C340.709 150.61 340.753 150.616 340.791 150.591C341.13 150.415 341.487 150.296 341.863 150.233C341.907 150.227 341.938 150.196 341.957 150.158L342.339 149.28H342.44C342.691 149.274 342.954 149.293 343.217 149.331L343.318 149.349L343.575 150.271C343.587 150.309 343.619 150.346 343.656 150.359C344.02 150.478 344.358 150.647 344.666 150.86C344.703 150.885 344.747 150.892 344.785 150.873L345.675 150.522L345.751 150.591C345.851 150.691 345.938 150.779 346.02 150.873C346.102 150.967 346.183 151.067 346.265 151.174L346.327 151.255L345.857 152.089C345.838 152.127 345.838 152.171 345.857 152.209C346.033 152.547 346.152 152.911 346.214 153.281C346.221 153.325 346.252 153.356 346.29 153.375L347.167 153.757V153.857C347.167 154.121 347.149 154.384 347.111 154.635L347.092 154.735L346.171 154.992C346.133 155.005 346.095 155.036 346.083 155.074C345.964 155.437 345.794 155.776 345.575 156.09C345.55 156.127 345.544 156.171 345.562 156.209L345.913 157.099L345.845 157.174C345.744 157.275 345.65 157.362 345.562 157.444C345.462 157.525 345.362 157.607 345.255 157.688L345.173 157.751L344.34 157.281C344.302 157.262 344.258 157.262 344.22 157.281C343.882 157.456 343.525 157.576 343.148 157.638C343.104 157.645 343.073 157.676 343.054 157.714L342.666 158.591H342.515L342.521 158.61ZM341.769 158.453H341.807C342.045 158.497 342.283 158.51 342.521 158.51H342.603L342.966 157.688C342.998 157.62 343.061 157.569 343.136 157.557C343.499 157.494 343.851 157.375 344.177 157.206C344.246 157.168 344.327 157.174 344.39 157.206L345.167 157.645L345.199 157.619C345.305 157.544 345.405 157.463 345.5 157.381C345.587 157.306 345.675 157.218 345.775 157.118L345.8 157.093L345.474 156.265C345.443 156.196 345.456 156.115 345.5 156.052C345.713 155.751 345.882 155.419 345.995 155.068C346.02 154.992 346.076 154.942 346.152 154.917L347.011 154.673V154.635C347.055 154.39 347.073 154.14 347.073 153.876V153.839L346.252 153.481C346.183 153.45 346.133 153.387 346.12 153.312C346.058 152.955 345.939 152.603 345.769 152.271C345.732 152.202 345.738 152.121 345.769 152.058L346.208 151.281L346.183 151.249C346.102 151.143 346.026 151.042 345.945 150.955C345.869 150.867 345.782 150.773 345.681 150.679L345.656 150.654L344.829 150.98C344.76 151.005 344.678 150.998 344.616 150.955C344.315 150.741 343.982 150.578 343.631 150.465C343.556 150.44 343.506 150.384 343.481 150.309L343.243 149.45H343.205C342.948 149.406 342.691 149.387 342.446 149.393H342.409L342.051 150.208C342.02 150.277 341.957 150.328 341.882 150.34C341.518 150.403 341.167 150.522 340.835 150.691C340.766 150.729 340.684 150.722 340.622 150.691L339.844 150.252L339.813 150.277C339.712 150.346 339.618 150.428 339.512 150.516C339.418 150.597 339.324 150.685 339.236 150.779L339.211 150.804L339.537 151.638C339.562 151.707 339.556 151.788 339.512 151.851C339.299 152.152 339.135 152.484 339.023 152.836C338.998 152.904 338.941 152.961 338.866 152.986L338.007 153.23V153.268C337.963 153.513 337.944 153.77 337.95 154.027V154.064L338.772 154.422C338.841 154.453 338.891 154.516 338.904 154.585C338.972 154.961 339.092 155.312 339.255 155.632C339.286 155.701 339.286 155.776 339.255 155.845L338.816 156.623L338.835 156.654C338.916 156.767 338.991 156.861 339.073 156.955C339.154 157.049 339.242 157.143 339.336 157.231L339.361 157.256L340.189 156.93C340.258 156.905 340.339 156.911 340.402 156.955C340.697 157.162 341.029 157.331 341.386 157.444C341.455 157.469 341.512 157.525 341.531 157.601L341.769 158.46V158.453Z" fill="#F2F6F7"/>
<path d="M342.51 155.538C341.638 155.538 340.924 154.829 340.924 153.952C340.924 153.074 341.632 152.365 342.51 152.365C343.388 152.365 344.096 153.074 344.096 153.952C344.096 154.829 343.388 155.538 342.51 155.538ZM342.51 152.616C341.77 152.616 341.175 153.218 341.175 153.952C341.175 154.685 341.776 155.287 342.51 155.287C343.244 155.287 343.846 154.685 343.846 153.952C343.846 153.218 343.244 152.616 342.51 152.616Z" fill="#F2F6F7"/>
<path d="M342.509 155.639C341.581 155.639 340.822 154.88 340.822 153.952C340.822 153.024 341.581 152.266 342.509 152.266C343.437 152.266 344.195 153.024 344.195 153.952C344.195 154.88 343.437 155.639 342.509 155.639ZM342.509 152.473C341.694 152.473 341.023 153.137 341.023 153.959C341.023 154.78 341.687 155.445 342.509 155.445C343.33 155.445 343.995 154.78 343.995 153.959C343.995 153.137 343.33 152.473 342.509 152.473ZM342.509 155.388C341.719 155.388 341.073 154.742 341.073 153.952C341.073 153.162 341.719 152.517 342.509 152.517C343.299 152.517 343.945 153.162 343.945 153.952C343.945 154.742 343.299 155.388 342.509 155.388ZM342.509 152.717C341.825 152.717 341.274 153.269 341.274 153.952C341.274 154.636 341.825 155.188 342.509 155.188C343.192 155.188 343.744 154.636 343.744 153.952C343.744 153.269 343.192 152.717 342.509 152.717Z" fill="#F2F6F7"/>
<path d="M311.421 219.454L310.543 215.811C310.957 215.768 311.364 215.699 311.766 215.598C312.412 215.435 313.032 215.203 313.64 214.902L314.524 218.545C313.923 218.84 313.296 219.072 312.65 219.229C312.249 219.329 311.841 219.398 311.427 219.448L311.421 219.454Z" fill="#6EB4C7"/>
<path d="M280.676 175.188L281.114 173.445C282.017 173.734 282.933 173.991 283.867 174.217C284.45 174.354 285.033 174.48 285.616 174.593L285.177 176.33C284.594 176.217 284.011 176.091 283.428 175.953C282.5 175.728 281.579 175.471 280.676 175.188Z" fill="#B4D6DF"/>
<path opacity="0.6" d="M297.082 236.533C322.17 236.533 342.508 234.865 342.508 232.808C342.508 230.751 322.17 229.084 297.082 229.084C271.994 229.084 251.656 230.751 251.656 232.808C251.656 234.865 271.994 236.533 297.082 236.533Z" fill="#81AEBB"/>
<path d="M297.084 109.34C297.084 109.34 300.282 105.277 299.347 100.613C298.852 98.1484 292.714 96.3301 290.613 96.3301C288.513 96.3301 288.782 99.1829 288.782 99.1829C288.782 99.1829 284.895 104.205 284.588 105.083L286.563 106.462C286.563 106.462 284.249 110.663 285.535 111.297C286.293 111.673 289.986 111.98 289.986 111.98L290.513 118.194L296.883 116.212L297.09 109.334L297.084 109.34Z" fill="#E0BEAB"/>
<path d="M293.576 99.2276C293.707 97.7542 290.541 98.7699 288.986 98.3059C288.002 98.0112 288.955 96.3309 290.19 95.7728C292.491 94.732 295.808 97.0017 295.808 97.0017C295.808 97.0017 299.194 98.6068 299.727 100.839C300.259 103.071 298.391 109.002 298.391 109.002C298.391 109.002 299.651 108.382 297.369 107.824C295.087 107.266 296.159 104.701 294.936 104.576C293.714 104.451 291.814 106.689 291.814 106.689L290.366 106.344C290.366 106.344 293.444 100.707 293.576 99.2402V99.2276Z" fill="#204A59"/>
<path d="M295.377 107.674L292.7 112.314L290.248 112.821L289.979 111.987L292.549 111.718L295.088 107.674H295.377Z" fill="#CDAF97"/>
<path d="M285.616 104.193L287.955 100.268L284.588 105.083L284.901 105.409L285.616 104.193Z" fill="#CDAF97"/>
<path d="M279.627 226.414L287.289 228.64L289.433 203.974L288.574 195.886L292.017 170.248L298.901 194.337L311.284 228.653H318.858L313.077 206.758L307.93 190.813L305.779 161.457L289.521 160.404L280.141 159.395L279.627 226.414Z" fill="url(#paint0_linear_248_64319)"/>
<path d="M255.883 125.7L268.93 130.465C268.93 130.465 269.476 131.844 270.51 130.358C271.163 129.424 276.203 123.906 279.834 119.969L283.119 116.038L283.496 116.013C283.558 115.944 283.59 115.906 283.59 115.906L283.577 116.006L288.066 115.68L290.298 134.898L299.246 114.508L309.83 122.101L312.676 127.098L313.366 137.939L305.704 131.851L304.669 144.591L306.13 162.417L278.599 160.611L281.696 132.064L279.439 133.518L269.827 141.205C269.827 141.205 268.109 141.205 267.544 140.459C266.98 139.713 253.738 132.609 253.738 132.609L255.889 125.712L255.883 125.7Z" fill="#729EDB"/>
<path opacity="0.6" d="M287.884 194.512L288.605 203.54L287.031 227.862L289.47 203.108L288.674 194.593L292.016 170.247L291.069 166.893L287.884 194.512Z" fill="#0D0E20"/>
<path d="M303.274 195.998L303.082 196.178L305.663 198.932L305.856 198.751L303.274 195.998Z" fill="#3A2E65"/>
<path d="M267.584 232.607H282.381L283.497 231.573L284.444 232.607H287.033V227.861L279.673 226.883L276.017 230.156L267.584 231.993V232.607Z" fill="#18142D"/>
<path d="M311.631 233.211L319.005 232.847L319.205 230.884L318.171 228.652L311.631 228.909V233.211Z" fill="#18142D"/>
<path d="M290.299 134.885L298.983 114.758L297.886 114.602L292.017 117.768L289.522 115.153L288.061 115.674L290.299 134.885Z" fill="white"/>
<path d="M291.495 120.351L289.477 127.762L290.298 134.884L293.395 127.824L292.273 120.52L293.395 119.316L292.104 117.68L290.724 119.228L291.495 120.351Z" fill="#ED971B"/>
<path d="M301.309 118.457L290.299 134.884L299.24 114.494L301.052 116.908L299.365 116.99L301.309 118.457Z" fill="#729EDB"/>
<path d="M285.309 116.99L290.299 134.885L288.061 115.674L285.309 116.99Z" fill="#729EDB"/>
<path d="M305.867 162.66L292.707 162.146L280.398 160.598L306.036 161.714L305.867 162.66Z" fill="#39667C"/>
<path d="M289.634 160.41L289.415 160.404L290.186 134.904L285.201 117.279L285.408 117.223L290.412 134.873L290.405 134.891L289.634 160.41Z" fill="#729EDB"/>
<path d="M306.356 126.371L305.838 131.877L306.1 131.902L306.619 126.396L306.356 126.371Z" fill="#352D62"/>
<path d="M281.801 123.866L281.172 131.898L281.434 131.919L282.064 123.887L281.801 123.866Z" fill="#325869"/>
<path d="M250.772 122.389L249.8 123.329L251.135 125.373L248.145 124.872L246.264 126.289L246.339 127.48L248.916 129.047L251.687 129.957L254.158 130.245L255.65 127.398L250.772 122.389Z" fill="#E0BEAB"/>
<path d="M304.378 195.437L304.189 195.621L308.222 199.745L308.411 199.561L304.378 195.437Z" fill="#3A2E65"/>
<path d="M281.325 194.607L281.133 194.787L283.714 197.541L283.906 197.361L281.325 194.607Z" fill="#3A2E65"/>
<path d="M281.948 130.584L281.867 131.819L269.822 141.193L281.948 130.584Z" fill="#729EDB"/>
<path opacity="0.6" d="M311.46 136.407L305.779 132.049L306.036 130.846L312.231 136.376L311.46 136.407Z" fill="#18142D"/>
<path d="M312.166 142.09L304.861 134.559L306.285 119.486L310.266 122.339L319.703 139.883L318.053 161.74L312.191 160.555L312.166 142.09Z" fill="#729EDB"/>
<path d="M310.463 166.542L311.598 167.144L313.122 165.47L313.466 168.185L311.435 172.449L312.751 172.492L315.284 169.458L317.115 166.454L317.21 163.821L316.802 161.608L313.767 161.037L310.463 166.542Z" fill="#E0BEAB"/>
<path opacity="0.6" d="M217.573 244.733C235.808 244.733 250.59 243.529 250.59 242.043C250.59 240.558 235.808 239.354 217.573 239.354C199.337 239.354 184.555 240.558 184.555 242.043C184.555 243.529 199.337 244.733 217.573 244.733Z" fill="#81AEBB"/>
<path d="M213.981 123.46C213.981 123.46 210.784 119.378 211.718 114.688C212.213 112.211 218.351 110.387 220.452 110.387C222.552 110.387 223.505 113.252 223.505 113.252L225.731 119.867C225.731 119.867 226.822 124.789 225.537 125.429C224.778 125.805 221.085 126.118 221.085 126.118L220.558 132.363L214.188 130.865L213.981 123.466V123.46Z" fill="#E0BEAB"/>
<path d="M215.68 121.779L218.363 126.444L220.815 126.952L221.078 126.112L218.507 125.842L215.974 121.779H215.68Z" fill="#CDAF97"/>
<path d="M205.228 240.283C203.146 240.665 199.967 241.142 199.967 241.142L199.785 239.305L200.099 237.21L207.341 237.01L210.921 237.605L211.736 238.301C211.736 238.301 206.839 239.988 205.228 240.289V240.283Z" fill="#18142D"/>
<path d="M230.287 236.245L223.121 238.326L221.114 211.296L221.917 203.728L218.694 179.746L212.261 202.28L207.026 238.326H200.016L201.909 214.068L203.809 198.982L205.821 172.078L221.026 171.093L229.804 170.146L230.287 236.245Z" fill="url(#paint1_linear_248_64319)"/>
<path d="M243.185 168.314C243.185 168.314 238.595 147.993 237.63 146.608C237.021 145.73 233.491 138.344 230.093 134.664L227.842 131.968L226.839 130.958C226.782 130.895 226.582 130.858 226.582 130.858L226.595 130.952L222.394 130.644H218.694L211.935 130.525L204.154 133.642L196.298 153.555L194.461 172.496L200.16 172.039L200.01 154.207L206.135 147.222L206.863 155.724L205.496 172.96L231.253 171.268L228.356 144L228.294 145.36L233.786 153.712L237.147 168.898L243.185 168.302V168.314Z" fill="#ED971B"/>
<path opacity="0.6" d="M222.564 202.442L221.887 210.894L223.36 237.604L221.078 210.486L221.824 202.524L218.695 179.745L219.586 176.604L222.564 202.442Z" fill="#18142D"/>
<path d="M237.015 242.044H226.877L226.112 241.078L225.46 242.044H223.686V237.605L228.727 236.689L231.235 239.749L237.015 241.467V242.044Z" fill="#18142D"/>
<path d="M201.912 177.656L200.808 178.246L199.328 176.616L198.99 179.262L200.965 183.394L199.686 183.444L197.222 180.491L195.441 177.575L195.359 175.017L195.748 172.866L198.701 172.314L201.912 177.656Z" fill="#E0BEAB"/>
<path opacity="0.6" d="M205.741 173.207L218.055 172.724L229.567 171.275L205.578 172.322L205.741 173.207Z" fill="#18142D"/>
<path d="M236.688 174.661L237.879 175.05L239.014 173.188L239.867 175.727L238.744 180.135L240.004 179.96L241.842 176.63L243.014 173.458L242.594 170.931L241.785 168.887L238.788 168.855L236.688 174.661Z" fill="#E0BEAB"/>
<path d="M224.531 110.456C224.092 109.672 222.311 109.133 221.114 108.995C221.114 108.995 220.33 104.957 217.276 106.8C214.223 108.644 211.546 110.036 210.699 113.265C210.267 114.914 210.511 120.318 211.502 124.08C212.492 127.842 218.994 126.438 219.966 125.284C220.349 124.827 220.556 123.454 220.794 121.779C220.43 121.447 220.054 121.014 219.703 120.494C218.712 119.039 218.969 118.325 219.452 117.898C219.904 117.497 220.399 117.497 221.277 118.701C221.39 118.111 221.515 117.528 221.665 116.977C221.966 115.879 221.998 114.481 222.65 113.867C224.036 112.556 225.026 111.352 224.524 110.462L224.531 110.456Z" fill="#204A59"/>
<path d="M204.161 133.643L202.041 134.69C202.041 134.69 196.398 146.91 195.37 153.343C194.348 159.776 194.474 172.498 194.474 172.498L200.173 172.04C200.173 172.04 200.593 160.904 202.041 155.487C203.49 150.07 206.148 147.223 206.148 147.223L206.587 152.371C206.587 152.026 206.6 151.681 206.6 151.33C206.6 144.665 206.111 138.527 204.167 133.643H204.161Z" fill="url(#paint2_linear_248_64319)"/>
<path opacity="0.6" d="M95.3205 239.247C113.556 239.247 128.338 238.043 128.338 236.557C128.338 235.071 113.556 233.867 95.3205 233.867C77.0854 233.867 62.3027 235.071 62.3027 236.557C62.3027 238.043 77.0854 239.247 95.3205 239.247Z" fill="#81AEBB"/>
<path d="M91.4068 170.51C91.5134 170.51 91.6138 170.441 91.6389 170.334L93.2753 164.353C93.3066 164.227 93.2314 164.095 93.106 164.064C92.9743 164.033 92.8428 164.102 92.8115 164.233L91.1751 170.215C91.1437 170.34 91.219 170.472 91.3444 170.503C91.3632 170.503 91.388 170.51 91.4068 170.51Z" fill="#474985"/>
<path d="M77.3481 162.209L103.168 161.469C103.438 166.228 104.064 179.357 104.547 186.643C105.594 207.014 107.563 232.934 107.563 232.934L110.498 235.975H103.237L94.277 186.636L91.4369 172.209L89.6373 172.247L88.4271 186.636L83.5679 235.975H77.4485L78.9658 233.197C78.9658 233.197 77.8435 210.236 77.3294 186.636C77.1601 180.247 77.1349 168.152 77.3481 162.202V162.209Z" fill="url(#paint3_linear_248_64319)"/>
<path d="M68.9495 145.191C68.9746 144.752 69.0435 144.238 69.2128 143.749C69.451 142.075 70.1469 140.445 70.8366 138.846C72.379 135.266 73.9215 131.692 75.4576 128.112C76.0407 126.751 77.1819 125.014 78.0973 123.779C80.0347 121.171 82.9127 120.312 86.5305 120.324C88.2171 120.324 83.7152 127.127 82.643 128.789C81.0567 131.247 80.5363 134.225 78.0596 138.865C77.232 140.413 76.5738 142.827 75.6083 144.652C75.6271 144.99 75.6332 145.329 75.6269 145.661C75.6019 148.056 75.5767 150.458 75.5516 152.853C75.5265 155.022 75.4576 157.047 75.9968 159.154C76.2162 160.007 75.8965 160.897 75.0939 161.518C73.8964 162.44 72.9184 162.364 72.9184 162.364C71.4074 159.123 70.122 155.787 69.4448 152.351C69.3006 151.618 69.1814 150.878 69.0937 150.132C68.9056 148.489 68.8491 146.834 68.9369 145.185L68.9495 145.191Z" fill="#4374AF"/>
<path d="M76.707 164.484L103.58 165.594C103.505 160.873 103.185 154.308 102.947 150.672C102.928 150.44 102.916 150.214 102.909 150.001C102.746 147.662 102.652 145.367 102.683 142.916C102.683 142.671 102.683 142.433 102.696 142.189C102.715 141.229 102.765 140.239 102.847 139.21C102.966 137.542 103.154 135.781 103.436 133.856C103.825 131.178 105.492 127.404 105.06 125.335C104.52 122.833 102.289 120.896 99.5674 120.093C98.5704 119.792 97.5108 119.648 96.4324 119.686L85.2655 120.056C77.566 120.313 76.7444 127.717 76.9388 132.809C77.0955 136.846 77.3592 140.884 77.541 144.928C77.773 150.433 77.7479 153.198 77.2024 158.666C77.0456 160.258 76.7447 162.861 76.707 164.484Z" fill="#729EDB"/>
<path d="M86.8105 143.881C90.1963 145.392 98.3535 148.339 100.015 149.261C100.931 149.769 101.928 150.245 102.95 150.672C102.931 150.44 102.918 150.214 102.912 150.001C102.749 147.662 102.655 145.367 102.686 142.916C99.382 142.182 95.9146 141.198 93.6386 140.251C92.7294 139.875 89.4691 138.088 88.8421 139.091C88.3781 139.85 87.3874 140.721 86.4657 141.43C85.5754 142.113 85.7573 143.411 86.8169 143.875L86.8105 143.881Z" fill="#4374AF"/>
<path d="M82.6992 130.451C82.6992 130.526 82.6992 130.595 82.7118 130.671L84.8812 138.884C84.9877 139.267 85.4077 139.568 85.8278 139.555L90.5116 139.449C90.6683 139.436 90.8061 139.398 90.9126 139.323C91.0819 139.185 91.1511 138.978 91.0884 138.74L88.9251 130.52C88.8311 130.15 88.4047 129.849 87.9846 129.862L83.3011 129.968C82.9625 129.975 82.7306 130.175 82.6992 130.451Z" fill="#686868"/>
<path d="M82.6992 130.451C82.6992 130.527 82.6992 130.596 82.7118 130.671L84.8812 138.885C84.9877 139.267 85.4077 139.568 85.8278 139.555L90.5116 139.449C90.6683 139.436 90.8061 139.399 90.9126 139.324C90.9252 139.242 90.9189 139.173 90.9001 139.091L88.7371 130.872C88.6431 130.502 88.2166 130.201 87.7902 130.213L83.1067 130.32C82.9437 130.326 82.8119 130.37 82.7053 130.451H82.6992Z" fill="#3E403F"/>
<path d="M89.8891 137.868C91.4879 138.564 91.7389 140.828 92.3659 141.63C93.1245 142.608 91.5757 142.922 89.8891 142.715C88.3843 142.527 86.5348 141.894 85.9391 141.185C85.4313 140.583 84.779 139.862 84.8355 138.038C84.8856 136.545 87.7951 136.959 89.883 137.875L89.8891 137.868Z" fill="#ECC7A4"/>
<path d="M90.9762 139.16C91.5907 138.464 92.2365 138.971 93.1456 139.247C96.3997 140.219 102.049 139.981 106.256 140.482C105.974 139.811 105.705 139.166 105.454 138.595C102.965 132.946 101.497 130.557 100.544 128.532C99.654 126.638 95.5848 119.766 97.2526 119.71C101.497 119.572 104.005 120.531 105.73 123.453C109.354 129.585 111.153 134.827 112.344 138.05C113.116 140.138 114.113 141.473 114.263 143.492C114.269 143.548 114.269 144.859 114.276 144.922C114.319 145.887 114.156 145.455 113.661 146.006C113.611 146.107 113.567 146.201 113.51 146.301C112.407 148.257 105.027 147.881 100.08 145.912C97.7353 144.978 90.5687 141.705 90.5687 141.705C90.5687 141.705 89.9668 140.307 90.9762 139.16Z" fill="#729EDB"/>
<path d="M87.1016 119.993C87.1643 120.231 87.252 120.457 87.3649 120.664C87.948 121.773 89.2331 122.463 90.9135 122.407C92.8509 122.344 94.8197 121.309 96.1364 119.836C96.1866 119.792 96.2304 119.736 96.268 119.686L87.1016 119.986V119.993Z" fill="#B17B45"/>
<path d="M95.32 114.324V119.986C95.32 119.986 91.0313 124.833 87.0938 120.099L87.4385 114.324H95.32Z" fill="#E0BEAB"/>
<path d="M91.1254 118.193C91.232 118.206 91.3384 118.218 91.445 118.231C92.7617 118.331 93.9843 117.949 94.975 117.121C95.0627 117.046 95.069 116.914 94.975 116.832C94.8872 116.751 94.7431 116.738 94.6553 116.814C93.7587 117.566 92.6553 117.917 91.464 117.823C90.2226 117.729 89.1566 117.127 88.3039 116.036C88.2287 115.942 88.0907 115.917 87.9904 115.98C87.8901 116.043 87.865 116.168 87.9402 116.262C88.7929 117.353 89.8901 118.018 91.1315 118.199L91.1254 118.193Z" fill="#B07762"/>
<path d="M96.9243 107.886C97.4385 112.507 96.8552 117.497 93.3378 117.824C89.6824 118.162 85.8139 116.011 85.2998 111.391C84.7856 106.77 87.1869 102.412 90.673 101.647C94.1529 100.882 96.4102 103.265 96.9243 107.879V107.886Z" fill="#ECC7A4"/>
<path d="M96.6173 103.666C96.7866 103.233 96.7301 102.719 96.3727 102.148C96.3037 102.036 96.216 101.916 96.122 101.797C95.7144 101.264 95.1252 100.769 94.586 100.343C94.5672 100.343 94.5482 100.343 94.5294 100.349C91.8646 99.5089 88.7861 99.3082 86.3784 100.5C85.1996 101.064 84.5415 101.916 84.2406 102.901C83.6136 104.224 83.8014 106.356 84.1463 107.961C84.2403 108.4 84.3408 108.795 84.4411 109.127C84.9113 110.669 85.5071 112.751 86.7485 113.917C87.0056 114.124 87.4255 114.344 87.8017 114.3C87.8205 114.3 87.8395 114.293 87.8583 114.287C87.8145 114.218 87.7706 114.143 87.7267 114.068C87.6013 113.604 87.6324 113.077 87.6324 112.613C87.4443 112.789 87.2939 112.876 87.1184 112.889C86.9491 112.902 86.7608 112.832 86.5101 112.682C85.8517 112.318 85.6197 111.622 85.5947 110.901C85.5947 110.713 85.6261 110.387 85.7076 110.08C85.7076 110.08 85.7075 110.067 85.7138 110.067C85.7702 109.848 85.8582 109.641 85.9773 109.503C86.0777 109.39 86.1903 109.321 86.3407 109.321C86.5477 109.321 86.8926 109.585 87.0682 109.804C87.0807 109.823 87.0933 109.842 87.1058 109.861C87.1434 110.08 87.1936 110.299 87.25 110.513C87.3064 110.757 87.3817 111.008 87.457 111.246C87.7517 111.39 88.0463 111.591 88.3724 111.622L88.3849 111.466C87.9209 110.136 87.9271 108.732 87.9836 107.321C87.9961 106.976 88.0149 106.638 88.0212 106.293C88.0338 105.973 88.0463 105.66 88.0463 105.34V105.29C89.4947 105.196 90.9682 105.102 92.2097 104.569C91.7269 104.782 91.3193 105.083 90.9431 105.409C90.8177 105.522 90.6921 105.635 90.573 105.747C90.2846 106.023 90.0088 106.299 89.7204 106.563C91.3694 106.682 93.8334 105.754 95.5075 104.732C95.7458 104.581 95.9717 104.431 96.1786 104.28L96.1847 104.299C96.2161 104.663 96.2411 105.026 96.2536 105.403C96.3226 106.725 96.3291 108.099 96.2037 109.434C96.2288 109.434 96.2536 109.434 96.2787 109.44C96.3477 109.089 96.448 108.744 96.542 108.4C96.6674 107.936 96.7867 107.465 96.8243 106.97C96.8995 106.004 97.1315 104.569 96.6173 103.672V103.666Z" fill="#204A59"/>
<path d="M77.3816 160.774C76.9741 160.404 76.5413 159.984 76.1087 159.607C76.0522 159.676 75.9771 159.739 75.9332 159.827C75.4003 160.899 74.8924 161.808 72.748 162.166C73.1117 162.724 73.4503 163.169 75.4253 164.605C76.8737 165.432 78.0022 165.558 78.9051 165.457C79.6324 165.376 80.1904 164.755 80.1842 164.366C79.1684 162.993 78.1025 161.451 77.3878 160.774H77.3816Z" fill="#ECC7A4"/>
<path d="M80.1602 233.027L83.8282 233.241L83.5147 235.98H75.7461L80.1602 233.027Z" fill="#18142D"/>
<path d="M116.389 236.075H106.25L105.485 235.11L104.833 236.075H103.059V231.636L108.1 230.721L110.608 233.78L116.389 235.498V236.075Z" fill="#18142D"/>
<path opacity="0.6" d="M146.886 245.135C160.751 245.135 171.991 243.572 171.991 241.643C171.991 239.714 160.751 238.151 146.886 238.151C133.021 238.151 121.781 239.714 121.781 241.643C121.781 243.572 133.021 245.135 146.886 245.135Z" fill="#81AEBB"/>
<path d="M150.384 116.105C150.384 116.105 150.961 106.004 148.209 104.957C145.462 103.91 143.481 108.807 143.481 108.807C143.481 108.807 142.121 111.146 141.82 113.284C141.525 115.422 142.415 116.488 142.415 116.488C142.415 116.488 146.033 116.795 147.099 119.811C148.165 122.833 146.836 131.241 146.836 131.241C146.836 131.241 154.874 128.733 152.378 124.902C150.215 121.592 150.384 116.105 150.384 116.105Z" fill="#204A59"/>
<path d="M161.847 136.716C164.66 135.483 163.852 127.439 160.043 118.749C156.234 110.06 150.866 104.015 148.053 105.248C145.24 106.481 146.047 114.525 149.856 123.215C153.665 131.905 159.034 137.95 161.847 136.716Z" fill="#204A59"/>
<path d="M138.318 227.377L144.137 227.722L145.968 205.971L147.61 198.259L148.425 190.597L150.927 198.334L156.896 227.728H161.806L160.558 208.04L158.84 193.688L157.442 167.286L146.908 166.339L140.826 165.43L138.318 227.377Z" fill="url(#paint4_linear_248_64319)"/>
<path d="M161.895 239.359L152.635 240.387L158.66 235.534V228.029H161.162L161.306 234.212L161.895 239.359Z" fill="#CDAF97"/>
<path d="M159.399 239.064C159.399 239.064 155.631 239.408 154.107 239.615C151.091 240.023 149.186 241.64 149.186 241.64H154.258L159.399 240.004V241.202H161.826V238.035L159.399 239.064Z" fill="url(#paint5_linear_248_64319)"/>
<path d="M143.647 239.045L134.387 240.073L140.412 235.214V227.709H142.908L143.058 233.891L143.647 239.045Z" fill="#CDAF97"/>
<path d="M141.149 238.751C141.149 238.751 137.381 239.096 135.858 239.303C132.842 239.71 130.936 241.328 130.936 241.328H136.008L141.149 239.692V240.889H143.576V237.723L141.149 238.751Z" fill="url(#paint6_linear_248_64319)"/>
<path d="M158.704 138.476L154.008 124.074L147.248 127.228C147.248 127.228 144.383 132.175 143.085 137.548C142.063 141.756 142.515 146.057 142.646 149.593C142.941 157.637 139.875 166.66 139.875 166.66C139.875 166.66 144.509 166.371 148.822 166.566C153.136 166.76 157.682 167.839 157.682 167.839C157.682 167.839 153.951 159.067 153.932 153.154C153.913 147.236 158.71 138.47 158.71 138.47L158.704 138.476Z" fill="#729EDB"/>
<path d="M174.943 145.58L154.447 124.727C154.447 124.727 152.246 126.946 152.735 131.066C153.224 135.185 158.704 138.483 158.704 138.483L167.237 148.314L162.924 152.452L165.469 158.139C165.469 158.139 172.906 152.214 174.53 150.81C176.154 149.405 174.943 145.58 174.943 145.58Z" fill="#729EDB"/>
<path d="M151.166 116.344L145.805 105.836L144.294 108.413C144.294 108.413 143.661 109.328 143.429 110.087C143.253 110.664 141.253 112.457 141.93 112.664C141.93 112.664 142.326 112.764 142.42 113.222C142.514 113.68 142.294 114.507 142.294 114.727C142.294 116.884 143.323 117.818 143.323 117.818C143.323 117.818 146.946 117.623 148.42 120.464C149.887 123.31 148.42 126.552 148.42 126.552C148.42 126.552 157.349 128.232 154.345 124.784C151.749 121.799 151.16 116.344 151.16 116.344H151.166Z" fill="#ECC7A4"/>
<path d="M152.15 115.495C154.025 114.674 154.478 111.573 153.163 108.569C151.847 105.566 149.261 103.796 147.387 104.617C145.512 105.438 145.059 108.539 146.374 111.542C147.69 114.546 150.276 116.316 152.15 115.495Z" fill="#204A59"/>
<path d="M157.719 159.224L164.597 156.735L163.569 153.951L156.941 156.603L157.719 159.224Z" fill="#ECC7A4"/>
<path d="M153.996 160.046C156.597 160.046 158.705 159.173 158.705 158.096C158.705 157.019 156.597 156.146 153.996 156.146C151.395 156.146 149.287 157.019 149.287 158.096C149.287 159.173 151.395 160.046 153.996 160.046Z" fill="#ECC7A4"/>
<path d="M147.982 104.788C147.606 104.9 147.236 105.026 146.885 105.176C149.901 107.289 152.359 110.656 153.569 114.807C153.732 115.371 153.87 115.929 153.976 116.494C157.042 114.732 158.735 111.628 157.901 108.775C156.879 105.277 152.44 103.49 147.976 104.794L147.982 104.788Z" fill="#204A59"/>
<path d="M118.908 27.2782C112.243 25.3095 97.5277 28.9461 86.1539 32.3507C74.7802 35.7553 64.6982 41.0596 60.5474 45.9377C58.679 48.1384 58.6224 51.2735 59.3247 53.7501C61.5819 61.7318 65.0053 73.8265 65.0053 73.8265C65.0053 73.8265 66.2342 77.8957 74.8052 76.1338C75.1501 76.0649 75.5076 75.9896 75.8712 75.9143C76.1095 82.5229 82.3354 87.8461 90.129 88.1784C87.3639 85.4134 85.646 81.5761 85.646 77.3251C85.646 76.1212 85.7841 74.9488 86.0474 73.8265C93.2516 72.3782 101.114 70.9235 106.632 70.4093C115.341 69.6005 116.507 62.7349 116.507 62.7349C116.507 62.7349 119.83 48.3579 122.018 35.5735C122.764 31.2096 121.905 28.1623 118.902 27.2782H118.908Z" fill="#153F5E"/>
<path d="M251.105 44.4272C250.397 41.4803 247.494 38.2826 244.503 37.6682C242.992 37.3609 241.462 37.248 240.177 37.248C227.298 37.248 199.096 38.1196 185.521 37.5302C178.994 37.2481 176.511 40.3328 176.399 44.7469C176.073 57.9828 183.835 84.6428 194.694 84.6428C219.994 84.6428 236.503 83.5079 236.503 83.5079C236.503 83.5079 243.888 92.7999 244.854 93.615C245.82 94.4238 246.829 95.1825 247.03 93.9599C248.353 85.765 253.312 53.55 251.105 44.4209V44.4272Z" fill="#ED971B"/>
<path d="M337.267 45.4298C334.747 31.7989 312.144 24.6198 295.936 27.2595C279.728 29.8928 266.818 41.8496 270.222 56.7095C274.11 73.6885 288.851 79.2563 305.059 76.6229C310.375 75.7576 315.943 73.5631 320.934 70.5347C321.674 72.5787 322.088 74.8547 322.088 77.2499C322.088 79.3127 321.774 81.2752 321.216 83.0872C325.912 80.6796 329.229 74.8673 329.229 68.0706C329.229 66.8354 329.116 65.6316 328.91 64.478C334.828 58.835 338.484 51.9882 337.274 45.4361L337.267 45.4298Z" fill="#729EDB"/>
<path d="M147.061 72.9114L142.628 72.3596C138.195 71.8078 135.054 67.9456 135.643 63.7823L142.013 18.6323C142.603 14.4691 146.71 11.5096 151.136 12.0676L186.261 16.4441C190.694 16.9959 193.835 20.8581 193.245 25.0214L186.875 70.1714C186.286 74.3346 182.179 77.2941 177.752 76.736L156.322 74.065C152.127 80.8366 145.957 85.2694 139.192 85.5014C138.245 85.5328 137.311 85.4763 136.396 85.3447C141.086 83.1063 144.597 78.6485 147.055 72.9114H147.061Z" fill="#729EDB"/>
<path d="M58.1042 177.193H55.4707V175.462H58.1042V172.396H59.7216V175.462H62.3551V177.193H59.7216V180.259H58.1042V177.193Z" fill="#FCFDFF"/>
<path d="M201.767 69.3126C203.637 69.3126 205.152 67.7967 205.152 65.9268C205.152 64.0569 203.637 62.541 201.767 62.541C199.897 62.541 198.381 64.0569 198.381 65.9268C198.381 67.7967 199.897 69.3126 201.767 69.3126Z" fill="white"/>
<path d="M215.118 69.3126C216.988 69.3126 218.504 67.7967 218.504 65.9268C218.504 64.0569 216.988 62.541 215.118 62.541C213.248 62.541 211.732 64.0569 211.732 65.9268C211.732 67.7967 213.248 69.3126 215.118 69.3126Z" fill="white"/>
<path d="M228.607 69.3126C230.477 69.3126 231.992 67.7967 231.992 65.9268C231.992 64.0569 230.477 62.541 228.607 62.541C226.737 62.541 225.221 64.0569 225.221 65.9268C225.221 67.7967 226.737 69.3126 228.607 69.3126Z" fill="white"/>
<path d="M317.549 44.3848H287.309V45.8958H317.549V44.3848Z" fill="white"/>
<path d="M317.549 48.6309H287.309V50.1419H317.549V48.6309Z" fill="white"/>
<path d="M317.549 52.873H287.309V54.3841H317.549V52.873Z" fill="white"/>
<path d="M309.341 57.0254H287.309V58.5365H309.341V57.0254Z" fill="white"/>
<path d="M95.1842 55.1304C95.1842 57.6698 95.1845 58.0898 93.0715 58.0898V62.8111C98.006 62.8111 99.4165 59.4943 99.4165 53.6444V45.8948H90.25V53.6444H95.1842V55.1241V55.1304Z" fill="white"/>
<path d="M84.6117 53.6446V55.1243C84.6117 57.6637 84.6116 58.0837 82.4987 58.0837V62.805C87.4331 62.805 88.844 59.4882 88.844 53.6383V45.8887H79.6836V53.6383H84.6178L84.6117 53.6446Z" fill="white"/>
<path d="M179.178 40.0606L151.246 36.5469L151.005 38.463L178.937 41.9767L179.178 40.0606Z" fill="white"/>
<path d="M178.496 45.4395L150.564 41.9258L150.323 43.8418L178.255 47.3556L178.496 45.4395Z" fill="white"/>
<path d="M177.821 50.8243L149.889 47.3105L149.648 49.2266L177.58 52.7403L177.821 50.8243Z" fill="white"/>
<path d="M169.579 55.1328L149.225 52.5723L148.984 54.4883L169.338 57.0489L169.579 55.1328Z" fill="white"/>
<path d="M179.832 34.8106L151.9 31.2969L151.659 33.213L179.591 36.7267L179.832 34.8106Z" fill="white"/>
<defs>
<filter id="filter0_d_248_64319" x="32" y="27.1055" width="293.649" height="246.578" filterUnits="userSpaceOnUse" color-interpolation-filters="sRGB">
<feFlood flood-opacity="0" result="BackgroundImageFix"/>
<feColorMatrix in="SourceAlpha" type="matrix" values="0 0 0 0 0 0 0 0 0 0 0 0 0 0 0 0 0 0 127 0" result="hardAlpha"/>
<feOffset dx="1.68398" dy="1.68398"/>
<feColorMatrix type="matrix" values="0 0 0 0 0 0 0 0 0 0 0 0 0 0 0 0 0 0 0.08 0"/>
<feBlend mode="normal" in2="BackgroundImageFix" result="effect1_dropShadow_248_64319"/>
<feBlend mode="normal" in="SourceGraphic" in2="effect1_dropShadow_248_64319" result="shape"/>
</filter>
<linearGradient id="paint0_linear_248_64319" x1="299.24" y1="228.653" x2="299.24" y2="159.395" gradientUnits="userSpaceOnUse">
<stop stop-color="#0F2D47"/>
<stop offset="1" stop-color="#0A2635"/>
</linearGradient>
<linearGradient id="paint1_linear_248_64319" x1="215.151" y1="238.326" x2="215.151" y2="170.146" gradientUnits="userSpaceOnUse">
<stop stop-color="#0F2D47"/>
<stop offset="1" stop-color="#0A2635"/>
</linearGradient>
<linearGradient id="paint2_linear_248_64319" x1="194.467" y1="153.073" x2="206.587" y2="153.073" gradientUnits="userSpaceOnUse">
<stop offset="0.06" stop-color="#AA6338"/>
<stop offset="1" stop-color="#C96F43"/>
</linearGradient>
<linearGradient id="paint3_linear_248_64319" x1="77.1977" y1="198.725" x2="110.498" y2="198.725" gradientUnits="userSpaceOnUse">
<stop stop-color="#0F2D47"/>
<stop offset="1" stop-color="#0A2635"/>
</linearGradient>
<linearGradient id="paint4_linear_248_64319" x1="150.062" y1="227.728" x2="150.062" y2="165.43" gradientUnits="userSpaceOnUse">
<stop stop-color="#0F2D47"/>
<stop offset="1" stop-color="#0A2635"/>
</linearGradient>
<linearGradient id="paint5_linear_248_64319" x1="155.499" y1="241.64" x2="155.499" y2="238.035" gradientUnits="userSpaceOnUse">
<stop stop-color="#0F2D47"/>
<stop offset="1" stop-color="#0A2635"/>
</linearGradient>
<linearGradient id="paint6_linear_248_64319" x1="137.256" y1="241.322" x2="137.256" y2="237.716" gradientUnits="userSpaceOnUse">
<stop stop-color="#0F2D47"/>
<stop offset="1" stop-color="#0A2635"/>
</linearGradient>
</defs>
</svg>
