<svg width="380" height="285" viewBox="0 0 380 285" fill="none" xmlns="http://www.w3.org/2000/svg">
<path d="M32.0762 228.268C5.68857 193.709 -7.96573 75.5428 97.1238 55.1154C127.277 49.2567 168.045 68.6373 190.941 55.7872C213.837 42.9371 218.937 15.7449 267.182 10.8626C315.426 5.97257 337.041 43.5776 335.292 76.4801C333.534 109.383 362.874 111.562 367.717 137.872C372.147 161.931 339.033 176.68 328.081 199.529C317.129 222.378 320.418 260.225 284.641 270.489C244.786 281.925 233.373 233.345 181.707 255.225C124.612 279.402 65.3536 271.864 32.0762 228.275V228.268Z" fill="url(#paint0_linear_248_63723)"/>
<path d="M315.471 85.2465L226.728 86.0984C223.596 86.1285 221.081 88.6918 221.111 91.8238L222.593 246.166C222.623 249.298 225.187 251.813 228.319 251.783L317.062 250.931C320.194 250.901 322.709 248.338 322.679 245.206L321.197 90.863C321.167 87.731 318.603 85.2164 315.471 85.2465Z" fill="#314572"/>
<path d="M309.569 96.1197L232.831 96.8564C230.118 96.8824 227.939 99.1032 227.965 101.817L228.085 114.307C228.111 117.02 230.332 119.199 233.046 119.173L309.783 118.436C312.497 118.41 314.676 116.189 314.65 113.476L314.53 100.986C314.504 98.2723 312.283 96.0937 309.569 96.1197Z" fill="#F0B644"/>
<path d="M249.493 134.566L229.965 134.754C229.037 134.763 228.292 135.522 228.301 136.45L228.327 139.176C228.336 140.103 229.096 140.848 230.023 140.839L249.551 140.651C250.479 140.643 251.223 139.883 251.214 138.956L251.188 136.23C251.179 135.302 250.421 134.558 249.493 134.566Z" fill="#F0B644"/>
<path d="M245.32 148.038L231.15 148.174C229.632 148.188 228.412 149.431 228.427 150.95L228.515 160.175C228.53 161.693 229.773 162.912 231.292 162.898L245.461 162.762C246.98 162.747 248.199 161.504 248.185 159.986L248.096 150.761C248.081 149.242 246.838 148.023 245.32 148.038Z" fill="#BCC1B5"/>
<path d="M245.316 146.876L231.146 147.012C229.627 147.027 228.408 148.269 228.423 149.788L228.511 159.013C228.526 160.532 229.768 161.751 231.287 161.736L245.457 161.6C246.976 161.586 248.194 160.343 248.18 158.824L248.091 149.599C248.077 148.081 246.834 146.861 245.316 146.876Z" fill="#F2F2F2"/>
<path d="M267.752 147.83L253.583 147.966C252.064 147.98 250.845 149.223 250.859 150.742L250.948 159.967C250.963 161.485 252.206 162.704 253.724 162.69L267.894 162.554C269.412 162.539 270.632 161.296 270.617 159.778L270.529 150.553C270.514 149.034 269.271 147.815 267.752 147.83Z" fill="#BCC1B5"/>
<path d="M267.734 146.664L253.564 146.8C252.045 146.815 250.826 148.058 250.841 149.576L250.929 158.801C250.944 160.32 252.186 161.539 253.705 161.525L267.875 161.389C269.394 161.374 270.612 160.131 270.598 158.613L270.509 149.387C270.495 147.869 269.252 146.65 267.734 146.664Z" fill="#F2F2F2"/>
<path d="M289.802 147.618L275.632 147.754C274.113 147.769 272.895 149.012 272.909 150.53L272.998 159.755C273.012 161.274 274.255 162.493 275.773 162.478L289.943 162.342C291.462 162.328 292.681 161.085 292.666 159.566L292.578 150.341C292.563 148.823 291.321 147.604 289.802 147.618Z" fill="#BCC1B5"/>
<path d="M289.791 146.453L275.622 146.589C274.103 146.603 272.884 147.846 272.898 149.365L272.987 158.59C273.002 160.108 274.245 161.328 275.763 161.313L289.933 161.177C291.451 161.163 292.671 159.92 292.656 158.401L292.568 149.176C292.553 147.657 291.31 146.438 289.791 146.453Z" fill="#F2F2F2"/>
<path d="M312.223 147.399L298.054 147.535C296.535 147.55 295.317 148.792 295.331 150.311L295.42 159.536C295.434 161.055 296.677 162.274 298.195 162.259L312.365 162.123C313.883 162.109 315.103 160.866 315.088 159.347L315 150.122C314.985 148.604 313.742 147.385 312.223 147.399Z" fill="#BCC1B5"/>
<path d="M312.213 146.23L298.044 146.366C296.525 146.381 295.306 147.623 295.32 149.142L295.409 158.367C295.423 159.886 296.667 161.105 298.185 161.09L312.355 160.954C313.873 160.94 315.093 159.697 315.078 158.178L314.99 148.953C314.975 147.435 313.732 146.216 312.213 146.23Z" fill="#F2F2F2"/>
<path d="M245.52 168.017L231.351 168.153C229.832 168.168 228.612 169.411 228.627 170.929L228.716 180.154C228.73 181.673 229.973 182.892 231.492 182.878L245.661 182.742C247.18 182.727 248.399 181.484 248.385 179.966L248.296 170.74C248.282 169.222 247.038 168.003 245.52 168.017Z" fill="#BCC1B5"/>
<path d="M245.501 166.852L231.331 166.988C229.813 167.003 228.594 168.245 228.608 169.764L228.697 178.989C228.712 180.508 229.954 181.727 231.473 181.712L245.643 181.576C247.161 181.562 248.38 180.319 248.365 178.8L248.277 169.575C248.262 168.057 247.02 166.837 245.501 166.852Z" fill="#F2F2F2"/>
<path d="M267.942 167.798L253.772 167.934C252.253 167.949 251.034 169.192 251.049 170.71L251.137 179.935C251.152 181.454 252.394 182.673 253.913 182.659L268.083 182.523C269.602 182.508 270.82 181.265 270.806 179.747L270.717 170.521C270.703 169.003 269.46 167.784 267.942 167.798Z" fill="#BCC1B5"/>
<path d="M267.938 166.633L253.768 166.769C252.249 166.784 251.03 168.026 251.045 169.545L251.134 178.77C251.148 180.289 252.391 181.508 253.909 181.493L268.079 181.357C269.598 181.343 270.817 180.1 270.802 178.581L270.713 169.356C270.699 167.838 269.456 166.618 267.938 166.633Z" fill="#F2F2F2"/>
<path d="M289.995 167.579L275.825 167.715C274.307 167.73 273.088 168.973 273.103 170.491L273.191 179.716C273.206 181.235 274.448 182.454 275.967 182.44L290.136 182.304C291.655 182.289 292.874 181.046 292.86 179.528L292.771 170.302C292.756 168.784 291.513 167.565 289.995 167.579Z" fill="#BCC1B5"/>
<path d="M289.985 166.418L275.815 166.554C274.297 166.569 273.077 167.812 273.092 169.33L273.18 178.555C273.195 180.074 274.438 181.293 275.957 181.278L290.126 181.142C291.645 181.128 292.864 179.885 292.85 178.366L292.761 169.141C292.747 167.623 291.503 166.404 289.985 166.418Z" fill="#F2F2F2"/>
<path d="M312.417 167.372L298.248 167.508C296.729 167.522 295.51 168.765 295.524 170.284L295.613 179.509C295.628 181.027 296.871 182.246 298.389 182.232L312.559 182.096C314.077 182.081 315.297 180.838 315.282 179.32L315.194 170.095C315.179 168.576 313.936 167.357 312.417 167.372Z" fill="#BCC1B5"/>
<path d="M312.41 166.21L298.24 166.346C296.722 166.36 295.502 167.603 295.517 169.122L295.605 178.347C295.62 179.866 296.863 181.085 298.382 181.07L312.551 180.934C314.069 180.92 315.288 179.677 315.274 178.158L315.185 168.933C315.171 167.415 313.928 166.195 312.41 166.21Z" fill="#F2F2F2"/>
<path d="M245.713 187.986L231.543 188.122C230.025 188.136 228.806 189.379 228.82 190.898L228.909 200.122C228.923 201.641 230.166 202.86 231.684 202.846L245.855 202.71C247.373 202.695 248.592 201.452 248.577 199.934L248.489 190.709C248.474 189.19 247.232 187.971 245.713 187.986Z" fill="#BCC1B5"/>
<path d="M245.702 186.824L231.532 186.96C230.014 186.975 228.795 188.217 228.81 189.736L228.898 198.961C228.913 200.479 230.155 201.699 231.674 201.684L245.844 201.548C247.362 201.533 248.581 200.291 248.567 198.772L248.478 189.547C248.464 188.029 247.221 186.809 245.702 186.824Z" fill="#F2F2F2"/>
<path d="M268.143 187.785L253.973 187.921C252.454 187.936 251.235 189.179 251.25 190.697L251.339 199.922C251.353 201.441 252.596 202.66 254.114 202.645L268.284 202.509C269.803 202.495 271.022 201.252 271.007 199.733L270.918 190.509C270.904 188.99 269.661 187.771 268.143 187.785Z" fill="#BCC1B5"/>
<path d="M268.124 186.624L253.954 186.76C252.436 186.774 251.217 188.017 251.231 189.536L251.32 198.761C251.335 200.279 252.577 201.498 254.096 201.484L268.265 201.348C269.783 201.333 271.003 200.09 270.988 198.572L270.9 189.347C270.885 187.828 269.642 186.609 268.124 186.624Z" fill="#F2F2F2"/>
<path d="M290.188 187.57L276.019 187.706C274.5 187.721 273.281 188.963 273.296 190.482L273.384 199.707C273.399 201.226 274.642 202.445 276.16 202.43L290.329 202.294C291.848 202.28 293.068 201.037 293.053 199.518L292.964 190.293C292.95 188.775 291.707 187.555 290.188 187.57Z" fill="#BCC1B5"/>
<path d="M290.178 186.408L276.009 186.544C274.49 186.559 273.271 187.802 273.285 189.32L273.374 198.545C273.388 200.064 274.632 201.283 276.15 201.268L290.319 201.132C291.838 201.118 293.057 199.875 293.042 198.357L292.954 189.132C292.939 187.613 291.697 186.394 290.178 186.408Z" fill="#F2F2F2"/>
<path d="M312.615 187.351L298.445 187.487C296.927 187.502 295.707 188.744 295.722 190.263L295.81 199.488C295.825 201.007 297.068 202.226 298.587 202.211L312.756 202.075C314.274 202.061 315.494 200.818 315.479 199.299L315.391 190.074C315.376 188.556 314.133 187.336 312.615 187.351Z" fill="#BCC1B5"/>
<path d="M312.603 186.186L298.434 186.322C296.915 186.337 295.695 187.579 295.71 189.098L295.799 198.323C295.813 199.842 297.056 201.061 298.575 201.046L312.744 200.91C314.263 200.896 315.482 199.653 315.467 198.134L315.378 188.909C315.364 187.391 314.121 186.171 312.603 186.186Z" fill="#F2F2F2"/>
<path d="M245.902 207.973L231.732 208.109C230.213 208.123 228.994 209.366 229.009 210.885L229.097 220.11C229.112 221.628 230.354 222.848 231.873 222.833L246.043 222.697C247.562 222.683 248.78 221.44 248.766 219.921L248.677 210.696C248.663 209.177 247.42 207.958 245.902 207.973Z" fill="#BCC1B5"/>
<path d="M245.891 206.811L231.722 206.947C230.203 206.962 228.983 208.205 228.998 209.723L229.087 218.948C229.101 220.467 230.344 221.686 231.863 221.672L246.032 221.535C247.551 221.521 248.77 220.278 248.756 218.76L248.667 209.534C248.653 208.016 247.41 206.797 245.891 206.811Z" fill="#F2F2F2"/>
<path d="M268.324 207.761L254.153 207.897C252.635 207.912 251.416 209.155 251.431 210.673L251.519 219.898C251.534 221.417 252.776 222.636 254.295 222.621L268.465 222.485C269.983 222.471 271.202 221.228 271.188 219.709L271.099 210.484C271.085 208.966 269.842 207.747 268.324 207.761Z" fill="#BCC1B5"/>
<path d="M268.319 206.592L254.15 206.728C252.631 206.743 251.412 207.986 251.427 209.504L251.515 218.73C251.53 220.248 252.772 221.467 254.291 221.453L268.46 221.317C269.979 221.302 271.198 220.059 271.184 218.541L271.095 209.316C271.081 207.797 269.837 206.578 268.319 206.592Z" fill="#F2F2F2"/>
<path d="M290.377 207.55L276.208 207.686C274.689 207.7 273.47 208.943 273.484 210.462L273.573 219.687C273.588 221.205 274.831 222.424 276.349 222.41L290.519 222.274C292.037 222.259 293.257 221.016 293.242 219.498L293.154 210.273C293.139 208.754 291.896 207.535 290.377 207.55Z" fill="#BCC1B5"/>
<path d="M290.367 206.388L276.197 206.524C274.679 206.539 273.459 207.782 273.474 209.3L273.562 218.525C273.577 220.044 274.82 221.263 276.339 221.248L290.508 221.112C292.026 221.098 293.245 219.855 293.231 218.336L293.142 209.111C293.128 207.593 291.885 206.374 290.367 206.388Z" fill="#F2F2F2"/>
<path d="M312.795 207.334L298.626 207.47C297.107 207.485 295.888 208.728 295.902 210.246L295.991 219.471C296.006 220.99 297.249 222.209 298.767 222.195L312.937 222.059C314.455 222.044 315.674 220.801 315.659 219.283L315.571 210.058C315.556 208.539 314.314 207.32 312.795 207.334Z" fill="#BCC1B5"/>
<path d="M312.791 206.169L298.621 206.305C297.103 206.32 295.884 207.563 295.898 209.081L295.987 218.306C296.002 219.825 297.244 221.044 298.763 221.029L312.933 220.893C314.451 220.879 315.67 219.636 315.655 218.117L315.567 208.892C315.552 207.374 314.31 206.155 312.791 206.169Z" fill="#F2F2F2"/>
<path d="M309.816 116.712L233.262 117.446C230.512 117.47 228.239 115.244 228.208 112.486L228.232 114.892C228.255 117.642 230.528 119.876 233.286 119.852L309.839 119.118C312.589 119.095 314.823 116.821 314.799 114.064L314.776 111.658C314.8 114.408 312.573 116.681 309.816 116.712Z" fill="#EEA443"/>
<path d="M236.16 151.624L240.801 151.577V152.647L237.973 158.053L236.371 158.068L239.207 152.819L236.176 152.85L236.16 151.624Z" fill="black"/>
<path d="M260.659 157.934C259.229 157.95 258.167 157.223 258.151 156.091C258.151 155.302 258.495 154.833 259.174 154.513C258.674 154.216 258.347 153.802 258.339 153.099C258.331 152.107 259.222 151.31 260.589 151.302C261.956 151.287 262.862 152.068 262.87 153.06C262.87 153.763 262.557 154.177 262.065 154.489C262.721 154.825 263.112 155.231 263.12 156.013C263.128 157.223 262.081 157.926 260.651 157.942L260.659 157.934ZM260.604 152.466C260.026 152.466 259.682 152.825 259.69 153.232C259.69 153.693 260.058 154.028 260.62 154.028C261.182 154.028 261.542 153.685 261.534 153.224C261.534 152.818 261.182 152.458 260.604 152.466ZM260.635 155.145C259.987 155.145 259.526 155.45 259.526 155.958C259.526 156.419 259.948 156.763 260.651 156.755C261.354 156.755 261.76 156.395 261.76 155.934C261.76 155.427 261.284 155.138 260.635 155.145Z" fill="black"/>
<path d="M282.688 157.74C281.75 157.748 281.109 157.443 280.562 156.998L281.297 155.912C281.773 156.287 282.171 156.459 282.71 156.451C283.499 156.451 283.921 155.841 284.007 154.974C283.695 155.248 283.265 155.428 282.703 155.428C281.305 155.443 280.391 154.677 280.383 153.357C280.367 152.053 281.367 151.084 282.82 151.069C283.687 151.061 284.195 151.264 284.687 151.748C285.156 152.201 285.46 152.904 285.476 154.185C285.499 156.287 284.523 157.724 282.688 157.74ZM282.874 152.279C282.171 152.279 281.781 152.693 281.789 153.279C281.789 153.857 282.219 154.256 282.922 154.248C283.625 154.248 284.023 153.834 284.016 153.272C284.016 152.693 283.585 152.279 282.874 152.287V152.279Z" fill="black"/>
<path d="M240.143 171.512L240.182 175.465H241.049L241.057 176.605H240.189L240.205 178.003L238.853 178.019L238.838 176.629L235.69 176.66L235.447 175.66L238.947 171.528H240.143V171.512ZM238.807 173.473L237.112 175.496L238.822 175.48L238.807 173.473Z" fill="black"/>
<path d="M258.617 171.388L262.578 171.349L262.593 172.591L259.851 172.614L259.789 173.731C260.047 173.661 260.273 173.614 260.633 173.614C261.906 173.598 262.898 174.2 262.913 175.668C262.929 177.043 261.969 177.918 260.485 177.934C259.453 177.942 258.695 177.582 258.062 176.989L258.906 175.958C259.398 176.395 259.883 176.645 260.453 176.645C261.117 176.645 261.531 176.309 261.524 175.731C261.524 175.169 261.062 174.848 260.375 174.856C259.969 174.856 259.601 174.973 259.297 175.106L258.469 174.567L258.625 171.388H258.617Z" fill="black"/>
<path d="M284.364 172.83C283.934 172.51 283.591 172.322 283.044 172.33C282.24 172.33 281.841 172.986 281.763 173.838C282.083 173.619 282.458 173.416 283.098 173.408C284.379 173.392 285.372 174.095 285.388 175.447C285.403 176.775 284.349 177.696 282.95 177.712C282.115 177.72 281.537 177.485 281.084 177.04C280.607 176.572 280.31 175.884 280.294 174.595C280.279 172.595 281.161 171.057 283.091 171.041C283.966 171.033 284.536 171.283 285.114 171.728L284.38 172.83H284.364ZM282.833 174.587C282.13 174.587 281.732 174.986 281.74 175.54C281.74 176.103 282.169 176.501 282.872 176.493C283.575 176.493 283.974 176.087 283.966 175.525C283.966 174.97 283.536 174.58 282.833 174.587Z" fill="black"/>
<path d="M302.52 172.592L303.433 171.655L305.043 173.24L306.628 171.623L307.535 172.514L305.949 174.131L307.558 175.717L306.644 176.654L305.035 175.068L303.449 176.685L302.543 175.795L304.129 174.178L302.52 172.592Z" fill="black"/>
<path d="M238.816 191.399H239.785L239.848 197.882L238.45 197.898L238.402 192.836L237.278 193.125L236.973 191.969L238.816 191.399Z" fill="black"/>
<path d="M259.579 193.291L258.579 192.502C259.204 191.627 259.822 191.151 260.97 191.143C262.345 191.127 263.196 191.916 263.211 193.119C263.219 194.197 262.673 194.744 261.54 195.643L260.501 196.463L263.314 196.439V197.666L258.556 197.713V196.588L260.673 194.807C261.469 194.135 261.774 193.783 261.774 193.244C261.774 192.698 261.407 192.408 260.899 192.416C260.399 192.416 260.064 192.698 259.587 193.291H259.579Z" fill="black"/>
<path d="M281.076 192.26V191.041L285.419 191.002V192.072L283.81 193.642C284.692 193.783 285.544 194.236 285.56 195.439C285.568 196.666 284.693 197.564 283.255 197.58C282.091 197.587 281.287 197.134 280.732 196.486L281.7 195.548C282.146 196.041 282.614 196.314 283.263 196.306C283.794 196.306 284.169 195.994 284.169 195.502C284.169 194.97 283.708 194.674 282.896 194.681H282.31L282.083 193.783L283.607 192.221L281.076 192.244V192.26Z" fill="black"/>
<path d="M304.03 195.089L304.015 193.745L306.85 193.722L306.866 195.065L304.03 195.089Z" fill="black"/>
<path d="M238.535 218.436C236.809 218.452 235.668 217.014 235.645 215.139C235.629 213.257 236.762 211.78 238.489 211.765C240.215 211.749 241.356 213.186 241.379 215.061C241.395 216.944 240.262 218.42 238.535 218.436ZM238.481 213.046C237.622 213.054 237.09 213.913 237.098 215.108C237.106 216.296 237.676 217.171 238.535 217.155C239.394 217.147 239.926 216.272 239.918 215.093C239.91 213.913 239.34 213.03 238.481 213.046Z" fill="black"/>
<path d="M260.007 218.125L259.992 216.649L261.484 216.633L261.5 218.11L260.007 218.125Z" fill="black"/>
<path d="M282.343 212.374L283.655 212.358L283.671 214.015L285.335 213.999L285.351 215.272L283.686 215.288L283.702 216.944L282.39 216.96L282.374 215.303L280.711 215.319L280.695 214.046L282.359 214.03L282.343 212.374Z" fill="black"/>
<path d="M307.394 212.592L307.409 213.865L303.043 213.904L303.027 212.631L307.394 212.592ZM307.418 214.99L307.433 216.263L303.066 216.303L303.05 215.029L307.418 214.99Z" fill="black"/>
<path d="M299.402 104.449C299.402 103.301 299.746 102.418 300.441 101.793C301.09 101.176 301.871 100.864 302.777 100.856C303.714 100.848 304.511 101.145 305.167 101.754C305.839 102.364 306.191 103.246 306.222 104.395L306.277 109.87C306.269 111.011 305.933 111.894 305.269 112.519C304.621 113.136 303.832 113.456 302.895 113.48C301.988 113.48 301.199 113.175 300.543 112.565C299.84 111.956 299.473 111.081 299.449 109.941L299.395 104.457L299.402 104.449ZM304.511 104.512C304.464 103.27 303.894 102.637 302.792 102.629C301.691 102.66 301.129 103.301 301.121 104.551L301.168 109.824C301.199 111.081 301.769 111.706 302.878 111.706C303.98 111.683 304.535 111.042 304.558 109.785L304.511 104.512Z" fill="white"/>
<path d="M307.513 153.592V154.662L301.959 154.717V153.647L307.513 153.592Z" fill="black"/>
<path d="M303.975 152.468L303.959 150.991L305.451 150.976L305.467 152.452L303.975 152.468Z" fill="black"/>
<path d="M304.023 157.429L304.008 155.953L305.5 155.937L305.515 157.414L304.023 157.429Z" fill="black"/>
<path d="M221.38 127.761L321.47 126.628" stroke="#032A36" stroke-width="0.960339" stroke-miterlimit="10"/>
<path d="M191.655 266.735C211.893 266.735 228.299 263.602 228.299 259.736C228.299 255.871 211.893 252.737 191.655 252.737C171.417 252.737 155.011 255.871 155.011 259.736C155.011 263.602 171.417 266.735 191.655 266.735Z" fill="#E69200"/>
<path d="M228.291 252.737H155.011V259.736H228.291V252.737Z" fill="#E69200"/>
<path d="M191.655 259.74C211.893 259.74 228.299 256.607 228.299 252.741C228.299 248.876 211.893 245.742 191.655 245.742C171.417 245.742 155.011 248.876 155.011 252.741C155.011 256.607 171.417 259.74 191.655 259.74Z" fill="#F4CA44"/>
<path d="M191.657 257.383C207.848 257.383 220.973 255.285 220.973 252.696C220.973 250.108 207.848 248.009 191.657 248.009C175.466 248.009 162.34 250.108 162.34 252.696C162.34 255.285 175.466 257.383 191.657 257.383Z" fill="#EA9403"/>
<path d="M191.654 257.138C207.315 257.138 220.01 255.273 220.01 252.974C220.01 250.675 207.315 248.811 191.654 248.811C175.993 248.811 163.298 250.675 163.298 252.974C163.298 255.273 175.993 257.138 191.654 257.138Z" fill="#FFD237"/>
<path d="M187.253 256.241C207.491 256.241 223.896 253.107 223.896 249.242C223.896 245.376 207.491 242.242 187.253 242.242C167.015 242.242 150.608 245.376 150.608 249.242C150.608 253.107 167.015 256.241 187.253 256.241Z" fill="#E69200"/>
<path d="M223.889 242.235H150.608V249.235H223.889V242.235Z" fill="#E69200"/>
<path d="M187.253 249.235C207.491 249.235 223.896 246.102 223.896 242.236C223.896 238.37 207.491 235.237 187.253 235.237C167.015 235.237 150.608 238.37 150.608 242.236C150.608 246.102 167.015 249.235 187.253 249.235Z" fill="#F4CA44"/>
<path d="M187.251 246.882C203.442 246.882 216.567 244.783 216.567 242.195C216.567 239.606 203.442 237.508 187.251 237.508C171.059 237.508 157.934 239.606 157.934 242.195C157.934 244.783 171.059 246.882 187.251 246.882Z" fill="#EA9403"/>
<path d="M187.251 246.64C202.912 246.64 215.607 244.776 215.607 242.477C215.607 240.177 202.912 238.313 187.251 238.313C171.591 238.313 158.895 240.177 158.895 242.477C158.895 244.776 171.591 246.64 187.251 246.64Z" fill="#FFD237"/>
<path d="M193.113 248.812C213.351 248.812 229.757 245.678 229.757 241.812C229.757 237.947 213.351 234.813 193.113 234.813C172.875 234.813 156.469 237.947 156.469 241.812C156.469 245.678 172.875 248.812 193.113 248.812Z" fill="#E69200"/>
<path d="M229.749 234.813H156.469V241.812H229.749V234.813Z" fill="#E69200"/>
<path d="M193.113 241.813C213.351 241.813 229.757 238.679 229.757 234.814C229.757 230.948 213.351 227.814 193.113 227.814C172.875 227.814 156.469 230.948 156.469 234.814C156.469 238.679 172.875 241.813 193.113 241.813Z" fill="#F4CA44"/>
<path d="M193.115 239.463C209.306 239.463 222.431 237.365 222.431 234.776C222.431 232.188 209.306 230.089 193.115 230.089C176.924 230.089 163.798 232.188 163.798 234.776C163.798 237.365 176.924 239.463 193.115 239.463Z" fill="#EA9403"/>
<path d="M193.116 239.214C208.776 239.214 221.472 237.35 221.472 235.051C221.472 232.751 208.776 230.887 193.116 230.887C177.455 230.887 164.759 232.751 164.759 235.051C164.759 237.35 177.455 239.214 193.116 239.214Z" fill="#FFD237"/>
<path d="M187.253 238.313C207.491 238.313 223.896 235.18 223.896 231.314C223.896 227.449 207.491 224.315 187.253 224.315C167.015 224.315 150.608 227.449 150.608 231.314C150.608 235.18 167.015 238.313 187.253 238.313Z" fill="#E69200"/>
<path d="M223.889 224.307H150.608V231.307H223.889V224.307Z" fill="#E69200"/>
<path d="M187.253 231.307C207.491 231.307 223.896 228.173 223.896 224.308C223.896 220.442 207.491 217.309 187.253 217.309C167.015 217.309 150.608 220.442 150.608 224.308C150.608 228.173 167.015 231.307 187.253 231.307Z" fill="#F4CA44"/>
<path d="M187.251 228.957C203.442 228.957 216.567 226.859 216.567 224.27C216.567 221.682 203.442 219.583 187.251 219.583C171.059 219.583 157.934 221.682 157.934 224.27C157.934 226.859 171.059 228.957 187.251 228.957Z" fill="#EA9403"/>
<path d="M187.251 228.709C202.912 228.709 215.607 226.844 215.607 224.545C215.607 222.246 202.912 220.381 187.251 220.381C171.591 220.381 158.895 222.246 158.895 224.545C158.895 226.844 171.591 228.709 187.251 228.709Z" fill="#FFD237"/>
<path d="M192.305 229.444C212.543 229.444 228.949 226.311 228.949 222.445C228.949 218.58 212.543 215.446 192.305 215.446C172.066 215.446 155.66 218.58 155.66 222.445C155.66 226.311 172.066 229.444 192.305 229.444Z" fill="#E69200"/>
<path d="M228.941 215.446H155.66V222.445H228.941V215.446Z" fill="#E69200"/>
<path d="M192.305 222.446C212.543 222.446 228.949 219.312 228.949 215.446C228.949 211.581 212.543 208.447 192.305 208.447C172.066 208.447 155.66 211.581 155.66 215.446C155.66 219.312 172.066 222.446 192.305 222.446Z" fill="#F4CA44"/>
<path d="M192.306 220.096C208.498 220.096 221.623 217.997 221.623 215.409C221.623 212.82 208.498 210.722 192.306 210.722C176.115 210.722 162.989 212.82 162.989 215.409C162.989 217.997 176.115 220.096 192.306 220.096Z" fill="#EA9403"/>
<path d="M192.307 219.843C207.968 219.843 220.663 217.979 220.663 215.679C220.663 213.38 207.968 211.516 192.307 211.516C176.646 211.516 163.95 213.38 163.95 215.679C163.95 217.979 176.646 219.843 192.307 219.843Z" fill="#FFD237"/>
<path d="M190.248 217.458C210.486 217.458 226.892 214.324 226.892 210.459C226.892 206.593 210.486 203.459 190.248 203.459C170.01 203.459 153.604 206.593 153.604 210.459C153.604 214.324 170.01 217.458 190.248 217.458Z" fill="#E69200"/>
<path d="M226.892 203.459H153.611V210.459H226.892V203.459Z" fill="#E69200"/>
<path d="M190.248 210.463C210.486 210.463 226.892 207.329 226.892 203.464C226.892 199.598 210.486 196.464 190.248 196.464C170.01 196.464 153.604 199.598 153.604 203.464C153.604 207.329 170.01 210.463 190.248 210.463Z" fill="#F4CA44"/>
<path d="M190.25 208.109C206.441 208.109 219.566 206.011 219.566 203.422C219.566 200.834 206.441 198.735 190.25 198.735C174.058 198.735 160.933 200.834 160.933 203.422C160.933 206.011 174.058 208.109 190.25 208.109Z" fill="#EA9403"/>
<path d="M190.25 207.86C205.911 207.86 218.606 205.996 218.606 203.697C218.606 201.397 205.911 199.533 190.25 199.533C174.59 199.533 161.894 201.397 161.894 203.697C161.894 205.996 174.59 207.86 190.25 207.86Z" fill="#FFD237"/>
<path d="M185.19 207.442C205.428 207.442 221.835 204.308 221.835 200.443C221.835 196.577 205.428 193.444 185.19 193.444C164.952 193.444 148.546 196.577 148.546 200.443C148.546 204.308 164.952 207.442 185.19 207.442Z" fill="#E69200"/>
<path d="M221.827 193.444H148.546V200.443H221.827V193.444Z" fill="#E69200"/>
<path d="M185.19 200.443C205.428 200.443 221.835 197.31 221.835 193.444C221.835 189.578 205.428 186.445 185.19 186.445C164.952 186.445 148.546 189.578 148.546 193.444C148.546 197.31 164.952 200.443 185.19 200.443Z" fill="#F4CA44"/>
<path d="M185.191 198.094C201.383 198.094 214.509 195.995 214.509 193.407C214.509 190.818 201.383 188.72 185.191 188.72C169 188.72 155.875 190.818 155.875 193.407C155.875 195.995 169 198.094 185.191 198.094Z" fill="#EA9403"/>
<path d="M185.192 197.841C200.853 197.841 213.548 195.977 213.548 193.677C213.548 191.378 200.853 189.514 185.192 189.514C169.531 189.514 156.836 191.378 156.836 193.677C156.836 195.977 169.531 197.841 185.192 197.841Z" fill="#FFD237"/>
<path opacity="0.3" d="M223.829 231.018V225.995C227.031 224.956 228.875 223.745 228.875 222.449V215.449C228.875 214.371 227.602 213.356 225.337 212.442C226.298 211.817 226.828 211.153 226.828 210.466V203.466C226.828 202.17 224.977 200.959 221.774 199.92V193.444C221.774 189.577 205.37 186.445 185.13 186.445C164.89 186.445 148.486 189.577 148.486 193.444V200.443C148.486 201.74 150.337 202.951 153.54 203.99V210.466C153.54 211.544 154.814 212.559 157.079 213.473C156.118 214.098 155.587 214.762 155.587 215.449V220.769C152.384 221.808 150.541 223.019 150.541 224.315V231.315C150.541 232.713 152.697 234.018 156.399 235.111V238.447C152.697 239.54 150.541 240.845 150.541 242.243V249.242C150.541 250.453 152.141 251.586 154.961 252.578C154.961 252.632 154.939 252.687 154.939 252.742V259.741C154.939 263.608 171.343 266.74 191.583 266.74C211.823 266.74 228.227 263.608 228.227 259.741V252.742C228.227 251.531 226.626 250.399 223.806 249.406C223.806 249.352 223.829 249.297 223.829 249.242V245.61C227.531 244.516 229.687 243.212 229.687 241.813V234.814C229.687 233.416 227.531 232.112 223.829 231.018Z" fill="#FCDD41"/>
<path d="M231.814 275.495C248.014 275.495 261.146 272.987 261.146 269.894C261.146 266.801 248.014 264.293 231.814 264.293C215.614 264.293 202.48 266.801 202.48 269.894C202.48 272.987 215.614 275.495 231.814 275.495Z" fill="#E69200"/>
<path d="M261.138 264.286H202.48V269.887H261.138V264.286Z" fill="#E69200"/>
<path d="M231.814 269.888C248.014 269.888 261.146 267.38 261.146 264.287C261.146 261.193 248.014 258.686 231.814 258.686C215.614 258.686 202.48 261.193 202.48 264.287C202.48 267.38 215.614 269.888 231.814 269.888Z" fill="#F4CA44"/>
<path d="M231.814 268.003C244.774 268.003 255.28 266.325 255.28 264.254C255.28 262.183 244.774 260.504 231.814 260.504C218.854 260.504 208.348 262.183 208.348 264.254C208.348 266.325 218.854 268.003 231.814 268.003Z" fill="#EA9403"/>
<path d="M231.813 267.798C244.35 267.798 254.513 266.308 254.513 264.47C254.513 262.632 244.35 261.143 231.813 261.143C219.276 261.143 209.112 262.632 209.112 264.47C209.112 266.308 219.276 267.798 231.813 267.798Z" fill="#FFD237"/>
<path d="M228.291 267.09C244.491 267.09 257.625 264.582 257.625 261.489C257.625 258.396 244.491 255.888 228.291 255.888C212.091 255.888 198.959 258.396 198.959 261.489C198.959 264.582 212.091 267.09 228.291 267.09Z" fill="#E69200"/>
<path d="M257.616 255.88H198.959V261.481H257.616V255.88Z" fill="#E69200"/>
<path d="M228.291 261.483C244.491 261.483 257.625 258.975 257.625 255.882C257.625 252.788 244.491 250.281 228.291 250.281C212.091 250.281 198.959 252.788 198.959 255.882C198.959 258.975 212.091 261.483 228.291 261.483Z" fill="#F4CA44"/>
<path d="M228.288 259.598C241.248 259.598 251.754 257.919 251.754 255.848C251.754 253.778 241.248 252.099 228.288 252.099C215.328 252.099 204.822 253.778 204.822 255.848C204.822 257.919 215.328 259.598 228.288 259.598Z" fill="#EA9403"/>
<path d="M228.291 259.396C240.828 259.396 250.992 257.906 250.992 256.069C250.992 254.231 240.828 252.741 228.291 252.741C215.754 252.741 205.591 254.231 205.591 256.069C205.591 257.906 215.754 259.396 228.291 259.396Z" fill="#FFD237"/>
<path d="M232.987 261.148C249.186 261.148 262.319 258.64 262.319 255.547C262.319 252.454 249.186 249.946 232.987 249.946C216.787 249.946 203.653 252.454 203.653 255.547C203.653 258.64 216.787 261.148 232.987 261.148Z" fill="#E69200"/>
<path d="M262.311 249.939H203.653V255.54H262.311V249.939Z" fill="#E69200"/>
<path d="M232.987 255.537C249.186 255.537 262.319 253.03 262.319 249.936C262.319 246.843 249.186 244.335 232.987 244.335C216.787 244.335 203.653 246.843 203.653 249.936C203.653 253.03 216.787 255.537 232.987 255.537Z" fill="#F4CA44"/>
<path d="M232.987 253.657C245.947 253.657 256.453 251.978 256.453 249.907C256.453 247.836 245.947 246.157 232.987 246.157C220.027 246.157 209.521 247.836 209.521 249.907C209.521 251.978 220.027 253.657 232.987 253.657Z" fill="#EA9403"/>
<path d="M232.986 253.452C245.523 253.452 255.686 251.962 255.686 250.124C255.686 248.286 245.523 246.796 232.986 246.796C220.449 246.796 210.285 248.286 210.285 250.124C210.285 251.962 220.449 253.452 232.986 253.452Z" fill="#FFD237"/>
<path d="M228.291 252.732C244.491 252.732 257.625 250.224 257.625 247.131C257.625 244.038 244.491 241.53 228.291 241.53C212.091 241.53 198.959 244.038 198.959 247.131C198.959 250.224 212.091 252.732 228.291 252.732Z" fill="#E69200"/>
<path d="M257.616 241.53H198.959V247.131H257.616V241.53Z" fill="#E69200"/>
<path d="M228.291 247.132C244.491 247.132 257.625 244.624 257.625 241.531C257.625 238.438 244.491 235.93 228.291 235.93C212.091 235.93 198.959 238.438 198.959 241.531C198.959 244.624 212.091 247.132 228.291 247.132Z" fill="#F4CA44"/>
<path d="M228.288 245.244C241.248 245.244 251.754 243.565 251.754 241.494C251.754 239.424 241.248 237.745 228.288 237.745C215.328 237.745 204.822 239.424 204.822 241.494C204.822 243.565 215.328 245.244 228.288 245.244Z" fill="#EA9403"/>
<path d="M228.291 245.042C240.828 245.042 250.992 243.552 250.992 241.714C250.992 239.877 240.828 238.387 228.291 238.387C215.754 238.387 205.591 239.877 205.591 241.714C205.591 243.552 215.754 245.042 228.291 245.042Z" fill="#FFD237"/>
<path d="M232.329 245.64C248.528 245.64 261.662 243.133 261.662 240.04C261.662 236.946 248.528 234.438 232.329 234.438C216.129 234.438 202.996 236.946 202.996 240.04C202.996 243.133 216.129 245.64 232.329 245.64Z" fill="#E69200"/>
<path d="M261.662 234.438H203.004V240.04H261.662V234.438Z" fill="#E69200"/>
<path d="M232.329 240.041C248.528 240.041 261.662 237.533 261.662 234.439C261.662 231.346 248.528 228.839 232.329 228.839C216.129 228.839 202.996 231.346 202.996 234.439C202.996 237.533 216.129 240.041 232.329 240.041Z" fill="#F4CA44"/>
<path d="M232.325 238.156C245.285 238.156 255.792 236.477 255.792 234.406C255.792 232.336 245.285 230.657 232.325 230.657C219.366 230.657 208.859 232.336 208.859 234.406C208.859 236.477 219.366 238.156 232.325 238.156Z" fill="#EA9403"/>
<path d="M232.328 237.955C244.865 237.955 255.029 236.465 255.029 234.627C255.029 232.789 244.865 231.299 232.328 231.299C219.791 231.299 209.628 232.789 209.628 234.627C209.628 236.465 219.791 237.955 232.328 237.955Z" fill="#FFD237"/>
<path opacity="0.3" d="M257.453 245.993V241.978C260.015 241.142 261.491 240.173 261.491 239.142V233.541C261.491 230.448 248.36 227.94 232.159 227.94C215.958 227.94 202.827 230.448 202.827 233.541V237.799C200.264 238.634 198.788 239.603 198.788 240.634V246.235C198.788 247.352 200.514 248.399 203.475 249.274V251.945C200.514 252.82 198.788 253.867 198.788 254.984V260.585C198.788 261.554 200.069 262.46 202.327 263.257C202.327 263.304 202.311 263.343 202.311 263.389V268.99C202.311 272.084 215.442 274.591 231.643 274.591C247.845 274.591 260.977 272.084 260.977 268.99V263.389C260.977 262.421 259.695 261.515 257.438 260.718C257.438 260.671 257.453 260.632 257.453 260.585V257.679C260.414 256.804 262.14 255.758 262.14 254.64V249.039C262.14 247.922 260.414 246.876 257.453 246.001V245.993Z" fill="#FCDD41"/>
<path d="M102.871 147.73C103.285 154.862 102.957 156.893 104.902 165.947C107.925 179.968 107.582 176.664 107.871 178.633C109.207 182.093 113.159 197.302 114.62 200.224C114.706 206.153 115.596 210.816 117.323 218.034C119.385 226.658 125.376 241.29 128.407 249.296L134.391 247.867C133.516 231.9 131.282 209.981 127.876 185.858C125.696 170.407 127.798 156.073 125.416 143.535L102.871 147.722V147.73Z" fill="#1E2D54"/>
<path d="M89.8815 146.251C88.3973 153.29 88.1473 161.015 87.8973 170.272C87.5146 184.614 89.9513 191.16 89.7404 193.145C90.3341 196.824 91.0686 200.284 91.9435 203.464C90.4046 209.252 89.5062 216.158 89.5062 223.586C89.5062 232.453 90.0374 242.491 91.3263 250.982H98.6223C102.02 235.249 105.481 213.408 108.2 189.161C109.942 173.623 111.168 159.008 111.879 146.259H89.8655L89.8815 146.251Z" fill="#153F5E"/>
<path d="M111.386 160.824C119.583 160.824 126.228 155.749 126.228 149.489C126.228 143.229 119.583 138.154 111.386 138.154C103.189 138.154 96.5439 143.229 96.5439 149.489C96.5439 155.749 103.189 160.824 111.386 160.824Z" fill="#153F5E"/>
<path d="M97.0253 256.102H91.8936V248.54H97.9315L97.0253 256.102Z" fill="#EA9F88"/>
<path d="M99.2292 262.673V262.157C99.2292 261.618 99.1508 261.11 99.0102 260.696L97.7446 255.634C97.7446 255.634 96.5811 256.22 95.4485 255.978C94.308 255.736 94.3707 254.088 93.1599 253.275H92.6129C92.6129 253.275 91.4959 253.65 90.7226 255.298C90.1602 256.493 89.9644 258.899 89.605 259.688C89.191 260.587 88.7698 261.446 88.4417 262.094C88.0745 262.352 87.7849 262.743 87.6208 263.211C87.1834 263.211 87.0976 263.227 87.6132 263.251C87.5351 263.501 87.4805 263.766 87.4805 264.055V265.149H99.6274V264.055C99.6274 263.532 99.4715 263.055 99.2215 262.673H99.2292ZM94.855 261.766V261.782H94.5033V261.766H94.855Z" fill="#16415D"/>
<path d="M135.469 254.764L131.196 256.077L128.985 248.851L134.016 247.304L135.469 254.764Z" fill="#EA9F88"/>
<path d="M126.813 260.066L128.664 254.847C128.664 254.847 131.398 255.457 133.07 255.199C134.742 254.949 134.733 253.426 135.397 252.418H137.624C137.624 252.418 140.546 257.605 146.279 258.894H150.576C151.576 258.894 152.396 260.097 152.396 261.573V262.761H134.327L133.413 261.175H132.906V262.761H126.477V261.573C126.477 261.019 126.594 260.495 126.797 260.066H126.813Z" fill="#16415D"/>
<path d="M99.7168 79.3729C101.56 80.2556 103.646 80.7633 105.865 80.7633C108.403 80.7633 110.778 80.0993 112.794 78.9666C111.997 77.6387 111.52 75.9122 111.52 74.0218C111.52 71.444 112.411 69.1631 113.77 67.8038V64.5776H105.559C105.2 70.5926 102.982 75.8732 99.7168 79.3884V79.3729Z" fill="#EA9F86"/>
<path d="M117.934 59.6488C118.278 54.9462 113.153 54.4072 109.388 54.1338C106.966 53.9541 104.779 54.1416 103.193 56.5319C102.795 55.9617 101.92 56.9772 101.303 56.9538C100.022 56.9069 99.2168 57.3053 99.1465 59.1176C99.0762 60.9221 99.7717 63.453 101.053 63.5077C101.115 63.5077 101.178 63.4921 101.233 63.4921C101.28 64.9685 100.733 66.0933 101.366 67.2963C102.608 69.6554 105.709 71.624 107.951 72.2723C115.262 74.3893 117.582 64.367 117.926 59.6644L117.934 59.6488Z" fill="#EBB190"/>
<path d="M123.049 54.8832C123.448 51.1024 122.276 48.673 116.214 47.9543C112.183 47.4778 105.356 47.4388 101.036 48.2981C96.6307 49.173 97.2556 52.6023 97.4274 54.0865C97.8492 57.7501 98.9348 63.1479 100.724 63.726C101.138 63.8588 101.489 63.7729 101.802 63.5463C101.208 63.1792 100.7 62.4995 100.458 61.6402C100.06 60.1951 100.567 58.8281 101.606 58.5782C102.458 58.3751 103.38 58.9921 103.911 60.0076C105.278 57.4298 107.332 54.8754 112.402 57.2189C117.948 59.7732 122.643 58.664 123.042 54.8832H123.049Z" fill="#1C3054"/>
<path d="M102.992 109.736C114.491 109.736 125.443 109.134 135.403 108.04C134.856 93.8467 126.247 81.981 114.507 77.9814C112.679 79.575 109.96 80.5826 106.929 80.5826C103.578 80.5826 100.617 79.3484 98.8124 77.4658C86.0561 80.8951 76.5341 93.4719 76.1748 108.587C84.5879 109.329 93.6102 109.736 103 109.736H102.992Z" fill="#729EDB"/>
<path d="M134.753 107.401L135.393 118.502C129.394 119.923 125.551 122.447 124.27 126.36C121.997 123.876 120.7 119.705 120.365 113.862C120.286 112.51 120.263 110.424 120.365 109.151L134.753 107.409V107.401Z" fill="#EA9F87"/>
<path d="M124.239 126.577C125.286 120.077 129.433 118.851 134.698 118.234L157.836 116.898C158.461 115.757 160 114.812 162.008 114.328C162.375 114.242 162.843 114.773 162.859 115.132C162.953 116.765 161.898 118.288 165.101 118.195C166.577 118.156 169.522 117.984 171.092 117.687C171.491 117.609 172.842 117.632 172.014 118.827C170.709 120.71 167.546 123.202 164.117 123.296C161.945 123.358 160.258 122.514 159.125 121.382C151.727 124.694 138.237 128.444 130.574 128.67C128.004 128.748 125.894 128.045 124.23 126.577H124.239Z" fill="#EFB290"/>
<path d="M90.4888 148.407C90.9106 148.407 124.813 148.407 125.617 148.407C126.422 148.407 126.265 146.165 126.156 145.844C125.484 143.829 124.789 143.282 124.344 141.001C123.633 137.377 123.235 133.439 123.235 129.245C123.235 116.004 127.219 103.49 132.453 96.1077C128.984 87.5072 122.305 80.8595 114.095 78.063C112.267 79.6565 109.549 80.6642 106.518 80.6642C103.167 80.6642 100.206 79.43 98.4018 77.5474C88.7857 80.133 80.9977 87.929 77.5996 98.0841C85.1925 101.435 90.9259 116.762 90.9259 135.182C90.9259 138.064 90.7772 140.861 90.5116 143.556C90.3632 145.024 89.7461 145.657 89.6679 146.18C89.457 147.641 90.0822 148.407 90.504 148.407H90.4888Z" fill="#729EDB"/>
<path d="M91.447 107.506L91.0327 120.801C84.471 122.09 80.1125 124.84 78.3549 129.425C76.1676 126.3 75.1992 121.239 75.4179 114.231C75.4726 112.607 75.6519 110.123 75.8863 108.607L91.447 107.506Z" fill="#EA9F87"/>
<path d="M78.3008 129.685C80.0584 121.998 84.6281 120.819 90.3149 120.436L115.187 120.42C115.976 119.1 117.71 118.077 119.905 117.639C120.311 117.561 120.749 118.233 120.741 118.655C120.679 120.608 119.405 122.358 122.835 122.467C124.42 122.514 127.584 122.514 129.295 122.264C129.725 122.201 131.17 122.318 130.17 123.693C128.584 125.857 124.96 128.607 121.281 128.49C118.953 128.419 117.226 127.294 116.132 125.865C107.891 129.31 93.0881 132.872 84.8781 132.614C82.1206 132.528 79.941 131.544 78.3084 129.677L78.3008 129.685Z" fill="#EFB290"/>
<path d="M167.115 10.5155V18.2802H168.795V10.5155C168.795 9.95311 168.42 9.5 167.959 9.5C167.498 9.5 167.123 9.95311 167.123 10.5155H167.115Z" fill="#E5803C"/>
<path d="M167.119 44.4498C167.119 45.0123 167.494 45.4654 167.955 45.4654C168.416 45.4654 168.79 45.0123 168.79 44.4498V37.1538H167.111V44.4498H167.119Z" fill="#E5803C"/>
<path d="M149.971 27.4808C149.971 27.9417 150.424 28.3166 150.986 28.3166H158.751V26.6372H150.986C150.424 26.6372 149.971 27.0121 149.971 27.473V27.4808Z" fill="#E5803C"/>
<path d="M184.92 26.6484H177.624V28.328H184.92C185.482 28.328 185.935 27.953 185.935 27.4922C185.935 27.0313 185.482 26.6563 184.92 26.6563V26.6484Z" fill="#E5803C"/>
<path d="M155.361 16.0807L160.852 21.5722L162.039 20.3849L156.548 14.8933C156.149 14.4949 155.564 14.4402 155.236 14.7683C154.907 15.0964 154.962 15.6823 155.361 16.0807Z" fill="#E5803C"/>
<path d="M179.356 40.0757C179.755 40.4741 180.34 40.5288 180.668 40.2007C180.996 39.8726 180.942 39.2867 180.543 38.8883L175.38 33.7249L174.192 34.9122L179.356 40.0757Z" fill="#E5803C"/>
<path d="M155.236 40.1985C155.564 40.5266 156.149 40.4719 156.548 40.0735L162.039 34.5819L160.852 33.3945L155.361 38.8861C154.962 39.2845 154.907 39.8704 155.236 40.1985Z" fill="#E5803C"/>
<path d="M179.356 14.8933L174.192 20.0568L175.38 21.2441L180.543 16.0807C180.942 15.6823 180.996 15.0964 180.668 14.7683C180.34 14.4402 179.755 14.4949 179.356 14.8933Z" fill="#E5803C"/>
<path d="M191.932 135.199H184.823V130.942H191.932V123.404H196.299V130.942H203.407V135.199H196.299V142.737H191.932V135.199Z" fill="#729EDB"/>
<defs>
<linearGradient id="paint0_linear_248_63723" x1="190.711" y1="10.4312" x2="190.711" y2="272.259" gradientUnits="userSpaceOnUse">
<stop stop-color="#F6FBFF"/>
<stop offset="1" stop-color="#EAF0F9"/>
</linearGradient>
</defs>
</svg>
