<svg width="195" height="146" viewBox="0 0 195 146" fill="none" xmlns="http://www.w3.org/2000/svg">
<g clip-path="url(#clip0_248_64087)">
<path d="M56.5733 53.5422C56.8711 53.6802 57.1795 53.8111 57.5765 53.6837C57.9699 53.5598 58.3313 53.2025 58.7531 52.8486C60.5076 51.3872 59.6572 50.9484 59.1715 50.4884C58.8632 50.1947 58.3526 50.2124 58.3526 50.2124C58.0584 50.3681 57.2503 50.8776 56.9915 51.182C56.2719 52.0241 54.9818 52.7849 56.5733 53.5422ZM47.4104 34.5439C46.9851 34.3599 46.358 33.5779 45.6703 34.5616C45.4257 34.9083 45.2056 36.2742 44.9752 36.759C44.6917 37.3605 43.6499 38.4327 43.6924 38.9493C43.7349 39.4659 43.7456 40.4638 44.5041 40.57C45.5392 40.7115 45.7483 40.2904 46.1594 40.0179C46.5671 39.7455 46.9178 38.8396 47.2013 38.2381C47.4849 37.6365 47.974 36.7837 48.0165 36.3414C48.0803 35.6656 47.8109 34.7208 47.4104 34.5474M29.9925 73.0571C34.7706 73.8249 42.3915 69.2673 45.5107 67.2681C47.96 65.697 51.0294 61.6029 48.7254 60.6015C46.4215 59.5965 42.9621 64.6142 39.0595 67.0027C34.3842 69.8653 30.9993 70.6261 25.4662 68.8144C22.7759 67.9298 18.0439 60.0743 18.3629 57.0205C25.9164 60.5803 31.6477 59.7558 35.5219 58.8004C38.0846 58.1705 40.6332 56.6596 39.2721 54.1154C37.911 51.5677 34.8592 53.5528 31.8108 54.1154C26.6286 55.085 22.6233 53.1989 20.2023 51.8189C17.4092 50.223 16.3103 44.8091 18.1251 40.2409C22.1978 44.7206 30.127 44.388 32.392 43.4715C34.657 42.5586 33.7957 40.6089 31.6938 39.6676C30.1023 38.9564 21.4358 35.1454 20.5886 34.1865C17.4304 30.6126 19.5678 23.8222 18.9652 19.9864C23.5696 20.2907 29.0461 18.6276 31.4671 21.4195C32.3072 22.3891 36.9823 30.885 37.8259 32.4703C38.9389 34.5686 40.8745 35.2657 41.4912 32.7958C42.108 30.326 41.5763 21.9751 36.9151 18.1888C41.0304 15.7968 47.095 15.0643 48.8992 17.8173C50.4659 20.2093 51.1396 25.3685 50.7816 30.8992C50.576 34.1546 49.9451 38.7051 52.4936 39.8552C55.0422 41.0087 55.5949 37.3251 56.2826 34.4271C56.9206 31.7484 56.9348 24.1725 52.7664 16.6354C55.6127 15.9737 62.5885 19.6361 63.9851 22.2228C66.0232 26.0019 66.6683 30.977 63.9283 37.3216C62.0568 41.6492 58.2038 45.7645 59.3948 48.0716C60.5929 50.3823 63.6056 46.0405 65.4275 43.2026C67.0332 40.7044 70.0355 28.3833 68.8374 26.0727C73.2717 26.6282 76.958 31.0726 78.1596 34.6394C80.0134 40.1206 76.7382 44.8374 74.0692 47.7107C71.1839 50.821 65.6085 55.0142 68.5363 56.1005C75.6077 58.7225 80.0456 45.3151 81.1763 43.284C88.0102 48.4219 86.2875 59.5081 77.8868 63.2023C72.7827 65.4457 67.9231 62.7069 65.5234 64.37C64.9456 63.7791 35.9545 36.444 34.5084 35.0216C32.807 33.3514 28.1778 29.3741 27.5078 29.2184C27.7276 29.9013 31.9738 34.3316 33.7319 35.931C35.2242 37.2933 63.9 65.3891 64.5168 65.934C63.2053 68.6233 67.1147 71.3268 65.1935 76.7867C63.1448 82.6075 56.8603 90.2578 45.8437 83.0109C47.6408 81.6097 52.4226 77.9119 54.8789 75.6225C56.8285 73.8072 58.9409 70.5306 57.2608 69.331C54.6733 67.491 51.111 74.2743 48.488 77.6288C46.0635 80.7321 43.9297 82.8234 39.8463 82.6075C37.5707 82.4872 30.5065 77.5545 29.9748 73.0642M57.4879 65.3431C57.1405 66.4224 57.736 66.8505 58.3456 67.0876C58.7001 67.2221 59.1751 67.4662 59.526 67.0876C59.7812 66.8116 60.1992 65.5236 60.3481 65.0706C60.497 64.6106 60.5395 64.1577 60.497 63.7649C60.4367 63.2377 60.5893 62.7175 60.2384 62.5831C59.9477 62.4734 59.4194 62.576 58.9445 62.9263C58.5794 63.1952 57.6721 64.7734 57.4913 65.3431M44.7416 49.5507C43.8306 50.1523 41.959 51.9251 41.8526 52.5903C41.523 54.6816 43.0721 55.2159 43.4868 55.2088C43.9015 55.1982 44.7662 53.5209 45.1774 53.1565C45.507 52.8698 46.3048 52.7566 46.4395 52.6292C47.042 52.0489 46.8932 50.7503 46.6025 50.2796C46.2445 49.7029 45.656 48.9421 44.7451 49.5507" fill="#D9E7F4"/>
<path d="M176.993 59.403C177.156 59.3853 177.316 59.3711 177.476 59.3499C177.546 59.3428 177.614 59.3322 177.681 59.3216C177.805 59.3039 177.933 59.2898 178.053 59.2721C178.16 59.2579 178.259 59.2402 178.358 59.2225C178.44 59.2084 178.525 59.1978 178.603 59.1801C178.783 59.1482 178.957 59.1128 179.124 59.0739C178.723 58.8333 178.312 58.5962 177.897 58.3627C177.748 58.2778 177.596 58.1964 177.447 58.115C177.174 57.9628 176.901 57.8142 176.625 57.6656C176.458 57.5771 176.288 57.4887 176.121 57.4037C175.852 57.2622 175.583 57.1242 175.31 56.9862C175.143 56.9013 174.976 56.8234 174.81 56.7385C174.526 56.6005 174.243 56.4625 173.956 56.328C173.885 56.2962 173.818 56.2608 173.75 56.2289C173.764 56.236 173.782 56.2466 173.796 56.2537C169.451 54.2297 164.825 52.7683 160.848 52.7011C160.869 52.7011 160.894 52.694 160.915 52.694C160.802 52.694 160.695 52.694 160.582 52.694C160.493 52.694 160.408 52.694 160.32 52.694C160.043 52.6975 159.767 52.7081 159.498 52.7293C159.483 52.7081 159.473 52.6869 159.444 52.6763C158.796 52.4109 158.14 52.1667 157.512 51.8447C158.615 50.9282 159.71 50.0047 160.791 49.0634C161.56 49.3182 162.347 49.6013 163.159 49.5907C163.301 49.6862 163.446 49.7782 163.591 49.8632C163.648 49.895 163.701 49.9269 163.758 49.9587C163.886 50.0295 164.01 50.0967 164.141 50.1604C164.205 50.1922 164.268 50.2241 164.332 50.2524C164.46 50.3125 164.591 50.3692 164.722 50.4258C164.782 50.4506 164.839 50.4753 164.896 50.5001C165.084 50.5744 165.272 50.6416 165.467 50.7018C165.477 50.7018 165.488 50.7089 165.498 50.7124C165.679 50.769 165.863 50.8221 166.051 50.8681C166.115 50.8858 166.183 50.8999 166.246 50.9141C166.381 50.9459 166.516 50.9743 166.65 50.999C166.725 51.0132 166.796 51.0273 166.87 51.0379C166.92 51.045 166.966 51.0556 167.016 51.0627C167.005 51.0627 166.994 51.0556 166.984 51.0521C171.22 51.7138 176.097 49.9622 179.974 48.0196C179.978 48.0196 179.982 48.0161 179.985 48.0125C180.609 47.7011 181.204 47.3827 181.772 47.0713C181.807 47.0536 181.842 47.0323 181.878 47.0147C182.133 46.8731 182.381 46.7316 182.622 46.59C182.679 46.5582 182.736 46.5228 182.792 46.4909C183.03 46.3529 183.264 46.2149 183.487 46.0805C183.278 46.0203 183.065 45.9602 182.853 45.9071C182.757 45.8823 182.658 45.8646 182.562 45.8399C182.441 45.8116 182.321 45.7833 182.201 45.7585C182.098 45.7373 181.991 45.7195 181.889 45.6983C181.768 45.6771 181.651 45.6523 181.53 45.6311C181.431 45.6134 181.329 45.5992 181.226 45.5851C181.098 45.5674 180.974 45.5462 180.846 45.5285C180.751 45.5143 180.655 45.5072 180.556 45.4966C180.421 45.4825 180.286 45.4648 180.148 45.4506C180.056 45.4435 179.964 45.4365 179.872 45.4294C179.73 45.4188 179.588 45.4046 179.443 45.3975C179.351 45.3905 179.262 45.3869 179.17 45.3834C179.025 45.3763 178.879 45.3692 178.73 45.3657C178.638 45.3657 178.546 45.3622 178.45 45.3586C178.305 45.3586 178.159 45.3515 178.014 45.3515C177.979 45.3515 177.947 45.3515 177.911 45.3515C177.918 45.3515 177.926 45.3515 177.933 45.3515C176.171 45.3515 174.367 45.5356 172.616 45.8611C172.616 45.8611 172.619 45.8611 172.623 45.8611C172.612 45.8611 172.605 45.8646 172.594 45.8682C172.403 45.9036 172.215 45.9425 172.028 45.9779C171.985 45.9885 171.939 45.9956 171.896 46.0026C171.701 46.0451 171.507 46.0876 171.312 46.13C171.276 46.1371 171.241 46.1442 171.202 46.1548C171 46.2008 170.801 46.2503 170.603 46.2999C170.574 46.3069 170.546 46.314 170.521 46.3211C170.312 46.3742 170.106 46.4273 169.904 46.4839C169.886 46.4874 169.865 46.4945 169.847 46.498C169.635 46.5582 169.426 46.6183 169.22 46.6785C169.21 46.6785 169.196 46.6856 169.185 46.6891C168.972 46.7528 168.759 46.82 168.554 46.8873C168.547 46.8873 168.54 46.8908 168.532 46.8943C166.448 47.5702 164.584 48.4194 163.152 49.3465C162.415 49.3501 161.698 49.1095 161 48.8759C162.383 47.6622 163.733 46.4166 165.027 45.0968C165.222 44.9765 165.417 44.8562 165.622 44.7358C165.782 44.6403 165.945 44.5448 166.108 44.4492C166.292 44.3395 166.48 44.2298 166.672 44.1202C167.207 43.8088 167.76 43.4903 168.334 43.1612C170.408 41.9652 172.68 40.6347 174.909 39.0388C177.043 37.5137 178.95 35.7162 180.492 33.9257C180.488 33.9328 180.481 33.9434 180.474 33.9504C180.524 33.8903 180.573 33.8337 180.623 33.7735C180.662 33.7275 180.698 33.6851 180.737 33.6391C180.928 33.4091 181.116 33.1791 181.297 32.9526C181.329 32.9137 181.36 32.8712 181.392 32.8323C181.566 32.6093 181.736 32.3864 181.899 32.1635C181.913 32.1458 181.927 32.1281 181.938 32.1104C182.101 31.884 182.257 31.661 182.41 31.4381C182.441 31.3886 182.477 31.3426 182.509 31.293C182.651 31.0807 182.785 30.8684 182.913 30.6632C182.945 30.6136 182.973 30.5641 183.005 30.5146C183.133 30.3058 183.253 30.097 183.363 29.8918C183.381 29.8599 183.395 29.8281 183.413 29.7962C183.516 29.6051 183.611 29.4176 183.7 29.2336C183.714 29.2018 183.732 29.1664 183.75 29.1345C183.842 28.9399 183.923 28.7524 183.998 28.5648C184.015 28.5224 184.029 28.4834 184.047 28.441C184.118 28.257 184.182 28.0801 184.235 27.9067C184.246 27.8748 184.253 27.843 184.264 27.8147C184.317 27.6342 184.363 27.4573 184.398 27.291C184.228 27.3617 184.047 27.4396 183.859 27.521C183.834 27.5316 183.81 27.5422 183.785 27.5528C183.622 27.6236 183.455 27.6979 183.278 27.7722C183.236 27.7899 183.193 27.8076 183.15 27.8288C182.955 27.9137 182.757 28.0057 182.551 28.0977C182.466 28.1367 182.374 28.1791 182.286 28.2216C182.179 28.2711 182.069 28.3207 181.96 28.3738C181.896 28.4056 181.836 28.4304 181.768 28.4622C181.775 28.4622 181.779 28.4587 181.786 28.4551C178.082 30.2279 172.786 33.3595 168.419 38.9893C168.43 38.9716 168.44 38.9575 168.451 38.9398C168.377 39.0353 168.302 39.1379 168.228 39.237C168.164 39.3184 168.104 39.4033 168.04 39.4847C167.88 39.7005 167.721 39.9164 167.565 40.1393C167.526 40.1924 167.487 40.2455 167.451 40.2985C167.253 40.5816 167.058 40.8682 166.867 41.1655C166.842 41.2044 166.817 41.2433 166.792 41.2823C166.629 41.5335 166.466 41.7918 166.307 42.0536C166.257 42.135 166.207 42.22 166.154 42.3049C166.019 42.5314 165.885 42.7578 165.754 42.9878C165.7 43.0798 165.647 43.1718 165.598 43.2674C165.467 43.508 165.335 43.7486 165.204 43.9963C165.162 44.0812 165.116 44.1626 165.073 44.2475C164.977 44.4351 164.882 44.6297 164.786 44.8208C163.833 45.7974 162.847 46.7351 161.844 47.6516C162.067 46.8059 162.323 46.0097 162.794 45.256C162.914 45.1357 163.035 45.0118 163.152 44.8809C163.205 44.8208 163.258 44.7641 163.311 44.7005C163.354 44.6509 163.4 44.6049 163.443 44.5554C163.436 44.5554 163.425 44.5695 163.418 44.5731C166.725 40.6736 168.405 33.7594 169.163 29.2053C169.273 28.5542 169.341 27.7828 169.38 27.0043C169.38 26.9583 169.383 26.9123 169.387 26.8663C169.394 26.6859 169.405 26.5019 169.408 26.3214C169.408 26.2471 169.412 26.1763 169.415 26.1056C169.415 26.0171 169.419 25.9322 169.422 25.8437C169.422 25.7659 169.422 25.6915 169.426 25.6137C169.426 25.5323 169.426 25.4545 169.429 25.3731C169.429 25.2315 169.429 25.0935 169.429 24.9591C169.429 24.8954 169.429 24.8317 169.429 24.768C169.429 24.6795 169.429 24.5946 169.429 24.5097C169.429 24.446 169.429 24.3858 169.429 24.3257C169.429 24.2302 169.429 24.1417 169.429 24.0497C169.429 24.0108 169.429 23.9683 169.429 23.9294C169.429 23.8055 169.426 23.6887 169.422 23.579C169.422 23.5366 169.422 23.5012 169.422 23.4623C169.422 23.3844 169.422 23.3066 169.415 23.2358C169.415 23.2075 169.415 23.1792 169.415 23.1509C169.415 23.066 169.412 22.9881 169.408 22.9173C169.408 22.9103 169.408 22.8997 169.408 22.8926C169.408 22.8147 169.404 22.7475 169.401 22.6909C169.401 22.6732 169.401 22.6626 169.401 22.6484C169.401 22.6095 169.401 22.5777 169.397 22.5529C169.397 22.5423 169.397 22.5387 169.397 22.5317C169.397 22.5104 169.397 22.4927 169.397 22.4927C169.266 22.5847 169.132 22.6874 169 22.797C168.958 22.8324 168.919 22.8678 168.877 22.9032C168.781 22.9881 168.685 23.0766 168.589 23.1686C168.55 23.204 168.515 23.2394 168.476 23.2783C168.352 23.4021 168.231 23.533 168.111 23.6711C168.068 23.7206 168.026 23.7701 167.987 23.8197C167.905 23.9188 167.824 24.0178 167.742 24.1205C167.693 24.1841 167.639 24.2514 167.59 24.3186C167.515 24.4212 167.437 24.5238 167.363 24.63C167.271 24.7609 167.179 24.8918 167.09 25.0299C167.044 25.1006 166.998 25.1678 166.952 25.2386C166.952 25.2386 166.955 25.2351 166.959 25.2315C164.265 29.4282 162.319 36.5973 162.163 41.6573C162.163 41.6573 162.163 41.6573 162.163 41.6538C162.163 41.6609 162.163 41.6715 162.163 41.6786C162.163 41.7458 162.163 41.8059 162.163 41.8732C162.163 42.036 162.159 42.1952 162.159 42.3509C162.159 42.4252 162.159 42.4995 162.159 42.5703C162.159 42.726 162.167 42.8817 162.174 43.0338C162.174 43.0904 162.177 43.147 162.181 43.2037C162.191 43.4089 162.205 43.6106 162.223 43.8052C162.223 43.8194 162.223 43.83 162.227 43.8441C162.244 44.0246 162.266 44.198 162.291 44.3678C162.298 44.4174 162.305 44.4634 162.312 44.5094C162.333 44.6474 162.358 44.7818 162.386 44.9092C162.397 44.9552 162.404 44.9977 162.415 45.0437C162.436 45.1357 162.457 45.2242 162.482 45.3126C162.021 46.1194 161.773 46.9793 161.539 47.8851C161.536 47.9028 161.536 47.9205 161.539 47.9382C160.203 49.1448 158.835 50.3161 157.452 51.4696C157.353 50.8964 157.222 50.3302 157.154 49.7535C157.232 49.527 157.311 49.297 157.385 49.0634C157.413 48.975 157.442 48.8865 157.466 48.7981C157.576 48.4442 157.679 48.0868 157.775 47.7153C157.775 47.7082 157.775 47.7047 157.778 47.7011C158.707 44.1661 159.161 39.8775 159.04 35.9532C159.058 33.3949 158.424 30.4084 157.991 27.9279C157.899 27.3723 157.771 26.8097 157.619 26.2542C157.619 26.2542 157.619 26.2613 157.622 26.2648C157.569 26.0631 157.509 25.8649 157.449 25.6668C157.431 25.6066 157.41 25.5465 157.392 25.4863C157.339 25.3165 157.282 25.1502 157.225 24.9874C157.201 24.9166 157.176 24.8494 157.151 24.7786C157.087 24.6017 157.02 24.4283 156.949 24.2549C156.935 24.216 156.921 24.1771 156.903 24.1381C156.818 23.9329 156.733 23.7383 156.64 23.5437C156.616 23.4906 156.591 23.4411 156.566 23.388C156.499 23.2429 156.428 23.1049 156.357 22.9704C156.329 22.9174 156.3 22.8643 156.272 22.8147C156.176 22.6413 156.081 22.475 155.985 22.3193C155.893 22.6272 155.793 22.935 155.694 23.25C155.581 23.6074 155.467 23.9683 155.354 24.3328C155.343 24.3717 155.329 24.4071 155.319 24.446C155.216 24.7751 155.116 25.1077 155.017 25.4439C155.01 25.4651 155.006 25.4828 154.999 25.504C154.9 25.8508 154.804 26.2011 154.719 26.5514C154.719 26.562 154.712 26.5762 154.709 26.5868C154.709 26.5832 154.709 26.5797 154.712 26.5762C154.51 27.3936 154.351 28.218 154.276 29.0496C154.035 31.6469 154.032 33.7381 153.947 36.2151C154.014 40.1216 154.694 43.876 156.038 47.5914C156.024 47.5596 156.006 47.5313 155.992 47.4959C156.059 47.6799 156.133 47.8639 156.201 48.0479C156.265 48.2213 156.329 48.3947 156.4 48.5681C156.559 48.9715 156.726 49.3713 156.899 49.7747C156.974 50.4045 157.126 51.0202 157.225 51.6501C156.584 52.1844 155.939 52.7187 155.294 53.2531C155.081 52.6692 154.861 52.0853 154.673 51.4979C154.648 51.183 154.62 50.8539 154.585 50.5213C154.57 50.3798 154.553 50.2347 154.539 50.0896C154.517 49.8844 154.492 49.6792 154.468 49.4704C154.446 49.3076 154.425 49.1448 154.404 48.9821C154.376 48.7733 154.344 48.561 154.312 48.3451C154.287 48.1859 154.265 48.0267 154.237 47.8639C154.23 47.8179 154.223 47.7719 154.216 47.7224C154.216 47.7294 154.216 47.7365 154.216 47.7436C153.606 44.0565 152.38 39.835 149.941 35.9002C149.948 35.9108 149.955 35.9214 149.966 35.932C149.867 35.7728 149.753 35.6135 149.651 35.4543C149.477 35.1854 149.307 34.9165 149.122 34.6511C148.988 34.4565 148.835 34.2689 148.694 34.0778C148.52 33.8443 148.353 33.6072 148.169 33.3772C147.956 33.1083 147.726 32.85 147.499 32.5881C147.368 32.4395 147.247 32.2838 147.116 32.1352C146.744 31.7247 146.358 31.3249 145.95 30.9321C145.911 31.0382 145.876 31.1479 145.844 31.2576C145.833 31.2966 145.822 31.339 145.815 31.378C145.798 31.4487 145.78 31.523 145.762 31.5973C145.752 31.6469 145.745 31.6964 145.734 31.7459C145.723 31.8132 145.709 31.8804 145.702 31.9512C145.695 32.0043 145.688 32.0609 145.681 32.1175C145.674 32.1847 145.667 32.252 145.66 32.3192C145.656 32.3793 145.652 32.436 145.649 32.4961C145.645 32.5633 145.642 32.6306 145.642 32.6978C145.642 32.758 145.642 32.8217 145.642 32.8854C145.642 32.9526 145.642 33.0198 145.642 33.0871C145.642 33.1508 145.642 33.218 145.649 33.2852C145.649 33.3524 145.656 33.4161 145.66 33.4834C145.663 33.5506 145.667 33.6214 145.674 33.6886C145.677 33.7523 145.684 33.816 145.691 33.8797C145.698 33.954 145.706 34.0283 145.716 34.1026C145.723 34.1486 145.73 34.1981 145.734 34.2441C145.776 34.5661 145.833 34.8917 145.9 35.2208C145.908 35.2597 145.915 35.2951 145.925 35.334C145.947 35.4366 145.971 35.5357 145.993 35.6383C146.003 35.6772 146.01 35.7162 146.021 35.7586C146.046 35.8613 146.07 35.9639 146.099 36.07C146.109 36.1089 146.117 36.1443 146.127 36.1833C146.156 36.2894 146.184 36.3991 146.216 36.5053C146.226 36.5371 146.234 36.569 146.244 36.6008C146.276 36.714 146.312 36.8308 146.347 36.944C146.354 36.9653 146.361 36.9865 146.365 37.0077C146.404 37.1351 146.443 37.259 146.485 37.3863C146.485 37.3863 146.485 37.3863 146.485 37.3899C146.517 37.4925 146.553 37.5951 146.588 37.6977C146.588 37.6977 146.588 37.6907 146.588 37.6871C147.255 39.6545 148.162 41.5689 148.924 42.9949C149.445 43.968 150.069 45.1003 150.742 46.2468C150.742 46.2468 150.739 46.2397 150.735 46.2397C150.749 46.2645 150.764 46.2857 150.778 46.3105C150.912 46.5405 151.051 46.7705 151.189 47.0005C151.196 47.0146 151.207 47.0288 151.214 47.0429C151.345 47.2623 151.48 47.4782 151.614 47.694C151.657 47.7613 151.696 47.825 151.738 47.8887C151.845 48.0585 151.951 48.2248 152.057 48.3911C152.1 48.4584 152.143 48.5221 152.185 48.5893C152.306 48.7733 152.429 48.9573 152.55 49.1342C152.575 49.1696 152.6 49.2085 152.624 49.2439C152.773 49.4598 152.919 49.6685 153.064 49.8702C153.092 49.9092 153.117 49.941 153.146 49.9799C153.263 50.1392 153.379 50.2984 153.496 50.447C153.539 50.5036 153.582 50.5567 153.624 50.6098C153.73 50.7442 153.833 50.8716 153.936 50.9955C153.975 51.045 154.017 51.0946 154.056 51.1406C154.191 51.2998 154.33 51.4555 154.461 51.5935C154.659 52.2092 154.893 52.8143 155.106 53.4229C154.602 53.8404 154.099 54.2545 153.596 54.672C153.071 55.1108 152.415 55.6522 151.671 56.2679C151.671 56.2537 151.671 56.2396 151.664 56.2254C151.387 55.5708 151.1 54.9268 150.675 54.35C150.579 54.1306 150.491 53.9006 150.409 53.6635C150.395 53.6246 150.381 53.5857 150.366 53.5467C150.285 53.3132 150.207 53.0726 150.133 52.8249C149.498 50.7442 149.02 48.2248 147.857 46.2928C146.836 44.6403 144.812 42.273 142.827 40.2915C142.827 40.2915 142.827 40.2915 142.831 40.2915C142.82 40.2809 142.81 40.2702 142.795 40.2561C142.742 40.203 142.689 40.1535 142.636 40.1004C142.512 39.9801 142.391 39.8598 142.267 39.7395C142.189 39.6652 142.115 39.5944 142.041 39.5201C141.938 39.421 141.831 39.3255 141.729 39.2264C141.654 39.1556 141.579 39.0884 141.505 39.0211C141.342 38.8725 141.183 38.7275 141.027 38.5894C140.973 38.5434 140.92 38.4974 140.867 38.4514C140.75 38.3524 140.637 38.2533 140.527 38.1613C140.463 38.1082 140.403 38.0587 140.339 38.0056C140.233 37.9207 140.13 37.8357 140.027 37.7543C139.974 37.7119 139.921 37.6694 139.868 37.6305C139.719 37.5137 139.57 37.404 139.432 37.305C139.396 37.4748 139.371 37.6482 139.35 37.8251C139.343 37.8994 139.34 37.9773 139.336 38.0551C139.329 38.1542 139.322 38.2533 139.318 38.3559C139.318 38.4444 139.318 38.5364 139.322 38.6248C139.322 38.7168 139.322 38.8053 139.329 38.8973C139.336 38.9928 139.347 39.0884 139.357 39.1804C139.368 39.2688 139.375 39.3608 139.389 39.4493C139.403 39.5448 139.421 39.6404 139.439 39.7395C139.456 39.8315 139.471 39.9235 139.492 40.0155C139.513 40.111 139.535 40.2065 139.559 40.3056C139.584 40.4012 139.605 40.4967 139.634 40.5922C139.659 40.6878 139.687 40.7833 139.719 40.8789C139.75 40.9779 139.779 41.077 139.814 41.1761C139.846 41.2716 139.878 41.3636 139.914 41.4592C139.932 41.5052 139.946 41.5512 139.96 41.5936C139.96 41.5866 139.956 41.5759 139.953 41.5689C141.051 44.4952 143.423 47.5844 145.823 50.1285C145.823 50.1285 145.822 50.1285 145.819 50.125C145.826 50.1321 145.833 50.1392 145.84 50.1462C146.028 50.3444 146.216 50.5426 146.404 50.7336C146.453 50.7867 146.503 50.8363 146.553 50.8858C146.698 51.0309 146.84 51.1759 146.981 51.3175C147.038 51.3741 147.095 51.4307 147.152 51.4873C147.294 51.6253 147.432 51.7598 147.573 51.8943C147.623 51.9403 147.673 51.9898 147.719 52.0358C147.9 52.2092 148.081 52.379 148.258 52.5418L148.265 52.5489C148.449 52.7187 148.626 52.878 148.804 53.0372C148.85 53.0797 148.896 53.1186 148.942 53.1611C149.069 53.2743 149.193 53.3804 149.317 53.4866C149.374 53.5361 149.427 53.5821 149.484 53.6281C149.601 53.7272 149.715 53.8228 149.824 53.9148C149.874 53.9537 149.924 53.9961 149.97 54.0351C150.126 54.1624 150.274 54.2828 150.42 54.3995C150.423 54.4102 150.427 54.4172 150.434 54.4278C150.881 55.0082 151.161 55.6699 151.441 56.328C151.455 56.367 151.483 56.3882 151.512 56.3953C150.788 56.9933 149.98 57.662 149.112 58.3768C149.105 58.3768 149.105 58.3697 149.101 58.3662C148.35 58.069 147.545 57.8036 146.907 57.2976C146.847 57.149 146.78 57.0003 146.709 56.8482C146.687 56.8057 146.67 56.7633 146.648 56.7208C146.553 56.5226 146.453 56.3174 146.344 56.1122C146.319 56.0662 146.294 56.0166 146.266 55.9706C146.152 55.7619 146.035 55.5531 145.907 55.3408C145.9 55.3266 145.893 55.3125 145.883 55.2983C145.752 55.0789 145.613 54.8595 145.468 54.6331C145.436 54.5871 145.408 54.5375 145.376 54.4915C145.23 54.2686 145.078 54.0492 144.922 53.8228C144.89 53.7803 144.862 53.7343 144.83 53.6918C144.664 53.4583 144.493 53.2248 144.316 52.9912C144.316 52.9912 144.316 52.9912 144.316 52.9877C144.135 52.7506 143.947 52.5135 143.756 52.2764C143.724 52.234 143.689 52.195 143.657 52.1526C143.469 51.9226 143.277 51.6926 143.079 51.4661C143.065 51.4519 143.054 51.4343 143.04 51.4201C143.04 51.4201 143.04 51.4236 143.044 51.4272C141.665 49.8419 140.062 48.3204 138.386 47.0925C138.397 47.0996 138.407 47.1066 138.414 47.1102C138.358 47.0677 138.301 47.0323 138.248 46.9899C138.17 46.9333 138.095 46.8802 138.017 46.8271C137.925 46.7599 137.829 46.6962 137.737 46.6325C137.656 46.5794 137.578 46.5263 137.496 46.4733C137.404 46.4131 137.312 46.3529 137.216 46.2928C137.135 46.2397 137.053 46.1902 136.972 46.1406C136.879 46.084 136.784 46.0274 136.691 45.9708C136.61 45.9212 136.529 45.8752 136.447 45.8292C136.351 45.7762 136.259 45.7231 136.164 45.67C136.082 45.6276 136.004 45.5851 135.922 45.5426C135.827 45.4931 135.731 45.4436 135.639 45.3975C135.557 45.3586 135.476 45.3197 135.394 45.2808C135.302 45.2383 135.207 45.1923 135.114 45.1498C135.026 45.1109 134.937 45.0755 134.849 45.0366C134.764 45.0012 134.678 44.9623 134.593 44.9305C134.419 44.8632 134.249 44.7995 134.076 44.7394C134.15 44.9057 134.232 45.0791 134.313 45.256C134.338 45.3126 134.366 45.3692 134.395 45.4259C134.455 45.5533 134.519 45.6842 134.583 45.8186C134.615 45.8823 134.643 45.9425 134.675 46.0062C134.763 46.1866 134.856 46.3742 134.955 46.5617C134.98 46.6077 135.004 46.6573 135.029 46.7068C135.104 46.8554 135.182 47.004 135.263 47.1527C135.306 47.234 135.352 47.3154 135.394 47.3968C135.462 47.5242 135.533 47.648 135.604 47.7754C135.65 47.8568 135.696 47.9382 135.742 48.0231C135.852 48.2142 135.962 48.4088 136.075 48.6034C136.118 48.6742 136.164 48.7485 136.206 48.8228C136.288 48.9608 136.373 49.0988 136.458 49.2368C136.511 49.3253 136.568 49.4102 136.621 49.4987C136.706 49.6331 136.791 49.7676 136.879 49.9056C136.915 49.9622 136.951 50.0188 136.99 50.0755C136.986 50.0684 136.982 50.0648 136.979 50.0578C138.758 52.7789 141.066 55.4363 143.735 56.7067C143.852 56.7633 143.972 56.8163 144.089 56.8659C144.153 56.8942 144.217 56.919 144.28 56.9437C144.376 56.9827 144.476 57.018 144.571 57.0534C144.635 57.0747 144.699 57.0994 144.759 57.1171C144.883 57.156 145.007 57.195 145.135 57.2268C145.177 57.2374 145.22 57.2516 145.262 57.2622C145.408 57.2976 145.557 57.3294 145.706 57.3577C145.762 57.3683 145.819 57.3754 145.876 57.386C145.989 57.4037 146.106 57.4214 146.22 57.432C146.273 57.4391 146.329 57.4462 146.383 57.4497C146.5 57.4604 146.616 57.4639 146.733 57.471C147.361 57.9805 148.148 58.2565 148.903 58.5467C147.162 59.9798 145.188 61.5933 143.164 63.2423C142.64 62.7787 142.196 62.2444 141.736 61.7243C141.654 61.3987 141.569 61.0732 141.48 60.7476C141.456 60.6592 141.431 60.5743 141.406 60.4858C141.321 60.1956 141.232 59.9055 141.133 59.6118C141.115 59.5587 141.101 59.5021 141.083 59.449C141.083 59.4525 141.083 59.4561 141.083 59.4596C140.594 58.0371 139.921 56.6111 138.857 55.1674C137.078 52.7577 135.168 50.7761 132.693 48.8299C132.715 48.8441 132.743 48.8653 132.764 48.8794C132.704 48.8334 132.64 48.7839 132.58 48.7379C132.513 48.6848 132.442 48.6317 132.374 48.5787C132.045 48.3239 131.708 48.0691 131.354 47.8144C131.336 47.9311 131.318 48.0479 131.304 48.1682C131.304 48.1965 131.297 48.2213 131.293 48.2496C131.279 48.3734 131.269 48.4973 131.261 48.6211C131.261 48.6282 131.261 48.6353 131.261 48.6424C131.254 48.7627 131.251 48.883 131.251 49.0068C131.251 49.0351 131.251 49.0599 131.251 49.0882C131.251 49.2191 131.254 49.3536 131.265 49.4881C131.265 49.5058 131.265 49.5199 131.268 49.5376C131.279 49.6615 131.29 49.7889 131.307 49.9162C131.311 49.9445 131.315 49.9729 131.318 50.0012C131.339 50.1427 131.364 50.2878 131.396 50.4364C131.4 50.4576 131.407 50.4824 131.414 50.5072C131.446 50.6416 131.481 50.7761 131.52 50.9141C131.527 50.9424 131.534 50.9672 131.545 50.9955C131.591 51.1512 131.648 51.3104 131.708 51.4732C131.712 51.4838 131.715 51.4909 131.719 51.5015C131.719 51.5015 131.719 51.4944 131.719 51.4909C131.889 51.9367 132.112 52.4038 132.406 52.8957C134.196 55.914 136.872 59.265 140.07 61.1263C140.066 61.1263 140.059 61.1227 140.055 61.1192C140.066 61.1263 140.077 61.1298 140.087 61.1369C140.289 61.2536 140.492 61.3598 140.697 61.4659C140.747 61.4907 140.796 61.519 140.846 61.5438C141.08 61.657 141.317 61.7667 141.555 61.8623C142.019 62.386 142.469 62.9167 142.99 63.3874C137.847 67.5663 132.424 71.894 129.727 73.7906C129.535 73.9251 129.787 74.1975 129.975 74.0666C131.974 72.6583 135.692 69.7602 139.626 66.6145C140.02 67.2939 140.413 67.9945 141.027 68.5111C141.041 68.5218 141.052 68.5288 141.066 68.5324C141.069 68.5536 141.073 68.5748 141.08 68.5925C141.161 68.8331 141.25 69.0632 141.346 69.2896C141.36 69.325 141.378 69.3639 141.392 69.3993C141.484 69.6116 141.587 69.8169 141.693 70.0186C141.714 70.0575 141.732 70.0929 141.753 70.1282C141.863 70.3299 141.977 70.5245 142.101 70.7121C142.111 70.7298 142.122 70.7439 142.133 70.7616C142.25 70.9421 142.374 71.1155 142.498 71.2818C142.519 71.3101 142.537 71.3349 142.558 71.3632C142.657 71.4906 142.756 71.618 142.859 71.7383C142.852 71.7276 142.841 71.71 142.831 71.6958C144.585 73.8083 146.932 74.9972 148.268 76.0588C150.402 77.7573 152.607 78.38 154.354 78.7162C154.882 78.8188 155.368 78.8967 155.797 78.9675C155.79 78.879 155.772 78.787 155.751 78.695C155.744 78.6702 155.737 78.6419 155.73 78.6171C155.708 78.5393 155.68 78.4544 155.645 78.373C155.637 78.3553 155.63 78.3376 155.623 78.3164C155.581 78.2173 155.531 78.1147 155.474 78.012C155.457 77.9802 155.439 77.9483 155.417 77.9165C155.371 77.8351 155.322 77.7537 155.269 77.6688C155.247 77.637 155.226 77.6051 155.205 77.5697C155.134 77.4636 155.056 77.3539 154.971 77.2407C154.943 77.2053 154.914 77.1663 154.886 77.131C154.822 77.046 154.751 76.9611 154.68 76.8762C154.645 76.8337 154.609 76.7913 154.574 76.7488C154.475 76.6356 154.375 76.5188 154.266 76.3985C154.237 76.3666 154.205 76.3348 154.173 76.3029C154.085 76.2074 153.993 76.1119 153.901 76.0163C153.858 75.9703 153.812 75.9279 153.769 75.8819C153.66 75.7722 153.546 75.6589 153.429 75.5493C153.411 75.5316 153.394 75.5139 153.376 75.4997C153.238 75.3688 153.092 75.2343 152.944 75.0999C152.912 75.0715 152.88 75.0397 152.844 75.0114C152.678 74.8592 152.504 74.7106 152.327 74.5585C152.33 74.562 152.334 74.5655 152.337 74.5691C150.438 72.9484 148.041 71.2995 145.883 70.1035C145.886 70.1035 145.89 70.1035 145.894 70.1105C145.869 70.0964 145.844 70.0822 145.819 70.0681C145.797 70.0539 145.773 70.0433 145.752 70.0292C145.737 70.0221 145.72 70.0115 145.706 70.0044C145.706 70.0044 145.706 70.0044 145.702 70.0008C145.536 69.9124 145.376 69.8239 145.213 69.739C145.206 69.739 145.202 69.7319 145.195 69.7319C145.177 69.7249 145.16 69.7142 145.145 69.7036C145.142 69.7036 145.138 69.7001 145.135 69.7001C145.078 69.6682 145.018 69.6399 144.961 69.6116C144.961 69.6116 144.954 69.6116 144.951 69.6081C144.887 69.5762 144.83 69.5479 144.766 69.5161C144.688 69.4771 144.61 69.4382 144.532 69.3993C144.497 69.3816 144.458 69.3604 144.422 69.3462C144.415 69.3462 144.408 69.3391 144.401 69.3356C144.348 69.3108 144.295 69.2861 144.245 69.2613C144.242 69.2613 144.234 69.2578 144.234 69.2578C144.188 69.2365 144.146 69.2188 144.103 69.1976C144.078 69.187 144.057 69.1764 144.033 69.1658C143.987 69.1445 143.94 69.1233 143.898 69.1056C143.891 69.1056 143.887 69.1021 143.88 69.0985C143.834 69.0773 143.784 69.0561 143.738 69.0384C143.728 69.0348 143.721 69.0313 143.71 69.0277C143.66 69.0065 143.611 68.9853 143.565 68.9676C143.565 68.9676 143.557 68.9676 143.554 68.9605C143.501 68.9393 143.447 68.9181 143.394 68.8968C143.345 68.8756 143.295 68.8579 143.249 68.8402C143.238 68.8367 143.228 68.8331 143.217 68.8261C143.178 68.8119 143.139 68.7942 143.097 68.7801C143.086 68.7765 143.075 68.7694 143.065 68.7659C143.061 68.7659 143.058 68.7659 143.054 68.7624C143.04 68.7588 143.029 68.7518 143.015 68.7482C142.987 68.7376 142.955 68.727 142.927 68.7164C142.877 68.6987 142.831 68.681 142.781 68.6668C142.774 68.6668 142.763 68.6597 142.756 68.6562C142.717 68.6456 142.682 68.6314 142.643 68.6173C142.632 68.6138 142.618 68.6102 142.608 68.6031C142.572 68.5925 142.537 68.5819 142.505 68.5713C142.494 68.5713 142.484 68.5642 142.473 68.5607C142.388 68.5324 142.299 68.5076 142.218 68.4864C142.204 68.4864 142.196 68.4793 142.182 68.4793C142.171 68.4793 142.161 68.4722 142.147 68.4722C142.133 68.4722 142.122 68.4651 142.108 68.4616C142.101 68.4616 142.097 68.4616 142.09 68.4581C142.079 68.4581 142.065 68.451 142.051 68.4474C142.019 68.4404 141.991 68.4333 141.962 68.4262C141.955 68.4262 141.941 68.4227 141.93 68.4191C141.891 68.4121 141.853 68.405 141.817 68.3944C141.81 68.3944 141.803 68.3944 141.799 68.3944C141.767 68.3873 141.739 68.3838 141.711 68.3767C141.696 68.3767 141.686 68.3767 141.675 68.3731C141.651 68.3696 141.626 68.366 141.601 68.3625C141.59 68.3625 141.58 68.3625 141.569 68.359C141.541 68.3554 141.512 68.3519 141.484 68.3484C141.477 68.3484 141.47 68.3484 141.466 68.3484C141.434 68.3484 141.399 68.3448 141.367 68.3413C141.36 68.3413 141.349 68.3413 141.342 68.3413C141.317 68.3413 141.296 68.3413 141.271 68.3413C141.261 68.3413 141.25 68.3413 141.239 68.3413C141.221 68.3413 141.204 68.3413 141.186 68.3413C140.594 67.8317 140.215 67.1453 139.829 66.4836C141.257 65.3406 142.71 64.1694 144.117 63.0264C144.674 63.5324 145.301 63.9323 145.907 64.3711C146.042 64.5798 146.177 64.7851 146.312 64.9868C146.358 65.054 146.4 65.1212 146.446 65.1849C146.638 65.4609 146.833 65.7334 147.031 65.9953C147.067 66.0413 147.102 66.0872 147.138 66.1332C147.322 66.3739 147.506 66.6074 147.698 66.8339C147.733 66.8763 147.769 66.9188 147.8 66.9613C148.01 67.2125 148.222 67.4567 148.442 67.6973C148.488 67.7504 148.538 67.8034 148.584 67.853C148.793 68.0794 149.006 68.3059 149.222 68.5288C150.016 69.3462 150.867 70.1353 151.788 70.9598C152.43 71.533 152.936 71.9683 153.447 72.3433C153.44 72.3433 153.436 72.3363 153.429 72.3327C153.465 72.3575 153.497 72.3823 153.532 72.407C153.567 72.4318 153.603 72.4601 153.642 72.4849C153.755 72.5627 153.869 72.637 153.985 72.7114C154.017 72.7326 154.053 72.7538 154.088 72.775C154.209 72.8494 154.333 72.9201 154.461 72.9909C154.493 73.0086 154.528 73.0263 154.564 73.0475C154.698 73.1218 154.84 73.1926 154.989 73.2634C155.017 73.2775 155.045 73.2917 155.074 73.3023C155.237 73.3801 155.407 73.458 155.591 73.5358C157.296 74.2683 158.842 74.5903 160.256 74.5797C159.738 73.7057 159.274 72.9838 158.48 71.9152C158.406 71.8126 158.321 71.7064 158.229 71.6003C158.204 71.5684 158.175 71.5401 158.147 71.5083C158.076 71.4269 158.002 71.3419 157.924 71.2606C157.895 71.2287 157.867 71.2004 157.838 71.1686C157.732 71.0589 157.626 70.9456 157.509 70.8359C157.509 70.8359 157.509 70.8359 157.505 70.8324C157.381 70.7121 157.254 70.5918 157.123 70.4715C157.098 70.4467 157.07 70.4255 157.045 70.4007C156.938 70.3016 156.828 70.2026 156.715 70.107C156.687 70.0822 156.655 70.0539 156.626 70.0292C156.499 69.9195 156.371 69.8098 156.24 69.7001C156.229 69.693 156.219 69.6824 156.212 69.6753C156.073 69.5585 155.932 69.4418 155.79 69.325C155.747 69.2896 155.705 69.2578 155.666 69.2224C155.574 69.1481 155.485 69.0773 155.393 69.0065C155.361 68.9817 155.329 68.957 155.301 68.9322C155.301 68.9322 155.304 68.9357 155.308 68.9393C154.673 68.4404 154.06 67.9874 153.575 67.6477C152.529 66.8622 151.508 66.2713 150.487 65.7936C150.491 65.7936 150.498 65.7935 150.501 65.7971C150.491 65.79 150.48 65.7865 150.466 65.7829C150.09 65.606 149.715 65.4468 149.335 65.2982C149.328 65.2982 149.324 65.2946 149.317 65.2911C148.537 64.9832 147.751 64.7214 146.953 64.4737C146.953 64.4737 146.946 64.4737 146.943 64.4737C146.656 64.3852 146.368 64.2968 146.078 64.2083C145.482 63.7731 144.858 63.3838 144.309 62.8884C145.826 61.657 147.279 60.4681 148.594 59.3818C149.154 59.8878 149.789 60.2912 150.395 60.737C150.771 61.6004 152.008 63.4829 153.89 65.4255C153.918 65.4574 153.947 65.4857 153.979 65.5175C154.074 65.6166 154.177 65.7157 154.276 65.8148C154.337 65.8749 154.397 65.9351 154.461 65.9988C154.535 66.0731 154.613 66.1439 154.691 66.2182C154.772 66.2925 154.851 66.3703 154.932 66.4446C154.932 66.4446 154.925 66.4376 154.925 66.434C156.307 67.7079 157.948 68.9358 159.788 69.8381C159.788 69.8381 159.785 69.8381 159.781 69.8381C160.238 70.061 160.706 70.2662 161.185 70.4467C161.241 70.4679 161.298 70.4856 161.351 70.5033C161.536 70.5706 161.716 70.6342 161.904 70.6944C162.082 70.751 162.262 70.797 162.439 70.8466C162.507 70.8642 162.571 70.8855 162.642 70.9032C163.638 71.158 164.673 71.2995 165.743 71.296C165.477 70.935 165.201 70.5847 164.921 70.2415C164.85 70.1566 164.779 70.0681 164.708 69.9867C164.435 69.6612 164.155 69.3427 163.868 69.0348C163.811 68.9711 163.751 68.911 163.691 68.8508C163.443 68.589 163.187 68.3307 162.932 68.083C162.858 68.0087 162.783 67.9379 162.709 67.8636C162.415 67.584 162.117 67.3186 161.819 67.0603C161.738 66.9896 161.653 66.9223 161.571 66.8516C161.309 66.6322 161.047 66.4199 160.781 66.2146C160.717 66.1651 160.657 66.1156 160.593 66.066C160.582 66.0589 160.572 66.0483 160.561 66.0412C160.561 66.0412 160.568 66.0483 160.571 66.0519C159.501 65.2415 158.42 64.5586 157.378 64.0208C154.914 62.7504 152.915 61.7349 151.678 61.1192C151.636 61.0979 151.597 61.0803 151.558 61.059C151.476 61.0201 151.398 60.9812 151.324 60.9422C151.263 60.9139 151.207 60.8856 151.15 60.8573C151.097 60.8326 151.051 60.8078 151.001 60.7866C150.948 60.7618 150.895 60.7335 150.845 60.7122C150.803 60.691 150.764 60.6733 150.725 60.6556C150.689 60.6379 150.65 60.6202 150.618 60.6061C150.618 60.6061 150.618 60.6026 150.611 60.599C149.998 60.139 149.349 59.7392 148.782 59.2261C150.523 57.7894 151.997 56.558 152.983 55.7088C153.66 56.1086 154.297 56.5863 155.003 56.9331C155.01 56.9331 155.014 56.9331 155.021 56.9331C155.127 57.0746 155.233 57.2162 155.35 57.3577C155.389 57.4073 155.428 57.4568 155.471 57.5063C155.62 57.6868 155.772 57.8708 155.935 58.0548C155.946 58.069 155.956 58.0796 155.971 58.0937C156.13 58.2742 156.3 58.4511 156.47 58.6316C156.517 58.6811 156.566 58.7307 156.616 58.7802C156.8 58.9678 156.988 59.1553 157.183 59.3428C157.186 59.3464 157.193 59.3535 157.201 59.357C157.395 59.5445 157.598 59.7285 157.803 59.9125C157.853 59.955 157.899 59.9975 157.949 60.0435C158.377 60.4256 158.831 60.7972 159.302 61.1652C159.345 61.2006 159.391 61.2324 159.434 61.2678C162.624 63.72 166.597 65.7192 170.035 65.9209C170.035 65.9209 170.032 65.9209 170.028 65.9209C170.05 65.9209 170.071 65.9209 170.092 65.9209C170.312 65.9316 170.528 65.9351 170.744 65.9315C170.819 65.9315 170.897 65.928 170.971 65.9245C171.209 65.9139 171.443 65.8997 171.673 65.8679C171.638 65.79 171.595 65.7086 171.545 65.6272C171.531 65.606 171.513 65.5812 171.499 65.5565C171.46 65.4963 171.421 65.4362 171.375 65.3725C171.354 65.3442 171.329 65.3123 171.308 65.284C171.262 65.2239 171.212 65.1637 171.162 65.1035C171.138 65.0717 171.109 65.0398 171.081 65.008C171.028 64.9478 170.968 64.8842 170.907 64.8205C170.879 64.7886 170.847 64.7568 170.815 64.7249C170.748 64.6577 170.673 64.5869 170.599 64.5161C170.571 64.4878 170.546 64.4631 170.514 64.4348C170.408 64.3357 170.298 64.2402 170.184 64.1375C170.078 64.0455 169.964 63.95 169.847 63.8544C169.847 63.8544 169.848 63.858 169.851 63.8615C168.416 62.6974 166.321 61.3952 164.045 60.2133C164.045 60.2133 164.052 60.2133 164.056 60.2169C164.027 60.2027 163.995 60.185 163.967 60.1709C163.836 60.1036 163.701 60.0364 163.57 59.9692C163.499 59.9338 163.432 59.8984 163.361 59.863C163.23 59.7958 163.095 59.7321 162.96 59.6648C162.893 59.6295 162.822 59.5976 162.755 59.5658C162.62 59.4985 162.482 59.4348 162.347 59.3711C162.284 59.3428 162.22 59.311 162.156 59.2827C162.011 59.2155 161.869 59.1482 161.723 59.081C161.684 59.0633 161.642 59.0456 161.603 59.0279C161.061 58.7838 160.518 58.5467 159.983 58.3273C159.965 58.3202 159.948 58.3131 159.93 58.306C159.785 58.2459 159.636 58.1893 159.49 58.1291C159.43 58.1044 159.373 58.0831 159.313 58.0583C159.178 58.0053 159.047 57.9557 158.913 57.9062C158.842 57.8814 158.774 57.8531 158.704 57.8284C158.576 57.7824 158.452 57.7364 158.324 57.6904C158.25 57.662 158.175 57.6373 158.101 57.6125C157.98 57.5701 157.863 57.5311 157.743 57.4887C157.665 57.4639 157.587 57.4356 157.509 57.4108C157.396 57.3719 157.282 57.3365 157.169 57.3011C157.087 57.2764 157.006 57.2516 156.928 57.2268C156.821 57.195 156.715 57.1631 156.609 57.1313C156.524 57.1065 156.439 57.0817 156.353 57.0605C156.254 57.0322 156.158 57.0039 156.063 56.9791C155.963 56.9543 155.868 56.9296 155.772 56.9048C155.69 56.8836 155.609 56.8623 155.531 56.8446C155.411 56.8163 155.29 56.7916 155.173 56.7668C155.162 56.7526 155.163 56.7385 155.141 56.7314C154.454 56.3917 153.833 55.9352 153.181 55.5425C154.567 54.3535 155.967 53.1964 157.367 52.0358C158.026 52.3826 158.721 52.6409 159.409 52.924L159.554 53.3486C159.632 53.5644 159.728 53.7697 159.834 53.9749C159.869 54.0421 159.909 54.1058 159.944 54.1695C160.022 54.3075 160.103 54.442 160.188 54.5729C160.235 54.6402 160.277 54.7074 160.327 54.7711C160.426 54.9055 160.529 55.0365 160.639 55.1674C160.681 55.2169 160.717 55.2665 160.759 55.3125C164.049 58.9784 171.801 59.9338 176.951 59.4455C176.951 59.4455 176.944 59.4455 176.94 59.4455C176.976 59.4455 177.011 59.4384 177.047 59.4348L176.993 59.403Z" fill="#D9E7F4"/>
<path d="M150.398 18.8762H69.291V113.256H150.398V18.8762Z" fill="white"/>
<path d="M150.398 18.9333H69.291V33.5403H150.398V18.9333Z" fill="#DAE8EF"/>
<path d="M137.72 38.592H81.9746V40.2622H137.72V38.592Z" fill="#F29B00"/>
<path d="M137.717 42.3252H87.5469V43.9954H137.717V42.3252Z" fill="#BFD7E8"/>
<path d="M85.5971 42.3252H81.9746V43.9954H85.5971V42.3252Z" fill="#BFD7E8"/>
<path d="M137.72 46.6636H81.9746V48.3337H137.72V46.6636Z" fill="#BFD7E8"/>
<path d="M118.991 50.8777H81.9746V52.5479H118.991V50.8777Z" fill="#BFD7E8"/>
<path d="M132.145 58.7261H81.9746V60.3963H132.145V58.7261Z" fill="#F29B00"/>
<path d="M123.783 62.4592H81.9746V64.1294H123.783V62.4592Z" fill="#BFD7E8"/>
<path d="M137.72 66.7964H81.9746V68.4666H137.72V66.7964Z" fill="#BFD7E8"/>
<path d="M118.991 71.0107H81.9746V72.6809H118.991V71.0107Z" fill="#BFD7E8"/>
<path d="M132.145 79.1543H81.9746V80.8245H132.145V79.1543Z" fill="#F29B00"/>
<path d="M123.783 82.8833H81.9746V84.5535H123.783V82.8833Z" fill="#BFD7E8"/>
<path d="M137.72 87.2227H81.9746V88.8928H137.72V87.2227Z" fill="#BFD7E8"/>
<path d="M118.991 91.4409H81.9746V93.1111H118.991V91.4409Z" fill="#BFD7E8"/>
<path d="M134.874 24.5134H92.9453V28.3775H134.874V24.5134Z" fill="white"/>
<path d="M137.401 24.3584H128.391V28.5338H137.401V24.3584Z" fill="#F29B00"/>
<path d="M90.7336 25.48H78.3418V27.412H90.7336V25.48Z" fill="#2F61A8"/>
<path d="M150.398 20.015V16.5083C150.398 15.7192 149.753 15.0752 148.962 15.0752H70.7265C69.9361 15.0752 69.291 15.7192 69.291 16.5083V20.015H150.398Z" fill="#2F61A8"/>
<path d="M23.4316 81.484L49.9273 55.03L54.131 59.2267L31.8784 81.5866L23.4316 81.484Z" fill="#2F61A8"/>
<path d="M54.1211 59.1786L49.918 63.3745L66.8837 80.3113L71.0868 76.1154L54.1211 59.1786Z" fill="#2F61A8"/>
<path d="M87.8799 59.2709L83.6768 63.4668L93.0356 72.8097L97.2387 68.6138L87.8799 59.2709Z" fill="#2F61A8"/>
<path d="M83.7946 55.079L66.8965 71.9482L71.0997 76.1443L87.9978 59.2751L83.7946 55.079Z" fill="#2F61A8"/>
<path d="M110.778 46.7766L93.0098 64.5142L97.213 68.7102L114.981 50.9726L110.778 46.7766Z" fill="#2F61A8"/>
<path d="M115.083 55.0291L106.65 46.6994L119.592 42.064L115.083 55.0291Z" fill="#2F61A8"/>
<path opacity="0.4" d="M76.8028 109.696C86.286 109.095 93.5174 101.429 92.9546 92.5724C92.3917 83.7159 84.2478 77.0231 74.7646 77.6237C65.2814 78.2243 58.05 85.8908 58.6128 94.7473C59.1757 103.604 67.3196 110.297 76.8028 109.696Z" fill="#AAD3EF"/>
<path d="M105.162 116.256L108.171 111.709L91.6888 100.98L88.6797 105.524L105.162 116.256Z" fill="#2F61A8"/>
<path d="M73.7998 73.3584C78.0355 73.086 82.3882 74.1263 86.2092 76.6103C95.5634 82.7001 98.1654 95.1628 92.0155 104.444C88.3753 109.936 82.4911 113.085 76.3519 113.478L76.1145 109.738C81.1088 109.416 85.8976 106.854 88.8573 102.388C93.8587 94.8408 91.7426 84.7029 84.1289 79.7454C81.0238 77.725 77.479 76.8792 74.0372 77.0986L73.7998 73.3584ZM58.1399 82.3887C61.7767 76.8969 67.664 73.7512 73.8032 73.3584L74.0407 77.0986C69.0464 77.4171 64.2579 79.979 61.2982 84.4446C56.2968 91.9922 58.4091 102.137 66.0193 107.091C69.1279 109.115 72.669 109.957 76.1179 109.738L76.3554 113.478C72.1196 113.751 67.7635 112.71 63.9424 110.223C54.5918 104.133 51.9936 91.6702 58.1434 82.3852L58.1399 82.3887Z" fill="#729EDB"/>
<path d="M105.162 116.255L108.171 111.708L97.6829 104.883L94.6738 109.426L105.162 116.255Z" fill="#F29B00"/>
<path d="M112.196 122.784C114.22 124.104 116.938 123.541 118.267 121.535C119.597 119.528 119.037 116.836 117.009 115.519L98.7581 104.762C97.6415 104.037 97.5528 105.392 97.5067 105.463C97.5067 105.463 94.6604 109.341 94.6711 109.426C94.6711 109.426 94.2742 109.826 95.3907 110.551L112.196 122.784Z" fill="#F29B00"/>
<path opacity="0.6" d="M75.2986 79.7909C67.1602 80.3075 60.9854 87.4128 61.51 95.6646C61.6766 98.2938 62.506 100.721 63.8175 102.795C61.8006 100.413 60.5036 97.3737 60.2909 94.0051C59.7663 85.7533 65.9372 78.6479 74.0791 78.1313C79.6228 77.781 84.6491 80.5799 87.4564 85.0066C84.5357 81.5566 80.1121 79.4866 75.2986 79.7909Z" fill="white"/>
<path opacity="0.3" d="M33.7071 134.168C47.1285 134.168 58.0085 133.283 58.0085 132.19C58.0085 131.098 47.1285 130.212 33.7071 130.212C20.2857 130.212 9.40527 131.098 9.40527 132.19C9.40527 133.283 20.2857 134.168 33.7071 134.168Z" fill="#5BAEDC"/>
<path d="M30.829 83.6639C30.907 83.6639 30.9776 83.6144 31.0024 83.5365L32.2077 79.1417C32.2325 79.0497 32.1757 78.9542 32.08 78.9294C31.9843 78.9046 31.8885 78.9577 31.8602 79.0532L30.6552 83.4481C30.6304 83.5401 30.6873 83.6356 30.783 83.6604C30.7971 83.6639 30.8148 83.6675 30.829 83.6675V83.6639Z" fill="#4A3F82"/>
<path d="M20.4817 77.5636L39.4843 77.0222C39.6828 80.5183 40.1469 90.1678 40.4978 95.5181C41.2705 110.482 42.717 129.53 42.717 129.53L44.879 131.767H39.5338L32.941 95.5181L30.8496 84.9166L29.5238 84.945L28.6342 95.5181L25.0578 131.767H20.5561L21.6728 129.728C21.6728 129.728 20.8467 112.857 20.471 95.5181C20.3469 90.826 20.3292 81.9372 20.4852 77.5636H20.4817Z" fill="#16528E"/>
<path d="M42.848 128.956C42.848 128.956 41.4019 109.908 40.6292 94.9438C40.2748 89.5901 39.8142 79.9441 39.6157 76.448L38.6904 76.4728C38.8889 79.9936 39.3498 89.6042 39.7043 94.9438C40.477 109.908 41.9231 128.956 41.9231 128.956L44.0852 131.192H45.0139L42.8518 128.956H42.848Z" fill="#083E7F"/>
<path d="M14.2974 65.0583C14.3151 64.7363 14.3683 64.3577 14.4888 63.9968C14.666 62.7654 15.1764 61.5693 15.6868 60.3945C16.8211 57.7654 17.9555 55.1363 19.0898 52.5072C19.5222 51.5093 20.3586 50.2319 21.0321 49.3261C22.457 47.4082 24.5733 46.7783 27.2389 46.7889C28.483 46.7925 25.1687 51.7889 24.3783 53.0061C23.2086 54.8108 22.8258 57.0011 21.0075 60.4087C20.3978 61.5481 19.9155 63.3174 19.203 64.662C19.2207 64.9097 19.2207 65.1574 19.2172 65.4015C19.1995 67.1637 19.182 68.9259 19.1642 70.6846C19.1465 72.2769 19.0932 73.7631 19.4938 75.3165C19.6568 75.9428 19.4194 76.5974 18.8274 77.0539C17.9484 77.7297 17.2254 77.6767 17.2254 77.6767C16.116 75.2952 15.1658 72.843 14.666 70.3201C14.5597 69.7787 14.4712 69.2373 14.4109 68.6924C14.2727 67.4857 14.2336 66.2685 14.2974 65.0583Z" fill="#D86C00"/>
<path d="M20.0068 79.2333L39.7855 80.0471C39.7323 76.5794 39.495 71.7528 39.3213 69.0813C39.3071 68.9114 39.3 68.7451 39.2929 68.5859C39.1724 66.8697 39.1013 65.1818 39.1261 63.3807C39.1261 63.2038 39.1263 63.0233 39.1334 62.8464C39.1475 62.1387 39.1864 61.4133 39.2431 60.6596C39.3317 59.4353 39.4702 58.1402 39.6758 56.7283C39.9629 54.7609 41.1893 51.9902 40.8738 50.4687C40.4768 48.6286 38.8355 47.2062 36.8328 46.6188C36.0991 46.3994 35.3158 46.2932 34.5254 46.318L26.3054 46.5905C20.6411 46.778 20.035 52.2202 20.1768 55.9604C20.2902 58.9257 20.4852 61.8945 20.6199 64.8634C20.79 68.9079 20.7726 70.939 20.372 74.9552C20.2586 76.1264 20.0316 78.0372 20.0068 79.2297V79.2333Z" fill="#F29B00"/>
<path d="M27.4435 64.0954C29.9353 65.2065 35.9401 67.372 37.163 68.0479C37.8365 68.423 38.5702 68.7733 39.3216 69.0847C39.3074 68.9148 39.3003 68.7485 39.2932 68.5893C39.1727 66.8731 39.1016 65.1852 39.1264 63.3841C36.6948 62.8427 34.143 62.1244 32.4665 61.4273C31.7965 61.1513 29.3965 59.8385 28.9357 60.5746C28.5919 61.1336 27.8618 61.7706 27.1884 62.2943C26.5362 62.7967 26.6672 63.7486 27.4435 64.0918V64.0954Z" fill="#BE1F1C"/>
<path d="M24.4198 54.2305C24.4198 54.2835 24.4196 54.3366 24.4302 54.3932L26.0253 60.4299C26.1032 60.7095 26.4152 60.9289 26.72 60.9218L30.169 60.8439C30.2825 60.8369 30.3853 60.805 30.4633 60.7519V60.7449C30.5873 60.6529 30.6405 60.5007 30.5944 60.3238L29.0028 54.2835C28.932 54.0111 28.62 53.7917 28.3116 53.7988L24.8629 53.8766C24.6148 53.8837 24.4444 54.0288 24.416 54.2305H24.4198Z" fill="#6E6B6A"/>
<path d="M24.4199 54.2302C24.4199 54.2833 24.4197 54.3364 24.4303 54.393L26.0254 60.4297C26.1033 60.7092 26.4153 60.9286 26.7201 60.9215L30.1691 60.8437C30.2826 60.8366 30.3854 60.8048 30.4634 60.7517V60.7446C30.474 60.6915 30.4703 60.6384 30.4526 60.5818L28.861 54.5416C28.7901 54.2691 28.4783 54.0497 28.1628 54.0568L24.7141 54.1347C24.5936 54.1417 24.4979 54.1736 24.4199 54.2337V54.2302Z" fill="#454441"/>
<path d="M29.7112 59.6802C30.888 60.1932 31.0725 61.8528 31.5368 62.4473C32.0969 63.1656 30.9553 63.3956 29.7147 63.2434C28.6052 63.1054 27.2477 62.6419 26.8046 62.1182C26.4289 61.6759 25.9503 61.1451 25.9929 59.804C26.0283 58.7071 28.1729 59.0114 29.7112 59.6837V59.6802Z" fill="#F5CDA7"/>
<path d="M30.5092 60.6281C30.9629 60.115 31.4378 60.4901 32.1078 60.6918C34.5039 61.4066 38.6584 61.2332 41.7563 61.5977C41.5472 61.1058 41.3519 60.6317 41.1641 60.2106C39.3315 56.0599 38.2543 54.3048 37.5489 52.8186C36.8931 51.428 33.8979 46.375 35.1279 46.336C38.2507 46.2334 40.0973 46.9376 41.3662 49.089C44.0317 53.5971 45.3575 57.447 46.2366 59.8143C46.8072 61.3464 47.5372 62.3301 47.6471 63.8163C47.6507 63.8588 47.6508 64.8213 47.6544 64.8673C47.6898 65.575 47.5657 65.2565 47.2006 65.667C47.1616 65.7377 47.1334 65.8085 47.0909 65.8828C46.2791 67.3195 40.8489 67.047 37.2086 65.5962C35.4824 64.9097 30.2115 62.5035 30.2115 62.5035C30.2115 62.5035 29.7719 61.4738 30.5127 60.6317L30.5092 60.6281Z" fill="#F29B00"/>
<path d="M27.6562 46.5484C27.6988 46.7253 27.7661 46.8881 27.8511 47.0437C28.28 47.8611 29.223 48.3636 30.4601 48.3247C31.8885 48.2787 33.3381 47.5179 34.3058 46.4351C34.3412 46.3997 34.3768 46.3608 34.4051 46.3254L27.6562 46.5484Z" fill="#BF792E"/>
<path d="M33.7064 42.3804V46.5417C33.7064 46.5417 30.5479 50.1049 27.6484 46.6266L27.9039 42.3839H33.7064V42.3804Z" fill="#EBC4AF"/>
<path d="M30.6183 45.2236C30.6963 45.2342 30.7743 45.2448 30.8523 45.2484C31.8235 45.3227 32.7204 45.0396 33.447 44.431C33.5144 44.3744 33.5144 44.2823 33.447 44.2187C33.3832 44.1585 33.2769 44.1514 33.2096 44.208C32.5503 44.7601 31.7386 45.0184 30.8596 44.9511C29.9451 44.8804 29.1615 44.4381 28.5341 43.6348C28.481 43.564 28.3749 43.5463 28.3005 43.5923C28.2261 43.6383 28.2081 43.7303 28.2648 43.8011C28.8922 44.6044 29.7003 45.0927 30.6148 45.2236H30.6183Z" fill="#C0755A"/>
<path d="M34.8864 37.6491C35.2657 41.0425 34.837 44.712 32.2495 44.9526C29.5556 45.2003 26.7127 43.6221 26.3334 40.2287C25.9542 36.8353 27.723 33.6293 30.2858 33.0703C32.8485 32.5112 34.5072 34.2557 34.8864 37.6491Z" fill="#F5CDA7"/>
<path d="M34.6635 34.5492C34.7876 34.2308 34.7487 33.8522 34.4828 33.4346C34.4296 33.3532 34.3693 33.2648 34.2949 33.1763C33.9936 32.7871 33.5614 32.4226 33.1609 32.1077C33.1467 32.1077 33.1324 32.1077 33.1217 32.1112C31.1616 31.4955 28.8966 31.3434 27.1244 32.2245C26.2559 32.642 25.774 33.2683 25.5542 33.9902C25.0934 34.9633 25.2316 36.5308 25.4833 37.7056C25.5506 38.0276 25.6251 38.3178 25.7031 38.5619C26.0469 39.6943 26.4899 41.2264 27.4044 42.0828C27.5958 42.2385 27.9004 42.3941 28.1805 42.3623C28.1946 42.3623 28.2089 42.3587 28.2196 42.3552C28.1877 42.3057 28.1524 42.2491 28.124 42.1924C28.0319 41.8492 28.0531 41.4635 28.0531 41.1238C27.9148 41.2512 27.8013 41.3184 27.6737 41.3255C27.5496 41.3361 27.4116 41.2866 27.2237 41.1734C26.7381 40.9044 26.5678 40.3949 26.5501 39.8641C26.5501 39.7261 26.5712 39.489 26.6314 39.259C26.6314 39.259 26.6316 39.2519 26.6387 39.2484C26.6812 39.0856 26.745 38.937 26.8336 38.8309C26.9045 38.7495 26.9895 38.6964 27.0994 38.6964C27.2483 38.6964 27.5034 38.891 27.6346 39.0502C27.6452 39.0644 27.6559 39.0786 27.663 39.0927C27.6913 39.2555 27.7268 39.4147 27.7658 39.5704C27.8083 39.7509 27.8617 39.9313 27.9184 40.1083C28.1346 40.2144 28.3507 40.3595 28.5917 40.3843L28.6024 40.2675C28.2586 39.2909 28.2657 38.2576 28.3047 37.2244C28.3154 36.9731 28.326 36.7219 28.3331 36.4671C28.3437 36.2336 28.3508 36 28.3508 35.7665V35.7311C29.4141 35.6639 30.4987 35.5931 31.4132 35.2039C31.0587 35.3631 30.7574 35.579 30.481 35.8231C30.3888 35.9045 30.3003 35.9859 30.2117 36.0708C29.999 36.2725 29.7968 36.4778 29.5841 36.6688C30.7963 36.7573 32.6114 36.0744 33.8414 35.3207C34.0186 35.211 34.1815 35.1012 34.334 34.9916H34.3374L34.3447 35.0022C34.366 35.2676 34.3835 35.54 34.3977 35.8125C34.4508 36.7856 34.4546 37.7941 34.3589 38.7742C34.3766 38.7742 34.3944 38.7742 34.4157 38.7778C34.4653 38.5195 34.5394 38.2647 34.6067 38.0135C34.6989 37.6702 34.7878 37.327 34.8162 36.9625C34.8729 36.2548 35.0392 35.2003 34.6635 34.5422V34.5492Z" fill="#15495A"/>
<path d="M20.5066 76.506C20.2089 76.2335 19.8862 75.9257 19.5672 75.6497C19.5246 75.7027 19.4717 75.7452 19.4398 75.8089C19.0463 76.5944 18.6705 77.2668 17.0967 77.5251C17.3625 77.9355 17.6141 78.2611 19.0638 79.3156C20.1308 79.9242 20.9601 80.0162 21.6229 79.9419C22.1582 79.8853 22.5695 79.4253 22.5624 79.1386C21.8145 78.1302 21.0312 76.9978 20.5066 76.5024V76.506Z" fill="#F5CDA7"/>
<path d="M22.5482 129.601L25.2492 129.753L25.0187 131.767H19.2979L22.5482 129.601Z" fill="#231C2F"/>
<path d="M49.214 131.837H41.7489L41.1854 131.126L40.707 131.837H39.4023V128.574L43.1134 127.902L44.9605 130.153L49.214 131.412V131.837Z" fill="#231C2F"/>
<path d="M149.87 113.021H157.334H164.799L164.406 119.539C164.229 122.465 163.222 125.293 161.439 127.624C161.219 127.911 161.003 128.173 160.794 128.389C160.794 128.661 159.245 128.884 157.331 128.884C155.417 128.884 153.868 128.665 153.868 128.389H153.857C153.645 128.166 153.421 127.9 153.198 127.603C151.415 125.261 150.405 122.423 150.238 119.486L149.866 113.021H149.87Z" fill="#729EDB"/>
<path d="M157.335 114.086C161.458 114.086 164.8 113.609 164.8 113.02C164.8 112.432 161.458 111.955 157.335 111.955C153.212 111.955 149.87 112.432 149.87 113.02C149.87 113.609 153.212 114.086 157.335 114.086Z" fill="#BBD4F2"/>
<path d="M157.36 113.64C160.59 113.64 163.209 113.363 163.209 113.021C163.209 112.679 160.59 112.402 157.36 112.402C154.13 112.402 151.512 112.679 151.512 113.021C151.512 113.363 154.13 113.64 157.36 113.64Z" fill="#2F61A8"/>
<path d="M160.935 127.02C160.843 126.836 160.616 126.762 160.431 126.857C160.247 126.949 160.173 127.176 160.268 127.36C160.361 127.544 160.587 127.618 160.772 127.522C160.956 127.43 161.03 127.204 160.935 127.02Z" fill="#A6A6A6"/>
<path d="M158.674 126.527C158.582 126.343 158.355 126.268 158.171 126.364C157.986 126.456 157.912 126.682 158.008 126.866C158.1 127.05 158.327 127.125 158.511 127.029C158.695 126.937 158.77 126.711 158.674 126.527Z" fill="#A6A6A6"/>
<path d="M156.668 113.388C156.668 113.296 156.555 104.068 159.901 94.0715L160.249 94.298C156.942 104.178 157.048 113.286 157.051 113.378L156.668 113.388Z" fill="#2F61A8"/>
<path d="M156.909 109.082L154.279 95.2785L154.652 95.144L157.282 108.944L156.909 109.082Z" fill="#2F61A8"/>
<path d="M158.303 113.413L157.92 113.353C157.955 112.893 158.852 102.061 161.107 96.9341L161.433 97.2136C159.224 102.242 158.31 113.303 158.303 113.416V113.413Z" fill="#2F61A8"/>
<path d="M155.838 113.414C155.831 113.333 155.126 105.017 153.229 95.7215L153.598 95.5764C155.502 104.918 156.211 113.273 156.218 113.354L155.838 113.414Z" fill="#2F61A8"/>
<path d="M151.368 88.1034C152.091 89.9576 152.482 94.5258 153.485 93.6589C154.488 92.7919 154.02 89.1685 154.02 89.1685C154.02 89.1685 155.115 89.0375 156.661 90.959C156.661 90.959 157.047 91.2703 155.434 95.0565C153.821 98.8428 155.466 98.9808 155.466 98.9808C155.466 98.9808 157.749 97.6609 158.1 94.1047C158.1 94.1047 159.181 98.4535 157.504 101.168C155.828 103.882 153.807 102.707 153.807 102.707C153.807 102.707 152.925 92.9441 150.397 89.816C147.87 86.6915 146.317 86.0581 146.317 86.0581C146.317 86.0581 150.645 86.2527 151.368 88.1069V88.1034Z" fill="#2F61A8"/>
<path d="M153.806 102.703C153.806 102.703 153.232 105.849 149.192 105.899C148.181 105.913 147.387 105.545 146.767 104.986C146.767 104.986 147.522 103.015 149.66 103.418C151.797 103.821 151.751 102.53 151.751 102.53C151.751 102.53 145.069 103.255 144.842 97.9723C144.842 97.9723 151.379 98.9701 151.467 97.9121C151.556 96.8541 144.601 94.7027 144.601 94.7027C144.601 94.7027 144.389 92.3319 145.154 90.6051C145.154 90.6051 147.302 91.5145 148.695 92.753C150.092 93.9915 150.57 93.1918 150.57 93.1918C150.57 93.1918 149.741 90.1522 146.083 88.7828L146.313 86.0581C146.313 86.0581 147.862 86.6915 150.393 89.816C152.92 92.9405 153.803 102.707 153.803 102.707L153.806 102.703Z" fill="#477EBF"/>
<path d="M165.99 82.5795C164.951 84.3169 163.895 88.7931 162.934 87.7952C161.974 86.7974 162.988 83.2695 162.988 83.2695C162.988 83.2695 161.825 82.9899 159.893 84.6849C159.893 84.6849 159.432 84.9432 160.638 88.9134C161.843 92.8836 160.056 92.7987 160.056 92.7987C160.056 92.7987 157.784 91.178 157.905 87.6077C157.905 87.6077 156.132 91.769 157.557 94.6883C158.982 97.6075 161.322 96.7158 161.322 96.7158C161.322 96.7158 163.636 87.1583 166.795 84.4089C169.953 81.6559 171.707 81.2384 171.707 81.2384C171.707 81.2384 167.025 80.8421 165.986 82.5795H165.99Z" fill="#477EBF"/>
<path d="M161.322 96.7154C161.322 96.7154 161.503 99.9107 165.838 100.512C166.923 100.664 167.827 100.406 168.574 99.939C168.574 99.939 168.039 97.8831 165.682 97.9893C163.325 98.099 163.555 96.8251 163.555 96.8251C163.555 96.8251 170.641 98.4563 171.626 93.2512C171.626 93.2512 164.456 93.3467 164.505 92.2887C164.559 91.2307 172.342 90.0453 172.342 90.0453C172.342 90.0453 172.902 87.724 172.321 85.9088C172.321 85.9088 169.883 86.5174 168.21 87.5542C166.537 88.591 166.129 87.7311 166.129 87.7311C166.129 87.7311 167.448 84.8331 171.577 83.9732L171.712 81.2415C171.712 81.2415 169.957 81.659 166.799 84.412C163.64 87.1649 161.326 96.7189 161.326 96.7189L161.322 96.7154Z" fill="#2F61A8"/>
<path d="M156.026 112.82C156.026 112.82 152.503 103.662 144.52 103.818C136.534 103.974 155.19 111.73 156.026 112.82Z" fill="#2F61A8"/>
<path d="M170.563 96.1771C170.563 96.1771 171.779 97.7695 168.415 98.877C168.234 97.7907 167.699 97.0759 167.699 97.0759C168.83 96.8919 169.773 96.5699 170.563 96.1736V96.1771Z" fill="#477EBF"/>
<path d="M169.085 94.7613C174.132 92.8328 174.341 92.0154 174.341 92.0154C174.341 92.0154 173.625 94.6445 170.563 96.1767C169.772 96.573 168.829 96.8915 167.699 97.079C167.699 97.079 168.234 97.7938 168.414 98.8801C168.599 99.9947 168.408 101.506 166.869 103.041C163.831 106.07 159.681 105.377 159.681 105.377C159.681 105.377 162.524 97.2701 169.085 94.7648V94.7613Z" fill="#477EBF"/>
<path opacity="0.3" d="M129.272 145.779C139.005 145.779 146.896 144.683 146.896 143.331C146.896 141.978 139.005 140.882 129.272 140.882C119.539 140.882 111.648 141.978 111.648 143.331C111.648 144.683 119.539 145.779 129.272 145.779Z" fill="#5BAEDC"/>
<path d="M139.796 69.7789C141.77 68.9151 141.203 63.2771 138.528 57.1862C135.854 51.0953 132.085 46.858 130.111 47.7218C128.137 48.5857 128.705 54.2235 131.38 60.3144C134.054 66.4053 137.822 70.6428 139.796 69.7789Z" fill="#083E7F"/>
<path d="M123.261 133.334L127.344 133.574L128.631 118.334L129.786 112.924L130.357 107.556L132.111 112.98L136.305 133.582H139.75L138.875 119.781L137.67 109.725L136.688 91.2184L129.29 90.5567L125.019 89.9163L123.261 133.334Z" fill="#16528E"/>
<path d="M139.814 141.735L133.31 142.457L137.542 139.053V133.791H139.296L139.399 138.122L139.814 141.735Z" fill="#D8B598"/>
<path d="M138.059 141.526C138.059 141.526 135.412 141.77 134.345 141.912C132.229 142.195 130.889 143.331 130.889 143.331H134.447L138.059 142.184V143.023H139.76V140.804L138.059 141.526Z" fill="url(#paint0_linear_248_64087)"/>
<path d="M127.001 141.51L120.5 142.232L124.732 138.828V133.57H126.483L126.589 137.901L127.001 141.51Z" fill="#D8B598"/>
<path d="M125.245 141.307C125.245 141.307 122.597 141.551 121.53 141.693C119.414 141.976 118.074 143.111 118.074 143.111H121.633L125.245 141.965V142.804H126.946V140.585L125.245 141.307Z" fill="url(#paint1_linear_248_64087)"/>
<path d="M137.574 71.0233L134.277 60.9314L129.531 63.143C129.531 63.143 127.522 66.6107 126.607 70.3792C125.891 73.3304 126.206 76.3452 126.299 78.8222C126.504 84.459 124.353 90.7859 124.353 90.7859C124.353 90.7859 127.606 90.5842 130.633 90.7186C133.66 90.8531 136.854 91.6103 136.854 91.6103C136.854 91.6103 134.235 85.4639 134.224 81.3168C134.213 77.1697 137.577 71.0233 137.577 71.0233H137.574Z" fill="#729EDB"/>
<path d="M148.973 76.0031L134.582 61.3855C134.582 61.3855 133.036 62.9389 133.38 65.8263C133.724 68.7138 137.57 71.0244 137.57 71.0244L143.56 77.9139L140.533 80.8155L142.323 84.8034C142.323 84.8034 147.544 80.6527 148.682 79.669C149.82 78.6853 148.973 76.0031 148.973 76.0031Z" fill="#729EDB"/>
<path d="M132.281 55.5115L128.517 48.1443L127.457 49.9489C127.457 49.9489 127.011 50.5894 126.847 51.1202C126.723 51.5236 125.32 52.7797 125.798 52.9248C125.798 52.9248 126.078 52.9921 126.142 53.3176C126.206 53.6396 126.053 54.2164 126.053 54.3721C126.053 55.883 126.777 56.5376 126.777 56.5376C126.777 56.5376 129.321 56.3996 130.353 58.3954C131.384 60.3911 130.353 62.6593 130.353 62.6593C130.353 62.6593 136.623 63.8376 134.514 61.4208C132.692 59.3295 132.278 55.5044 132.278 55.5044L132.281 55.5115Z" fill="#F5CDA7"/>
<path d="M132.928 54.95C134.244 54.3746 134.562 52.2015 133.639 50.0963C132.715 47.9911 130.9 46.751 129.584 47.3264C128.267 47.9018 127.949 50.075 128.872 52.1802C129.796 54.2854 131.612 55.5254 132.928 54.95Z" fill="#083E7F"/>
<path d="M136.878 85.568L141.706 83.8235L140.986 81.8738L136.336 83.7315L136.878 85.568Z" fill="#F5CDA7"/>
<path d="M134.266 86.1443C136.093 86.1443 137.573 85.5328 137.573 84.7785C137.573 84.0241 136.093 83.4126 134.266 83.4126C132.44 83.4126 130.959 84.0241 130.959 84.7785C130.959 85.5328 132.44 86.1443 134.266 86.1443Z" fill="#F5CDA7"/>
<path d="M130.045 47.4106C129.779 47.4884 129.524 47.5804 129.275 47.6831C131.392 49.1622 133.121 51.5223 133.968 54.431C134.082 54.8238 134.178 55.2201 134.256 55.6129C136.407 54.3815 137.595 52.2017 137.013 50.206C136.297 47.7538 133.178 46.5012 130.045 47.4141V47.4106Z" fill="#083E7F"/>
<path d="M86.3044 11.3318C85.6238 6.61497 80.7358 4.24416 75.2453 4.52016C69.4534 4.81032 65.083 10.157 66.6462 14.7819C67.2133 16.4591 68.1312 17.8215 69.3434 18.8193L69.0883 25.7867L73.5155 20.6346C74.7632 20.8292 76.1349 20.8079 77.6095 20.5496C83.0362 19.5978 86.9815 16.0451 86.3009 11.3318H86.3044Z" fill="#F29B00"/>
<path d="M162.894 -0.513342V2.42362H163.529V-0.513342C163.529 -0.725653 163.387 -0.895508 163.21 -0.895508C163.033 -0.895508 162.891 -0.722114 162.891 -0.513342H162.894Z" fill="#F29B00"/>
<path d="M162.894 12.3252C162.894 12.5375 163.035 12.7074 163.212 12.7074C163.39 12.7074 163.532 12.534 163.532 12.3252V9.56519H162.897V12.3252H162.894Z" fill="#F29B00"/>
<path d="M156.396 5.90502C156.396 6.08195 156.57 6.22347 156.779 6.22347H159.721V5.59009H156.779C156.567 5.59009 156.396 5.73162 156.396 5.90854V5.90502Z" fill="#F29B00"/>
<path d="M169.642 5.58655H166.877V6.21994H169.642C169.855 6.21994 170.024 6.07841 170.024 5.90148C170.024 5.72456 169.851 5.58301 169.642 5.58301V5.58655Z" fill="#F29B00"/>
<path d="M158.44 1.59175L160.521 3.66886L160.971 3.21946L158.891 1.14235C158.742 0.993735 158.518 0.972502 158.394 1.09635C158.27 1.2202 158.292 1.44313 158.44 1.59175Z" fill="#F29B00"/>
<path d="M167.534 10.6673C167.683 10.8159 167.906 10.8371 168.03 10.7133C168.154 10.5894 168.133 10.3665 167.984 10.2179L166.027 8.26465L165.577 8.71405L167.534 10.6673Z" fill="#F29B00"/>
<path d="M158.394 10.7141C158.518 10.8379 158.742 10.8167 158.891 10.6681L160.971 8.59098L160.521 8.1416L158.44 10.2187C158.292 10.3673 158.27 10.5902 158.394 10.7141Z" fill="#F29B00"/>
<path d="M167.534 1.14235L165.577 3.09562L166.027 3.545L167.984 1.59175C168.133 1.44313 168.154 1.2202 168.03 1.09635C167.906 0.972502 167.683 0.993735 167.534 1.14235Z" fill="#F29B00"/>
<path d="M6.20462 45.1562H5.13086V44.5122H6.20462V43.3728H6.86403V44.5122H7.93814V45.1562H6.86403V46.2956H6.20462V45.1562Z" fill="#729EDB"/>
<path d="M117.518 -0.0659917H115.703V-1.15232H117.518V-3.07373H118.631V-1.15232H120.446V-0.0659917H118.631V1.85542H117.518V-0.0659917Z" fill="#729EDB"/>
<path opacity="0.7" d="M148.842 76.0583L134.731 61.4407L147.382 77.3357C147.382 77.3357 148.346 78.2628 147.208 79.2465C146.574 79.795 142.193 84.8586 142.193 84.8586C142.193 84.8586 147.414 80.7079 148.552 79.7242C149.69 78.7405 148.842 76.0583 148.842 76.0583Z" fill="#2F61A8"/>
<path d="M30.7575 60.8648C33.1536 61.5796 37.3078 61.4062 40.4057 61.7707C40.3738 61.6929 40.3421 61.6185 40.3102 61.5407C37.471 61.3425 34.1886 61.3744 32.1646 60.7693C31.4947 60.5711 31.0198 60.1925 30.5661 60.7056C30.5448 60.7304 30.5271 60.7516 30.5059 60.7764C30.5874 60.8047 30.6689 60.8365 30.7575 60.8613V60.8648Z" fill="#EF8200"/>
<path d="M47.711 64.9451C47.711 64.9026 47.7109 63.9366 47.7038 63.8942C47.5939 62.408 46.8639 61.4243 46.2932 59.8921C45.4142 57.5248 44.0884 53.6749 41.4229 49.1668C40.1539 47.019 38.3073 46.3113 35.1846 46.4139C35.0889 46.4139 35.0178 46.4493 34.9717 46.5094C37.3891 46.6191 38.9204 47.3976 40.0192 49.2553C42.6848 53.7634 44.0105 57.6133 44.8896 59.9806C45.4602 61.5127 46.1902 62.4965 46.3001 63.9826C46.3037 64.0251 46.3039 64.9876 46.3074 65.0336C46.3428 65.7413 46.2187 65.4228 45.8536 65.8333C45.8146 65.904 45.7864 65.9748 45.7439 66.0491C45.4922 66.4914 44.8043 66.771 43.865 66.9054C45.499 66.8983 46.7859 66.5976 47.151 65.9571C47.1935 65.8828 47.2252 65.812 47.2607 65.7413C47.6258 65.3308 47.7499 65.6493 47.7145 64.9416L47.711 64.9451Z" fill="#EF8200"/>
<path d="M180.533 46.4578C180.533 46.4578 178.495 45.7182 176.099 46.1004C173.703 46.4826 163.083 51.0048 163.083 51.0048C163.083 51.0048 161.456 50.1272 160.237 47.445C159.014 44.7628 159.372 42.8485 159.372 42.8485C159.372 42.8485 168.78 36.7233 170.47 35.4282C172.161 34.1367 173.387 30.8989 173.387 30.8989L180.533 46.4543V46.4578Z" fill="white"/>
<path d="M177.054 38.8823L180.535 46.4583C180.535 46.4583 178.497 45.7187 176.101 46.1009C173.705 46.4831 163.085 51.0053 163.085 51.0053C163.085 51.0053 161.472 50.1348 160.253 47.4809L177.054 38.8823Z" fill="#BAD4E4"/>
<path d="M163.794 49.5122L161.67 50.5985C161.67 50.5985 160.405 49.9722 159.437 47.8526C158.473 45.733 158.916 44.5512 158.916 44.5512L161.039 43.4648L163.794 49.5122Z" fill="#CDDADC"/>
<path d="M174.924 39.6684C177.653 45.6627 182.839 49.003 186.504 47.1276C190.169 45.2522 190.927 38.8723 188.198 32.8745C185.469 26.8802 180.283 23.5399 176.618 25.4153C172.953 27.2907 172.194 33.6706 174.924 39.6684Z" fill="#DCEEF1"/>
<path d="M162.894 50.5849C162.894 50.5849 173.513 46.0627 175.909 45.6805C178.281 45.3019 180.297 46.0237 180.343 46.0379L180.535 46.459C180.535 46.459 178.497 45.7194 176.101 46.1016C173.705 46.4837 163.085 51.006 163.085 51.006C163.085 51.006 161.472 50.1355 160.253 47.4816H160.263C161.451 49.81 162.894 50.5884 162.894 50.5884V50.5849Z" fill="#DCEEF1"/>
<path d="M188.199 32.8778C190.928 38.8721 190.169 45.2556 186.504 47.131C182.839 49.0064 177.653 45.666 174.924 39.6718C174.616 38.9959 174.354 38.3165 174.134 37.6371L187.185 30.96C187.55 31.565 187.89 32.2055 188.195 32.8814L188.199 32.8778Z" fill="#A2C3D6"/>
<path d="M175.873 39.2145C178.535 45.0601 183.451 48.3828 186.858 46.6419C190.264 44.9009 190.87 38.7474 188.208 32.9018C185.546 27.0562 180.63 23.7335 177.224 25.4745C173.817 27.219 173.211 33.3689 175.873 39.2145Z" fill="white"/>
<path d="M176.6 38.8709C179.025 44.1963 183.399 47.2819 186.369 45.7604C189.339 44.2388 189.782 38.6904 187.358 33.3649C184.933 28.0395 180.56 24.9539 177.589 26.4754C174.619 27.997 174.176 33.5454 176.6 38.8709Z" fill="#ED9E40"/>
<path d="M159.369 42.846C159.369 42.846 162.31 40.8679 165.295 38.9182C165.408 40.5247 165.852 42.2692 166.589 43.8827C167.386 45.6378 168.503 47.1842 169.74 48.3165C166.362 49.6718 163.083 51.0022 163.083 51.0022C163.083 51.0022 161.456 50.1247 160.237 47.4425C159.014 44.7603 159.372 42.846 159.372 42.846H159.369Z" fill="#2C6088"/>
<path d="M188.283 35.8535C189.583 40.3227 188.878 44.4804 186.368 45.7614C183.859 47.0458 180.35 45.0466 177.861 41.1861L188.283 35.8535Z" fill="#E7893C"/>
<path d="M175.323 34.9777L179.095 33.8276L181.657 39.4539L178.411 42.0264C178.411 42.0264 177.5 40.8127 176.61 38.8842C175.724 36.9521 175.323 34.9812 175.323 34.9812V34.9777Z" fill="#DAE8F2"/>
<path d="M180.576 37.0793L181.633 39.4006L178.485 41.92C178.485 41.92 178.237 41.7679 177.684 40.9045C177.131 40.0411 176.809 39.298 176.809 39.298L180.576 37.0793Z" fill="#BAD4E4"/>
<path d="M181.649 39.6684C182.557 39.2821 182.749 37.6953 182.078 36.124C181.407 34.5528 180.127 33.5923 179.22 33.9786C178.312 34.3648 178.12 35.9517 178.791 37.5229C179.462 39.0941 180.742 40.0546 181.649 39.6684Z" fill="white"/>
<path d="M166.586 43.885C167.189 45.2084 167.954 46.3761 168.826 47.3563L162.301 50.41C161.719 49.8757 160.915 48.9415 160.234 47.4483C159.986 46.8998 159.802 46.3867 159.667 45.9126L166.111 42.7102C166.253 43.103 166.409 43.4993 166.586 43.8885V43.885Z" fill="#314572"/>
<path d="M173.225 57.0102C173.225 57.0102 171.871 58.0929 170.794 58.921C169.716 59.749 169.078 58.5494 169.078 58.5494L164.278 50.5665L168.426 48.8716L173.228 57.0102H173.225Z" fill="#BAD4E4"/>
<path d="M167.744 49.1262L168.41 48.8538L173.213 56.9923L172.71 57.3887L167.744 49.1262Z" fill="#DCEEF1"/>
<path d="M161.653 49.7248C161.497 49.5408 161.337 49.3355 161.178 49.1055L167.675 45.8501C167.842 46.1013 168.015 46.349 168.192 46.5826L161.653 49.7248Z" fill="#2C6088"/>
<g opacity="0.5">
<path d="M171.464 55.2761L170.975 54.4446L169.277 55.315C169.054 55.4283 168.958 55.7149 169.068 55.952L169.075 55.9697C169.181 56.2068 169.454 56.3058 169.678 56.1926L171.468 55.2761H171.464Z" fill="#DCEEF1"/>
<path d="M167.306 52.8773C167.412 53.1144 167.685 53.2135 167.909 53.1002L169.653 52.2085L169.163 51.377L167.512 52.2227C167.288 52.3359 167.193 52.6225 167.303 52.8596L167.31 52.8773H167.306Z" fill="#DCEEF1"/>
<path d="M170.574 53.7725L170.085 52.9409L168.323 53.8432C168.1 53.9565 168.004 54.2431 168.114 54.4802L168.121 54.4979C168.228 54.7349 168.5 54.834 168.724 54.7208L170.578 53.7725H170.574Z" fill="#DCEEF1"/>
</g>
</g>
<defs>
<linearGradient id="paint0_linear_248_64087" x1="135.323" y1="143.331" x2="135.323" y2="140.804" gradientUnits="userSpaceOnUse">
<stop stop-color="#132E47"/>
<stop offset="1" stop-color="#132A38"/>
</linearGradient>
<linearGradient id="paint1_linear_248_64087" x1="122.512" y1="143.111" x2="122.512" y2="140.585" gradientUnits="userSpaceOnUse">
<stop stop-color="#132E47"/>
<stop offset="1" stop-color="#132A38"/>
</linearGradient>
<clipPath id="clip0_248_64087">
<rect width="195" height="146" fill="white"/>
</clipPath>
</defs>
</svg>
