<svg width="164" height="123" viewBox="0 0 164 123" fill="none" xmlns="http://www.w3.org/2000/svg">
<path d="M144.556 55.7259C151.093 71.5156 143.623 117.717 100.487 114.77C88.1105 113.926 74.33 102.427 64.0212 104.971C53.7148 107.515 48.7861 117.307 29.4667 114.251C10.1499 111.198 5.80094 94.7351 10.044 82.4371C14.287 70.1391 3.09824 66.3272 4.05879 55.857C4.93866 46.2819 19.4301 44.0582 26.1665 36.5075C32.903 28.9568 35.7191 14.2713 50.7601 14.0167C67.5181 13.7343 66.7062 33.3183 89.1946 30.2779C114.048 26.9172 136.309 35.8066 144.553 55.7209" fill="#ECF5FC"/>
<g filter="url(#filter0_d_248_64723)">
<path d="M92.3606 23.7349C97.892 21.9248 102.221 26.0493 104.392 19.2524C105.894 14.543 103.045 8.06622 98.4744 4.99551C95.0255 2.68113 91.5967 1.98026 90.2403 5.07367C88.884 8.16959 86.1915 9.45535 83.9931 10.8243C81.2249 12.5462 80.3727 18.2162 83.0149 21.5642C85.657 24.9123 88.5815 24.9703 92.3606 23.7324V23.7349Z" fill="#ECF5FC"/>
</g>
<path d="M132.399 78.7755C132.314 78.962 132.235 79.1536 132.326 79.4057C132.414 79.6553 132.654 79.8898 132.891 80.1595C133.877 81.289 134.144 80.7571 134.434 80.457C134.62 80.268 134.598 79.9453 134.598 79.9453C134.492 79.7587 134.144 79.2393 133.942 79.073C133.38 78.6065 132.863 77.7821 132.402 78.7729M144.559 73.2845C144.67 73.0198 145.164 72.6366 144.513 72.1878C144.284 72.029 143.391 71.8701 143.074 71.7189C142.678 71.5323 141.959 70.8592 141.624 70.8768C141.289 70.8945 140.641 70.8869 140.588 71.3659C140.517 72.0164 140.795 72.155 140.979 72.4172C141.163 72.6794 141.76 72.9139 142.156 73.1004C142.552 73.287 143.117 73.6097 143.404 73.6425C143.845 73.6929 144.453 73.5391 144.556 73.287M119.196 61.7328C118.793 64.7329 121.906 69.6037 123.265 71.6004C124.334 73.1685 127.055 75.1627 127.66 73.7257C128.267 72.2886 124.937 70.0323 123.311 67.5389C121.359 64.5488 120.797 62.4059 121.864 58.9444C122.383 57.2603 127.392 54.3989 129.382 54.6434C127.218 59.3503 127.869 62.9757 128.567 65.4312C129.029 67.0548 130.06 68.6835 131.686 67.8641C133.312 67.0447 131.963 65.0909 131.535 63.1622C130.803 59.8823 131.946 57.3864 132.795 55.8813C133.776 54.1442 137.27 53.5341 140.275 54.7468C137.447 57.2452 137.82 62.2496 138.463 63.6891C139.1 65.1287 140.348 64.6169 140.921 63.3059C141.352 62.3151 143.654 56.9099 144.259 56.3905C146.518 54.4518 150.97 55.904 153.451 55.5787C153.345 58.4755 154.535 61.9521 152.77 63.437C152.157 63.9513 146.732 66.7699 145.718 67.2792C144.377 67.9498 143.964 69.1574 145.58 69.5835C147.196 70.0096 152.609 69.8003 154.976 66.9187C156.612 69.5482 157.21 73.3803 155.455 74.477C153.932 75.4274 150.597 75.7753 146.997 75.4678C144.876 75.2888 141.912 74.8249 141.213 76.4132C140.515 78.0015 142.92 78.4049 144.816 78.8839C146.568 79.3251 151.489 79.4486 156.302 76.935C156.789 78.7402 154.55 83.0815 152.896 83.9236C150.483 85.1513 147.264 85.4841 143.089 83.6614C140.24 82.4185 137.492 79.9276 136.017 80.6436C134.54 81.3621 137.421 83.3286 139.3 84.5186C140.954 85.5673 149.019 87.6447 150.493 86.9237C150.221 89.7095 147.408 91.9684 145.116 92.6718C141.594 93.7584 138.463 91.6256 136.544 89.8986C134.467 88.033 131.633 84.4555 130.985 86.2858C129.422 90.7028 138.218 93.7004 139.562 94.4442C136.36 98.6746 129.124 97.4241 126.56 92.0718C125.002 88.8196 126.684 85.7993 125.557 84.2614C125.93 83.9059 143.107 66.0439 144.002 65.1539C145.053 64.1076 147.544 61.2487 147.632 60.8277C147.193 60.9563 144.4 63.5656 143.397 64.6522C142.542 65.5724 124.864 83.2252 124.521 83.6059C122.749 82.7386 121.069 85.1614 117.487 83.8706C113.667 82.4916 108.572 78.4149 113.057 71.5827C114.003 72.7374 116.501 75.8056 118.036 77.3863C119.254 78.6418 121.425 80.0234 122.171 78.9822C123.316 77.3788 118.838 75.0316 116.607 73.3299C114.542 71.7542 113.143 70.3802 113.201 67.8086C113.234 66.3766 116.297 61.9975 119.204 61.7302M124.755 79.1738C124.047 78.9393 123.78 79.3074 123.641 79.6881C123.56 79.9074 123.412 80.2049 123.664 80.4318C123.848 80.5982 124.692 80.8806 124.99 80.9789C125.29 81.0798 125.587 81.1151 125.839 81.0924C126.18 81.0621 126.52 81.1655 126.601 80.9461C126.666 80.7646 126.588 80.4293 126.354 80.1243C126.17 79.8898 125.129 79.2948 124.755 79.1713M134.757 71.3785C134.348 70.7962 133.158 69.5885 132.725 69.5104C131.358 69.2709 131.043 70.239 131.056 70.5012C131.071 70.7634 132.177 71.3331 132.422 71.5979C132.616 71.8096 132.704 72.3139 132.79 72.3996C133.178 72.7878 134.018 72.7147 134.321 72.5382C134.689 72.3214 135.17 71.9609 134.757 71.3785Z" fill="#D9E7F4"/>
<path d="M36.2107 97.4199H25.627L25.9043 102.049C26.0278 104.126 26.7439 106.135 28.007 107.792C28.1633 107.996 28.317 108.18 28.4632 108.334C28.4632 108.528 29.5625 108.684 30.9189 108.684C32.2752 108.684 33.3745 108.528 33.3745 108.334H33.382C33.5333 108.177 33.6895 107.986 33.8509 107.777C35.114 106.113 35.83 104.098 35.951 102.011L36.2132 97.4199H36.2107Z" fill="#729EDB"/>
<path d="M30.9189 98.1767C33.8415 98.1767 36.2107 97.8381 36.2107 97.4204C36.2107 97.0027 33.8415 96.6641 30.9189 96.6641C27.9962 96.6641 25.627 97.0027 25.627 97.4204C25.627 97.8381 27.9962 98.1767 30.9189 98.1767Z" fill="#BBD4F2"/>
<path d="M30.8972 97.8609C33.1876 97.8609 35.0445 97.6634 35.0445 97.4197C35.0445 97.176 33.1876 96.9785 30.8972 96.9785C28.6067 96.9785 26.75 97.176 26.75 97.4197C26.75 97.6634 28.6067 97.8609 30.8972 97.8609Z" fill="#2F61A8"/>
<path d="M28.3637 107.364C28.4293 107.233 28.5906 107.18 28.7217 107.249C28.8528 107.314 28.9057 107.475 28.8377 107.606C28.7721 107.738 28.6108 107.791 28.4797 107.722C28.3486 107.657 28.2957 107.496 28.3637 107.364Z" fill="#A6A6A6"/>
<path d="M29.9673 107.017C30.0328 106.886 30.1941 106.833 30.3252 106.901C30.4563 106.966 30.5093 107.128 30.4412 107.259C30.3756 107.39 30.2143 107.443 30.0832 107.375C29.9521 107.309 29.8992 107.148 29.9673 107.017Z" fill="#A6A6A6"/>
<path d="M31.3904 97.6828C31.3904 97.6172 31.471 91.0623 29.0986 83.9629L28.8516 84.1217C31.1962 91.138 31.1206 97.6097 31.1181 97.6727L31.3904 97.6803V97.6828Z" fill="#2F61A8"/>
<path d="M31.2192 94.6225L33.0848 84.8204L32.8202 84.7246L30.957 94.5267L31.2192 94.6225Z" fill="#2F61A8"/>
<path d="M30.2289 97.6997L30.4987 97.6568C30.4734 97.3316 29.8381 89.6371 28.2397 85.9941L28.0078 86.1908C29.5734 89.7607 30.2214 97.619 30.2289 97.6971V97.6997Z" fill="#2F61A8"/>
<path d="M31.9769 97.7004C31.9819 97.6424 32.4836 91.7354 33.8273 85.1327L33.5651 85.0293C32.2163 91.6623 31.7121 97.597 31.707 97.655L31.9769 97.6979V97.7004Z" fill="#2F61A8"/>
<path d="M35.1487 79.7251C34.6369 81.0411 34.3597 84.2858 33.6487 83.6706C32.9378 83.0555 33.2706 80.4789 33.2706 80.4789C33.2706 80.4789 32.4915 80.3856 31.3973 81.7495C31.3973 81.7495 31.1225 81.9714 32.2646 84.6589C33.4066 87.3464 32.2419 87.4447 32.2419 87.4447C32.2419 87.4447 30.6233 86.5069 30.3737 83.9807C30.3737 83.9807 29.6074 87.0691 30.7973 88.9977C31.9873 90.9264 33.4193 90.0894 33.4193 90.0894C33.4193 90.0894 34.0445 83.1538 35.837 80.9352C37.6295 78.7167 38.7288 78.2654 38.7288 78.2654C38.7288 78.2654 35.6605 78.404 35.1487 79.7201V79.7251Z" fill="#2F61A8"/>
<path d="M33.418 90.0935C33.418 90.0935 33.8264 92.3272 36.6879 92.3651C37.4039 92.3751 37.9661 92.1129 38.4073 91.7171C38.4073 91.7171 37.8728 90.3179 36.3576 90.6028C34.8424 90.8902 34.8752 89.9725 34.8752 89.9725C34.8752 89.9725 39.6124 90.4893 39.7713 86.7354C39.7713 86.7354 35.1375 87.4438 35.0744 86.6926C35.0114 85.9413 39.9426 84.4135 39.9426 84.4135C39.9426 84.4135 40.0939 82.7294 39.5519 81.5016C39.5519 81.5016 38.0291 82.147 37.0409 83.0269C36.0526 83.9067 35.7096 83.337 35.7096 83.337C35.7096 83.337 36.2971 81.1789 38.8913 80.2057L38.7275 78.2695C38.7275 78.2695 37.6282 78.7208 35.8357 80.9394C34.0432 83.158 33.418 90.0935 33.418 90.0935Z" fill="#477EBF"/>
<path d="M24.7805 75.8022C25.5167 77.0376 26.2681 80.2167 26.9463 79.5083C27.627 78.7998 26.9084 76.2938 26.9084 76.2938C26.9084 76.2938 27.7328 76.0947 29.1018 77.2972C29.1018 77.2972 29.4296 77.4788 28.5749 80.2999C27.7203 83.121 28.9883 83.058 28.9883 83.058C28.9883 83.058 30.5993 81.9083 30.5161 79.3696C30.5161 79.3696 31.7716 82.3243 30.7632 84.3992C29.7522 86.4741 28.0933 85.8388 28.0933 85.8388C28.0933 85.8388 26.4521 79.0519 24.2108 77.0955C21.9721 75.1417 20.7266 74.8442 20.7266 74.8442C20.7266 74.8442 24.047 74.5618 24.7831 75.7972L24.7805 75.8022Z" fill="#477EBF"/>
<path d="M28.089 85.8422C28.089 85.8422 27.9631 88.1112 24.8873 88.5398C24.1183 88.6457 23.4779 88.4642 22.946 88.1314C22.946 88.1314 23.3267 86.6717 24.9982 86.7473C26.6697 86.8254 26.5058 85.9204 26.5058 85.9204C26.5058 85.9204 21.4812 87.0801 20.7854 83.3816C20.7854 83.3816 25.8705 83.4497 25.8327 82.6984C25.7949 81.9471 20.2761 81.105 20.2761 81.105C20.2761 81.105 19.8778 79.4562 20.2913 78.1654C20.2913 78.1654 22.0183 78.5965 23.2057 79.3327C24.3932 80.0689 24.6805 79.4588 24.6805 79.4588C24.6805 79.4588 23.7452 77.4015 20.8182 76.7889L20.7224 74.8477C20.7224 74.8477 21.9678 75.1451 24.2065 77.099C26.4453 79.0529 28.089 85.8422 28.089 85.8422Z" fill="#2F61A8"/>
<path d="M31.8438 97.2795C31.8438 97.2795 34.3396 90.775 40.0021 90.8859C45.6645 90.9969 32.4387 96.5055 31.8438 97.2795Z" fill="#2F61A8"/>
<path d="M21.5385 85.459C21.5385 85.459 20.6763 86.591 23.0613 87.3775C23.1899 86.6061 23.5706 86.0993 23.5706 86.0993C22.7689 85.9682 22.1008 85.7388 21.5385 85.459Z" fill="#477EBF"/>
<path d="M22.5862 84.4552C19.0062 83.0863 18.8574 82.5039 18.8574 82.5039C18.8574 82.5039 19.3641 84.372 21.5373 85.4612C22.097 85.741 22.7677 85.9704 23.5694 86.1015C23.5694 86.1015 23.1887 86.6083 23.0601 87.3797C22.929 88.1714 23.0652 89.2428 24.1568 90.3345C26.3099 92.4875 29.2545 91.9934 29.2545 91.9934C29.2545 91.9934 27.2376 86.2351 22.5862 84.4552Z" fill="#477EBF"/>
<path d="M133.717 46.2273L136.338 46.4794L136.588 45.0676L134.032 44.3894C134.08 43.9961 134.112 43.5978 134.135 43.1994L136.782 43.0255L136.8 41.5935L134.15 41.3338C134.138 41.001 134.115 40.6682 134.082 40.3329L136.689 39.7556L136.49 38.3362L133.822 38.4799C133.764 38.1799 133.701 37.8799 133.631 37.5849L136.112 36.6345L135.706 35.2605L133.106 35.7924C133.001 35.4874 132.89 35.1873 132.769 34.8899L135.07 33.5864L134.465 32.2881L131.99 33.1957C131.813 32.8553 131.624 32.5225 131.427 32.1948L133.48 30.5535L132.675 29.3686L130.391 30.6468C130.152 30.3241 129.902 30.009 129.642 29.7014L131.387 27.7677L130.401 26.7265L128.377 28.34C128.132 28.103 127.883 27.8711 127.628 27.6467L129.05 25.4886L127.918 24.6088L126.176 26.492C125.762 26.1946 125.339 25.9147 124.905 25.65L125.903 23.323L124.635 22.6574L123.287 24.7676C122.984 24.6214 122.677 24.4827 122.364 24.3516L122.992 21.944L121.638 21.475L120.637 23.7213C120.254 23.6028 119.865 23.4919 119.472 23.3986L119.707 20.9759L118.295 20.7263L117.677 23.0507C117.259 22.9902 116.835 22.9448 116.406 22.9121L116.25 20.5372L114.818 20.5195L114.589 22.8616C114.228 22.8692 113.865 22.8843 113.502 22.9121L112.995 20.6254L111.576 20.8246L111.702 23.1314C111.369 23.1869 111.039 23.2524 110.714 23.3255L109.862 21.2002L108.548 21.5885L108.906 23.8222C108.581 23.9281 108.261 24.044 107.943 24.1676L106.811 22.2414L105.571 22.8213L106.241 24.9264C105.876 25.1105 105.515 25.3071 105.165 25.5138L103.778 23.8323L102.646 24.6012L103.619 26.5273C103.269 26.782 102.929 27.0492 102.596 27.3265L100.992 25.9248L99.9989 26.8652L101.244 28.572C100.985 28.8342 100.735 29.1014 100.491 29.3787L98.7258 28.2568L97.8863 29.3384L99.3486 30.8107C99.0259 31.2544 98.7259 31.7133 98.441 32.1847L96.5451 31.4082L95.9097 32.6209L97.5762 33.7907C97.4173 34.1234 97.2661 34.4587 97.1275 34.7991L95.1686 34.3201L94.7197 35.6134L96.5174 36.5084C96.3913 36.9219 96.2804 37.3404 96.182 37.7639L94.1979 37.6051L93.9609 38.9539L95.8593 39.5463C95.7988 39.9951 95.7559 40.4464 95.7282 40.9027L93.7617 41.0641L93.7441 42.433L95.7031 42.7103C95.7157 43.0935 95.7408 43.4768 95.7786 43.8625L93.8676 44.3163L94.0567 45.6726L96.0257 45.65C96.0938 46.0105 96.1719 46.3634 96.2576 46.7139L94.4248 47.4475L94.813 48.761L96.7695 48.4484C96.893 48.8039 97.0266 49.1518 97.1703 49.4946L95.4635 50.498L96.0433 51.7384L97.9442 51.1334C98.1485 51.5166 98.3653 51.8947 98.5947 52.2603L97.0568 53.5309L97.8258 54.6629L99.6284 53.7528C99.9007 54.1108 100.188 54.4587 100.483 54.794L99.1494 56.3193L100.09 57.3126L101.751 56.1025C102.026 56.3596 102.308 56.6117 102.598 56.8538L101.499 58.5833L102.581 59.4228L104.058 57.958C104.504 58.2631 104.963 58.5505 105.434 58.8177L104.635 60.7665L105.848 61.4018L107.076 59.6497C107.399 59.7934 107.726 59.932 108.057 60.0581L107.547 62.1431L108.841 62.5918L109.814 60.638C110.207 60.7464 110.605 60.8422 111.009 60.9254L110.832 63.1137L112.181 63.3507L112.847 61.2153C113.263 61.2607 113.684 61.2934 114.107 61.3111L114.291 63.5549L115.66 63.5725L115.983 61.2985C116.331 61.2783 116.679 61.2506 117.029 61.2128L117.561 63.449L118.917 63.2599L118.892 60.9178C119.213 60.8497 119.528 60.7766 119.84 60.6934L120.68 62.8893L122.054 62.4834L121.577 60.1489C121.905 60.0278 122.23 59.8993 122.548 59.7631L123.73 61.8506L125.029 61.2455L124.192 58.9639C124.547 58.7698 124.895 58.5631 125.233 58.3488L126.763 60.2623L127.948 59.4581L126.736 57.2924C127.063 57.0378 127.383 56.7706 127.694 56.4958L129.552 58.1723L130.593 57.1866L129.015 55.205C129.252 54.9503 129.484 54.6881 129.705 54.4209L131.831 55.8201L132.711 54.6881L130.822 52.941C131.105 52.5275 131.369 52.1015 131.619 51.6678L133.996 52.6864L134.662 51.4183L132.466 50.014C132.6 49.719 132.726 49.419 132.847 49.114L135.375 49.7745L135.844 48.4206L133.442 47.3517C133.545 46.9836 133.641 46.613 133.724 46.2374L133.717 46.2273ZM118.562 56.5361L116.984 46.7063L116.054 46.855C117.849 46.5676 119.258 45.3323 119.853 43.7415L129.776 45.3474C128.531 50.788 124.262 55.2478 118.562 56.5336V56.5361ZM102.611 49.8224L111.485 45.1029C112.549 46.4164 114.266 47.1399 116.054 46.8525L115.262 46.9786L116.843 56.816C111.014 57.4387 105.535 54.5747 102.611 49.8199V49.8224ZM117.246 41.717C117.42 42.8036 116.681 43.8247 115.595 43.9986C114.508 44.1726 113.487 43.4339 113.313 42.3473C113.139 41.2607 113.878 40.2397 114.964 40.0657C116.051 39.8917 117.072 40.6304 117.246 41.717ZM103.806 32.578L111.132 39.4606C110.532 40.4237 110.265 41.6011 110.459 42.8087C110.502 43.0734 110.565 43.3305 110.648 43.5776L101.787 48.2896C101.227 47.0794 100.821 45.7735 100.599 44.3944C99.8931 40.0077 101.186 35.7596 103.806 32.5805V32.578ZM121.32 28.4459L116.603 37.3328C115.94 37.1463 115.229 37.0958 114.503 37.2118C113.671 37.3454 112.92 37.6832 112.297 38.1648L104.988 31.2998C107.096 29.2779 109.816 27.8509 112.92 27.3517C115.88 26.8752 118.774 27.3089 121.32 28.4459ZM130.063 43.6305L120.16 42.0271C120.16 41.775 120.14 41.5179 120.097 41.2582C119.886 39.9396 119.165 38.8304 118.166 38.0992L122.866 29.2476C126.524 31.4233 129.229 35.1445 129.957 39.6749C130.172 41.0162 130.199 42.3423 130.063 43.6305Z" fill="#D9E7F4"/>
<path d="M68.4327 65.4657L70.0689 64.7018L69.8471 63.3454L68.0545 63.1437C67.7999 62.4882 67.4243 61.8907 66.9579 61.3815L67.5755 59.6873L66.4587 58.8856L65.0469 60.01C64.4292 59.7377 63.751 59.5738 63.0401 59.5411L62.2761 57.9023L60.9198 58.1242L60.7156 59.9192C60.0626 60.1739 59.4676 60.5445 58.9558 61.0084L57.2516 60.3882L56.4498 61.505L57.5793 62.9219C57.3045 63.5421 57.1406 64.2228 57.1053 64.9388L55.459 65.7052L55.6809 67.0615L57.486 67.2657C57.7406 67.9162 58.1112 68.5087 58.5726 69.0179L57.9499 70.7247L59.0667 71.5264L60.4861 70.3944C61.1063 70.6667 61.7845 70.8331 62.4979 70.8659L63.2644 72.5097L64.6208 72.2878L64.8251 70.4877C65.478 70.2331 66.0729 69.8625 66.5822 69.3986L68.284 70.0188L69.0857 68.9019L67.9587 67.4876C68.2335 66.8649 68.3999 66.1842 68.4327 65.4657ZM66.2948 66.2573C65.7124 68.2061 63.6603 69.3154 61.7114 68.7356C59.7626 68.1532 58.6533 66.101 59.2332 64.1522C59.8155 62.2034 61.8678 61.0941 63.8166 61.6739C65.7654 62.2563 66.8746 64.3085 66.2948 66.2573Z" fill="#D9E7F4"/>
<path d="M100.431 72.9814C100.444 72.4167 100.421 71.8469 100.361 71.2746L102.859 69.9535L102.388 67.977L99.5614 67.9291C99.337 67.3366 99.0723 66.7669 98.7723 66.2223L100.535 64.0541L99.3319 62.418L96.7352 63.4516C96.3419 63.0407 95.9209 62.6549 95.4797 62.2969L96.2965 59.622L94.567 58.5581L92.5501 60.4943C91.9804 60.2372 91.3905 60.0204 90.7879 59.8464L90.5005 57.0656L88.4937 56.7581L87.3895 59.3245C86.8247 59.3119 86.255 59.3346 85.6827 59.3951L84.3615 56.8967L82.385 57.3682L82.3371 60.1943C81.7447 60.4187 81.1749 60.6834 80.6303 60.9834L78.4621 59.2212L76.8259 60.4238L77.8596 63.0205C77.4486 63.4138 77.0629 63.8348 76.7049 64.276L74.03 63.4592L72.966 65.1886L74.9023 67.2055C74.6451 67.7753 74.4283 68.3652 74.2544 68.9678L71.4735 69.2552L71.166 71.262L73.7324 72.3662C73.7198 72.931 73.7426 73.5007 73.8031 74.073L71.3046 75.3941L71.7761 77.3707L74.6023 77.4186C74.8267 78.011 75.0913 78.5808 75.3914 79.1253L73.6292 81.2935L74.8317 82.9297L77.4284 81.896C77.8217 82.307 78.2428 82.6927 78.684 83.0507L77.8672 85.7256L79.5966 86.7895L81.6135 84.8533C82.1833 85.1105 82.7732 85.3273 83.3757 85.5012L83.6632 88.282L85.67 88.5896L86.7742 86.0231C87.3389 86.0357 87.9087 86.013 88.481 85.9525L89.8021 88.4509L91.7787 87.9795L91.8266 85.1533C92.419 84.9289 92.9888 84.6642 93.5334 84.3642L95.7015 86.1265L97.3378 84.9239L96.3041 82.3272C96.7151 81.9339 97.1008 81.5128 97.4588 81.0716L100.134 81.8885L101.198 80.159L99.2614 78.1421C99.5186 77.5723 99.7353 76.9824 99.9093 76.3799L102.69 76.0924L102.998 74.0856L100.431 72.9814ZM96.2209 75.4042C94.7158 80.4514 89.4013 83.323 84.354 81.8179C79.3067 80.3128 76.4351 74.9983 77.9402 69.951C79.4453 64.9038 84.7599 62.0322 89.8072 63.5373C94.8545 65.0424 97.726 70.3569 96.2209 75.4042Z" fill="#D9E7F4"/>
<path d="M122.19 82.7865C122.79 82.2319 123.322 81.6117 123.768 80.931L122.689 79.0629C123.05 78.3393 123.305 77.5603 123.436 76.7434L125.399 75.856C125.415 75.4577 125.412 75.0492 125.377 74.6408C125.344 74.2299 125.284 73.829 125.203 73.4332L123.118 72.8811C122.853 72.092 122.48 71.3684 122.009 70.7129L122.772 68.691C122.218 68.0986 121.595 67.5666 120.914 67.1229L119.046 68.1994C118.325 67.8389 117.551 67.5842 116.719 67.4506L115.844 65.4816C115.439 65.469 115.033 65.4716 114.619 65.5043C114.211 65.5396 113.802 65.6027 113.417 65.6808L112.857 67.7632C112.065 68.028 111.339 68.4061 110.689 68.8751L108.662 68.1187C108.067 68.6708 107.54 69.2936 107.086 69.9692L108.168 71.8424C107.815 72.5609 107.558 73.3399 107.424 74.1593L105.457 75.0442C105.442 75.4451 105.447 75.851 105.478 76.2644C105.513 76.6703 105.578 77.0737 105.654 77.467L107.737 78.0242C108.001 78.8032 108.384 79.5293 108.848 80.1873L108.082 82.2067C108.642 82.8067 109.259 83.3336 109.94 83.7824L111.811 82.7059C112.527 83.0588 113.308 83.316 114.13 83.4521L115.02 85.4161C115.418 85.4337 115.832 85.4261 116.24 85.3959C116.651 85.3581 117.047 85.3001 117.448 85.2169L118 83.1344C118.792 82.8697 119.518 82.4941 120.173 82.0201L122.188 82.784L122.19 82.7865ZM118.398 80.9234C115.376 82.5622 111.596 81.4403 109.958 78.42C108.319 75.3972 109.441 71.618 112.461 69.9793C115.484 68.3406 119.263 69.4625 120.902 72.4828C122.541 75.5056 121.419 79.2847 118.398 80.9234Z" fill="#D9E7F4"/>
<path d="M89.1772 30.97C89.1243 30.1154 89.0184 29.2557 88.852 28.3985L92.4648 26.0841L91.5016 23.1546L87.2207 23.4395C86.8048 22.5697 86.3333 21.7428 85.8115 20.9587L88.2015 17.4569L86.1745 15.1324L82.3777 17.0233C81.7297 16.451 81.0466 15.9215 80.3331 15.4375L81.228 11.2877L78.475 9.8986L75.669 13.0828C74.774 12.7676 73.8563 12.513 72.921 12.3264L72.1344 8.15904L69.0586 7.94727L67.7123 11.9684C66.8577 12.0214 65.998 12.1273 65.1408 12.2937L62.8264 8.68091L59.8968 9.64397L60.1817 13.9248C59.3119 14.3408 58.485 14.8122 57.7009 15.3341L54.1991 12.9441L51.8747 14.9711L53.7655 18.7679C53.1932 19.4158 52.6638 20.099 52.1797 20.8125L48.0299 19.9175L46.6407 22.6705L49.825 25.4765C49.5099 26.3715 49.2552 27.2892 49.0687 28.2246L44.9012 29.0111L44.6895 32.0869L48.7106 33.4332C48.7635 34.2878 48.8694 35.1475 49.0358 36.0047L45.423 38.3191L46.3862 41.2486L50.667 40.9637C51.083 41.8335 51.5544 42.6604 52.0763 43.4445L49.6863 46.9463L51.7133 49.2708L55.5101 47.3799C56.158 47.9522 56.8412 48.4817 57.5547 48.9657L56.6597 53.1155L59.4128 54.5046L62.2188 51.3204C63.1138 51.6356 64.0314 51.8902 64.9668 52.0768L65.7534 56.2442L68.8292 56.4559L70.1755 52.4348C71.0301 52.3818 71.8899 52.2759 72.7471 52.1095L75.0614 55.7223L77.9909 54.7592L77.7061 50.4784C78.5759 50.0624 79.4028 49.5909 80.1868 49.0691L83.6887 51.4591L86.0131 49.4321L84.1223 45.6353C84.6946 44.9874 85.224 44.3042 85.7081 43.5907L89.8578 44.4857L91.247 41.7327L88.0629 38.9267C88.378 38.0317 88.6327 37.114 88.8192 36.1787L92.9866 35.3921L93.1983 32.3163L89.1772 30.97ZM77.7893 39.5216C73.7479 44.4076 66.5098 45.0908 61.6238 41.0494C56.7379 37.0081 56.0546 29.77 60.096 24.8841C64.1374 19.9982 71.3755 19.3149 76.2615 23.3563C81.1474 27.3976 81.8307 34.6357 77.7893 39.5216Z" fill="#D9E7F4"/>
<path d="M82.568 36.9054C85.1647 29.3798 81.1687 21.1761 73.6457 18.5794C66.1201 15.9827 57.9164 19.9786 55.3196 27.5016C52.7229 35.0271 56.7189 43.2308 64.2419 45.8276C71.7675 48.4243 79.9712 44.4283 82.568 36.9054ZM79.5299 35.8566C77.513 41.703 71.1371 44.8065 65.2906 42.7896C59.4442 40.7727 56.3406 34.3968 58.3575 28.5504C60.3744 22.7039 66.7504 19.6005 72.5968 21.6173C78.4433 23.6342 81.5468 30.0101 79.5299 35.8566Z" fill="#D9E7F4"/>
<path d="M46.4436 47.1683L49.0631 44.7682L47.8428 42.3505L44.3536 43.0312C43.4863 41.9522 42.4325 41.0521 41.2527 40.3689L41.4089 36.8217L38.8374 35.9746L36.8507 38.9218C35.5296 38.7781 34.1607 38.8688 32.8043 39.2268L30.3991 36.5998L27.9814 37.8201L28.6621 41.3093C27.5855 42.174 26.6881 43.2228 26.0023 44.3976L22.435 44.2413L21.5879 46.8129L24.5452 48.8045C24.3989 50.1332 24.4897 51.5072 24.8502 52.8736L22.2131 55.2888L23.4333 57.7066L26.9427 57.0234C27.8049 58.0948 28.8512 58.9873 30.0185 59.6705L29.8622 63.2455L32.4336 64.0925L34.4305 61.1277C35.7541 61.2739 37.1255 61.1832 38.4843 60.8252L40.8971 63.4598L43.3149 62.2395L42.6316 58.7377C43.7082 57.8755 44.6032 56.8242 45.2889 55.6519L48.8488 55.8082L49.6958 53.2366L46.7461 51.25C46.8923 49.9189 46.8016 48.5398 46.4386 47.1734L46.4436 47.1683ZM38.9105 49.9794C38.9383 51.782 37.5012 53.2644 35.6986 53.2921C33.8959 53.3198 32.4135 51.8828 32.3858 50.0802C32.358 48.2776 33.7951 46.7952 35.5977 46.7675C37.4003 46.7397 38.8828 48.1768 38.9105 49.9794Z" fill="#D9E7F4"/>
<path d="M42.6475 52.4482C43.9812 48.5809 41.929 44.3656 38.0616 43.0319C34.1942 41.6982 29.9789 43.7504 28.6452 47.6178C27.3115 51.4852 29.3637 55.7005 33.2311 57.0341C37.0985 58.3678 41.3138 56.3156 42.6475 52.4482ZM38.8658 51.1423C38.2507 52.9222 36.3119 53.8651 34.532 53.2525C32.7521 52.6373 31.8092 50.6986 32.4218 48.9187C33.037 47.1388 34.9757 46.1959 36.7556 46.8085C38.5355 47.4237 39.4785 49.3624 38.8658 51.1423Z" fill="#D9E7F4"/>
<path d="M62.02 35.8555V78.5303C62.02 79.3824 62.7184 80.0808 63.5705 80.0808H132.846C133.698 80.0808 134.396 79.3824 134.396 78.5303V35.8555H62.0176H62.02Z" fill="white"/>
<path d="M134.449 35.9295V31.0134C134.449 30.1612 133.75 29.4629 132.898 29.4629H63.6229C62.7707 29.4629 62.0723 30.1612 62.0723 31.0134V35.9295H134.451H134.449Z" fill="#2F61A8"/>
<path d="M65.7674 31.7305H65.7094C65.2151 31.7305 64.8145 32.1312 64.8145 32.6255V32.6834C64.8145 33.1777 65.2151 33.5784 65.7094 33.5784H65.7674C66.2617 33.5784 66.6623 33.1777 66.6623 32.6834V32.6255C66.6623 32.1312 66.2617 31.7305 65.7674 31.7305Z" fill="white"/>
<path d="M69.3553 31.7344H69.2973C68.803 31.7344 68.4023 32.1351 68.4023 32.6294V32.6874C68.4023 33.1816 68.803 33.5823 69.2973 33.5823H69.3553C69.8496 33.5823 70.2502 33.1816 70.2502 32.6874V32.6294C70.2502 32.1351 69.8496 31.7344 69.3553 31.7344Z" fill="#EF8200"/>
<path d="M73.1209 31.7344H73.0629C72.5686 31.7344 72.168 32.1351 72.168 32.6294V32.6874C72.168 33.1816 72.5686 33.5823 73.0629 33.5823H73.1209C73.6152 33.5823 74.016 33.1816 74.016 32.6874V32.6294C74.016 32.1351 73.6152 31.7344 73.1209 31.7344Z" fill="#729EDB"/>
<path d="M117.05 39.3026H64.709V77.4445H117.05V39.3026Z" fill="#D7E7F5"/>
<path d="M114.192 42.5898H97.5879V55.9795H114.192V42.5898Z" fill="white"/>
<path d="M94.9212 42.5898H67.8594V74.3004H94.9212V42.5898Z" fill="white"/>
<path d="M86.8577 62.6367C86.8577 63.6628 86.5728 64.6234 86.0762 65.4427L89.2352 67.3512C90.0672 65.9747 90.5487 64.3637 90.5487 62.6367H86.8603H86.8577Z" fill="#EF8200"/>
<path d="M77.716 70.9097C78.8379 71.4038 80.0783 71.6786 81.3817 71.6786C84.6894 71.6786 87.6365 69.987 89.2324 67.3499L86.0735 65.4414C85.123 67.0121 83.3481 67.9903 81.3791 67.9903C80.6026 67.9903 79.864 67.8264 79.1959 67.5314L77.7109 70.9097H77.716Z" fill="#F29B00"/>
<path d="M77.7275 70.9026L79.2277 67.5293C77.9999 66.9822 77.0141 65.994 76.4696 64.7637L73.0938 66.2536C74.0064 68.321 75.6653 69.9824 77.7301 70.9026H77.7275Z" fill="#2F61A8"/>
<path d="M73.0869 66.251L76.4628 64.761C76.1653 64.0904 76.0014 63.3492 76.0014 62.5702C76.0014 61.597 76.2585 60.6869 76.7048 59.8978L73.4929 58.0801C72.7416 59.4062 72.3105 60.939 72.3105 62.5702C72.3105 63.8812 72.5878 65.1266 73.0845 66.251H73.0869Z" fill="#2F61A8"/>
<path d="M79.7321 57.4876L78.5598 53.9883C76.3942 54.6942 74.5864 56.1867 73.4746 58.1305L76.6866 59.9482C77.3547 58.7885 78.4363 57.901 79.7321 57.4876Z" fill="#2F61A8"/>
<path d="M81.432 53.5215C80.4286 53.5215 79.4656 53.6854 78.5605 53.9854L79.7228 57.4872C80.2598 57.3082 80.8345 57.2099 81.432 57.2099C84.4271 57.2099 86.8575 59.6377 86.8575 62.6353H90.5459C90.5459 57.6032 86.4667 53.5215 81.432 53.5215Z" fill="#729EDB"/>
<path d="M92.6099 45.9004H70.1719V46.8584H92.6099V45.9004Z" fill="#BFD7E8"/>
<path d="M92.606 48.125H70.168V49.083H92.606V48.125Z" fill="#BFD7E8"/>
<path d="M92.5982 50.2891H70.1602V51.2471H92.5982V50.2891Z" fill="#BFD7E8"/>
<path d="M114.192 57.5137H97.5879V74.3043H114.192V57.5137Z" fill="white"/>
<path d="M111.498 65.4258H100.281V66.3838H111.498V65.4258Z" fill="#BFD7E8"/>
<path d="M111.496 67.6523H100.279V68.6104H111.496V67.6523Z" fill="#BFD7E8"/>
<path d="M111.49 69.8184H100.273V70.7764H111.49V69.8184Z" fill="#BFD7E8"/>
<path d="M112.66 54.6133H99.1187C98.9145 54.6133 98.748 54.4545 98.748 54.2578C98.748 54.0612 98.9145 53.9023 99.1187 53.9023H112.66C112.864 53.9023 113.03 54.0612 113.03 54.2578C113.03 54.4545 112.864 54.6133 112.66 54.6133Z" fill="#BFD7E8"/>
<path d="M109.846 48.0918L107.018 49.9322L105.487 49.1985L102.326 50.5927L99.666 49.1027V47.759L102.182 48.7145L104.227 47.7993L106.977 44.7715L108.656 46.2337L112.66 43.2891V50.2751L109.846 48.0918Z" fill="#2F61A8"/>
<path d="M102.268 51.736L105.467 50.3241L107.098 51.1057L109.791 49.3535L112.66 51.5797V52.631H99.666V50.2762L102.268 51.736Z" fill="#F29B00"/>
<path d="M47.1914 88.5801C46.8132 89.6541 46.5536 90.9524 46.4704 92.3592C46.2586 95.9745 46.8511 97.2754 47.8974 103.074L49.1907 103.165C49.7353 100.389 50.2445 95.4577 50.4714 91.5626C50.5269 90.6247 50.5647 89.707 50.5925 88.8171L47.1914 88.5801Z" fill="#EFB495"/>
<path d="M53.913 88.4741C53.4138 89.4826 52.9953 90.728 52.7255 92.107C52.0347 95.6517 52.4078 97.0232 52.5843 102.905L53.7744 103.18C54.6593 100.515 56.2676 95.9946 56.8248 92.8079C57.382 89.6212 57.2964 88.9204 57.493 87.748L53.913 88.4741Z" fill="#EFB495"/>
<path d="M52.3296 106.694C51.7952 106.034 51.0262 106.341 50.3354 105.129C49.6446 103.914 49.4756 103.276 49.4756 103.276L48.6336 103.172C48.5883 103.276 48.5 103.344 48.4017 103.336C48.2958 103.329 48.2127 103.238 48.1849 103.117L47.8369 103.109C47.4688 103.344 47.1563 104.229 47.0933 105.308C47.0529 106.001 47.1234 106.629 47.2697 107.068L47.7537 107.1C47.7209 106.601 47.7159 106.029 47.7411 105.424L48.2379 105.754L48.8353 107.176L52.4456 107.426C52.4456 107.426 52.8641 107.357 52.3296 106.697V106.694Z" fill="#083E7F"/>
<path d="M57.0699 107.015C56.5354 106.354 55.7664 106.662 55.0756 105.449C54.3848 104.234 54.216 103.596 54.216 103.596L53.3739 103.493C53.3285 103.596 53.2403 103.664 53.1419 103.657C53.036 103.649 52.9529 103.558 52.9252 103.437L52.5773 103.43C52.2092 103.664 51.8965 104.549 51.8335 105.628C51.7931 106.321 51.8638 106.949 52.01 107.388L52.494 107.421C52.4613 106.921 52.4562 106.349 52.4814 105.744L52.9781 106.074L53.5756 107.496L57.1858 107.746C57.1858 107.746 57.6043 107.678 57.0699 107.017V107.015Z" fill="#083E7F"/>
<path d="M46.9403 89.5096C46.4411 88.6095 45.4429 86.8095 45.1454 85.617C44.4546 82.8564 43.7889 81.7572 44.9335 76.5662L48.4808 76.4805C49.2346 78.8528 49.9985 83.116 50.3893 86.5019C50.4825 87.3187 50.5557 88.1154 50.6137 88.8944L46.9429 89.507L46.9403 89.5096Z" fill="#EFB495"/>
<path d="M54.7005 88.336C54.2946 87.4234 53.4878 85.5956 53.2282 84.4006C52.6256 81.6274 52.091 80.5105 52.8171 75.375L55.5122 75.4053C56.15 77.7927 56.8509 82.066 57.2392 85.4519C57.3325 86.2687 57.4106 87.0654 57.4762 87.8419L54.7005 88.3335V88.336Z" fill="#EFB495"/>
<path d="M53.8504 89.0666C53.5025 88.1464 52.8066 86.3034 52.5697 85.1034C52.0226 82.3251 51.5612 81.1957 52.0402 76.0955L54.2261 76.1963C54.7959 78.5939 55.4564 82.8722 55.8447 86.2581C55.9379 87.0749 56.0185 87.8716 56.0891 88.6481L53.8504 89.0666Z" fill="#EFB495"/>
<path d="M52.9522 53.5372C52.5337 54.4347 54.4396 56.7793 57.2078 58.7735C58.0019 59.3458 59.7667 60.4299 61.244 60.7249C64.9173 61.461 69.1579 60.7375 69.4554 60.0996C69.7252 59.5198 66.5662 59.071 63.5484 58.0727C61.892 57.5256 60.2785 56.6029 59.2978 55.897C57.6692 54.7221 56.5069 49.6396 55.4077 49.3698C54.6387 49.1807 53.121 53.1666 52.9496 53.5347L52.9522 53.5372Z" fill="#EFB291"/>
<path d="M67.6562 59.566C67.6562 60.4786 69.0605 61.2198 70.3034 61.2198C71.5463 61.2198 72.5194 59.808 72.5194 58.8953C72.5194 58.2096 71.0849 59.4954 70.2857 59.4323C70.021 59.4122 70.6135 57.9121 70.3034 57.9121C69.6807 57.9121 69.7563 58.8651 69.3479 59.1651C68.9395 59.4651 67.6562 59.1096 67.6562 59.5685V59.566Z" fill="#EFB291"/>
<path d="M55.5906 41.3668C54.4636 46.5881 54.7284 47.536 54.4183 47.4679C52.7417 47.1024 50.5938 44.3544 50.5938 40.9307C50.5938 37.507 51.6979 34.7288 53.0594 34.7288C54.4208 34.7288 56.3092 38.0314 55.5881 41.3668H55.5906Z" fill="#1C3054"/>
<path d="M48.8145 47.0781C49.3741 47.3705 50.0448 48.2101 50.6877 48.442C52.0188 48.9235 53.1306 47.3554 53.7458 46.9772C53.5038 46.5386 52.6365 45.9285 52.6365 45.3007C52.6365 44.446 52.6819 43.6922 53.0953 43.2409V42.172H50.5944C50.4835 44.1662 49.8103 45.9133 48.8145 47.0781Z" fill="#EA9F86"/>
<path d="M54.9868 37.6287C54.707 35.811 53.159 36.1413 52.0295 36.4312C51.3034 36.6152 50.6756 36.9152 50.4034 37.9867C50.2395 37.8102 50.0656 38.2867 49.8815 38.3422C49.5008 38.4582 49.2966 38.6951 49.4252 39.3859C49.5538 40.0767 49.9596 40.9641 50.3403 40.8482C50.358 40.8431 50.3756 40.8305 50.3933 40.823C50.5269 41.3776 50.4563 41.8617 50.7411 42.2524C51.2983 43.0163 52.3673 43.4399 53.0782 43.4499C55.3977 43.4852 55.2666 39.4439 54.9868 37.6287Z" fill="#EBB190"/>
<path d="M55.7973 36.239C55.6107 34.9961 52.9761 33.8868 51.1684 34.1918C50.0188 34.386 49.4894 34.3784 48.5012 35.7347C47.5129 37.0911 47.4851 43.0535 47.6515 43.5124C48.065 44.6469 49.8777 46.3007 50.4399 46.3285C50.5206 46.3335 50.7171 44.3494 50.6591 42.7737C50.6238 41.7602 50.3239 40.9156 50.3516 40.8778C50.1525 40.8123 49.9507 40.6408 49.8121 40.3887C49.5801 39.9627 49.6205 39.4811 49.9003 39.3097C50.1298 39.1685 50.4449 39.2845 50.6793 39.5618C50.8684 38.6189 51.2593 37.6231 52.9081 37.9231C54.7132 38.2508 55.9813 37.4844 55.7947 36.239H55.7973Z" fill="#083E7F"/>
<path d="M45.0043 62.7652C46.401 60.5264 47.7648 55.9481 47.7648 54.2917C47.7648 52.063 46.3884 50.2579 44.6891 50.2579C44.3236 50.2579 43.9756 50.3462 43.6504 50.5C44.5782 47.8856 48.9725 45.8409 49.8045 45.2888C49.9305 45.2056 49.7516 45.4224 49.8726 45.3569L52.4743 47.8982L53.6189 46.683C54.5694 47.3687 56.6266 49.1461 57.2166 52.0504C57.9931 55.8674 55.4618 58.6356 55.3231 61.2928C55.187 63.9501 55.187 68.9545 55.187 68.9545H44.7798C44.7798 68.9545 45.1504 66.3199 45.0067 62.7677L45.0043 62.7652Z" fill="#F29B00"/>
<path d="M54.3086 46.6964C54.2556 46.6535 54.2028 46.6107 54.1523 46.5703L54.2885 46.7165L54.3086 46.6964Z" fill="#EF8200"/>
<path d="M46.6002 66.2068C46.6002 66.2068 46.9707 64.1597 46.827 60.7965C48.2237 58.6763 48.2918 54.8946 48.2918 53.3265C48.2918 51.2163 47.0338 49.6406 45.3345 49.6406C45.1833 49.6406 44.6689 50.1549 43.6504 50.4978C43.784 50.4751 44.553 50.2558 44.6891 50.2558C46.3884 50.2558 47.8179 52.3559 47.8078 53.4122C47.8078 54.9803 46.4463 59.3141 45.0471 61.4344C45.1908 64.7975 44.8202 67.2934 44.8202 67.2934L52.6634 68.0044L55.2274 67.2934C55.2274 67.2934 55.2274 67.2632 55.2274 67.2052L46.6002 66.2068Z" fill="#EF8200"/>
<path d="M44.9835 66.5471C45.0718 66.4059 45.1651 66.2698 45.2659 66.1387C47.1593 66.9076 50.1947 67.4446 52.257 67.5883C53.9411 67.7043 54.8714 67.4295 55.3882 66.9202C55.3983 66.9479 55.4135 66.9732 55.4235 67.0009C57.0648 71.3246 57.5437 82.8259 57.5437 82.8259C57.5437 82.8259 43.4582 84.1797 43.5868 83.3805C44.6432 76.861 42.7094 70.2405 44.986 66.5446L44.9835 66.5471Z" fill="#2F61A8"/>
<path d="M44.396 50.2642C45.707 50.3853 47.023 50.6323 47.8045 53.4106C47.6684 54.7342 47.3936 55.3367 47.0759 57.1822C46.307 61.6597 44.6355 65.1186 43.3396 64.9119C42.0438 64.7052 41.6555 60.9109 42.3892 56.4284C42.9287 53.1257 43.6473 51.2802 44.3935 50.2617L44.396 50.2642Z" fill="#EFB291"/>
<path d="M44.2827 64.4691C44.7567 64.9279 46.1433 63.7783 49.209 60.8109C52.2747 57.8461 54.3773 55.0704 53.9033 54.6115C53.4294 54.1527 50.5603 56.1847 47.4947 59.1521C44.429 62.1169 43.8113 64.0102 44.2853 64.4691H44.2827Z" fill="#EFB291"/>
<path d="M52.3188 53.0956C51.7012 54.3713 51.8247 55.6899 52.5962 56.0403C53.3677 56.3907 53.7358 55.9722 54.3535 54.6966C54.9711 53.4209 55.145 52.9141 54.3735 52.5637C53.6021 52.2133 52.9365 51.82 52.3188 53.0956Z" fill="#EFB291"/>
<path d="M68.5074 61.1729L68.278 60.946C68.1595 60.8275 68.1545 60.6435 68.2654 60.5326L72.7202 56.045C72.8312 55.9341 73.0152 55.9391 73.1337 56.0551L73.3631 56.282C73.4816 56.4005 73.4867 56.5845 73.3758 56.6954L68.9209 61.183C68.81 61.2939 68.6259 61.2889 68.5074 61.1729Z" fill="#13375B"/>
<path d="M46.6284 83.3695C46.6284 83.3695 46.1821 72.6296 44.6694 68.0059C42.9047 71.6388 44.4325 77.6365 43.6484 83.6367C45.388 83.4905 46.6258 83.372 46.6258 83.372L46.6284 83.3695Z" fill="#225593"/>
<path d="M52.616 49.0915C52.733 49.0915 52.8278 48.9967 52.8278 48.8797C52.8278 48.7628 52.733 48.668 52.616 48.668C52.4991 48.668 52.4043 48.7628 52.4043 48.8797C52.4043 48.9967 52.4991 49.0915 52.616 49.0915Z" fill="white"/>
<path d="M52.827 50.8435C52.9439 50.8435 53.0388 50.7487 53.0388 50.6317C53.0388 50.5147 52.9439 50.4199 52.827 50.4199C52.71 50.4199 52.6152 50.5147 52.6152 50.6317C52.6152 50.7487 52.71 50.8435 52.827 50.8435Z" fill="white"/>
<path opacity="0.3" d="M106.904 119.102C114.881 119.102 121.348 117.99 121.348 116.617C121.348 115.244 114.881 114.131 106.904 114.131C98.9275 114.131 92.4609 115.244 92.4609 116.617C92.4609 117.99 98.9275 119.102 106.904 119.102Z" fill="#C7D0DD"/>
<path d="M131.175 89.4805H116.021C115.204 89.4805 114.541 90.143 114.541 90.9604V92.4226C114.541 93.2399 115.204 93.9025 116.021 93.9025H131.175C131.993 93.9025 132.655 93.2399 132.655 92.4226V90.9604C132.655 90.143 131.993 89.4805 131.175 89.4805Z" fill="#073868"/>
<path d="M133.805 113.716L122.613 112.836V110.988L133.805 112.924V113.716Z" fill="#073868"/>
<path d="M111.426 113.716L122.614 112.836V110.988L111.426 112.924V113.716Z" fill="#073868"/>
<path d="M133.889 116.71C134.544 116.71 135.076 116.158 135.076 115.477C135.076 114.796 134.544 114.244 133.889 114.244C133.233 114.244 132.701 114.796 132.701 115.477C132.701 116.158 133.233 116.71 133.889 116.71Z" fill="#073868"/>
<path d="M111.426 116.536C112.082 116.536 112.613 115.984 112.613 115.303C112.613 114.622 112.082 114.07 111.426 114.07C110.77 114.07 110.238 114.622 110.238 115.303C110.238 115.984 110.77 116.536 111.426 116.536Z" fill="#073868"/>
<path d="M133.636 113.684H133.205V114.511H133.636V113.684Z" fill="#073868"/>
<path d="M112.091 113.508H111.66V114.335H112.091V113.508Z" fill="#073868"/>
<path d="M122.615 116.708C123.271 116.708 123.803 116.156 123.803 115.475C123.803 114.794 123.271 114.242 122.615 114.242C121.959 114.242 121.428 114.794 121.428 115.475C121.428 116.156 121.959 116.708 122.615 116.708Z" fill="#073868"/>
<path d="M122.831 113.338H122.4V114.656H122.831V113.338Z" fill="#073868"/>
<path d="M123.294 112.352H121.938V113.496H123.294V112.352Z" fill="#073868"/>
<path d="M125.33 92.4358H119.904V102.485H125.33V92.4358Z" fill="#073868"/>
<path d="M123.549 100.453H121.684V111.105H123.549V100.453Z" fill="#073868"/>
<path d="M94.9375 115.565L101.354 116.044L102.249 116.112L103.371 116.195L103.671 112.172L100.479 111.965L98.7772 113.389L94.9778 115.043L94.9375 115.565Z" fill="#19132E"/>
<path d="M103.729 110.705L100.883 110.492L100.776 111.918L103.622 112.131L103.729 110.705Z" fill="#F3C6A0"/>
<path d="M107.453 116.497L113.887 116.656L114.782 116.679L115.907 116.707L116.007 112.673L112.811 112.625L111.179 114.133L107.468 115.976L107.453 116.497Z" fill="#19132E"/>
<path d="M115.974 111.37L113.121 111.299L113.085 112.728L115.939 112.799L115.974 111.37Z" fill="#F3C6A0"/>
<path d="M108.865 97.7824C110.357 94.9714 118.014 96.2496 123.414 91.6561C128.814 87.0627 115.021 86.4551 115.021 86.4551C115.021 86.4551 107.087 90.8443 105.66 91.2527C104.231 91.6612 103.452 93.252 102.96 95.8639C102.469 98.4757 98.793 111.966 98.793 111.966L104.574 112.486C104.574 112.486 107.372 100.596 108.865 97.7849V97.7824Z" fill="#083E7F"/>
<path d="M118.248 96.7805C119.196 93.7425 125.746 94.9905 130.206 89.4793C134.666 83.9682 121.571 87.6692 121.571 87.6692C121.571 87.6692 115.024 91.0853 113.695 91.7509C112.367 92.4139 111.893 94.1232 111.893 96.7805V112.82H116.542C116.542 112.82 117.3 99.8184 118.251 96.7805H118.248Z" fill="#16528E"/>
<path d="M131.535 87.48C131.535 87.48 130.529 90.1801 122.776 89.3053C115.024 88.4305 114.172 86.3329 114.172 86.3329C114.172 86.3329 114.832 73.4374 115.594 69.4516C116.353 65.4657 120.149 64.1371 120.149 64.1371L123.417 65.4858L126.603 64.1371C126.603 64.1371 131.159 64.0085 132.299 68.7532C133.438 73.4979 131.54 87.4825 131.54 87.4825L131.535 87.48Z" fill="#729EDB"/>
<path d="M122.725 89.3836C122.775 89.3887 122.826 89.3937 122.876 89.3988C125.029 82.6977 126.55 72.1443 126.55 64.2129C126.55 64.2129 126.633 65.0953 123.244 65.5617C119.856 66.0281 120.433 64.2129 120.433 64.2129C118.618 68.0803 118.908 81.6539 117.244 88.2895C118.507 88.7055 120.269 89.1063 122.725 89.3836Z" fill="#ECF5FC"/>
<path d="M114.471 72.0674L114.148 76.3281L108.43 81.8644C108.355 82.8527 110.036 83.9847 111.024 84.0578L114.377 83.6116C114.569 80.324 114.965 74.1977 115.424 70.6152C114.897 70.8976 114.519 71.4321 114.471 72.0674Z" fill="#2F61A8"/>
<path d="M123.772 82.5045L122.897 80.7852L117.277 82.4138C116.584 82.2424 115.699 82.1415 114.731 82.1415C112.512 82.1415 110.715 82.681 110.715 83.3466C110.715 84.0122 112.512 84.5517 114.731 84.5517C116.173 84.5517 117.436 84.3248 118.145 83.9819L123.772 82.5071V82.5045Z" fill="#F3C6A0"/>
<path d="M133.906 78.655C133.906 76.6633 133.432 70.5874 132.293 68.752C131.153 66.9167 131.589 68.7243 130.155 68.7924C128.72 68.8604 127.603 70.0882 127.669 71.5202C127.669 71.5202 128.977 78.2188 128.024 79.1491C127.071 80.0794 119.195 80.7424 119.195 80.7424V85.3914C119.195 85.3914 130.997 83.2938 132.071 82.8249C133.145 82.3559 133.906 80.2231 133.904 78.655H133.906Z" fill="#729EDB"/>
<path d="M132.562 69.4654C132.928 72.4101 132.86 76.5396 132.862 77.9515C132.862 79.5196 132.103 81.6525 131.029 82.1214C130.402 82.3962 126.088 83.7147 122.611 84.761C126.184 84.103 131.314 83.1273 132.005 82.8248C133.079 82.3558 133.84 80.223 133.838 78.6549C133.838 76.8724 133.457 71.8226 132.562 69.4629V69.4654Z" fill="#2F61A8"/>
<path d="M111.279 83.9145C111.088 83.2439 110.659 82.6338 110.054 82.122C109.477 82.0262 108.816 81.9707 108.108 81.9707C105.889 81.9707 104.092 82.5102 104.092 83.1758C104.092 83.8414 105.889 84.3809 108.108 84.3809C109.399 84.3809 110.543 84.1968 111.279 83.9145Z" fill="#F3C6A0"/>
<path d="M120.76 61.4453V64.995C120.76 64.995 123.53 68.033 126.077 65.0656L125.855 61.4453H120.76Z" fill="#E8BEA9"/>
<path d="M123.472 63.8738C123.404 63.8839 123.336 63.8914 123.268 63.8965C122.416 63.9595 121.627 63.72 120.989 63.1981C120.931 63.1502 120.931 63.0695 120.989 63.0166C121.044 62.9637 121.138 62.9586 121.196 63.0065C121.775 63.478 122.489 63.6973 123.258 63.6393C124.062 63.5788 124.748 63.2006 125.3 62.5174C125.348 62.4569 125.439 62.4418 125.504 62.4796C125.57 62.5174 125.585 62.5981 125.537 62.6561C124.985 63.3418 124.276 63.7578 123.475 63.8713L123.472 63.8738Z" fill="#BA745D"/>
<path d="M119.722 57.4121C119.39 60.3063 119.765 63.4375 122.039 63.6417C124.404 63.8535 126.9 62.5047 127.233 59.6105C127.565 56.7162 126.012 53.9808 123.764 53.5044C121.515 53.0253 120.058 54.5178 119.725 57.4121H119.722Z" fill="#F3C6A0"/>
<path d="M119.571 54.9441C119.452 54.6441 119.49 54.2911 119.742 53.8978C119.792 53.8197 119.85 53.739 119.921 53.6533C120.206 53.2877 120.622 52.9449 121 52.6474C121.013 52.6474 121.028 52.6474 121.038 52.6524C122.906 52.0726 125.067 51.9314 126.756 52.7583C127.583 53.1491 128.044 53.739 128.253 54.4172C128.692 55.3298 128.561 56.8022 128.321 57.9089C128.256 58.2115 128.185 58.4837 128.112 58.7132C127.784 59.7746 127.363 61.2166 126.491 62.0209C126.31 62.1646 126.017 62.3158 125.75 62.2831C125.735 62.2805 125.722 62.278 125.712 62.2755C125.742 62.2276 125.775 62.1772 125.803 62.1242C125.889 61.8015 125.871 61.441 125.871 61.1208C126.004 61.2393 126.11 61.3023 126.231 61.3099C126.35 61.32 126.481 61.2721 126.66 61.1662C127.121 60.9141 127.283 60.4376 127.303 59.9384C127.303 59.8099 127.28 59.5855 127.225 59.3712C127.222 59.3712 127.222 59.3636 127.22 59.3611C127.179 59.2098 127.119 59.0661 127.033 58.9703C126.965 58.8947 126.884 58.8468 126.779 58.8468C126.635 58.8468 126.393 59.0283 126.267 59.1796C126.257 59.1947 126.247 59.2073 126.239 59.2174C126.211 59.3687 126.179 59.5199 126.141 59.6661C126.1 59.8376 126.05 60.0065 125.997 60.1729C125.793 60.2737 125.583 60.4099 125.357 60.4326L125.346 60.3216C125.674 59.4039 125.667 58.4333 125.629 57.4627C125.619 57.2257 125.609 56.9887 125.601 56.7517C125.591 56.5324 125.586 56.3131 125.586 56.0937V56.0584C124.573 55.9954 123.536 55.9299 122.667 55.5618C123.004 55.7105 123.292 55.9147 123.554 56.1442C123.642 56.2198 123.728 56.2979 123.811 56.3761C124.013 56.5652 124.207 56.7593 124.411 56.9383C123.254 57.0215 121.527 56.3811 120.352 55.6727C120.183 55.5693 120.027 55.466 119.883 55.3626L119.878 55.3677L119.873 55.3752C119.85 55.6248 119.835 55.8794 119.823 56.1366C119.772 57.0492 119.77 57.9972 119.858 58.9174C119.843 58.9174 119.823 58.9174 119.805 58.9224C119.757 58.6779 119.687 58.4409 119.621 58.2039C119.533 57.8812 119.447 57.5585 119.422 57.2181C119.369 56.5526 119.208 55.5618 119.568 54.9441H119.571Z" fill="#314572"/>
<path d="M123.762 53.5037C123.762 54.439 121.218 54.8903 120.26 54.8903C119.302 54.8903 118.525 54.1315 118.525 53.1961C118.525 52.2608 119.302 51.502 120.26 51.502C121.218 51.502 123.762 52.5659 123.762 53.5012V53.5037Z" fill="#314572"/>
<path d="M121.382 63.1676C120.648 63.1424 120.141 62.8525 119.809 62.3987C119.96 63.6794 120.497 64.6979 121.692 64.7962C123.578 64.95 125.567 63.9744 125.832 61.8793C125.857 61.6776 125.869 61.4759 125.867 61.2793C124.949 62.5852 123.111 63.2281 121.382 63.1676Z" fill="#314572"/>
<path d="M115.19 81.9082H105.658V83.2419H115.19V81.9082Z" fill="#083E7F"/>
<path d="M106.905 83.1115H93.7345L89.4258 72.8027H102.596L106.905 83.1115Z" fill="#083E7F"/>
<path d="M106.288 83.2469H93.1153L88.8066 72.9355H101.98L106.288 83.2469Z" fill="#083E7F"/>
<path d="M97.9264 84.5864L97.1074 84.2578L84.7802 114.985L85.5992 115.313L97.9264 84.5864Z" fill="#6D819E"/>
<path d="M140.407 84.7602L139.588 84.4316L127.261 115.158L128.08 115.487L140.407 84.7602Z" fill="#6D819E"/>
<path d="M158.181 114.924L159 114.596L146.673 83.869L145.854 84.1976L158.181 114.924Z" fill="#6D819E"/>
<path d="M115.695 115.387L116.514 115.059L104.186 84.3319L103.368 84.6604L115.695 115.387Z" fill="#6D819E"/>
<path d="M149.915 83.3047H91.1202C90.8974 83.3047 90.7168 83.4853 90.7168 83.7081V84.1064C90.7168 84.3292 90.8974 84.5098 91.1202 84.5098H149.915C150.138 84.5098 150.319 84.3292 150.319 84.1064V83.7081C150.319 83.4853 150.138 83.3047 149.915 83.3047Z" fill="#314572"/>
<path d="M74.6281 114.126H65.5824L64.7402 113.733V109.041H74.6281V114.126Z" fill="#E5DACF"/>
<path d="M83.8174 109.041H74.5977V114.126H83.8174V109.041Z" fill="white"/>
<path d="M78.4745 113.703H65.2789C65.1554 113.703 65.0445 113.633 64.9638 113.517C64.8831 113.401 64.8327 113.242 64.8327 113.068V109.889C64.8327 109.539 65.0319 109.254 65.2789 109.254H78.4745V108.83H65.2789C64.868 108.83 64.5352 109.307 64.5352 109.889V113.068C64.5352 113.653 64.868 114.127 65.2789 114.127H78.4745V113.703Z" fill="#EA8500"/>
<path d="M84.5707 108.83H78.4746V109.254H84.5707V108.83Z" fill="#EFB000"/>
<path d="M84.5707 113.703H78.4746V114.127H84.5707V113.703Z" fill="#EFB000"/>
<g opacity="0.3">
<path d="M83.8174 109.721H74.5977V109.847H83.8174V109.721Z" fill="#92A1B2"/>
</g>
<g opacity="0.3">
<path d="M83.8174 110.569H74.5977V110.695H83.8174V110.569Z" fill="#92A1B2"/>
</g>
<g opacity="0.3">
<path d="M83.8174 111.414H74.5977V111.54H83.8174V111.414Z" fill="#92A1B2"/>
</g>
<g opacity="0.3">
<path d="M83.8174 112.236H74.5977V112.362H83.8174V112.236Z" fill="#92A1B2"/>
</g>
<g opacity="0.3">
<path d="M83.8174 113.057H74.5977V113.183H83.8174V113.057Z" fill="#92A1B2"/>
</g>
<path d="M67.7315 108.83H65.1069C63.6909 108.83 62.543 109.978 62.543 111.394V111.563C62.543 112.979 63.6909 114.127 65.1069 114.127H67.7315C69.1475 114.127 70.2954 112.979 70.2954 111.563V111.394C70.2954 109.978 69.1475 108.83 67.7315 108.83Z" fill="#EA8500"/>
<path d="M69.6969 109.254H66.7195C65.5304 109.254 64.5664 110.218 64.5664 111.407V111.551C64.5664 112.74 65.5304 113.704 66.7195 113.704H69.6969C70.886 113.704 71.85 112.74 71.85 111.551V111.407C71.85 110.218 70.886 109.254 69.6969 109.254Z" fill="#E5DACF"/>
<g opacity="0.2">
<path d="M74.4835 109.746H65.3848V109.872H74.4835V109.746Z" fill="#92A1B2"/>
</g>
<g opacity="0.2">
<path d="M74.4874 110.592H64.834V110.718H74.4874V110.592Z" fill="#92A1B2"/>
</g>
<g opacity="0.2">
<path d="M74.4845 111.441H64.5664V111.567H74.4845V111.441Z" fill="#92A1B2"/>
</g>
<g opacity="0.2">
<path d="M74.4874 112.262H64.834V112.388H74.4874V112.262Z" fill="#92A1B2"/>
</g>
<g opacity="0.2">
<path d="M74.4835 113.082H65.3848V113.208H74.4835V113.082Z" fill="#92A1B2"/>
</g>
<path d="M80.5587 101.857H70.5977V104.951H80.5587V101.857Z" fill="white"/>
<path d="M78.6457 104.695H70.6159C70.5403 104.695 70.4722 104.652 70.4243 104.581C70.3764 104.511 70.3436 104.415 70.3436 104.309V102.375C70.3436 102.161 70.4646 101.989 70.6159 101.989H78.6457V101.732H70.6159C70.3663 101.732 69.8242 102.022 69.8242 102.378V104.311C69.8242 104.667 70.3663 104.957 70.6159 104.957H78.6457V104.7V104.695Z" fill="#074999"/>
<path d="M80.9401 101.73H78.5879V101.987H80.9401V101.73Z" fill="#074999"/>
<path d="M80.9401 104.695H78.5879V104.952H80.9401V104.695Z" fill="#074999"/>
<g opacity="0.3">
<path d="M80.5587 102.271H70.5977V102.35H80.5587V102.271Z" fill="#92A1B2"/>
</g>
<g opacity="0.3">
<path d="M80.5587 102.785H70.5977V102.863H80.5587V102.785Z" fill="#92A1B2"/>
</g>
<g opacity="0.3">
<path d="M80.5587 103.303H70.5977V103.381H80.5587V103.303Z" fill="#92A1B2"/>
</g>
<g opacity="0.3">
<path d="M80.5587 103.801H70.5977V103.879H80.5587V103.801Z" fill="#92A1B2"/>
</g>
<g opacity="0.3">
<path d="M80.5587 104.301H70.5977V104.379H80.5587V104.301Z" fill="#92A1B2"/>
</g>
<path d="M70.6417 103.378C70.6417 102.616 71.1863 101.974 71.9073 101.807C71.746 101.754 71.577 101.726 71.398 101.726H69.5425C68.6425 101.726 67.9062 102.453 67.9062 103.337C67.9062 104.225 68.6425 104.948 69.5425 104.948H71.398C71.5241 104.948 71.6476 104.933 71.7661 104.906C71.1131 104.694 70.6391 104.086 70.6391 103.375L70.6417 103.378Z" fill="#2F61A8"/>
<path d="M74.0379 104.695H71.9505C71.2068 104.695 70.5966 104.085 70.5966 103.341C70.5966 102.598 71.2068 101.987 71.9505 101.987H74.0379C74.0808 101.987 74.1237 101.987 74.1666 101.992C73.9195 101.839 73.627 101.748 73.3169 101.748H71.822C70.9345 101.748 70.2109 102.474 70.2109 103.359C70.2109 104.246 70.9371 104.97 71.822 104.97H73.3169C73.6598 104.97 73.9775 104.861 74.2397 104.677C74.1741 104.688 74.106 104.693 74.0379 104.693V104.695Z" fill="#074999"/>
<path d="M80.4264 105.105H68.5469V108.796H80.4264V105.105Z" fill="white"/>
<path d="M78.147 108.486H68.5692C68.481 108.486 68.3979 108.433 68.3399 108.35C68.2819 108.267 68.244 108.151 68.244 108.025V105.718C68.244 105.463 68.3903 105.257 68.5668 105.257H78.1445V104.949H68.5668C68.2693 104.949 66.207 105.294 66.207 105.718V108.025C66.207 108.448 68.2693 108.794 68.5668 108.794H78.1445V108.486H78.147Z" fill="#5284C1"/>
<path d="M80.8861 104.949H78.0801V105.257H80.8861V104.949Z" fill="#5284C1"/>
<path d="M80.8861 108.486H78.0801V108.794H80.8861V108.486Z" fill="#5284C1"/>
<g opacity="0.3">
<path d="M80.4264 105.596H68.5469V105.689H80.4264V105.596Z" fill="#92A1B2"/>
</g>
<g opacity="0.3">
<path d="M80.4264 106.211H68.5469V106.304H80.4264V106.211Z" fill="#92A1B2"/>
</g>
<g opacity="0.3">
<path d="M80.4264 106.824H68.5469V106.917H80.4264V106.824Z" fill="#92A1B2"/>
</g>
<g opacity="0.3">
<path d="M80.4264 107.422H68.5469V107.515H80.4264V107.422Z" fill="#92A1B2"/>
</g>
<g opacity="0.3">
<path d="M80.4264 108.018H68.5469V108.111H80.4264V108.018Z" fill="#92A1B2"/>
</g>
<path d="M68.6025 106.918C68.6025 106.011 69.2504 105.244 70.1126 105.045C69.921 104.982 69.7168 104.949 69.505 104.949H65.8772C64.8032 104.949 63.9258 105.814 63.9258 106.873C63.9258 107.929 64.8032 108.796 65.8772 108.796H69.505C69.6563 108.796 69.8026 108.779 69.9437 108.746C69.1647 108.494 68.6 107.768 68.6 106.921L68.6025 106.918Z" fill="#729EDB"/>
<path d="M74.4065 108.486H70.1608C69.2734 108.486 68.5449 107.76 68.5449 106.87C68.5449 105.982 69.2709 105.254 70.1608 105.254H74.4065C74.4569 105.254 74.5098 105.256 74.5602 105.261C74.2653 105.077 72.1652 104.969 71.792 104.969H70.0095C68.9532 104.969 68.0859 105.833 68.0859 106.892C68.0859 107.949 68.9507 108.816 70.0095 108.816H71.792C72.2005 108.816 74.3333 108.687 74.6459 108.466C74.5678 108.478 74.4872 108.483 74.4065 108.483V108.486Z" fill="#5284C1"/>
<path d="M142.985 82.9586H137.161L136.619 82.704V79.6837H142.985V82.9586Z" fill="#E5DACF"/>
<path d="M148.9 79.6837H142.965V82.9561H148.9V79.6837Z" fill="#F4F6F8"/>
<path d="M145.462 82.6837H136.965C136.887 82.6837 136.814 82.6383 136.761 82.5627C136.708 82.4871 136.678 82.3862 136.678 82.2728V80.2256C136.678 79.9987 136.806 79.8172 136.965 79.8172H145.462V79.5449H136.965C136.701 79.5449 136.486 79.85 136.486 80.2281V82.2753C136.486 82.6509 136.701 82.9585 136.965 82.9585H145.462V82.6862V82.6837Z" fill="#EA8500"/>
<path d="M149.386 79.5469H145.461V79.8192H149.386V79.5469Z" fill="#EFB000"/>
<path d="M149.386 82.6836H145.461V82.9559H149.386V82.6836Z" fill="#EFB000"/>
<g opacity="0.3">
<path d="M148.9 80.1195H142.965V80.2002H148.9V80.1195Z" fill="#92A1B2"/>
</g>
<g opacity="0.3">
<path d="M148.9 80.668H142.965V80.7486H148.9V80.668Z" fill="#92A1B2"/>
</g>
<g opacity="0.3">
<path d="M148.9 81.2109H142.965V81.2916H148.9V81.2109Z" fill="#92A1B2"/>
</g>
<g opacity="0.3">
<path d="M148.9 81.7423H142.965V81.823H148.9V81.7423Z" fill="#92A1B2"/>
</g>
<g opacity="0.3">
<path d="M148.9 82.2675H142.965V82.3481H148.9V82.2675Z" fill="#92A1B2"/>
</g>
<path d="M138.546 79.5469H136.856C135.944 79.5469 135.205 80.2862 135.205 81.1982V81.3066C135.205 82.2186 135.944 82.9579 136.856 82.9579H138.546C139.458 82.9579 140.197 82.2186 140.197 81.3066V81.1982C140.197 80.2862 139.458 79.5469 138.546 79.5469Z" fill="#EA8500"/>
<path d="M139.811 79.8203H137.894C137.129 79.8203 136.508 80.4411 136.508 81.2069V81.2977C136.508 82.0635 137.129 82.6843 137.894 82.6843H139.811C140.576 82.6843 141.197 82.0635 141.197 81.2977V81.2069C141.197 80.4411 140.576 79.8203 139.811 79.8203Z" fill="#E5DACF"/>
<g opacity="0.2">
<path d="M142.892 80.1367H137.035V80.2174H142.892V80.1367Z" fill="#92A1B2"/>
</g>
<g opacity="0.2">
<path d="M142.894 80.6814H136.68V80.7621H142.894V80.6814Z" fill="#92A1B2"/>
</g>
<g opacity="0.2">
<path d="M142.894 81.2285H136.508V81.3092H142.894V81.2285Z" fill="#92A1B2"/>
</g>
<g opacity="0.2">
<path d="M142.894 81.7556H136.68V81.8363H142.894V81.7556Z" fill="#92A1B2"/>
</g>
<g opacity="0.2">
<path d="M142.892 82.2852H137.035V82.3658H142.892V82.2852Z" fill="#92A1B2"/>
</g>
<path d="M54.2442 16.9328C54.0602 16.1689 53.3089 15.3395 52.5324 15.1807C52.1416 15.1 51.7432 15.0723 51.4104 15.0723C48.0724 15.0723 40.7637 15.2992 37.2442 15.1454C35.5526 15.0723 34.9072 15.8715 34.8794 17.016C34.7962 20.4473 36.8081 27.3576 39.6217 27.3576C46.1791 27.3576 50.4575 27.0627 50.4575 27.0627C50.4575 27.0627 52.371 29.4728 52.6206 29.6821C52.8702 29.8913 53.1323 30.088 53.1853 29.7729C53.5282 27.6501 54.8139 19.3002 54.2416 16.9328H54.2442Z" fill="#F29B00"/>
<path d="M41.4574 23.3836C41.942 23.3836 42.3348 22.9908 42.3348 22.5063C42.3348 22.0217 41.942 21.6289 41.4574 21.6289C40.9729 21.6289 40.5801 22.0217 40.5801 22.5063C40.5801 22.9908 40.9729 23.3836 41.4574 23.3836Z" fill="white"/>
<path d="M44.9164 23.3836C45.401 23.3836 45.7938 22.9908 45.7938 22.5063C45.7938 22.0217 45.401 21.6289 44.9164 21.6289C44.4319 21.6289 44.0391 22.0217 44.0391 22.5063C44.0391 22.9908 44.4319 23.3836 44.9164 23.3836Z" fill="white"/>
<path d="M48.4145 23.3836C48.899 23.3836 49.2918 22.9908 49.2918 22.5063C49.2918 22.0217 48.899 21.6289 48.4145 21.6289C47.9299 21.6289 47.5371 22.0217 47.5371 22.5063C47.5371 22.9908 47.9299 23.3836 48.4145 23.3836Z" fill="white"/>
<path d="M126.525 38.9614H125.955V38.5883H126.525V37.9277H126.873V38.5883H127.443V38.9614H126.873V39.6219H126.525V38.9614Z" fill="#FCFDFF"/>
<path d="M129.896 33.1208C129.036 28.4668 121.319 26.0188 115.788 26.9188C110.256 27.8189 105.849 31.9006 107.012 36.9705C108.338 42.764 113.37 44.6674 118.901 43.7674C120.716 43.4724 122.615 42.7237 124.319 41.6875C124.571 42.3858 124.712 43.1598 124.712 43.9792C124.712 44.6826 124.604 45.3532 124.415 45.9709C126.018 45.149 127.15 43.1649 127.15 40.8454C127.15 40.4244 127.112 40.0135 127.042 39.6202C129.061 37.6941 130.309 35.357 129.896 33.1208Z" fill="#729EDB"/>
<path d="M123.167 32.7637H112.846V33.2805H123.167V32.7637Z" fill="white"/>
<path d="M123.167 34.2129H112.846V34.7297H123.167V34.2129Z" fill="white"/>
<path d="M123.167 35.6602H112.846V36.177H123.167V35.6602Z" fill="white"/>
<path d="M120.366 37.0762H112.846V37.593H120.366V37.0762Z" fill="white"/>
<path d="M147.301 31.075V33.1625H147.752V31.075C147.752 30.9237 147.651 30.8027 147.528 30.8027C147.404 30.8027 147.303 30.9237 147.303 31.075H147.301Z" fill="#F29B00"/>
<path d="M147.301 40.1938C147.301 40.3451 147.402 40.4661 147.526 40.4661C147.649 40.4661 147.75 40.3451 147.75 40.1938V38.2324H147.299V40.1938H147.301Z" fill="#F29B00"/>
<path d="M142.695 35.6351C142.695 35.7586 142.816 35.8595 142.968 35.8595H145.053V35.4082H142.968C142.816 35.4082 142.695 35.509 142.695 35.6326V35.6351Z" fill="#F29B00"/>
<path d="M152.086 35.4082H150.125V35.8595H152.086C152.238 35.8595 152.359 35.7586 152.359 35.6351C152.359 35.5116 152.238 35.4107 152.086 35.4107V35.4082Z" fill="#F29B00"/>
<path d="M144.145 32.5701L145.62 34.0449L145.938 33.7272L144.463 32.2524C144.357 32.1465 144.199 32.1314 144.11 32.2196C144.022 32.3079 144.037 32.4642 144.143 32.5726L144.145 32.5701Z" fill="#F29B00"/>
<path d="M150.591 39.0193C150.697 39.1252 150.856 39.1403 150.944 39.0521C151.032 38.9638 151.017 38.8075 150.911 38.6991L149.525 37.3125L149.207 37.6302L150.594 39.0168L150.591 39.0193Z" fill="#F29B00"/>
<path d="M144.114 39.0518C144.202 39.1401 144.358 39.125 144.466 39.0191L145.941 37.5442L145.624 37.2266L144.149 38.7014C144.043 38.8073 144.028 38.9661 144.116 39.0544L144.114 39.0518Z" fill="#F29B00"/>
<path d="M150.592 32.253L149.205 33.6396L149.523 33.9572L150.909 32.5706C151.015 32.4647 151.03 32.3059 150.942 32.2177C150.854 32.1294 150.698 32.1446 150.589 32.2504L150.592 32.253Z" fill="#F29B00"/>
<path d="M20.3887 61.9202V63.5312H20.7366V61.9202C20.7366 61.8042 20.6584 61.7109 20.5626 61.7109C20.4668 61.7109 20.3887 61.8042 20.3887 61.9202Z" fill="#2F61A8"/>
<path d="M20.3887 68.9619C20.3887 69.0779 20.4668 69.1711 20.5626 69.1711C20.6584 69.1711 20.7366 69.0779 20.7366 68.9619V67.4492H20.3887V68.9619Z" fill="#2F61A8"/>
<path d="M16.832 65.4396C16.832 65.5354 16.9253 65.6135 17.0413 65.6135H18.6522V65.2656H17.0413C16.9253 65.2656 16.832 65.3438 16.832 65.4396Z" fill="#2F61A8"/>
<path d="M24.081 65.2656H22.5684V65.6135H24.081C24.197 65.6135 24.2903 65.5354 24.2903 65.4396C24.2903 65.3438 24.197 65.2656 24.081 65.2656Z" fill="#2F61A8"/>
<path d="M17.9481 63.075L19.0877 64.2145L19.3347 63.9675L18.1952 62.8279C18.112 62.7447 17.9911 62.7346 17.923 62.8027C17.8549 62.8708 17.8675 62.9918 17.9481 63.075Z" fill="#2F61A8"/>
<path d="M22.9269 68.0529C23.0101 68.1361 23.1312 68.1462 23.1992 68.0781C23.2673 68.0101 23.2547 67.889 23.174 67.8058L22.1025 66.7344L21.8555 66.9814L22.9269 68.0529Z" fill="#2F61A8"/>
<path d="M17.9219 68.0798C17.99 68.1479 18.1109 68.1353 18.1941 68.0546L19.3336 66.915L19.0866 66.668L17.947 67.8075C17.8638 67.8907 17.8538 68.0117 17.9219 68.0798Z" fill="#2F61A8"/>
<path d="M22.9269 62.8271L21.8555 63.8986L22.1025 64.1456L23.174 63.0742C23.2572 62.991 23.2673 62.87 23.1992 62.8019C23.1312 62.7338 23.0101 62.7464 22.9269 62.8271Z" fill="#2F61A8"/>
<path d="M65.6222 86.528H64.334V85.7565H65.6222V84.3926H66.4113V85.7565H67.6997V86.528H66.4113V87.8919H65.6222V86.528Z" fill="#F29B00"/>
<path d="M123.153 15.3073H121.865V14.5358H123.153V13.1719H123.943V14.5358H125.231V15.3073H123.943V16.6712H123.153V15.3073Z" fill="#729EDB"/>
<path d="M132.447 21.2489H131.615V20.7497H132.447V19.8673H132.956V20.7497H133.788V21.2489H132.956V22.1313H132.447V21.2489Z" fill="#729EDB"/>
<defs>
<filter id="filter0_d_248_64723" x="81.418" y="3" width="25.0609" height="23.1572" filterUnits="userSpaceOnUse" color-interpolation-filters="sRGB">
<feFlood flood-opacity="0" result="BackgroundImageFix"/>
<feColorMatrix in="SourceAlpha" type="matrix" values="0 0 0 0 0 0 0 0 0 0 0 0 0 0 0 0 0 0 127 0" result="hardAlpha"/>
<feOffset dx="1.68398" dy="1.68398"/>
<feColorMatrix type="matrix" values="0 0 0 0 0 0 0 0 0 0 0 0 0 0 0 0 0 0 0.08 0"/>
<feBlend mode="normal" in2="BackgroundImageFix" result="effect1_dropShadow_248_64723"/>
<feBlend mode="normal" in="SourceGraphic" in2="effect1_dropShadow_248_64723" result="shape"/>
</filter>
</defs>
</svg>
