<svg width="164" height="123" viewBox="0 0 164 123" fill="none" xmlns="http://www.w3.org/2000/svg">
<path d="M8.68088 85.8708C-0.402652 71.4858 0.408676 25.2189 45.281 21.3147C58.1548 20.1942 74.0617 29.2506 84.2983 25.1484C94.5376 21.0461 98.1542 10.7146 118.508 10.6603C138.859 10.606 145.791 25.9894 143.252 38.6597C140.712 51.33 152.805 53.2943 153.374 63.6639C153.895 73.1489 139.299 77.5958 133.485 86.0227C127.668 94.4497 126.957 109.228 111.5 111.838C94.2798 114.747 92.2016 95.5051 69.4901 102.006C44.391 109.19 20.1384 104.013 8.68088 85.8708Z" fill="url(#paint0_linear_248_64466)"/>
<path d="M73.7974 37.803C73.7974 37.6347 73.7973 37.4665 73.7892 37.3037C73.7892 37.2305 73.784 37.16 73.7813 37.0894C73.7758 36.9592 73.773 36.8289 73.7648 36.7041C73.7594 36.5956 73.7512 36.4925 73.7431 36.3867C73.7377 36.3026 73.7324 36.2158 73.7243 36.1317C73.708 35.9445 73.689 35.7627 73.6673 35.5891C73.3852 35.9852 73.1029 36.3894 72.8235 36.7991C72.7231 36.9456 72.6255 37.0948 72.5251 37.2441C72.346 37.5127 72.1641 37.784 71.9878 38.058C71.882 38.2235 71.7762 38.3917 71.6704 38.5572C71.5022 38.8231 71.3311 39.0917 71.1656 39.363C71.0653 39.5285 70.965 39.694 70.8673 39.8595C70.6991 40.1417 70.531 40.4238 70.3655 40.7087C70.3248 40.7765 70.284 40.8444 70.2433 40.9149C70.2515 40.9013 70.2622 40.8851 70.273 40.8688C67.7905 45.1908 65.8562 49.8411 65.4058 53.9243C65.4058 53.8999 65.4058 53.8782 65.4058 53.8538C65.3923 53.9705 65.3867 54.0817 65.3759 54.1956C65.3677 54.2852 65.3596 54.3747 65.3515 54.4642C65.3298 54.7491 65.3135 55.034 65.308 55.3135C65.2863 55.3243 65.2647 55.3379 65.2484 55.365C64.9147 56.0134 64.6026 56.67 64.2146 57.2886C63.3817 56.0894 62.5462 54.8956 61.6861 53.7209C62.0199 52.9476 62.3859 52.1581 62.4511 51.3252C62.5623 51.1841 62.671 51.043 62.7714 50.8992C62.8094 50.8449 62.8447 50.788 62.8827 50.7337C62.9668 50.6089 63.048 50.4841 63.1267 50.3566C63.1647 50.2942 63.2026 50.2291 63.2406 50.1667C63.3139 50.0391 63.3844 49.9089 63.455 49.776C63.4848 49.7163 63.5173 49.6593 63.5472 49.5996C63.6394 49.4124 63.7289 49.2225 63.8076 49.0299C63.813 49.019 63.816 49.0082 63.8214 48.9973C63.8974 48.8128 63.9677 48.6283 64.0328 48.4411C64.0545 48.376 64.0763 48.3082 64.098 48.2431C64.1414 48.1074 64.1848 47.9717 64.2228 47.8334C64.2445 47.7601 64.2634 47.6842 64.2824 47.6109C64.296 47.5621 64.3097 47.5132 64.3232 47.4617C64.3178 47.4725 64.3151 47.4807 64.3124 47.4915C65.3949 43.1858 64.0683 38.0444 62.454 33.9205C62.454 33.9151 62.4511 33.9123 62.4484 33.9069C62.1879 33.2449 61.9221 32.6073 61.6562 32.005C61.6399 31.967 61.6237 31.9291 61.6074 31.8938C61.4854 31.6198 61.366 31.3566 61.2466 31.0988C61.2194 31.0364 61.1895 30.9767 61.1623 30.9171C61.0429 30.662 60.9236 30.4124 60.8097 30.1764C60.7256 30.388 60.6469 30.5996 60.5736 30.8167C60.541 30.9143 60.5113 31.012 60.4787 31.1097C60.438 31.2318 60.3972 31.3539 60.3592 31.476C60.3267 31.5818 60.2998 31.6876 60.27 31.7934C60.2347 31.9128 60.1994 32.0349 60.1695 32.157C60.1424 32.26 60.1179 32.3632 60.0935 32.4663C60.0609 32.5965 60.0311 32.724 60.0013 32.8542C59.9796 32.9519 59.9605 33.0523 59.9388 33.15C59.9089 33.2883 59.8819 33.4267 59.8548 33.5651C59.8358 33.66 59.822 33.755 59.8058 33.8499C59.7813 33.9964 59.7543 34.1402 59.7326 34.2895C59.7191 34.3817 59.7054 34.4767 59.6918 34.5689C59.6701 34.7181 59.6486 34.8674 59.6296 35.0193C59.6187 35.1143 59.6078 35.2092 59.597 35.3042C59.5807 35.4534 59.5644 35.5999 59.5509 35.7518C59.5482 35.7871 59.5427 35.8224 59.54 35.8549C59.54 35.8495 59.54 35.8414 59.5427 35.8332C59.3772 37.6429 59.3934 39.5095 59.5562 41.3354C59.5562 41.3354 59.5562 41.33 59.5562 41.3273C59.5562 41.3382 59.5564 41.3463 59.5591 41.3572C59.5781 41.5552 59.597 41.7506 59.6187 41.9486C59.6241 41.9947 59.6268 42.0409 59.6322 42.087C59.6539 42.2905 59.6811 42.4939 59.7083 42.6974C59.7137 42.7354 59.7163 42.7734 59.7218 42.8114C59.7489 43.023 59.7814 43.2319 59.814 43.4381C59.8194 43.468 59.8221 43.4951 59.8275 43.5249C59.8628 43.742 59.8981 43.959 59.9361 44.1734C59.9388 44.1924 59.9416 44.2114 59.947 44.2331C59.9877 44.4555 60.0284 44.6753 60.0718 44.8923C60.0718 44.9059 60.0773 44.9168 60.08 44.9303C60.1261 45.1528 60.1721 45.3753 60.2209 45.595C60.2209 45.6032 60.2238 45.6086 60.2265 45.6168C60.7176 47.809 61.4093 49.7841 62.2205 51.3252C62.1554 52.0821 61.8407 52.8011 61.5314 53.5038C60.4244 51.9953 59.2794 50.5167 58.0531 49.0923C57.95 48.8806 57.8443 48.6744 57.7412 48.4547C57.6599 48.2838 57.5757 48.1101 57.4943 47.9338C57.3993 47.7357 57.3071 47.5349 57.2121 47.3314C56.9435 46.7563 56.6721 46.1675 56.39 45.5544C56.39 45.5544 56.39 45.5544 56.39 45.5571C55.3644 43.3377 54.2223 40.9095 52.8033 38.5029C51.4467 36.1995 49.7918 34.1131 48.1097 32.3984C48.1178 32.4038 48.1259 32.412 48.134 32.4174C48.0798 32.3604 48.0227 32.3062 47.9684 32.2519C47.925 32.2085 47.8843 32.1678 47.8436 32.1271C47.6266 31.9128 47.4096 31.7039 47.1953 31.5004C47.1573 31.4651 47.1194 31.4298 47.0814 31.3946C46.8698 31.1992 46.6581 31.0093 46.4492 30.8275C46.4329 30.814 46.4138 30.7977 46.3975 30.7814C46.1805 30.5969 45.9664 30.4206 45.7548 30.2496C45.7086 30.2116 45.6623 30.1737 45.6162 30.1384C45.4127 29.9783 45.2094 29.8237 45.0086 29.6772C44.9598 29.6419 44.9136 29.6066 44.8648 29.5741C44.6613 29.4303 44.4605 29.2892 44.2652 29.1617C44.2353 29.1427 44.2028 29.1237 44.173 29.102C43.9885 28.9826 43.8039 28.8714 43.6248 28.7655C43.5922 28.7466 43.5596 28.7276 43.527 28.7086C43.3371 28.6 43.1527 28.5024 42.9682 28.4128C42.9275 28.3939 42.8867 28.3721 42.8487 28.3532C42.6697 28.2663 42.4935 28.1877 42.3225 28.1198C42.29 28.1063 42.2602 28.0954 42.2303 28.0846C42.0513 28.0167 41.8749 27.957 41.7094 27.9082C41.7664 28.0873 41.8288 28.2799 41.8912 28.478C41.8993 28.5051 41.9074 28.5295 41.9182 28.5566C41.9752 28.7276 42.0323 28.9066 42.0947 29.0911C42.111 29.1372 42.1245 29.1807 42.1408 29.2268C42.2113 29.433 42.2818 29.6446 42.3604 29.8644C42.393 29.9566 42.4283 30.0516 42.4609 30.1465C42.5016 30.2605 42.5422 30.3744 42.5856 30.4938C42.6101 30.5616 42.6319 30.6267 42.659 30.6946C42.659 30.6892 42.6588 30.6837 42.6561 30.6783C44.1158 34.615 46.8073 40.28 52.1468 45.1718C52.1305 45.1609 52.1169 45.1474 52.1007 45.1365C52.1929 45.2206 52.2879 45.3047 52.3828 45.3889C52.4615 45.4594 52.5402 45.5299 52.6189 45.6005C52.8224 45.7795 53.0312 45.9586 53.2429 46.135C53.2944 46.1784 53.3431 46.2218 53.3947 46.2652C53.666 46.4877 53.9402 46.7101 54.2224 46.9299C54.2577 46.957 54.2981 46.9869 54.3334 47.014C54.5749 47.2012 54.8219 47.3857 55.0742 47.5675C55.1529 47.6245 55.2342 47.6842 55.3156 47.7411C55.5326 47.8958 55.7525 48.0504 55.9777 48.2024C56.0672 48.2621 56.1568 48.3244 56.249 48.3841C56.4796 48.5388 56.7156 48.6907 56.9543 48.8399C57.0357 48.8915 57.1172 48.943 57.1986 48.9946C57.3831 49.1085 57.5702 49.2198 57.7574 49.331C58.6636 50.3837 59.5291 51.4608 60.3675 52.5596C59.5264 52.2693 58.7343 51.9519 58.0099 51.412C57.8987 51.279 57.782 51.1488 57.6599 51.0186C57.6056 50.9589 57.5486 50.8992 57.4917 50.8422C57.4455 50.7934 57.4022 50.7446 57.3534 50.6984C57.3534 50.7066 57.3641 50.7174 57.3695 50.7256C53.6987 47.0466 46.7937 44.8245 42.2139 43.7203C41.5573 43.5602 40.7787 43.4381 39.9838 43.3404C39.9377 43.335 39.8916 43.3296 39.8455 43.3242C39.661 43.3025 39.4765 43.2808 39.292 43.2618C39.2188 43.2536 39.1454 43.2455 39.0695 43.2401C38.9799 43.2319 38.8903 43.2238 38.8008 43.2156C38.7221 43.2075 38.6436 43.2021 38.5676 43.1939C38.4862 43.1858 38.4047 43.1804 38.3233 43.1722C38.1795 43.1614 38.0385 43.1505 37.9029 43.1397C37.835 43.1342 37.7727 43.1315 37.7076 43.1261C37.6181 43.1207 37.531 43.1125 37.4442 43.1071C37.3791 43.1017 37.3196 43.099 37.2572 43.0963C37.1595 43.0908 37.0672 43.0854 36.9776 43.08C36.9369 43.08 36.8935 43.0746 36.8555 43.0718C36.7307 43.0637 36.6115 43.0583 36.4975 43.0529C36.4569 43.0529 36.4188 43.0501 36.3781 43.0474C36.2967 43.0447 36.2208 43.0393 36.1475 43.0366C36.1177 43.0366 36.0878 43.0366 36.058 43.0339C35.9712 43.0311 35.8896 43.0257 35.8164 43.023C35.8082 43.023 35.8001 43.023 35.792 43.023C35.7106 43.0203 35.6455 43.0176 35.5858 43.0149C35.5669 43.0149 35.556 43.0149 35.5397 43.0149C35.499 43.0149 35.4664 43.0149 35.442 43.0122C35.4311 43.0122 35.4257 43.0122 35.4202 43.0122C35.3958 43.0122 35.3824 43.0122 35.3824 43.0122C35.4638 43.156 35.5586 43.297 35.6563 43.4408C35.6862 43.4869 35.7215 43.5304 35.7541 43.5738C35.8301 43.6796 35.914 43.7854 35.9981 43.8885C36.0307 43.9292 36.0633 43.9726 36.0985 44.0133C36.2125 44.149 36.3347 44.2819 36.465 44.4148C36.5111 44.461 36.5571 44.5071 36.6059 44.5559C36.6982 44.6482 36.7931 44.7404 36.8907 44.83C36.9531 44.8869 37.0157 44.9439 37.0781 45.0009C37.173 45.0877 37.2734 45.1718 37.3737 45.2559C37.4958 45.359 37.6234 45.4621 37.7563 45.5652C37.8242 45.6168 37.8866 45.671 37.9572 45.7226C37.9572 45.7226 37.9543 45.7171 37.9516 45.7171C41.9833 48.7857 49.1215 51.298 54.2764 51.8217C54.2764 51.8217 54.2765 51.8217 54.2738 51.8217C54.2819 51.8217 54.2902 51.8217 54.3011 51.8217C54.3689 51.8271 54.4339 51.8325 54.499 51.8379C54.6645 51.8542 54.8272 51.8651 54.9873 51.8759C55.0633 51.8813 55.1366 51.8841 55.2125 51.8895C55.3726 51.8976 55.53 51.9058 55.6847 51.9085C55.7417 51.9085 55.8012 51.9112 55.8582 51.9139C56.0698 51.9166 56.2788 51.9166 56.4795 51.9139C56.4931 51.9139 56.5068 51.9139 56.5203 51.9139C56.7048 51.9085 56.8867 51.8976 57.0603 51.8841C57.1092 51.8814 57.158 51.8759 57.2068 51.8705C57.3506 51.8569 57.489 51.8407 57.6247 51.8217C57.6708 51.8162 57.7168 51.8081 57.763 51.8027C57.8579 51.7864 57.9527 51.7701 58.0422 51.7511C58.8236 52.2829 59.6783 52.6003 60.5818 52.9042C60.6008 52.9096 60.6198 52.9123 60.6361 52.9096C61.7431 54.3693 62.8067 55.8588 63.8566 57.3646C63.2625 57.427 62.6682 57.5192 62.074 57.5491C61.8516 57.4514 61.6238 57.3564 61.3904 57.2615C61.3036 57.2262 61.2166 57.1909 61.1271 57.1584C60.7771 57.0227 60.419 56.8898 60.05 56.7623C60.0446 56.7623 60.0393 56.7596 60.0339 56.7568C60.0339 56.7568 60.0338 56.7568 60.0365 56.7568C56.5122 55.5468 52.174 54.7763 48.1531 54.6189C45.5404 54.4181 42.4283 54.8549 39.8508 55.1235C39.2756 55.1805 38.687 55.27 38.1063 55.3867C38.1091 55.3867 38.1145 55.384 38.1172 55.384C37.9056 55.4247 37.6965 55.4708 37.4903 55.5197C37.4279 55.5332 37.3657 55.5522 37.3006 55.5658C37.1243 55.6092 36.9478 55.6553 36.7742 55.7014C36.7009 55.7204 36.6278 55.7421 36.5545 55.7638C36.3673 55.8181 36.1828 55.8751 36.001 55.932C35.9603 55.9456 35.9196 55.9565 35.8789 55.97C35.6618 56.0433 35.4529 56.1165 35.2467 56.1952C35.1897 56.2169 35.1354 56.2386 35.0811 56.2603C34.9265 56.32 34.7801 56.3824 34.6336 56.4475C34.5766 56.472 34.5196 56.4964 34.4654 56.5235C34.2809 56.6076 34.0991 56.6944 33.9336 56.784C34.2375 56.9006 34.5466 57.0227 34.8559 57.1475C35.2086 57.2886 35.5668 57.4324 35.9276 57.5762C35.9656 57.5925 36.0036 57.606 36.0416 57.6196C36.3699 57.7498 36.7009 57.8774 37.0346 57.9994C37.0536 58.0076 37.0725 58.013 37.0942 58.0212C37.4388 58.1487 37.7863 58.2708 38.1363 58.3847C38.1471 58.3874 38.1607 58.3928 38.1715 58.3983C38.1688 58.3983 38.1634 58.3956 38.1607 58.3928C38.9773 58.6587 39.8048 58.8812 40.6486 59.0196C43.2803 59.4537 45.4156 59.6083 47.9388 59.8688C51.9352 60.0777 55.8367 59.6463 59.7626 58.5312C59.7273 58.5448 59.6975 58.5584 59.6595 58.5719C59.8549 58.5177 60.05 58.4525 60.2453 58.3956C60.4271 58.3413 60.6117 58.287 60.7962 58.2301C61.2221 58.0971 61.6507 57.9533 62.0767 57.8014C62.7251 57.7688 63.371 57.6576 64.0249 57.6006C64.5105 58.2979 64.9933 58.9979 65.4789 59.7006C64.8604 59.8769 64.2472 60.0587 63.6259 60.2134C63.3003 60.2161 62.9641 60.2242 62.6222 60.2323C62.4757 60.2378 62.3263 60.2432 62.1771 60.2486C61.9655 60.2568 61.754 60.2649 61.537 60.2785C61.3688 60.2866 61.2004 60.2975 61.0322 60.3083C60.8152 60.3219 60.5955 60.3382 60.373 60.3571C60.2075 60.3707 60.0418 60.3843 59.8736 60.3978C59.8248 60.4033 59.7789 60.406 59.7273 60.4087C59.7355 60.4087 59.7434 60.4087 59.7488 60.4087C55.9233 60.7723 51.4929 61.73 47.2388 63.9575C47.2523 63.9493 47.2631 63.9439 47.274 63.9358C47.1004 64.0253 46.9294 64.1311 46.7557 64.2261C46.4654 64.3861 46.1752 64.5408 45.8848 64.7117C45.6732 64.8365 45.4671 64.9776 45.2582 65.1105C45.0032 65.2733 44.7454 65.428 44.4904 65.6016C44.1974 65.8024 43.9098 66.0194 43.6195 66.2338C43.454 66.3559 43.2856 66.4698 43.1201 66.5973C42.667 66.95 42.2195 67.319 41.7773 67.7097C41.8804 67.7585 41.9887 67.802 42.1 67.8399C42.138 67.8535 42.1815 67.8671 42.2195 67.8806C42.2927 67.9051 42.3632 67.9295 42.4391 67.9512C42.488 67.9647 42.5397 67.9783 42.5912 67.9892C42.659 68.0054 42.7268 68.0244 42.7973 68.038C42.8516 68.0488 42.9086 68.0597 42.9656 68.0706C43.0334 68.0841 43.1012 68.095 43.1691 68.1058C43.2288 68.114 43.2885 68.1221 43.3482 68.1302C43.416 68.1384 43.4838 68.1465 43.5517 68.152C43.6141 68.1574 43.679 68.1628 43.7414 68.1682C43.8092 68.1737 43.8772 68.1764 43.9478 68.1818C44.0156 68.1845 44.0805 68.1872 44.1483 68.1899C44.2162 68.1899 44.284 68.1899 44.3518 68.1926C44.4224 68.1926 44.493 68.1926 44.5635 68.1926C44.6286 68.1926 44.6937 68.1899 44.7588 68.1872C44.8348 68.1872 44.9109 68.1845 44.9896 68.1791C45.0384 68.1791 45.0873 68.1737 45.1361 68.1682C45.4671 68.1465 45.8061 68.114 46.1479 68.0678C46.1886 68.0624 46.2267 68.057 46.2674 68.0516C46.3733 68.038 46.479 68.019 46.5849 68.0027C46.6255 67.9973 46.6662 67.9892 46.7096 67.9837C46.8182 67.9647 46.9267 67.9458 47.0353 67.9268C47.076 67.9186 47.1138 67.9132 47.1545 67.9051C47.2657 67.8834 47.3797 67.8616 47.4936 67.8372C47.5262 67.8291 47.5615 67.8237 47.5941 67.8155C47.7134 67.7911 47.8355 67.764 47.9549 67.7368C47.9766 67.7314 47.9984 67.726 48.0201 67.7206C48.153 67.6907 48.2833 67.6582 48.4162 67.6256C48.4162 67.6256 48.4188 67.6256 48.4215 67.6256C48.53 67.5985 48.6386 67.5713 48.7471 67.5442C48.7444 67.5442 48.7417 67.5442 48.7363 67.5442C50.8118 66.9989 52.8549 66.2066 54.3824 65.5229C55.4243 65.059 56.6451 64.4947 57.8769 63.8842C57.8742 63.8842 57.8714 63.8869 57.8687 63.8896C57.8931 63.8761 57.9203 63.8652 57.9447 63.8517C58.1916 63.7296 58.4413 63.6048 58.6882 63.4772C58.7045 63.4691 58.718 63.461 58.7343 63.4528C58.9703 63.3334 59.2036 63.2114 59.4369 63.0893C59.5075 63.0513 59.5781 63.0133 59.6486 62.9753C59.8304 62.8776 60.0122 62.78 60.1913 62.6823C60.2618 62.6416 60.3351 62.6036 60.4056 62.5629C60.6064 62.4517 60.8043 62.3404 60.9996 62.2265C61.0376 62.2048 61.0782 62.1804 61.1162 62.1587C61.3495 62.023 61.5776 61.8874 61.8001 61.749C61.8408 61.7246 61.8786 61.7001 61.9193 61.6757C62.0956 61.5672 62.2668 61.4587 62.4296 61.3502C62.4893 61.3095 62.5488 61.2715 62.6084 61.2308C62.7549 61.1331 62.8962 61.0354 63.0318 60.9378C63.0861 60.8998 63.1377 60.8618 63.1892 60.8238C63.3656 60.6963 63.5364 60.5661 63.691 60.4413C64.3395 60.2812 64.9798 60.0858 65.6228 59.9068C65.6228 59.9068 65.6227 59.9068 65.6255 59.9068C66.0026 60.4548 66.3799 61.0002 66.7597 61.5482C67.1558 62.1207 67.6497 62.8315 68.2058 63.6427C68.1923 63.6427 68.176 63.6427 68.1624 63.6482C67.4678 63.8842 66.7814 64.1338 66.1519 64.5299C65.9213 64.6086 65.6772 64.6846 65.4249 64.7551C65.3842 64.766 65.3432 64.7795 65.2998 64.7904C65.0529 64.8582 64.798 64.9206 64.5376 64.9803C62.3508 65.485 59.7298 65.797 57.6461 66.8524C55.8582 67.783 53.2484 69.693 51.0345 71.5949C51.0345 71.5949 51.0344 71.5922 51.0371 71.5895C51.0236 71.6003 51.0125 71.6112 50.999 71.622C50.9393 71.6736 50.8824 71.7224 50.8254 71.774C50.6898 71.8933 50.5541 72.01 50.4211 72.1267C50.3397 72.1999 50.2585 72.2732 50.1771 72.3464C50.0659 72.4468 49.9573 72.5472 49.8488 72.6449C49.7701 72.7154 49.694 72.7887 49.618 72.8592C49.4498 73.0139 49.287 73.1685 49.1324 73.3204C49.0781 73.372 49.0295 73.4235 48.9779 73.4751C48.864 73.5863 48.7525 73.6976 48.6467 73.8061C48.587 73.8685 48.5302 73.9282 48.4705 73.9879C48.3729 74.091 48.2779 74.1914 48.1857 74.289C48.1369 74.3406 48.0879 74.3921 48.0445 74.4437C47.9115 74.5902 47.7868 74.734 47.6701 74.8696C47.841 74.9185 48.0146 74.9565 48.191 74.989C48.267 75.0026 48.3485 75.0107 48.4244 75.0216C48.5248 75.0351 48.6279 75.0514 48.731 75.0596C48.8232 75.0677 48.9153 75.0704 49.0076 75.0731C49.0998 75.0785 49.1922 75.084 49.2871 75.084C49.3848 75.084 49.4825 75.0813 49.5802 75.0758C49.6724 75.0731 49.7647 75.0704 49.8597 75.0623C49.9573 75.0541 50.0576 75.0433 50.158 75.0324C50.253 75.0216 50.3505 75.0134 50.4455 74.9999C50.5459 74.9863 50.6464 74.97 50.7467 74.951C50.8471 74.9348 50.945 74.9158 51.0453 74.8968C51.1457 74.8778 51.2459 74.8534 51.3463 74.8317C51.4494 74.8072 51.5526 74.7828 51.6584 74.7557C51.7588 74.7286 51.8564 74.7041 51.9568 74.6743C52.0056 74.6607 52.0518 74.6499 52.1007 74.6363C52.0925 74.6363 52.0817 74.6363 52.0763 74.639C55.1719 73.7193 58.5525 71.5027 61.3796 69.2182C61.3796 69.2182 61.3767 69.2209 61.374 69.2236C61.3822 69.2182 61.3903 69.2101 61.3984 69.2046C61.6209 69.0256 61.838 68.8465 62.0523 68.6674C62.1093 68.6186 62.1662 68.5725 62.2232 68.5236C62.386 68.3853 62.5462 68.2496 62.7036 68.114C62.766 68.0597 62.8284 68.0054 62.8935 67.9485C63.0482 67.8128 63.2 67.6799 63.3492 67.5442C63.4008 67.4981 63.4551 67.4493 63.5066 67.4031C63.6993 67.2295 63.8891 67.0558 64.0736 66.8849C64.0763 66.8822 64.0791 66.8795 64.0818 66.8768C64.2718 66.7004 64.4534 66.5268 64.6324 66.3559C64.6785 66.3097 64.7249 66.2663 64.771 66.2229C64.8958 66.1008 65.0204 65.9815 65.1398 65.8621C65.1941 65.8078 65.2485 65.7536 65.3027 65.702C65.414 65.5908 65.5226 65.4795 65.6284 65.371C65.6745 65.3249 65.7206 65.276 65.7667 65.2299C65.9105 65.0807 66.0514 64.9342 66.1816 64.7931C66.1925 64.7904 66.2007 64.7877 66.2115 64.7795C66.8464 64.3617 67.549 64.123 68.249 63.8815C68.2897 63.8679 68.3143 63.8408 68.3224 63.811C68.865 64.5978 69.4701 65.4768 70.1185 66.421C70.1158 66.4264 70.1104 66.4264 70.1077 66.4318C69.7333 67.1861 69.386 67.9892 68.8054 68.6105C68.6481 68.662 68.4905 68.719 68.3277 68.7814C68.2816 68.7977 68.2355 68.8167 68.1894 68.8329C67.9778 68.917 67.7606 69.0066 67.5382 69.1043C67.4893 69.126 67.4379 69.1504 67.3863 69.1721C67.1639 69.2725 66.9387 69.3783 66.7081 69.4949C66.6945 69.5031 66.6782 69.5085 66.6646 69.5167C66.4286 69.636 66.1899 69.7635 65.9484 69.8938C65.8969 69.9209 65.8479 69.948 65.7964 69.9779C65.5576 70.1108 65.3134 70.2492 65.072 70.3957C65.0231 70.4228 64.9772 70.4527 64.9284 70.4825C64.6733 70.6372 64.4182 70.7945 64.1632 70.96C64.1632 70.96 64.1603 70.96 64.1576 70.9627C63.8972 71.131 63.6367 71.3073 63.3763 71.4891C63.3302 71.5216 63.2867 71.5515 63.2406 71.5813C62.9883 71.7577 62.736 71.9395 62.4836 72.1267C62.4674 72.1402 62.4512 72.1511 62.4349 72.1619C62.4376 72.1619 62.4404 72.1592 62.4431 72.1565C60.6931 73.4588 58.9864 74.9972 57.5674 76.6359C57.5756 76.6277 57.581 76.6169 57.5892 76.606C57.543 76.6603 57.497 76.7146 57.4509 76.7715C57.3885 76.8475 57.3233 76.9208 57.2609 76.9967C57.1849 77.089 57.1089 77.1785 57.0357 77.2708C56.9733 77.3494 56.911 77.4281 56.8486 77.5068C56.7781 77.599 56.7075 77.6886 56.6369 77.7808C56.5772 77.8595 56.5175 77.9409 56.4578 78.0196C56.39 78.1118 56.325 78.2041 56.2599 78.2936C56.2029 78.3723 56.1486 78.4537 56.0943 78.5324C56.0319 78.6246 55.9667 78.7169 55.9043 78.8118C55.8528 78.8905 55.8013 78.9719 55.7525 79.0506C55.6928 79.1455 55.633 79.2378 55.576 79.3327C55.5272 79.4141 55.4812 79.4928 55.4351 79.5742C55.3808 79.6664 55.3266 79.7614 55.2751 79.8537C55.2262 79.9432 55.18 80.03 55.1338 80.1195C55.0904 80.2036 55.0415 80.2905 55.0008 80.3746C54.914 80.5482 54.8328 80.7191 54.7568 80.8928C54.9332 80.8277 55.1177 80.7571 55.3076 80.6866C55.3673 80.6649 55.427 80.6405 55.4894 80.616C55.6251 80.5618 55.7662 80.5075 55.9072 80.4505C55.9751 80.4234 56.04 80.3963 56.1078 80.3691C56.3032 80.2905 56.4986 80.2091 56.7021 80.1222C56.7536 80.1005 56.8053 80.0761 56.8568 80.0544C57.0142 79.9866 57.1742 79.9161 57.3343 79.8455C57.4211 79.8075 57.5078 79.7668 57.5974 79.7288C57.733 79.6664 57.8686 79.604 58.007 79.5416C58.0965 79.5009 58.1835 79.4602 58.273 79.4168C58.4792 79.3192 58.688 79.2188 58.8996 79.113C58.9783 79.075 59.057 79.0343 59.1357 78.9936C59.2849 78.9176 59.4342 78.8444 59.5835 78.7657C59.6784 78.7169 59.7733 78.668 59.8683 78.6165C60.0148 78.5378 60.1613 78.4591 60.3078 78.3804C60.3703 78.3479 60.4299 78.3153 60.4923 78.28C60.4841 78.2827 60.4789 78.2855 60.4734 78.2882C63.4226 76.6522 66.3607 74.4708 67.9099 71.8201C67.9777 71.7034 68.0457 71.5841 68.1081 71.4674C68.1406 71.405 68.1733 71.3399 68.2058 71.2748C68.2547 71.1771 68.3007 71.0821 68.3441 70.9845C68.374 70.9221 68.401 70.8569 68.4281 70.7945C68.4824 70.6697 68.5312 70.5422 68.5773 70.4174C68.5936 70.374 68.61 70.3306 68.6263 70.2899C68.6779 70.1407 68.7239 69.9914 68.7673 69.8395C68.7836 69.7825 68.7971 69.7256 68.8134 69.6659C68.8432 69.5492 68.8703 69.4325 68.8947 69.3159C68.9056 69.2589 68.9192 69.2046 68.9273 69.1477C68.949 69.0283 68.9653 68.9089 68.9816 68.7895C69.5622 68.1791 69.9205 67.3896 70.2868 66.638C71.5837 68.5291 73.0485 70.6724 74.5353 72.8728C74.009 73.3774 73.4257 73.798 72.8478 74.2348C72.5087 74.2945 72.167 74.3596 71.8251 74.4274C71.7329 74.4464 71.6405 74.4654 71.5482 74.4871C71.2444 74.5522 70.9378 74.6255 70.6312 74.7041C70.5743 74.7177 70.5173 74.7286 70.4603 74.7448C70.463 74.7448 70.4684 74.7448 70.4738 74.7448C68.9735 75.1464 67.4514 75.7351 65.875 76.7281C63.2433 78.3858 61.035 80.2064 58.813 82.6102C58.832 82.5885 58.8537 82.5641 58.8699 82.5424C58.8157 82.602 58.7613 82.6617 58.707 82.7214C58.6473 82.7865 58.5849 82.8544 58.5252 82.9222C58.2349 83.2451 57.9421 83.5733 57.649 83.9152C57.7657 83.9423 57.885 83.9667 58.0043 83.9884C58.0315 83.9939 58.0586 83.9993 58.0857 84.0047C58.2105 84.0264 58.3355 84.0481 58.463 84.0644C58.4711 84.0644 58.4793 84.0644 58.4847 84.0644C58.6068 84.0807 58.7314 84.0916 58.8562 84.1024C58.8833 84.1024 58.9133 84.1078 58.9404 84.1078C59.0761 84.116 59.2116 84.1214 59.3527 84.1241C59.369 84.1241 59.3854 84.1241 59.4017 84.1241C59.5292 84.1241 59.6593 84.1187 59.7922 84.1105C59.8221 84.1105 59.852 84.1078 59.8792 84.1051C60.0257 84.0943 60.1749 84.078 60.3296 84.0563C60.354 84.0536 60.3783 84.0481 60.4027 84.0454C60.5411 84.0237 60.6849 83.9966 60.8314 83.9667C60.8585 83.9613 60.8885 83.9559 60.9157 83.9478C61.0784 83.9098 61.2465 83.8664 61.4175 83.8148C61.4283 83.8121 61.4366 83.8094 61.4474 83.8067C61.4447 83.8067 61.4393 83.8067 61.4366 83.8067C61.9059 83.6629 62.4051 83.4675 62.9396 83.2016C66.1927 81.5765 69.8742 79.0641 72.08 75.9115C72.0773 75.9169 72.0748 75.9223 72.072 75.9278C72.0802 75.9169 72.0854 75.9061 72.0935 75.8952C72.2319 75.6971 72.3622 75.4964 72.487 75.2929C72.5168 75.2441 72.5522 75.1952 72.5821 75.1464C72.7232 74.9131 72.8532 74.677 72.9753 74.4383C73.5559 73.9987 74.1392 73.5755 74.671 73.0708C78.4504 78.6572 82.3547 84.5446 84.0368 87.4504C84.1562 87.6566 84.4574 87.4178 84.3407 87.2143C83.0927 85.0574 80.4854 81.0311 77.6475 76.7607C78.3773 76.4053 79.1342 76.0498 79.7175 75.4557C79.7284 75.4448 79.7365 75.4313 79.7419 75.4177C79.7636 75.4177 79.7855 75.4123 79.8044 75.4096C80.0568 75.3444 80.3009 75.2685 80.5397 75.1844C80.5777 75.1708 80.6183 75.1572 80.6563 75.1437C80.8842 75.0623 81.1038 74.9727 81.3155 74.8778C81.3562 74.8588 81.3943 74.8425 81.435 74.8235C81.6493 74.7258 81.8607 74.62 82.0642 74.5088C82.0805 74.4979 82.0996 74.4898 82.1159 74.479C82.3112 74.3704 82.4984 74.2592 82.6829 74.1398C82.7127 74.1208 82.7427 74.1045 82.7698 74.0856C82.9109 73.9933 83.0464 73.9011 83.1821 73.8034C83.1685 73.8115 83.1522 73.8197 83.1386 73.8278C85.4638 72.1728 86.9019 69.8477 88.1174 68.5508C90.0572 66.4807 90.9036 64.2559 91.4136 62.487C91.5683 61.9525 91.6931 61.456 91.8071 61.0219C91.7176 61.0219 91.6226 61.0327 91.5249 61.0517C91.4978 61.0571 91.4708 61.0626 91.4409 61.068C91.3568 61.087 91.2727 61.1087 91.1831 61.1385C91.1641 61.144 91.1452 61.1494 91.1235 61.1575C91.0177 61.1928 90.9091 61.2389 90.7979 61.2905C90.7626 61.3067 90.7274 61.323 90.6922 61.3393C90.6054 61.38 90.5157 61.4261 90.4262 61.4777C90.3909 61.4967 90.3557 61.5157 90.3204 61.5346C90.2038 61.6025 90.0843 61.673 89.9622 61.7517C89.9215 61.7761 89.8837 61.806 89.843 61.8304C89.7508 61.8928 89.6584 61.9552 89.5635 62.023C89.5173 62.0556 89.4713 62.0881 89.4252 62.1234C89.2976 62.2156 89.1699 62.3133 89.0397 62.4164C89.0044 62.4435 88.9693 62.4734 88.9313 62.5032C88.8255 62.5873 88.7198 62.6742 88.6112 62.7637C88.5624 62.8044 88.5133 62.8478 88.4618 62.8885C88.3397 62.9943 88.2149 63.1028 88.0901 63.2141C88.0711 63.2303 88.0521 63.2466 88.0331 63.2656C87.8839 63.3986 87.7348 63.5396 87.5856 63.6807C87.553 63.7133 87.5177 63.7431 87.4852 63.7757C87.3143 63.9385 87.1461 64.1013 86.9725 64.2722C86.9779 64.2695 86.9806 64.264 86.986 64.2613C85.1465 66.0981 83.2338 68.445 81.8067 70.5775C81.8067 70.5748 81.812 70.5693 81.812 70.5666C81.7957 70.591 81.7795 70.6155 81.7632 70.6399C81.747 70.6616 81.7334 70.6833 81.7198 70.7077C81.7089 70.724 81.698 70.7376 81.6899 70.7538C81.6899 70.7538 81.6873 70.7565 81.6846 70.7593C81.576 70.922 81.4728 71.0821 81.3724 71.2422C81.3697 71.2476 81.3643 71.253 81.3616 71.2585C81.3507 71.2748 81.3398 71.291 81.329 71.31C81.329 71.3127 81.3237 71.3155 81.3237 71.3209C81.2857 71.3779 81.2503 71.4348 81.2151 71.4918C81.2151 71.4918 81.2152 71.4972 81.2098 71.4999C81.1718 71.5623 81.1365 71.622 81.0985 71.6817C81.0496 71.7604 81.0036 71.8364 80.9575 71.9151C80.9358 71.9503 80.9113 71.9883 80.8923 72.0236C80.8896 72.029 80.8843 72.0371 80.8788 72.0426C80.849 72.0968 80.8191 72.1484 80.7893 72.1999C80.7866 72.2054 80.7837 72.2081 80.7837 72.2108C80.7593 72.2542 80.735 72.2976 80.7106 72.341C80.697 72.3654 80.6833 72.3871 80.6698 72.4115C80.6454 72.4577 80.6182 72.5011 80.5937 72.5472C80.5937 72.5526 80.5883 72.5608 80.5829 72.5662C80.5557 72.6123 80.5315 72.6612 80.5071 72.7073C80.5017 72.7181 80.4961 72.7263 80.4907 72.7344C80.4663 72.7832 80.4393 72.8321 80.4149 72.8809C80.4122 72.8836 80.412 72.8891 80.4093 72.8918C80.3822 72.946 80.3551 72.9976 80.328 73.0519C80.328 73.0519 80.328 73.0528 80.328 73.0546C80.3036 73.1034 80.279 73.1522 80.2546 73.2011C80.2492 73.2119 80.2439 73.2228 80.2384 73.2336C80.2194 73.2743 80.1978 73.3123 80.1815 73.353C80.176 73.3639 80.1705 73.3747 80.165 73.3856C80.165 73.3883 80.1625 73.3937 80.1597 73.3964C80.1543 73.41 80.1461 73.4235 80.1407 73.4371C80.1271 73.467 80.1137 73.4968 80.1001 73.5266C80.0784 73.5755 80.0567 73.6243 80.035 73.6732C80.0295 73.6813 80.0268 73.6894 80.0241 73.6976C80.0078 73.7356 79.9916 73.7735 79.9753 73.8088C79.9699 73.8224 79.9643 73.8332 79.9589 73.8441C79.9453 73.8793 79.9317 73.9146 79.9155 73.9472C79.9127 73.958 79.9074 73.9689 79.9019 73.9797C79.8667 74.0666 79.8341 74.1534 79.8015 74.2375C79.7961 74.251 79.7934 74.2592 79.7907 74.2728C79.7852 74.2836 79.7825 74.2945 79.7798 74.308C79.7744 74.3216 79.7717 74.3352 79.7663 74.346C79.7663 74.3514 79.761 74.3596 79.761 74.365C79.7556 74.3786 79.7499 74.3894 79.7472 74.403C79.7364 74.4328 79.7284 74.4654 79.7175 74.4952C79.7148 74.5034 79.7121 74.5142 79.7067 74.5251C79.6958 74.5631 79.6823 74.6038 79.6714 74.6417C79.6714 74.6472 79.6686 74.6553 79.6659 74.6607C79.655 74.6933 79.6497 74.7231 79.6388 74.753C79.6361 74.7665 79.6333 74.7774 79.6306 74.791C79.6252 74.8154 79.617 74.8398 79.6116 74.8669C79.6116 74.8778 79.6063 74.8886 79.6036 74.8995C79.5955 74.9293 79.59 74.9565 79.5845 74.9863C79.5845 74.9917 79.5846 74.9999 79.5819 75.0053C79.5765 75.0406 79.5709 75.0731 79.5655 75.1057C79.5655 75.1138 79.5629 75.1247 79.5602 75.1301C79.5574 75.1545 79.5547 75.1789 79.5519 75.2034C79.5519 75.2142 79.5519 75.2251 79.5519 75.2332C79.5519 75.2522 79.5494 75.2685 79.5466 75.2875C78.9687 75.8599 78.2306 76.1991 77.5198 76.5491C76.4888 74.9999 75.4307 73.4208 74.397 71.8934C74.9668 71.3589 75.4362 70.7403 75.9435 70.1488C76.1714 70.0267 76.3939 69.9019 76.611 69.7771C76.6842 69.7364 76.7548 69.693 76.8253 69.6523C77.1265 69.476 77.4222 69.2942 77.7071 69.1097C77.7586 69.0771 77.8073 69.0419 77.8589 69.0093C78.1194 68.8384 78.3773 68.662 78.6296 68.4857C78.6758 68.4531 78.7245 68.4205 78.7706 68.388C79.0473 68.1899 79.316 67.9892 79.5819 67.783C79.6389 67.7368 79.6985 67.6934 79.7554 67.6473C80.0077 67.4492 80.2602 67.2485 80.5071 67.0396C81.416 66.2799 82.3058 65.4632 83.2337 64.5761C83.8822 63.9575 84.3759 63.4691 84.8073 62.9699C84.8046 62.9753 84.7991 62.9807 84.7964 62.9862C84.8263 62.9536 84.8536 62.9183 84.8807 62.8858C84.9105 62.8505 84.9401 62.8152 84.97 62.78C85.0595 62.6714 85.1492 62.5575 85.236 62.4435C85.2604 62.411 85.2847 62.3784 85.3091 62.3432C85.3959 62.2238 85.4828 62.1017 85.5669 61.9742C85.5886 61.9416 85.6104 61.9063 85.6321 61.8738C85.7189 61.7408 85.8057 61.5998 85.8952 61.4533C85.9115 61.4261 85.9279 61.3963 85.9442 61.3691C86.0392 61.2064 86.134 61.0381 86.2317 60.8564C87.1433 59.1579 87.6209 57.5925 87.7403 56.1355C86.7989 56.6049 86.0175 57.0309 84.8481 57.7688C84.7369 57.8394 84.6201 57.9208 84.5034 58.0049C84.4708 58.0293 84.4356 58.0564 84.4003 58.0808C84.3108 58.1487 84.2187 58.2192 84.1237 58.2952C84.0884 58.3223 84.0557 58.3494 84.0204 58.3766C83.8983 58.477 83.7737 58.5801 83.6489 58.6913C83.6489 58.6913 83.6461 58.694 83.6434 58.6967C83.5104 58.8134 83.372 58.9382 83.2364 59.063C83.2093 59.0874 83.1822 59.1145 83.155 59.139C83.0438 59.2421 82.9324 59.3479 82.8212 59.4564C82.7914 59.4862 82.7615 59.5134 82.7316 59.5432C82.6068 59.6653 82.4821 59.7901 82.3573 59.9149C82.3491 59.9258 82.3384 59.9339 82.3302 59.942C82.1973 60.0777 82.0644 60.2134 81.9341 60.3517C81.8962 60.3924 81.8582 60.4331 81.8202 60.4738C81.7361 60.5606 81.6547 60.6502 81.5733 60.737C81.5461 60.7668 81.5164 60.7967 81.4893 60.8265C81.492 60.8265 81.4945 60.8211 81.4972 60.8184C80.9275 61.4343 80.4067 62.0311 80.0106 62.5087C79.1098 63.5261 78.407 64.5354 77.821 65.5501C77.821 65.5446 77.8266 65.5419 77.8266 65.5365C77.8211 65.5474 77.8156 65.5582 77.8075 65.5718C77.5932 65.9462 77.3923 66.3206 77.2023 66.6977C77.1996 66.7031 77.1971 66.7086 77.1944 66.7167C76.8064 67.4981 76.4645 68.2849 76.1335 69.088C76.1335 69.0907 76.1336 69.0934 76.1309 69.0961C76.0115 69.3837 75.8946 69.674 75.7779 69.967C75.276 70.5476 74.8176 71.1608 74.2587 71.6899C73.1463 70.043 72.0664 68.4612 71.0869 67.0341C71.6567 66.4942 72.1288 65.8729 72.6443 65.2788C73.5614 64.9559 75.6045 63.8164 77.7696 62.023C77.8049 61.9959 77.8374 61.9687 77.8727 61.9389C77.9839 61.8467 78.095 61.749 78.2062 61.654C78.2741 61.5943 78.3419 61.5374 78.4097 61.4777C78.4911 61.4044 78.5726 61.3312 78.6567 61.2552C78.7408 61.1792 78.8277 61.1033 78.9118 61.0246C78.9091 61.0246 78.9037 61.03 78.901 61.0327C80.3362 59.7033 81.7441 58.1025 82.8429 56.2766C82.8429 56.2766 82.843 56.282 82.8403 56.282C83.1116 55.8289 83.364 55.3623 83.5946 54.8821C83.6217 54.8278 83.6435 54.7708 83.6706 54.7139C83.7548 54.5294 83.8386 54.3476 83.9173 54.1604C83.9906 53.9813 84.0586 53.8022 84.1237 53.6205C84.1481 53.5526 84.178 53.4875 84.2024 53.4197C84.5578 52.4131 84.7991 51.3604 84.8995 50.2616C84.5061 50.5085 84.1209 50.7663 83.7438 51.0321C83.6488 51.0973 83.5538 51.1651 83.4616 51.2329C83.1035 51.4907 82.7508 51.7566 82.4089 52.0279C82.3384 52.0821 82.2733 52.1418 82.2028 52.1961C81.9098 52.4348 81.6249 52.6763 81.3454 52.9232C81.264 52.9964 81.1798 53.067 81.1011 53.1375C80.7891 53.4197 80.488 53.7046 80.195 53.9949C80.1136 54.0736 80.0376 54.1549 79.9589 54.2336C79.7093 54.4859 79.4652 54.7437 79.2319 54.9987C79.1776 55.0584 79.1179 55.1208 79.0636 55.1805C79.0555 55.1914 79.0447 55.1995 79.0366 55.2104C79.0366 55.2104 79.0447 55.2022 79.0501 55.1995C78.1195 56.2413 77.319 57.3022 76.6706 58.3359C75.1404 60.7804 73.9087 62.7583 73.1626 63.9873C73.1382 64.028 73.1139 64.0687 73.0895 64.1067C73.0406 64.1881 72.9917 64.2668 72.9482 64.34C72.913 64.3997 72.8777 64.4567 72.8452 64.5137C72.8153 64.5652 72.7854 64.614 72.7583 64.6602C72.7257 64.7144 72.6959 64.766 72.6661 64.8148C72.6417 64.8582 72.62 64.8962 72.5956 64.9342C72.5739 64.9695 72.5521 65.0102 72.5331 65.0427C72.5331 65.0427 72.5278 65.0454 72.5251 65.0481C71.9961 65.645 71.5238 66.2826 70.9486 66.8307C69.6463 64.9369 68.526 63.3362 67.7554 62.2618C68.2302 61.5943 68.7754 60.973 69.1986 60.273C69.2013 60.2676 69.1988 60.2622 69.2015 60.2568C69.3562 60.1591 69.5108 60.056 69.6655 59.9502C69.7197 59.9122 69.7739 59.8742 69.8282 59.8362C70.0289 59.6952 70.2296 59.5513 70.4304 59.3967C70.444 59.3858 70.4576 59.375 70.4712 59.3641C70.6693 59.2122 70.8701 59.0521 71.0681 58.8893C71.1224 58.8432 71.1792 58.7971 71.2335 58.751C71.4424 58.5746 71.6541 58.3956 71.863 58.2084C71.8684 58.2029 71.8737 58.1975 71.8792 58.1921C72.0881 58.0049 72.2945 57.8122 72.5034 57.6142C72.5522 57.5681 72.6011 57.5219 72.6499 57.4731C73.0786 57.058 73.507 56.6185 73.9249 56.1627C73.9656 56.1193 74.0037 56.0758 74.0417 56.0324C76.8525 52.9286 79.2753 48.9864 79.8071 45.4675C79.8071 45.4702 79.8071 45.473 79.8071 45.4757C79.8098 45.454 79.8096 45.4323 79.815 45.4078C79.8476 45.1827 79.8722 44.9602 79.8884 44.7404C79.8939 44.6617 79.8992 44.5858 79.9019 44.5071C79.9155 44.2629 79.921 44.0214 79.9102 43.7827C79.8261 43.8125 79.7392 43.8532 79.6524 43.8966C79.6279 43.9102 79.6007 43.9238 79.5763 43.9373C79.5112 43.9726 79.4436 44.0106 79.3757 44.054C79.3432 44.073 79.3105 44.0947 79.2806 44.1164C79.2155 44.1598 79.1505 44.2032 79.0827 44.2548C79.0474 44.2792 79.0149 44.3063 78.9796 44.3334C78.9118 44.385 78.8411 44.442 78.7706 44.499C78.7353 44.5288 78.7001 44.5559 78.6649 44.5858C78.5889 44.6509 78.5101 44.7214 78.4315 44.792C78.4016 44.8191 78.3717 44.8435 78.3419 44.8734C78.2334 44.9737 78.1223 45.0796 78.0083 45.1935C77.9025 45.2966 77.7965 45.4078 77.688 45.5191C77.688 45.5191 77.6936 45.5164 77.6936 45.5137C76.3668 46.9055 74.8366 48.9648 73.4122 51.2221C73.4122 51.2194 73.415 51.2166 73.4177 51.2139C73.3988 51.2438 73.3797 51.2736 73.3634 51.3035C73.282 51.4337 73.2006 51.5666 73.1165 51.6969C73.0731 51.7647 73.0325 51.8352 72.989 51.9031C72.9077 52.036 72.829 52.1662 72.7503 52.2992C72.7096 52.367 72.6689 52.4375 72.6282 52.5054C72.5468 52.641 72.4681 52.7767 72.3895 52.9123C72.3515 52.9747 72.3161 53.0371 72.2808 53.1023C72.1994 53.2461 72.1153 53.3871 72.0339 53.5309C72.0122 53.5716 71.9905 53.6123 71.9661 53.6503C71.6622 54.1902 71.3719 54.7301 71.0952 55.2646C71.087 55.2836 71.0763 55.2999 71.0681 55.3189C70.9922 55.4654 70.9188 55.6119 70.8482 55.7584C70.8184 55.8181 70.7887 55.8751 70.7616 55.9348C70.6965 56.0677 70.6314 56.2006 70.569 56.3336C70.5364 56.4041 70.5011 56.472 70.4685 56.5425C70.4089 56.67 70.3491 56.7948 70.2921 56.9196C70.2568 56.9956 70.2243 57.0688 70.189 57.1448C70.1348 57.2642 70.0805 57.3836 70.029 57.5029C69.9937 57.5816 69.9612 57.6603 69.9259 57.739C69.8771 57.8529 69.8282 57.9669 69.7821 58.0808C69.7468 58.1622 69.7142 58.2436 69.6816 58.325C69.6382 58.4335 69.5949 58.5394 69.5542 58.6479C69.5216 58.7347 69.489 58.8188 69.4564 58.9029C69.4184 59.0006 69.3804 59.101 69.3451 59.1986C69.3099 59.2963 69.2773 59.394 69.2421 59.4917C69.2149 59.5731 69.1852 59.6544 69.1581 59.7358C69.1174 59.8579 69.0794 59.98 69.0442 60.0994C69.0306 60.1075 69.0142 60.1103 69.0034 60.1292C68.591 60.8102 68.0673 61.4153 67.6007 62.061C66.5182 60.5525 65.4681 59.0277 64.4154 57.5084C64.8305 56.8545 65.1617 56.1599 65.5171 55.4708L65.9646 55.3514C66.1925 55.2863 66.4123 55.2022 66.6294 55.11C66.6999 55.0801 66.7705 55.0449 66.8411 55.0123C66.9876 54.9418 67.134 54.8685 67.2751 54.7898C67.3483 54.7491 67.4189 54.7057 67.4894 54.6623C67.6359 54.5701 67.7799 54.4724 67.9237 54.3693C67.9779 54.3313 68.0322 54.2933 68.0837 54.2553C72.1425 51.138 73.8599 43.2346 73.8491 37.9033C73.8491 37.9061 73.8491 37.9088 73.8491 37.9142C73.8491 37.8762 73.8491 37.8409 73.8491 37.803H73.7974Z" fill="#D9E7F4"/>
<path d="M141.252 39.6387H63.4754C61.475 39.6387 59.8535 41.2603 59.8535 43.2607V94.1887C59.8535 96.1891 61.475 97.8107 63.4754 97.8107H141.252C143.253 97.8107 144.874 96.1891 144.874 94.1887V43.2607C144.874 41.2603 143.253 39.6387 141.252 39.6387Z" fill="#C5DAEF"/>
<path d="M141.252 40.0566H63.4754C61.484 40.0566 59.8535 41.6872 59.8535 43.6787V89.9184H144.874V43.6787C144.874 41.6872 143.244 40.0566 141.252 40.0566Z" fill="#2F61A8"/>
<path d="M111.102 97.8105H93.6289V105.481H111.102V97.8105Z" fill="#7AA9D7"/>
<path d="M141.893 43.2598H62.8379V86.3035H141.893V43.2598Z" fill="#D7E7F5"/>
<path d="M103.963 92.0586H100.764C100.059 92.0586 99.4863 92.6307 99.4863 93.3365C99.4863 94.0422 100.059 94.6144 100.764 94.6144H103.963C104.669 94.6144 105.241 94.0422 105.241 93.3365C105.241 92.6307 104.669 92.0586 103.963 92.0586Z" fill="#7AA9D7"/>
<path d="M118.346 108.251V107.825C118.346 106.536 117.291 105.48 116.002 105.48H88.7271C87.4384 105.48 86.3828 106.536 86.3828 107.825V108.251H118.346Z" fill="#C5DAEF"/>
<path d="M137.966 84.5524C137.966 84.7288 137.611 84.8699 137.177 84.8726L68.5509 85.2144C68.1141 85.2144 67.7587 85.0788 67.756 84.9024L67.5117 47.1737C67.5117 47.0001 67.8645 46.8563 68.3013 46.8536L136.927 46.5117C137.364 46.5117 137.719 46.6501 137.722 46.8237L137.966 84.5524Z" fill="white"/>
<path d="M75.6817 58.2364L77.9036 59.696C78.023 57.9922 79.3659 56.6275 81.0589 56.4729L82.5132 54.2617L81.0319 52.0098C76.8862 52.1888 73.5654 55.5477 73.4434 59.7069L75.6843 58.2337L75.6817 58.2364Z" fill="#729EDB"/>
<path d="M83.0888 54.2632L81.64 56.4689C83.3547 56.5965 84.7247 57.9639 84.855 59.6786L87.0771 61.1382L89.3154 59.6677C89.1716 55.4868 85.7938 52.1252 81.6074 52.0059L83.0914 54.2632H83.0888Z" fill="#083E7F"/>
<path d="M79.6068 65.6577L81.0799 63.4167C79.4059 63.2756 78.0685 61.9489 77.9085 60.2776L75.681 58.8125L73.4453 60.283C73.619 64.407 76.9398 67.717 81.0664 67.877L79.6068 65.655V65.6577Z" fill="#F4A82F"/>
<path d="M87.0763 61.7186L84.8515 60.2562C84.7022 61.9437 83.3512 63.2867 81.6609 63.4197L80.1875 65.6607L81.6471 67.8828C85.8091 67.7444 89.1572 64.4046 89.3146 60.248L87.0763 61.7186Z" fill="white"/>
<path d="M124.409 56.6311L124.227 80.959L126.052 80.9727L126.235 56.6448L124.409 56.6311Z" fill="#729EDB"/>
<path d="M121.76 61.394L121.613 80.9414L123.439 80.9551L123.586 61.4077L121.76 61.394Z" fill="#F4A82F"/>
<path d="M129.669 52.7843L129.457 81L131.283 81.0137L131.495 52.798L129.669 52.7843Z" fill="#F4A82F"/>
<path d="M126.955 65.8635L126.842 80.9805L128.668 80.9942L128.781 65.8772L126.955 65.8635Z" fill="#083E7F"/>
<path d="M118.998 71.5218L118.928 80.9199L120.754 80.9336L120.824 71.5355L118.998 71.5218Z" fill="#083E7F"/>
<path d="M111.826 55.7853L92.1503 56.0485L92.123 54.2768L111.796 54.0137L111.826 55.7853Z" fill="#BFD7E8"/>
<path d="M113.473 58.1972L92.1886 58.4821L92.1777 57.7224L113.462 57.4375L113.473 58.1972Z" fill="#BFD7E8"/>
<path d="M113.497 59.7792L92.212 60.0641L92.2012 59.3071L113.486 59.0195L113.497 59.7792Z" fill="#BFD7E8"/>
<path d="M113.522 61.3456L92.2374 61.6305L92.2266 60.8708L113.508 60.5859L113.522 61.3456Z" fill="#BFD7E8"/>
<path d="M113.545 62.9296L92.2609 63.2145L92.25 62.4548L113.532 62.1699L113.545 62.9296Z" fill="#BFD7E8"/>
<path d="M113.57 64.6105L92.2889 64.8981L92.2754 64.1384L113.56 63.8535L113.57 64.6105Z" fill="#BFD7E8"/>
<path d="M111.32 66.2257L92.3123 66.4807L92.2988 65.7211L111.307 65.4688L111.32 66.2257Z" fill="#BFD7E8"/>
<path d="M113.187 71.7304L74.7823 72.2432L74.7715 71.4862L113.176 70.9707L113.187 71.7304Z" fill="#BFD7E8"/>
<path d="M113.211 73.2499L74.8038 73.7627L74.793 73.003L113.2 72.4902L113.211 73.2499Z" fill="#BFD7E8"/>
<path d="M113.235 74.9081L74.8312 75.4236L74.8203 74.6639L113.225 74.1484L113.235 74.9081Z" fill="#BFD7E8"/>
<path d="M113.26 76.4277L74.8527 76.9404L74.8418 76.1808L113.249 75.668L113.26 76.4277Z" fill="#BFD7E8"/>
<path d="M113.285 77.9999L74.8781 78.5127L74.8672 77.7557L113.274 77.2402L113.285 77.9999Z" fill="#BFD7E8"/>
<path d="M113.306 79.5194L74.9015 80.0322L74.8906 79.2725L113.295 78.7598L113.306 79.5194Z" fill="#BFD7E8"/>
<path d="M50.5194 38.5L43.7666 43.3836C43.7666 43.3836 43.6171 44.0402 42.871 43.7146C42.4017 43.5084 38.9642 42.5778 36.4925 41.9212L34.2163 41.186L34.0046 41.262C33.9612 41.2511 33.9395 41.2457 33.9395 41.2457L33.9559 41.281L36.8182 46.9866L38.2452 47.0165L44.4801 47.7083C44.4801 47.7083 45.4404 47.3041 45.6711 46.8863C45.9017 46.4684 52.5 40.6407 52.5 40.6407L50.5221 38.5027L50.5194 38.5Z" fill="#F29B00"/>
<path d="M33.031 35.1931C33.031 35.1931 32.6431 28.5351 34.4988 27.8432C36.3546 27.1514 37.6894 30.3827 37.6894 30.3827C37.6894 30.3827 38.6091 31.9238 38.8099 33.3319C39.0107 34.7427 38.4085 35.4427 38.4085 35.4427C38.4085 35.4427 35.9666 35.6434 35.2476 37.6349C34.5286 39.6263 35.4241 45.1746 35.4241 45.1746C35.4241 45.1746 29.9951 43.5196 31.6827 40.9964C33.1423 38.8124 33.0284 35.1958 33.0284 35.1958L33.031 35.1931Z" fill="#314572"/>
<path d="M33.5683 39.9325C36.1526 34.209 36.722 28.8803 34.8401 28.0306C32.9582 27.1809 29.3377 31.1319 26.7534 36.8554C24.1692 42.5789 23.5998 47.9076 25.4817 48.7573C27.3636 49.607 30.9841 45.656 33.5683 39.9325Z" fill="#314572"/>
<path d="M25.2578 108.385L31.5089 109.017L27.4421 106.038V101.434H25.7543L25.6539 105.227L25.2578 108.385Z" fill="#F3C6A0"/>
<path d="M26.9447 108.204C26.9447 108.204 29.4896 108.419 30.5178 108.544C32.5527 108.79 33.8414 109.783 33.8414 109.783H30.4174L26.9447 108.78V109.512H25.3086V107.572L26.9447 108.204Z" fill="url(#paint1_linear_248_64466)"/>
<path d="M37.5781 108.191L43.8292 108.821L39.7621 105.844V101.24H38.0746L37.9769 105.03L37.5781 108.191Z" fill="#F3C6A0"/>
<path d="M39.2647 108.011C39.2647 108.011 41.8099 108.225 42.8382 108.35C44.873 108.597 46.1617 109.59 46.1617 109.59H42.7377L39.2647 108.586V109.319H37.6289V107.379L39.2647 108.011Z" fill="url(#paint2_linear_248_64466)"/>
<path d="M41.1763 102.907L37.2505 103.119L36.0135 89.7786L34.9009 85.0442L34.353 80.3478L32.6655 85.0931L28.6311 103.124H25.3184L26.162 91.0457L27.3206 82.2443L28.262 66.047L35.3786 65.4691L39.4836 64.9102L41.1763 102.907Z" fill="#2F61A8"/>
<path d="M27.4121 48.3769L30.5836 39.543L35.1472 41.4801C35.1472 41.4801 37.0816 44.5134 37.9607 47.8126C38.6498 50.3955 38.3459 53.0326 38.2564 55.2004C38.0583 60.1356 40.1285 65.6703 40.1285 65.6703C40.1285 65.6703 36.9977 65.494 34.0892 65.6134C31.178 65.7327 28.1066 66.3947 28.1066 66.3947C28.1066 66.3947 30.6244 61.0146 30.6379 57.3872C30.6488 53.757 27.4121 48.3796 27.4121 48.3796V48.3769Z" fill="#F29B00"/>
<path d="M16.4477 52.7318L30.2846 39.9395C30.2846 39.9395 31.7714 41.2987 31.4404 43.8274C31.1094 46.356 27.4115 48.3773 27.4115 48.3773L21.6514 54.4058L24.5627 56.9453L22.8426 60.4344C22.8426 60.4344 17.8233 56.8015 16.7272 55.9387C15.6311 55.076 16.4504 52.7318 16.4504 52.7318H16.4477Z" fill="#F29B00"/>
<path d="M32.5015 35.3514L36.1208 28.4221L37.1411 30.1205C37.1411 30.1205 37.5696 30.7228 37.7243 31.2221C37.8409 31.6019 39.192 32.7821 38.7335 32.9205C38.7335 32.9205 38.4649 32.9856 38.4025 33.2895C38.3401 33.5933 38.4868 34.136 38.4868 34.2825C38.4868 35.7069 37.7921 36.32 37.7921 36.32C37.7921 36.32 35.3449 36.1898 34.3519 38.0673C33.3589 39.942 34.3519 41.1439 34.3519 41.1439C34.3519 41.1439 28.3234 42.1505 30.3501 39.8769C32.1028 37.9099 32.4989 35.3514 32.4989 35.3514H32.5015Z" fill="#F3C6A0"/>
<path d="M35.7799 32.5446C36.6913 30.5739 36.417 28.5077 35.1671 27.9297C33.9173 27.3516 32.1652 28.4806 31.2538 30.4513C30.3424 32.4219 30.6167 34.4881 31.8666 35.0662C33.1164 35.6442 34.8685 34.5152 35.7799 32.5446Z" fill="#314572"/>
<path d="M28.0785 61.1039L23.4336 59.5764L24.128 57.8672L28.602 59.4951L28.0785 61.1039Z" fill="#F3C6A0"/>
<path d="M30.5918 61.6078C32.348 61.6078 33.7715 61.0721 33.7715 60.4113C33.7715 59.7505 32.348 59.2148 30.5918 59.2148C28.8357 59.2148 27.4121 59.7505 27.4121 60.4113C27.4121 61.0721 28.8357 61.6078 30.5918 61.6078Z" fill="#F3C6A0"/>
<path d="M34.6541 27.7288C34.9091 27.8021 35.1561 27.8862 35.3949 27.9839C33.3601 29.3757 31.697 31.595 30.8804 34.3326C30.7691 34.7043 30.6794 35.0732 30.6035 35.4449C28.5361 34.2837 27.3913 32.2353 27.9529 30.3578C28.642 28.049 31.6425 26.8742 34.6541 27.7315V27.7288Z" fill="#314572"/>
<path d="M52.9943 35.4824L53.8056 35.7185L53.3061 37.0859L55.173 36.0874L56.6623 36.3425L56.8305 36.9638L55.4334 38.399L53.7865 39.5467L52.2209 40.3064L50.7207 39.232L52.9943 35.4824Z" fill="#F3C6A0"/>
<path d="M55.0058 27.0308L52.043 27.6276C50.3743 27.9638 49.294 29.5891 49.6302 31.2577L49.6709 31.4599C50.007 33.1285 51.6324 34.2087 53.3011 33.8726L56.2639 33.2757C57.9325 32.9396 59.0128 31.3143 58.6767 29.6456L58.636 29.4435C58.2998 27.7748 56.6745 26.6946 55.0058 27.0308Z" fill="#314572"/>
<path d="M56.1977 33.4973C58.6368 33.0062 65.0232 33.1283 68.553 36.4872L65.4114 20.2383C61.7216 24.7719 58.3164 26.5734 54.9413 27.2544C54.9413 27.2544 53.6852 28.1552 54.1899 30.654C54.6538 32.9601 56.2003 33.4973 56.2003 33.4973H56.1977Z" fill="#4B94D0"/>
<path d="M69.7207 36.6418C71.3468 36.3142 71.8862 32.1821 70.9254 27.4126C69.9645 22.6431 67.8673 19.0422 66.2412 19.3697C64.6152 19.6973 64.0758 23.8294 65.0366 28.5989C65.9975 33.3684 68.0947 36.9693 69.7207 36.6418Z" fill="#ADD1F0"/>
<path d="M69.9701 36.3446C71.3994 36.0566 71.8001 32.0603 70.865 27.4186C69.9299 22.7768 68.0131 19.2474 66.5838 19.5353C65.1546 19.8233 64.7541 23.8195 65.6892 28.4613C66.6243 33.103 68.5409 36.6325 69.9701 36.3446Z" fill="#3D6194"/>
<path d="M56.1395 33.4735C55.8519 33.3487 54.5986 32.6894 54.1889 30.6545C53.7439 28.4488 54.6717 27.4883 54.8942 27.293L54.8833 27.2441C54.6446 27.3065 54.4058 27.3635 54.1698 27.4096C54.1698 27.4096 52.9138 28.3104 53.4184 30.8092C53.8823 33.1153 55.4286 33.6525 55.4286 33.6525C55.6375 33.6091 55.8819 33.5766 56.1559 33.5521L56.1395 33.4735Z" fill="#F4A82F"/>
<path d="M56.5058 39.7798C56.5058 39.7798 55.6538 40.1461 54.9836 40.4174C54.3108 40.6887 54.148 39.8314 54.148 39.8314L52.7832 34.0117L55.1601 33.8652L56.5058 39.7798Z" fill="#263558"/>
<path d="M54.7773 33.8779L55.1599 33.8535L56.5056 39.7681L56.1909 39.8984L54.7773 33.8779Z" fill="#314572"/>
<path d="M55.8381 38.3628L55.6995 37.7578L54.7012 37.9233C54.5709 37.945 54.4815 38.097 54.5032 38.2625V38.276C54.5277 38.4415 54.6522 38.5582 54.7852 38.5365L55.8381 38.3628Z" fill="#4B598D"/>
<path d="M54.0254 36.0409C54.0471 36.2064 54.1747 36.323 54.3049 36.3013L55.3306 36.1304L55.192 35.5254L54.221 35.6855C54.0907 35.7072 54.0011 35.8591 54.0228 36.0246V36.0382L54.0254 36.0409Z" fill="#4B598D"/>
<path d="M55.5911 37.2691L55.4528 36.6641L54.4163 36.835C54.286 36.8567 54.1964 37.0086 54.2181 37.1741V37.1877C54.2425 37.3532 54.3673 37.4699 54.5003 37.4482L55.5911 37.2664V37.2691Z" fill="#4B598D"/>
<path d="M65.7373 28.7181C65.8919 29.4805 66.0712 30.2157 66.2719 30.9048L68.1873 30.2184L67.3951 26.2871L65.3711 26.3929C65.4552 27.139 65.5745 27.9177 65.7373 28.7181Z" fill="#D4E7F8"/>
<path d="M68.1538 30.0227C68.5695 29.9389 68.7295 28.9935 68.5114 27.9109C68.2933 26.8283 67.7797 26.0185 67.364 26.1023C66.9483 26.186 66.7881 27.1315 67.0062 28.2141C67.2243 29.2967 67.7381 30.1064 68.1538 30.0227Z" fill="#F6F5FB"/>
<path d="M75.1925 26.5901L72.642 27.1029C72.5145 27.13 72.3896 27.0459 72.3625 26.9184C72.3354 26.7909 72.4197 26.6661 72.5472 26.639L75.0974 26.1262C75.2249 26.0991 75.3497 26.1832 75.3769 26.3107C75.404 26.4382 75.32 26.563 75.1925 26.5901Z" fill="#EB7104"/>
<path d="M71.3858 23.1092C71.2745 23.1309 71.1605 23.0712 71.1171 22.9627C71.071 22.8406 71.1307 22.7023 71.2528 22.6561L73.7407 21.7011C73.8628 21.655 74.0011 21.7147 74.0472 21.8368C74.0934 21.9589 74.0337 22.0972 73.9116 22.1433L71.4237 23.0984C71.4237 23.0984 71.3994 23.1065 71.3858 23.1092Z" fill="#EB7104"/>
<path d="M69.8854 19.5633C69.8013 19.5796 69.7092 19.5498 69.6523 19.4765C69.5709 19.3734 69.5897 19.2242 69.6928 19.1428L71.6246 17.6289C71.7277 17.5475 71.877 17.5665 71.9584 17.6696C72.0398 17.7727 72.0207 17.9219 71.9176 18.0033L69.9858 19.5172C69.956 19.5416 69.9207 19.5552 69.8854 19.5633Z" fill="#EB7104"/>
<path d="M75.6873 31.1629C75.6873 31.1629 75.6603 31.1684 75.6467 31.1684L72.9824 31.2525C72.8521 31.2579 72.741 31.1548 72.7383 31.0219C72.7356 30.8889 72.8359 30.7804 72.9688 30.7777L75.6332 30.6936C75.7634 30.6881 75.8745 30.7912 75.8772 30.9242C75.88 31.0408 75.7985 31.1412 75.6873 31.1629Z" fill="#EB7104"/>
<path d="M75.3798 35.7447C75.3445 35.7528 75.3067 35.7501 75.2714 35.742L72.9027 35.0936C72.7752 35.0583 72.7021 34.9281 72.7374 34.8033C72.7726 34.6757 72.9027 34.6025 73.0275 34.6378L75.3962 35.2862C75.5237 35.3215 75.5968 35.4517 75.5615 35.5765C75.5371 35.666 75.4639 35.7284 75.3798 35.7474V35.7447Z" fill="#EB7104"/>
<path d="M16.3081 53.1887L26.7889 42.8164L17.3934 54.0949C17.3934 54.0949 16.677 54.7541 17.5235 55.4514C17.9955 55.8421 21.2487 59.4343 21.2487 59.4343C21.2487 59.4343 17.3716 56.4878 16.5251 55.7906C15.6786 55.0933 16.3108 53.1887 16.3108 53.1887H16.3081Z" fill="#EF8200"/>
<path d="M26.7584 102.608L27.3607 90.5291L28.191 81.7278L31.4902 65.9727L28.0689 66.4203L26.9593 82.3274L26.1318 91.1287L25.5293 103.205H27.8953L27.9902 102.608H26.7584Z" fill="#1E5184"/>
<path d="M128.281 61.0932C128.281 61.2533 128.14 61.3808 127.963 61.3835L100.382 61.5137C100.205 61.5137 100.061 61.3862 100.061 61.2261L99.8633 26.8346C99.8633 26.6772 100.004 26.547 100.181 26.5443L127.762 26.4141C127.939 26.4141 128.082 26.5416 128.082 26.7017L128.281 61.0932Z" fill="white"/>
<path d="M124.443 45.1636L113.235 45.3128L113.219 44.3035L124.427 44.1543L124.443 45.1636Z" fill="#BFD7E8"/>
<path d="M106.817 44.5278C104.424 44.5603 102.514 46.4324 102.549 48.7087C102.585 50.985 104.552 52.8055 106.945 52.773C109.338 52.7404 111.248 50.8683 111.212 48.592C111.177 46.3157 109.21 44.4952 106.817 44.5278ZM106.912 50.7354C105.702 50.7517 104.709 49.8319 104.69 48.6816C104.671 47.5312 105.637 46.5843 106.847 46.568C108.057 46.5518 109.05 47.4715 109.069 48.6219C109.088 49.7722 108.122 50.7191 106.912 50.7354Z" fill="#F4A82F"/>
<path d="M108.53 44.6635C106.316 43.874 103.837 44.905 102.952 47.0022C102.95 47.0103 102.944 47.0212 102.941 47.0293L104.944 47.7944C104.944 47.7944 104.949 47.7755 104.955 47.7673C105.394 46.7228 106.618 46.2018 107.722 46.5654L107.706 46.6007C108.278 46.8476 108.688 47.3034 108.878 47.8351L110.864 47.0266C110.457 46.0146 109.635 45.1546 108.512 44.6961L108.528 44.6608L108.53 44.6635Z" fill="#FCF2F2"/>
<path d="M104.52 44.9196C102.534 46.1378 101.926 48.6501 103.168 50.5792C103.174 50.5873 103.179 50.5954 103.185 50.6036L105.024 49.5292C105.024 49.5292 105.013 49.5129 105.008 49.5048C104.389 48.5443 104.677 47.299 105.645 46.675L105.667 46.7075C106.218 46.4172 106.845 46.3765 107.406 46.5475L107.908 44.5479C106.812 44.2549 105.599 44.3688 104.541 44.9549L104.52 44.9223V44.9196Z" fill="#2F61A8"/>
<path d="M109.166 48.4782C109.173 47.254 108.137 46.2557 106.851 46.2482C105.566 46.2408 104.518 47.2272 104.511 48.4514C104.504 49.6756 105.54 50.674 106.826 50.6814C108.111 50.6888 109.159 49.7024 109.166 48.4782Z" fill="white"/>
<path d="M125.381 46.5369L113.253 46.6996L113.248 46.2683L125.376 46.1055L125.381 46.5369Z" fill="#BFD7E8"/>
<path d="M125.395 47.4392L113.267 47.602L113.262 47.1679L125.389 47.0078L125.395 47.4392Z" fill="#BFD7E8"/>
<path d="M125.408 48.3325L113.284 48.4926L113.275 48.0612L125.403 47.8984L125.408 48.3325Z" fill="#BFD7E8"/>
<path d="M125.422 49.2322L113.297 49.395L113.289 48.9636L125.417 48.8008L125.422 49.2322Z" fill="#BFD7E8"/>
<path d="M125.438 50.1939L113.31 50.3567L113.305 49.9226L125.429 49.7598L125.438 50.1939Z" fill="#BFD7E8"/>
<path d="M124.155 51.1138L113.324 51.2576L113.318 50.8262L124.149 50.6797L124.155 51.1138Z" fill="#BFD7E8"/>
<path d="M125.438 54.5806L103.557 54.8736L103.549 54.4395L125.433 54.1465L125.438 54.5806Z" fill="#BFD7E8"/>
<path d="M125.452 55.4431L103.571 55.7361L103.562 55.3047L125.447 55.0117L125.452 55.4431Z" fill="#BFD7E8"/>
<path d="M125.466 56.3892L103.584 56.6822L103.576 56.2481L125.46 55.9551L125.466 56.3892Z" fill="#BFD7E8"/>
<path d="M125.48 57.2564L103.598 57.5494L103.59 57.1153L125.474 56.8223L125.48 57.2564Z" fill="#BFD7E8"/>
<path d="M125.493 58.1501L103.611 58.4432L103.604 58.0118L125.487 57.7188L125.493 58.1501Z" fill="#BFD7E8"/>
<path d="M125.507 59.0173L103.625 59.3103L103.617 58.879L125.501 58.5859L125.507 59.0173Z" fill="#BFD7E8"/>
<path d="M106.151 39.9481L106.127 36.8769L106.116 35.4688L103.959 35.4823L103.97 36.9338L103.994 39.9617L106.151 39.9481Z" fill="#2F61A8"/>
<path d="M103.994 39.9843L104.008 41.9214L106.165 41.9079L106.151 39.9707L103.994 39.9843Z" fill="#2F61A8"/>
<path d="M109.157 40.8797L109.146 39.6153L109.102 33.7441L106.945 33.7577L106.986 39.3142L106.989 39.439L107 41.0397L107.005 41.8591L109.162 41.8455L109.157 40.8797Z" fill="#F4A82F"/>
<path d="M112.261 38.397L112.258 38.1474V37.8923L112.253 37.4691L112.242 36.0176L110.088 36.0311L110.093 36.8098L110.104 38.1826L110.131 41.8399L112.288 41.8264L112.261 38.397Z" fill="#729EDB"/>
<path d="M115.433 38.0307L115.422 36.9102L113.268 36.9237L113.276 38.009L113.292 40.3748L115.449 40.3612L115.433 38.0307Z" fill="#2F61A8"/>
<path d="M113.291 40.3905L113.302 41.8827L115.459 41.8692L115.448 40.377L113.291 40.3905Z" fill="#2F61A8"/>
<path d="M118.456 41.1854L118.445 39.9536L118.413 35.5801L116.256 35.5936L116.291 40.1137V40.3715L116.296 40.8652L116.299 41.199L116.305 41.8637L118.462 41.8501L118.456 41.1854Z" fill="#F4A82F"/>
<path d="M124.854 39.138L124.846 38.3078L124.841 37.3066L122.684 37.3202L122.692 38.438L122.694 38.7609L122.716 41.7914L124.873 41.7779L124.854 39.138Z" fill="#2F61A8"/>
<path d="M121.731 38.5614L121.726 37.7149L121.723 37.2754L119.566 37.289L119.574 38.4068L119.58 39.2451L119.599 41.7602L121.756 41.7466L121.742 39.7145L121.731 38.5614Z" fill="#2F61A8"/>
<path d="M121.629 30.5501L106.815 30.7481L106.799 29.7388L121.613 29.5408L121.629 30.5501Z" fill="#BFD7E8"/>
<path d="M118.881 32.3334L110.251 32.45L110.234 31.4408L118.865 31.3241L118.881 32.3334Z" fill="#BFD7E8"/>
<path d="M88.866 19.6465C88.866 20.2407 89.0316 20.7941 89.3164 21.2662L87.4933 22.3677C87.0131 21.5728 86.7363 20.6422 86.7363 19.6465H88.866Z" fill="#2F61A8"/>
<path d="M94.142 24.4229C93.4935 24.7078 92.7773 24.8679 92.0258 24.8679C90.1158 24.8679 88.4146 23.8912 87.4922 22.3691L89.3153 21.2676C89.8634 22.1738 90.889 22.7381 92.0258 22.7381C92.4735 22.7381 92.8993 22.6431 93.2846 22.4722L94.142 24.4229Z" fill="#F4A82F"/>
<path d="M94.1349 24.421L93.2695 22.473C93.9777 22.1583 94.5474 21.5858 94.8622 20.875L96.8128 21.7351C96.2864 22.9288 95.3286 23.8893 94.1375 24.4183L94.1349 24.421Z" fill="white"/>
<path d="M96.8145 21.7337L94.8639 20.8737C95.0348 20.4857 95.1296 20.0597 95.1296 19.6094C95.1296 19.0478 94.9804 18.5214 94.7227 18.0656L96.5757 17.0156C97.0098 17.7807 97.2596 18.6652 97.2596 19.6094C97.2596 20.3663 97.0994 21.0853 96.8118 21.7337H96.8145Z" fill="#729EDB"/>
<path d="M92.9792 16.6756L93.6548 14.6543C94.9056 15.0613 95.9472 15.924 96.5903 17.0473L94.7345 18.0973C94.3493 17.4271 93.7227 16.9143 92.9766 16.6756H92.9792Z" fill="#729EDB"/>
<path d="M91.997 14.3848C92.5776 14.3848 93.1339 14.4797 93.6548 14.6534L92.9845 16.6746C92.6752 16.5715 92.3415 16.5146 91.997 16.5146C90.266 16.5146 88.866 17.9173 88.866 19.6455H86.7363C86.7363 16.7398 89.0912 14.3848 91.997 14.3848Z" fill="#729EDB"/>
<path d="M154.457 30.6231V32.8696H154.943V30.6231C154.943 30.4603 154.834 30.3301 154.701 30.3301C154.568 30.3301 154.46 30.4603 154.46 30.6231H154.457Z" fill="#F29B00"/>
<path d="M154.456 40.437C154.456 40.5998 154.564 40.73 154.697 40.73C154.83 40.73 154.939 40.5998 154.939 40.437V38.3262H154.453V40.437H154.456Z" fill="#F29B00"/>
<path d="M149.5 35.5274C149.5 35.6603 149.63 35.7689 149.793 35.7689H152.037V35.2832H149.793C149.63 35.2832 149.5 35.3917 149.5 35.5247V35.5274Z" fill="#F29B00"/>
<path d="M159.607 35.2871H157.496V35.7728H159.607C159.77 35.7728 159.9 35.6642 159.9 35.5313C159.9 35.3983 159.77 35.2898 159.607 35.2898V35.2871Z" fill="#F29B00"/>
<path d="M151.057 32.232L152.644 33.8192L152.986 33.4773L151.399 31.8901C151.285 31.7762 151.114 31.7599 151.019 31.8549C150.924 31.9498 150.94 32.118 151.054 32.2347L151.057 32.232Z" fill="#F29B00"/>
<path d="M157.997 39.1688C158.111 39.2828 158.282 39.299 158.377 39.2041C158.472 39.1091 158.456 38.9409 158.342 38.8242L156.85 37.332L156.508 37.6739L158 39.1661L157.997 39.1688Z" fill="#F29B00"/>
<path d="M151.022 39.2045C151.117 39.2995 151.285 39.2832 151.402 39.1693L152.989 37.5821L152.647 37.2402L151.06 38.8274C150.946 38.9414 150.93 39.1123 151.025 39.2072L151.022 39.2045Z" fill="#F29B00"/>
<path d="M157.996 31.887L156.504 33.3792L156.846 33.7211L158.338 32.2288C158.452 32.1149 158.468 31.944 158.373 31.849C158.278 31.754 158.11 31.7703 157.993 31.8843L157.996 31.887Z" fill="#F29B00"/>
<path d="M10.0506 63.9913H8.66406V63.161H10.0506V61.6932H10.8997V63.161H12.2862V63.9913H10.8997V65.4591H10.0506V63.9913Z" fill="#729EDB"/>
<path d="M20.0554 70.3852H19.1602V69.848H20.0554V68.8984H20.6034V69.848H21.4989V70.3852H20.6034V71.3348H20.0554V70.3852Z" fill="#729EDB"/>
<path d="M55.737 95.0566H61.4319H67.1268L66.8285 100.038C66.6956 102.274 65.9248 104.436 64.5655 106.218C64.3973 106.438 64.2319 106.636 64.0746 106.802C64.0746 107.011 62.8916 107.179 61.4319 107.179C59.9723 107.179 58.7893 107.011 58.7893 106.802H58.7813C58.6186 106.634 58.4502 106.427 58.2766 106.202C56.9173 104.411 56.1468 102.244 56.0166 99.9972L55.7344 95.0566H55.737Z" fill="#729EDB"/>
<path d="M61.4312 95.8701C64.5764 95.8701 67.1261 95.5057 67.1261 95.0561C67.1261 94.6066 64.5764 94.2422 61.4312 94.2422C58.2861 94.2422 55.7363 94.6066 55.7363 95.0561C55.7363 95.5057 58.2861 95.8701 61.4312 95.8701Z" fill="#BBD4F2"/>
<path d="M61.4514 95.5316C63.9163 95.5316 65.9146 95.3191 65.9146 95.0568C65.9146 94.7946 63.9163 94.582 61.4514 94.582C58.9865 94.582 56.9883 94.7946 56.9883 95.0568C56.9883 95.3191 58.9865 95.5316 61.4514 95.5316Z" fill="#2F61A8"/>
<path d="M64.1807 105.754C64.1102 105.613 63.9366 105.556 63.7955 105.63C63.6544 105.7 63.5974 105.874 63.6707 106.015C63.7412 106.156 63.9148 106.213 64.0559 106.14C64.197 106.069 64.254 105.896 64.1807 105.754Z" fill="#A6A6A6"/>
<path d="M62.4542 105.379C62.3836 105.238 62.21 105.181 62.0689 105.255C61.9278 105.325 61.8709 105.499 61.9441 105.64C62.0147 105.781 62.1883 105.838 62.3294 105.765C62.4704 105.694 62.5274 105.521 62.4542 105.379Z" fill="#A6A6A6"/>
<path d="M60.9222 95.3409C60.9222 95.2703 60.8354 88.2162 63.3884 80.576L63.6544 80.747C61.1312 88.2976 61.2126 95.2622 61.2153 95.33L60.9222 95.3381V95.3409Z" fill="#2F61A8"/>
<path d="M61.1094 92.047L59.1016 81.4984L59.3837 81.3926L61.3916 91.9439L61.1094 92.047Z" fill="#2F61A8"/>
<path d="M62.1732 95.3568L61.8828 95.3107C61.9099 94.9607 62.5936 86.6802 64.3138 82.7598L64.5633 82.9714C62.8785 86.8132 62.1813 95.27 62.1732 95.3541V95.3568Z" fill="#2F61A8"/>
<path d="M60.2902 95.3608C60.2848 95.2984 59.7449 88.9415 58.2988 81.8358L58.581 81.7246C60.0325 88.8628 60.5752 95.2495 60.5806 95.3119L60.2902 95.358V95.3608Z" fill="#2F61A8"/>
<path d="M56.88 76.0104C57.4308 77.4266 57.729 80.9184 58.4941 80.2564C59.2592 79.5944 58.9011 76.8216 58.9011 76.8216C58.9011 76.8216 59.7396 76.7212 60.9171 78.189C60.9171 78.189 61.2127 78.4277 59.9837 81.3199C58.7547 84.2121 60.0081 84.3179 60.0081 84.3179C60.0081 84.3179 61.7499 83.3087 62.0185 80.5901C62.0185 80.5901 62.8434 83.9137 61.5628 85.9892C60.2822 88.0648 58.7411 87.164 58.7411 87.164C58.7411 87.164 58.0683 79.7002 56.1392 77.3126C54.2102 74.9251 53.0273 74.4395 53.0273 74.4395C53.0273 74.4395 56.3293 74.5887 56.88 76.0049V76.0104Z" fill="#2F61A8"/>
<path d="M58.7416 87.1718C58.7416 87.1718 58.3022 89.5756 55.2228 89.6163C54.4523 89.6272 53.8472 89.345 53.3724 88.9191C53.3724 88.9191 53.9475 87.4133 55.5781 87.7199C57.2087 88.0292 57.1734 87.0416 57.1734 87.0416C57.1734 87.0416 52.0755 87.5978 51.9045 83.5579C51.9045 83.5579 56.8912 84.3203 56.959 83.5118C57.0269 82.7033 51.7201 81.0591 51.7201 81.0591C51.7201 81.0591 51.5573 79.2468 52.1406 77.9255C52.1406 77.9255 53.7793 78.62 54.8429 79.5669C55.9064 80.5138 56.2755 79.9006 56.2755 79.9006C56.2755 79.9006 55.6433 77.5782 52.8515 76.5309L53.0279 74.4473C53.0279 74.4473 54.2108 74.9329 56.1398 77.3205C58.0688 79.708 58.7416 87.1718 58.7416 87.1718Z" fill="#477EBF"/>
<path d="M68.038 71.789C67.2457 73.1185 66.437 76.5397 65.7072 75.7773C64.9746 75.0149 65.748 72.3181 65.748 72.3181C65.748 72.3181 64.8607 72.1038 63.3875 73.3979C63.3875 73.3979 63.0348 73.5933 63.9545 76.6293C64.8743 79.6652 63.5096 79.5974 63.5096 79.5974C63.5096 79.5974 61.7761 78.3602 61.8656 75.6281C61.8656 75.6281 60.5143 78.8079 61.5996 81.0408C62.6876 83.2737 64.4728 82.59 64.4728 82.59C64.4728 82.59 66.2391 75.2863 68.6511 73.1809C71.0603 71.0782 72.4007 70.7581 72.4007 70.7581C72.4007 70.7581 68.8273 70.4542 68.0351 71.7836L68.038 71.789Z" fill="#477EBF"/>
<path d="M64.4766 82.5974C64.4766 82.5974 64.612 85.0392 67.922 85.5005C68.7495 85.6144 69.4387 85.4191 70.0112 85.0609C70.0112 85.0609 69.6016 83.49 67.8028 83.5714C66.004 83.6555 66.1802 82.6815 66.1802 82.6815C66.1802 82.6815 71.5876 83.9296 72.3364 79.9494C72.3364 79.9494 66.8639 80.0227 66.9046 79.2142C66.9453 78.4057 72.8843 77.4995 72.8843 77.4995C72.8843 77.4995 73.3131 75.7251 72.8682 74.336C72.8682 74.336 71.0095 74.7999 69.7316 75.5921C68.4538 76.3844 68.1446 75.7278 68.1446 75.7278C68.1446 75.7278 69.1512 73.5139 72.3012 72.8546L72.4042 70.7655C72.4042 70.7655 71.0639 71.0856 68.6546 73.1883C66.2454 75.291 64.4766 82.5974 64.4766 82.5974Z" fill="#2F61A8"/>
<path d="M60.4338 94.9015C60.4338 94.9015 57.7478 87.9017 51.6541 88.021C45.5604 88.1404 59.7935 94.0686 60.4338 94.9015Z" fill="#2F61A8"/>
<path d="M71.5265 82.1836C71.5265 82.1836 72.4544 83.4018 69.8878 84.2483C69.7494 83.4181 69.3398 82.8727 69.3398 82.8727C70.2026 82.7316 70.9215 82.4847 71.5265 82.1836Z" fill="#477EBF"/>
<path d="M70.397 81.1C74.2496 79.6267 74.4097 79 74.4097 79C74.4097 79 73.8644 81.0104 71.5257 82.1825C70.9233 82.4837 70.2018 82.7305 69.339 82.8716C69.339 82.8716 69.7486 83.417 69.8869 84.2472C70.028 85.0991 69.8816 86.2522 68.7068 87.427C66.3898 89.744 63.2207 89.2122 63.2207 89.2122C63.2207 89.2122 65.3913 83.0154 70.397 81.1Z" fill="#477EBF"/>
<path d="M33.9388 43.4851C34.0647 43.4851 34.1667 43.3831 34.1667 43.2572C34.1667 43.1313 34.0647 43.0293 33.9388 43.0293C33.8129 43.0293 33.7109 43.1313 33.7109 43.2572C33.7109 43.3831 33.8129 43.4851 33.9388 43.4851Z" fill="white"/>
<path d="M34.7611 45.0398C34.8869 45.0398 34.9889 44.9378 34.9889 44.8119C34.9889 44.686 34.8869 44.584 34.7611 44.584C34.6352 44.584 34.5332 44.686 34.5332 44.8119C34.5332 44.9378 34.6352 45.0398 34.7611 45.0398Z" fill="white"/>
<defs>
<linearGradient id="paint0_linear_248_64466" x1="78.7438" y1="10.6602" x2="78.7438" y2="112.14" gradientUnits="userSpaceOnUse">
<stop stop-color="#F6FBFF"/>
<stop offset="1" stop-color="#EAF0F9"/>
</linearGradient>
<linearGradient id="paint1_linear_248_64466" x1="29.5736" y1="109.786" x2="29.5736" y2="107.575" gradientUnits="userSpaceOnUse">
<stop stop-color="#002D49"/>
<stop offset="1" stop-color="#002737"/>
</linearGradient>
<linearGradient id="paint2_linear_248_64466" x1="41.894" y1="109.59" x2="41.894" y2="107.379" gradientUnits="userSpaceOnUse">
<stop stop-color="#002D49"/>
<stop offset="1" stop-color="#002737"/>
</linearGradient>
</defs>
</svg>
