<svg width="380" height="285" viewBox="0 0 380 285" fill="none" xmlns="http://www.w3.org/2000/svg">
<path d="M148.261 256.702C224.645 251.117 259.424 313.191 316.849 237.992C356.631 185.903 350.699 99.9222 308.166 49.8082C276.076 12.0078 236.945 -6.39688 206.268 26.7746C175.591 59.9391 136.586 67.5338 103.29 77.54C61.387 90.1309 25.3051 155.628 42.7743 203.47C60.2505 251.311 96.0617 260.52 148.261 256.709V256.702Z" fill="url(#paint0_linear_248_64038)"/>
<path d="M207.13 140.352C207.13 140.352 244.397 85.5817 259.102 66.6365C262.913 61.7304 264.624 65.7565 264.472 66.0545C263.155 68.6807 207.913 145.591 207.913 145.591C207.913 145.591 190.999 166.809 186.044 169.463C184.215 170.447 183.896 169.422 183.369 169.262C182.843 169.103 183.528 167.267 186.231 164.994C186.231 164.994 202.259 147.912 207.117 140.352H207.13Z" fill="#CDDAE7"/>
<path d="M180.116 84.5273C180.276 93.2031 191.217 105.648 195.936 110.707C199.644 114.684 208.223 119.154 209.311 114.816C210.406 110.478 199.99 105.538 194.301 99.1763C187.469 91.5539 184.946 85.7261 186.464 75.4566C187.205 70.4604 200.149 60.1771 205.894 60.0039C201.813 74.2786 205.236 84.264 208.278 90.9232C210.288 95.3235 213.919 99.4881 218.174 96.4599C222.428 93.4317 217.758 88.4841 215.7 83.2038C212.2 74.2301 214.355 66.6631 216.108 62.0272C218.132 56.6846 227.764 53.4278 236.8 55.5621C229.87 63.8705 233.106 77.8819 235.552 81.6862C237.984 85.4905 241.304 83.4948 242.35 79.5311C243.14 76.5376 247.311 60.2187 248.801 58.4863C254.352 52.0141 267.601 54.1831 274.482 52.1943C275.439 60.4474 280.323 69.7814 275.972 74.7498C274.461 76.4753 260.318 86.821 257.664 88.6989C254.158 91.1797 253.506 94.7829 258.274 95.2888C263.041 95.7946 278.286 92.8427 283.733 83.6542C289.512 90.3897 292.873 100.992 288.383 104.858C284.481 108.212 275.182 110.651 264.85 111.344C258.766 111.76 250.167 111.732 248.878 116.542C247.589 121.344 254.573 121.441 260.152 121.974C265.307 122.466 279.305 120.672 291.841 111.455C294.003 116.354 289.547 129.624 285.23 132.736C278.924 137.261 269.95 139.603 257.332 136.256C248.725 133.969 239.848 128.114 235.982 130.782C232.108 133.463 241.124 137.773 246.965 140.33C252.107 142.583 275.854 144.959 279.721 142.278C280.164 150.288 273.172 157.904 266.984 160.897C257.477 165.505 247.686 160.821 241.498 156.767C234.804 152.388 225.221 143.483 224.181 148.951C221.673 162.145 247.901 166.808 252.024 168.333C244.796 181.706 223.752 181.311 214.161 167.265C208.334 158.735 211.784 149.443 207.917 145.583C208.818 144.419 249.716 86.3428 251.857 83.4324C254.38 80.0093 260.193 70.8277 260.263 69.6012C259.078 70.1556 252.294 78.762 249.924 82.2753C247.901 85.2549 205.499 142.95 204.696 144.176C199.298 142.492 195.597 150.087 184.884 147.988C173.465 145.742 157.256 136.415 166.992 115.1C170.173 117.955 178.585 125.571 183.623 129.375C187.621 132.403 194.371 135.369 196.027 132.098C198.57 127.06 184.87 122.355 177.802 118.503C171.267 114.941 166.701 111.649 165.752 104.346C165.218 100.271 171.995 86.5369 180.109 84.5135L180.116 84.5273Z" fill="#CDDAE7"/>
<path d="M155.336 256.652C199.959 256.652 236.134 252.725 236.134 247.88C236.134 243.035 199.959 239.107 155.336 239.107C110.712 239.107 74.5381 243.035 74.5381 247.88C74.5381 252.725 110.712 256.652 155.336 256.652Z" fill="#CDDAE7"/>
<path d="M196.629 137.754H95.556C91.1664 137.754 87.6074 141.312 87.6074 145.702V239.686C87.6074 244.076 91.1664 247.635 95.556 247.635H196.629C201.019 247.635 204.578 244.076 204.578 239.686V145.702C204.578 141.312 201.019 137.754 196.629 137.754Z" fill="#FF9A2E"/>
<path d="M209.918 137.754H108.844C104.455 137.754 100.896 141.312 100.896 145.702V239.686C100.896 244.076 104.455 247.635 108.844 247.635H209.918C214.308 247.635 217.866 244.076 217.866 239.686V145.702C217.866 141.312 214.308 137.754 209.918 137.754Z" fill="#FFCB49"/>
<path d="M147.866 216.326L154.948 189.779C151.199 187.887 148.607 183.854 148.607 179.184C148.607 172.698 153.596 167.445 159.757 167.445C165.917 167.445 170.907 172.704 170.907 179.184C170.907 184.124 168.01 188.344 163.908 190.077L171.052 216.326H147.866Z" fill="#FF9B2F"/>
<path d="M143.428 216.326L150.509 189.779C146.761 187.887 144.169 183.854 144.169 179.184C144.169 172.698 149.159 167.445 155.319 167.445C161.479 167.445 166.468 172.704 166.468 179.184C166.468 184.124 163.572 188.344 159.47 190.077L166.614 216.326H143.428Z" fill="#3B2B5C"/>
<path d="M186.113 137.752V109.03C186.113 91.9278 172.123 77.9441 155.028 77.9441C137.926 77.9441 123.942 91.9347 123.942 109.03V137.752H112.716V107.401C112.716 84.1321 131.758 65.0898 155.028 65.0898C178.297 65.0898 197.339 84.1321 197.339 107.401V137.752H186.113Z" fill="#3E3F44"/>
<path d="M191.73 111.566C191.73 90.798 174.745 73.4674 152.148 69.4205C175.265 70.3629 193.656 85.9959 193.656 105.142C193.656 109.106 192.866 112.917 191.411 116.479C191.626 114.864 191.736 113.222 191.736 111.559L191.73 111.566Z" fill="#5D6079"/>
<path d="M257.387 232.822C261.51 224.604 264.489 212.144 265.515 197.689C272.084 187.579 276.651 171.877 277.69 153.826H258.939C258.204 158.087 257.512 162.446 256.874 166.881C253.285 191.73 251.892 214.778 252.488 232.815H257.38L257.387 232.822Z" fill="#1E2D54"/>
<path d="M293.199 191.669C294.003 186.063 294.446 180.048 294.446 173.777C294.446 166.522 293.857 159.6 292.79 153.273H267.678C270.394 165.503 275.39 180.437 282.285 195.966C289.097 211.294 296.636 224.667 303.677 234.528L308.534 231.936C307.342 225.547 305.492 218.784 302.949 211.952C300.15 204.406 296.803 197.559 293.186 191.676L293.199 191.669Z" fill="#153F5E"/>
<path d="M262.724 118.459C263.583 116.934 264.31 115.41 264.906 113.934L254.886 108.252C254.131 109.298 253.396 110.428 252.703 111.647C251.075 114.502 249.897 117.378 249.225 119.942C248.497 119.741 247.762 119.554 247.014 119.367C237.112 116.976 228.7 116.921 228.235 119.242C227.764 121.556 235.415 125.375 245.324 127.758C245.927 127.904 250.223 129.851 252.468 129.408C254.713 128.964 258.531 125.929 262.737 118.459H262.724Z" fill="#EA9F87"/>
<path d="M229.987 115.751C229.987 115.751 229.509 114.809 228.927 115.654C228.234 116.645 227.243 116.742 226.37 115.536C225.926 114.926 225.303 114.102 224.478 112.529C224.298 111.614 223.709 111.496 223.563 112.009C223.064 113.783 223.259 115.89 224.991 118.266C226.724 120.65 228.504 121.78 229.834 120.629C230.888 119.715 230.902 117.719 229.994 115.751H229.987Z" fill="#EA9F87"/>
<path d="M295.617 114.316L303.766 109.826C303.475 100.749 295.804 93.1469 285.403 90.7562C284.328 92.6549 281.709 94.0061 278.64 94.0061C275.57 94.0061 272.874 92.6203 271.828 90.6731C261.981 92.8074 254.511 99.5844 253.264 107.907L263.235 112.66C263.124 126.173 255.1 148.971 256.874 152.034C258.821 155.394 291.05 156.067 293.822 155.395C296.587 154.722 291.694 123.533 293.496 114.469L295.61 114.316H295.617Z" fill="#729EDB"/>
<path d="M305.889 113.644C305.189 111.891 304.407 110.262 303.589 108.786L292.896 114.912C293.277 116.27 293.735 117.67 294.29 119.076C295.592 122.382 297.179 125.264 298.828 127.475C298.226 128.05 297.623 128.632 297.013 129.242C289.044 137.266 283.861 145.291 285.434 147.155C287.007 149.019 294.747 144.023 302.716 135.998C303.201 135.506 307.386 132.589 308.405 130.164C309.417 127.738 309.312 122.229 305.882 113.644H305.889Z" fill="#EFB495"/>
<path d="M283.708 143.339C283.708 143.339 282.662 143.215 282.98 144.296C283.355 145.564 282.828 146.568 281.324 146.672C280.562 146.728 279.516 146.818 277.755 146.645C276.91 146.257 276.453 146.756 276.778 147.206C277.901 148.765 279.709 149.867 282.675 149.666C285.641 149.465 287.644 148.446 287.533 146.471C287.443 144.905 285.849 143.679 283.708 143.339Z" fill="#EFB495"/>
<path d="M284.364 93.064C282.646 93.9163 280.698 94.4014 278.627 94.4014C276.257 94.4014 274.046 93.7569 272.155 92.6621C272.896 91.3801 273.346 89.717 273.346 87.8877C273.346 85.4 272.515 83.2033 271.247 81.8867V78.7684H278.911C279.25 84.5753 281.315 89.6685 284.364 93.064Z" fill="#EA9F86"/>
<path d="M269.6 75.5583C270.3 71.7194 274.159 72.4193 276.98 73.0291C278.788 73.4171 280.355 74.0546 281.041 76.3136C281.449 75.9394 281.886 76.9512 282.343 77.069C283.293 77.3115 283.799 77.8104 283.487 79.2725C283.168 80.7347 282.149 82.6057 281.2 82.3631C281.151 82.3493 281.117 82.3215 281.068 82.3077C280.736 83.4787 280.909 84.5043 280.202 85.322C278.816 86.9365 276.142 87.8235 274.368 87.8512C268.581 87.9275 268.907 79.3973 269.607 75.5583H269.6Z" fill="#EBB190"/>
<path d="M266.813 70.6197C267.284 67.5014 273.452 66.3303 278.067 66.8916L278.989 67.0025C278.989 67.0025 281.226 67.4668 282.73 69.3516C284.282 71.2919 285.1 74.6942 284.837 77.4245C284.546 80.4734 282.814 82.5662 281.386 82.6355C281.053 82.6493 280.818 82.5107 280.631 82.2543C281.137 82.0949 281.649 81.6583 281.996 81.0278C282.585 79.9606 282.481 78.7479 281.774 78.3252C281.192 77.9718 280.388 78.2629 279.792 78.9559C279.314 76.5929 278.323 74.0982 274.138 74.8466C269.558 75.6712 266.335 73.7449 266.806 70.6266L266.813 70.6197Z" fill="#1C3054"/>
<path d="M252.882 236.072L256.131 237.16L257.816 231.159L253.984 229.877L252.882 236.072Z" fill="#EA9F88"/>
<path d="M259.459 240.464L258.053 236.133C258.053 236.133 255.974 236.639 254.706 236.431C253.438 236.223 253.438 234.955 252.939 234.124H251.248C251.248 234.124 249.024 238.427 244.665 239.501H241.395C240.632 239.501 240.009 240.499 240.009 241.725V242.709H253.75L254.443 241.393H254.831V242.709H259.716V241.725C259.716 241.261 259.626 240.831 259.474 240.471L259.459 240.464Z" fill="#16415D"/>
<path d="M305.497 237.339L308.886 237.048L308.436 230.791L304.444 231.137L305.497 237.339Z" fill="#EA9F88"/>
<path d="M313.098 238.79L310.326 235.325C310.326 235.325 308.56 236.628 307.312 236.94C306.058 237.252 305.642 236.074 304.887 235.499L303.314 236.178C303.314 236.178 302.697 241.07 298.997 243.821L295.955 245.131C295.248 245.436 295.006 246.614 295.414 247.75L295.747 248.672L308.525 243.163L308.726 241.659L309.086 241.506L309.53 242.733L314.075 240.772L313.743 239.85C313.591 239.421 313.355 239.053 313.098 238.783V238.79Z" fill="#16415D"/>
<path d="M53.2002 112.471V119.359H54.6896V112.471C54.6896 111.972 54.3575 111.57 53.9486 111.57C53.5398 111.57 53.207 111.972 53.207 112.471H53.2002Z" fill="#E5803C"/>
<path d="M53.2031 142.575C53.2031 143.074 53.5359 143.476 53.9447 143.476C54.3536 143.476 54.6857 143.074 54.6857 142.575V136.103H53.1963V142.575H53.2031Z" fill="#E5803C"/>
<path d="M38 127.526C38 127.934 38.4025 128.267 38.9014 128.267H45.7889V126.777H38.9014C38.4025 126.777 38 127.11 38 127.519V127.526Z" fill="#E5803C"/>
<path d="M69.0013 126.785H62.5293V128.274H69.0013C69.5002 128.274 69.902 127.942 69.902 127.533C69.902 127.124 69.5002 126.791 69.0013 126.791V126.785Z" fill="#E5803C"/>
<path d="M42.7833 117.407L47.6549 122.278L48.7078 121.225L43.8362 116.353C43.4828 116 42.9633 115.952 42.6723 116.243C42.3813 116.534 42.4299 117.053 42.7833 117.407Z" fill="#E5803C"/>
<path d="M64.0692 138.693C64.4226 139.047 64.9428 139.095 65.2338 138.804C65.5249 138.513 65.4762 137.993 65.1228 137.64L60.5422 133.06L59.4893 134.113L64.0692 138.693Z" fill="#E5803C"/>
<path d="M42.6723 138.809C42.9633 139.101 43.4828 139.052 43.8362 138.699L48.7078 133.827L47.6549 132.774L42.7833 137.645C42.4299 137.999 42.3813 138.518 42.6723 138.809Z" fill="#E5803C"/>
<path d="M64.0692 116.353L59.4893 120.934L60.5422 121.987L65.1228 117.407C65.4762 117.053 65.5249 116.533 65.2338 116.242C64.9428 115.951 64.4226 116 64.0692 116.353Z" fill="#E5803C"/>
<path d="M143.432 46.8661C150.237 46.8661 155.753 41.35 155.753 34.5455C155.753 27.741 150.237 22.2249 143.432 22.2249C136.628 22.2249 131.111 27.741 131.111 34.5455C131.111 41.35 136.628 46.8661 143.432 46.8661Z" fill="#EAF0F9"/>
<defs>
<linearGradient id="paint0_linear_248_64038" x1="190.942" y1="9.5" x2="190.942" y2="275.5" gradientUnits="userSpaceOnUse">
<stop stop-color="#F6FBFF"/>
<stop offset="1" stop-color="#EAF0F9"/>
</linearGradient>
</defs>
</svg>
