<svg width="380" height="285" viewBox="0 0 380 285" fill="none" xmlns="http://www.w3.org/2000/svg">
<path d="M83.4109 200.551C83.4109 202.363 81.9408 203.833 80.1293 203.833C78.3178 203.833 76.8477 202.363 76.8477 200.551C76.8477 198.74 78.3178 197.27 80.1293 197.27C81.9408 197.27 83.4109 198.74 83.4109 200.551Z" fill="#E5803C"/>
<path d="M82.9405 208.082C83.7371 208.082 84.3823 207.436 84.3823 206.64C84.3823 205.843 83.7371 205.197 82.9405 205.197C82.144 205.197 81.498 205.843 81.498 206.64C81.498 207.436 82.144 208.082 82.9405 208.082Z" fill="#E5803C"/>
<path d="M97.5283 201.771C98.3569 198.274 96.1936 194.768 92.6964 193.939C89.1992 193.11 85.6924 195.274 84.8638 198.771C84.0352 202.268 86.1984 205.775 89.6956 206.604C93.1928 207.433 96.6997 205.269 97.5283 201.771Z" fill="#E5803C"/>
<path d="M156.188 209.876V212.608H156.779V209.876C156.779 209.681 156.647 209.521 156.487 209.521C156.327 209.521 156.194 209.681 156.194 209.876H156.188Z" fill="#E5803C"/>
<path d="M156.188 221.819C156.188 222.014 156.321 222.174 156.481 222.174C156.641 222.174 156.774 222.014 156.774 221.819V219.248H156.182V221.819H156.188Z" fill="#E5803C"/>
<path d="M150.154 215.848C150.154 216.008 150.314 216.141 150.509 216.141H153.241V215.549H150.509C150.314 215.549 150.154 215.681 150.154 215.841V215.848Z" fill="#E5803C"/>
<path d="M162.46 215.549H159.889V216.141H162.46C162.655 216.141 162.815 216.008 162.815 215.848C162.815 215.688 162.655 215.556 162.46 215.556V215.549Z" fill="#E5803C"/>
<path d="M152.051 211.836L153.982 213.766L154.4 213.348L152.47 211.418C152.331 211.279 152.121 211.258 152.01 211.376C151.899 211.494 151.912 211.697 152.051 211.836Z" fill="#E5803C"/>
<path d="M160.504 220.281C160.643 220.421 160.852 220.442 160.964 220.323C161.075 220.205 161.061 220.003 160.922 219.863L159.103 218.045L158.686 218.463L160.504 220.281Z" fill="#E5803C"/>
<path d="M152.009 220.321C152.127 220.44 152.33 220.419 152.469 220.28L154.399 218.35L153.981 217.932L152.05 219.862C151.911 220.001 151.891 220.21 152.009 220.321Z" fill="#E5803C"/>
<path d="M160.504 211.417L158.686 213.235L159.103 213.653L160.922 211.835C161.061 211.696 161.082 211.487 160.964 211.375C160.845 211.264 160.643 211.278 160.504 211.417Z" fill="#E5803C"/>
<path d="M186.885 269.874H184.879V268.676H186.885V266.551H188.119V268.676H190.126V269.874H188.119V271.999H186.885V269.874Z" fill="#E5803C"/>
<path opacity="0.3" d="M252.127 238.076C283.38 238.076 308.716 233.634 308.716 228.154C308.716 222.674 283.38 218.232 252.127 218.232C220.873 218.232 195.537 222.674 195.537 228.154C195.537 233.634 220.873 238.076 252.127 238.076Z" fill="#C7D0DD"/>
<path opacity="0.3" d="M116.236 239.796C147.49 239.796 172.825 235.354 172.825 229.875C172.825 224.395 147.49 219.953 116.236 219.953C84.9829 219.953 59.6465 224.395 59.6465 229.875C59.6465 235.354 84.9829 239.796 116.236 239.796Z" fill="#C7D0DD"/>
<path d="M309.895 151.025C309.623 137.243 304.168 131.865 300.37 122.222C295.737 110.447 292.769 101.974 298.768 89.4819C308.571 69.0605 326.24 16.6378 272.703 12.1439C253.515 10.5344 234.208 22.6856 218.88 35.6867C205.837 46.7509 189.268 44.3123 175.278 44.4656C158.089 44.6537 140.009 46.6882 122.618 51.6838C86.799 61.9677 70.112 84.4654 61.6884 116.104C59.1452 125.664 55.7729 140.866 65.0884 161.587C77.6645 189.555 107.972 191.317 146.014 188.175C154.724 187.457 163.433 185.235 172.15 184.036C181.207 182.796 190.272 182.671 199.093 183.66C219.674 185.973 236.716 202.131 257.835 199.887C269.003 198.703 280.221 194.487 290.108 187.764C302.454 179.368 310.18 165.566 309.895 151.025Z" fill="#EAF0F9"/>
<path d="M87.6499 211.799L88.9944 206.246C88.3673 206.176 87.7474 206.072 87.1273 205.918C86.1379 205.675 85.1907 205.312 84.271 204.859L82.9258 210.419C83.8455 210.865 84.8004 211.221 85.7828 211.464C86.396 211.618 87.0158 211.729 87.6499 211.799Z" fill="#55B6CA"/>
<path d="M134.545 144.285L133.876 141.631C132.504 142.07 131.104 142.46 129.675 142.801C128.791 143.017 127.899 143.205 127.014 143.373L127.683 146.027C128.574 145.853 129.459 145.665 130.344 145.449C131.766 145.108 133.166 144.717 134.545 144.285Z" fill="#314572"/>
<path d="M109.524 43.8705C109.524 43.8705 104.647 37.6765 106.068 30.5558C106.821 26.8004 116.184 24.0273 119.389 24.0273C122.594 24.0273 122.176 28.3751 122.176 28.3751C122.176 28.3751 128.106 36.0322 128.58 37.3769L125.57 39.4811C125.57 39.4811 129.095 45.8841 127.137 46.8525C125.981 47.4239 120.344 47.8976 120.344 47.8976L119.536 57.3734L109.823 54.3564L109.51 43.8705H109.524Z" fill="#CF8E5A"/>
<path d="M114.865 28.4452C114.663 26.2017 119.492 27.7485 121.861 27.0378C123.365 26.5849 121.91 24.0278 120.021 23.1709C116.517 21.5893 111.458 25.0382 111.458 25.0382C111.458 25.0382 106.296 27.4837 105.48 30.8838C104.665 34.2839 107.522 43.3276 107.522 43.3276C107.522 43.3276 105.599 42.3799 109.082 41.5299C112.559 40.6729 110.929 36.7712 112.796 36.5831C114.663 36.395 117.555 39.802 117.555 39.802L119.764 39.2725C119.764 39.2725 115.074 30.6817 114.865 28.4382V28.4452Z" fill="#0F343D"/>
<path d="M112.119 41.3281L116.209 48.407L119.943 49.1734L120.355 47.8983L116.432 47.4942L112.565 41.3281H112.119Z" fill="#D3AF94"/>
<path d="M127.015 36.0183L123.447 30.0332L128.582 37.3838L128.101 37.8785L127.015 36.0183Z" fill="#CF8E5A"/>
<path d="M136.142 222.411L124.458 225.804L121.183 188.187L122.499 175.855L117.254 136.754L106.753 173.493L87.8577 225.825H76.3125L85.1333 192.437L92.9792 168.114L96.2608 123.348L121.051 121.746L135.354 120.199L136.142 222.411Z" fill="#314572"/>
<path d="M172.358 68.8137L152.459 76.0737C152.459 76.0737 151.623 78.1709 150.048 75.9135C149.052 74.4852 141.368 66.0755 135.829 60.0627L130.819 54.0707L130.247 54.0289C130.15 53.9244 130.101 53.8687 130.101 53.8687L130.115 54.015L123.266 53.5133L119.859 82.8181L106.217 51.7227L90.0804 63.3025L85.7394 70.9248L84.6875 87.4584L96.379 78.1709L97.9535 97.603L95.7238 124.783L137.709 122.031L132.993 78.4914L136.434 80.714L151.094 92.4401C151.094 92.4401 153.72 92.4401 154.577 91.2975C155.434 90.1548 175.633 79.3275 175.633 79.3275L172.352 68.8067L172.358 68.8137Z" fill="#729EDB"/>
<path d="M123.545 173.757L122.445 187.531L124.855 224.625L121.127 186.869L122.347 173.889L117.254 136.753L118.696 131.639L123.545 173.757Z" fill="#314572"/>
<path d="M100.32 175.986L96.3828 180.188" stroke="#3E2B68" stroke-width="0.561327" stroke-miterlimit="10"/>
<path d="M154.515 231.859H131.948L130.241 230.284L128.798 231.859H124.855V224.627L136.073 223.129L141.653 228.125L154.515 230.925V231.859Z" fill="#19132E"/>
<path d="M87.3343 232.78L76.0891 232.222L75.7891 229.233L77.3642 225.826L87.3343 226.216V232.78Z" fill="#19132E"/>
<path d="M119.872 82.8317L106.619 52.1265L108.298 51.8965L117.252 56.7179L121.049 52.7396L123.278 53.5269L119.872 82.8317Z" fill="#729EDB"/>
<path d="M118.042 60.6549L121.128 71.9699L119.874 82.832L115.15 72.0605L116.858 60.9196L115.15 59.0802L117.115 56.5859L119.219 58.9478L118.042 60.6549Z" fill="#729EDB"/>
<path d="M103.08 57.7701L119.871 82.8318L106.229 51.7363L103.47 55.4082L106.041 55.5336L103.08 57.7701Z" fill="#729EDB"/>
<path d="M127.481 55.5409L119.873 82.8321L123.28 53.5273L127.481 55.5409Z" fill="#729EDB"/>
<path d="M96.128 125.186L116.201 124.399L134.964 122.037L95.8633 123.744L96.128 125.186Z" fill="#29667D"/>
<path d="M120.882 121.753L121.216 121.739L120.039 82.8544L127.647 55.9812L127.32 55.8906L119.697 82.8126V82.8404L120.882 121.753Z" fill="#729EDB"/>
<path d="M95.5996 69.7129L96.3868 78.1085" stroke="#382B66" stroke-width="0.561327" stroke-miterlimit="10"/>
<path d="M132.031 66.25L132.999 78.4986" stroke="#25596B" stroke-width="0.561327" stroke-miterlimit="10"/>
<path d="M180.894 64.3965L182.378 65.8317L180.344 68.9462L184.9 68.1797L187.764 70.3397L187.645 72.1582L183.716 74.5479L179.494 75.9344L175.724 76.3734L173.453 72.0327L180.894 64.3965Z" fill="#CF8E5A"/>
<path d="M98.6757 175.066L92.5234 181.358" stroke="#3E2B68" stroke-width="0.561327" stroke-miterlimit="10"/>
<path d="M133.779 173.891L129.842 178.085" stroke="#3E2B68" stroke-width="0.561327" stroke-miterlimit="10"/>
<path d="M132.604 76.2695L132.736 78.1507L151.103 92.4478L132.604 76.2695Z" fill="#729EDB"/>
<path d="M87.6009 85.1473L96.2619 78.5004L95.8645 76.668L86.4238 85.1055L87.6009 85.1473Z" fill="#729EDB"/>
<path d="M86.5206 93.8145L97.6549 82.3253L95.4809 59.3398L89.4192 63.6945L75.0176 90.4423L77.5399 123.781L86.4859 121.977L86.5206 93.8145Z" fill="#729EDB"/>
<path d="M89.1203 131.104L87.3921 132.023L85.0651 129.466L84.5357 133.612L87.6357 140.112L85.6292 140.182L81.7624 135.549L78.9686 130.971L78.8359 126.958L79.449 123.579L84.0826 122.715L89.1203 131.104Z" fill="#CF8E5A"/>
<path d="M243.546 29.9844H241.679V26.5843H238.641V24.6613H241.679V21.2612H243.546V24.6613H246.584V26.5843H243.546V29.9844Z" fill="#FCFCFD"/>
<path d="M230.073 142.365H227.454V137.599H223.189V134.902H227.454V130.137H230.073V134.902H234.337V137.599H230.073V142.365Z" fill="#FCFCFD"/>
<path d="M248.783 44.324C248.783 44.324 254.197 37.7189 252.608 30.1245C251.772 26.1182 241.39 23.1641 237.837 23.1641C234.284 23.1641 233.789 27.8044 233.789 27.8044C233.789 27.8044 230.556 35.4476 230.027 36.8829L230.988 39.6489C230.988 39.6489 227.079 46.477 229.246 47.5082C230.528 48.1143 236.772 48.6229 236.772 48.6229L237.663 58.7257L248.428 55.5067L248.776 44.324H248.783Z" fill="#B06D55"/>
<path d="M241.897 30.6404C242.12 28.2437 237.724 27.1288 235.097 26.3763C233.432 25.8956 235.041 23.1644 237.131 22.2586C241.019 20.5725 246.628 24.2513 246.628 24.2513C246.628 24.2513 252.349 26.8571 253.254 30.4871C254.16 34.1171 250.99 43.76 250.99 43.76C250.99 43.76 253.115 42.7497 249.262 41.844C245.402 40.9312 250.091 36.7717 248.021 36.5696C245.952 36.3676 244.664 40.0046 244.664 40.0046L242.692 38.9804C242.692 38.9804 241.66 33.0441 241.89 30.6543L241.897 30.6404Z" fill="#314572"/>
<path d="M246.756 43.5371L242.736 50.2397L239.057 50.9644L238.66 49.759L242.513 49.3758L246.317 43.5371H246.756Z" fill="#633629"/>
<path d="M223.131 220.935L234.62 224.147L237.839 182.461L236.55 170.797L241.713 133.814L252.031 168.561L275.254 224.167H286.604L275.999 186.488L265.576 163.475L262.35 115.943L237.971 114.424L223.911 112.961L223.131 220.935Z" fill="#314572"/>
<path d="M202.465 116.186C202.465 116.186 209.816 84.8537 211.369 82.7148C212.345 81.3631 218.002 66.9475 223.444 61.2691L228.369 55.5976L228.927 55.5558C229.017 55.4583 229.073 55.4025 229.073 55.4025L229.059 55.5419L235.79 55.0681L239.141 71.114L252.553 53.375C252.553 53.375 262.963 57.7785 268.418 64.3278C273.874 70.8772 279.768 86.9021 280.158 93.0891C280.548 99.2762 280.549 122.631 280.549 122.631L271.421 121.927L268.425 96.3986L261.848 83.6553L260.684 96.7679L262.879 117.287L221.597 114.681L226.238 78.6876L226.335 80.7918L217.535 93.6675L212.15 117.085L202.472 116.172L202.465 116.186Z" fill="#ED971B"/>
<path d="M235.516 168.812L236.597 181.848L234.234 223.032L237.892 181.214L236.694 168.938L241.711 133.815L240.289 128.973L235.516 168.812Z" fill="#314572"/>
<path d="M205.07 229.874H227.261L228.94 228.382L230.355 229.874H234.235V223.032L223.206 221.617L217.716 226.341L205.07 228.989V229.874Z" fill="#19132E"/>
<path d="M275.768 230.743L286.825 230.221L287.118 227.392L285.571 224.166L275.768 224.535V230.743Z" fill="#19132E"/>
<path d="M239.664 68.1745L252.163 53.7589L250.512 53.543L241.712 58.1066L237.971 54.3372L235.783 55.0827L239.664 68.1745Z" fill="white"/>
<path d="M268.621 130.602L270.383 131.508L272.759 128.992L273.303 133.068L270.14 139.443L272.188 139.52L276.139 134.963L278.982 130.469L279.121 126.526L278.494 123.209L273.77 122.359L268.621 130.602Z" fill="#B06D55"/>
<path opacity="0.6" d="M262.479 117.677L242.74 116.932L224.291 114.695L262.737 116.312L262.479 117.677Z" fill="#19132E"/>
<path d="M270.346 111.561L268.416 96.4137L261.832 83.6704L262.222 81.9355L269.566 96.372L270.346 111.561Z" fill="#ED971B"/>
<path d="M226.614 78.4023L226.551 80.1721L217.521 93.6819L226.614 78.4023Z" fill="#ED971B"/>
<path d="M212.873 125.969L210.957 126.568L209.139 123.704L207.78 127.62L209.578 134.413L207.55 134.141L204.61 129.013L202.729 124.122L203.397 120.221L204.7 117.071L209.508 117.016L212.873 125.969Z" fill="#B06D55"/>
<path d="M191.322 131.382V154.082H222.544V131.382H215.778V124.951H198.094V131.382H191.329H191.322ZM214.371 131.382H199.488V125.968H214.371V131.382Z" fill="#314572"/>
<path d="M55.2852 25.8842V32.8099H56.7834V25.8842C56.7834 25.3826 56.4488 24.9785 56.0377 24.9785C55.6266 24.9785 55.292 25.3826 55.292 25.8842H55.2852Z" fill="#E5803C"/>
<path d="M55.2861 56.1521C55.2861 56.6538 55.6208 57.0578 56.0318 57.0578C56.4429 57.0578 56.7776 56.6538 56.7776 56.1521V49.6445H55.2793V56.1521H55.2861Z" fill="#E5803C"/>
<path d="M40 41.0181C40 41.4291 40.404 41.7636 40.9056 41.7636H47.8308V40.2656H40.9056C40.404 40.2656 40 40.6 40 41.0111V41.0181Z" fill="#E5803C"/>
<path d="M71.1715 40.2734H64.6641V41.7714H71.1715C71.6732 41.7714 72.0778 41.437 72.0778 41.0259C72.0778 40.6148 71.6732 40.2804 71.1715 40.2804V40.2734Z" fill="#E5803C"/>
<path d="M44.8064 30.8441L49.7047 35.7422L50.7634 34.6832L45.8658 29.7851C45.5105 29.4297 44.9874 29.381 44.6948 29.6736C44.4022 29.9663 44.4511 30.4888 44.8064 30.8441Z" fill="#E5803C"/>
<path d="M66.2085 52.2485C66.5639 52.6038 67.0869 52.6526 67.3795 52.36C67.6722 52.0673 67.6233 51.5448 67.2679 51.1895L62.6622 46.584L61.6035 47.643L66.2085 52.2485Z" fill="#E5803C"/>
<path d="M44.6948 52.3596C44.9874 52.6522 45.5105 52.6034 45.8658 52.2481L50.7634 47.3501L49.7047 46.291L44.8064 51.1891C44.4511 51.5444 44.4022 52.067 44.6948 52.3596Z" fill="#E5803C"/>
<path d="M66.2085 29.7848L61.6035 34.3903L62.6622 35.4493L67.2679 30.8439C67.6233 30.4885 67.6722 29.966 67.3795 29.6734C67.0869 29.3808 66.5639 29.4295 66.2085 29.7848Z" fill="#E5803C"/>
<path d="M328.074 102.671C334.916 102.671 340.461 97.1243 340.461 90.2826C340.461 83.4409 334.916 77.8945 328.074 77.8945C321.232 77.8945 315.686 83.4409 315.686 90.2826C315.686 97.1243 321.232 102.671 328.074 102.671Z" fill="#EAF0F9"/>
</svg>
