<svg width="195" height="146" viewBox="0 0 195 146" fill="none" xmlns="http://www.w3.org/2000/svg">
<path d="M42.8035 102.739C42.8035 103.667 42.0491 104.42 41.1195 104.42C40.1899 104.42 39.4355 103.667 39.4355 102.739C39.4355 101.811 40.1899 101.058 41.1195 101.058C42.0491 101.058 42.8035 101.811 42.8035 102.739Z" fill="#E5803C"/>
<path d="M42.5625 106.596C42.9712 106.596 43.3023 106.266 43.3023 105.858C43.3023 105.449 42.9712 105.119 42.5625 105.119C42.1537 105.119 41.8223 105.449 41.8223 105.858C41.8223 106.266 42.1537 106.596 42.5625 106.596Z" fill="#E5803C"/>
<path d="M50.0482 103.364C50.4734 101.572 49.3633 99.7759 47.5687 99.3514C45.7741 98.9269 43.9745 100.035 43.5493 101.827C43.1241 103.618 44.2341 105.415 46.0288 105.839C47.8234 106.264 49.623 105.155 50.0482 103.364Z" fill="#E5803C"/>
<path d="M80.1484 107.516V108.915H80.4522V107.516C80.4522 107.416 80.3843 107.334 80.3021 107.334C80.2198 107.334 80.1519 107.416 80.1519 107.516H80.1484Z" fill="#E5803C"/>
<path d="M80.149 113.634C80.149 113.734 80.2169 113.816 80.2991 113.816C80.3814 113.816 80.4493 113.734 80.4493 113.634V112.317H80.1455V113.634H80.149Z" fill="#E5803C"/>
<path d="M77.0527 110.575C77.0527 110.657 77.1349 110.725 77.235 110.725H78.6365V110.422H77.235C77.1349 110.422 77.0527 110.489 77.0527 110.572V110.575Z" fill="#E5803C"/>
<path d="M83.3673 110.422H82.0479V110.725H83.3673C83.4674 110.725 83.5496 110.657 83.5496 110.575C83.5496 110.493 83.4674 110.425 83.3673 110.425V110.422Z" fill="#E5803C"/>
<path d="M78.0263 108.52L79.0169 109.508L79.2312 109.294L78.241 108.305C78.1695 108.234 78.0622 108.223 78.005 108.284C77.9478 108.345 77.9548 108.448 78.0263 108.52Z" fill="#E5803C"/>
<path d="M82.3636 112.846C82.4351 112.917 82.5424 112.928 82.5996 112.867C82.6569 112.807 82.6499 112.703 82.5783 112.632L81.645 111.7L81.4307 111.914L82.3636 112.846Z" fill="#E5803C"/>
<path d="M78.0045 112.867C78.0653 112.927 78.169 112.917 78.2406 112.845L79.2308 111.856L79.0164 111.642L78.0258 112.631C77.9543 112.702 77.9437 112.809 78.0045 112.867Z" fill="#E5803C"/>
<path d="M82.3636 108.305L81.4307 109.236L81.645 109.451L82.5783 108.519C82.6499 108.448 82.6604 108.341 82.5996 108.283C82.5389 108.226 82.4351 108.233 82.3636 108.305Z" fill="#E5803C"/>
<path opacity="0.3" d="M129.382 121.962C145.42 121.962 158.421 119.686 158.421 116.879C158.421 114.072 145.42 111.796 129.382 111.796C113.344 111.796 100.343 114.072 100.343 116.879C100.343 119.686 113.344 121.962 129.382 121.962Z" fill="#C7D0DD"/>
<path opacity="0.3" d="M59.6489 122.843C75.6868 122.843 88.688 120.568 88.688 117.761C88.688 114.954 75.6868 112.678 59.6489 112.678C43.6109 112.678 30.6094 114.954 30.6094 117.761C30.6094 120.568 43.6109 122.843 59.6489 122.843Z" fill="#C7D0DD"/>
<path d="M44.9799 108.501L45.6698 105.656C45.348 105.62 45.0299 105.567 44.7117 105.488C44.204 105.363 43.7179 105.178 43.246 104.946L42.5557 107.794C43.0276 108.022 43.5177 108.204 44.0218 108.329C44.3364 108.408 44.6545 108.465 44.9799 108.501Z" fill="#55B6CA"/>
<path d="M69.0445 73.9148L68.7013 72.5549C67.9969 72.7798 67.2785 72.9797 66.5456 73.1546C66.0915 73.2652 65.6338 73.3616 65.1797 73.4472L65.5229 74.8072C65.9806 74.7179 66.4347 74.6215 66.8888 74.5109C67.6182 74.336 68.3366 74.1361 69.0445 73.9148Z" fill="#314572"/>
<path d="M56.2045 22.4741C56.2045 22.4741 53.7017 19.301 54.4311 15.6532C54.8172 13.7294 59.6222 12.3088 61.2669 12.3088C62.9116 12.3088 62.6971 14.5361 62.6971 14.5361C62.6971 14.5361 65.7399 18.4587 65.983 19.1476L64.4383 20.2255C64.4383 20.2255 66.2475 23.5056 65.2428 24.0017C64.6493 24.2944 61.7568 24.5371 61.7568 24.5371L61.342 29.3914L56.3581 27.8458L56.1971 22.4741H56.2045Z" fill="#CF8E5A"/>
<path d="M58.9447 14.572C58.8411 13.4227 61.3188 14.2151 62.5344 13.851C63.3067 13.619 62.5596 12.3091 61.5907 11.8701C59.7923 11.0598 57.1965 12.8266 57.1965 12.8266C57.1965 12.8266 54.5471 14.0795 54.1288 15.8213C53.7105 17.5631 55.1763 22.196 55.1763 22.196C55.1763 22.196 54.1896 21.7105 55.9772 21.2751C57.7614 20.836 56.9248 18.8373 57.883 18.7409C58.8412 18.6445 60.325 20.3899 60.325 20.3899L61.4583 20.1186C61.4583 20.1186 59.052 15.7177 58.9447 14.5684V14.572Z" fill="#0F343D"/>
<path d="M57.5361 21.1716L59.6349 24.798L61.5511 25.1906L61.7623 24.5374L59.7491 24.3304L57.7648 21.1716H57.5361Z" fill="#D3AF94"/>
<path d="M65.1802 18.4515L63.3496 15.3855L65.9847 19.1511L65.7378 19.4045L65.1802 18.4515Z" fill="#CF8E5A"/>
<path d="M69.863 113.937L63.8672 115.675L62.1867 96.4048L62.8623 90.0872L60.1703 70.0565L54.7821 88.8772L45.0856 115.686H39.1611L43.6876 98.582L47.7138 86.1217L49.3978 63.1892L62.119 62.3683L69.459 61.5759L69.863 113.937Z" fill="#314572"/>
<path d="M88.448 35.252L78.2365 38.9712C78.2365 38.9712 77.8075 40.0455 76.9995 38.8891C76.4882 38.1574 72.5448 33.8493 69.7024 30.769L67.1316 27.6994L66.8383 27.678C66.7882 27.6245 66.7632 27.5959 66.7632 27.5959L66.7705 27.6709L63.2559 27.4139L61.5073 42.4262L54.507 26.4966L46.2264 32.4287L43.9988 36.3335L43.459 44.8033L49.4586 40.0455L50.2665 50.0002L49.1223 63.9239L70.6675 62.514L68.2471 40.2097L70.0132 41.3483L77.5358 47.3554C77.5358 47.3554 78.8837 47.3554 79.3235 46.77C79.7632 46.1846 90.1285 40.638 90.1285 40.638L88.4445 35.2484L88.448 35.252Z" fill="#729EDB"/>
<path d="M63.3992 89.0122L62.8346 96.0686L64.0717 115.071L62.1587 95.7296L62.7843 89.08L60.1709 70.0559L60.9108 67.436L63.3992 89.0122Z" fill="#314572"/>
<path d="M51.4812 90.1545L49.4609 92.3068" stroke="#3E2B68" stroke-width="0.561327" stroke-miterlimit="10"/>
<path d="M79.2914 118.777H67.7109L66.8349 117.97L66.0947 118.777H64.0713V115.072L69.8275 114.305L72.6913 116.864L79.2914 118.299V118.777Z" fill="#19132E"/>
<path d="M44.8171 119.249L39.0466 118.963L38.8926 117.432L39.7009 115.687L44.8171 115.886V119.249Z" fill="#19132E"/>
<path d="M61.5144 42.4332L54.7139 26.7035L55.5756 26.5857L60.1702 29.0556L62.1188 27.0176L63.2627 27.4209L61.5144 42.4332Z" fill="#729EDB"/>
<path d="M60.5757 31.0725L62.1595 36.8689L61.516 42.4334L59.0918 36.9153L59.9678 31.2081L59.0918 30.2658L60.1002 28.988L61.1798 30.198L60.5757 31.0725Z" fill="#729EDB"/>
<path d="M52.8975 29.5947L61.514 42.4333L54.5134 26.5037L53.0975 28.3847L54.417 28.4489L52.8975 29.5947Z" fill="#729EDB"/>
<path d="M65.4189 28.4527L61.5146 42.4334L63.2629 27.4211L65.4189 28.4527Z" fill="#729EDB"/>
<path d="M49.3302 64.1306L59.6307 63.7273L69.2594 62.5173L49.1943 63.3918L49.3302 64.1306Z" fill="#29667D"/>
<path d="M62.0327 62.372L62.2041 62.3649L61.6001 42.4449L65.5044 28.6782L65.3364 28.6318L61.4248 42.4234V42.4377L62.0327 62.372Z" fill="#729EDB"/>
<path d="M49.0586 35.7126L49.4626 40.0136" stroke="#382B66" stroke-width="0.561327" stroke-miterlimit="10"/>
<path d="M67.7539 33.9387L68.2508 40.2135" stroke="#25596B" stroke-width="0.561327" stroke-miterlimit="10"/>
<path d="M92.8282 32.9893L93.5897 33.7245L92.5457 35.32L94.884 34.9273L96.3536 36.0338L96.2925 36.9654L94.2761 38.1896L92.1096 38.8999L90.1753 39.1248L89.0098 36.9012L92.8282 32.9893Z" fill="#CF8E5A"/>
<path d="M50.6376 89.6831L47.4805 92.9062" stroke="#3E2B68" stroke-width="0.561327" stroke-miterlimit="10"/>
<path d="M68.6511 89.0808L66.6309 91.2295" stroke="#3E2B68" stroke-width="0.561327" stroke-miterlimit="10"/>
<path d="M68.0479 39.0715L68.1159 40.0352L77.5408 47.3593L68.0479 39.0715Z" fill="#729EDB"/>
<path d="M44.9546 43.6194L49.3991 40.2144L49.1952 39.2756L44.3506 43.598L44.9546 43.6194Z" fill="#729EDB"/>
<path d="M44.3999 48.0594L50.1136 42.1737L48.998 30.3987L45.8874 32.6295L38.4971 46.3319L39.7914 63.4108L44.3821 62.4863L44.3999 48.0594Z" fill="#729EDB"/>
<path d="M45.7336 67.1619L44.8467 67.633L43.6526 66.3231L43.381 68.4468L44.9717 71.777L43.9421 71.8127L41.9578 69.4391L40.5241 67.0941L40.4561 65.0382L40.7706 63.3071L43.1484 62.8645L45.7336 67.1619Z" fill="#CF8E5A"/>
<path d="M124.979 15.3606H124.021V13.6188H122.462V12.6336H124.021V10.8918H124.979V12.6336H126.538V13.6188H124.979V15.3606Z" fill="#FCFCFD"/>
<path d="M118.065 72.9308H116.72V70.4894H114.532V69.1081H116.72V66.6667H118.065V69.1081H120.253V70.4894H118.065V72.9308Z" fill="#FCFCFD"/>
<path d="M127.666 22.7065C127.666 22.7065 130.444 19.3229 129.629 15.4324C129.2 13.3801 123.872 11.8667 122.049 11.8667C120.226 11.8667 119.972 14.2438 119.972 14.2438C119.972 14.2438 118.313 18.1593 118.041 18.8946L118.534 20.3116C118.534 20.3116 116.529 23.8095 117.64 24.3377C118.298 24.6482 121.502 24.9088 121.502 24.9088L121.96 30.0842L127.484 28.4352L127.662 22.7065H127.666Z" fill="#B06D55"/>
<path d="M124.133 15.6966C124.247 14.4688 121.991 13.8977 120.643 13.5122C119.789 13.2659 120.615 11.8668 121.687 11.4028C123.683 10.5391 126.561 12.4236 126.561 12.4236C126.561 12.4236 129.496 13.7585 129.961 15.6181C130.426 17.4777 128.799 22.4176 128.799 22.4176C128.799 22.4176 129.889 21.9 127.912 21.436C125.932 20.9684 128.338 18.8376 127.276 18.734C126.214 18.6305 125.553 20.4937 125.553 20.4937L124.541 19.969C124.541 19.969 124.012 16.928 124.129 15.7038L124.133 15.6966Z" fill="#314572"/>
<path d="M126.626 22.3032L124.563 25.7368L122.675 26.1081L122.472 25.4906L124.449 25.2943L126.401 22.3032H126.626Z" fill="#633629"/>
<path d="M114.503 113.181L120.399 114.826L122.05 93.4713L121.389 87.4964L124.038 68.5507L129.333 86.3506L141.25 114.837H147.075L141.633 95.5343L136.284 83.7451L134.629 59.3956L122.118 58.6175L114.903 57.8679L114.503 113.181Z" fill="#314572"/>
<path d="M103.897 59.5199C103.897 59.5199 107.67 43.469 108.467 42.3732C108.967 41.6808 111.871 34.296 114.663 31.387L117.191 28.4816L117.477 28.4602C117.523 28.4102 117.552 28.3817 117.552 28.3817L117.545 28.4531L120.999 28.2104L122.718 36.4304L129.601 27.343C129.601 27.343 134.943 29.5988 137.742 32.9539C140.542 36.309 143.566 44.5183 143.766 47.6878C143.967 50.8573 143.967 62.8215 143.967 62.8215L139.283 62.461L137.746 49.3832L134.37 42.855L133.773 49.5724L134.9 60.0839L113.715 58.749L116.097 40.3102L116.147 41.3881L111.631 47.9841L108.867 59.9804L103.901 59.5128L103.897 59.5199Z" fill="#ED971B"/>
<path d="M120.858 86.4794L121.412 93.1574L120.2 114.255L122.077 92.8327L121.462 86.5436L124.037 68.551L123.307 66.0703L120.858 86.4794Z" fill="#314572"/>
<path d="M105.234 117.76H116.622L117.484 116.996L118.209 117.76H120.201V114.255L114.541 113.53L111.723 115.95L105.234 117.307V117.76Z" fill="#19132E"/>
<path d="M141.514 118.205L147.188 117.938L147.338 116.489L146.544 114.836L141.514 115.025V118.205Z" fill="#19132E"/>
<path d="M122.986 34.9246L129.401 27.5398L128.553 27.4292L124.038 29.767L122.118 27.8361L120.995 28.218L122.986 34.9246Z" fill="white"/>
<path d="M137.847 66.9048L138.751 67.3688L139.97 66.0803L140.249 68.1683L138.626 71.4342L139.677 71.4735L141.705 69.1392L143.163 66.837L143.235 64.8168L142.913 63.1179L140.489 62.6824L137.847 66.9048Z" fill="#B06D55"/>
<path opacity="0.6" d="M134.694 60.284L124.565 59.9021L115.098 58.7563L134.826 59.5844L134.694 60.284Z" fill="#19132E"/>
<path d="M138.731 57.1506L137.741 49.391L134.362 42.8629L134.562 41.9741L138.331 49.3696L138.731 57.1506Z" fill="#ED971B"/>
<path d="M116.29 40.1641L116.258 41.0707L111.624 47.9915L116.29 40.1641Z" fill="#ED971B"/>
<path d="M109.239 64.5316L108.256 64.8385L107.323 63.3715L106.625 65.3775L107.548 68.8575L106.507 68.7183L104.999 66.0913L104.033 63.5857L104.376 61.5869L105.045 59.9736L107.512 59.9451L109.239 64.5316Z" fill="#B06D55"/>
<path d="M98.1797 67.3047V78.9333H114.201V67.3047H110.729V64.0103H101.655V67.3047H98.1832H98.1797ZM110.007 67.3047H102.37V64.5314H110.007V67.3047Z" fill="#314572"/>
<path d="M28.3701 13.2601V16.808H29.139V13.2601C29.139 13.0031 28.9672 12.7961 28.7563 12.7961C28.5453 12.7961 28.3736 13.0031 28.3736 13.2601H28.3701Z" fill="#E5803C"/>
<path d="M28.3707 28.7659C28.3707 29.0228 28.5424 29.2298 28.7534 29.2298C28.9643 29.2298 29.136 29.0228 29.136 28.7659V25.4321H28.3672V28.7659H28.3707Z" fill="#E5803C"/>
<path d="M20.5264 21.0129C20.5264 21.2235 20.7337 21.3948 20.9911 21.3948H24.5448V20.6274H20.9911C20.7337 20.6274 20.5264 20.7987 20.5264 21.0093V21.0129Z" fill="#E5803C"/>
<path d="M36.522 20.6313H33.1826V21.3987H36.522C36.7794 21.3987 36.987 21.2274 36.987 21.0168C36.987 20.8062 36.7794 20.6349 36.522 20.6349V20.6313Z" fill="#E5803C"/>
<path d="M22.9931 15.8012L25.5067 18.3104L26.05 17.7679L23.5368 15.2587C23.3544 15.0766 23.086 15.0517 22.9359 15.2016C22.7857 15.3515 22.8108 15.6192 22.9931 15.8012Z" fill="#E5803C"/>
<path d="M33.9754 26.7661C34.1578 26.9481 34.4261 26.9731 34.5763 26.8232C34.7265 26.6733 34.7014 26.4056 34.519 26.2236L32.1556 23.8643L31.6123 24.4068L33.9754 26.7661Z" fill="#E5803C"/>
<path d="M22.9359 26.8232C23.086 26.9731 23.3544 26.9481 23.5368 26.766L26.05 24.2569L25.5067 23.7144L22.9931 26.2236C22.8108 26.4056 22.7857 26.6733 22.9359 26.8232Z" fill="#E5803C"/>
<path d="M33.9754 15.2584L31.6123 17.6177L32.1556 18.1602L34.519 15.801C34.7014 15.6189 34.7265 15.3513 34.5763 15.2014C34.4261 15.0514 34.1578 15.0764 33.9754 15.2584Z" fill="#E5803C"/>
</svg>
