<svg width="280" height="194" fill="none" xmlns="http://www.w3.org/2000/svg"><g clip-path="url(#clip0_248_65123)"><path d="M90.985 76.05l9.841 5.678 9.842-5.678-9.842-5.68-9.84 5.68z" fill="#91B1B3"/><path d="M100.826 81.728l-9.84-5.678v18.436l9.84 5.678V81.728z" fill="#BFD4D5"/><path d="M100.826 81.728l9.843-5.678v18.436l-9.843 5.678V81.728z" fill="#91B1B3"/><path d="M93.129 77.286l7.696 4.442 7.699-4.442-7.699-4.441-7.696 4.441z" fill="#4B3800"/><path d="M100.486 37.934l-.022.024c-.621.824-.447 1.852-.473 2.84a731.46 731.46 0 00-.046 36.409c.42-.036.75-.4.882-.8s.104-.831.077-1.25c-.11-1.697-.189-3.395-.247-5.094-.187-5.482-.136-10.97-.052-16.453.042-2.743.094-5.487.127-8.23.016-1.373.029-2.744.034-4.116.002-.713-.009-1.427 0-2.14 0 .023-.08-1.35-.282-1.188l.002-.002z" fill="#8CBCA2"/><path d="M99.223 31.6c-.62-2.215-1.89-4.2-2.59-6.393-.69-2.16-.795-4.438-.694-6.687.051-1.14-.33-5.168.772-5.718.481 2.762.969 5.54 1.946 8.169.577 1.55 1.32 3.04 1.83 4.615 1.245 3.84 1.038 7.982.737 12.006-.064.87-.363 1.985-1.235 2.047-.462-2.674-.024-5.383-.766-8.04v.002zM88.744 59.301c-.988-.566-1.802-1.617-2.046-2.528-.29-1.082-.238-2.223-.315-3.34a14.323 14.323 0 00-.559-3.106c-.287-.973-.678-2.024-.296-2.966.725.167 1.198.84 1.78 1.303.356.282.765.492 1.168.703 1.484.778 2.948 1.62 4.226 2.707 1.277 1.086 2.364 2.436 2.94 4.009.192.52.325 1.08.241 1.628-.084.548-.427 1.083-.95 1.27-1.154.412-2.072-.731-3.126.003-.317.222-.612.491-.978.615-.696.237-1.43.076-2.085-.3v.002z" fill="#8CBCB5"/><path d="M95.152 63.358c2.237 3.209 4.537 6.568 5.129 10.434.171 1.108.202 2.262.665 3.282l.559.006c-.099-2.678-.491-5.383-1.58-7.832-.899-2.022-2.244-3.81-3.576-5.577l-3.56-4.72c-.212-.282-.448-.604-.787-.73.12.96.665 1.58 1.215 2.366l1.935 2.774v-.003z" fill="#8CBCB5"/><path d="M96.224 55.758a123.34 123.34 0 011.44 8.143c.54 3.779.915 7.601 1.349 11.409.071.62.148 1.27.322 1.793.174.524.233.643.662.586.194-.025.255-.412.288-.654.155-1.166-.134-2.558-.306-3.903-.627-4.941-1.29-9.925-2.34-14.606a70.457 70.457 0 00-3.04-9.997 15.858 15.858 0 00-.142-.353 11.152 11.152 0 00-.575-1.21 4.585 4.585 0 00-.32-.497 2.722 2.722 0 00-.166-.198c-.04-.044-.112-.154-.148-.106-.019.024-.026.083-.024.141.005.143.062.311.093.438.048.181.101.353.165.502.105.243.222.456.32.721.094.26.203.493.301.75.206.536.398 1.104.596 1.659a42.097 42.097 0 011.528 5.383h-.003z" fill="#8CBCA2"/><path d="M89.137 44.877c-1.002-.379-2.087-.622-2.933-1.28-.886-.69-1.399-1.758-1.708-2.839a10.663 10.663 0 01-.182-5.113c.495-2.343 1.998-4.656 1.822-7.103-.048-.661-.196-1.38.154-1.943.029-.046.63 1.696.68 1.857.22.705.538 1.443.833 2.125 1.034 2.393 2.815 4.276 3.9 6.642.566 1.237.592 2.226 1.435 3.343.965 1.28 1.198 2.952 1.385 4.546.079.672.156 1.35.08 2.022-.234 2.088-1.407.362-2.152-.288a10.947 10.947 0 00-3.314-1.969z" fill="#508B82"/><path d="M101.032 66.964c.059 3.694.123 7.386.194 11.08-.205.149-.405-.2-.423-.452-.262-3.476-.18-6.967-.097-10.453l.077-3.249c.055-2.295-.077-5.346 1.132-7.388.033.571-.198 1.172-.322 1.727-.215.947-.35 1.909-.438 2.876-.178 1.948-.151 3.908-.121 5.86l-.002-.001z" fill="#8CBCA2"/><path d="M103.586 53.053a21.654 21.654 0 01-.791 2.54c-.228.61-.426 1.691-1.038 2.013-.064-.483-.106-.97-.183-1.454-.038-.242-.088-.489-.223-.692-.136-.203-.347-.345-.554-.478-1.389-.91-2.67-1.65-3.023-3.414-.204-1.015.05-2.147.787-2.874.479-.47 1.131-.76 1.523-1.302.33-.456.431-1.031.596-1.568a6.535 6.535 0 011.306-2.355c.164-.187.422-.381.636-.253.107.062.158.185.196.302.275.83.209 1.731.363 2.592.114.63.347 1.233.502 1.853.422 1.662.297 3.423-.099 5.092l.002-.002z" fill="#FEE4CE"/><path d="M107.951 56.05c-.649 1.799-1.928 3.291-2.846 4.969-1.142 2.09-1.704 4.44-2.256 6.756-.225.947-.451 1.898-.562 2.865-.118 1.022-.108 2.053-.097 3.08.011 1.07.022 2.142.031 3.211.003.284-.396.365-.675.306-.278-.059-.471-.33-.527-.61-.057-.278-.004-.566.049-.846.304-1.645.574-3.297.717-4.962.082-.961.124-1.93.285-2.882.185-1.083.523-2.132.887-3.167 1.215-3.454 2.758-6.846 5.082-9.676.013.298.013.674-.088.954v.002z" fill="#8CBCB5"/><path d="M105.107 50.374c-.571-1.01-1.163-2.092-1.108-3.25.058-1.219.833-2.303 1.783-3.069.949-.765 2.072-1.276 3.135-1.871a21.721 21.721 0 007.134-6.44c-.625 2.57 0 5.304-.526 7.896-.997 4.908-5.78 8.144-7.7 12.77.647-1.558-2.021-4.805-2.719-6.036h.001z" fill="#508B82"/><path d="M103.645 69.332a18.43 18.43 0 00-.701 3.096c-.198 1.435-.228 2.888-.317 4.335-.015.236-.035.481-.162.681-.126.2-.394.331-.604.225a.566.566 0 01-.22-.227c-.26-.441-.222-.992-.173-1.503.182-1.878.393-3.773 1.018-5.554.48-1.368 1.238-2.665 2.127-3.804.035-.046.072-.09.11-.135.141-.167.293-.324.464-.462a2.153 2.153 0 01.421-.265c.037-.017.099-.059.139-.04.021.008.033.03.037.052.007.055-.033.12-.055.167a.713.713 0 01-.119.19c-.083.094-.18.175-.251.275-.072.1-.158.189-.233.286-.156.205-.297.42-.443.632a7.734 7.734 0 00-1.038 2.048v.003z" fill="#8CBCA2"/><path d="M120.847 55.323a5.837 5.837 0 00-.94-.193c-3.925-.542-8.471-.293-11.832 1.997-1.626 1.106-3.282 2.452-3.889 4.401-.566 1.822-.194 3.507 1.177 4.832.722-.841 1.561-1.213 2.377-1.903.797-.674 1.412-1.537 2.184-2.238a33.084 33.084 0 015.105-3.805 44.541 44.541 0 013.627-1.946c.539-.262 2.344-1.185 2.846-.841a2.465 2.465 0 00-.655-.308v.004z" fill="#508B82"/><path d="M199.631 174.524c-.23 2.688-6.259 5.139-12.974 8.379-6.967 3.361-12.466 7.343-16.863 6.582-2.008-.086 22.242-16.787 29.837-14.961z" fill="#91B1B3"/><path d="M175.296 170.542c-11.404 3.868-16.801 11.676-9.377 17.055 7.423 5.381 10.029-1.192 18.677-5.665 8.649-4.472 20.522-5.846 12.644-10.535-7.423-4.415-15.961-2.884-21.944-.857v.002z" fill="#EBF1F1"/><path d="M248.774 156.906c7.209 0 13.054 3.248 13.054 7.255l-2.415 25.05c0 2.646-4.827 4.791-10.782 4.791-5.956 0-10.783-2.145-10.783-4.791l-2.127-25.05c0-4.005 5.845-7.255 13.054-7.255h-.001z" fill="#2A424B"/><path d="M260.394 168.875l3.745 1.704a4.641 4.641 0 012.305 6.148l-7.549 11.123 1.947-3.513 3.207-5.238a4.64 4.64 0 00-2.305-6.149l-2.642-1.201 1.29-2.874h.002z" fill="#2A424B"/><path d="M248.774 171.328c7.197 0 13.031-3.229 13.031-7.211s-5.834-7.211-13.031-7.211c-7.197 0-13.031 3.229-13.031 7.211s5.834 7.211 13.031 7.211z" fill="#BFD4D5"/><mask id="mask0_248_65123" style="mask-type:luminance" maskUnits="userSpaceOnUse" x="235" y="156" width="27" height="16"><path d="M248.774 171.328c7.197 0 13.031-3.228 13.031-7.211 0-3.982-5.834-7.21-13.031-7.21-7.197 0-13.031 3.228-13.031 7.21 0 3.983 5.834 7.211 13.031 7.211z" fill="#fff"/></mask><g mask="url(#mask0_248_65123)"><path d="M248.774 177.831c7.197 0 13.031-3.228 13.031-7.21 0-3.983-5.834-7.211-13.031-7.211-7.197 0-13.031 3.228-13.031 7.211 0 3.982 5.834 7.21 13.031 7.21z" fill="#5C2C00"/></g><path d="M243.89 150.855c-1.114 1.619-1.856 4.421 2.033 7.593 3.888 3.172 2.42 7.035 2.42 7.035s2.148-4.17-.324-7.989c-2.958-4.568-1.187-9.165-1.187-9.165s-2.089 1.289-2.94 2.526h-.002zm10.414-7.872c.847 1.328 1.363 3.591-1.838 6.024-3.201 2.432-2.133 5.566-2.133 5.566s-1.604-3.4.482-6.389c2.496-3.577 1.206-7.306 1.206-7.306s1.638 1.09 2.283 2.105z" fill="#EBF1F1"/><path d="M194.958 142.911c.358-.209.539-.476.539-.729v-2.384c.009.262-.176.538-.55.754l.009 2.361" fill="#BFD4D5"/><path d="M120.539 128.73l47.687 27.516c.579.334 1.591.27 2.262-.144l24.464-15.508c.67-.414.745-1.02.166-1.353l-47.687-27.517c-.579-.333-1.591-.269-2.261.145l-24.464 15.507c-.451.297-.315 1.251-.167 1.354z" fill="#EBF1F1"/><path d="M124.572 128.044l3.183 1.837 3.693-2.278-3.185-1.837-3.691 2.278zm4.265-2.631l3.183 1.837 3.691-2.279-3.183-1.837-3.691 2.279zm4.263-2.632l3.185 1.837 3.69-2.279-3.183-1.837-3.692 2.279zm4.263-2.632l3.185 1.837 3.691-2.279-3.185-1.837-3.691 2.279zm4.265-2.632l3.183 1.837 3.693-2.278-3.185-1.837-3.691 2.278zm-13.378 12.65l3.183 1.837 3.693-2.278-3.185-1.837-3.691 2.278zm4.265-2.632l3.183 1.837 3.69-2.278-3.183-1.837-3.69 2.278zm4.262-2.632l3.185 1.837 3.691-2.278-3.183-1.837-3.693 2.278zm4.264-2.631l3.185 1.837 3.691-2.279-3.185-1.837-3.691 2.279zm4.265-2.633l3.183 1.837 3.692-2.278-3.185-1.839-3.69 2.28zm-13.377 12.651l3.183 1.837 3.692-2.279-3.185-1.837-3.69 2.279zm4.263-2.632l3.183 1.837 3.691-2.278-3.183-1.837-3.691 2.278zm4.263-2.634l3.185 1.839 3.691-2.278-3.183-1.839-3.693 2.278zm4.265-2.632l3.185 1.837 3.69-2.278-3.185-1.837-3.69 2.278zm4.263-2.631l3.183 1.837 3.693-2.279-3.185-1.837-3.691 2.279zm-13.377 12.65l3.184 1.839 3.692-2.281-3.185-1.837-3.691 2.279zm4.264-2.632l3.183 1.837 3.691-2.279-3.183-1.837-3.691 2.279zm4.262-2.632l3.185 1.837 3.69-2.278-3.183-1.837-3.692 2.278zm4.265-2.632l3.185 1.837 3.691-2.278-3.185-1.837-3.691 2.278zm4.264-2.632l3.183 1.837 3.693-2.278-3.185-1.837-3.691 2.278zm-9.113 10.019l3.183 1.837 3.691-2.279-3.183-1.837-3.691 2.279zm4.263-2.632l3.184 1.837 3.691-2.279-3.183-1.837-3.692 2.279zm4.263-2.632l3.185 1.837 3.691-2.279-3.185-1.837-3.691 2.279zm4.265-2.632l3.183 1.837 3.692-2.278-3.184-1.837-3.691 2.278zm-9.112 10.018l3.183 1.837 3.69-2.278-3.183-1.837-3.69 2.278zm4.263-2.632l3.183 1.837 3.691-2.278-3.183-1.837-3.691 2.278zm4.262-2.631l3.185 1.837 3.691-2.279-3.185-1.837-3.691 2.279zm4.266-2.632l3.183 1.837 3.692-2.279-3.185-1.839-3.69 2.281zm-9.114 10.018l3.183 1.837 3.691-2.278-3.183-1.837-3.691 2.278zm4.264-2.634l3.183 1.839 3.691-2.278-3.183-1.839-3.691 2.278zm4.263-2.632l3.185 1.839 3.69-2.28-3.185-1.837-3.69 2.278zm4.263-2.631l3.183 1.837 3.693-2.279-3.185-1.837-3.691 2.279zm-24.41 6.283l14.219 8.204 3.69-2.279-14.218-8.203-3.691 2.278zm15.298 3.735l3.183 1.837 3.691-2.278-3.183-1.837-3.691 2.278zm4.264-2.632l3.183 1.837 3.69-2.278-3.183-1.837-3.69 2.278zm4.262-2.632l3.185 1.837 3.691-2.278-3.185-1.837-3.691 2.278zm4.264-2.632l3.183 1.837 3.693-2.278-3.185-1.837-3.691 2.278zm-13.377 12.651l3.185 1.837 3.691-2.279-3.185-1.837-3.691 2.279zm4.264-2.632l3.183 1.837 3.691-2.279-3.184-1.837-3.69 2.279zm4.265-2.632l3.183 1.837 3.691-2.279-3.183-1.837-3.691 2.279zm4.262-2.632l3.185 1.837 3.691-2.279-3.185-1.837-3.691 2.279zm4.264-2.632l3.183 1.837 3.692-2.278-3.185-1.837-3.69 2.278zm-13.377 12.65l3.185 1.837 3.69-2.278-3.184-1.837-3.691 2.278zm4.264-2.632l3.183 1.837 3.69-2.278-3.183-1.837-3.69 2.278zm4.265-2.631l3.183 1.837 3.691-2.279-3.183-1.837-3.691 2.279zm4.262-2.632l3.185 1.837 3.69-2.279-3.184-1.837-3.691 2.279zm4.265-2.632l3.183 1.837 3.692-2.279-3.185-1.837-3.69 2.279zm-13.378 12.65l3.184 1.837 3.691-2.278-3.185-1.837-3.69 2.278zm4.264-2.632l3.183 1.837 3.693-2.278-3.185-1.839-3.691 2.28zm4.264-2.633l3.183 1.838 3.691-2.278-3.183-1.839-3.691 2.279zm4.263-2.632l3.185 1.839 3.69-2.281-3.185-1.837-3.69 2.279zm4.264-2.632l3.183 1.837 3.693-2.279-3.185-1.837-3.691 2.279zm-13.378 12.65l3.185 1.837 3.691-2.278-3.185-1.837-3.691 2.278zm4.265-2.632l3.183 1.837 3.693-2.278-3.185-1.837-3.691 2.278zm4.264-2.632l3.183 1.837 3.69-2.278-3.183-1.837-3.69 2.278zm4.262-2.632l3.185 1.837 3.691-2.278-3.183-1.837-3.693 2.278zm4.265-2.632l3.183 1.837 3.693-2.278-3.185-1.837-3.691 2.278zm-36.223-25.958l3.185 1.837 1.221-.752-3.185-1.839-1.221.754zm3.677 2.123l3.185 1.837 1.22-.755-3.184-1.837-1.221.755zm3.678 2.121l3.185 1.837 1.22-.753-3.185-1.837-1.22.753zm3.678 2.123l3.184 1.837 1.221-.753-3.185-1.837-1.22.753zm3.678 2.122l3.185 1.837 1.221-.752-3.185-1.839-1.221.754zm3.678 2.123l3.185 1.837 1.22-.754-3.185-1.838-1.22.755zm3.678 2.121l3.185 1.837 1.22-.753-3.185-1.837-1.22.753zm3.677 2.123l3.185 1.837 1.221-.753-3.185-1.837-1.221.753zm3.678 2.123l3.185 1.837 1.221-.753-3.185-1.839-1.221.755zm3.679 2.122l3.185 1.837 1.22-.754-3.185-1.837-1.22.754zm3.678 2.121l3.185 1.837 1.22-.753-3.185-1.837-1.22.753zm3.677 2.123l3.185 1.837 1.221-.753-3.185-1.837-1.221.753z" fill="#2A424B"/><path d="M170.555 155.944l24.403-15.403v2.37l-24.403 14.021v-.988z" fill="#BFD4D5"/><path d="M168.484 156.257v.674l-47.553-27.414v-.674l47.553 27.414z" fill="#91B1B3"/><path d="M170.555 156.924c-.639.37-1.429.37-2.069 0v-.676c.64.37 1.43.057 2.069-.311v.987z" fill="#A8C7C1"/><path d="M120.931 129.517c-.358-.209-.539-.476-.539-.729v-.828.096c-.009.262.176.584.55.798l-.009.663" fill="#8CBCB5"/><path d="M167.487 112.19l12.978-7.49 26.878 15.51-12.978 7.489-26.878-15.509z" fill="#EBF1F1"/><path d="M194.365 130.169l12.978-7.487v-2.473l-12.978 7.49v2.47z" fill="#BFD4D5"/><path d="M194.365 130.169l-26.878-15.509v-2.471l26.878 15.51v2.47z" fill="#D3E1E2"/><path d="M196.365 98.138v19.375l-2.504 1.445V99.583l2.504-1.445z" fill="#BFD4D5"/><path d="M185.184 91.687v19.376l-2.503 1.445V93.132l2.503-1.445z" fill="#8CBCB5"/><path d="M182.681 93.132l2.503-1.445 11.18 6.45-2.503 1.446-11.18-6.45z" fill="#EBF1F1"/><path d="M193.861 118.959l-11.18-6.451V93.132l11.18 6.45v19.377z" fill="#D3E1E2"/><path d="M233.027 129.733l-86.034-49.645c-1.043-.602-1.889-1.936-1.889-2.978V3.432c0-1.042.846-1.4 1.889-.799l86.034 49.645c1.043.603 1.89 1.936 1.89 2.978v73.679c0 1.042-.847 1.399-1.89.798z" fill="#2A424B"/><path d="M231.675 127.058l-83.33-48.085c-.782-.452-1.416-1.452-1.416-2.234V5.906c0-.782.634-1.05 1.416-.599l83.33 48.085c.782.452 1.416 1.452 1.416 2.235v70.834c0 .782-.634 1.049-1.416.599v-.002z" fill="#617F88"/><path d="M231.281 125.845L148.74 78.216c-.523-.3-.944-.967-.944-1.489V6.92c0-.522.423-.7.944-.4l82.541 47.63c.523.3.944.966.944 1.488v69.809c0 .522-.423.699-.944.399z" fill="#ACDFE5"/><path d="M234.915 55.257l4.204-2.341v73.819l-4.204 2.343V55.256z" fill="#BFD4D5"/><path d="M237.229 49.938c1.043.602 1.89 1.936 1.89 2.978l-4.202 2.34c0-1.042-.847-2.375-1.89-2.978l4.202-2.34z" fill="#D3E1E2"/><path d="M151.194.293l86.035 49.645-4.202 2.34-86.035-49.645 4.202-2.34z" fill="#EBF1F1"/><path d="M145.516 2.492c.346-.232.879-.203 1.477.141l4.202-2.34c-.585-.337-1.107-.374-1.454-.158l-4.225 2.357z" fill="#EBF1F1"/><path d="M234.91 129.078c-.033.401-.204.685-.466.831l.189-.102 3.933-2.055c.342-.145.553-.495.553-1.017l-4.207 2.343h-.002z" fill="#BFD4D5"/><path d="M190.628 53.062L158.15 34.32v37.482l32.478 18.742V53.062z" fill="#fff"/><path d="M190.628 53.062L158.15 34.32v2.64l32.478 18.742v-2.64z" fill="#D3E1E2"/><path d="M186.457 70.487l-8.42-4.857v6.978l8.42 4.86v-6.98z" fill="#FCC47E"/><path d="M176.456 64.758l-14.409-8.315v1.45l14.409 8.314V64.76zm0 2.342l-14.409-8.314v1.448l14.409 8.315v-1.448zm0 2.343l-14.409-8.315v1.449l14.409 8.315v-1.449zm0 4.149l-14.409-8.315v1.449l14.409 8.315v-1.449zm0 2.342l-14.409-8.315v1.449l14.409 8.315v-1.449zm0 2.343l-14.409-8.315v1.448l14.409 8.316v-1.45z" fill="#EBF1F1"/><path d="M186.457 79.317l-8.42-4.859v6.978l8.42 4.86v-6.979z" fill="#F58A8E"/><path d="M190.628 55.701L158.15 36.96v14.345l32.478 18.74V55.701z" fill="#8CDDB5"/><path d="M163.703 38.974c0 .345-.293.412-.652.149-.361-.262-.653-.755-.653-1.101s.294-.412.653-.148c.361.261.652.754.652 1.1z" fill="#8CBCB5"/><path d="M161.949 37.91c0 .344-.293.412-.652.148-.361-.261-.652-.754-.652-1.1 0-.346.293-.413.652-.149.361.262.652.755.652 1.101z" fill="#FCC47E"/><path d="M160.166 36.923c0 .344-.293.412-.652.148-.361-.262-.653-.755-.653-1.1 0-.347.294-.413.653-.149.359.264.652.755.652 1.1z" fill="#F58A8E"/><path d="M163.7 86.939V84.85c0-1.365 1.477-2.216 2.659-1.535l41.195 23.779a3.322 3.322 0 011.662 2.877v3.231L163.7 86.939z" fill="#fff"/><path d="M207.918 110.058c0 .906-.767 1.082-1.717.392-.947-.691-1.717-1.986-1.717-2.892 0-.907.768-1.083 1.717-.392.948.69 1.717 1.985 1.717 2.892z" fill="#D3E1E2"/><path d="M203.507 107.468c0 .907-.767 1.081-1.717.392-.947-.691-1.717-1.985-1.717-2.892 0-.907.768-1.081 1.717-.392.948.69 1.717 1.985 1.717 2.892z" fill="#CEF0F5"/><path d="M199.165 105.157c0 .906-.768 1.082-1.717.392-.948-.691-1.718-1.986-1.718-2.892 0-.907.768-1.081 1.718-.392.947.69 1.717 1.985 1.717 2.892z" fill="#D3E1E2"/><path d="M194.682 102.638c0 .907-.768 1.083-1.717.392-.947-.69-1.717-1.985-1.717-2.892 0-.906.768-1.082 1.717-.392.948.691 1.717 1.986 1.717 2.892z" fill="#F58A8E"/><path d="M190.13 99.768c0 .907-.767 1.083-1.717.392-.947-.69-1.717-1.985-1.717-2.892 0-.906.768-1.082 1.717-.392.948.69 1.717 1.986 1.717 2.892z" fill="#CEF0F5"/><path d="M185.645 97.158c0 .907-.768 1.083-1.717.392-.947-.69-1.717-1.985-1.717-2.892 0-.906.768-1.082 1.717-.392.947.69 1.717 1.986 1.717 2.892z" fill="#8CBCB5"/><path d="M181.093 94.569c0 .906-.768 1.08-1.717.392-.947-.69-1.717-1.986-1.717-2.892 0-.907.768-1.083 1.717-.392.948.69 1.717 1.985 1.717 2.892z" fill="#D3E1E2"/><path d="M176.471 91.91c0 .906-.768 1.082-1.717.391-.947-.69-1.717-1.985-1.717-2.892 0-.906.768-1.08 1.717-.392.948.69 1.717 1.986 1.717 2.892z" fill="#8CBCB5"/><path d="M172.058 89.459c0 .906-.768 1.082-1.717.392-.947-.69-1.717-1.986-1.717-2.892 0-.907.768-1.08 1.717-.392.947.69 1.717 1.985 1.717 2.892z" fill="#FCC47E"/><path d="M168.067 87.15c0 .906-.768 1.082-1.717.391-.948-.69-1.717-1.985-1.717-2.892 0-.906.768-1.082 1.717-.392.947.69 1.717 1.986 1.717 2.892z" fill="#D3E1E2"/><path d="M219.71 56.312L187.232 37.57v37.482l32.478 18.742V56.312z" fill="#fff"/><path d="M219.71 56.312L187.232 37.57v2.64l32.478 18.74v-2.639z" fill="#D3E1E2"/><path d="M192.785 42.224c0 .344-.293.412-.652.148-.361-.262-.653-.755-.653-1.1 0-.347.294-.413.653-.15.361.263.652.755.652 1.102z" fill="#8CBCB5"/><path d="M192.333 71.702c0 .676-.574.806-1.279.291-.708-.515-1.28-1.48-1.28-2.156 0-.675.574-.806 1.28-.29.707.514 1.279 1.479 1.279 2.155zm.04 3.954c0 .676-.574.806-1.279.291-.708-.514-1.28-1.48-1.28-2.156 0-.675.574-.805 1.28-.29.707.514 1.279 1.48 1.279 2.155z" fill="#BFD4D5"/><path d="M191.031 41.16c0 .344-.293.411-.652.148-.361-.262-.652-.755-.652-1.101s.293-.412.652-.148c.361.261.652.754.652 1.1z" fill="#FCC47E"/><path d="M189.248 40.172c0 .344-.293.412-.652.148-.361-.262-.653-.754-.653-1.1 0-.347.294-.413.653-.149.361.262.652.755.652 1.101z" fill="#F58A8E"/><path d="M209.456 56.483l-17.449-10.07a1.341 1.341 0 00-2.012 1.162v9.974c-.002.9.477 1.73 1.255 2.178l17.45 10.07a1.341 1.341 0 002.012-1.161V58.66a2.508 2.508 0 00-1.256-2.178zm8.134 4.781l-4.502-2.599a.346.346 0 00-.519.3v2.574c0 .232.123.447.325.562l4.502 2.599a.346.346 0 00.519-.3v-2.574a.646.646 0 00-.325-.562zm0 6.339l-4.502-2.6a.346.346 0 00-.519.301v2.573c0 .233.123.447.325.563l4.502 2.599a.346.346 0 00.519-.3v-2.574a.646.646 0 00-.325-.562zm0 6.339l-4.502-2.6a.346.346 0 00-.519.301v2.573c0 .233.123.447.325.563l4.502 2.599a.346.346 0 00.519-.3v-2.574a.646.646 0 00-.325-.562zm0 6.338l-4.502-2.598a.346.346 0 00-.519.3v2.573c0 .233.123.447.325.563l4.502 2.599a.346.346 0 00.519-.3v-2.574a.646.646 0 00-.325-.562zm0 6.34l-4.502-2.6a.346.346 0 00-.519.3v2.574c0 .233.123.447.325.562l4.502 2.6a.346.346 0 00.519-.301v-2.573a.646.646 0 00-.325-.563z" fill="#BFD4D5"/><path d="M201.177 57.945l-1.698-2.315v3.577l1.698-1.262z" fill="#ED5053"/><path d="M204.401 69.312l-14.409-8.315v1.448l14.409 8.315v-1.448zm0 2.342l-14.409-8.315v1.449l14.409 8.315v-1.449zm0 2.343l-14.409-8.315v1.448l14.409 8.316v-1.45z" fill="#EBF1F1"/><path d="M216.442 79.69c.004-1.574.18-3.005.502-4.281-2.996 1.28-4.751 4.831-4.423 10.07.566 9.053 7.137 19.697 14.676 23.772 3.825 2.068 7.162 2.046 9.45.343-1.257-.37-2.569-.934-3.919-1.714-9.022-5.205-16.313-17.826-16.284-28.19h-.002z" fill="#2A424B"/><path opacity=".5" d="M229.055 74.524c7.971 4.6 14.412 15.751 14.387 24.907-.026 9.156-6.509 12.848-14.481 8.247-7.971-4.599-14.412-15.75-14.387-24.907.026-9.155 6.511-12.848 14.481-8.247z" fill="#CAE0DD"/><path d="M226.35 73.887c9.023 5.207 16.313 17.826 16.284 28.189-.03 10.362-7.367 14.542-16.39 9.335-9.022-5.205-16.313-17.826-16.284-28.189.029-10.363 7.369-14.54 16.39-9.335zm-13.83 11.59c.566 9.053 7.138 19.698 14.677 23.773 7.539 4.077 13.192.042 12.626-9.011-.567-9.054-7.136-19.697-14.677-23.773-7.539-4.077-13.192-.043-12.626 9.01z" fill="#B0BEC3"/><path d="M242.347 109.964l-4.493 2.594c2.941-1.7 4.765-5.325 4.779-10.48.03-10.363-7.26-22.982-16.283-28.19-4.523-2.61-8.622-2.86-11.589-1.157l4.497-2.595c2.967-1.7 7.064-1.447 11.585 1.161 9.023 5.207 16.313 17.826 16.284 28.189-.015 5.156-1.838 8.78-4.78 10.48v-.002z" fill="#2A424B"/><path d="M243.37 101.394l11.651 6.724 2.914-1.681-11.651-6.724-2.914 1.681z" fill="#617F88"/><path d="M255.021 108.118l-11.651-6.723v3.362l11.651 6.724v-3.363z" fill="#B0BEC3"/><path d="M255.021 108.118l2.913-1.681v3.362l-2.913 1.682v-3.363z" fill="#8CBCB5"/><path d="M278.84 121.94c1.362-2.001 1.567-4.235.458-4.988-1.108-.754-3.112.257-4.473 2.259-1.362 2.001-1.568 4.235-.459 4.989 1.109.753 3.112-.258 4.474-2.26z" fill="#617F88"/><path d="M256.546 103.81l22.739 13.121c-1.108-.753-3.111.258-4.473 2.26-1.362 2.002-1.567 4.235-.458 4.989l-22.74-13.121c-1.108-.753-.903-2.987.458-4.989 1.362-2.002 3.365-3.013 4.474-2.26z" fill="#2A424B"/><path d="M206.246 135.732l-.495-.654-.625-.439a4.697 4.697 0 01-.742-.894c-.185-.313-.328-.546-.37-.625-.065-.117-.114-.26-.026-.302.066-.033.183.085.183.085s-.273-.356-.306-.411c-.033-.055-.082-.168-.007-.219.075-.052.207.032.207.032-.112-.146-.101-.239-.042-.289.073-.062.278.066.278.066s.035-.181.326.033c.261.192.829.985.829.985.157.119.308.238.458.253a.229.229 0 00.223-.139c.022-.053.013-.257.024-.311.03-.151.189-.649.425-.565a.059.059 0 01.033.022c.01.013.01.03.01.044 0 .103-.019.211-.035.312-.033.214-.057.428-.086.644 0 .006 0 .011-.002.017a.84.84 0 00.073.496c.17.378.086.852.086.852l1.114 1.449-1.099.622-.434-1.066v.002z" fill="#F9C3C0"/><path d="M205.801 135.996l1.578-1.115 2.611 3.295s1.352 1.657.231 2.844c-1.147 1.214-2.108-1.275-2.509-1.998-.85-1.53-1.911-3.024-1.911-3.024v-.002z" fill="#B49C87"/><path d="M209.48 141.349c-.576-.051-.695-1.159-.561-1.721.26-1.101.936-2.592 1.237-3.876.39-1.661 1.103-2.216 1.93-2.474.61 1.156-.646 5.048-1.232 6.927-.179.577-.989 1.179-1.376 1.144h.002z" fill="#B49C87"/><path d="M218.366 146.227l-.258-3.639.793-7.202c.105-.621-.145-1.253-.823-1.559-1.557-.705-3.381-1.58-6.324-.425-.403.158-.553.645-.692 1.054a4.3 4.3 0 00-.229 1.536l.033.892.044 5.106c.009 1.079.062 2.143.139 3.22.033.473.009 1.205.009 1.205s.885.79 3.509.775c2.859-.014 3.797-.961 3.797-.961l.002-.002z" fill="#CCBBAD"/><path d="M214.838 134.481c.798 0 1.444-.522 1.444-1.165a.956.956 0 00-.025-.214 6.217 6.217 0 00-2.776-.183.943.943 0 00-.088.397c0 .643.646 1.165 1.444 1.165h.001z" fill="#F9C3C0"/><path d="M214.885 131.342c.515 0 .788.289.788.54l.261 1.68c-.024.291-.519.525-1.104.525-.584 0-1.04-.236-1.017-.525l.253-1.755c.02-.254.306-.463.821-.463l-.002-.002zm4.476 16.178s-.134.364-.182.52c-.051.17-.091.344-.119.518a3.901 3.901 0 00-.027.965l.005.059c.033.278.114.548.176.819.017.069.015.181.101.216.004 0 .084.018.081.007 0 .004.042.16.128.176.069.013.139-.016.168-.134 0 0 .026.105.107.125.08.02.126-.05.143-.088.016-.038.086-.322.086-.322s-.006.108.057.132c.329.124.278-.773.251-.909-.017-.084-.041-.168-.039-.255.002-.12.055-.236.097-.353a2.08 2.08 0 00.119-.799c-.012-.256-.166-.439-.155-.692l.1-.982-1.022-.08-.079 1.079.004-.002z" fill="#F9C3C0"/><path d="M218.461 165.661a.537.537 0 01.107.146c.229.411.322.768.3 1.237-.007.144-.014.293-.066.43-.086.233-.291.405-.518.506-.228.102-.466.108-.7.174-.154.044-.237.179-.365.273-.178.13-.367.247-.564.344-.514.253-1.116.414-1.688.408-.209-.002-.425-.04-.599-.157-.174-.117-.297-.326-.268-.533.039-.277.312-.449.552-.59a7.997 7.997 0 001.347-1.009c.37-.337.628-.839.828-1.297a7.656 7.656 0 011.371 0c.131.011.199.017.26.07l.003-.002zm-4.134-2.346c.031.033.059.08.092.156.188.43.245.794.177 1.26-.022.144-.044.291-.108.421-.11.221-.329.374-.566.452-.236.079-.475.061-.713.105-.157.027-.253.154-.388.236a3.889 3.889 0 01-.596.287c-.535.202-1.151.303-1.719.24-.209-.022-.419-.082-.581-.216-.161-.133-.262-.353-.212-.556.066-.272.354-.416.608-.533a8.06 8.06 0 001.441-.872c.403-.299.707-.773.951-1.209.456 0 .914.051 1.363.135.13.024.198.037.251.094z" fill="#2A424B"/><path d="M215.096 127.248c1.464.011 1.869 1.11 1.869 2.444 0 1.736-1.143 2.271-1.73 2.441-.714.209-1.603.394-2.147-.974-.325-.813-.312-2.229-.132-2.777.156-.478.678-1.145 2.142-1.134h-.002z" fill="#F9C3C0"/><path d="M213.867 128.595v.291c.057-.101.086-.212.13-.319a.53.53 0 01.206-.267l-.024.298a1.16 1.16 0 00.37-.351c.044-.066.082-.139.139-.196.05-.051.099.102.123.141a2.1 2.1 0 00.506.58c0-.093-.002-.188-.004-.282 0 .048.083.147.104.195.037.075.068.153.098.232.056.149.133.284.177.44.035-.096.066-.191.096-.288.113.28.229.57.227.872 0 .117.09.24.115.361.008.035.013.071.033.101.03.045.086.047.127.08.198.17.287.423.302.678.28-.222.713-.497.757-.883.015-.134.007-.273.051-.401.026-.079.072-.152.101-.229.037-.099.05-.205.061-.311.027-.262-.087-.484-.061-.744.002-.018.007-.042.024-.049.022-.01.044.014.062.031a.133.133 0 00.154.014c-.187-.21-.304-.474-.418-.732a1.584 1.584 0 00-.19-.348c-.129-.163-.301-.321-.508-.323-.029 0-.06.004-.088-.005a.243.243 0 01-.073-.046c-.304-.251-.627-.624-1.03-.696-.187-.033-.389-.016-.553-.112a.493.493 0 00.045.281c.011.023.019.04 0 .06-.176-.046-.329-.112-.518-.086-.213.029-.392.15-.555.282-.158.128-.334.201-.481.348a2.73 2.73 0 00-.452.625c-.099.179-.235.368-.314.553-.082.192-.033.47.004.668.022.121.053.238.101.352.031.073.077.161.121.225.062-.097.055-.172.077-.275.022-.099.128-.179.205-.234.092-.066.159-.167.258-.222a1.66 1.66 0 01-.073.13 1.44 1.44 0 00.568-.445v.006z" fill="#7B502C"/><path d="M216.04 130.358s.025-.496.45-.43c.365.055.356.291.25.705-.105.414-.358.61-.614.599-.257-.011-.088-.872-.088-.872l.002-.002z" fill="#F9C3C0"/><path d="M218.255 157.069l.271-8.798-.159-2.044s-.951.868-3.797.961c-2.34.077-3.509-.774-3.509-.774l.674 8.778.605 8.412s.337.266 1.033.249c.79-.018 1.16-.384 1.16-.384l-.267-7.414.406-7.898 1.047 8.138.837 9.302s.402.355 1.056.357a1.8 1.8 0 001.077-.342l-.432-8.543h-.002z" fill="#2A424B"/><path d="M218.129 133.851c1.497.711 1.726 1.872 1.929 3.463l.605 4.933v4.981h-1.741l-.205-5.254-.762-3.918c-1.03-3.22.174-4.205.174-4.205z" fill="#B49C87"/><path d="M125.216 81.589a.646.646 0 00-1.075-.183c-.308.348-.462.782-.363 1.701l.506 4.414 4.07 2.735.848-.559-3.722-2.745s-.033-3.227-.02-3.782c.017-.728-.099-1.237-.244-1.583v.002zm3.988 8.11s.421-.158.795-.068a.796.796 0 00.467-.018c.006 0 .009-.004.015-.006.191-.064.385-.122.575-.188.09-.031.185-.068.279-.085.015-.001.029-.005.042 0a.06.06 0 01.026.028c.117.201-.312.432-.446.485-.049.02-.238.046-.282.075a.217.217 0 00-.088.23c.039.135.174.25.31.375 0 0 .823.382 1.044.59.246.228.087.293.087.293s.154.164.108.243c-.035.062-.119.088-.272.011 0 0 .101.106.066.185-.033.077-.146.051-.201.031-.055-.02-.427-.209-.427-.209s.126.088.108.154c-.024.088-.163.066-.282.03-.079-.026-.315-.116-.634-.233a4.328 4.328 0 01-.948-.526l-.511-.496-.683-.34" fill="#F9C3C0"/><path d="M123.86 112.891c-.288-.265-.409-.672-.409-.672s.183-.088.436.073c.64.487 1.008.614 1.193.638.799.102 1.006.221 1.006.221s.35.497.338.658c-.178.029-.917.082-1.355-.141-.3-.128-.923-.513-1.211-.779l.002.002z" fill="#112C36"/><path d="M123.789 94.028s-.704 8.526-.845 9.429c-.141.903-.819 8.738-.859 10.009-.358.165-.798.213-1.113.021.141-1.935-.828-7.671-.348-10.213-.136-2.15-1.083-9.478-1.083-9.478l1.528-.86 2.722 1.09-.002.002z" fill="#F9C3C0"/><path d="M126.031 93.41s-.409 8.232-.524 9.045c-.115.813-.625 7.982-.63 9.121-.279.226-.798.293-1.109.057.092-2.414-.973-6.984-.563-9.275-.067-.677-.454-4.22-.408-5.553-.002-1.555.995-2.778.995-2.778l1.165-1.092 1.078.473-.004.001z" fill="#F9C3C0"/><path d="M125.754 91.296c-.938.148-2.906.515-5.525-.522-.297 1.064-.971 1.952-.969 2.989.003 3.145.819 5.49.863 11.517 1.31.666 3.526.587 5.521.086.202-2.021.464-6.934.665-10.303.098-1.615-.186-2.333-.553-3.77l-.002.003z" fill="#2A424B"/><path d="M123.838 111.424l-.051.129c-.101.25-.301.463-.323.734-.026.328.108.537.361.668 0 0 .403.09.509.152.213.123.708.64.708.64.234.247.713.412 1.044.371.31-.038.352-.064.501-.267.185-.255-.268-.515-.484-.657-.213-.141-.805-.74-.805-.74a1.803 1.803 0 01-.291-.519l-.152-.408-1.015-.097-.002-.006zm-2.839 1.872l-.052.126c-.099.248-.306.456-.322.722-.02.32.064.604.352.679.124.033.396-.009.517.037.251.093.817.687.817.687.253.238.674.392 1.024.346.325-.042.458-.071.609-.273.188-.251-.294-.498-.525-.635-.227-.134-.842-.713-.842-.713a1.72 1.72 0 01-.318-.502l-.17-.395-1.09-.077v-.002z" fill="#F9C3C0"/><path d="M119.724 91.635l.376-1.826-1.529-6.253c-.163-.535-.016-1.12.545-1.467 1.29-.8 2.486-1.555 5.211-.876.374.094.557 1.574.601 2.032 0 0 .605 1.379.616 1.78.031 1.133-.376 1.421-.339 2.934.022.958.596 3.201.596 3.201s.04.552-2.273.841c-2.519.315-3.804-.366-3.804-.366z" fill="#BFD4D5"/><path d="M126.087 113.153s.35.496.337.658c-.178.029-.916.082-1.354-.141-.301-.129-.924-.513-1.212-.779-.287-.265-.408-.672-.408-.672s-.317.181-.312.557c-.018.295.028.637.028.637l.485.214.02-.331s.398-.026 1.061.575c.211.19 1.225.892 2.21.447.319-.143.028-.496-.126-.663-.154-.167-.733-.502-.733-.502h.004zm-2.852 1.705s.304.29.335.381c-.172.046-.724.136-1.142-.106-.289-.139-.951-.418-1.259-.652-.307-.234-.461-.621-.461-.621s-.294.207-.253.573c-.066.165.036.581.036.581l.506.222.028-.339s.245-.116.72.443c.181.214 1.339.927 2.265.399.298-.17.024-.392-.143-.542-.167-.148-.632-.339-.632-.339z" fill="#2A424B"/><path d="M121.573 79.316c-.497.036-.739.335-.72.577l-.13 1.637c.044.278.538.47 1.103.429.564-.043.988-.303.944-.58l-.372-1.675c-.039-.245-.328-.425-.825-.388z" fill="#F0A4A8"/><path d="M121.357 75.008c-1.51.019-1.921 1.154-1.914 2.528.426 1.602 1.19 2.335 1.796 2.507.739.21 1.655.397 2.208-1.015.33-.84.31-2.298.123-2.862-.163-.491-.703-1.176-2.213-1.158z" fill="#F9C3C0"/><path d="M122.744 76.175c.015.005-.438.523-.467.55-.467.433-1.012.668-1.598.895a1.402 1.402 0 00-.354.177c-.082.065-.15.145-.209.231a1.745 1.745 0 00-.284 1.028c-.135.023-.375-.1-.467-.226a3.426 3.426 0 01-.295-.496c-.196-.396-.17-.954-.213-1.396-.073-.773.228-1.492.946-1.846 0 0 .914-1.28 3.106-.216.722.35 1.389 1.233.79 2.401 0 0-.198-.782-.958-1.106l.003.004z" fill="#7B502C"/><path d="M120.343 78.33s-.029-.51-.467-.44c-.374.058-.446.318-.336.745.11.424.453.61.717.595.264-.013.086-.9.086-.9zm-.364 4.744a.673.673 0 00-1.118-.196c-.321.36-.484.811-.387 1.767l.506 4.594 3.227 2.778.487-.73-2.466-2.632s-.018-3.356-.004-3.934c.02-.757-.097-1.286-.247-1.649l.002.002zm4.874 10.028c.152.132.156.144.308.276.134.116.22.224.381.299.136.064.286.093.425.148.094.037.182.084.264.143.05.035.099.075.127.13.027.055.029.125-.01.172-.214-.009-.584-.212-.791-.265-.49-.125-.475-.106-.726-.224" fill="#F9C3C0"/><path d="M124.69 92.83c.152.132.156.145.308.277.134.115.22.224.381.299.136.064.286.093.425.148.094.037.182.084.264.143a.372.372 0 01.126.13c.028.055.03.124-.009.172-.214-.01-.584-.212-.791-.265-.49-.125-.475-.107-.726-.224" fill="#F9C3C0"/><path d="M124.674 92.725c.108.095.113.104.221.2.096.084.16.16.275.213.097.046.206.068.306.107.068.025.132.06.191.102a.262.262 0 01.09.094c.018.038.022.09-.008.124-.154-.007-.421-.154-.57-.192-.351-.09-.342-.077-.522-.161" fill="#F9C3C0"/><path d="M123.389 91.975s.427-.075.766.077c.141.064.295.09.447.064l.015-.001c.192-.028.386-.048.579-.08.09-.014.187-.03.278-.03.015 0 .03 0 .041.009a.055.055 0 01.02.03c.075.21-.396.298-.53.323-.049.01-.101.017-.148.037a.298.298 0 00-.167.174c-.068.181.073.335.161.482.147.241.096.181.387.646a.64.64 0 00.099.127c.115.11.256.188.381.289.081.066.152.141.214.223a.36.36 0 01.083.167c.009.062-.011.132-.064.165-.207-.077-.508-.396-.695-.513-.181-.114-.357-.24-.537-.355a3.49 3.49 0 01-.397-.302c-.103-.094-.202-.195-.301-.292l-1.123-.566-.693-.633.488-.731.696.689v.001z" fill="#F9C3C0"/><path d="M145.883 165.02l.004-.004c.079-.062.304-.038.396-.022.095.019.183.059.273.099l.654.297c.027.013.055.024.079.042.033.024.06.057.086.088l.359.441c.04.052.083.125.042.176-.038.048-.113.03-.17.006a2.42 2.42 0 01-.336-.183c.039.064.024.159-.04.199-.062.041-.163.008-.179-.066.011.075-.076.138-.153.132-.077-.005-.142-.053-.203-.101.033.052 0 .127-.057.151a.226.226 0 01-.178-.015c-.055-.026-.106-.062-.163-.084-.073-.03-.146-.03-.225-.03-.095 0-.093-.02-.128-.113a1.424 1.424 0 01-.114-.493c0-.066.006-.132.011-.198.006-.082-.024-.26.042-.32v-.002z" fill="#F0A4A8"/><path d="M147.436 166.178l2.58 8.432s-.436.738-2.048.738c-1.331-2.15-2.615-6.335-2.615-6.335l2.083-2.835z" fill="#2A424B"/><path d="M107.383 172.804l21.173 12.218 21.172-12.218-21.172-12.218-21.173 12.218z" fill="#FDBB92"/><path d="M128.556 185.022l-21.173-12.218v5.059l21.173 12.218v-5.059z" fill="#FEE4CE"/><path d="M128.556 185.022l21.172-12.218v5.059l-21.172 12.218v-5.059z" fill="#FCA167"/><path d="M149.728 172.804l-21.172-12.218-21.173 12.218 13.958 8.056h14.429l13.958-8.056z" fill="#FDCA9F"/><path d="M135.771 180.859h-14.429l4.385-3.551 10.044 3.551z" fill="#FCA167"/><path d="M148.165 178.46c-.302.61-.181 1.234-.181 1.234s.068.559 1.151.429c.234-.031.483-.073.696-.181.169-.085.255-.191.456-.213.297-.033.598-.016.893-.053.276-.033.555-.11.804-.236.074-.037.145-.081.209-.13.704-.539.817-.793.618-1.11-.127-.203-.435-.341-1.635-.202-.3.035-.694.193-1.151.196a.971.971 0 01-.443-.097c-.167-.086-.414-.119-.68-.078-.37.056-.663.239-.739.441h.002z" fill="#522C00"/><path d="M148.15 178.601c-.038-.253.299-.515.755-.584.457-.07.856.08.895.333.038.253-.299.515-.755.584-.457.07-.856-.08-.895-.333z" fill="#522C00"/><path d="M145.351 169.013s-2.655 2.747-3.636 3.504c-1.184.912-1.706-4.054-1.44-3.962 2.89-2.277 5.146-2.637 6.351-2.866a.708.708 0 01.81.489l-2.083 2.835h-.002z" fill="#2A424B"/><path d="M146.446 165.604l-.297.013c-.042.002-.192-.018-.219.026.038.022.075.012.117.011.059-.004.119.005.176.005l.408.009c.088 0 .186.006.255.061.07.055.086.181.009.225-.04.024-.088.016-.133.013a1.136 1.136 0 00-.563.099c-.112.051-.216.119-.334.15-.12.031-.249.018-.373.005-.18-.02-.356-.051-.532-.08-.167-.028-.346-.006-.517-.008-.384-.005-.769-.034-1.156-.043l.138-1.068 1.552.183c.291-.086.599-.141.898-.192.133-.024.273-.043.406-.019.096.019.184.059.273.099l.655.297c.027.013.055.024.078.042a.517.517 0 01.087.088l.359.441c.04.052.082.125.042.176-.039.048-.114.029-.171.006a2.315 2.315 0 01-.335-.184c-.189-.126-.3-.309-.524-.346-.099-.016-.2-.011-.3-.007l.001-.002z" fill="#F9C3C0"/><path d="M144.485 166.26s.314-.566.132-1.199l-.388-.041s.066.628-.172 1.244c.198.038.428-.004.428-.004z" fill="#fff"/><path d="M137.267 165.771c2.867.129 6.806.63 6.806.63s.155-.459.203-.8c.044-.321.004-.727.004-.727l-5.371-1.326-1.642 2.221v.002z" fill="#004C7E"/><path d="M150.413 169.533l-.318 8.811s-.655.555-2.177.03c-.554-2.467-.402-6.841-.402-6.841l2.897-2zm-2.897 2s-3.406 1.729-4.583 2.124c-1.416.477-2.796.49-4.084-.265-1.461-.855-2.212-2.07-2.084-2.967l5.739-1.702s.142.546.363.718c3.477-1.208 5.727-.811 6.94-.635a.71.71 0 01.607.725l-2.898 2v.002z" fill="#2A424B"/><path d="M138.145 157.841s1.472-.559 2.428.337l.16.672s-1.4.839-2.857-.079c.062-.249.269-.93.269-.93z" fill="#004C7E"/><path d="M136.765 170.425c.297.694 1.837.67 2.45.678 1.072.013 2.264-.306 3.246-.74.194-.086.388-.183.533-.337.145-.154.231-.379.171-.583-.057-.192-.23-.324-.354-.481-.416-.515-.16-1.18-.147-1.779.013-.676.03-1.351-.007-2.025-.059-1.105.5-3.989.007-4.92-.738-1.392-3.918-2.203-5.842-1.947-2.155.288-1.372 5.531-.955 8.748.127.974.902 3.384.902 3.384l-.004.002z" fill="#316EA9"/><path d="M141.33 153.625c-.187-.44-.748-1.032-2.192-.914-1.442.117-1.748 1.181-1.671 2.441.044.716.337 1.317.797 1.694.128.106.18.279.139.442l-.3 1.234c.004.26.48.507 1.065.553.584.046 1.055-.126 1.051-.386l-.02-1.423c.786-.044 1.136-.301 1.34-1.134.198-.808.003-2.002-.213-2.507h.004z" fill="#F9C3C0"/><path d="M138.145 157.841s.621.855 2.428.337l.159.672s-1.603.881-2.82-.211c.062-.304.235-.798.235-.798h-.002z" fill="#EBF1F1"/><path d="M137.392 156.672c.099.077.266.077.374.158.066.049.106.128.168.183.162.143.413.179.618.159.108-.009.218.008.321-.025.172-.055.282-.242.46-.279.139-.029.304.041.417-.047.105-.081.107-.255.219-.323.047-.029.108-.031.161-.051.163-.059.049-.147-.011-.229a.902.902 0 01-.165-.355c-.077-.379-.05-.812.267-.945.156-.066.29-.006.382.13a.985.985 0 01.104.22c.006.014.017.076.029.097.002.003.004.005.008.005.053.017.025-.077.022-.093-.02-.103.091-.18.124-.279.052-.15-.082-.331.004-.463.035-.053.097-.083.13-.137.053-.088.009-.211.062-.301.048-.08.152-.101.242-.124a.543.543 0 00.228-.119c.144-.141.126-.44.054-.612-.016-.04-.036-.077-.047-.119-.018-.066-.011-.136-.02-.204a.425.425 0 00-.242-.318c-.092-.042-.15-.086-.231-.147-.251-.187-.489-.357-.81-.393-.017-.002-.035-.004-.048-.013-.016-.011-.025-.031-.036-.048-.054-.079-.163-.088-.259-.086-.095.002-.201.004-.269-.062-.04-.041-.059-.099-.099-.138-.055-.051-.138-.056-.211-.04-.071.017-.139.051-.209.075-.141.044-.291.037-.438.057-.372.051-.729.328-.945.623-.024.031-.158.058-.198.077a1.39 1.39 0 00-.196.117 1.294 1.294 0 00-.332.328c-.169.258-.41.496-.425.824-.004.073.005.148-.009.221-.015.072-.059.145-.13.165-.026.008-.054.008-.075.02-.046.028-.046.099-.017.143.031.044.082.07.128.096.048.027.096.062.11.113.037.123-.13.245-.08.363.051.122.196.111.143.271-.022.066-.055.06-.015.133.037.066.13.131.179.191a.689.689 0 01.153.264c.018.075.047.143.066.212.022.086.003.154.08.225.046.043.108.07.143.121.055.085.02.202.066.292a.193.193 0 00.055.065v.002z" fill="#2A424B"/><path d="M148.748 168.999l-.295-.028c-.043-.004-.187-.044-.222-.005.035.027.073.023.113.027.059.006.118.02.175.031.133.022.269.044.403.064.088.015.181.031.243.096.061.064.061.19-.022.225-.042.016-.089.005-.133-.006a1.158 1.158 0 00-.57.019c-.117.034-.231.088-.352.102a1.03 1.03 0 01-.372-.047 8.245 8.245 0 01-.515-.154c-.161-.052-.343-.053-.511-.079-.381-.059-.759-.141-1.138-.203l.284-1.039 1.512.398c.3-.044.614-.057.916-.066.135-.004.275-.006.405.038.091.031.174.083.256.136l.607.384c.026.017.049.031.071.053.03.028.052.065.074.099l.295.488c.033.056.066.133.018.179-.044.042-.117.015-.168-.018a2.158 2.158 0 01-.308-.229c-.169-.15-.255-.348-.471-.416-.096-.029-.196-.038-.295-.049z" fill="#F9C3C0"/><path d="M148.271 168.341s.004-.002.004-.004c.086-.051.306.004.394.033.091.031.174.083.256.136l.607.384c.025.017.049.031.071.053.029.028.051.065.073.099l.295.488c.033.056.066.133.019.179-.044.042-.118.015-.169-.018a2.277 2.277 0 01-.308-.229c.03.069 0 .159-.067.192-.068.033-.164-.015-.169-.09 0 .077-.094.125-.169.11-.075-.014-.133-.073-.187-.126.026.055-.018.124-.077.141-.058.016-.122-.006-.174-.039-.051-.033-.097-.077-.15-.106-.07-.04-.141-.049-.218-.06-.095-.015-.09-.033-.112-.13a1.476 1.476 0 01-.044-.504 2.08 2.08 0 01.039-.194c.018-.081.013-.26.086-.311v-.004z" fill="#F9C3C0"/><path d="M147.368 169.409s.314-.566.132-1.2l-.388-.04s.066.628-.173 1.244c.198.038.431-.004.431-.004h-.002z" fill="#fff"/><path d="M147.163 168.022l-5.371-1.326.782-5.754c.108-.685-.513-1.167-1.202-1.16-.546.006-.876.176-.991.403-.842 1.641-.847 3.667-.741 5.771.05.989.317 2.257.51 2.962 2.868.128 6.806.63 6.806.63s.155-.46.203-.8c.044-.321.004-.728.004-.728v.002z" fill="#004C7E"/><path d="M142.455 82.719s.507-.526-.583-5.33c-.376-1.652-.399-2.099-1.684-2.548-1.112 1.33.812 7.997.812 7.997l1.455-.12z" fill="#DAE6E7"/><path d="M133.994 87.706l.257-3.61-.788-7.147c-.103-.617.143-1.242.815-1.547 1.545-.7 3.356-1.568 6.275-.422.399.158.55.64.687 1.044.165.486.246 1.01.227 1.524l-.033.887-.044 5.067a50.048 50.048 0 01-.139 3.195c-.033.468-.009 1.196-.009 1.196s-.88.782-3.484.769c-2.836-.015-3.767-.954-3.767-.954l.003-.002z" fill="#fff"/><path d="M133.871 106.953l-.32.903.095 1.214s.522.374 1.116.369c.37.298 1.112.99 2.619 1.023.324.008.885-.3.643-.631-.15-.206-1.721-1.101-2.505-2.909-.845-.082-1.648.031-1.648.031zm4.079-2.223l-.253.925.184 1.203s.547.332 1.139.279c.391.267 1.182.899 2.687.811.324-.018.861-.37.595-.683-.165-.193-1.795-.96-2.71-2.7a7.873 7.873 0 00-1.642.163v.002z" fill="#2A424B"/><path d="M138.614 74.085c-.354-.377-1.727-.551-2.374.134-.047.335-.115.55-.115.55l1.186.426 1.271-.18s.063-.672.03-.93h.002z" fill="#BFD4D5"/><path d="M137.448 72.936c-.509 0-.78.288-.78.535l-.259 1.665c.024.288.515.522 1.096.522.581 0 1.034-.234 1.01-.522l-.251-1.742c-.02-.253-.305-.46-.814-.46l-.002.002z" fill="#F0A4A8"/><path d="M137.237 68.876c-1.453.01-1.854 1.1-1.854 2.425 0 1.723 1.134 2.253 1.717 2.423.709.207 1.592.39 2.131-.967.321-.808.31-2.21.132-2.757-.156-.474-.673-1.135-2.126-1.124z" fill="#F9C3C0"/><path d="M138.736 75.72l-.672-.606-.517.877.308.454.667-.08.214-.645z" fill="#7A9ED5"/><path d="M138.522 76.365l-.667.082s-.053 2.837-.233 5.788c-.016.27.937.907.937.907s.729-.693.722-.958c-.09-3.354-.759-5.817-.759-5.817v-.002z" fill="#A3BCE2"/><path d="M138.315 70.074c.038-.116-.11-.205-.229-.213-.535-.033-.596.473-.928.757-.164.143-.355.27-.452.467-.116.236-.248.513-.262.797-.18-.499-.86.734-.686.873-.049-.038-.549-.48-.504-.498a.419.419 0 01-.212.024c.066-.204.081-.422.044-.632-.086.08-.24.024-.297-.08-.057-.105-.046-.23-.033-.347a.482.482 0 01-.235-.062c.114-.315.092-.661.156-.99.068-.347.337-.935.651-1.11.102-.058.271-.045.344-.133.074-.09-.02-.27.088-.386.105-.114.259-.165.407-.202.579-.14 1.169-.218 1.748-.033.381.121.735.315 1.08.517.1.06.203.12.289.201.213.196.271.5.425.74a.448.448 0 00.237.198.416.416 0 01-.086.141c-.039.039-.098.06-.151.042.086.1.066.33.042.449a2.273 2.273 0 01-.148.463c-.016.037-.062.068-.095.046-.026-.016-.028-.055-.024-.086.007-.06.016-.126-.02-.174a.172.172 0 00-.05-.04l-.154-.101c-.095-.062-.108-.212-.157-.311a.824.824 0 00-.226-.293c-.159-.125-.408-.158-.562-.022v-.002z" fill="#7B502C"/><path d="M134.103 98.464l-.269-8.73.16-2.028s.943.86 3.767.954c2.322.077 3.484-.77 3.484-.77l-.669 8.712-.599 8.346s-.334.262-1.027.247c-.782-.018-1.152-.383-1.152-.383l.266-7.357-.405-7.835-1.038 8.075-.83 9.231s-.399.351-1.048.353c-.656.002-1.07-.339-1.07-.339l.429-8.476h.001z" fill="#004376"/><path d="M138.064 75.114s-.277.68-.519 1.306c-.672-.277-1.132-.626-1.69-1.505.162-.255.383-.697.383-.697s.783.76 1.824.896h.002z" fill="#EBF1F1"/><path d="M138.119 88.625l.251-6.522s1.512-3.187.676-7.37a3.36 3.36 0 00-.029-.137.366.366 0 01-.005-.066c.016.003.033.005.049.009.464.088.96.229 1.494.44.399.157.599.642.738 1.049.165.485.269 1.018.251 1.533l-.035.892c-.014 1.689-.053 3.388-.066 5.079-.009 1.071-.077 2.108-.154 3.176-.033.468-.042 1.261-.042 1.261s-.797.71-3.117.766l-.009-.11h-.002z" fill="#165B9E"/><path d="M138.43 82.026s1.777-2.934 2.168-5.401c-.272-.137-.71-.223-.71-.223l.438-.757-.747-1.004-.662-.126s1.085 3.381-.485 7.513l-.002-.002z" fill="#3E77AF"/><path d="M134.279 75.402c.512-.233 1.054-.482 1.655-.67l.006-.017.005.013s.986 4.804 2.751 6.976c-.031 2.046-.339 7.028-.339 7.028-.16.03-.396.078-.592.078a10.502 10.502 0 01-1.336-.086c-.795-.119-1.679-.267-2.434-.87v-.148c.017-.707.198-2.938.251-3.546l.006-.066-.057-.513-.273-2.48-.458-4.153c-.103-.618.143-1.242.815-1.548v.002z" fill="#165B9E"/><path d="M133.966 81.513s.231-1.018.61-2.532c-.229 2.175-.321 2.52-.531 3.252l-.079-.72z" fill="#004595"/><path d="M138.901 82.118s-2.751-2.716-3.832-4.969c.22-.209.616-.418.616-.418l-.636-.599.458-1.249.568-.238s.947 4.678 2.828 7.473h-.002z" fill="#3E77AF"/><path d="M138.063 75.114s.449-.375.55-1.03c0 0 .259.34.403.513.11.757-.012 1.129-.172 1.535-.359-.6-.781-1.018-.781-1.018z" fill="#EBF1F1"/><path d="M135.181 83.418l-.385-2.571c.156-3.07-.568-5.421-.568-5.421-1.486.705-1.451 1.512-1.653 3.091 0 0 .086 4.634 1.239 5.66 1.006 1.03 1.367-.76 1.367-.76v.001z" fill="#DAE6E7"/><path d="M135.072 80.48a1.365 1.365 0 00-.153-.214c-.067-.075-.152-.135-.234-.196-.171-.122-.343-.247-.513-.37-.019-.014-.041-.029-.064-.025-.052.007-.053.08-.037.13a.893.893 0 00.308.423l-.863-.236c-.068.067-.026.205.068.223-.079.031-.087.152-.033.218.053.068.141.093.223.117-.101.046-.108.194-.049.29.058.093.157.151.24.227.375.34.421.958.907 1.21.317.165.68-.016 1.013.013.051.004.18.06.224.044.075-.03.055-.174.055-.247.003-.22-.022-.44-.042-.66-.16.004-.319 0-.477-.014a.084.084 0 01-.042-.011c-.013-.01-.02-.024-.028-.039-.071-.159-.097-.29-.197-.44-.101-.148-.211-.289-.305-.44l-.001-.002zm6.325.035c.031.017.061.033.09.052.053.03.09.047.146.064.048.014.096.02.127.066.018.025.026.058.038.087.05.103.191.154.207.266.004.03 0 .06.006.092.007.034.031.066.049.097.03.05.085.203.039.256-.035.042-.192-.01-.249-.016a6.754 6.754 0 00-.607-.066c-.396-.022-.803.01-1.169.175-.055.024-.312-.701-.33-.789-.002-.01.751-.249.823-.27.139-.04.28-.074.423-.093.154-.02.27.011.407.085v-.006z" fill="#F9C3C0"/><path d="M136.035 82.925l-.102-1.622 4.354.144s2.281-.61 2.292.806c.004.444-.062.76-.286.918-.614.436-2.083.033-2.686.005-1.736-.078-3.57-.25-3.57-.25h-.002z" fill="#BED3D5"/><path d="M140.268 81.451l-.521-.778s-1.389.432-1.819.59c-1.047.382-1.935.692-2.962 1.122-.531.222-1.202.418-1.143 1.326.106 1.654 2.417.363 3.181.066 1.62-.628 3.264-2.326 3.264-2.326z" fill="#DAE6E7"/><path d="M136.986 71.84l-.887-.257-.007.128.887.256.007-.128z" fill="#2A424B"/><path d="M136.099 71.583l-.575.22c-.046-.01-.083.01-.084.046-.002.036.034.075.082.084l.568-.222.007-.128h.002zm1.846.094l.735-.153c.039-.007.083.024.081.057v.044c-.004.03-.026.05-.059.057l-.735.152c-.038.007-.082-.024-.08-.057v-.044c.003-.029.025-.05.058-.056z" fill="#2A424B"/><path d="M137.066 71.63l.973-.2c.05-.012.11.03.107.072l-.048.845c-.002.038-.029.066-.073.075l-.973.201c-.05.011-.11-.03-.107-.073l.048-.844c.002-.039.029-.066.073-.075zm.037.142l-.038.676c-.002.034.045.067.086.058l.779-.161c.034-.007.056-.031.058-.06l.037-.676c.002-.035-.046-.068-.086-.059l-.779.161c-.035.008-.057.031-.059.06h.002zm1.498-.46l.973-.201c.049-.011.11.03.106.073l-.048.844c-.002.039-.029.066-.073.075l-.973.202c-.05.01-.11-.031-.106-.074l.047-.844c.002-.038.03-.066.074-.075zm.038.141l-.037.676c-.001.035.046.068.087.059l.778-.162c.035-.007.057-.03.059-.06l.037-.676c.002-.035-.046-.068-.086-.059l-.779.162c-.035.007-.057.03-.059.06z" fill="#2A424B"/><path d="M136.302 71.96s-.025-.492-.447-.427c-.361.055-.352.29-.247.7.104.41.355.605.608.593.253-.01.086-.864.086-.864v-.002z" fill="#F9C3C0"/><path d="M3.081 135.617a.492.492 0 01-.285-.094C1.229 134.382 0 132.291 0 130.761c0-.996.506-1.403.806-1.557.665-.337 1.598-.13 2.56.572a.486.486 0 01.107.681.486.486 0 01-.682.106c-.762-.554-1.309-.611-1.545-.49-.227.115-.275.437-.275.688 0 1.211 1.096 3.03 2.393 3.975a.486.486 0 01-.287.881h.003zm4.431-2.561a.49.49 0 01-.286-.093c-1.567-1.141-2.794-3.233-2.794-4.762 0-.996.505-1.403.806-1.557.665-.337 1.598-.13 2.56.572a.486.486 0 01.106.681.486.486 0 01-.681.106c-.763-.555-1.309-.612-1.545-.491-.227.116-.275.438-.275.689 0 1.211 1.096 3.029 2.393 3.974a.487.487 0 01-.288.881h.004zm4.432-2.56a.484.484 0 01-.286-.094c-1.567-1.141-2.795-3.232-2.795-4.762 0-.996.506-1.403.807-1.556.665-.337 1.598-.13 2.56.571a.487.487 0 11-.575.788c-.763-.555-1.31-.612-1.546-.491-.227.115-.274.437-.274.688 0 1.211 1.095 3.03 2.393 3.975a.486.486 0 01-.288.881h.004zm4.43-2.561a.49.49 0 01-.285-.093c-1.567-1.141-2.795-3.233-2.795-4.762 0-.996.506-1.403.806-1.557.665-.337 1.598-.13 2.56.572a.487.487 0 11-.575.787c-.763-.555-1.309-.612-1.545-.491-.227.116-.275.438-.275.689 0 1.211 1.096 3.029 2.393 3.974a.487.487 0 01-.287.881h.003zm4.431-2.56a.484.484 0 01-.286-.094c-1.567-1.141-2.794-3.232-2.794-4.762 0-.996.505-1.403.806-1.556.665-.337 1.598-.131 2.56.571a.487.487 0 11-.575.788c-.763-.555-1.309-.612-1.545-.491-.227.115-.275.437-.275.686 0 1.211 1.096 3.03 2.393 3.975a.486.486 0 01-.288.881l.004.002zm4.431-2.561a.49.49 0 01-.286-.093c-1.567-1.141-2.795-3.233-2.795-4.762 0-.996.506-1.403.807-1.557.665-.337 1.598-.13 2.56.572a.486.486 0 11-.574.787c-.762-.555-1.308-.612-1.545-.491-.227.116-.275.438-.275.687 0 1.211 1.096 3.03 2.394 3.975a.486.486 0 01-.288.881l.002.001zm4.431-2.56a.484.484 0 01-.286-.094c-1.566-1.141-2.794-3.232-2.794-4.762 0-.996.506-1.402.806-1.556.665-.337 1.598-.13 2.56.571a.487.487 0 11-.575.788c-.762-.555-1.309-.612-1.545-.491-.227.115-.275.438-.275.688 0 1.211 1.096 3.03 2.393 3.975a.486.486 0 01-.287.881h.003zm4.432-2.56a.492.492 0 01-.286-.094c-1.567-1.141-2.794-3.233-2.794-4.762 0-.996.505-1.403.806-1.557.665-.337 1.598-.13 2.56.572a.486.486 0 11-.574.787c-.762-.555-1.308-.611-1.544-.49-.228.115-.275.437-.275.686 0 1.211 1.095 3.03 2.393 3.975a.486.486 0 01-.288.881l.002.002zm4.431-2.561a.49.49 0 01-.286-.093c-1.567-1.141-2.795-3.233-2.795-4.762 0-.997.506-1.403.806-1.557.666-.337 1.598-.13 2.56.571a.487.487 0 11-.575.788c-.762-.555-1.308-.612-1.545-.491-.227.115-.275.438-.275.687 0 1.21 1.096 3.029 2.394 3.974a.487.487 0 01-.288.881l.004.002zm4.43-2.56a.484.484 0 01-.285-.094c-1.567-1.141-2.795-3.232-2.795-4.762 0-.996.506-1.403.806-1.556.665-.337 1.598-.131 2.56.571a.486.486 0 01.106.681.485.485 0 01-.68.107c-.762-.555-1.308-.612-1.544-.491-.227.115-.275.437-.275.688 0 1.211 1.096 3.03 2.393 3.975a.486.486 0 01-.288.881h.002zm4.432-2.561a.49.49 0 01-.286-.093c-1.567-1.141-2.794-3.233-2.794-4.762 0-.997.505-1.403.806-1.557.665-.337 1.598-.13 2.56.571a.487.487 0 11-.576.788c-.762-.555-1.308-.612-1.544-.491-.228.116-.275.438-.275.687 0 1.211 1.096 3.029 2.393 3.974a.487.487 0 01-.288.881l.004.002zm4.432-2.56a.492.492 0 01-.286-.094c-1.567-1.141-2.795-3.232-2.795-4.762 0-.996.506-1.403.806-1.557.666-.337 1.598-.13 2.56.572a.486.486 0 11-.573.787c-.762-.555-1.309-.611-1.545-.49-.227.115-.275.437-.275.686 0 1.211 1.096 3.03 2.393 3.975a.486.486 0 01-.287.881l.002.002zm4.431-2.561a.49.49 0 01-.286-.093c-1.566-1.141-2.794-3.233-2.794-4.762 0-.997.506-1.403.806-1.557.665-.337 1.598-.13 2.56.571a.487.487 0 11-.573.788c-.763-.555-1.309-.612-1.545-.491-.227.115-.275.438-.275.687 0 1.21 1.096 3.029 2.393 3.974a.487.487 0 01-.288.881l.002.002zm4.432-2.56a.484.484 0 01-.286-.094c-1.567-1.141-2.795-3.232-2.795-4.762 0-.996.506-1.403.807-1.556.665-.337 1.598-.13 2.56.571a.486.486 0 11-.576.788c-.762-.555-1.308-.612-1.544-.491-.228.115-.275.438-.275.686 0 1.211 1.095 3.03 2.393 3.975a.486.486 0 01-.288.881l.004.002zm4.431-2.561a.49.49 0 01-.286-.093c-1.567-1.141-2.795-3.233-2.795-4.762 0-.997.506-1.403.806-1.557.666-.337 1.598-.13 2.56.572a.486.486 0 11-.573.787c-.763-.555-1.309-.612-1.545-.49-.227.115-.275.437-.275.686 0 1.21 1.096 3.03 2.393 3.974a.487.487 0 01-.287.881l.002.002z" fill="#CAE0DD"/><path d="M109.854 118.686l-65.18 37.612L.78 130.955l65.18-37.61 43.893 25.341z" fill="#CCBBAD"/><path d="M44.673 156.298l65.18-37.612v3.786l-65.18 37.612v-3.786z" fill="#BFD4D5"/><path d="M83.997 116.056c.092-.047.203-.029.297.026.095.055.115.113.024.161l-2.265 1.158a.42.42 0 01-.41-.011c-.146-.085-.144-.145-.098-.261l.519-1.243c.075-.187.229-.449.317-.579-.19.119-.621.37-1.107.617l-1.014.517c-.09.046-.203.029-.294-.024-.096-.055-.116-.117-.028-.163l2.276-1.163a.438.438 0 01.41.022c.153.088.15.152.116.24l-.497 1.183a4.746 4.746 0 01-.352.652c.185-.115.629-.381 1.104-.623l.998-.511.004.002zm2.328 3.026c-.574.293-1.294.307-1.824 0-.559-.324-.5-.707.087-1.008.57-.291 1.284-.298 1.832.019.543.313.477.694-.097.987l.002.002zm-1.435-.823c-.42.215-.502.478-.154.68.368.214.841.183 1.28-.042.417-.213.507-.469.162-.669-.364-.212-.848-.194-1.288.031zm4.691 1.281c.086-.044.189-.035.284.02.088.051.107.112.02.156l-.4.203.433.251c.085.049.074.099-.007.139a.271.271 0 01-.255-.007l-.432-.251-1.105.564c-.162.082-.16.159-.035.232.084.05.165.072.257.088.029.008.056.015.077.028.05.029.054.071.025.108a.163.163 0 01-.058.044.296.296 0 01-.191.02 1.34 1.34 0 01-.407-.157c-.277-.162-.346-.348 0-.524l1.13-.579-.263-.152c-.08-.048-.066-.095.01-.134a.259.259 0 01.254.004l.26.152.4-.203.003-.002zm1.364 2.282c-.4.21-.447.459-.08.672.243.141.498.159.752.117.09-.013.158 0 .206.029a.24.24 0 01.056.048c.042.042.05.09-.01.119a.17.17 0 01-.078.02c-.326.048-.74.046-1.18-.209-.555-.322-.495-.703.077-.994.57-.291 1.274-.319 1.825 0 .495.286.396.639-.001.879l-.026.013a.36.36 0 01-.35-.006l-1.191-.69v.002zm1.242.458c.037.022.064.022.094.007.003 0 .009-.006.016-.009.194-.143.29-.35-.022-.531-.324-.189-.713-.184-1.08-.043l.992.576zm-16.167-3.856c-.24-.139-.24-.251.011-.379l1.86-.95c.255-.13.459-.123.699.016l.799.463c.487.283.54.563.144.764-.313.16-.637.174-1.02.053.276.237.234.449-.121.63-.45.229-1.014.189-1.536-.111l-.835-.486zm.356-.21c-.073.036-.075.075 0 .119l.718.415c.341.198.69.22.994.065.31-.158.285-.348-.06-.55l-.82-.474-.83.425h-.002zm1.91-.096c.29.169.619.187.883.052.256-.132.23-.291-.077-.469l-.704-.409a.213.213 0 00-.203-.003l-.706.361.808.468h-.002zm3.718 2.774c-.573.293-1.295.307-1.823 0-.559-.325-.5-.707.086-1.008.57-.291 1.285-.298 1.833.018.542.314.476.695-.097.988l.001.002zm-1.434-.821c-.42.214-.502.478-.154.679.368.215.84.184 1.28-.042.417-.212.506-.469.162-.668-.365-.213-.849-.194-1.288.031zm4.829 2.787c-.574.293-1.296.308-1.823 0-.56-.324-.5-.707.086-1.007.57-.291 1.284-.299 1.832.02.543.313.477.694-.097.987h.002zm-1.435-.82c-.42.214-.502.478-.154.679.368.215.843.183 1.281-.042.416-.212.506-.469.161-.668-.366-.213-.848-.194-1.288.031zm2.686 2.423c-.09.046-.193.033-.285-.02-.095-.055-.11-.11-.02-.156l2.347-1.199c.087-.044.19-.032.285.023.087.052.113.105.027.149l-1.464.749 1.627.069a.34.34 0 01.145.037c.044.026.068.057.062.09a.098.098 0 01-.058.084.288.288 0 01-.136.022l-1.094-.066-.2.837c-.005.022-.022.037-.05.051a.357.357 0 01-.203.019.375.375 0 01-.115-.041c-.044-.025-.072-.058-.062-.093l.227-.802-.499-.026-.537.275.002-.002z" fill="#fff"/><path d="M44.673 156.298L.781 130.955v3.786l43.892 25.343v-3.786z" fill="#DEE9E9"/><mask id="mask1_248_65123" style="mask-type:luminance" maskUnits="userSpaceOnUse" x="0" y="93" width="110" height="64"><path d="M109.854 118.686l-65.18 37.612L.78 130.955l65.18-37.61 43.893 25.341z" fill="#fff"/></mask><g mask="url(#mask1_248_65123)" fill="#CAE0DD"><path d="M0 130.761c0-.996.506-1.403.806-1.557.665-.337 1.598-.13 2.56.572a.486.486 0 01.107.681.486.486 0 01-.682.106c-.762-.554-1.308-.611-1.545-.49-.227.115-.275.437-.275.688H0zm4.43-2.56c0-.996.506-1.403.807-1.557.665-.337 1.598-.13 2.56.572a.486.486 0 01.106.681.486.486 0 01-.681.106c-.763-.555-1.309-.612-1.545-.491-.227.116-.275.438-.275.689m3.46-2.561c0-.996.506-1.403.806-1.556.666-.337 1.598-.13 2.56.571a.487.487 0 11-.575.788c-.762-.555-1.308-.612-1.545-.491-.227.115-.275.437-.275.688h-.975.004zm4.431-2.56c0-.996.506-1.403.806-1.557.665-.337 1.598-.13 2.56.572a.487.487 0 11-.575.787c-.763-.555-1.309-.612-1.545-.491-.227.116-.275.438-.275.689h-.975.004zm4.43-2.56c0-.997.506-1.403.807-1.557.665-.337 1.598-.13 2.56.571a.487.487 0 11-.576.788c-.762-.555-1.308-.612-1.544-.491-.228.115-.275.438-.275.687h-.975l.003.002zm4.432-2.561c0-.996.506-1.403.806-1.557.666-.337 1.598-.13 2.56.572a.486.486 0 11-.573.787c-.762-.555-1.308-.612-1.545-.491-.227.116-.275.438-.275.687h-.975l.002.002zm4.431-2.561c0-.996.506-1.402.806-1.556.665-.337 1.598-.13 2.56.571a.487.487 0 11-.575.788c-.763-.555-1.309-.612-1.545-.491-.227.115-.275.438-.275.688h-.975.004zm4.431-2.56c0-.996.505-1.403.806-1.557.665-.337 1.598-.13 2.56.572a.486.486 0 11-.574.787c-.762-.555-1.308-.611-1.545-.49-.227.115-.275.437-.275.686h-.974l.002.002zm4.431-2.56c0-.997.506-1.403.806-1.557.666-.337 1.598-.13 2.56.571a.487.487 0 11-.575.788c-.762-.555-1.308-.612-1.545-.491-.227.115-.275.438-.275.687h-.975l.004.002zm4.431-2.561c0-.996.506-1.403.806-1.556.665-.337 1.598-.131 2.56.571a.486.486 0 01.106.681.485.485 0 01-.68.107c-.762-.555-1.308-.612-1.544-.491-.227.115-.275.437-.275.688h-.975.002zm4.432-2.56c0-.997.506-1.403.807-1.557.665-.337 1.597-.13 2.56.571a.487.487 0 11-.576.788c-.762-.555-1.308-.612-1.545-.491-.227.116-.275.438-.275.687h-.974l.003.002zm4.432-2.561c0-.996.506-1.403.806-1.557.666-.337 1.598-.13 2.56.572a.486.486 0 11-.573.787c-.763-.555-1.309-.611-1.545-.49-.227.115-.275.437-.275.686h-.975l.002.002zm4.431-2.56c0-.997.505-1.403.806-1.557.665-.337 1.598-.13 2.56.571a.487.487 0 11-.573.788c-.763-.555-1.309-.612-1.545-.491-.228.115-.275.438-.275.687h-.975l.002.002zm4.43-2.561c0-.996.506-1.403.807-1.556.665-.337 1.597-.13 2.56.571a.487.487 0 11-.576.788c-.762-.555-1.308-.612-1.545-.491-.227.115-.275.438-.275.686h-.974l.003.002zm4.432-2.56c0-.997.506-1.403.806-1.557.666-.337 1.598-.13 2.56.572a.486.486 0 11-.573.787c-.763-.555-1.309-.612-1.545-.49-.227.115-.275.437-.275.686h-.975l.002.002z"/></g><path d="M25.296 120.177v1.541l18.09-8.647v-1.54l-18.09 8.646zm23.055-5.244c.396-.19.565-.844.172-1.128-.1-.073-.234-.119-.344-.174l-2.628-1.326c-.563-.284-1.534-.771-2.162-.774v1.54c.383-.002.476.099.819.267a690.9 690.9 0 001.732.85c.29.143.579.286.87.427.344.168.636.331 1.028.372.16.016.326.023.477-.035.014-.006.027-.011.042-.019h-.006zm30.577 17.649c.396-.19.565-.844.172-1.128-.1-.071-.234-.119-.344-.174l-2.628-1.326c-.562-.284-1.534-.771-2.162-.775v1.541c.383-.002.476.098.819.267a554.907 554.907 0 002.602 1.276c.345.169.636.332 1.028.372.16.017.326.024.477-.035a.372.372 0 00.042-.018h-.006zm-38.673-5.919c-.869-.502-1.657-.55-2.229-.224l.565-.302c.57-.326 1.358-.278 2.226.223 1.71.988 3.095 3.359 3.128 5.336l-.564.302c-.033-1.976-1.418-4.348-3.128-5.335h.002z" fill="#4B6561"/><path d="M42.599 131.534c-.109-1.567-1.25-3.404-2.55-4.102-1.255-.674-2.199-.04-2.164 1.414l-.779-.449c.035-1.947 1.433-2.725 3.15-1.734 1.718.99 3.107 3.377 3.13 5.357l-.784-.453v-.033H42.6z" fill="#EBF1F1"/><path d="M53.416 143.254l-.907.524c1.065-.615 1.726-1.928 1.73-3.797.011-3.752-2.63-8.324-5.897-10.208-1.638-.946-3.123-1.037-4.197-.42l.908-.524c1.074-.615 2.558-.524 4.196.42 3.267 1.886 5.908 6.456 5.897 10.209-.005 1.866-.665 3.179-1.73 3.794v.002z" fill="#4B6561"/><path d="M48.343 129.772c3.267 1.887 5.908 6.456 5.897 10.209-.011 3.753-2.668 5.268-5.936 3.381-3.267-1.884-5.908-6.456-5.897-10.209.011-3.752 2.668-5.265 5.936-3.381zm-5.113 4.059c.235 3.392 2.705 7.368 5.518 8.881 2.815 1.513 4.905-.013 4.67-3.405-.234-3.392-2.704-7.368-5.517-8.881-2.813-1.511-4.906.013-4.67 3.405z" fill="#EBF1F1"/><path d="M49.424 142.491c-2.813-1.511-5.285-5.488-5.517-8.881-.13-1.892.463-3.202 1.5-3.729-1.447.245-2.334 1.677-2.178 3.95.234 3.392 2.704 7.368 5.517 8.881 1.245.669 2.348.742 3.172.324-.714.121-1.563-.045-2.492-.544l-.002-.001zm-17.014-9.819c-2.812-1.513-5.284-5.487-5.517-8.881-.13-1.892.464-3.202 1.5-3.729-1.447.245-2.334 1.677-2.178 3.95.235 3.394 2.705 7.369 5.518 8.881 1.244.669 2.347.742 3.172.325-.715.12-1.563-.046-2.492-.544l-.002-.002z" fill="#4B6561"/><path d="M36.401 133.437l-.907.524c1.065-.615 1.727-1.928 1.73-3.796.011-3.753-2.63-8.325-5.897-10.209-1.638-.945-3.122-1.037-4.196-.42l.907-.524c1.074-.615 2.558-.523 4.196.42 3.268 1.886 5.908 6.456 5.897 10.209-.005 1.866-.665 3.179-1.73 3.795v.001z" fill="#4B6561"/><path d="M31.327 119.955c3.267 1.887 5.908 6.457 5.897 10.209-.01 3.753-2.668 5.268-5.935 3.381-3.268-1.884-5.908-6.456-5.897-10.209.01-3.752 2.668-5.265 5.935-3.381zm-5.113 4.057c.235 3.394 2.705 7.369 5.518 8.881 2.815 1.513 4.906-.012 4.671-3.404-.234-3.392-2.705-7.369-5.517-8.881-2.813-1.511-4.906.012-4.672 3.404zm27.823 13.814l-.174-.1v1.54l.174.101v-1.541zm1.838 1.54v-1.54a1.84 1.84 0 01-1.838 0v1.54a1.84 1.84 0 001.838 0z" fill="#EBF1F1"/><path d="M25.756 122.516a.907.907 0 01-.46-.795v-1.544c0 .31.152.621.46.799v1.54zm.174-1.442l-.173-.098v1.54l.172.099v-1.541z" fill="#EBF1F1"/><path d="M55.875 137.826v1.54l18.089-8.646v-1.541l-18.089 8.647z" fill="#4B6561"/><path d="M76.788 148.746l.409.237 12.675-7.297-.408-.235-12.676 7.295z" fill="#BFD4D5"/><path d="M77.197 148.983l-.409-.236v1.267l.409.236v-1.267z" fill="#EBF1F1"/><path d="M77.197 148.983l12.676-7.297v1.269l-12.676 7.295v-1.267z" fill="#B0BEC3"/><path d="M87.082 143.519l.302.174 2.416-1.394-.303-.174-2.415 1.394z" fill="#BFD4D5"/><path d="M87.384 143.694l-.302-.174v.935l.302.174v-.935z" fill="#EBF1F1"/><path d="M87.384 143.694l2.415-1.394v.938l-2.415 1.391v-.935z" fill="#8CBCB5"/><path d="M52.293 166.751c.317-.216.258-.855-.132-1.429-.39-.573-.964-.862-1.281-.646-.317.216-.259.855.132 1.428.39.574.964.863 1.28.647z" fill="#CAE0DD"/><path d="M93.54 140.514L84 146.02c.23-.156.641.053.922.465.28.412.322.874.095 1.029l9.54-5.505c.23-.156.187-.615-.095-1.029-.282-.414-.695-.621-.922-.466z" fill="#2A424B"/><path d="M90.609 141.751l-39.73 22.925c.318-.216.892.073 1.282.646.39.574.449 1.213.132 1.429l39.729-22.925c.317-.216.258-.856-.132-1.429-.39-.573-.964-.863-1.281-.646z" fill="#BFD4D5"/><path d="M72.57 152.888l-21.144 12.2c.168-.115.474.038.681.344.208.306.239.645.07.76l21.144-12.199c.168-.116.137-.455-.07-.76-.207-.304-.513-.46-.682-.345z" fill="#2A424B"/><path d="M52.294 166.751c.317-.216.258-.855-.132-1.428-.39-.574-.964-.863-1.281-.647-.317.216-.258.855.132 1.429.39.573.964.862 1.28.646z" fill="#B0BEC3"/><path d="M52.14 166.819l-2.901.399-.141-.207 1.63-2.124 1.412 1.932z" fill="#B0BEC3"/><path d="M49.238 167.218c.032-.022.026-.086-.012-.143-.039-.056-.097-.086-.129-.064-.03.022-.025.086.013.143.039.057.097.086.128.064z" fill="#2A424B"/><path d="M49.115 167.255a.107.107 0 000-.213.107.107 0 000 .213z" fill="#B0BEC3"/></g><defs><clipPath id="clip0_248_65123"><path fill="#fff" d="M0 0h280v194H0z"/></clipPath></defs></svg>