<svg width="195" height="146" fill="none" xmlns="http://www.w3.org/2000/svg"><path d="M95.468 80.126l83.091.295-.251 50.256-83.091-.299.25-50.252z" fill="#EB9950"/><path d="M94.858 130.117l41.76-33.55 41.394 33.883-83.154-.333z" fill="#C97D3B"/><path d="M95.07 130.12l41.541-32.095 41.188 32.424-82.73-.329z" fill="#F1B146"/><path d="M95.132 80.337l41.39 33.883 41.76-33.554-83.15-.329z" fill="#C97D3B"/><path d="M95.344 80.337l41.091-33.259 41.634 33.588-82.725-.33z" fill="#C97D3B"/><path d="M168.28 54.577h-62.854v34.186l31.096 25.457 31.758-25.457V54.577z" fill="#fff"/><path d="M136.888 110.568l-31.462-21.806 31.096 25.457 31.758-25.457-31.392 21.806z" fill="#AD6035"/><path d="M131.722 77.295l-16.365.111-.018-2.033 16.364-.107.019 2.03zm28.525 3.842l-44.85.296-.015-1.552 44.85-.296.015 1.552z" fill="#729EDB"/><path d="M147.364 81.222l-8.621.056-.012-1.553 8.618-.055.015 1.552zm12.883-.085l-11.32.074-.015-1.552 11.321-.074.014 1.552zm-9.273 3.688l-35.546.233-.015-1.553 35.546-.236.015 1.556z" fill="#729EDB"/><path d="M154.32 84.8l-16.756.111-.014-1.556 16.755-.11.015 1.555z" fill="#729EDB"/><path d="M68.79 82.629c.177 3.063.037 3.935.871 7.823 1.296 6.025 1.149 4.606 1.274 5.448.576 1.486 2.271 8.02 2.895 9.273.037 2.546.417 4.549 1.16 7.65.885 3.707 3.455 9.986 4.755 13.427l2.57-.613c-.373-6.86-1.337-16.273-2.795-26.632-.934-6.638-.033-12.795-1.056-18.18l-9.674 1.8v.004z" fill="#1E2D54"/><path d="M63.216 81.99c-.639 3.024-.746 6.343-.85 10.32-.162 6.16.883 8.973.795 9.823a42.69 42.69 0 00.945 4.431c-.661 2.483-1.045 5.451-1.045 8.641 0 3.81.229 8.119.779 11.767h3.131c1.458-6.756 2.943-16.136 4.11-26.554.75-6.671 1.273-12.954 1.58-18.428h-9.445z" fill="#153F5E"/><path d="M72.44 88.25c3.518 0 6.37-2.179 6.37-4.867s-2.852-4.867-6.37-4.867c-3.517 0-6.369 2.18-6.369 4.867 0 2.688 2.852 4.868 6.37 4.868z" fill="#153F5E"/><path d="M66.285 129.174h-2.201v-3.245h2.592l-.391 3.245z" fill="#EA9F88"/><path d="M67.228 132v-.222c0-.233-.033-.447-.092-.628l-.543-2.173s-.498.255-.985.148c-.488-.108-.462-.813-.983-1.161h-.236s-.48.163-.812.869c-.24.513-.325 1.548-.48 1.884-.178.389-.358.754-.502 1.035a.957.957 0 00-.351.481c-.188 0-.225.003-.004.015a1.147 1.147 0 00-.055.343v.47h5.213v-.47c0-.225-.066-.428-.173-.595l.003.004zm-1.875-.388l-.152.004.148-.004h.004z" fill="#16415D"/><path d="M82.78 128.602l-1.835.566-.953-3.105 2.164-.661.624 3.2z" fill="#EA9F88"/><path d="M79.064 130.879l.794-2.24s1.174.262 1.89.152c.717-.108.713-.762 1.001-1.194h.956s1.256 2.228 3.715 2.783h1.842c.428 0 .783.517.783 1.149v.51h-7.754l-.391-.684h-.218v.684h-2.758v-.51c0-.24.052-.462.136-.647l.004-.003z" fill="#16415D"/><path d="M67.439 53.267c.79.377 1.687.595 2.636.595a6.066 6.066 0 002.976-.773c-.34-.569-.547-1.312-.547-2.125 0-1.109.384-2.084.964-2.672v-1.386h-3.522c-.156 2.584-1.105 4.849-2.507 6.36z" fill="#EA9F86"/><path d="M75.253 44.795c.147-2.018-2.05-2.25-3.667-2.369-1.037-.078-1.979 0-2.658 1.031-.17-.248-.547.189-.813.181-.55-.022-.893.152-.923.928-.03.776.27 1.863.82 1.885.026 0 .052-.008.078-.008.018.632-.215 1.117.059 1.634.531 1.013 1.864 1.859 2.824 2.136 3.139.91 4.132-3.396 4.28-5.414v-.004z" fill="#EBB190"/><path d="M77.451 42.752c.17-1.626-.332-2.668-2.932-2.975-1.728-.203-4.66-.221-6.513.145-1.89.377-1.62 1.848-1.55 2.487.18 1.574.65 3.892 1.414 4.143a.475.475 0 00.461-.078c-.255-.155-.472-.45-.576-.817-.173-.62.048-1.208.491-1.315.366-.089.76.177.99.613.587-1.105 1.465-2.203 3.64-1.197 2.378 1.097 4.394.62 4.568-1.002l.007-.004z" fill="#1C3054"/><path d="M68.845 66.308c4.936 0 9.636-.259 13.905-.728-.237-6.094-3.929-11.195-8.965-12.91-.786.684-1.95 1.12-3.253 1.12-1.436 0-2.706-.528-3.482-1.337-5.472 1.47-9.563 6.874-9.714 13.367 3.611.318 7.48.492 11.509.492v-.004z" fill="#729EDB"/><path d="M82.476 65.308l.273 4.767c-2.573.61-4.224 1.693-4.774 3.375-.975-1.069-1.532-2.857-1.676-5.37-.034-.58-.045-1.475 0-2.026l6.173-.746h.004z" fill="#EA9F87"/><path d="M77.962 73.543c.447-2.79 2.23-3.319 4.49-3.585l9.928-.573c.27-.488.93-.894 1.791-1.105.159-.037.358.192.366.348.04.702-.41 1.356.963 1.315.635-.018 1.898-.092 2.57-.218.17-.033.75-.022.395.492-.561.81-1.916 1.877-3.39 1.918-.93.026-1.657-.336-2.14-.824-3.176 1.42-8.966 3.034-12.252 3.13-1.104.034-2.009-.27-2.721-.898z" fill="#EFB290"/><path d="M63.477 82.918h15.076c.347 0 .277-.965.232-1.102-.288-.868-.587-1.097-.779-2.08a26.163 26.163 0 01-.476-5.049c0-5.688 1.71-11.061 3.954-14.236-1.487-3.692-4.356-6.55-7.879-7.75-.786.683-1.95 1.12-3.253 1.12-1.436 0-2.706-.529-3.482-1.338-4.128 1.108-7.47 4.457-8.928 8.822 3.257 1.437 5.72 8.023 5.72 15.936 0 1.238-.063 2.44-.177 3.596-.063.632-.329.905-.362 1.127-.092.628.177.957.358.957l-.004-.003z" fill="#729EDB"/><path d="M63.889 65.357l-.178 5.71c-2.813.554-4.685 1.733-5.439 3.703-.937-1.341-1.355-3.515-1.258-6.523.022-.695.1-1.763.199-2.417l6.675-.473z" fill="#EA9F87"/><path d="M58.244 74.88c.757-3.3 2.714-3.806 5.155-3.973l10.674-.007c.336-.566 1.082-1.005 2.023-1.194.174-.033.362.255.358.436-.025.84-.572 1.593.898 1.638.68.022 2.038.018 2.773-.085.184-.026.805.025.373.613-.68.928-2.238 2.11-3.815 2.062-1-.03-1.739-.514-2.208-1.127-3.537 1.478-9.888 3.012-13.41 2.901-1.182-.037-2.12-.458-2.82-1.26v-.004z" fill="#EFB290"/><path d="M138.007 25.958a6.568 6.568 0 006.565-6.571 6.568 6.568 0 00-6.565-6.571 6.569 6.569 0 00-6.565 6.57c0 3.63 2.94 6.572 6.565 6.572z" fill="#EAF0F9"/><path d="M190.531 65.591l-29.26 5.455 3.889 20.906 29.261-5.454-3.89-20.907z" fill="#DEF0FB"/><path d="M165.021 91.969l12.04-16.75 17.243 11.306-29.283 5.444z" fill="#B2C4C7"/><path d="M165.098 91.953l12.073-16.128 17.059 10.71-29.132 5.418z" fill="#fff"/><path d="M161.178 71.256l17.246 11.306 12.037-16.75-29.283 5.444z" fill="#95B6B2"/><path d="M161.25 71.242l16.818 9.42 12.318-14.834-29.136 5.414z" fill="#fff"/><path d="M99.628 34.175v3.674h.794v-3.674c0-.266-.177-.48-.395-.48-.218 0-.395.214-.395.48h-.004zm0 16.055c0 .266.177.48.395.48.218 0 .395-.214.395-.48v-3.452h-.794v3.452h.004zm-8.106-8.028c0 .218.214.396.48.396h3.67v-.795h-3.67c-.266 0-.48.177-.48.396v.003zm16.52-.395h-3.448v.795h3.448c.266 0 .48-.178.48-.396 0-.218-.214-.396-.48-.396v-.003zM94.07 36.805l2.596 2.598.561-.562-2.595-2.598c-.189-.188-.466-.214-.62-.059-.156.155-.13.433.058.621zm11.344 11.355c.189.188.465.214.621.06.155-.156.129-.433-.059-.622l-2.441-2.443-.561.562 2.44 2.443zm-11.399.06c.155.155.432.129.62-.06l2.596-2.598-.561-.561-2.596 2.598c-.188.188-.214.465-.059.62zm11.399-11.971l-2.44 2.443.561.562 2.441-2.443c.188-.189.214-.466.059-.621-.156-.155-.432-.13-.621.059z" fill="#E5803C"/></svg>