<svg width="380" height="285" fill="none" xmlns="http://www.w3.org/2000/svg"><path d="M32.076 228.268C5.69 193.709-7.966 75.543 97.124 55.115c30.153-5.858 70.921 13.522 93.817.672 22.896-12.85 27.996-40.042 76.241-44.924 48.244-4.89 69.859 32.715 68.11 65.617-1.758 32.903 27.582 35.082 32.425 61.392 4.43 24.059-28.684 38.808-39.636 61.657-10.952 22.849-7.663 60.696-43.44 70.96-39.855 11.436-51.268-37.144-102.934-15.264-57.095 24.177-116.353 16.639-149.63-26.95v-.007z" fill="url(#paint0_linear_248_63723)"/><path d="M315.471 85.246l-88.743.852a5.672 5.672 0 00-5.617 5.726l1.482 154.342a5.672 5.672 0 005.726 5.617l88.743-.852a5.671 5.671 0 005.617-5.725l-1.482-154.343a5.672 5.672 0 00-5.726-5.617z" fill="#314572"/><path d="M309.569 96.12l-76.738.736a4.914 4.914 0 00-4.866 4.961l.12 12.49a4.914 4.914 0 004.961 4.866l76.737-.737a4.914 4.914 0 004.867-4.96l-.12-12.49a4.914 4.914 0 00-4.961-4.866zm-60.076 38.446l-19.528.188a1.68 1.68 0 00-1.664 1.696l.026 2.726a1.68 1.68 0 001.696 1.663l19.528-.188a1.678 1.678 0 001.663-1.695l-.026-2.726a1.68 1.68 0 00-1.695-1.664z" fill="#F0B644"/><path d="M245.32 148.038l-14.17.136a2.749 2.749 0 00-2.723 2.776l.088 9.225a2.751 2.751 0 002.777 2.723l14.169-.136a2.751 2.751 0 002.724-2.776l-.089-9.225a2.75 2.75 0 00-2.776-2.723z" fill="#BCC1B5"/><path d="M245.316 146.876l-14.17.136a2.749 2.749 0 00-2.723 2.776l.088 9.225a2.749 2.749 0 002.776 2.723l14.17-.136a2.749 2.749 0 002.723-2.776l-.089-9.225a2.749 2.749 0 00-2.775-2.723z" fill="#F2F2F2"/><path d="M267.752 147.83l-14.169.136a2.75 2.75 0 00-2.724 2.776l.089 9.225a2.75 2.75 0 002.776 2.723l14.17-.136a2.75 2.75 0 002.723-2.776l-.088-9.225a2.75 2.75 0 00-2.777-2.723z" fill="#BCC1B5"/><path d="M267.734 146.664l-14.17.136a2.75 2.75 0 00-2.723 2.776l.088 9.225a2.75 2.75 0 002.776 2.724l14.17-.136a2.75 2.75 0 002.723-2.776l-.089-9.226a2.75 2.75 0 00-2.775-2.723z" fill="#F2F2F2"/><path d="M289.802 147.618l-14.17.136a2.75 2.75 0 00-2.723 2.776l.089 9.225a2.748 2.748 0 002.775 2.723l14.17-.136a2.748 2.748 0 002.723-2.776l-.088-9.225a2.75 2.75 0 00-2.776-2.723z" fill="#BCC1B5"/><path d="M289.791 146.453l-14.169.136a2.75 2.75 0 00-2.724 2.776l.089 9.225a2.75 2.75 0 002.776 2.723l14.17-.136a2.749 2.749 0 002.723-2.776l-.088-9.225a2.75 2.75 0 00-2.777-2.723z" fill="#F2F2F2"/><path d="M312.223 147.399l-14.169.136a2.75 2.75 0 00-2.723 2.776l.089 9.225a2.748 2.748 0 002.775 2.723l14.17-.136a2.749 2.749 0 002.723-2.776l-.088-9.225a2.751 2.751 0 00-2.777-2.723z" fill="#BCC1B5"/><path d="M312.213 146.23l-14.169.136a2.75 2.75 0 00-2.724 2.776l.089 9.225a2.749 2.749 0 002.776 2.723l14.17-.136a2.749 2.749 0 002.723-2.776l-.088-9.225a2.751 2.751 0 00-2.777-2.723z" fill="#F2F2F2"/><path d="M245.52 168.017l-14.169.136a2.75 2.75 0 00-2.724 2.776l.089 9.225a2.75 2.75 0 002.776 2.724l14.169-.136a2.751 2.751 0 002.724-2.776l-.089-9.226a2.75 2.75 0 00-2.776-2.723z" fill="#BCC1B5"/><path d="M245.501 166.852l-14.17.136a2.75 2.75 0 00-2.723 2.776l.089 9.225a2.749 2.749 0 002.776 2.723l14.17-.136a2.748 2.748 0 002.722-2.776l-.088-9.225a2.75 2.75 0 00-2.776-2.723z" fill="#F2F2F2"/><path d="M267.942 167.798l-14.17.136a2.75 2.75 0 00-2.723 2.776l.088 9.225a2.75 2.75 0 002.776 2.724l14.17-.136a2.75 2.75 0 002.723-2.776l-.089-9.226a2.75 2.75 0 00-2.775-2.723z" fill="#BCC1B5"/><path d="M267.938 166.633l-14.17.136a2.749 2.749 0 00-2.723 2.776l.089 9.225a2.748 2.748 0 002.775 2.723l14.17-.136a2.748 2.748 0 002.723-2.776l-.089-9.225a2.749 2.749 0 00-2.775-2.723z" fill="#F2F2F2"/><path d="M289.995 167.579l-14.17.136a2.75 2.75 0 00-2.722 2.776l.088 9.225a2.75 2.75 0 002.776 2.724l14.169-.136a2.751 2.751 0 002.724-2.776l-.089-9.226a2.75 2.75 0 00-2.776-2.723z" fill="#BCC1B5"/><path d="M289.985 166.418l-14.17.136a2.75 2.75 0 00-2.723 2.776l.088 9.225a2.75 2.75 0 002.777 2.723l14.169-.136a2.75 2.75 0 002.724-2.776l-.089-9.225a2.75 2.75 0 00-2.776-2.723z" fill="#F2F2F2"/><path d="M312.417 167.372l-14.169.136a2.75 2.75 0 00-2.724 2.776l.089 9.225a2.75 2.75 0 002.776 2.723l14.17-.136a2.75 2.75 0 002.723-2.776l-.088-9.225a2.75 2.75 0 00-2.777-2.723z" fill="#BCC1B5"/><path d="M312.41 166.21l-14.17.136a2.749 2.749 0 00-2.723 2.776l.088 9.225a2.75 2.75 0 002.777 2.723l14.169-.136a2.75 2.75 0 002.723-2.776l-.089-9.225a2.749 2.749 0 00-2.775-2.723z" fill="#F2F2F2"/><path d="M245.713 187.986l-14.17.136a2.75 2.75 0 00-2.723 2.776l.089 9.224a2.75 2.75 0 002.775 2.724l14.171-.136a2.75 2.75 0 002.722-2.776l-.088-9.225a2.749 2.749 0 00-2.776-2.723z" fill="#BCC1B5"/><path d="M245.702 186.824l-14.17.136a2.749 2.749 0 00-2.722 2.776l.088 9.225a2.75 2.75 0 002.776 2.723l14.17-.136a2.75 2.75 0 002.723-2.776l-.089-9.225a2.749 2.749 0 00-2.776-2.723z" fill="#F2F2F2"/><path d="M268.143 187.785l-14.17.136a2.75 2.75 0 00-2.723 2.776l.089 9.225a2.748 2.748 0 002.775 2.723l14.17-.136a2.748 2.748 0 002.723-2.776l-.089-9.224a2.75 2.75 0 00-2.775-2.724z" fill="#BCC1B5"/><path d="M268.124 186.624l-14.17.136a2.75 2.75 0 00-2.723 2.776l.089 9.225a2.75 2.75 0 002.776 2.723l14.169-.136a2.75 2.75 0 002.723-2.776l-.088-9.225a2.75 2.75 0 00-2.776-2.723z" fill="#F2F2F2"/><path d="M290.188 187.57l-14.169.136a2.749 2.749 0 00-2.723 2.776l.088 9.225a2.75 2.75 0 002.776 2.723l14.169-.136a2.75 2.75 0 002.724-2.776l-.089-9.225a2.749 2.749 0 00-2.776-2.723z" fill="#BCC1B5"/><path d="M290.178 186.408l-14.169.136a2.751 2.751 0 00-2.724 2.776l.089 9.225a2.749 2.749 0 002.776 2.723l14.169-.136a2.748 2.748 0 002.723-2.775l-.088-9.225a2.75 2.75 0 00-2.776-2.724z" fill="#F2F2F2"/><path d="M312.615 187.351l-14.17.136a2.75 2.75 0 00-2.723 2.776l.088 9.225a2.75 2.75 0 002.777 2.723l14.169-.136a2.749 2.749 0 002.723-2.776l-.088-9.225a2.75 2.75 0 00-2.776-2.723z" fill="#BCC1B5"/><path d="M312.603 186.186l-14.169.136a2.75 2.75 0 00-2.724 2.776l.089 9.225a2.748 2.748 0 002.776 2.723l14.169-.136a2.748 2.748 0 002.723-2.776l-.089-9.225a2.749 2.749 0 00-2.775-2.723z" fill="#F2F2F2"/><path d="M245.902 207.973l-14.17.136a2.748 2.748 0 00-2.723 2.776l.088 9.225a2.75 2.75 0 002.776 2.723l14.17-.136a2.749 2.749 0 002.723-2.776l-.089-9.225a2.748 2.748 0 00-2.775-2.723z" fill="#BCC1B5"/><path d="M245.891 206.811l-14.169.136a2.75 2.75 0 00-2.724 2.776l.089 9.225a2.75 2.75 0 002.776 2.724l14.169-.137a2.75 2.75 0 002.724-2.775l-.089-9.226a2.75 2.75 0 00-2.776-2.723z" fill="#F2F2F2"/><path d="M268.324 207.761l-14.171.136a2.75 2.75 0 00-2.722 2.776l.088 9.225a2.749 2.749 0 002.776 2.723l14.17-.136a2.75 2.75 0 002.723-2.776l-.089-9.225a2.75 2.75 0 00-2.775-2.723z" fill="#BCC1B5"/><path d="M268.319 206.592l-14.169.136a2.75 2.75 0 00-2.723 2.776l.088 9.226a2.75 2.75 0 002.776 2.723l14.169-.136a2.751 2.751 0 002.724-2.776l-.089-9.225a2.75 2.75 0 00-2.776-2.724z" fill="#F2F2F2"/><path d="M290.377 207.55l-14.169.136a2.75 2.75 0 00-2.724 2.776l.089 9.225a2.75 2.75 0 002.776 2.723l14.17-.136a2.75 2.75 0 002.723-2.776l-.088-9.225a2.75 2.75 0 00-2.777-2.723z" fill="#BCC1B5"/><path d="M290.367 206.388l-14.17.136a2.75 2.75 0 00-2.723 2.776l.088 9.225a2.75 2.75 0 002.777 2.723l14.169-.136a2.75 2.75 0 002.723-2.776l-.089-9.225a2.75 2.75 0 00-2.775-2.723z" fill="#F2F2F2"/><path d="M312.795 207.334l-14.169.136a2.751 2.751 0 00-2.724 2.776l.089 9.225a2.751 2.751 0 002.776 2.724l14.17-.136a2.75 2.75 0 002.722-2.776l-.088-9.225a2.75 2.75 0 00-2.776-2.724z" fill="#BCC1B5"/><path d="M312.791 206.169l-14.17.136a2.75 2.75 0 00-2.723 2.776l.089 9.225a2.749 2.749 0 002.776 2.723l14.17-.136a2.748 2.748 0 002.722-2.776l-.088-9.225a2.75 2.75 0 00-2.776-2.723z" fill="#F2F2F2"/><path d="M309.816 116.712l-76.554.734c-2.75.024-5.023-2.202-5.054-4.96l.024 2.406c.023 2.75 2.296 4.984 5.054 4.96l76.553-.734c2.75-.023 4.984-2.297 4.96-5.054l-.023-2.406c.024 2.75-2.203 5.023-4.96 5.054z" fill="#EEA443"/><path d="M236.16 151.624l4.641-.047v1.07l-2.828 5.406-1.602.015 2.836-5.249-3.031.031-.016-1.226zm24.499 6.31c-1.43.016-2.492-.711-2.508-1.843 0-.789.344-1.258 1.023-1.578-.5-.297-.827-.711-.835-1.414-.008-.992.883-1.789 2.25-1.797 1.367-.015 2.273.766 2.281 1.758 0 .703-.313 1.117-.805 1.429.656.336 1.047.742 1.055 1.524.008 1.21-1.039 1.913-2.469 1.929l.008-.008zm-.055-5.468c-.578 0-.922.359-.914.766 0 .461.368.796.93.796s.922-.343.914-.804c0-.406-.352-.766-.93-.758zm.031 2.679c-.648 0-1.109.305-1.109.813 0 .461.422.805 1.125.797.703 0 1.109-.36 1.109-.821 0-.507-.476-.796-1.125-.789zm22.053 2.595c-.938.008-1.579-.297-2.126-.742l.735-1.086c.476.375.874.547 1.413.539.789 0 1.211-.61 1.297-1.477-.312.274-.742.454-1.304.454-1.398.015-2.312-.751-2.32-2.071-.016-1.304.984-2.273 2.437-2.288.867-.008 1.375.195 1.867.679.469.453.773 1.156.789 2.437.023 2.102-.953 3.539-2.788 3.555zm.186-5.461c-.703 0-1.093.414-1.085 1 0 .578.43.977 1.133.969.703 0 1.101-.414 1.094-.976 0-.579-.431-.993-1.142-.985v-.008zm-42.731 19.233l.039 3.953h.867l.008 1.14h-.868l.016 1.398-1.352.016-.015-1.39-3.148.031-.243-1 3.5-4.132h1.196v-.016zm-1.336 1.961l-1.695 2.023 1.71-.016-.015-2.007zm19.81-2.085l3.961-.039.015 1.242-2.742.023-.062 1.117a2.9 2.9 0 01.844-.117c1.273-.016 2.265.586 2.28 2.054.016 1.375-.944 2.25-2.428 2.266-1.032.008-1.79-.352-2.423-.945l.844-1.031c.492.437.977.687 1.547.687.664 0 1.078-.336 1.071-.914 0-.562-.462-.883-1.149-.875-.406 0-.774.117-1.078.25l-.828-.539.156-3.179h-.008zm25.747 1.442c-.43-.32-.773-.508-1.32-.5-.804 0-1.203.656-1.281 1.508.32-.219.695-.422 1.335-.43 1.281-.016 2.274.687 2.29 2.039.015 1.328-1.039 2.249-2.438 2.265-.835.008-1.413-.227-1.866-.672-.477-.468-.774-1.156-.79-2.445-.015-2 .867-3.538 2.797-3.554.875-.008 1.445.242 2.023.687l-.734 1.102h-.016zm-1.531 1.757c-.703 0-1.101.399-1.093.953 0 .563.429.961 1.132.953.703 0 1.102-.406 1.094-.968 0-.555-.43-.945-1.133-.938zm19.687-1.995l.913-.937 1.61 1.585 1.585-1.617.907.891-1.586 1.617 1.609 1.586-.914.937-1.609-1.586-1.586 1.617-.906-.89 1.586-1.617-1.609-1.586zm-63.704 18.807h.969l.063 6.483-1.398.016-.048-5.062-1.124.289-.305-1.156 1.843-.57zm20.763 1.892l-1-.789c.625-.875 1.243-1.351 2.391-1.359 1.375-.016 2.226.773 2.241 1.976.008 1.078-.538 1.625-1.671 2.524l-1.039.82 2.813-.024v1.227l-4.758.047v-1.125l2.117-1.781c.796-.672 1.101-1.024 1.101-1.563 0-.546-.367-.836-.875-.828-.5 0-.835.282-1.312.875h-.008zm21.497-1.031v-1.219l4.343-.039v1.07l-1.609 1.57c.882.141 1.734.594 1.75 1.797.008 1.227-.867 2.125-2.305 2.141-1.164.007-1.968-.446-2.523-1.094l.968-.938c.446.493.914.766 1.563.758.531 0 .906-.312.906-.804 0-.532-.461-.828-1.273-.821h-.586l-.227-.898 1.524-1.562-2.531.023v.016zm22.954 2.829l-.015-1.344 2.835-.023.016 1.343-2.836.024zm-65.495 23.347c-1.726.016-2.867-1.422-2.89-3.297-.016-1.882 1.117-3.359 2.844-3.374 1.726-.016 2.867 1.421 2.89 3.296.016 1.883-1.117 3.359-2.844 3.375zm-.054-5.39c-.859.008-1.391.867-1.383 2.062.008 1.188.578 2.063 1.437 2.047.859-.008 1.391-.883 1.383-2.062-.008-1.18-.578-2.063-1.437-2.047zm21.526 5.079l-.015-1.476 1.492-.016.016 1.477-1.493.015zm22.336-5.751l1.312-.016.016 1.657 1.664-.016.016 1.273-1.665.016.016 1.656-1.312.016-.016-1.657-1.663.016-.016-1.273 1.664-.016-.016-1.656zm25.051.218l.015 1.273-4.366.039-.016-1.273 4.367-.039zm.024 2.398l.015 1.273-4.367.04-.016-1.274 4.368-.039z" fill="#000"/><path d="M299.402 104.449c0-1.148.344-2.031 1.039-2.656a3.319 3.319 0 012.336-.937c.937-.008 1.734.289 2.39.898.672.61 1.024 1.492 1.055 2.641l.055 5.475c-.008 1.141-.344 2.024-1.008 2.649-.648.617-1.437.937-2.374.961-.907 0-1.696-.305-2.352-.915-.703-.609-1.07-1.484-1.094-2.624l-.054-5.484.007-.008zm5.109.063c-.047-1.242-.617-1.875-1.719-1.883-1.101.031-1.663.672-1.671 1.922l.047 5.273c.031 1.257.601 1.882 1.71 1.882 1.102-.023 1.657-.664 1.68-1.921l-.047-5.273z" fill="#fff"/><path d="M307.513 153.592v1.07l-5.554.055v-1.07l5.554-.055zm-3.538-1.124l-.016-1.477 1.492-.015.016 1.476-1.492.016zm.048 4.961l-.015-1.476 1.492-.016.015 1.477-1.492.015z" fill="#000"/><path d="M221.38 127.761l100.09-1.133" stroke="#032A36" stroke-width=".96" stroke-miterlimit="10"/><path d="M191.655 266.735c20.238 0 36.644-3.133 36.644-6.999 0-3.865-16.406-6.999-36.644-6.999s-36.644 3.134-36.644 6.999c0 3.866 16.406 6.999 36.644 6.999z" fill="#E69200"/><path d="M228.291 252.737h-73.28v6.999h73.28v-6.999z" fill="#E69200"/><path d="M191.655 259.74c20.238 0 36.644-3.133 36.644-6.999 0-3.865-16.406-6.999-36.644-6.999s-36.644 3.134-36.644 6.999c0 3.866 16.406 6.999 36.644 6.999z" fill="#F4CA44"/><path d="M191.657 257.383c16.191 0 29.316-2.098 29.316-4.687 0-2.588-13.125-4.687-29.316-4.687s-29.317 2.099-29.317 4.687c0 2.589 13.126 4.687 29.317 4.687z" fill="#EA9403"/><path d="M191.654 257.138c15.661 0 28.356-1.865 28.356-4.164 0-2.299-12.695-4.163-28.356-4.163-15.661 0-28.356 1.864-28.356 4.163 0 2.299 12.695 4.164 28.356 4.164z" fill="#FFD237"/><path d="M187.253 256.241c20.238 0 36.643-3.134 36.643-6.999 0-3.866-16.405-7-36.643-7s-36.645 3.134-36.645 7c0 3.865 16.407 6.999 36.645 6.999z" fill="#E69200"/><path d="M223.889 242.235h-73.281v7h73.281v-7z" fill="#E69200"/><path d="M187.253 249.235c20.238 0 36.643-3.133 36.643-6.999 0-3.866-16.405-6.999-36.643-6.999s-36.645 3.133-36.645 6.999c0 3.866 16.407 6.999 36.645 6.999z" fill="#F4CA44"/><path d="M187.251 246.882c16.191 0 29.316-2.099 29.316-4.687 0-2.589-13.125-4.687-29.316-4.687-16.192 0-29.317 2.098-29.317 4.687 0 2.588 13.125 4.687 29.317 4.687z" fill="#EA9403"/><path d="M187.251 246.64c15.661 0 28.356-1.864 28.356-4.163 0-2.3-12.695-4.164-28.356-4.164-15.66 0-28.356 1.864-28.356 4.164 0 2.299 12.696 4.163 28.356 4.163z" fill="#FFD237"/><path d="M193.113 248.812c20.238 0 36.644-3.134 36.644-7 0-3.865-16.406-6.999-36.644-6.999s-36.644 3.134-36.644 6.999c0 3.866 16.406 7 36.644 7z" fill="#E69200"/><path d="M229.749 234.813h-73.28v6.999h73.28v-6.999z" fill="#E69200"/><path d="M193.113 241.813c20.238 0 36.644-3.134 36.644-6.999 0-3.866-16.406-7-36.644-7s-36.644 3.134-36.644 7c0 3.865 16.406 6.999 36.644 6.999z" fill="#F4CA44"/><path d="M193.115 239.463c16.191 0 29.316-2.098 29.316-4.687 0-2.588-13.125-4.687-29.316-4.687s-29.317 2.099-29.317 4.687c0 2.589 13.126 4.687 29.317 4.687z" fill="#EA9403"/><path d="M193.116 239.214c15.66 0 28.356-1.864 28.356-4.163 0-2.3-12.696-4.164-28.356-4.164-15.661 0-28.357 1.864-28.357 4.164 0 2.299 12.696 4.163 28.357 4.163z" fill="#FFD237"/><path d="M187.253 238.313c20.238 0 36.643-3.133 36.643-6.999 0-3.865-16.405-6.999-36.643-6.999s-36.645 3.134-36.645 6.999c0 3.866 16.407 6.999 36.645 6.999z" fill="#E69200"/><path d="M223.889 224.307h-73.281v7h73.281v-7z" fill="#E69200"/><path d="M187.253 231.307c20.238 0 36.643-3.134 36.643-6.999 0-3.866-16.405-6.999-36.643-6.999s-36.645 3.133-36.645 6.999c0 3.865 16.407 6.999 36.645 6.999z" fill="#F4CA44"/><path d="M187.251 228.957c16.191 0 29.316-2.098 29.316-4.687 0-2.588-13.125-4.687-29.316-4.687-16.192 0-29.317 2.099-29.317 4.687 0 2.589 13.125 4.687 29.317 4.687z" fill="#EA9403"/><path d="M187.251 228.709c15.661 0 28.356-1.865 28.356-4.164 0-2.299-12.695-4.164-28.356-4.164-15.66 0-28.356 1.865-28.356 4.164 0 2.299 12.696 4.164 28.356 4.164z" fill="#FFD237"/><path d="M192.305 229.444c20.238 0 36.644-3.133 36.644-6.999 0-3.865-16.406-6.999-36.644-6.999-20.239 0-36.645 3.134-36.645 6.999 0 3.866 16.406 6.999 36.645 6.999z" fill="#E69200"/><path d="M228.941 215.446H155.66v6.999h73.281v-6.999z" fill="#E69200"/><path d="M192.305 222.446c20.238 0 36.644-3.134 36.644-7 0-3.865-16.406-6.999-36.644-6.999-20.239 0-36.645 3.134-36.645 6.999 0 3.866 16.406 7 36.645 7z" fill="#F4CA44"/><path d="M192.306 220.096c16.192 0 29.317-2.099 29.317-4.687 0-2.589-13.125-4.687-29.317-4.687-16.191 0-29.317 2.098-29.317 4.687 0 2.588 13.126 4.687 29.317 4.687z" fill="#EA9403"/><path d="M192.307 219.843c15.661 0 28.356-1.864 28.356-4.164 0-2.299-12.695-4.163-28.356-4.163-15.661 0-28.357 1.864-28.357 4.163 0 2.3 12.696 4.164 28.357 4.164z" fill="#FFD237"/><path d="M190.248 217.458c20.238 0 36.644-3.134 36.644-6.999 0-3.866-16.406-7-36.644-7s-36.644 3.134-36.644 7c0 3.865 16.406 6.999 36.644 6.999z" fill="#E69200"/><path d="M226.892 203.459h-73.281v7h73.281v-7z" fill="#E69200"/><path d="M190.248 210.463c20.238 0 36.644-3.134 36.644-6.999 0-3.866-16.406-7-36.644-7s-36.644 3.134-36.644 7c0 3.865 16.406 6.999 36.644 6.999z" fill="#F4CA44"/><path d="M190.25 208.109c16.191 0 29.316-2.098 29.316-4.687 0-2.588-13.125-4.687-29.316-4.687-16.192 0-29.317 2.099-29.317 4.687 0 2.589 13.125 4.687 29.317 4.687z" fill="#EA9403"/><path d="M190.25 207.86c15.661 0 28.356-1.864 28.356-4.163 0-2.3-12.695-4.164-28.356-4.164-15.66 0-28.356 1.864-28.356 4.164 0 2.299 12.696 4.163 28.356 4.163z" fill="#FFD237"/><path d="M185.19 207.442c20.238 0 36.645-3.134 36.645-6.999 0-3.866-16.407-6.999-36.645-6.999-20.238 0-36.644 3.133-36.644 6.999 0 3.865 16.406 6.999 36.644 6.999z" fill="#E69200"/><path d="M221.827 193.444h-73.281v6.999h73.281v-6.999z" fill="#E69200"/><path d="M185.19 200.443c20.238 0 36.645-3.133 36.645-6.999 0-3.866-16.407-6.999-36.645-6.999-20.238 0-36.644 3.133-36.644 6.999 0 3.866 16.406 6.999 36.644 6.999z" fill="#F4CA44"/><path d="M185.191 198.094c16.192 0 29.318-2.099 29.318-4.687 0-2.589-13.126-4.687-29.318-4.687-16.191 0-29.316 2.098-29.316 4.687 0 2.588 13.125 4.687 29.316 4.687z" fill="#EA9403"/><path d="M185.192 197.841c15.661 0 28.356-1.864 28.356-4.164 0-2.299-12.695-4.163-28.356-4.163-15.661 0-28.356 1.864-28.356 4.163 0 2.3 12.695 4.164 28.356 4.164z" fill="#FFD237"/><path opacity=".3" d="M223.829 231.018v-5.023c3.202-1.039 5.046-2.25 5.046-3.546v-7c0-1.078-1.273-2.093-3.538-3.007.961-.625 1.491-1.289 1.491-1.976v-7c0-1.296-1.851-2.507-5.054-3.546v-6.476c0-3.867-16.404-6.999-36.644-6.999s-36.644 3.132-36.644 6.999v6.999c0 1.297 1.851 2.508 5.054 3.547v6.476c0 1.078 1.274 2.093 3.539 3.007-.961.625-1.492 1.289-1.492 1.976v5.32c-3.203 1.039-5.046 2.25-5.046 3.546v7c0 1.398 2.156 2.703 5.858 3.796v3.336c-3.702 1.093-5.858 2.398-5.858 3.796v6.999c0 1.211 1.6 2.344 4.42 3.336 0 .054-.022.109-.022.164v6.999c0 3.867 16.404 6.999 36.644 6.999s36.644-3.132 36.644-6.999v-6.999c0-1.211-1.601-2.343-4.421-3.336 0-.054.023-.109.023-.164v-3.632c3.702-1.094 5.858-2.398 5.858-3.797v-6.999c0-1.398-2.156-2.702-5.858-3.796z" fill="#FCDD41"/><path d="M231.814 275.495c16.2 0 29.332-2.508 29.332-5.601s-13.132-5.601-29.332-5.601c-16.2 0-29.334 2.508-29.334 5.601s13.134 5.601 29.334 5.601z" fill="#E69200"/><path d="M261.138 264.286H202.48v5.601h58.658v-5.601z" fill="#E69200"/><path d="M231.814 269.888c16.2 0 29.332-2.508 29.332-5.601 0-3.094-13.132-5.601-29.332-5.601-16.2 0-29.334 2.507-29.334 5.601 0 3.093 13.134 5.601 29.334 5.601z" fill="#F4CA44"/><path d="M231.814 268.003c12.96 0 23.466-1.678 23.466-3.749s-10.506-3.75-23.466-3.75-23.466 1.679-23.466 3.75c0 2.071 10.506 3.749 23.466 3.749z" fill="#EA9403"/><path d="M231.813 267.798c12.537 0 22.7-1.49 22.7-3.328 0-1.838-10.163-3.327-22.7-3.327-12.537 0-22.701 1.489-22.701 3.327 0 1.838 10.164 3.328 22.701 3.328z" fill="#FFD237"/><path d="M228.291 267.09c16.2 0 29.334-2.508 29.334-5.601s-13.134-5.601-29.334-5.601-29.332 2.508-29.332 5.601 13.132 5.601 29.332 5.601z" fill="#E69200"/><path d="M257.616 255.88h-58.657v5.601h58.657v-5.601z" fill="#E69200"/><path d="M228.291 261.483c16.2 0 29.334-2.508 29.334-5.601 0-3.094-13.134-5.601-29.334-5.601s-29.332 2.507-29.332 5.601c0 3.093 13.132 5.601 29.332 5.601z" fill="#F4CA44"/><path d="M228.288 259.598c12.96 0 23.466-1.679 23.466-3.75 0-2.07-10.506-3.749-23.466-3.749s-23.466 1.679-23.466 3.749c0 2.071 10.506 3.75 23.466 3.75z" fill="#EA9403"/><path d="M228.291 259.396c12.537 0 22.701-1.49 22.701-3.327 0-1.838-10.164-3.328-22.701-3.328s-22.7 1.49-22.7 3.328c0 1.837 10.163 3.327 22.7 3.327z" fill="#FFD237"/><path d="M232.987 261.148c16.199 0 29.332-2.508 29.332-5.601s-13.133-5.601-29.332-5.601c-16.2 0-29.334 2.508-29.334 5.601s13.134 5.601 29.334 5.601z" fill="#E69200"/><path d="M262.311 249.939h-58.658v5.601h58.658v-5.601z" fill="#E69200"/><path d="M232.987 255.537c16.199 0 29.332-2.507 29.332-5.601 0-3.093-13.133-5.601-29.332-5.601-16.2 0-29.334 2.508-29.334 5.601 0 3.094 13.134 5.601 29.334 5.601z" fill="#F4CA44"/><path d="M232.987 253.657c12.96 0 23.466-1.679 23.466-3.75 0-2.071-10.506-3.75-23.466-3.75s-23.466 1.679-23.466 3.75c0 2.071 10.506 3.75 23.466 3.75z" fill="#EA9403"/><path d="M232.986 253.452c12.537 0 22.7-1.49 22.7-3.328 0-1.838-10.163-3.328-22.7-3.328-12.537 0-22.701 1.49-22.701 3.328 0 1.838 10.164 3.328 22.701 3.328z" fill="#FFD237"/><path d="M228.291 252.732c16.2 0 29.334-2.508 29.334-5.601s-13.134-5.601-29.334-5.601-29.332 2.508-29.332 5.601 13.132 5.601 29.332 5.601z" fill="#E69200"/><path d="M257.616 241.53h-58.657v5.601h58.657v-5.601z" fill="#E69200"/><path d="M228.291 247.132c16.2 0 29.334-2.508 29.334-5.601s-13.134-5.601-29.334-5.601-29.332 2.508-29.332 5.601 13.132 5.601 29.332 5.601z" fill="#F4CA44"/><path d="M228.288 245.244c12.96 0 23.466-1.679 23.466-3.75 0-2.07-10.506-3.749-23.466-3.749s-23.466 1.679-23.466 3.749c0 2.071 10.506 3.75 23.466 3.75z" fill="#EA9403"/><path d="M228.291 245.042c12.537 0 22.701-1.49 22.701-3.328 0-1.837-10.164-3.327-22.701-3.327s-22.7 1.49-22.7 3.327c0 1.838 10.163 3.328 22.7 3.328z" fill="#FFD237"/><path d="M232.329 245.64c16.199 0 29.333-2.507 29.333-5.6 0-3.094-13.134-5.602-29.333-5.602-16.2 0-29.333 2.508-29.333 5.602 0 3.093 13.133 5.6 29.333 5.6z" fill="#E69200"/><path d="M261.662 234.438h-58.658v5.602h58.658v-5.602z" fill="#E69200"/><path d="M232.329 240.041c16.199 0 29.333-2.508 29.333-5.602 0-3.093-13.134-5.6-29.333-5.6-16.2 0-29.333 2.507-29.333 5.6 0 3.094 13.133 5.602 29.333 5.602z" fill="#F4CA44"/><path d="M232.325 238.156c12.96 0 23.467-1.679 23.467-3.75 0-2.07-10.507-3.749-23.467-3.749-12.959 0-23.466 1.679-23.466 3.749 0 2.071 10.507 3.75 23.466 3.75z" fill="#EA9403"/><path d="M232.328 237.955c12.537 0 22.701-1.49 22.701-3.328 0-1.838-10.164-3.328-22.701-3.328s-22.7 1.49-22.7 3.328c0 1.838 10.163 3.328 22.7 3.328z" fill="#FFD237"/><path opacity=".3" d="M257.453 245.993v-4.015c2.562-.836 4.038-1.805 4.038-2.836v-5.601c0-3.093-13.131-5.601-29.332-5.601s-29.332 2.508-29.332 5.601v4.258c-2.563.835-4.039 1.804-4.039 2.835v5.601c0 1.117 1.726 2.164 4.687 3.039v2.671c-2.961.875-4.687 1.922-4.687 3.039v5.601c0 .969 1.281 1.875 3.539 2.672 0 .047-.016.086-.016.132v5.601c0 3.094 13.131 5.601 29.332 5.601 16.202 0 29.334-2.507 29.334-5.601v-5.601c0-.968-1.282-1.874-3.539-2.671 0-.047.015-.086.015-.133v-2.906c2.961-.875 4.687-1.921 4.687-3.039v-5.601c0-1.117-1.726-2.163-4.687-3.038v-.008z" fill="#FCDD41"/><path d="M102.871 147.73c.414 7.132.086 9.163 2.031 18.217 3.023 14.021 2.68 10.717 2.969 12.686 1.336 3.46 5.288 18.669 6.749 21.591.086 5.929.976 10.592 2.703 17.81 2.062 8.624 8.053 23.256 11.084 31.262l5.984-1.429c-.875-15.967-3.109-37.886-6.515-62.009-2.18-15.451-.078-29.785-2.46-42.323l-22.545 4.187v.008z" fill="#1E2D54"/><path d="M89.882 146.251c-1.485 7.039-1.735 14.764-1.985 24.021-.382 14.342 2.054 20.888 1.843 22.873.594 3.679 1.329 7.139 2.204 10.319-1.54 5.788-2.438 12.694-2.438 20.122 0 8.867.531 18.905 1.82 27.396h7.296c3.398-15.733 6.859-37.574 9.578-61.821 1.742-15.538 2.968-30.153 3.679-42.902H89.865l.017-.008z" fill="#153F5E"/><path d="M111.386 160.824c8.197 0 14.842-5.075 14.842-11.335 0-6.26-6.645-11.335-14.842-11.335-8.197 0-14.842 5.075-14.842 11.335 0 6.26 6.645 11.335 14.842 11.335z" fill="#153F5E"/><path d="M97.025 256.102h-5.131v-7.562h6.037l-.906 7.562z" fill="#EA9F88"/><path d="M99.23 262.673v-.516a4.65 4.65 0 00-.22-1.461l-1.265-5.062s-1.164.586-2.297.344c-1.14-.242-1.077-1.89-2.288-2.703h-.547s-1.117.375-1.89 2.023c-.563 1.195-.759 3.601-1.118 4.39a74.175 74.175 0 01-1.163 2.406 2.276 2.276 0 00-.821 1.117c-.438 0-.523.016-.008.04a2.67 2.67 0 00-.132.804v1.094h12.146v-1.094c0-.523-.155-1-.405-1.382h.007zm-4.375-.907v.016h-.352v-.016h.352z" fill="#16415D"/><path d="M135.469 254.764l-4.273 1.313-2.211-7.226 5.031-1.547 1.453 7.46z" fill="#EA9F88"/><path d="M126.813 260.066l1.851-5.219s2.734.61 4.406.352c1.672-.25 1.663-1.773 2.327-2.781h2.227s2.922 5.187 8.655 6.476h4.297c1 0 1.82 1.203 1.82 2.679v1.188h-18.069l-.914-1.586h-.507v1.586h-6.429v-1.188c0-.554.117-1.078.32-1.507h.016z" fill="#16415D"/><path d="M99.717 79.373a14.198 14.198 0 006.148 1.39c2.538 0 4.913-.664 6.929-1.796-.797-1.328-1.274-3.055-1.274-4.945 0-2.578.891-4.859 2.25-6.218v-3.226h-8.211c-.359 6.015-2.577 11.295-5.842 14.81v-.015z" fill="#EA9F86"/><path d="M117.934 59.649c.344-4.703-4.781-5.242-8.546-5.515-2.422-.18-4.609.008-6.195 2.398-.398-.57-1.273.445-1.89.422-1.281-.047-2.086.351-2.156 2.164-.07 1.804.625 4.335 1.906 4.39.062 0 .125-.016.18-.016.047 1.477-.5 2.601.133 3.804 1.242 2.36 4.343 4.328 6.585 4.976 7.311 2.117 9.631-7.905 9.975-12.608l.008-.015z" fill="#EBB190"/><path d="M123.049 54.883c.399-3.78-.773-6.21-6.835-6.929-4.031-.476-10.858-.515-15.178.344-4.405.875-3.78 4.304-3.609 5.788.422 3.664 1.508 9.062 3.297 9.64.414.133.765.047 1.078-.18-.594-.367-1.102-1.047-1.344-1.906-.398-1.445.109-2.812 1.148-3.062.852-.203 1.774.414 2.305 1.43 1.367-2.578 3.421-5.133 8.491-2.79 5.546 2.555 10.241 1.446 10.64-2.335h.007z" fill="#1C3054"/><path d="M102.992 109.736c11.499 0 22.451-.602 32.411-1.696-.547-14.193-9.156-26.059-20.896-30.059-1.828 1.594-4.547 2.602-7.578 2.602-3.351 0-6.312-1.235-8.117-3.117-12.756 3.43-22.278 16.006-22.637 31.121 8.413.742 17.435 1.149 26.825 1.149h-.008z" fill="#729EDB"/><path d="M134.753 107.401l.64 11.101c-5.999 1.421-9.842 3.945-11.123 7.858-2.273-2.484-3.57-6.655-3.905-12.498-.079-1.352-.102-3.438 0-4.711l14.388-1.742v-.008z" fill="#EA9F87"/><path d="M124.239 126.577c1.047-6.5 5.194-7.726 10.459-8.343l23.138-1.336c.625-1.141 2.164-2.086 4.172-2.57.367-.086.835.445.851.804.094 1.633-.961 3.156 2.242 3.063 1.476-.039 4.421-.211 5.991-.508.399-.078 1.75-.055.922 1.14-1.305 1.883-4.468 4.375-7.897 4.469-2.172.062-3.859-.782-4.992-1.914-7.398 3.312-20.888 7.062-28.551 7.288-2.57.078-4.68-.625-6.344-2.093h.009z" fill="#EFB290"/><path d="M90.489 148.407h35.128c.805 0 .648-2.242.539-2.563-.672-2.015-1.367-2.562-1.812-4.843-.711-3.624-1.109-7.562-1.109-11.756 0-13.241 3.984-25.755 9.218-33.137-3.469-8.6-10.148-15.249-18.358-18.045-1.828 1.593-4.546 2.601-7.577 2.601-3.351 0-6.312-1.234-8.116-3.117C88.786 80.133 80.998 87.93 77.6 98.084c7.593 3.351 13.326 18.678 13.326 37.098 0 2.882-.149 5.679-.414 8.374-.149 1.468-.766 2.101-.844 2.624-.211 1.461.414 2.227.836 2.227h-.015z" fill="#729EDB"/><path d="M91.447 107.506l-.414 13.295c-6.562 1.289-10.92 4.039-12.678 8.624-2.187-3.125-3.156-8.186-2.937-15.194.055-1.624.234-4.108.468-5.624l15.561-1.101z" fill="#EA9F87"/><path d="M78.3 129.685c1.758-7.687 6.328-8.866 12.015-9.249l24.872-.016c.789-1.32 2.523-2.343 4.718-2.781.406-.078.844.594.836 1.016-.062 1.953-1.336 3.703 2.094 3.812 1.585.047 4.749.047 6.46-.203.43-.063 1.875.054.875 1.429-1.586 2.164-5.21 4.914-8.889 4.797-2.328-.071-4.055-1.196-5.149-2.625-8.241 3.445-23.044 7.007-31.254 6.749-2.757-.086-4.937-1.07-6.57-2.937l-.007.008z" fill="#EFB290"/><path d="M167.115 10.515v7.765h1.68v-7.765c0-.562-.375-1.015-.836-1.015-.461 0-.836.453-.836 1.015h-.008zm.004 33.935c0 .562.375 1.015.836 1.015.461 0 .835-.453.835-1.015v-7.296h-1.679v7.296h.008zm-17.148-16.97c0 .462.453.837 1.015.837h7.765v-1.68h-7.765c-.562 0-1.015.375-1.015.836v.008zm34.949-.832h-7.296v1.68h7.296c.562 0 1.015-.375 1.015-.836 0-.46-.453-.836-1.015-.836v-.008zM155.361 16.08l5.491 5.492 1.187-1.187-5.491-5.492c-.399-.398-.984-.453-1.312-.125-.329.328-.274.914.125 1.313zm23.995 23.996c.399.398.984.453 1.312.125.328-.328.274-.914-.125-1.313l-5.163-5.163-1.188 1.187 5.164 5.164zm-24.12.123c.328.328.913.273 1.312-.125l5.491-5.492-1.187-1.188-5.491 5.492c-.399.398-.454.984-.125 1.313zm24.12-25.306l-5.164 5.164 1.188 1.187 5.163-5.163c.399-.399.453-.985.125-1.313-.328-.328-.913-.273-1.312.125z" fill="#E5803C"/><path d="M191.932 135.199h-7.109v-4.257h7.109v-7.538h4.367v7.538h7.108v4.257h-7.108v7.538h-4.367v-7.538z" fill="#729EDB"/><defs><linearGradient id="paint0_linear_248_63723" x1="190.711" y1="10.431" x2="190.711" y2="272.259" gradientUnits="userSpaceOnUse"><stop stop-color="#F6FBFF"/><stop offset="1" stop-color="#EAF0F9"/></linearGradient></defs></svg>