<svg width="164" height="123" fill="none" xmlns="http://www.w3.org/2000/svg"><path d="M8.68 85.87C-.402 71.487.41 25.22 45.282 21.316c12.874-1.12 28.78 7.936 39.017 3.833 10.24-4.102 13.856-14.433 34.21-14.488 20.351-.054 27.283 15.33 24.744 28-2.54 12.67 9.553 14.634 10.122 25.004.521 9.485-14.075 13.932-19.889 22.359-5.817 8.427-6.528 23.205-21.985 25.815-17.22 2.909-19.298-16.333-42.01-9.832-25.099 7.184-49.352 2.007-60.81-16.135z" fill="url(#paint0_linear_248_64466)"/><path d="M73.797 37.803c0-.168 0-.336-.008-.5 0-.072-.005-.143-.008-.214-.005-.13-.008-.26-.016-.385-.006-.108-.014-.212-.022-.317-.005-.084-.01-.171-.019-.255a14.607 14.607 0 00-.057-.543c-.282.396-.564.8-.844 1.21-.1.147-.197.296-.298.445-.179.269-.36.54-.537.814l-.318.5c-.168.265-.339.534-.504.805-.1.166-.201.331-.299.496-.168.283-.336.565-.502.85l-.122.206.03-.046c-2.483 4.322-4.417 8.972-4.867 13.055v-.07c-.014.117-.02.228-.03.342l-.025.268c-.021.285-.037.57-.043.85a.133.133 0 00-.06.051c-.333.648-.645 1.305-1.033 1.924-.833-1.2-1.669-2.393-2.529-3.568.334-.773.7-1.563.765-2.396.111-.14.22-.282.32-.426.038-.054.074-.111.112-.165.084-.125.165-.25.244-.377l.114-.19c.073-.128.143-.258.214-.391.03-.06.062-.117.092-.176a9.09 9.09 0 00.26-.57c.006-.011.009-.022.014-.033.076-.184.147-.369.212-.556l.065-.198c.043-.136.087-.271.125-.41.022-.073.04-.149.06-.222l.04-.15a.132.132 0 00-.01.03c1.082-4.305-.245-9.447-1.859-13.57 0-.006-.003-.009-.006-.014-.26-.662-.526-1.3-.792-1.902-.016-.038-.032-.076-.049-.111a58.702 58.702 0 00-.36-.795c-.028-.063-.057-.122-.085-.182-.12-.255-.238-.505-.352-.74a12.9 12.9 0 00-.236.64c-.033.097-.063.195-.095.293-.041.122-.082.244-.12.366-.032.106-.06.212-.089.317a12.78 12.78 0 00-.177.673c-.032.13-.062.258-.092.388-.021.098-.04.198-.062.296-.03.138-.057.277-.084.415-.02.095-.033.19-.05.285-.024.146-.05.29-.072.44l-.041.279c-.022.15-.043.298-.062.45l-.033.285c-.016.15-.033.296-.046.448l-.011.103c0-.005 0-.014.003-.022-.166 1.81-.15 3.677.013 5.502v-.008a43.84 43.84 0 00.063.621l.013.139c.022.203.05.407.076.61.006.038.008.076.014.114.027.212.06.42.092.627.005.03.008.057.014.087a46.357 46.357 0 00.119.708c.04.223.081.442.125.66 0 .013.005.024.008.037.046.223.092.445.14.665 0 .008.004.014.007.022.49 2.192 1.182 4.167 1.994 5.708-.066.757-.38 1.476-.69 2.179a72.204 72.204 0 00-3.478-4.412c-.103-.211-.209-.418-.312-.637-.081-.171-.165-.345-.247-.521-.095-.198-.187-.4-.282-.603-.269-.575-.54-1.164-.822-1.777v.003c-1.026-2.22-2.168-4.648-3.587-7.054a32.134 32.134 0 00-4.693-6.105l.024.02c-.054-.058-.111-.112-.166-.166l-.124-.125a46.023 46.023 0 00-.649-.627l-.114-.105a28.893 28.893 0 00-.684-.614 33.331 33.331 0 00-.78-.643c-.204-.16-.408-.314-.608-.46-.05-.036-.095-.071-.144-.104a20.095 20.095 0 00-.6-.412c-.03-.02-.062-.038-.092-.06-.184-.12-.37-.23-.548-.337l-.098-.056a9.34 9.34 0 00-.559-.296l-.12-.06a7.82 7.82 0 00-.618-.268 7.324 7.324 0 00-.52-.177c.056.18.119.372.181.57a.902.902 0 00.027.079c.057.17.114.35.177.534l.046.136c.07.206.14.418.22.637l.1.282.125.348c.024.068.046.133.073.2 0-.005 0-.01-.003-.016 1.46 3.937 4.151 9.602 9.49 14.494-.016-.011-.03-.025-.045-.035.092.084.187.168.282.252l.236.211c.203.18.412.359.624.535.051.043.1.087.152.13.271.223.545.445.827.665l.111.084c.242.187.489.372.741.553.079.057.16.117.242.174.217.155.436.31.662.461.09.06.179.122.271.182.23.155.467.307.705.456l.245.155c.184.114.371.225.558.336a70.333 70.333 0 012.61 3.229c-.84-.29-1.633-.608-2.357-1.148a9.24 9.24 0 00-.518-.57c-.046-.049-.09-.097-.139-.144 0 .009.011.02.017.028-3.671-3.68-10.576-5.901-15.156-7.006-.657-.16-1.435-.282-2.23-.38l-.139-.016c-.184-.021-.368-.043-.553-.062a5.464 5.464 0 00-.223-.022l-.268-.024-.233-.022-.245-.022-.42-.032c-.068-.006-.13-.008-.195-.014-.09-.005-.177-.014-.264-.019a70.335 70.335 0 01-.467-.027c-.04 0-.083-.005-.121-.008-.125-.008-.245-.014-.358-.02-.041 0-.08-.002-.12-.005-.081-.002-.157-.008-.23-.01-.03 0-.06 0-.09-.003l-.242-.011h-.024a16.562 16.562 0 01-.206-.008h-.046c-.041 0-.074 0-.098-.003h-.06c.082.144.177.285.274.429.03.046.066.09.098.133.076.106.16.211.244.315.033.04.065.084.1.124.114.136.237.269.367.402l.14.14c.093.093.188.185.286.275l.187.17a11.882 11.882 0 00.678.564c.068.053.13.107.201.159 0 0-.003-.006-.005-.006 4.031 3.069 11.17 5.581 16.324 6.105h-.002.027l.198.016c.165.016.328.027.488.038.076.005.15.008.225.014.16.008.318.016.473.018.057 0 .116.003.173.006.212.003.42.003.622 0h.04c.185-.006.367-.016.54-.03a9.361 9.361 0 00.564-.062l.139-.02a7.39 7.39 0 00.28-.05c.78.53 1.635.848 2.539 1.152a.129.129 0 00.054.006c1.107 1.46 2.17 2.949 3.22 4.455-.593.062-1.188.154-1.782.184a26.777 26.777 0 00-2.024-.787.037.037 0 01-.016-.005h.002c-3.524-1.21-7.862-1.98-11.883-2.138-2.613-.2-5.725.236-8.302.505-.575.056-1.164.146-1.745.263l.011-.003c-.211.04-.42.087-.627.136-.062.013-.124.032-.19.046-.176.043-.352.09-.526.135l-.22.063a27.49 27.49 0 00-.553.168c-.04.014-.081.024-.122.038a17.169 17.169 0 00-.798.29c-.155.06-.3.122-.447.188-.057.024-.114.048-.169.075a8.79 8.79 0 00-.531.261c.303.117.613.239.922.364l1.072.428c.038.017.076.03.114.044.328.13.659.257.993.38.019.008.038.013.06.021a27.776 27.776 0 001.066.372c.816.266 1.644.488 2.488.627 2.631.434 4.767.588 7.29.849a35.907 35.907 0 0011.824-1.338c-.036.014-.066.027-.103.04.195-.053.39-.118.585-.175.182-.055.367-.109.551-.166a33.14 33.14 0 001.28-.429c.65-.032 1.295-.143 1.949-.2.485.697.968 1.397 1.454 2.1-.619.176-1.232.358-1.853.512a59.17 59.17 0 00-1.004.02l-.445.016c-.212.008-.423.016-.64.03a31.977 31.977 0 00-1.164.078 262.344 262.344 0 01-.646.052h.022c-3.826.363-8.256 1.321-12.51 3.549l.035-.022c-.174.09-.345.195-.518.29-.29.16-.58.315-.871.486-.212.124-.418.266-.627.398-.255.163-.513.318-.768.492-.293.2-.58.417-.87.632-.166.122-.334.236-.5.363-.453.353-.9.722-1.343 1.113.103.049.212.092.323.13l.12.04c.073.025.143.05.22.071.048.014.1.027.151.038.068.016.136.035.206.049a23.586 23.586 0 00.372.068l.18.024c.067.008.135.017.203.022l.19.016c.067.006.135.008.206.014l.2.008c.068 0 .136 0 .204.003h.212c.065 0 .13-.003.195-.006.076 0 .152-.002.23-.008.05 0 .098-.005.147-.01.331-.022.67-.055 1.012-.101l.12-.016c.105-.014.211-.033.317-.05.04-.005.081-.013.125-.018.108-.02.217-.038.325-.057l.12-.022c.11-.022.225-.043.339-.068.032-.008.068-.013.1-.022.12-.024.242-.051.36-.078l.066-.016c.133-.03.263-.063.396-.095h.006l.325-.082h-.01c2.075-.545 4.118-1.337 5.645-2.021a95.114 95.114 0 003.487-1.633c.024-.014.051-.025.076-.038.247-.122.496-.247.743-.375l.046-.024c.236-.12.47-.242.703-.364l.212-.114c.181-.097.363-.195.542-.293.07-.04.144-.078.215-.12.2-.11.398-.222.594-.335.038-.022.078-.047.116-.068.233-.136.462-.272.684-.41l.12-.073c.176-.109.347-.217.51-.326.06-.04.119-.078.178-.12a14.438 14.438 0 00.581-.406c.177-.128.347-.258.502-.383.648-.16 1.289-.355 1.932-.534h.002l1.135 1.641c.396.573.89 1.283 1.446 2.095-.014 0-.03 0-.044.005-.694.236-1.38.486-2.01.882-.23.079-.475.155-.727.225-.04.011-.082.025-.125.035-.247.068-.502.13-.762.19-2.187.505-4.808.817-6.892 1.872-1.788.931-4.398 2.841-6.611 4.743 0 0 0-.003.002-.005l-.038.032c-.06.052-.117.1-.174.152-.135.12-.27.236-.404.353l-.244.22-.328.298c-.079.07-.155.144-.231.214-.168.155-.331.31-.486.461-.054.052-.102.104-.154.155a19.15 19.15 0 00-.331.331l-.176.182-.285.301a21.232 21.232 0 00-.516.58c.171.05.345.088.521.12.076.014.157.022.233.033.1.013.204.03.307.038.092.008.184.01.277.013a4.255 4.255 0 00.572.003c.092-.003.185-.006.28-.014.097-.008.198-.019.298-.03.095-.01.192-.019.288-.032.1-.014.2-.03.3-.049.101-.016.199-.035.3-.054.1-.02.2-.044.3-.065l.312-.076c.1-.027.198-.052.299-.082.049-.013.095-.024.144-.038-.008 0-.02 0-.025.003 3.096-.92 6.477-3.136 9.304-5.42l-.006.005.024-.02c.223-.178.44-.357.654-.537.057-.048.114-.094.171-.143.163-.139.323-.274.48-.41l.19-.166c.155-.135.307-.268.456-.404l.158-.14c.192-.174.382-.348.567-.52l.008-.007c.19-.177.371-.35.55-.521.046-.046.093-.09.139-.133.125-.122.25-.242.369-.36a35.465 35.465 0 00.489-.491l.138-.142c.144-.15.284-.296.415-.437a.072.072 0 00.03-.014c.634-.417 1.337-.656 2.037-.897.04-.014.065-.041.073-.071.543.787 1.148 1.666 1.796 2.61-.002.005-.008.005-.01.01-.375.755-.722 1.558-1.303 2.18a9.844 9.844 0 00-.477.17c-.046.017-.093.036-.139.052a19.75 19.75 0 00-.65.271c-.05.022-.101.046-.153.068-.222.1-.447.206-.678.323-.013.008-.03.013-.043.022a30.453 30.453 0 00-.869.46c-.238.134-.483.272-.724.419-.049.027-.095.057-.144.087-.255.154-.51.311-.765.477 0 0-.003 0-.005.003-.26.168-.521.344-.782.526a33.338 33.338 0 00-.933.667c-1.75 1.303-3.457 2.841-4.876 4.48.009-.008.014-.02.022-.03a8.891 8.891 0 00-.138.166c-.063.075-.128.149-.19.225-.076.092-.152.181-.225.274l-.187.236-.212.274c-.06.078-.12.16-.18.239l-.197.274c-.057.078-.111.16-.166.238-.062.093-.127.185-.19.28-.051.079-.103.16-.152.239a11.174 11.174 0 00-.317.524 12.67 12.67 0 00-.301.545c-.044.084-.093.17-.133.255-.087.173-.168.344-.244.518.176-.065.36-.136.55-.206.06-.022.12-.046.182-.071l.418-.165.2-.082c.196-.079.392-.16.595-.247l.155-.068c.157-.067.317-.138.477-.209.087-.037.174-.078.263-.116l.41-.187a32.18 32.18 0 001.129-.548c.149-.076.298-.15.447-.228.095-.05.19-.098.285-.15l.44-.236c.062-.032.122-.065.184-.1l-.019.008c2.95-1.636 5.888-3.817 7.437-6.468.068-.117.136-.236.198-.353a12.727 12.727 0 00.236-.483c.03-.062.057-.127.084-.19.054-.124.103-.252.15-.377a6.42 6.42 0 01.048-.127c.052-.15.098-.299.141-.45.017-.058.03-.114.046-.174a8.85 8.85 0 00.082-.35c.01-.057.024-.111.032-.168.022-.12.038-.24.055-.358.58-.61.939-1.4 1.305-2.152 1.297 1.891 2.761 4.034 4.248 6.235-.526.504-1.11.925-1.687 1.362-.34.06-.681.125-1.023.192-.092.02-.184.038-.277.06-.304.065-.61.139-.917.217-.057.014-.114.025-.17.04h.013c-1.5.402-3.023.991-4.599 1.984-2.632 1.658-4.84 3.478-7.062 5.882.019-.022.04-.046.057-.068l-.163.18c-.06.065-.122.132-.182.2-.29.323-.583.651-.876.993a7.546 7.546 0 00.437.09c.125.021.25.043.377.06h.022c.122.016.246.027.371.037.027 0 .057.006.084.006.136.008.272.013.413.016h.049a6.357 6.357 0 00.477-.019c.147-.01.296-.027.45-.049.025-.002.05-.008.074-.01a9.59 9.59 0 00.428-.08c.027-.005.057-.01.085-.018.162-.038.33-.082.502-.133l.03-.008h-.011a9.98 9.98 0 001.503-.605c3.253-1.626 6.934-4.138 9.14-7.29l-.008.016c.008-.011.013-.022.022-.033.138-.198.268-.399.393-.602.03-.049.065-.098.095-.147.141-.233.271-.469.393-.708.58-.44 1.164-.862 1.696-1.367 3.78 5.586 7.684 11.474 9.366 14.38.12.206.42-.033.304-.237-1.248-2.157-3.856-6.183-6.694-10.453.73-.356 1.487-.711 2.07-1.305a.113.113 0 00.025-.038c.022 0 .043-.006.062-.008.253-.066.497-.141.736-.226l.116-.04a9.36 9.36 0 00.66-.266c.04-.02.078-.035.119-.055.214-.097.426-.203.63-.314.016-.011.035-.02.05-.03.196-.109.383-.22.568-.34.03-.018.06-.034.087-.053.14-.093.276-.185.412-.283l-.043.025c2.325-1.655 3.763-3.98 4.978-5.277 1.94-2.07 2.787-4.295 3.297-6.064.154-.535.28-1.031.393-1.465-.09 0-.184.01-.282.03l-.084.016c-.084.019-.168.04-.258.07-.019.006-.038.011-.06.02a3.161 3.161 0 00-.325.133l-.106.048a3.592 3.592 0 00-.266.139l-.106.057a9.157 9.157 0 00-.358.217c-.04.024-.078.054-.119.078-.092.063-.185.125-.28.193a11 11 0 00-.524.393l-.108.087a23.45 23.45 0 00-.32.26c-.049.041-.098.085-.15.126a34.514 34.514 0 00-.428.377c-.15.133-.298.274-.447.415-.033.032-.068.062-.1.095-.172.162-.34.325-.514.496.006-.003.009-.008.014-.01-1.84 1.836-3.752 4.183-5.18 6.316 0-.003.006-.009.006-.011l-.049.073a.593.593 0 00-.043.068c-.011.016-.022.03-.03.046l-.005.005c-.109.163-.212.323-.313.483-.002.006-.008.011-.01.016l-.033.052c0 .003-.005.005-.005.01a5.783 5.783 0 00-.109.172s0 .005-.005.008c-.038.062-.073.122-.111.182-.05.078-.095.154-.142.233-.021.035-.046.073-.065.109a.082.082 0 01-.013.019l-.09.157-.005.01-.073.131-.041.07c-.025.047-.052.09-.076.136 0 .006-.006.014-.011.02-.027.045-.052.094-.076.14a.113.113 0 01-.016.027c-.025.05-.052.098-.076.147-.003.003-.003.008-.006.01l-.081.16v.004l-.073.146-.017.033c-.019.04-.04.078-.056.119l-.017.033a.02.02 0 01-.005.01l-.02.041-.04.09-.065.146a.092.092 0 00-.01.025c-.017.038-.033.076-.05.11a.243.243 0 01-.016.036c-.014.035-.027.07-.044.103a.166.166 0 01-.013.033 14.84 14.84 0 00-.1.257.174.174 0 00-.011.036.13.13 0 00-.011.035c-.006.014-.008.027-.014.038 0 .005-.005.014-.005.019-.005.014-.011.024-.014.038-.01.03-.019.062-.03.092-.002.008-.005.02-.01.03l-.036.117a.05.05 0 01-.005.019c-.011.032-.016.062-.027.092l-.008.038c-.006.024-.014.049-.02.076 0 .01-.005.022-.007.032a1.54 1.54 0 00-.02.087c0 .006 0 .014-.002.02l-.016.1a.065.065 0 01-.006.024l-.008.073v.03c0 .02-.003.035-.005.054-.578.573-1.316.912-2.027 1.262a728.2 728.2 0 00-3.123-4.656c.57-.534 1.04-1.153 1.546-1.744.228-.122.45-.247.668-.372.073-.04.144-.084.214-.125.301-.176.597-.358.882-.542.052-.033.1-.068.152-.1.26-.172.518-.348.77-.524l.142-.098c.276-.198.545-.399.81-.605.058-.046.117-.09.174-.136.253-.198.505-.398.752-.607a55.022 55.022 0 002.727-2.464c.648-.618 1.142-1.107 1.573-1.606-.002.005-.008.01-.01.016.03-.032.057-.068.084-.1l.089-.106a11.22 11.22 0 00.34-.437c.086-.12.173-.241.257-.369.022-.032.043-.068.065-.1.087-.133.174-.274.263-.42l.05-.085c.094-.163.189-.33.287-.513.911-1.698 1.389-3.264 1.508-4.72a30.08 30.08 0 00-2.892 1.633c-.111.07-.228.152-.345.236-.032.024-.067.051-.103.076-.09.068-.181.138-.276.214-.036.027-.068.054-.104.082-.122.1-.246.203-.371.314l-.006.006a21.31 21.31 0 00-.407.366l-.081.076a19.49 19.49 0 00-.334.317l-.09.087-.374.372c-.008.01-.019.019-.027.027a29.445 29.445 0 00-.51.532c-.084.087-.165.176-.247.263l-.084.09c.003 0 .005-.006.008-.009-.57.616-1.09 1.213-1.486 1.69a18.46 18.46 0 00-2.19 3.042c0-.005.006-.008.006-.013a36.954 36.954 0 00-1.693 3.551c0 .003 0 .005-.003.008-.12.288-.236.578-.353.871-.502.58-.96 1.194-1.52 1.723a759.224 759.224 0 00-3.171-4.656c.57-.54 1.042-1.161 1.557-1.755.917-.323 2.96-1.463 5.126-3.256a2.82 2.82 0 00.103-.084c.11-.092.222-.19.333-.285.068-.06.136-.117.204-.176l.247-.223.255-.23c-.003 0-.008.005-.011.008 1.435-1.33 2.843-2.93 3.942-4.756 0 0 0 .005-.003.005.272-.453.524-.92.755-1.4.027-.054.049-.111.076-.168.084-.185.168-.366.246-.554.074-.179.142-.358.207-.54.024-.067.054-.133.078-.2a13.03 13.03 0 00.698-3.158 25.97 25.97 0 00-1.438.97c-.359.259-.711.525-1.053.796-.07.054-.136.114-.206.168-.293.239-.578.48-.858.727-.081.073-.165.144-.244.215-.312.282-.613.567-.906.857-.081.079-.157.16-.236.239-.25.252-.494.51-.727.765-.054.06-.114.122-.168.181-.008.011-.02.02-.027.03 0 0 .008-.008.013-.01a23.506 23.506 0 00-2.38 3.136 570.819 570.819 0 00-3.507 5.651l-.073.12-.142.233-.103.174-.087.146-.092.155a2.333 2.333 0 01-.07.12c-.022.034-.044.075-.063.108l-.008.005c-.529.597-1.001 1.235-1.576 1.783a303.047 303.047 0 00-3.194-4.57c.475-.667 1.02-1.288 1.444-1.988.002-.005 0-.01.002-.016.155-.098.31-.201.465-.307l.162-.114c.2-.14.402-.285.602-.44l.041-.032c.198-.152.4-.312.597-.475l.166-.138c.208-.176.42-.355.629-.543l.016-.016a30.435 30.435 0 00.77-.719 30.85 30.85 0 001.393-1.44c2.81-3.104 5.233-7.047 5.765-10.566v.009c.003-.022.003-.044.008-.068a9.56 9.56 0 00.095-1.625c-.084.03-.17.07-.258.114l-.076.04a3.21 3.21 0 00-.295.18c-.066.043-.13.086-.198.138-.036.024-.068.051-.103.078a9.272 9.272 0 00-.21.166l-.105.087c-.076.065-.155.135-.234.206-.03.027-.06.051-.09.081-.108.1-.219.207-.333.32-.105.104-.212.215-.32.326 0 0 .006-.003.006-.005-1.327 1.392-2.857 3.45-4.282 5.708 0-.003.003-.005.006-.008-.02.03-.038.06-.055.09-.081.13-.162.263-.246.393-.044.068-.085.138-.128.206-.081.133-.16.263-.239.396-.04.068-.081.139-.122.206a30.716 30.716 0 00-.347.597c-.082.144-.166.285-.247.429-.022.04-.044.081-.068.12-.304.54-.594 1.08-.87 1.614-.009.019-.02.035-.028.054-.076.146-.15.293-.22.44-.03.06-.06.116-.086.176-.066.133-.13.266-.193.399-.033.07-.068.138-.1.208-.06.128-.12.253-.177.378l-.103.225c-.054.12-.108.239-.16.358l-.103.236c-.049.114-.098.228-.144.342a8.35 8.35 0 00-.1.244c-.044.108-.087.214-.128.323-.032.087-.065.17-.098.255a8.866 8.866 0 00-.11.296c-.036.097-.069.195-.104.293-.027.081-.057.162-.084.244-.04.122-.079.244-.114.363-.013.009-.03.011-.04.03-.413.681-.937 1.286-1.403 1.932-1.083-1.508-2.133-3.033-3.186-4.553.415-.654.747-1.348 1.102-2.037l.448-.12c.227-.065.447-.149.664-.241.07-.03.141-.065.212-.098a5.601 5.601 0 00.648-.35c.147-.092.29-.19.435-.293l.16-.114c4.058-3.117 5.776-11.02 5.765-16.352v-.1h-.052z" fill="#D9E7F4"/><path d="M141.252 39.639H63.475c-2 0-3.622 1.621-3.622 3.622v50.928c0 2 1.622 3.622 3.622 3.622h77.777a3.622 3.622 0 003.622-3.622V43.26c0-2-1.621-3.622-3.622-3.622z" fill="#C5DAEF"/><path d="M141.252 40.057H63.475a3.633 3.633 0 00-3.622 3.622v46.24h85.021v-46.24a3.633 3.633 0 00-3.622-3.622z" fill="#2F61A8"/><path d="M111.102 97.81H93.629v7.671h17.473v-7.67z" fill="#7AA9D7"/><path d="M141.893 43.26H62.838v43.044h79.055V43.26z" fill="#D7E7F5"/><path d="M103.963 92.059h-3.199a1.278 1.278 0 000 2.555h3.199a1.278 1.278 0 100-2.555z" fill="#7AA9D7"/><path d="M118.346 108.251v-.426a2.352 2.352 0 00-2.344-2.345H88.727a2.352 2.352 0 00-2.344 2.345v.426h31.963z" fill="#C5DAEF"/><path d="M137.966 84.552c0 .177-.355.318-.789.32l-68.626.342c-.437 0-.792-.135-.795-.312l-.244-37.728c0-.174.353-.318.79-.32l68.625-.342c.437 0 .792.138.795.312l.244 37.728z" fill="#fff"/><path d="M75.682 58.236l2.222 1.46a3.485 3.485 0 013.155-3.223l1.454-2.211-1.481-2.252a7.942 7.942 0 00-7.589 7.697l2.241-1.473-.002.002z" fill="#729EDB"/><path d="M83.089 54.263L81.64 56.47a3.488 3.488 0 013.215 3.21l2.222 1.46 2.238-1.471a7.945 7.945 0 00-7.708-7.662l1.484 2.257h-.002z" fill="#083E7F"/><path d="M79.607 65.658l1.473-2.241a3.487 3.487 0 01-3.171-3.14l-2.228-1.465-2.236 1.471a7.942 7.942 0 007.621 7.594l-1.46-2.222v.003z" fill="#F4A82F"/><path d="M87.076 61.719l-2.224-1.463a3.485 3.485 0 01-3.191 3.164l-1.474 2.24 1.46 2.223a7.943 7.943 0 007.668-7.635l-2.239 1.47z" fill="#fff"/><path d="M124.409 56.631l-.182 24.328 1.825.014.183-24.328-1.826-.014z" fill="#729EDB"/><path d="M121.76 61.394l-.147 19.547 1.826.014.147-19.547-1.826-.014zm7.909-8.61L129.457 81l1.826.014.212-28.216-1.826-.014z" fill="#F4A82F"/><path d="M126.955 65.864l-.113 15.117 1.826.013.113-15.117-1.826-.013zm-7.957 5.658l-.07 9.398 1.826.014.07-9.398-1.826-.014z" fill="#083E7F"/><path d="M111.826 55.785l-19.676.264-.027-1.772 19.673-.263.03 1.771zm1.647 2.412l-21.284.285-.011-.76 21.284-.285.011.76zm.024 1.583l-21.285.284-.01-.757 21.284-.288.011.76zm.025 1.566l-21.285.285-.01-.76 21.281-.285.014.76zm.023 1.584l-21.284.285-.011-.76 21.282-.285.013.76zm.025 1.68l-21.281.288-.014-.76 21.285-.285.01.758zm-2.25 1.616l-19.008.255-.013-.76 19.008-.252.013.757zm1.867 5.504l-38.405.513-.01-.757 38.404-.515.011.76zm.024 1.52l-38.407.513-.011-.76 38.407-.513.011.76zm.024 1.658l-38.404.516-.01-.76 38.404-.516.01.76zm.025 1.52l-38.407.512-.011-.76 38.407-.512.011.76zm.025 1.572l-38.407.513-.01-.757 38.406-.516.011.76zm.021 1.52l-38.404.512-.011-.76 38.404-.512.011.76z" fill="#BFD7E8"/><path d="M50.52 38.5l-6.753 4.884s-.15.656-.896.33c-.47-.206-3.907-1.136-6.379-1.793l-2.276-.735-.211.076-.066-.016.017.035 2.862 5.706 1.427.03 6.235.691s.96-.404 1.191-.822c.23-.418 6.829-6.245 6.829-6.245l-1.978-2.138-.003-.003z" fill="#F29B00"/><path d="M33.031 35.193s-.388-6.658 1.468-7.35c1.856-.692 3.19 2.54 3.19 2.54s.92 1.54 1.12 2.949c.202 1.41-.4 2.11-.4 2.11s-2.442.201-3.161 2.193c-.72 1.991.176 7.54.176 7.54s-5.429-1.655-3.741-4.179c1.46-2.184 1.345-5.8 1.345-5.8l.003-.003z" fill="#314572"/><path d="M33.568 39.932c2.585-5.723 3.154-11.052 1.272-11.901-1.882-.85-5.502 3.1-8.087 8.824-2.584 5.724-3.153 11.053-1.271 11.902 1.882.85 5.502-3.101 8.086-8.825z" fill="#314572"/><path d="M25.258 108.385l6.25.632-4.066-2.979v-4.604h-1.688l-.1 3.793-.396 3.158z" fill="#F3C6A0"/><path d="M26.945 108.204s2.545.215 3.573.34c2.035.246 3.323 1.239 3.323 1.239h-3.424l-3.472-1.003v.732h-1.636v-1.94l1.636.632z" fill="url(#paint1_linear_248_64466)"/><path d="M37.578 108.191l6.251.63-4.067-2.977v-4.604h-1.687l-.098 3.79-.399 3.161z" fill="#F3C6A0"/><path d="M39.265 108.011s2.545.214 3.573.339c2.035.247 3.324 1.24 3.324 1.24h-3.424l-3.473-1.004v.733h-1.636v-1.94l1.636.632z" fill="url(#paint2_linear_248_64466)"/><path d="M41.176 102.907l-3.925.212-1.237-13.34-1.113-4.735-.548-4.696-1.688 4.745-4.034 18.031h-3.313l.844-12.078 1.159-8.802.941-16.197 7.117-.578 4.105-.559 1.692 37.997z" fill="#2F61A8"/><path d="M27.412 48.377l3.172-8.834 4.563 1.937s1.935 3.033 2.814 6.333c.689 2.582.385 5.22.295 7.387-.198 4.936 1.873 10.47 1.873 10.47s-3.131-.176-6.04-.057c-2.911.12-5.982.782-5.982.782s2.517-5.38 2.53-9.008c.012-3.63-3.225-9.007-3.225-9.007v-.003z" fill="#F29B00"/><path d="M16.448 52.732L30.285 39.94s1.486 1.359 1.155 3.887c-.33 2.529-4.029 4.55-4.029 4.55l-5.76 6.029 2.912 2.54-1.72 3.488s-5.02-3.633-6.116-4.495c-1.096-.863-.277-3.207-.277-3.207h-.002z" fill="#F29B00"/><path d="M32.502 35.351l3.619-6.929 1.02 1.698s.429.603.583 1.102c.117.38 1.468 1.56 1.01 1.698 0 0-.27.066-.331.37-.063.303.084.846.084.992 0 1.425-.695 2.038-.695 2.038s-2.447-.13-3.44 1.747c-.993 1.875 0 3.077 0 3.077s-6.029 1.007-4.002-1.267c1.753-1.967 2.15-4.527 2.15-4.527h.002z" fill="#F3C6A0"/><path d="M35.78 32.545c.911-1.971.637-4.037-.613-4.615-1.25-.578-3.002.55-3.913 2.521-.912 1.97-.637 4.037.613 4.615 1.25.578 3.001-.55 3.913-2.521z" fill="#314572"/><path d="M28.078 61.104l-4.644-1.528.694-1.709 4.474 1.628-.524 1.609z" fill="#F3C6A0"/><path d="M30.592 61.608c1.756 0 3.18-.536 3.18-1.197 0-.66-1.424-1.196-3.18-1.196-1.756 0-3.18.535-3.18 1.196 0 .661 1.424 1.197 3.18 1.197z" fill="#F3C6A0"/><path d="M34.654 27.729c.255.073.502.157.74.255-2.034 1.392-3.697 3.611-4.514 6.349-.11.371-.2.74-.276 1.112-2.068-1.161-3.213-3.21-2.651-5.087.689-2.309 3.69-3.484 6.701-2.627v-.002z" fill="#314572"/><path d="M52.994 35.482l.812.236-.5 1.368 1.867-.999 1.49.255.168.622-1.398 1.435-1.647 1.148-1.565.76-1.5-1.075 2.273-3.75z" fill="#F3C6A0"/><path d="M55.006 27.03l-2.963.598a3.082 3.082 0 00-2.413 3.63l.04.202a3.082 3.082 0 003.631 2.413l2.963-.597a3.082 3.082 0 002.413-3.63l-.041-.203a3.082 3.082 0 00-3.63-2.412z" fill="#314572"/><path d="M56.198 33.497c2.439-.49 8.825-.369 12.355 2.99l-3.142-16.249c-3.69 4.534-7.095 6.335-10.47 7.016 0 0-1.256.901-.751 3.4.464 2.306 2.01 2.843 2.01 2.843h-.002z" fill="#4B94D0"/><path d="M69.72 36.642c1.627-.328 2.166-4.46 1.205-9.23-.96-4.769-3.058-8.37-4.684-8.042-1.626.327-2.165 4.46-1.204 9.229.96 4.77 3.058 8.37 4.684 8.043z" fill="#ADD1F0"/><path d="M69.97 36.345c1.43-.288 1.83-4.285.895-8.926-.935-4.642-2.852-8.172-4.281-7.884-1.43.288-1.83 4.285-.895 8.926.935 4.642 2.852 8.172 4.281 7.884z" fill="#3D6194"/><path d="M56.14 33.474c-.288-.125-1.541-.785-1.951-2.82-.445-2.205.483-3.166.705-3.361l-.01-.049c-.24.063-.478.12-.714.166 0 0-1.256.9-.752 3.4.464 2.305 2.01 2.843 2.01 2.843.21-.044.454-.076.728-.1l-.017-.08z" fill="#F4A82F"/><path d="M56.506 39.78s-.852.366-1.522.637c-.673.272-.836-.586-.836-.586l-1.365-5.82 2.377-.146 1.346 5.915z" fill="#263558"/><path d="M54.777 33.878l.383-.025 1.346 5.915-.315.13-1.414-6.02z" fill="#314572"/><path d="M55.838 38.363l-.139-.605-.998.165c-.13.022-.22.174-.198.34v.013c.025.165.15.282.282.26l1.053-.173zm-1.813-2.323c.022.166.15.283.28.261l1.026-.17-.139-.606-.971.16c-.13.022-.22.174-.198.34v.013l.002.003zm1.566 1.23l-.138-.606-1.037.171c-.13.022-.22.174-.198.34v.013c.024.165.15.282.282.26l1.091-.182v.003z" fill="#4B598D"/><path d="M65.737 28.718c.155.762.334 1.498.535 2.187l1.915-.687-.792-3.93-2.024.105c.084.746.204 1.525.366 2.325z" fill="#D4E7F8"/><path d="M68.154 30.023c.416-.084.576-1.03.357-2.112-.218-1.083-.731-1.893-1.147-1.809-.416.084-.576 1.03-.358 2.112.218 1.083.732 1.892 1.148 1.809z" fill="#F6F5FB"/><path d="M75.192 26.59l-2.55.513a.237.237 0 01-.28-.185.237.237 0 01.185-.279l2.55-.513a.237.237 0 01.095.464zm-3.806-3.48a.24.24 0 01-.269-.147.238.238 0 01.136-.307l2.488-.955a.238.238 0 01.17.442l-2.487.955s-.025.009-.038.011zm-1.501-3.547a.238.238 0 01-.192-.42l1.932-1.514a.238.238 0 11.293.374l-1.932 1.514a.241.241 0 01-.1.046zm5.802 11.6s-.027.005-.04.005l-2.665.085a.235.235 0 01-.244-.231.235.235 0 01.23-.244l2.665-.084a.237.237 0 01.054.47zm-.307 4.582a.245.245 0 01-.109-.003l-2.368-.648a.235.235 0 01-.166-.29.235.235 0 01.29-.166l2.37.648c.127.035.2.166.164.29a.242.242 0 01-.181.171v-.002z" fill="#EB7104"/><path d="M16.308 53.189l10.48-10.373-9.395 11.279s-.716.66.13 1.356c.473.391 3.726 3.983 3.726 3.983s-3.877-2.946-4.724-3.643c-.846-.698-.214-2.602-.214-2.602h-.003z" fill="#EF8200"/><path d="M26.758 102.608l.603-12.079.83-8.801 3.3-15.755-3.422.447-1.11 15.907-.827 8.802-.603 12.076h2.366l.095-.597h-1.232z" fill="#1E5184"/><path d="M128.281 61.093c0 .16-.141.288-.318.29l-27.581.13c-.177 0-.321-.127-.321-.287l-.198-34.391c0-.158.141-.288.318-.29l27.581-.13c.177 0 .32.127.32.287l.199 34.391z" fill="#fff"/><path d="M124.443 45.164l-11.208.149-.016-1.01 11.208-.149.016 1.01z" fill="#BFD7E8"/><path d="M106.817 44.528c-2.393.032-4.303 1.904-4.268 4.18.036 2.277 2.003 4.098 4.396 4.065 2.393-.033 4.303-1.905 4.267-4.181-.035-2.276-2.002-4.097-4.395-4.064zm.095 6.207c-1.21.017-2.203-.903-2.222-2.053-.019-1.15.947-2.098 2.157-2.114 1.21-.016 2.203.904 2.222 2.054.019 1.15-.947 2.097-2.157 2.113z" fill="#F4A82F"/><path d="M108.53 44.663c-2.214-.789-4.693.242-5.578 2.34l-.011.026 2.003.765s.005-.018.011-.027c.439-1.044 1.663-1.565 2.767-1.202l-.016.036c.572.247.982.702 1.172 1.234l1.986-.808a4.239 4.239 0 00-2.352-2.33l.016-.036.002.002z" fill="#FCF2F2"/><path d="M104.52 44.92c-1.986 1.218-2.594 3.73-1.352 5.66l.017.024 1.839-1.075-.016-.024c-.619-.96-.331-2.206.637-2.83l.022.033a2.295 2.295 0 011.739-.16l.502-2a4.534 4.534 0 00-3.367.407l-.021-.033v-.002z" fill="#2F61A8"/><path d="M109.166 48.478c.007-1.224-1.029-2.222-2.315-2.23-1.285-.007-2.333.98-2.34 2.203-.007 1.225 1.029 2.223 2.315 2.23 1.285.008 2.333-.979 2.34-2.203z" fill="#fff"/><path d="M125.381 46.537l-12.128.163-.005-.432 12.128-.163.005.432zm.014.903l-12.128.162-.005-.434 12.127-.16.006.431zm.013.893l-12.124.16-.009-.432 12.128-.163.005.434zm.014.899l-12.125.163-.008-.431 12.128-.163.005.431zm.016.962l-12.128.163-.005-.434 12.124-.163.009.434zm-1.283.92l-10.831.144-.006-.432 10.831-.146.006.434zm1.283 3.466l-21.881.294-.008-.434 21.884-.293.005.434zm.014.863l-21.881.293-.009-.431 21.885-.293.005.431zm.014.947l-21.882.292-.008-.434 21.884-.293.006.434zm.014.866l-21.882.293-.008-.434 21.884-.293.006.434zm.013.894l-21.882.293-.007-.431 21.883-.293.006.431zm.014.867l-21.882.293-.008-.431 21.884-.293.006.431z" fill="#BFD7E8"/><path d="M106.151 39.948l-.024-3.071-.011-1.408-2.157.013.011 1.452.024 3.028 2.157-.014zm-2.157.036l.014 1.937 2.157-.013-.014-1.937-2.157.013z" fill="#2F61A8"/><path d="M109.157 40.88l-.011-1.265-.044-5.87-2.157.013.041 5.556.003.125.011 1.6.005.82 2.157-.014-.005-.965z" fill="#F4A82F"/><path d="M112.261 38.397l-.003-.25v-.255l-.005-.423-.011-1.451-2.154.013.005.779.011 1.373.027 3.657 2.157-.014-.027-3.429z" fill="#729EDB"/><path d="M115.433 38.03l-.011-1.12-2.154.014.008 1.085.016 2.366 2.157-.014-.016-2.33zm-2.142 2.36l.011 1.493 2.157-.014-.011-1.492-2.157.014z" fill="#2F61A8"/><path d="M118.456 41.185l-.011-1.231-.032-4.374-2.157.014.035 4.52v.258l.005.493.003.334.006.665 2.157-.014-.006-.665z" fill="#F4A82F"/><path d="M124.854 39.138l-.008-.83-.005-1.001-2.157.013.008 1.118.002.323.022 3.03 2.157-.013-.019-2.64zm-3.123-.577l-.005-.846-.003-.44-2.157.014.008 1.118.006.838.019 2.515 2.157-.013-.014-2.032-.011-1.154z" fill="#2F61A8"/><path d="M121.629 30.55l-14.814.198-.016-1.01 14.814-.197.016 1.01zm-2.748 1.783l-8.63.117-.017-1.01 8.631-.116.016 1.01z" fill="#BFD7E8"/><path d="M88.866 19.646c0 .595.166 1.148.45 1.62l-1.823 1.102a5.245 5.245 0 01-.757-2.721h2.13z" fill="#2F61A8"/><path d="M94.142 24.423a5.251 5.251 0 01-2.116.445c-1.91 0-3.611-.977-4.534-2.499l1.823-1.101c.548.906 1.574 1.47 2.71 1.47.448 0 .874-.095 1.26-.266l.857 1.95z" fill="#F4A82F"/><path d="M94.135 24.421l-.866-1.948a3.144 3.144 0 001.593-1.598l1.95.86a5.267 5.267 0 01-2.674 2.683l-.003.003z" fill="#fff"/><path d="M96.814 21.734l-1.95-.86a3.128 3.128 0 00-.141-2.808l1.853-1.05a5.24 5.24 0 01.684 2.593c0 .757-.16 1.476-.448 2.125h.002z" fill="#729EDB"/><path d="M92.98 16.676l.675-2.022a5.267 5.267 0 012.935 2.393l-1.856 1.05a3.135 3.135 0 00-1.757-1.421h.002z" fill="#729EDB"/><path d="M91.997 14.385c.58 0 1.137.095 1.658.268l-.67 2.022a3.13 3.13 0 00-4.118 2.97h-2.13a5.26 5.26 0 015.26-5.26z" fill="#729EDB"/><path d="M154.457 30.623v2.247h.486v-2.247c0-.163-.109-.293-.242-.293s-.241.13-.241.293h-.003zm-.001 9.814c0 .163.108.293.241.293s.242-.13.242-.293v-2.11h-.486v2.11h.003zm-4.956-4.91c0 .133.13.242.293.242h2.244v-.486h-2.244c-.163 0-.293.109-.293.242v.002zm10.107-.24h-2.111v.486h2.111c.163 0 .293-.109.293-.242s-.13-.241-.293-.241v-.003zm-8.55-3.055l1.587 1.587.342-.342-1.587-1.587c-.114-.114-.285-.13-.38-.035-.095.095-.079.263.035.38l.003-.003zm6.94 6.937c.114.114.285.13.38.035.095-.095.079-.263-.035-.38l-1.492-1.492-.342.342L158 39.166l-.003.003zm-6.975.036c.095.095.263.078.38-.036l1.587-1.587-.342-.342-1.587 1.587c-.114.114-.13.285-.035.38l-.003-.002zm6.974-7.318l-1.492 1.492.342.342 1.492-1.492c.114-.114.13-.285.035-.38-.095-.095-.263-.079-.38.035l.003.003z" fill="#F29B00"/><path d="M10.05 63.991H8.665v-.83h1.387v-1.468h.849v1.468h1.386v.83H10.9v1.468h-.85v-1.468zm10.005 6.394h-.895v-.537h.895v-.95h.548v.95h.896v.537h-.896v.95h-.548v-.95zm35.682 24.672h11.39l-.298 4.981c-.133 2.236-.904 4.398-2.263 6.18-.169.22-.334.418-.491.584 0 .209-1.183.377-2.643.377-1.46 0-2.643-.168-2.643-.377h-.008a7.216 7.216 0 01-.504-.6c-1.36-1.791-2.13-3.958-2.26-6.205l-.283-4.94h.003z" fill="#729EDB"/><path d="M61.431 95.87c3.145 0 5.695-.364 5.695-.814 0-.45-2.55-.814-5.695-.814-3.145 0-5.695.365-5.695.814 0 .45 2.55.814 5.695.814z" fill="#BBD4F2"/><path d="M61.451 95.532c2.465 0 4.464-.213 4.464-.475s-1.999-.475-4.464-.475c-2.465 0-4.463.213-4.463.475s1.998.475 4.463.475z" fill="#2F61A8"/><path d="M64.18 105.754a.284.284 0 00-.385-.124.284.284 0 00-.124.385c.07.141.244.198.385.125a.285.285 0 00.125-.386zm-1.726-.375a.284.284 0 00-.385-.124.284.284 0 00-.125.385c.07.141.244.198.385.125a.285.285 0 00.125-.386z" fill="#A6A6A6"/><path d="M60.922 95.34c0-.07-.087-7.124 2.466-14.764l.266.171c-2.523 7.55-2.441 14.515-2.439 14.583l-.293.008v.003z" fill="#2F61A8"/><path d="M61.11 92.047l-2.008-10.549.282-.105 2.008 10.55-.283.104zm1.063 3.31l-.29-.046c.027-.35.71-8.63 2.43-12.551l.25.211c-1.684 3.842-2.382 12.299-2.39 12.383v.003zm-1.883.003c-.005-.062-.545-6.418-1.991-13.524l.282-.111c1.451 7.138 1.994 13.525 2 13.587l-.29.046v.003z" fill="#2F61A8"/><path d="M56.88 76.01c.55 1.417.849 4.908 1.614 4.246.765-.662.407-3.434.407-3.434s.839-.1 2.016 1.367c0 0 .296.239-.933 3.13-1.23 2.893.024 2.999.024 2.999s1.742-1.01 2.01-3.728c0 0 .825 3.324-.455 5.4-1.28 2.075-2.822 1.174-2.822 1.174s-.673-7.464-2.602-9.851c-1.929-2.388-3.112-2.874-3.112-2.874s3.302.15 3.853 1.566v.005z" fill="#2F61A8"/><path d="M58.742 87.172s-.44 2.404-3.52 2.444a2.632 2.632 0 01-1.85-.697s.575-1.506 2.206-1.2c1.63.31 1.595-.677 1.595-.677s-5.098.556-5.269-3.484c0 0 4.987.762 5.055-.046.068-.809-5.239-2.453-5.239-2.453s-.163-1.812.42-3.133c0 0 1.64.694 2.703 1.64 1.063.948 1.432.335 1.432.335s-.632-2.323-3.423-3.37l.176-2.084s1.183.486 3.112 2.873c1.929 2.388 2.602 9.852 2.602 9.852zm9.296-15.383c-.792 1.33-1.601 4.75-2.33 3.988-.733-.762.04-3.459.04-3.459s-.887-.214-2.36 1.08c0 0-.353.195.567 3.231.92 3.036-.445 2.968-.445 2.968s-1.734-1.237-1.644-3.969c0 0-1.352 3.18-.266 5.413 1.088 2.233 2.873 1.549 2.873 1.549s1.766-7.304 4.178-9.41c2.41-2.102 3.75-2.422 3.75-2.422s-3.574-.304-4.366 1.026l.003.005z" fill="#477EBF"/><path d="M64.477 82.597s.135 2.442 3.445 2.904a3.042 3.042 0 002.09-.44s-.41-1.571-2.21-1.49c-1.798.085-1.622-.89-1.622-.89s5.408 1.249 6.156-2.732c0 0-5.472.074-5.431-.735.04-.808 5.98-1.715 5.98-1.715s.428-1.774-.017-3.163c0 0-1.858.464-3.136 1.256s-1.587.136-1.587.136 1.006-2.214 4.156-2.873l.103-2.09s-1.34.32-3.75 2.423c-2.409 2.103-4.177 9.41-4.177 9.41zm-4.043 12.304s-2.686-7-8.78-6.88c-6.094.12 8.14 6.048 8.78 6.88z" fill="#2F61A8"/><path d="M71.526 82.184s.928 1.218-1.638 2.064c-.139-.83-.548-1.375-.548-1.375a7.627 7.627 0 002.186-.69z" fill="#477EBF"/><path d="M70.397 81.1C74.25 79.627 74.41 79 74.41 79s-.546 2.01-2.884 3.183a7.597 7.597 0 01-2.187.689s.41.545.548 1.375c.141.852-.005 2.005-1.18 3.18-2.317 2.317-5.486 1.785-5.486 1.785s2.17-6.197 7.176-8.112z" fill="#477EBF"/><path d="M33.939 43.485a.228.228 0 100-.456.228.228 0 000 .456zm.822 1.555a.228.228 0 100-.456.228.228 0 000 .456z" fill="#fff"/><defs><linearGradient id="paint0_linear_248_64466" x1="78.744" y1="10.66" x2="78.744" y2="112.14" gradientUnits="userSpaceOnUse"><stop stop-color="#F6FBFF"/><stop offset="1" stop-color="#EAF0F9"/></linearGradient><linearGradient id="paint1_linear_248_64466" x1="29.574" y1="109.786" x2="29.574" y2="107.575" gradientUnits="userSpaceOnUse"><stop stop-color="#002D49"/><stop offset="1" stop-color="#002737"/></linearGradient><linearGradient id="paint2_linear_248_64466" x1="41.894" y1="109.59" x2="41.894" y2="107.379" gradientUnits="userSpaceOnUse"><stop stop-color="#002D49"/><stop offset="1" stop-color="#002737"/></linearGradient></defs></svg>