<svg width="380" height="285" fill="none" xmlns="http://www.w3.org/2000/svg"><path d="M20.115 198.968C-.932 165.637.948 58.434 104.92 49.388c29.83-2.597 66.687 18.387 90.406 8.882 23.726-9.505 32.105-33.444 79.267-33.57 47.155-.125 63.217 35.519 57.333 64.877-5.884 29.358 22.134 33.909 23.454 57.936 1.207 21.978-32.614 32.282-46.086 51.808-13.478 19.525-15.125 53.768-50.939 59.816-39.901 6.739-44.716-37.845-97.341-22.783-58.156 16.647-114.351 4.652-140.899-37.386z" fill="url(#paint0_linear_248_63564)"/><path d="M170.998 87.59c0-.39 0-.78-.019-1.157 0-.17-.012-.333-.018-.496-.013-.302-.019-.604-.038-.893-.013-.251-.032-.49-.051-.736-.012-.195-.024-.396-.043-.59a34.987 34.987 0 00-.132-1.258 170.21 170.21 0 00-1.956 2.804c-.232.34-.458.685-.691 1.03-.415.623-.836 1.252-1.245 1.887-.245.383-.49.773-.735 1.157-.39.616-.786 1.238-1.17 1.867-.232.383-.465.767-.691 1.15-.39.654-.779 1.308-1.163 1.968-.094.157-.189.314-.283.478.019-.032.044-.07.069-.107-5.752 10.014-10.234 20.789-11.278 30.25v-.163c-.031.27-.044.528-.069.792l-.057.622c-.05.66-.088 1.321-.1 1.968a.304.304 0 00-.138.119c-.774 1.503-1.497 3.024-2.396 4.458-1.93-2.779-3.866-5.545-5.858-8.267.773-1.792 1.621-3.621 1.772-5.551.258-.327.51-.654.742-.987.088-.126.17-.258.258-.384.195-.289.383-.578.565-.873.088-.145.176-.296.264-.44.17-.296.334-.598.497-.906.069-.138.145-.27.214-.408.213-.434.421-.874.603-1.32.013-.026.02-.051.032-.076.176-.427.339-.855.49-1.289l.151-.459c.101-.314.201-.628.289-.949.05-.17.094-.346.138-.515l.095-.346a.274.274 0 00-.025.069c2.508-9.977-.566-21.89-4.306-31.445 0-.013-.007-.019-.013-.031a118.18 118.18 0 00-1.836-4.407c-.038-.088-.075-.176-.113-.258-.283-.635-.559-1.245-.836-1.842-.063-.145-.132-.283-.195-.421-.277-.591-.553-1.17-.817-1.716-.195.49-.378.98-.547 1.483-.076.227-.145.453-.22.68-.094.282-.189.565-.277.848-.075.245-.138.49-.207.735-.082.277-.163.56-.233.843-.062.239-.119.478-.176.716-.075.302-.144.598-.213.9-.051.226-.095.458-.145.685-.069.32-.132.64-.195.961-.044.22-.076.44-.113.66-.057.34-.12.673-.17 1.019l-.094.648a47.43 47.43 0 00-.145 1.043l-.075.66c-.038.346-.076.685-.107 1.037-.006.082-.019.164-.025.24 0-.013 0-.032.006-.051-.384 4.193-.346 8.518.031 12.749v-.019a105.925 105.925 0 00.145 1.44c.013.107.019.213.031.32.051.472.114.943.177 1.415.012.088.018.176.031.264.063.49.138.974.214 1.452.012.069.018.132.031.201.082.503.164 1.006.252 1.503a88.503 88.503 0 00.314 1.666c0 .031.013.056.019.088.107.515.213 1.031.327 1.54 0 .019.006.031.012.05 1.138 5.08 2.741 9.656 4.621 13.227-.151 1.754-.88 3.42-1.597 5.048-2.565-3.495-5.218-6.921-8.059-10.222-.239-.49-.484-.968-.723-1.477-.189-.396-.384-.799-.572-1.207-.22-.459-.434-.924-.654-1.396a867.971 867.971 0 01-1.905-4.118v.007c-2.376-5.143-5.023-10.769-8.311-16.345-3.143-5.337-6.978-10.172-10.875-14.145.019.013.037.032.056.044-.125-.132-.258-.258-.383-.383l-.29-.29a99.86 99.86 0 00-1.502-1.452l-.264-.245c-.49-.452-.981-.892-1.465-1.314a1.64 1.64 0 01-.119-.107 75.288 75.288 0 00-1.811-1.49 48.68 48.68 0 00-1.407-1.068c-.114-.082-.221-.164-.334-.239a45.42 45.42 0 00-1.389-.956c-.069-.044-.145-.088-.214-.138a36.132 36.132 0 00-1.27-.78l-.226-.131a21.908 21.908 0 00-1.295-.686c-.094-.044-.19-.094-.277-.138a18.21 18.21 0 00-1.22-.54 17.066 17.066 0 00-1.42-.49c.132.414.277.86.421 1.32.02.062.038.119.063.182.132.396.264.81.409 1.238.037.107.069.208.106.314.164.478.327.968.51 1.478.075.213.157.433.232.654.094.264.189.528.29.804.056.157.106.308.17.465a.08.08 0 00-.007-.037c3.382 9.121 9.618 22.248 21.99 33.582-.038-.025-.069-.056-.107-.082.214.195.434.39.654.585l.547.49c.472.415.956.83 1.446 1.239.119.1.232.201.352.302a96.237 96.237 0 001.918 1.54c.081.063.175.132.257.195.559.433 1.132.861 1.716 1.282.183.132.371.27.56.402a67.84 67.84 0 001.534 1.069c.207.138.415.283.628.421.535.359 1.081.711 1.635 1.056l.566.359c.427.264.861.522 1.294.779 2.1 2.439 4.106 4.935 6.048 7.481-1.949-.672-3.784-1.408-5.463-2.659-.257-.308-.528-.61-.811-.911a10.733 10.733 0 00-.389-.409c-.107-.113-.208-.226-.321-.333 0 .019.025.044.038.063-8.506-8.525-24.505-13.674-35.117-16.232-1.521-.371-3.325-.654-5.167-.88l-.32-.038c-.428-.05-.856-.101-1.283-.145-.17-.018-.34-.037-.516-.05l-.623-.056c-.182-.019-.364-.032-.54-.051-.188-.019-.377-.031-.566-.05-.333-.025-.66-.05-.974-.076-.157-.012-.302-.018-.453-.03-.207-.013-.409-.032-.61-.045a117.631 117.631 0 01-1.081-.063c-.094 0-.195-.012-.283-.019-.29-.019-.565-.031-.83-.044-.094 0-.182-.006-.276-.012-.189-.007-.365-.02-.534-.025-.07 0-.139 0-.208-.007-.2-.006-.39-.018-.56-.025h-.056c-.189-.006-.34-.012-.478-.019h-.107c-.094 0-.17 0-.226-.006h-.138c.188.333.408.66.635.993.069.107.15.208.226.308.176.246.37.491.566.73.075.094.15.194.232.289.264.314.547.622.85.93l.326.327c.214.214.434.428.66.635l.434.396c.22.201.452.396.685.591.283.239.578.478.886.717.158.119.302.245.466.364 0 0-.007-.012-.013-.012 9.342 7.11 25.881 12.931 37.826 14.144h-.006.063l.458.038c.384.038.761.063 1.132.088.176.013.346.019.522.031.371.019.735.038 1.094.044.132 0 .27.007.402.013.49.006.974.006 1.439 0h.095a27.04 27.04 0 001.251-.069c.113-.006.226-.019.34-.032.333-.031.653-.069.968-.113.107-.012.213-.031.32-.044.22-.037.44-.075.647-.119 1.811 1.232 3.791 1.968 5.885 2.672.044.012.088.019.126.012 2.564 3.382 5.029 6.834 7.462 10.323-1.377.144-2.754.358-4.131.427a63.054 63.054 0 00-1.584-.666c-.201-.082-.402-.164-.61-.239a73.423 73.423 0 00-2.495-.918.082.082 0 01-.038-.013h.006c-8.166-2.803-18.218-4.589-27.534-4.953-6.054-.465-13.265.547-19.237 1.169a41.109 41.109 0 00-4.043.61c.007 0 .02-.006.026-.006-.49.094-.975.201-1.453.314-.144.031-.289.075-.44.107-.408.1-.817.207-1.22.314a57.976 57.976 0 00-1.791.534c-.094.032-.188.057-.283.088-.503.17-.987.34-1.465.522-.132.05-.258.101-.383.151a21.88 21.88 0 00-1.037.434 6.797 6.797 0 00-.39.176c-.427.195-.849.396-1.232.603.704.271 1.42.554 2.137.843.817.327 1.647.66 2.483.993.088.038.176.069.264.101.76.301 1.528.597 2.301.88.044.019.088.031.138.05.799.295 1.604.578 2.415.842a.463.463 0 01.056.019c1.892.616 3.81 1.132 5.765 1.452 6.098 1.006 11.045 1.365 16.892 1.968 9.26.484 18.3-.515 27.396-3.099-.081.031-.15.063-.238.094.452-.126.904-.276 1.357-.408.421-.126.849-.252 1.276-.384a78.21 78.21 0 002.967-.993c1.503-.076 3-.333 4.515-.465 1.125 1.615 2.243 3.237 3.369 4.865-1.434.409-2.854.83-4.294 1.188-.754.007-1.533.026-2.326.044l-1.031.038c-.49.019-.98.038-1.483.069-.39.019-.78.044-1.17.07-.503.031-1.012.069-1.527.113l-1.157.094a5.19 5.19 0 01-.339.025h.05c-8.864.842-19.13 3.062-28.987 8.223.031-.019.056-.032.082-.05-.403.207-.799.452-1.201.672-.673.371-1.346.729-2.018 1.126-.491.289-.968.616-1.452.924-.591.377-1.188.735-1.779 1.137-.679.466-1.346.969-2.018 1.465-.384.283-.774.547-1.157.843a64.9 64.9 0 00-3.112 2.577c.24.113.49.214.748.302.088.031.189.063.277.094.17.057.333.113.509.164.113.031.233.062.352.088.157.037.314.081.478.113l.39.075c.157.032.314.057.471.082l.415.056c.157.019.314.038.472.051l.439.038c.157.012.315.018.478.031l.465.019c.157 0 .315 0 .472.006h.49c.151 0 .302-.006.453-.012.176 0 .352-.007.534-.019.114 0 .227-.013.34-.025a34.738 34.738 0 002.344-.233l.277-.038c.245-.031.491-.075.736-.113.094-.013.188-.031.289-.044l.754-.132c.095-.019.182-.031.277-.05.257-.051.521-.101.785-.157.076-.019.158-.032.233-.051a34.6 34.6 0 00.836-.182l.151-.038c.308-.069.61-.144.918-.22h.012l.755-.188h-.025c4.809-1.264 9.543-3.1 13.082-4.684a219.855 219.855 0 008.097-3.797c-.006 0-.012.006-.019.013.057-.032.12-.057.176-.088.572-.283 1.151-.572 1.723-.868.038-.019.069-.038.107-.056.547-.277 1.087-.56 1.628-.843l.491-.264c.421-.226.842-.452 1.257-.679.163-.094.333-.182.496-.276.466-.258.924-.516 1.377-.78.088-.05.182-.107.27-.157a63.234 63.234 0 001.585-.949c.094-.057.181-.114.276-.17.408-.252.805-.503 1.182-.754.138-.095.276-.183.415-.277a34.734 34.734 0 001.345-.943 28.11 28.11 0 001.163-.886c1.503-.371 2.986-.824 4.476-1.239h.006c.874 1.27 1.748 2.534 2.628 3.803.918 1.327 2.062 2.974 3.351 4.854-.031 0-.069 0-.101.012-1.609.547-3.199 1.125-4.658 2.043-.534.183-1.1.359-1.685.522-.094.025-.189.057-.289.082-.572.157-1.163.302-1.767.44-5.066 1.169-11.139 1.892-15.967 4.338-4.143 2.156-10.19 6.582-15.32 10.988 0 0 0-.006.006-.012-.031.025-.057.05-.088.075-.139.12-.271.233-.403.352-.314.277-.628.547-.936.818l-.566.509c-.258.232-.509.465-.76.691-.183.164-.359.333-.535.497-.39.358-.767.717-1.125 1.069-.126.119-.239.238-.358.358a42.77 42.77 0 00-.768.767c-.138.144-.27.283-.408.421l-.66.698c-.113.119-.227.239-.327.358-.308.34-.597.673-.868.987a13.2 13.2 0 001.207.277c.176.031.365.05.541.075.233.032.472.069.71.088.214.019.428.025.641.032.214.012.428.025.648.025.226 0 .453-.006.679-.019.214-.006.428-.013.648-.031.226-.019.458-.045.691-.07.22-.025.446-.044.666-.075.233-.032.466-.069.698-.113.233-.038.459-.082.692-.126.233-.044.465-.101.697-.151.239-.056.478-.113.724-.176.232-.063.458-.119.691-.188.113-.032.22-.057.333-.088-.019 0-.044 0-.056.006 7.173-2.131 15.006-7.267 21.556-12.561l-.013.013c.019-.013.038-.031.057-.044.515-.415 1.018-.83 1.515-1.245.132-.113.264-.22.396-.333.377-.321.748-.635 1.113-.949l.44-.384c.358-.314.71-.622 1.056-.936l.365-.327c.446-.403.886-.805 1.314-1.201l.019-.019c.44-.408.86-.811 1.275-1.207.107-.107.214-.207.321-.308.29-.283.578-.559.855-.836.126-.126.252-.251.377-.371.258-.258.51-.515.755-.767.107-.107.214-.22.32-.327.334-.346.66-.685.962-1.012a.163.163 0 00.069-.031c1.471-.968 3.099-1.522 4.721-2.081.095-.032.151-.094.17-.164 1.258 1.823 2.66 3.86 4.162 6.048-.006.013-.019.013-.025.025-.868 1.748-1.672 3.609-3.018 5.048-.364.12-.729.252-1.106.396-.107.038-.214.082-.321.12-.49.195-.993.402-1.509.628-.113.051-.232.107-.352.157-.515.233-1.037.478-1.571.749-.032.018-.07.031-.101.05a70.923 70.923 0 00-2.012 1.069c-.553.308-1.119.628-1.678.968-.113.063-.22.132-.333.201-.591.358-1.182.723-1.773 1.106 0 0-.007 0-.013.007-.603.389-1.207.798-1.81 1.219a8.35 8.35 0 01-.315.214 79.101 79.101 0 00-1.867 1.345c.007 0 .013-.006.019-.012-4.054 3.017-8.009 6.582-11.297 10.379.019-.019.032-.044.051-.069-.107.125-.214.251-.321.383-.145.176-.296.346-.44.522-.176.214-.352.421-.522.635l-.433.547c-.164.213-.327.421-.491.635-.138.182-.277.37-.415.553-.157.214-.308.427-.458.635-.132.182-.258.371-.384.553-.145.214-.296.427-.44.647-.12.183-.239.371-.352.554-.138.22-.277.433-.409.653-.113.189-.22.371-.327.56-.125.214-.251.434-.37.647-.114.208-.221.409-.328.617-.1.194-.214.396-.308.59-.201.403-.389.799-.565 1.201.408-.151.836-.314 1.276-.478.138-.05.277-.106.421-.163.315-.126.641-.251.968-.384.158-.062.308-.125.465-.188.453-.182.906-.371 1.377-.572.12-.05.239-.107.359-.157.364-.157.735-.321 1.106-.484.201-.088.402-.183.61-.271.314-.144.628-.289.949-.433.207-.095.409-.189.616-.29a73.174 73.174 0 001.999-.98c.346-.176.692-.346 1.037-.528.221-.114.44-.227.66-.346l1.019-.547c.145-.076.283-.151.427-.233a.38.38 0 00-.043.019c6.833-3.791 13.641-8.845 17.23-14.987.158-.27.315-.547.46-.817.075-.145.151-.296.226-.446.113-.227.22-.447.321-.673.069-.145.131-.296.194-.44.126-.289.239-.585.346-.874l.113-.295c.12-.346.226-.692.327-1.044.038-.132.069-.264.107-.402.069-.271.132-.541.188-.811.025-.132.057-.258.076-.39.05-.277.088-.553.126-.83 1.345-1.414 2.175-3.244 3.024-4.985 3.005 4.382 6.399 9.348 9.844 14.446-1.22 1.17-2.571 2.144-3.91 3.156-.786.138-1.578.289-2.37.446-.213.044-.428.088-.641.139-.704.151-1.415.32-2.125.503-.132.031-.264.056-.396.094h.031c-3.476.93-7.003 2.295-10.655 4.595-6.098 3.841-11.215 8.06-16.364 13.63.044-.051.094-.107.132-.158l-.377.415a24.19 24.19 0 00-.421.466 127.43 127.43 0 00-2.031 2.3c.271.063.547.12.824.17l.188.038c.289.05.579.1.874.138h.051c.282.038.571.063.86.088.063 0 .133.013.196.013.314.019.628.031.955.037h.113c.296 0 .597-.012.905-.031a15.414 15.414 0 001.245-.126c.057-.006.113-.019.17-.025.32-.05.654-.113.993-.182.063-.013.132-.025.195-.044a19.22 19.22 0 001.163-.308l.069-.019h-.025a22.738 22.738 0 003.483-1.402c7.537-3.766 16.068-9.587 21.179-16.892a.673.673 0 01-.019.038c.019-.025.031-.05.05-.076.321-.458.623-.924.912-1.395.069-.113.151-.226.22-.34.327-.54.628-1.087.911-1.64 1.346-1.019 2.697-1.999 3.929-3.169 8.757 12.944 17.804 26.586 21.702 33.319.276.477.974-.076.704-.547-2.892-4.998-8.933-14.327-15.509-24.222 1.691-.824 3.445-1.647 4.797-3.024a.258.258 0 00.056-.088c.05 0 .101-.013.145-.019.585-.151 1.15-.327 1.704-.522.088-.031.182-.062.27-.094a20.595 20.595 0 001.527-.616c.094-.044.183-.082.277-.126.497-.226.987-.471 1.458-.729.038-.025.082-.044.12-.069.452-.252.886-.509 1.314-.786.069-.044.138-.082.201-.126.327-.213.641-.427.955-.653-.031.018-.069.037-.101.056 5.388-3.835 8.72-9.222 11.537-12.227 4.494-4.797 6.455-9.952 7.637-14.05.359-1.239.648-2.389.912-3.395-.207 0-.428.025-.654.069a6.187 6.187 0 00-.792.201c-.044.013-.088.025-.138.044a7.443 7.443 0 00-.754.308l-.245.113a8.706 8.706 0 00-.617.321l-.245.132c-.27.157-.547.321-.83.503-.094.057-.182.126-.276.182-.214.145-.428.289-.648.447a9.19 9.19 0 00-.32.232c-.296.214-.592.44-.893.679-.082.063-.163.132-.251.201-.246.195-.491.396-.742.604-.113.094-.227.195-.346.289-.283.245-.572.497-.862.754-.044.038-.088.076-.132.12-.345.308-.691.635-1.037.962-.075.075-.157.144-.232.22-.396.377-.786.754-1.188 1.15.012-.006.019-.019.031-.025-4.262 4.256-8.694 9.694-12.001 14.635 0-.006.013-.019.013-.025a16.573 16.573 0 00-.214.327c-.025.037-.051.069-.069.107l-.013.012c-.251.377-.49.748-.723 1.119-.006.013-.019.025-.025.038-.025.038-.05.075-.076.119 0 .007-.012.013-.012.025-.088.132-.17.264-.252.396 0 0 .001.013-.012.019-.088.145-.17.283-.258.422a25.82 25.82 0 00-.326.54c-.051.082-.107.17-.151.252a.231.231 0 01-.032.044c-.069.125-.138.245-.207.364-.006.013-.013.019-.013.025l-.169.302c-.032.057-.064.107-.095.164-.057.106-.12.207-.176.314 0 .012-.013.031-.025.044-.063.107-.119.22-.176.327a.581.581 0 01-.038.063c-.057.113-.119.226-.176.339-.006.006-.006.019-.012.025-.063.126-.126.245-.189.371v.007l-.17.339-.037.075c-.044.095-.095.183-.132.277l-.038.075a.046.046 0 01-.013.026c-.012.031-.031.062-.044.094l-.094.207-.151.34c-.013.019-.019.038-.025.056-.038.088-.075.176-.113.258-.013.032-.026.057-.038.082-.032.082-.063.163-.101.239-.006.025-.019.05-.031.075-.082.201-.157.403-.233.597a.45.45 0 00-.025.082.282.282 0 00-.025.082c-.013.031-.019.063-.031.088 0 .012-.013.031-.013.044-.012.031-.025.056-.032.088-.025.069-.043.144-.068.214-.007.018-.013.044-.026.069-.025.088-.056.182-.081.27a.117.117 0 01-.013.044c-.025.076-.038.145-.063.214l-.019.088c-.012.056-.031.113-.044.176 0 .025-.012.05-.018.075a2.416 2.416 0 00-.045.201c0 .013.001.032-.006.044a8.786 8.786 0 01-.05.29l-.019.169v.07c0 .044-.006.081-.012.125-1.339 1.327-3.05 2.113-4.697 2.924-2.389-3.59-4.84-7.249-7.235-10.788 1.32-1.239 2.407-2.672 3.583-4.042a55.625 55.625 0 001.546-.862c.17-.094.334-.194.497-.289a53.14 53.14 0 002.043-1.257c.12-.076.233-.157.352-.233a74.46 74.46 0 001.786-1.213c.107-.075.22-.151.326-.226a59.579 59.579 0 001.88-1.402c.132-.107.27-.208.402-.315.585-.458 1.17-.924 1.742-1.408 2.106-1.76 4.168-3.652 6.318-5.708 1.502-1.433 2.646-2.565 3.646-3.721-.006.012-.019.025-.025.037.069-.075.132-.157.195-.232l.207-.246c.207-.251.415-.515.616-.779a6.72 6.72 0 00.17-.233c.201-.276.402-.559.597-.855l.151-.232c.201-.308.402-.635.61-.975l.113-.194c.22-.378.44-.767.666-1.189 2.113-3.935 3.219-7.562 3.496-10.938-2.181 1.087-3.992 2.074-6.702 3.784a17.12 17.12 0 00-.798.547c-.076.057-.157.12-.239.176-.207.157-.421.321-.641.497-.082.063-.158.126-.239.189a26.57 26.57 0 00-.861.729l-.013.012c-.308.271-.629.56-.943.849-.063.057-.126.119-.188.176-.258.239-.516.484-.774.736-.069.069-.138.132-.207.201-.29.283-.579.572-.868.861-.019.025-.044.044-.063.063-.308.314-.616.628-.917.949l-.264.283c-.195.201-.384.409-.573.61-.062.069-.131.138-.194.207.006 0 .012-.012.018-.019a98.755 98.755 0 00-3.444 3.917 42.733 42.733 0 00-5.074 7.047c0-.013.013-.019.013-.031a55.13 55.13 0 00-1.446 2.69.32.32 0 00-.019.044c-.899 1.811-1.691 3.634-2.458 5.495 0 .006 0 .012-.006.018-.277.667-.547 1.34-.818 2.018-1.163 1.346-2.225 2.767-3.52 3.992-2.577-3.816-5.08-7.481-7.349-10.787 1.32-1.251 2.414-2.691 3.608-4.068 2.125-.748 6.859-3.388 11.876-7.543.082-.063.157-.126.239-.195.258-.214.515-.44.773-.66.157-.139.314-.271.471-.409.189-.17.378-.339.572-.516.195-.176.397-.352.592-.534-.007 0-.019.013-.025.019 3.325-3.08 6.587-6.789 9.133-11.02 0 0 .001.012-.006.012a39.895 39.895 0 001.748-3.244c.063-.125.113-.257.176-.389.195-.428.389-.849.572-1.283.17-.415.327-.83.478-1.251.057-.157.126-.308.182-.465a30.146 30.146 0 001.616-7.317 59.29 59.29 0 00-2.678 1.785 64.296 64.296 0 00-3.093 2.307c-.164.126-.314.264-.478.39a64.26 64.26 0 00-1.986 1.685c-.189.169-.384.333-.567.496a64.23 64.23 0 00-2.099 1.987c-.189.182-.365.371-.547.553a64.43 64.43 0 00-1.685 1.773c-.125.138-.264.283-.39.421-.018.025-.043.044-.062.069 0 0 .019-.019.031-.025-2.156 2.414-4.011 4.872-5.513 7.267-3.546 5.664-6.4 10.247-8.129 13.095a11.23 11.23 0 01-.169.277c-.113.188-.227.371-.327.54-.082.139-.164.271-.239.403-.069.119-.139.232-.202.339-.075.126-.144.245-.213.358a6.005 6.005 0 01-.163.277c-.051.082-.101.176-.145.251l-.019.013c-1.226 1.383-2.32 2.86-3.653 4.13-3.017-4.388-5.613-8.097-7.398-10.586 1.1-1.547 2.363-2.986 3.344-4.608.006-.013 0-.025.006-.038.359-.226.717-.465 1.075-.71l.377-.264c.465-.327.93-.66 1.396-1.019l.094-.075c.459-.352.924-.723 1.383-1.1.126-.107.258-.214.383-.321.484-.409.975-.823 1.459-1.257l.037-.038c.485-.434.963-.88 1.447-1.339a71.683 71.683 0 003.294-3.363c.094-.101.182-.201.27-.302 6.513-7.192 12.127-16.326 13.359-24.48v.019c.006-.05.006-.1.019-.157a22.81 22.81 0 00.17-1.546c.012-.183.025-.359.031-.541.031-.566.044-1.125.019-1.679-.195.07-.396.164-.597.264-.057.032-.12.063-.177.095-.15.081-.307.169-.464.27a2.404 2.404 0 00-.221.145 8.57 8.57 0 00-.458.32c-.082.057-.157.12-.239.183-.157.119-.321.251-.485.383-.081.069-.163.132-.244.201-.177.151-.359.315-.541.478-.07.063-.139.119-.208.189-.251.232-.509.477-.773.741-.245.239-.491.497-.742.755 0 0 .013-.007.013-.013-3.074 3.225-6.62 7.997-9.92 13.227 0-.006.006-.013.013-.019-.044.069-.089.138-.126.208-.189.301-.378.609-.573.911-.1.157-.194.321-.295.478-.188.308-.371.61-.553.918l-.283.478c-.189.314-.371.628-.553.942-.088.145-.17.29-.252.441-.188.333-.383.66-.572.993a4.11 4.11 0 01-.157.276 121.057 121.057 0 00-2.018 3.741c-.019.044-.044.082-.063.126-.176.339-.346.679-.509 1.018-.069.138-.138.27-.201.409-.151.308-.302.616-.446.924-.076.163-.158.32-.233.484-.138.295-.277.584-.409.874-.082.176-.157.345-.239.521-.125.277-.251.554-.37.83-.082.183-.158.365-.239.547-.113.264-.227.528-.334.792-.081.189-.157.377-.232.566-.101.252-.201.497-.296.748-.075.201-.151.396-.226.591-.088.226-.176.459-.258.685-.082.227-.157.453-.239.679-.063.189-.132.377-.194.566-.095.283-.183.566-.264.842-.032.019-.07.026-.095.07-.955 1.578-2.169 2.979-3.25 4.476-2.508-3.496-4.941-7.029-7.381-10.549.962-1.515 1.73-3.125 2.553-4.721l1.037-.277a13.404 13.404 0 001.54-.559c.164-.07.327-.151.491-.227.339-.163.679-.333 1.005-.515.17-.095.334-.195.497-.296.34-.213.673-.44 1.006-.679.126-.088.252-.176.371-.264 9.405-7.223 13.384-25.535 13.359-37.888v-.233h-.12z" fill="#D9E7F4"/><path d="M327.296 91.842H147.081a8.393 8.393 0 00-8.393 8.393v118.003a8.393 8.393 0 008.393 8.393h180.215a8.392 8.392 0 008.392-8.393V100.235a8.392 8.392 0 00-8.392-8.393z" fill="#C5DAEF"/><path d="M327.296 92.81H147.081c-4.615 0-8.393 3.779-8.393 8.393v107.141h197V101.203c0-4.614-3.778-8.392-8.392-8.392z" fill="#2F61A8"/><path d="M257.434 226.631h-40.486v17.772h40.486v-17.772z" fill="#7AA9D7"/><path d="M328.782 100.232H145.605v99.736h183.177v-99.736z" fill="#D7E7F5"/><path d="M240.896 213.305h-7.411a2.962 2.962 0 100 5.922h7.411a2.962 2.962 0 100-5.922z" fill="#7AA9D7"/><path d="M274.219 250.821v-.987c0-2.986-2.446-5.431-5.432-5.431h-63.198c-2.986 0-5.432 2.445-5.432 5.431v.987h74.062z" fill="#C5DAEF"/><path d="M319.682 195.912c0 .409-.823.736-1.829.742l-159.011.792c-1.012 0-1.835-.314-1.841-.723l-.566-87.42c0-.402.817-.735 1.829-.742l159.011-.792c1.012 0 1.836.321 1.842.723l.565 87.42z" fill="#fff"/><path d="M175.366 134.94l5.148 3.382a8.076 8.076 0 017.311-7.468l3.37-5.123-3.432-5.218c-9.606.415-17.3 8.197-17.583 17.835l5.192-3.414-.006.006z" fill="#729EDB"/><path d="M192.527 125.732l-3.357 5.111a8.082 8.082 0 017.45 7.437l5.148 3.382 5.187-3.407c-.333-9.688-8.16-17.477-17.86-17.754l3.438 5.231h-.006z" fill="#083E7F"/><path d="M184.464 152.134l3.414-5.193a8.08 8.08 0 01-7.349-7.273l-5.161-3.395-5.18 3.407c.402 9.556 8.096 17.225 17.658 17.596l-3.382-5.148v.006z" fill="#F4A82F"/><path d="M201.767 143.009l-5.155-3.388c-.345 3.91-3.476 7.022-7.392 7.33l-3.414 5.192 3.382 5.149c9.643-.321 17.401-8.059 17.766-17.69l-5.187 3.407z" fill="#fff"/><path d="M288.273 131.215l-.423 56.369 4.23.032.423-56.37-4.23-.031z" fill="#729EDB"/><path d="M282.134 142.254l-.34 45.293 4.231.032.34-45.293-4.231-.032zm18.322-19.951l-.49 65.377 4.231.032.49-65.378-4.231-.031z" fill="#F4A82F"/><path d="M294.173 152.609l-.263 35.027 4.231.032.263-35.028-4.231-.031zm-18.439 13.11l-.164 21.776 4.231.032.163-21.777-4.23-.031z" fill="#083E7F"/><path d="M259.114 129.256l-45.59.61-.063-4.105 45.583-.61.07 4.105zm3.816 5.59l-49.318.66-.025-1.76 49.318-.661.025 1.761zm.055 3.666l-49.317.66-.025-1.754 49.317-.666.025 1.76zm.056 3.626l-49.318.66-.025-1.76 49.312-.661.031 1.761zm.06 3.67l-49.318.66-.025-1.761 49.311-.66.032 1.761zm.055 3.897l-49.311.667-.032-1.761 49.318-.66.025 1.754zm-5.213 3.741l-44.043.591-.031-1.76 44.043-.585.031 1.754zm4.323 12.757l-88.985 1.188-.025-1.754 88.986-1.194.024 1.76zm.059 3.521l-88.992 1.188-.025-1.76 88.992-1.188.025 1.76zm.057 3.841l-88.986 1.195-.025-1.76 88.985-1.195.026 1.76zm.054 3.518l-88.992 1.188-.025-1.76 88.991-1.188.026 1.76zm.059 3.648l-88.991 1.188-.025-1.754 88.991-1.195.025 1.761zm.05 3.522l-88.986 1.188-.025-1.76 88.986-1.188.025 1.76z" fill="#BFD7E8"/><path d="M117.063 89.207l-15.647 11.316s-.347 1.521-2.075.767c-1.088-.478-9.053-2.634-14.78-4.156l-5.274-1.703-.49.176-.151-.038.038.082 6.632 13.22 3.306.069 14.447 1.603s2.225-.936 2.759-1.904c.535-.969 15.824-14.472 15.824-14.472l-4.583-4.954-.006-.006z" fill="#F29B00"/><path d="M76.538 81.543s-.899-15.427 3.401-17.03c4.3-1.603 7.393 5.884 7.393 5.884s2.13 3.571 2.596 6.834c.465 3.269-.93 4.89-.93 4.89s-5.658.466-7.324 5.08c-1.666 4.614.409 17.47.409 17.47s-12.58-3.834-8.67-9.68c3.383-5.061 3.119-13.442 3.119-13.442l.006-.006z" fill="#314572"/><path d="M77.784 92.527c5.988-13.262 7.307-25.61 2.947-27.578-4.36-1.969-12.75 7.186-18.737 20.448-5.988 13.262-7.308 25.608-2.947 27.577 4.36 1.969 12.75-7.186 18.737-20.447z" fill="#314572"/><path d="M58.528 251.134l14.484 1.465-9.423-6.902v-10.669h-3.91l-.233 8.789-.918 7.317z" fill="#F3C6A0"/><path d="M62.438 250.714s5.897.496 8.28.785c4.715.572 7.7 2.873 7.7 2.873h-7.933l-8.047-2.326v1.698h-3.79v-4.495l3.79 1.465z" fill="url(#paint1_linear_248_63564)"/><path d="M87.073 250.689l14.484 1.458-9.423-6.896v-10.668h-3.91l-.227 8.782-.924 7.324z" fill="#F3C6A0"/><path d="M90.986 250.268s5.897.497 8.28.786c4.714.572 7.7 2.873 7.7 2.873h-7.933l-8.047-2.326v1.697h-3.79v-4.495l3.79 1.465z" fill="url(#paint2_linear_248_63564)"/><path d="M95.41 238.443l-9.096.49-2.867-30.911-2.578-10.969-1.269-10.882-3.91 10.995-9.348 41.78h-7.676l1.955-27.988 2.684-20.393 2.182-37.531 16.49-1.339 9.51-1.295 3.923 88.043z" fill="#2F61A8"/><path d="M63.52 112.088l7.348-20.469 10.574 4.489s4.483 7.028 6.52 14.672c1.596 5.985.892 12.096.684 17.119-.458 11.435 4.338 24.259 4.338 24.259s-7.254-.408-13.993-.132c-6.746.277-13.862 1.811-13.862 1.811s5.834-12.466 5.865-20.872c.025-8.411-7.474-20.871-7.474-20.871v-.006z" fill="#F29B00"/><path d="M38.115 122.18l32.06-29.64s3.446 3.15 2.679 9.008c-.767 5.859-9.335 10.543-9.335 10.543l-13.347 13.968 6.746 5.884-3.986 8.085s-11.63-8.418-14.17-10.417c-2.54-1.999-.641-7.431-.641-7.431h-.006z" fill="#F29B00"/><path d="M75.311 81.91l8.386-16.056 2.365 3.936s.993 1.395 1.35 2.552c.271.88 3.402 3.615 2.34 3.935 0 0-.623.151-.767.855-.145.704.195 1.962.195 2.301 0 3.3-1.61 4.721-1.61 4.721s-5.67-.301-7.971 4.049c-2.3 4.344 0 7.129 0 7.129s-13.969 2.332-9.273-2.936c4.061-4.558 4.98-10.486 4.98-10.486h.005z" fill="#F3C6A0"/><path d="M82.912 75.406c2.111-4.566 1.476-9.353-1.42-10.693-2.896-1.339-6.956 1.277-9.068 5.843-2.111 4.566-1.476 9.354 1.42 10.693 2.896 1.34 6.956-1.276 9.068-5.843z" fill="#314572"/><path d="M65.064 141.58l-10.762-3.54 1.609-3.96 10.366 3.772-1.213 3.728z" fill="#F3C6A0"/><path d="M70.887 142.749c4.07 0 7.368-1.241 7.368-2.772 0-1.531-3.299-2.773-7.368-2.773-4.069 0-7.367 1.242-7.367 2.773 0 1.531 3.298 2.772 7.367 2.772z" fill="#F3C6A0"/><path d="M80.297 64.249c.591.17 1.164.364 1.717.59-4.715 3.226-8.568 8.368-10.46 14.711a29.638 29.638 0 00-.642 2.578c-4.79-2.691-7.443-7.437-6.142-11.788 1.597-5.35 8.55-8.071 15.527-6.085v-.006z" fill="#314572"/><path d="M122.793 82.212l1.88.547-1.157 3.168 4.326-2.313 3.45.59.39 1.44-3.237 3.326-3.816 2.66-3.628 1.76-3.476-2.49 5.268-8.688z" fill="#F3C6A0"/><path d="M127.458 62.627l-6.865 1.383a7.141 7.141 0 00-5.591 8.41l.094.47a7.142 7.142 0 008.412 5.59l6.865-1.383a7.143 7.143 0 005.591-8.412l-.095-.468a7.141 7.141 0 00-8.411-5.59z" fill="#314572"/><path d="M130.221 77.613c5.652-1.138 20.45-.855 28.628 6.928l-7.279-37.65c-8.549 10.505-16.439 14.68-24.26 16.257 0 0-2.91 2.087-1.741 7.877 1.075 5.343 4.658 6.588 4.658 6.588h-.006z" fill="#4B94D0"/><path d="M161.555 84.9c3.768-.76 5.018-10.334 2.792-21.386-2.227-11.05-7.086-19.395-10.854-18.635-3.768.759-5.017 10.333-2.791 21.384 2.226 11.052 7.086 19.395 10.853 18.636z" fill="#ADD1F0"/><path d="M162.131 84.212c3.312-.667 4.24-9.927 2.074-20.682-2.167-10.755-6.608-18.933-9.92-18.266-3.312.667-4.239 9.927-2.073 20.682 2.167 10.755 6.608 18.933 9.919 18.266z" fill="#3D6194"/><path d="M130.082 77.56c-.666-.289-3.57-1.817-4.52-6.531-1.031-5.111 1.119-7.337 1.635-7.79l-.026-.112a27.67 27.67 0 01-1.653.383s-2.91 2.087-1.741 7.877c1.075 5.344 4.658 6.588 4.658 6.588.484-.1 1.05-.176 1.685-.232l-.038-.183z" fill="#F4A82F"/><path d="M130.93 92.168s-1.974.85-3.527 1.478c-1.559.628-1.936-1.358-1.936-1.358l-3.162-13.485 5.507-.34 3.118 13.705z" fill="#263558"/><path d="M126.929 78.495l.886-.057 3.118 13.705-.729.301-3.275-13.95z" fill="#314572"/><path d="M129.384 88.89l-.321-1.401-2.314.383c-.301.05-.509.403-.458.786v.031c.056.384.345.654.653.604l2.44-.402zm-4.2-5.384c.05.384.346.654.647.604l2.377-.396-.321-1.402-2.25.37c-.302.051-.51.403-.46.787v.031l.007.006zm3.628 2.846l-.321-1.402-2.401.397c-.302.05-.51.402-.459.785v.032c.056.383.345.653.653.603l2.528-.421v.006z" fill="#4B598D"/><path d="M152.325 66.537c.358 1.766.774 3.47 1.239 5.066l4.438-1.59-1.836-9.11-4.689.246c.194 1.729.471 3.533.848 5.388z" fill="#D4E7F8"/><path d="M157.923 69.562c.963-.194 1.334-2.385.828-4.893-.505-2.508-1.695-4.385-2.658-4.19-.963.193-1.335 2.384-.829 4.892.505 2.509 1.695 4.385 2.659 4.191z" fill="#F6F5FB"/><path d="M174.233 61.608l-5.909 1.188a.55.55 0 01-.22-1.075l5.909-1.188a.55.55 0 01.22 1.075zm-8.82-8.063a.556.556 0 01-.622-.34.55.55 0 01.314-.71l5.765-2.213a.55.55 0 01.396 1.025l-5.765 2.212s-.056.02-.088.026zm-3.478-8.218a.552.552 0 01-.446-.975l4.476-3.508a.55.55 0 11.679.868l-4.476 3.508a.56.56 0 01-.233.107zm13.441 26.877s-.063.013-.094.013l-6.173.195a.545.545 0 01-.566-.535.545.545 0 01.534-.565l6.174-.195a.55.55 0 01.125 1.088zm-.708 10.616a.57.57 0 01-.252-.007l-5.488-1.502a.545.545 0 01-.383-.673.545.545 0 01.672-.384l5.489 1.503a.546.546 0 01.383.672.563.563 0 01-.421.397v-.007z" fill="#EB7104"/><path d="M37.792 123.238l24.285-24.034-21.77 26.133s-1.66 1.528.3 3.144c1.095.905 8.633 9.228 8.633 9.228s-8.984-6.827-10.945-8.443c-1.962-1.615-.497-6.028-.497-6.028h-.006z" fill="#EF8200"/><path d="M62 237.751l1.396-27.987 1.924-20.394 7.644-36.505-7.927 1.037-2.571 36.858-1.918 20.393-1.396 27.981h5.483l.22-1.383H62z" fill="#1E5184"/><path d="M297.237 141.558c0 .371-.327.667-.736.673l-63.909.302c-.408 0-.742-.296-.742-.667l-.458-79.687c0-.365.326-.667.735-.673l63.909-.302c.408 0 .741.296.741.667l.46 79.687z" fill="#fff"/><path d="M288.344 104.645l-25.969.346-.038-2.338 25.97-.346.037 2.338z" fill="#BFD7E8"/><path d="M247.505 103.176c-5.544.076-9.97 4.413-9.889 9.688.082 5.274 4.64 9.492 10.185 9.417 5.544-.075 9.97-4.413 9.889-9.688-.082-5.274-4.64-9.492-10.185-9.417zm.22 14.384c-2.804.038-5.104-2.094-5.148-4.759-.044-2.666 2.194-4.86 4.998-4.897 2.803-.038 5.104 2.093 5.148 4.759.044 2.665-2.194 4.859-4.998 4.897z" fill="#F4A82F"/><path d="M251.474 103.493c-5.129-1.83-10.875.559-12.924 5.419l-.026.062 4.64 1.773s.012-.044.025-.063c1.018-2.42 3.854-3.627 6.412-2.785l-.038.082a4.926 4.926 0 012.716 2.861l4.602-1.874c-.943-2.345-2.848-4.338-5.45-5.4l.037-.082.006.007z" fill="#FCF2F2"/><path d="M242.181 104.081c-4.602 2.823-6.01 8.644-3.131 13.114a1.1 1.1 0 01.038.056l4.262-2.489-.038-.057c-1.433-2.225-.767-5.111 1.478-6.557l.05.076a5.316 5.316 0 014.03-.371l1.162-4.633a10.504 10.504 0 00-7.801.943l-.05-.076v-.006z" fill="#2F61A8"/><path d="M252.948 112.329c.016-2.837-2.385-5.15-5.364-5.167-2.979-.017-5.407 2.268-5.424 5.105-.016 2.836 2.386 5.15 5.365 5.167 2.978.017 5.407-2.268 5.423-5.105z" fill="#fff"/><path d="M290.517 107.83l-28.1.377-.013-.999 28.101-.377.012.999zm.034 2.093l-28.101.377-.012-1.006 28.1-.371.013 1zm.029 2.066l-28.094.371-.019-1 28.101-.377.012 1.006zm.035 2.09l-28.095.377-.019-.999 28.101-.377.013.999zm.036 2.226l-28.101.377-.012-1.006 28.094-.377.019 1.006zm-2.975 2.13l-25.096.333-.013-1 25.096-.339.013 1.006zm2.974 8.034l-50.701.679-.018-1.006 50.707-.679.012 1.006zm.033 1.998l-50.7.679-.019-1 50.707-.679.012 1zm.03 2.195l-50.7.679-.019-1.006 50.707-.679.012 1.006zm.03 2.004l-50.701.679-.019-1.006 50.707-.679.013 1.006zm.033 2.076l-50.701.679-.018-1 50.706-.679.013 1zm.03 2.007l-50.701.679-.018-.999 50.707-.679.012.999z" fill="#BFD7E8"/><path d="M245.96 92.565l-.056-7.116-.025-3.263-4.998.031.025 3.364.057 7.016 4.997-.032zm-4.997.085l.031 4.488 4.998-.032-.031-4.488-4.998.031z" fill="#2F61A8"/><path d="M252.925 94.723l-.025-2.93-.1-13.603-4.998.031.094 12.875.006.29.026 3.708.013 1.899 4.997-.032-.013-2.238z" fill="#F4A82F"/><path d="M260.114 88.972l-.006-.578v-.591l-.012-.98-.025-3.364-4.992.031.013 1.805.025 3.18.063 8.475 4.998-.032-.064-7.946z" fill="#729EDB"/><path d="M267.466 88.122l-.025-2.596-4.992.031.019 2.515.038 5.482 4.998-.032-.038-5.4zm-4.961 5.469l.025 3.458 4.997-.031-.025-3.458-4.997.031z" fill="#2F61A8"/><path d="M274.468 95.434l-.025-2.854-.076-10.134-4.997.031.082 10.474v.597l.012 1.144.007.773.012 1.54 4.998-.031-.013-1.54z" fill="#F4A82F"/><path d="M289.299 90.686l-.019-1.924-.013-2.32-4.997.032.019 2.59.006.748.05 7.022 4.998-.031-.044-6.117zm-7.235-1.334l-.012-1.962-.006-1.018-4.998.031.018 2.59.013 1.943.044 5.828 4.998-.032-.032-4.708-.025-2.672z" fill="#2F61A8"/><path d="M281.822 70.787l-34.324.459-.038-2.339 34.325-.459.037 2.339zm-6.367 4.13l-19.997.27-.038-2.338 19.998-.27.037 2.338z" fill="#BFD7E8"/><path d="M205.911 45.522c0 1.377.384 2.66 1.044 3.753l-4.224 2.552a12.15 12.15 0 01-1.754-6.305h4.934z" fill="#2F61A8"/><path d="M218.137 56.592a12.17 12.17 0 01-4.904 1.031c-4.425 0-8.367-2.263-10.504-5.79l4.224-2.552c1.27 2.1 3.646 3.407 6.28 3.407 1.038 0 2.024-.22 2.917-.616l1.987 4.52z" fill="#F4A82F"/><path d="M218.118 56.585l-2.005-4.514a7.288 7.288 0 003.691-3.703l4.519 1.993a12.202 12.202 0 01-6.199 6.217l-.006.007z" fill="#fff"/><path d="M224.329 50.36l-4.519-1.992a7.234 7.234 0 00.615-2.93c0-1.3-.345-2.52-.943-3.576l4.294-2.433a12.138 12.138 0 011.585 6.01c0 1.754-.371 3.42-1.038 4.922h.006z" fill="#729EDB"/><path d="M215.441 38.639l1.565-4.684a12.205 12.205 0 016.802 5.545l-4.3 2.433a7.268 7.268 0 00-4.073-3.294h.006z" fill="#729EDB"/><path d="M213.166 33.331c1.345 0 2.634.22 3.841.623l-1.553 4.683a7.253 7.253 0 00-9.543 6.884h-4.934c0-6.733 5.456-12.19 12.189-12.19z" fill="#729EDB"/><path d="M357.891 70.957v5.205h1.125v-5.206c0-.377-.251-.678-.559-.678-.308 0-.56.301-.56.678h-.006zm-.002 22.736c0 .378.251.68.559.68.308 0 .56-.302.56-.68v-4.89h-1.125v4.89h.006zm-11.484-11.372c0 .308.302.56.679.56h5.199v-1.125h-5.199c-.377 0-.679.251-.679.56v.005zm23.42-.561h-4.891v1.125h4.891c.377 0 .679-.252.679-.56 0-.308-.302-.56-.679-.56v-.006zm-19.812-7.08l3.678 3.677.792-.792-3.677-3.678c-.264-.264-.66-.302-.88-.082-.22.22-.183.61.081.88l.006-.006zm16.078 16.074c.264.264.661.302.881.082.22-.22.182-.61-.082-.88l-3.457-3.458-.792.792 3.457 3.458-.007.006zm-16.161.084c.22.22.61.182.88-.082l3.677-3.677-.792-.792-3.677 3.677c-.264.264-.302.66-.082.88l-.006-.006zm16.164-16.956l-3.457 3.458.792.792 3.458-3.458c.264-.264.302-.66.081-.88-.22-.22-.61-.182-.88.082l.006.006z" fill="#F29B00"/><path d="M23.289 148.27h-3.213v-1.924h3.213v-3.401h1.967v3.401h3.213v1.924h-3.213v3.401H23.29v-3.401zm23.179 14.816h-2.074v-1.245h2.074v-2.2h1.27v2.2h2.075v1.245h-2.075v2.2h-1.27v-2.2zm82.682 57.169h26.391l-.692 11.542c-.308 5.18-2.093 10.191-5.243 14.321-.39.509-.773.968-1.138 1.351 0 .484-2.741.874-6.123.874s-6.123-.39-6.123-.874h-.018a16.304 16.304 0 01-1.17-1.389c-3.149-4.149-4.935-9.172-5.237-14.377l-.653-11.448h.006z" fill="#729EDB"/><path d="M142.343 222.138c7.288 0 13.195-.844 13.195-1.886 0-1.041-5.907-1.886-13.195-1.886s-13.196.845-13.196 1.886c0 1.042 5.908 1.886 13.196 1.886z" fill="#BBD4F2"/><path d="M142.387 221.353c5.712 0 10.342-.492 10.342-1.1 0-.608-4.63-1.1-10.342-1.1-5.711 0-10.341.492-10.341 1.1 0 .608 4.63 1.1 10.341 1.1z" fill="#2F61A8"/><path d="M148.713 245.04a.66.66 0 00-.893-.289.66.66 0 00-.289.893.66.66 0 00.893.289.66.66 0 00.289-.893zm-4-.864a.66.66 0 00-.893-.29.66.66 0 00-.289.893.66.66 0 00.893.289.658.658 0 00.289-.892z" fill="#A6A6A6"/><path d="M141.164 220.912c0-.163-.201-16.508 5.714-34.211l.617.396c-5.847 17.495-5.658 33.633-5.652 33.79l-.679.019v.006z" fill="#2F61A8"/><path d="M141.597 213.281l-4.653-24.442.654-.245 4.652 24.448-.653.239zm2.466 7.67l-.673-.107c.063-.811 1.647-19.997 5.632-29.081l.579.49c-3.904 8.902-5.52 28.497-5.538 28.692v.006zm-4.364.006c-.012-.144-1.263-14.874-4.614-31.338l.654-.258c3.363 16.54 4.62 31.339 4.633 31.483l-.673.107v.006z" fill="#2F61A8"/><path d="M131.799 176.124c1.276 3.282 1.967 11.373 3.74 9.839 1.773-1.534.943-7.959.943-7.959s1.943-.233 4.671 3.168c0 0 .685.554-2.163 7.255-2.847 6.701.057 6.947.057 6.947s4.036-2.339 4.658-8.638c0 0 1.912 7.701-1.056 12.51-2.967 4.809-6.538 2.722-6.538 2.722s-1.559-17.294-6.028-22.826c-4.47-5.532-7.211-6.658-7.211-6.658s7.651.346 8.927 3.628v.012z" fill="#2F61A8"/><path d="M136.11 201.987s-1.018 5.569-8.154 5.664c-1.785.025-3.187-.629-4.287-1.616 0 0 1.332-3.489 5.111-2.778 3.778.716 3.696-1.572 3.696-1.572s-11.812 1.289-12.208-8.072c0 0 11.554 1.767 11.711-.107.158-1.873-12.139-5.683-12.139-5.683s-.377-4.199.975-7.261c0 0 3.797 1.61 6.261 3.804s3.319.773 3.319.773-1.464-5.381-7.933-7.808l.409-4.828s2.74 1.125 7.21 6.657 6.029 22.827 6.029 22.827zm21.543-35.646c-1.835 3.08-3.709 11.007-5.4 9.241-1.698-1.767.094-8.016.094-8.016s-2.055-.496-5.469 2.502c0 0-.817.453 1.314 7.488 2.131 7.034-1.031 6.877-1.031 6.877s-4.017-2.867-3.809-9.197c0 0-3.131 7.368-.617 12.541 2.521 5.174 6.658 3.59 6.658 3.59s4.092-16.923 9.681-21.802c5.582-4.872 8.688-5.613 8.688-5.613s-8.28-.704-10.115 2.376l.006.013z" fill="#477EBF"/><path d="M149.398 191.383s.314 5.658 7.984 6.727c1.917.264 3.514-.189 4.841-1.019 0 0-.95-3.64-5.117-3.451-4.168.195-3.76-2.062-3.76-2.062s12.529 2.892 14.264-6.33c0 0-12.68.169-12.586-1.704.095-1.873 13.856-3.973 13.856-3.973s.993-4.111-.038-7.33c0 0-4.306 1.075-7.267 2.91-2.961 1.836-3.678.315-3.678.315s2.333-5.13 9.632-6.658l.238-4.84s-3.105.742-8.688 5.614c-5.582 4.872-9.681 21.801-9.681 21.801zm-9.366 28.512s-6.224-16.219-20.344-15.942c-14.119.276 18.86 14.012 20.344 15.942z" fill="#2F61A8"/><path d="M165.728 190.427s2.15 2.822-3.797 4.784c-.321-1.924-1.27-3.188-1.27-3.188 1.999-.327 3.665-.899 5.067-1.596z" fill="#477EBF"/><path d="M163.113 187.919c8.927-3.414 9.298-4.866 9.298-4.866s-1.263 4.658-6.682 7.374c-1.396.698-3.068 1.27-5.067 1.597 0 0 .949 1.263 1.269 3.187.327 1.974-.012 4.646-2.734 7.368-5.369 5.369-12.712 4.136-12.712 4.136s5.03-14.358 16.628-18.796z" fill="#477EBF"/><path d="M78.643 100.761a.528.528 0 100-1.056.528.528 0 000 1.056zm1.903 3.6a.528.528 0 10.001-1.055.528.528 0 000 1.055z" fill="#fff"/><defs><linearGradient id="paint0_linear_248_63564" x1="182.456" y1="24.7" x2="182.456" y2="259.836" gradientUnits="userSpaceOnUse"><stop stop-color="#F6FBFF"/><stop offset="1" stop-color="#EAF0F9"/></linearGradient><linearGradient id="paint1_linear_248_63564" x1="68.53" y1="254.379" x2="68.53" y2="249.255" gradientUnits="userSpaceOnUse"><stop stop-color="#002D49"/><stop offset="1" stop-color="#002737"/></linearGradient><linearGradient id="paint2_linear_248_63564" x1="97.078" y1="253.927" x2="97.078" y2="248.803" gradientUnits="userSpaceOnUse"><stop stop-color="#002D49"/><stop offset="1" stop-color="#002737"/></linearGradient></defs></svg>