<svg width="195" height="146" fill="none" xmlns="http://www.w3.org/2000/svg"><path d="M42.803 102.739a1.683 1.683 0 01-3.368 0c0-.928.755-1.681 1.685-1.681s1.684.753 1.684 1.681zm-.24 3.857a.739.739 0 100-1.477.74.74 0 100 1.477zm7.485-3.232a3.34 3.34 0 00-6.499-1.537 3.34 3.34 0 006.499 1.537zm30.1 4.152v1.399h.304v-1.399c0-.1-.068-.182-.15-.182-.082 0-.15.082-.15.182h-.004zm.001 6.118c0 .1.068.182.15.182.082 0 .15-.082.15-.182v-1.317h-.303v1.317h.003zm-3.096-3.059c0 .082.082.15.182.15h1.401v-.303h-1.401c-.1 0-.182.067-.182.15v.003zm6.314-.153h-1.32v.303h1.32c.1 0 .183-.068.183-.15 0-.082-.083-.15-.183-.15v-.003zm-5.341-1.902l.99.988.215-.214-.99-.989c-.072-.071-.179-.082-.236-.021-.057.061-.05.164.021.236zm4.338 4.326c.071.071.178.082.236.021.057-.06.05-.164-.022-.235l-.933-.932-.214.214.933.932zm-4.36.021c.061.06.165.05.237-.022l.99-.989-.215-.214-.99.989c-.072.071-.082.178-.022.236zm4.36-4.562l-.933.931.214.215.933-.932c.072-.071.082-.178.022-.236-.061-.057-.165-.05-.236.022z" fill="#E5803C"/><path opacity=".3" d="M129.382 121.962c16.038 0 29.039-2.276 29.039-5.083 0-2.807-13.001-5.083-29.039-5.083-16.038 0-29.039 2.276-29.039 5.083 0 2.807 13.001 5.083 29.039 5.083zm-69.733.881c16.038 0 29.039-2.275 29.039-5.082s-13.001-5.083-29.04-5.083c-16.037 0-29.039 2.276-29.039 5.083 0 2.807 13.002 5.082 29.04 5.082z" fill="#C7D0DD"/><path d="M44.98 108.501l.69-2.845a7.347 7.347 0 01-.958-.168 7.24 7.24 0 01-1.466-.542l-.69 2.848c.472.228.962.41 1.466.535.314.079.633.136.958.172z" fill="#55B6CA"/><path d="M69.044 73.915l-.343-1.36a29.913 29.913 0 01-3.521.892l.343 1.36a33.06 33.06 0 003.522-.892z" fill="#314572"/><path d="M56.205 22.474s-2.503-3.173-1.774-6.82c.386-1.925 5.191-3.345 6.836-3.345 1.645 0 1.43 2.227 1.43 2.227s3.043 3.923 3.286 4.612l-1.545 1.078s1.81 3.28.805 3.776c-.594.292-3.486.535-3.486.535l-.415 4.854-4.984-1.545-.16-5.372h.007z" fill="#CF8E5A"/><path d="M58.945 14.572c-.104-1.15 2.374-.357 3.59-.721.772-.232.025-1.542-.944-1.98-1.799-.811-4.395.956-4.395.956s-2.649 1.252-3.067 2.994c-.418 1.742 1.047 6.375 1.047 6.375s-.986-.486.801-.92c1.784-.44.948-2.439 1.906-2.535.958-.096 2.442 1.649 2.442 1.649l1.133-.271s-2.406-4.401-2.513-5.55v.003z" fill="#0F343D"/><path d="M57.536 21.172l2.099 3.626 1.916.393.211-.654-2.013-.207-1.984-3.158h-.229z" fill="#D3AF94"/><path d="M65.18 18.451l-1.83-3.066 2.635 3.766-.247.253-.558-.953z" fill="#CF8E5A"/><path d="M69.863 113.937l-5.996 1.738-1.68-19.27.675-6.318-2.692-20.03-5.388 18.82-9.696 26.809H39.16l4.527-17.104 4.026-12.46 1.684-22.933 12.721-.82 7.34-.793.404 52.361z" fill="#314572"/><path d="M88.448 35.252l-10.211 3.72s-.43 1.073-1.237-.083c-.512-.732-4.455-5.04-7.298-8.12l-2.57-3.07-.294-.021a3.64 3.64 0 01-.075-.082l.007.075-3.514-.257-1.749 15.012-7-15.93-8.28 5.933-2.228 3.904-.54 8.47 6-4.758.807 9.955-1.144 13.924 21.546-1.41-2.42-22.304 1.765 1.138 7.523 6.007s1.348 0 1.787-.585c.44-.585 10.806-6.132 10.806-6.132l-1.684-5.39.003.004z" fill="#729EDB"/><path d="M63.4 89.012l-.565 7.057 1.237 19.002-1.913-19.341.625-6.65-2.613-19.024.74-2.62 2.488 21.576z" fill="#314572"/><path d="M51.481 90.154l-2.02 2.153" stroke="#3E2B68" stroke-width=".561" stroke-miterlimit="10"/><path d="M79.291 118.777h-11.58l-.876-.807-.74.807H64.07v-3.705l5.757-.767 2.863 2.559 6.6 1.435v.478zm-34.474.472l-5.77-.286-.154-1.531.808-1.745 5.116.199v3.363z" fill="#19132E"/><path d="M61.514 42.433l-6.8-15.73.862-.117 4.594 2.47 1.949-2.038 1.144.403-1.749 15.012z" fill="#729EDB"/><path d="M60.576 31.073l1.584 5.796-.644 5.564-2.424-5.518.876-5.707-.876-.942 1.008-1.278 1.08 1.21-.604.875zm-7.678-1.478l8.616 12.838-7-15.93-1.417 1.882 1.32.064-1.52 1.146z" fill="#729EDB"/><path d="M65.419 28.453l-3.904 13.98 1.748-15.012 2.156 1.032z" fill="#729EDB"/><path d="M49.33 64.13l10.3-.403 9.63-1.21-20.066.875.136.739z" fill="#29667D"/><path d="M62.033 62.372l.171-.007-.604-19.92 3.904-13.767-.168-.046-3.911 13.791v.015l.608 19.934z" fill="#729EDB"/><path d="M49.059 35.713l.404 4.3" stroke="#382B66" stroke-width=".561" stroke-miterlimit="10"/><path d="M67.754 33.939l.497 6.275" stroke="#25596B" stroke-width=".561" stroke-miterlimit="10"/><path d="M92.828 32.99l.762.734-1.044 1.596 2.338-.393 1.47 1.107-.061.931-2.017 1.225-2.166.71-1.935.225L89.01 36.9l3.818-3.912z" fill="#CF8E5A"/><path d="M50.638 89.683l-3.157 3.223m21.17-3.826l-2.02 2.15" stroke="#3E2B68" stroke-width=".561" stroke-miterlimit="10"/><path d="M68.048 39.072l.068.963 9.425 7.324-9.493-8.288zM44.955 43.62l4.444-3.406-.204-.938-4.844 4.322.604.021z" fill="#729EDB"/><path d="M44.4 48.06l5.714-5.886-1.116-11.775-3.11 2.23-7.39 13.703L39.79 63.41l4.591-.925.018-14.427z" fill="#729EDB"/><path d="M45.734 67.162l-.887.471-1.194-1.31-.272 2.124 1.59 3.33-1.029.036-1.984-2.374-1.434-2.345-.068-2.056.315-1.73 2.377-.444 2.586 4.298z" fill="#CF8E5A"/><path d="M124.979 15.36h-.958v-1.74h-1.559v-.985h1.559v-1.742h.958v1.742h1.559v.985h-1.559v1.742zm-6.914 57.57h-1.345v-2.44h-2.188v-1.382h2.188v-2.441h1.345v2.441h2.188v1.381h-2.188v2.442z" fill="#FCFCFD"/><path d="M127.666 22.706s2.778-3.383 1.963-7.274c-.429-2.052-5.757-3.565-7.58-3.565-1.823 0-2.077 2.377-2.077 2.377s-1.659 3.915-1.931 4.65l.493 1.418s-2.005 3.497-.894 4.026c.658.31 3.862.57 3.862.57l.458 5.176 5.524-1.649.178-5.729h.004z" fill="#B06D55"/><path d="M124.133 15.697c.114-1.228-2.142-1.8-3.49-2.185-.854-.246-.028-1.645 1.044-2.11 1.996-.863 4.874 1.022 4.874 1.022s2.935 1.335 3.4 3.194c.465 1.86-1.162 6.8-1.162 6.8s1.09-.518-.887-.982c-1.98-.468.426-2.598-.636-2.702-1.062-.104-1.723 1.76-1.723 1.76l-1.012-.525s-.529-3.041-.412-4.265l.004-.007z" fill="#314572"/><path d="M126.626 22.303l-2.063 3.434-1.888.371-.203-.617 1.977-.197 1.952-2.99h.225z" fill="#633629"/><path d="M114.503 113.181l5.896 1.645 1.651-21.355-.661-5.975 2.649-18.945 5.295 17.8 11.917 28.486h5.825l-5.442-19.303-5.349-11.789-1.655-24.35-12.511-.778-7.215-.75-.4 55.314z" fill="#314572"/><path d="M103.897 59.52s3.773-16.051 4.57-17.147c.5-.692 3.404-8.077 6.196-10.986l2.528-2.905.286-.022c.046-.05.075-.078.075-.078l-.007.071 3.454-.243 1.719 8.22 6.883-9.087s5.342 2.256 8.141 5.61c2.8 3.356 5.824 11.565 6.024 14.735.201 3.17.201 15.133.201 15.133l-4.684-.36-1.537-13.078-3.376-6.528-.597 6.717 1.127 10.512-21.185-1.335 2.382-18.439.05 1.078-4.516 6.596-2.764 11.996-4.966-.467-.004.007z" fill="#ED971B"/><path d="M120.858 86.48l.554 6.677-1.212 21.098 1.877-21.422-.615-6.29 2.575-17.992-.73-2.48-2.449 20.408z" fill="#314572"/><path d="M105.234 117.76h11.388l.862-.764.725.764h1.992v-3.505l-5.66-.725-2.818 2.42-6.489 1.357v.453zm36.28.445l5.674-.267.15-1.449-.794-1.653-5.03.189v3.18z" fill="#19132E"/><path d="M122.986 34.925l6.415-7.385-.848-.11-4.515 2.337-1.92-1.93-1.123.381 1.991 6.707z" fill="#fff"/><path d="M137.847 66.905l.904.464 1.219-1.289.279 2.088-1.623 3.266 1.051.04 2.028-2.335 1.458-2.302.072-2.02-.322-1.7-2.424-.435-2.642 4.223z" fill="#B06D55"/><path opacity=".6" d="M134.694 60.284l-10.129-.382-9.467-1.146 19.728.828-.132.7z" fill="#19132E"/><path d="M138.731 57.15l-.99-7.759-3.379-6.528.2-.889 3.769 7.396.4 7.78zM116.29 40.164l-.032.907-4.634 6.92 4.666-7.827z" fill="#ED971B"/><path d="M109.239 64.532l-.983.306-.933-1.466-.698 2.005.923 3.48-1.041-.139-1.508-2.627-.966-2.505.343-2 .669-1.612 2.467-.029 1.727 4.587z" fill="#B06D55"/><path d="M98.18 67.305v11.628h16.02V67.305h-3.472V64.01h-9.074v3.295H98.18zm11.827 0h-7.637V64.53h7.637v2.774z" fill="#314572"/><path d="M28.37 13.26v3.548h.769V13.26c0-.257-.172-.464-.383-.464-.21 0-.382.207-.382.464h-.004zm0 15.506c0 .257.172.464.383.464.211 0 .383-.207.383-.464v-3.334h-.769v3.334h.004zm-7.844-7.753c0 .21.208.382.465.382h3.554v-.768H20.99c-.257 0-.465.172-.465.382v.004zm15.996-.382h-3.34v.768h3.34c.257 0 .465-.172.465-.382 0-.21-.208-.382-.465-.382v-.004zm-13.529-4.83l2.514 2.51.543-.543-2.513-2.51c-.183-.181-.451-.206-.601-.056-.15.15-.125.417.057.6zm10.982 10.965c.183.182.451.207.601.057.15-.15.125-.417-.057-.6l-2.363-2.359-.544.543 2.363 2.36zm-11.039.057c.15.15.418.125.6-.057l2.514-2.51-.543-.542-2.514 2.51c-.182.182-.207.45-.057.6zm11.039-11.565l-2.363 2.36.544.542 2.363-2.359c.182-.182.208-.45.057-.6-.15-.15-.418-.125-.6.057z" fill="#E5803C"/></svg>