<svg width="195" height="146" fill="none" xmlns="http://www.w3.org/2000/svg"><g clip-path="url(#clip0_248_64087)"><path d="M56.573 53.542c.298.138.606.27 1.004.142.393-.124.754-.481 1.176-.835 1.755-1.462.904-1.9.419-2.36-.309-.294-.82-.277-.82-.277-.294.156-1.102.666-1.36.97-.72.842-2.01 1.603-.419 2.36zM47.41 34.544c-.425-.184-1.052-.966-1.74.018-.244.346-.464 1.712-.695 2.197-.283.602-1.325 1.674-1.283 2.19.043.517.054 1.515.812 1.621 1.035.142 1.244-.28 1.655-.552.408-.273.759-1.178 1.042-1.78.284-.602.773-1.454.816-1.897.063-.675-.206-1.62-.607-1.794m-17.417 38.51c4.778.768 12.399-3.79 15.518-5.789 2.449-1.571 5.518-5.665 3.214-6.666-2.303-1.005-5.763 4.012-9.666 6.4-4.675 2.863-8.06 3.624-13.593 1.812-2.69-.884-7.422-8.74-7.103-11.793 7.553 3.56 13.285 2.735 17.159 1.78 2.563-.63 5.111-2.141 3.75-4.686-1.361-2.547-4.413-.562-7.461 0-5.182.97-9.188-.916-11.609-2.296-2.793-1.596-3.892-7.01-2.077-11.578 4.073 4.48 12.002 4.147 14.267 3.23 2.265-.912 1.404-2.862-.698-3.803-1.592-.712-10.258-4.523-11.105-5.481-3.159-3.574-1.021-10.365-1.624-14.2 4.605.304 10.081-1.36 12.502 1.433.84.97 5.515 9.465 6.359 11.05 1.113 2.099 3.048 2.796 3.665.326.617-2.47.085-10.82-4.576-14.607 4.115-2.392 10.18-3.125 11.984-.372 1.567 2.392 2.24 7.552 1.883 13.082-.206 3.256-.837 7.806 1.712 8.956 2.548 1.154 3.1-2.53 3.789-5.428.638-2.679.652-10.255-3.517-17.792 2.847-.661 9.823 3.001 11.22 5.588 2.037 3.779 2.682 8.754-.058 15.099-1.871 4.327-5.724 8.442-4.533 10.75 1.198 2.31 4.21-2.032 6.032-4.87 1.606-2.498 4.608-14.819 3.41-17.13 4.435.556 8.121 5 9.323 8.567 1.853 5.482-1.422 10.198-4.09 13.072-2.886 3.11-8.461 7.303-5.534 8.39 7.072 2.621 11.51-10.786 12.64-12.817 6.834 5.138 5.111 16.224-3.29 19.918-5.103 2.244-9.963-.495-12.363 1.168-.577-.59-29.568-27.926-31.015-29.348-1.701-1.67-6.33-5.648-7-5.804.22.683 4.466 5.114 6.224 6.713 1.492 1.362 30.168 29.458 30.785 30.003-1.312 2.69 2.598 5.393.677 10.853-2.05 5.82-8.334 13.47-19.35 6.224 1.797-1.401 6.579-5.1 9.035-7.388 1.95-1.816 4.062-5.092 2.382-6.292-2.588-1.84-6.15 4.943-8.773 8.298-2.425 3.103-4.558 5.194-8.642 4.978-2.275-.12-9.34-5.052-9.871-9.543m27.513-7.72c-.347 1.078.248 1.507.858 1.744.354.134.83.378 1.18 0 .255-.276.673-1.564.822-2.017.149-.46.191-.913.149-1.306-.06-.527.092-1.047-.259-1.182-.29-.11-.819-.007-1.294.343-.365.27-1.272 1.847-1.453 2.417m-12.75-15.792c-.91.601-2.782 2.374-2.888 3.04-.33 2.09 1.22 2.625 1.634 2.618.414-.01 1.28-1.688 1.69-2.053.33-.286 1.128-.4 1.263-.527.602-.58.453-1.879.163-2.35-.358-.576-.947-1.337-1.858-.728m132.248 9.852c.163-.018.323-.032.483-.053.07-.007.138-.018.205-.028.124-.018.252-.032.372-.05.107-.014.206-.032.305-.05.082-.014.167-.024.245-.042.18-.032.354-.067.521-.106-.401-.24-.812-.478-1.227-.711-.149-.085-.301-.167-.45-.248-.273-.152-.546-.3-.822-.45a34.626 34.626 0 00-.504-.261 51.5 51.5 0 00-.811-.418c-.167-.085-.334-.163-.5-.247a61.04 61.04 0 00-.854-.411c-.071-.032-.138-.067-.206-.1l.046.026c-4.345-2.024-8.971-3.486-12.948-3.553.021 0 .046-.007.067-.007h-.595a12.52 12.52 0 00-.822.035c-.015-.02-.025-.042-.054-.053-.648-.265-1.304-.51-1.932-.831a185.94 185.94 0 003.279-2.782c.769.255 1.556.538 2.368.528.142.095.287.187.432.272l.167.096c.128.07.252.138.383.201.064.032.127.064.191.092a13.748 13.748 0 00.564.248c.188.074.376.142.571.202.01 0 .021.007.031.01.181.057.365.11.553.156.064.018.132.032.195.046.135.032.27.06.404.085.075.014.146.028.22.039.05.007.096.018.146.025-.011 0-.022-.007-.032-.01 4.236.66 9.113-1.09 12.99-3.033.004 0 .008-.004.011-.008.624-.31 1.219-.63 1.787-.94.035-.018.07-.04.106-.057.255-.142.503-.283.744-.425.057-.032.114-.067.17-.1.238-.137.472-.275.695-.41a18.85 18.85 0 00-.634-.173c-.096-.025-.195-.042-.291-.067-.121-.028-.241-.057-.361-.082-.103-.02-.21-.039-.312-.06-.121-.02-.238-.046-.359-.067a7.579 7.579 0 00-.304-.046c-.128-.018-.252-.039-.38-.056-.095-.015-.191-.022-.29-.032-.135-.014-.27-.032-.408-.046l-.276-.022c-.142-.01-.284-.024-.429-.032a7.127 7.127 0 00-.273-.014 17.2 17.2 0 00-.44-.017c-.092 0-.184-.004-.28-.007-.145 0-.291-.008-.436-.008h-.103.022c-1.762 0-3.566.185-5.317.51h.007c-.011 0-.018.004-.029.007-.191.036-.379.075-.566.11-.043.01-.089.018-.132.025l-.584.127a26.253 26.253 0 00-1.408.354c-.018.003-.039.01-.057.014l-.627.18c-.01 0-.024.008-.035.011-.213.064-.426.131-.631.198-.007 0-.014.004-.022.007-2.084.676-3.948 1.525-5.38 2.453-.737.003-1.454-.238-2.152-.471a73.549 73.549 0 004.027-3.78c.195-.12.39-.24.595-.36.16-.096.323-.191.486-.287a294.899 294.899 0 012.226-1.288c2.074-1.196 4.346-2.526 6.575-4.122a32.17 32.17 0 005.583-5.113.126.126 0 01-.018.024c.05-.06.099-.116.149-.177l.114-.134c.191-.23.379-.46.56-.686.032-.04.063-.082.095-.12a26.97 26.97 0 00.546-.723c.163-.226.319-.449.472-.672.031-.05.067-.095.099-.145.142-.212.276-.425.404-.63.032-.05.06-.099.092-.148.128-.21.248-.418.358-.623.018-.032.032-.064.05-.096a14.381 14.381 0 00.337-.662c.092-.194.173-.382.248-.57l.049-.123c.071-.184.135-.36.188-.534.011-.032.018-.064.029-.092.053-.18.099-.358.134-.524-.17.07-.351.149-.539.23l-.074.032c-.163.07-.33.145-.507.22a1.994 1.994 0 00-.128.056c-.195.085-.393.177-.599.269-.085.039-.177.081-.265.124-.107.05-.217.099-.326.152-.064.032-.124.056-.192.088.007 0 .011-.003.018-.007-3.704 1.773-9 4.904-13.367 10.534l.032-.05c-.074.096-.149.199-.223.298-.064.081-.124.166-.188.248-.16.215-.319.431-.475.654-.039.053-.078.106-.114.16-.198.283-.393.57-.584.867l-.075.116c-.163.252-.326.51-.485.772-.05.081-.1.166-.153.25a39.994 39.994 0 00-.556.963c-.131.241-.263.482-.394.73-.042.084-.088.166-.131.25-.096.188-.191.383-.287.574a71.271 71.271 0 01-2.942 2.83c.223-.845.479-1.641.95-2.395.12-.12.241-.244.358-.375.053-.06.106-.117.159-.18.043-.05.089-.096.132-.146-.007 0-.018.014-.025.018 3.307-3.9 4.987-10.814 5.745-15.368a19.59 19.59 0 00.224-2.339c.007-.18.018-.364.021-.545 0-.074.004-.145.007-.215 0-.089.004-.174.007-.262 0-.078 0-.152.004-.23 0-.082 0-.16.003-.24V23.93a9.55 9.55 0 00-.007-.351v-.117c0-.078 0-.155-.007-.226v-.085c0-.085-.003-.163-.007-.234v-.024c0-.078-.004-.146-.007-.202v-.043c0-.038 0-.07-.004-.095v-.061a6.243 6.243 0 00-.397.305l-.123.106a9.792 9.792 0 00-.288.266 7.57 7.57 0 00-.602.651c-.082.099-.163.198-.245.3-.049.064-.103.131-.152.199-.075.102-.153.205-.227.311-.092.13-.184.262-.273.4l-.138.209.007-.008c-2.694 4.197-4.64 11.366-4.796 16.426v-.003.219c0 .163-.004.322-.004.478v.22c0 .155.008.31.015.463a13.899 13.899 0 00.053.81c.017.18.039.354.064.524l.021.141c.021.138.046.273.074.4.011.046.018.089.029.135.021.092.042.18.067.269-.461.806-.709 1.666-.943 2.572a.158.158 0 000 .053 137.16 137.16 0 01-4.087 3.532c-.099-.574-.23-1.14-.298-1.716.078-.227.157-.457.231-.69.028-.089.057-.178.081-.266a23.107 23.107 0 00.312-1.097c.929-3.535 1.383-7.824 1.262-11.748.018-2.558-.616-5.545-1.049-8.025a16.734 16.734 0 00-.369-1.663c-.053-.202-.113-.4-.173-.598l-.057-.18c-.053-.17-.11-.337-.167-.5l-.074-.208c-.064-.177-.131-.35-.202-.524a12.137 12.137 0 00-.309-.711c-.024-.053-.049-.103-.074-.156a8.736 8.736 0 00-.294-.573c-.096-.174-.191-.34-.287-.496-.092.308-.192.616-.291.931-.113.357-.227.718-.34 1.083-.011.039-.025.074-.035.113-.103.33-.203.662-.302.998l-.018.06c-.099.347-.195.697-.28 1.047 0 .011-.007.025-.01.036 0-.004 0-.007.003-.01a16.51 16.51 0 00-.436 2.473c-.241 2.597-.244 4.688-.329 7.165a34.8 34.8 0 002.091 11.376c-.014-.031-.032-.06-.046-.095.067.184.141.368.209.552.064.173.128.347.199.52.159.404.326.803.499 1.207.075.63.227 1.245.326 1.875-.641.534-1.286 1.069-1.931 1.603-.213-.584-.433-1.168-.621-1.755a38.28 38.28 0 00-.088-.977c-.015-.141-.032-.286-.046-.431-.022-.206-.047-.41-.071-.62l-.064-.488c-.028-.209-.06-.421-.092-.637-.025-.16-.047-.318-.075-.481a13.271 13.271 0 01-.021-.142v.022c-.61-3.688-1.836-7.909-4.275-11.844.007.01.014.021.025.032-.099-.16-.213-.319-.315-.478-.174-.269-.344-.538-.529-.803-.134-.195-.287-.382-.428-.573-.174-.234-.341-.47-.525-.7-.213-.27-.443-.528-.67-.79-.131-.148-.252-.304-.383-.453a24.52 24.52 0 00-1.166-1.203 5.028 5.028 0 00-.106.326 134.296 134.296 0 01-.082.34c-.01.049-.017.098-.028.148-.011.067-.025.134-.032.205l-.021.166-.021.202-.011.177a3.397 3.397 0 00-.007.202v.389c0 .064 0 .131.007.198 0 .067.007.131.011.198.003.068.007.138.014.206.003.063.01.127.017.19.007.075.015.15.025.224a13.95 13.95 0 00.184 1.118c.008.039.015.074.025.113.022.103.046.202.068.304.01.04.017.078.028.12.025.103.049.206.078.312l.028.113c.029.106.057.216.089.322l.028.096c.032.113.068.23.103.343a18.194 18.194 0 00.138.442v.004c.032.102.068.205.103.308v-.01c.667 1.966 1.574 3.88 2.336 5.307a96.081 96.081 0 001.818 3.252s-.003-.007-.007-.007l.043.07c.134.23.273.46.411.69.007.015.018.029.025.043.131.22.266.435.4.651.043.067.082.131.124.195l.319.502c.043.067.086.131.128.198.121.184.244.368.365.545l.074.11c.149.216.295.425.44.626.028.04.053.071.082.11.117.16.233.318.35.467.043.057.086.11.128.163a19.203 19.203 0 00.432.53c.135.16.274.316.405.453.198.616.432 1.221.645 1.83-.504.417-1.007.831-1.51 1.249-.525.439-1.181.98-1.925 1.596 0-.014 0-.028-.007-.043-.277-.654-.564-1.298-.989-1.875a9.292 9.292 0 01-.266-.687 17.395 17.395 0 01-.276-.839c-.635-2.08-1.113-4.6-2.276-6.531-1.021-1.653-3.045-4.02-5.03-6.002h.004l-.036-.035c-.053-.053-.106-.102-.159-.156l-.369-.36a11.87 11.87 0 01-.226-.22c-.103-.099-.21-.195-.312-.294-.075-.07-.15-.138-.224-.205-.163-.148-.322-.294-.478-.432a22.785 22.785 0 01-.16-.138c-.117-.099-.23-.198-.34-.29l-.188-.155-.312-.252c-.053-.042-.106-.085-.159-.123a12.837 12.837 0 00-.436-.326 5.81 5.81 0 00-.082.52c-.007.074-.01.152-.014.23-.007.1-.014.198-.018.3 0 .09 0 .181.004.27 0 .092 0 .18.007.272.007.096.018.191.028.283.011.089.018.18.032.27.014.095.032.19.05.29.017.091.032.183.053.276l.067.29c.025.095.046.19.075.286.025.096.053.191.085.287.031.099.06.198.095.297.032.096.064.188.1.283.018.046.032.092.046.135a.077.077 0 00-.007-.025c1.098 2.926 3.47 6.015 5.87 8.56l-.004-.004.021.021a44.327 44.327 0 00.713.74l.428.431.171.17c.142.138.28.273.421.407a36.504 36.504 0 00.685.648l.007.007c.184.17.361.329.539.488.046.043.092.082.138.124a24.828 24.828 0 00.542.467l.34.287a57.454 57.454 0 00.596.485c.003.01.007.017.014.028.447.58.727 1.242 1.007 1.9a.1.1 0 00.071.067c-.724.598-1.532 1.267-2.4 1.982-.007 0-.007-.007-.011-.01-.751-.298-1.556-.563-2.194-1.07a9.288 9.288 0 00-.198-.449c-.022-.042-.039-.085-.061-.127a16.417 16.417 0 00-.304-.609c-.025-.046-.05-.095-.078-.141a16.876 16.876 0 00-.383-.673 23.54 23.54 0 00-.415-.665c-.032-.046-.06-.096-.092-.142-.146-.222-.298-.442-.454-.668-.032-.043-.06-.089-.092-.131a28.568 28.568 0 00-.514-.7v-.004a34.77 34.77 0 00-.56-.712c-.032-.042-.067-.081-.099-.123-.188-.23-.38-.46-.578-.687-.014-.014-.025-.032-.039-.046 0 0 0 .004.004.007-1.379-1.585-2.982-3.107-4.658-4.334.011.007.021.014.028.017-.056-.042-.113-.078-.166-.12a9.306 9.306 0 00-.231-.163c-.092-.067-.188-.13-.28-.194-.081-.054-.159-.107-.241-.16a17.074 17.074 0 00-.524-.332l-.281-.17a7.338 7.338 0 00-.244-.142l-.283-.159-.242-.127c-.095-.05-.191-.1-.283-.145l-.245-.117c-.092-.043-.187-.089-.28-.131-.088-.04-.177-.075-.265-.113-.085-.036-.171-.075-.256-.106a15.808 15.808 0 00-.517-.192c.074.167.156.34.237.517.025.057.053.113.082.17l.188.393.092.187c.088.18.181.368.28.556.025.046.049.095.074.145.075.148.153.297.234.446.043.081.089.162.131.244.068.127.139.251.21.378.046.082.092.163.138.248.11.191.22.386.333.58.043.071.089.145.131.22.082.138.167.276.252.414.053.088.11.173.163.262l.258.407c.036.056.072.113.111.17-.004-.008-.008-.011-.011-.018 1.779 2.72 4.087 5.378 6.756 6.649.117.056.237.11.354.159.064.028.128.053.191.078.096.039.196.074.291.11.064.02.128.045.188.063.124.039.248.078.376.11.042.01.085.025.127.035.146.036.295.067.444.096.056.01.113.017.17.028.113.018.23.035.344.046a2.9 2.9 0 00.163.018c.117.01.233.014.35.021.628.51 1.415.786 2.17 1.076a1511.407 1511.407 0 01-5.739 4.695c-.524-.463-.968-.998-1.428-1.518a50.188 50.188 0 00-.256-.976c-.024-.089-.049-.174-.074-.262-.085-.29-.174-.58-.273-.874-.018-.053-.032-.11-.05-.163v.01c-.489-1.422-1.162-2.848-2.226-4.292-1.779-2.41-3.689-4.39-6.164-6.337.022.014.05.035.071.05l-.184-.142-.206-.16a38.156 38.156 0 00-1.02-.764 9.533 9.533 0 00-.05.354c0 .029-.007.053-.011.082a7.754 7.754 0 00-.032.371v.021c-.007.12-.01.241-.01.365v.081a4.913 4.913 0 00.017.45c.011.123.022.25.039.378l.011.085c.021.142.046.287.078.435.004.022.011.046.018.071a10.046 10.046 0 00.131.489c.046.155.103.314.163.477l.011.029v-.011c.17.446.393.913.687 1.405 1.79 3.018 4.466 6.369 7.664 8.23a.03.03 0 01-.015-.007c.011.007.022.01.032.018.202.117.405.223.61.329.05.025.099.053.149.078.234.113.471.223.709.318.464.524.914 1.055 1.435 1.525-5.143 4.18-10.566 8.507-13.263 10.404-.192.134.06.407.248.276 1.999-1.409 5.717-4.307 9.651-7.452.394.679.787 1.38 1.401 1.896.014.01.025.018.039.021a.271.271 0 00.014.06c.081.241.17.471.266.698l.046.11c.092.212.195.417.301.619.021.038.039.074.06.11.11.2.224.395.348.583.01.018.021.032.032.05.117.18.241.353.365.52l.06.081c.099.128.198.255.301.375l-.028-.042c1.754 2.112 4.101 3.301 5.437 4.363 2.134 1.698 4.339 2.321 6.086 2.657.528.103 1.014.18 1.443.252a1.927 1.927 0 00-.046-.273l-.021-.078a2.009 2.009 0 00-.085-.244 3.22 3.22 0 00-.228-.457 6.585 6.585 0 00-.212-.346 7.446 7.446 0 00-.234-.33l-.085-.109a6.5 6.5 0 00-.206-.255l-.106-.127c-.099-.113-.199-.23-.308-.35-.029-.032-.061-.064-.093-.096-.088-.096-.18-.191-.272-.287-.043-.046-.089-.088-.132-.134a13.31 13.31 0 00-.34-.333c-.018-.017-.035-.035-.053-.05a27.34 27.34 0 00-.432-.4c-.032-.028-.064-.06-.1-.088-.166-.152-.34-.3-.517-.453l.01.011c-1.899-1.62-4.296-3.27-6.454-4.466.003 0 .007 0 .011.008l-.075-.043c-.022-.014-.046-.025-.067-.039-.015-.007-.032-.017-.046-.025l-.004-.003c-.166-.089-.326-.177-.489-.262-.007 0-.011-.007-.018-.007a.24.24 0 01-.05-.028c-.003 0-.007-.004-.01-.004-.057-.032-.117-.06-.174-.088 0 0-.007 0-.01-.004l-.185-.092-.234-.117c-.035-.017-.074-.039-.11-.053-.007 0-.014-.007-.021-.01l-.156-.075a.047.047 0 01-.011-.003l-.131-.06-.07-.032a4.388 4.388 0 00-.135-.06c-.007 0-.011-.004-.018-.007a2.46 2.46 0 00-.142-.06c-.01-.004-.017-.008-.028-.011a2.655 2.655 0 00-.145-.06s-.008 0-.011-.008l-.16-.063a3.081 3.081 0 00-.145-.057.128.128 0 01-.032-.014c-.039-.014-.078-.032-.12-.046l-.032-.014c-.004 0-.007 0-.011-.004-.014-.003-.025-.01-.039-.014l-.088-.032c-.05-.017-.096-.035-.146-.05a.066.066 0 01-.025-.01c-.039-.01-.074-.025-.113-.039a.117.117 0 01-.035-.014 3.28 3.28 0 01-.103-.032c-.011 0-.021-.007-.032-.01a4.127 4.127 0 00-.255-.075c-.014 0-.022-.007-.036-.007-.011 0-.021-.007-.035-.007-.014 0-.025-.007-.039-.01-.007 0-.011 0-.018-.004-.011 0-.025-.007-.039-.01l-.089-.022a.134.134 0 01-.032-.007 1.073 1.073 0 01-.113-.025h-.018c-.032-.007-.06-.01-.088-.017-.015 0-.025 0-.036-.004a13.136 13.136 0 00-.074-.01c-.011 0-.021 0-.032-.004l-.085-.01h-.018a.941.941 0 01-.099-.008h-.181c-.592-.51-.971-1.196-1.357-1.857a767.255 767.255 0 004.288-3.458c.557.506 1.184.906 1.79 1.345.135.209.27.414.405.616.046.067.088.134.134.198.192.276.387.548.585.81l.107.138c.184.24.368.474.56.7.035.043.071.086.102.128.21.252.422.496.642.736.046.053.096.106.142.156.209.226.422.453.638.676a50.665 50.665 0 002.566 2.43c.642.574 1.148 1.01 1.659 1.384-.007 0-.011-.007-.018-.01l.103.074c.035.025.071.053.11.078.113.078.227.152.343.226.032.022.068.043.103.064.121.074.245.145.373.216.032.018.067.035.103.056.134.075.276.146.425.216.028.014.056.029.085.04.163.077.333.155.517.233 1.705.732 3.251 1.054 4.665 1.044a27.948 27.948 0 00-1.776-2.665 4.544 4.544 0 00-.251-.315c-.025-.032-.054-.06-.082-.092-.071-.081-.145-.166-.223-.247l-.086-.092c-.106-.11-.212-.223-.329-.333l-.004-.004a19.15 19.15 0 00-.382-.36c-.025-.025-.053-.046-.078-.071a9.853 9.853 0 00-.419-.372c-.127-.11-.255-.22-.386-.329-.011-.007-.021-.018-.028-.025-.139-.117-.28-.233-.422-.35-.043-.035-.085-.067-.124-.103a14.71 14.71 0 00-.273-.215c-.032-.025-.064-.05-.092-.075l.007.007a40.746 40.746 0 00-1.733-1.291 17.25 17.25 0 00-3.088-1.854c.004 0 .011 0 .014.003a.1.1 0 00-.035-.014 18.3 18.3 0 00-1.131-.485c-.007 0-.011-.003-.018-.007-.78-.308-1.566-.57-2.364-.817h-.01l-.865-.266c-.596-.435-1.22-.824-1.769-1.32 1.517-1.231 2.97-2.42 4.285-3.506.56.506 1.195.91 1.801 1.355.376.863 1.613 2.746 3.495 4.688.028.032.057.06.089.093.095.099.198.198.297.297l.185.184c.074.074.152.145.23.22.081.074.16.151.241.226 0 0-.007-.007-.007-.011 1.382 1.274 3.023 2.502 4.863 3.404h-.007c.457.223.925.428 1.404.609.056.02.113.039.166.056.185.068.365.131.553.191.178.057.358.103.535.153.068.017.132.038.203.056.996.255 2.031.396 3.101.393a27.108 27.108 0 00-.822-1.055c-.071-.084-.142-.173-.213-.254a24.267 24.267 0 00-.84-.952c-.057-.064-.117-.124-.177-.184-.248-.262-.504-.52-.759-.768-.074-.074-.149-.145-.223-.22a27.327 27.327 0 00-.89-.803c-.081-.07-.166-.138-.248-.208-.262-.22-.524-.432-.79-.637-.064-.05-.124-.1-.188-.149-.011-.007-.021-.018-.032-.025l.01.01a22.22 22.22 0 00-3.193-2.03 494.974 494.974 0 00-5.7-2.902c-.042-.021-.081-.039-.12-.06a6.224 6.224 0 01-.234-.117 4.71 4.71 0 01-.174-.085c-.053-.024-.099-.05-.149-.07-.053-.025-.106-.053-.156-.075a3.11 3.11 0 00-.12-.056 2.915 2.915 0 00-.107-.05s0-.003-.007-.007c-.613-.46-1.262-.86-1.829-1.373a287.447 287.447 0 004.201-3.517c.677.4 1.314.877 2.02 1.224h.018c.106.142.212.283.329.425a20.412 20.412 0 00.621.736c.159.18.329.357.499.538a27.2 27.2 0 00.731.725c.194.188.397.371.602.556.05.042.096.085.146.13.428.383.882.754 1.353 1.122.043.036.089.067.132.103 3.19 2.452 7.163 4.451 10.601 4.653h-.007.064a9.96 9.96 0 00.879.003 7.33 7.33 0 00.702-.056 2.136 2.136 0 00-.128-.24c-.014-.022-.032-.047-.046-.072a4.262 4.262 0 00-.124-.183l-.067-.089c-.046-.06-.096-.12-.146-.18-.024-.032-.053-.064-.081-.096a6.259 6.259 0 00-.174-.188c-.028-.031-.06-.063-.092-.095-.067-.067-.142-.138-.216-.209a1.668 1.668 0 00-.085-.081c-.106-.1-.216-.195-.33-.297a13.5 13.5 0 00-.337-.284l.004.008c-1.435-1.165-3.53-2.467-5.806-3.649 0 0 .007 0 .011.004l-.089-.046-.397-.202-.209-.106c-.131-.067-.266-.13-.401-.198-.067-.035-.138-.067-.205-.1-.135-.066-.273-.13-.408-.194-.063-.028-.127-.06-.191-.088-.145-.068-.287-.135-.433-.202l-.12-.053a52.203 52.203 0 00-1.62-.7l-.053-.022c-.145-.06-.294-.117-.44-.177-.06-.025-.117-.046-.177-.07a20.934 20.934 0 00-.4-.153c-.071-.025-.139-.053-.209-.078l-.38-.138c-.074-.028-.149-.053-.223-.078-.121-.042-.238-.08-.358-.123l-.234-.078c-.113-.04-.227-.075-.34-.11l-.241-.074-.319-.096a6.295 6.295 0 00-.256-.07 10.965 10.965 0 00-.29-.082l-.291-.074c-.082-.021-.163-.043-.241-.06-.12-.029-.241-.053-.358-.078-.011-.014-.01-.029-.032-.036-.687-.34-1.308-.796-1.96-1.189 1.386-1.189 2.786-2.346 4.186-3.506.659.347 1.354.605 2.042.888l.145.425c.078.215.174.42.28.626.035.067.075.13.11.194.078.139.159.273.244.404.047.067.089.134.139.198.099.135.202.265.312.396.042.05.078.1.12.145 3.29 3.666 11.042 4.622 16.192 4.134h-.011c.036 0 .071-.008.107-.011l-.054-.032z" fill="#D9E7F4"/><path d="M150.398 18.876H69.291v94.38h81.107v-94.38z" fill="#fff"/><path d="M150.398 18.933H69.291V33.54h81.107V18.933z" fill="#DAE8EF"/><path d="M137.72 38.592H81.975v1.67h55.745v-1.67z" fill="#F29B00"/><path d="M137.717 42.325h-50.17v1.67h50.17v-1.67zm-52.12 0h-3.622v1.67h3.622v-1.67zm52.123 4.339H81.975v1.67h55.745v-1.67zm-18.729 4.214H81.975v1.67h37.016v-1.67z" fill="#BFD7E8"/><path d="M132.145 58.726h-50.17v1.67h50.17v-1.67z" fill="#F29B00"/><path d="M123.783 62.46H81.975v1.67h41.808v-1.67zm13.937 4.336H81.975v1.67h55.745v-1.67zm-18.729 4.214H81.975v1.67h37.016v-1.67z" fill="#BFD7E8"/><path d="M132.145 79.154h-50.17v1.67h50.17v-1.67z" fill="#F29B00"/><path d="M123.783 82.883H81.975v1.67h41.808v-1.67zm13.937 4.34H81.975v1.67h55.745v-1.67zm-18.729 4.217H81.975v1.671h37.016v-1.67z" fill="#BFD7E8"/><path d="M134.874 24.513H92.945v3.864h41.929v-3.864z" fill="#fff"/><path d="M137.401 24.358h-9.01v4.176h9.01v-4.176z" fill="#F29B00"/><path d="M90.734 25.48H78.342v1.932h12.392V25.48zm59.664-5.465v-3.507c0-.789-.645-1.433-1.436-1.433H70.727c-.79 0-1.436.644-1.436 1.433v3.507h81.107zM23.432 81.484L49.927 55.03l4.204 4.197-22.253 22.36-8.446-.103z" fill="#2F61A8"/><path d="M54.121 59.179l-4.203 4.195 16.966 16.937 4.203-4.196L54.12 59.18zm33.759.091l-4.203 4.197 9.359 9.343 4.203-4.196-9.36-9.343z" fill="#2F61A8"/><path d="M83.795 55.079l-16.898 16.87 4.203 4.195 16.898-16.869-4.203-4.196zm26.983-8.302L93.01 64.514l4.203 4.196 17.768-17.737-4.203-4.196z" fill="#2F61A8"/><path d="M115.083 55.03l-8.433-8.33 12.942-4.636-4.509 12.965z" fill="#2F61A8"/><path opacity=".4" d="M76.803 109.696c9.483-.601 16.714-8.267 16.152-17.124-.563-8.856-8.707-15.549-18.19-14.948-9.484.6-16.715 8.267-16.152 17.123.563 8.857 8.707 15.55 18.19 14.949z" fill="#AAD3EF"/><path d="M105.162 116.256l3.009-4.547-16.482-10.729-3.01 4.544 16.483 10.732z" fill="#2F61A8"/><path d="M73.8 73.358a20.307 20.307 0 0112.41 3.252c9.353 6.09 11.955 18.553 5.806 27.834-3.64 5.492-9.525 8.641-15.664 9.034l-.237-3.74c4.994-.322 9.783-2.884 12.742-7.35 5.002-7.547 2.886-17.685-4.728-22.643A16.53 16.53 0 0074.037 77.1l-.237-3.74zm-15.66 9.03c3.637-5.491 9.524-8.637 15.663-9.03l.238 3.74c-4.995.32-9.783 2.881-12.743 7.347-5.001 7.547-2.889 17.692 4.721 22.646a16.522 16.522 0 0010.099 2.647l.237 3.74a20.296 20.296 0 01-12.413-3.255c-9.35-6.09-11.948-18.553-5.799-27.838l-.003.004z" fill="#729EDB"/><path d="M105.162 116.255l3.009-4.547-10.488-6.825-3.01 4.543 10.489 6.829z" fill="#F29B00"/><path d="M112.196 122.784a4.406 4.406 0 006.071-1.249 4.316 4.316 0 00-1.258-6.016l-18.25-10.757c-1.118-.725-1.206.63-1.252.701 0 0-2.847 3.878-2.836 3.963 0 0-.397.4.72 1.125l16.805 12.233z" fill="#F29B00"/><path opacity=".6" d="M75.299 79.79c-8.139.517-14.314 7.623-13.789 15.875a15.087 15.087 0 002.308 7.13 15.021 15.021 0 01-3.527-8.79c-.525-8.252 5.646-15.357 13.788-15.874 5.544-.35 10.57 2.449 13.377 6.876-2.92-3.45-7.344-5.52-12.157-5.216z" fill="#fff"/><path opacity=".3" d="M33.707 134.168c13.422 0 24.301-.885 24.301-1.978 0-1.092-10.88-1.978-24.3-1.978-13.422 0-24.303.886-24.303 1.978 0 1.093 10.88 1.978 24.302 1.978z" fill="#5BAEDC"/><path d="M30.829 83.664a.18.18 0 00.173-.127l1.206-4.395a.174.174 0 00-.128-.213.18.18 0 00-.22.124l-1.205 4.395a.174.174 0 00.128.212.208.208 0 00.046.008v-.004z" fill="#4A3F82"/><path d="M20.482 77.564l19.002-.542c.199 3.496.663 13.146 1.014 18.496.773 14.964 2.219 34.012 2.219 34.012l2.162 2.237h-5.345L32.94 95.518l-2.09-10.601-1.326.028-.89 10.573-3.576 36.249h-4.502l1.117-2.039s-.826-16.871-1.202-34.21c-.124-4.692-.142-13.58.014-17.954h-.003z" fill="#16528E"/><path d="M42.848 128.956s-1.446-19.048-2.219-34.012c-.354-5.354-.815-15-1.013-18.496l-.926.025c.199 3.52.66 13.131 1.014 18.47.773 14.965 2.22 34.013 2.22 34.013l2.161 2.236h.929l-2.162-2.236h-.004z" fill="#083E7F"/><path d="M14.297 65.058c.018-.322.071-.7.192-1.061.177-1.232.687-2.428 1.198-3.602l3.403-7.888c.432-.998 1.269-2.275 1.942-3.18 1.425-1.919 3.541-2.549 6.207-2.538 1.244.003-2.07 5-2.86 6.217-1.17 1.805-1.553 3.995-3.372 7.403-.61 1.14-1.091 2.908-1.804 4.253.018.248.018.495.014.74l-.053 5.283c-.018 1.592-.07 3.078.33 4.632.163.626-.075 1.28-.667 1.737-.879.676-1.602.623-1.602.623-1.109-2.382-2.06-4.834-2.559-7.357a19.684 19.684 0 01-.255-1.628 21.851 21.851 0 01-.114-3.634z" fill="#D86C00"/><path d="M20.007 79.233l19.778.814c-.053-3.468-.29-8.294-.464-10.966-.014-.17-.021-.336-.028-.495a61.128 61.128 0 01-.16-5.74c.014-.707.053-1.433.11-2.186.089-1.225.227-2.52.433-3.932.287-1.967 1.513-4.738 1.198-6.26-.397-1.84-2.038-3.262-4.041-3.85a7.28 7.28 0 00-2.308-.3l-8.22.273c-5.664.187-6.27 5.63-6.128 9.37.113 2.965.308 5.934.443 8.902.17 4.045.153 6.076-.248 10.092-.113 1.171-.34 3.082-.365 4.275v.003z" fill="#F29B00"/><path d="M27.444 64.095c2.491 1.112 8.496 3.277 9.719 3.953.674.375 1.407.725 2.159 1.037-.015-.17-.022-.336-.029-.496a61.128 61.128 0 01-.167-5.205c-2.431-.541-4.983-1.26-6.66-1.957-.67-.276-3.07-1.588-3.53-.852-.344.559-1.074 1.196-1.748 1.72-.652.502-.52 1.454.256 1.797v.003z" fill="#BE1F1C"/><path d="M24.42 54.23c0 .053 0 .107.01.163l1.595 6.037c.078.28.39.499.695.492l3.449-.078a.59.59 0 00.294-.092v-.007c.124-.092.177-.244.131-.421l-1.591-6.04c-.071-.273-.383-.492-.691-.485l-3.45.078c-.247.007-.418.152-.446.353h.004z" fill="#6E6B6A"/><path d="M24.42 54.23c0 .053 0 .106.01.163l1.595 6.037c.078.28.39.499.695.492l3.45-.078a.59.59 0 00.293-.092v-.007a.322.322 0 00-.01-.163l-1.592-6.04c-.07-.273-.383-.492-.698-.485l-3.449.078a.513.513 0 00-.294.099v-.004z" fill="#454441"/><path d="M29.711 59.68c1.177.513 1.362 2.173 1.826 2.767.56.719-.582.949-1.822.796-1.11-.138-2.467-.601-2.91-1.125-.376-.442-.855-.973-.812-2.314.035-1.097 2.18-.793 3.718-.12v-.004z" fill="#F5CDA7"/><path d="M30.51 60.628c.453-.513.928-.138 1.598.064 2.396.715 6.55.541 9.648.906-.209-.492-.404-.966-.592-1.387-1.833-4.151-2.91-5.906-3.615-7.392-.656-1.391-3.651-6.444-2.421-6.483 3.123-.103 4.97.602 6.238 2.753 2.666 4.508 3.992 8.358 4.87 10.725.571 1.532 1.301 2.516 1.411 4.002.004.043.004 1.005.007 1.051.036.708-.088.39-.453.8-.04.07-.068.141-.11.216-.812 1.437-6.242 1.164-9.882-.287-1.727-.686-6.998-3.093-6.998-3.093s-.44-1.03.302-1.871l-.004-.004z" fill="#F29B00"/><path d="M27.656 46.548c.043.177.11.34.195.496.429.817 1.372 1.32 2.61 1.28 1.428-.045 2.877-.806 3.845-1.889.035-.035.07-.074.1-.11l-6.75.223z" fill="#BF792E"/><path d="M33.706 42.38v4.162s-3.158 3.563-6.058.085l.256-4.243h5.802v-.004z" fill="#EBC4AF"/><path d="M30.618 45.224c.078.01.156.02.234.024a3.536 3.536 0 002.595-.817c.067-.057.067-.149 0-.212a.183.183 0 00-.237-.011c-.66.552-1.471.81-2.35.743-.915-.07-1.698-.513-2.326-1.316a.18.18 0 00-.233-.043.137.137 0 00-.036.21c.627.802 1.435 1.29 2.35 1.422h.003z" fill="#C0755A"/><path d="M34.886 37.65c.38 3.392-.049 7.062-2.637 7.303-2.693.247-5.536-1.33-5.916-4.724-.379-3.394 1.39-6.6 3.953-7.159 2.563-.559 4.221 1.186 4.6 4.58z" fill="#F5CDA7"/><path d="M34.663 34.55c.125-.32.086-.698-.18-1.115a2.62 2.62 0 00-.188-.259c-.301-.389-.734-.753-1.134-1.068-.014 0-.029 0-.04.003-1.96-.615-4.224-.768-5.997.114-.868.417-1.35 1.043-1.57 1.765-.46.973-.322 2.54-.07 3.716.067.322.141.612.22.856.343 1.132.786 2.664 1.7 3.52.192.157.496.312.776.28a.13.13 0 00.04-.007 1.784 1.784 0 01-.096-.163c-.092-.343-.07-.728-.07-1.068-.14.127-.253.194-.38.201-.124.011-.262-.038-.45-.152-.486-.269-.656-.778-.674-1.309 0-.138.021-.375.081-.605 0 0 0-.007.008-.01.042-.163.106-.312.195-.418a.345.345 0 01.265-.135c.15 0 .404.195.536.354l.028.043c.028.162.064.322.103.477.042.18.096.361.152.538.217.106.433.252.674.276l.01-.117c-.343-.976-.336-2.01-.297-3.043.01-.25.021-.502.028-.757.01-.233.018-.467.018-.7v-.036c1.063-.067 2.148-.138 3.062-.527-.354.16-.656.375-.932.62-.092.08-.18.162-.27.247-.212.202-.414.407-.627.598 1.212.088 3.027-.595 4.257-1.348.178-.11.34-.22.493-.33h.003l.008.011c.021.266.038.538.053.81a19.54 19.54 0 01-.04 2.962c.019 0 .036 0 .058.004.05-.258.123-.513.19-.764.093-.344.182-.687.21-1.052.057-.707.223-1.762-.153-2.42v.007z" fill="#15495A"/><path d="M20.507 76.506c-.298-.272-.62-.58-.94-.856-.042.053-.095.095-.127.159-.394.785-.77 1.458-2.343 1.716.265.41.517.736 1.967 1.79 1.067.61 1.896.701 2.559.627.535-.057.947-.517.94-.803-.748-1.009-1.532-2.141-2.056-2.637v.004z" fill="#F5CDA7"/><path d="M22.548 129.601l2.701.152-.23 2.014h-5.721l3.25-2.166zm26.666 2.236h-7.465l-.564-.711-.478.711h-1.305v-3.263l3.711-.672 1.848 2.251 4.253 1.259v.425z" fill="#231C2F"/><path d="M149.87 113.021h14.929l-.393 6.518c-.177 2.926-1.184 5.754-2.967 8.085-.22.287-.436.549-.645.765 0 .272-1.549.495-3.463.495-1.914 0-3.463-.219-3.463-.495h-.011a8.954 8.954 0 01-.659-.786c-1.783-2.342-2.793-5.18-2.96-8.117l-.372-6.465h.004z" fill="#729EDB"/><path d="M157.335 114.086c4.123 0 7.465-.477 7.465-1.066 0-.588-3.342-1.065-7.465-1.065-4.123 0-7.465.477-7.465 1.065 0 .589 3.342 1.066 7.465 1.066z" fill="#BBD4F2"/><path d="M157.36 113.64c3.23 0 5.849-.277 5.849-.619 0-.342-2.619-.619-5.849-.619s-5.848.277-5.848.619c0 .342 2.618.619 5.848.619z" fill="#2F61A8"/><path d="M160.935 127.02a.373.373 0 00-.504-.163.372.372 0 00-.163.503.372.372 0 00.504.162.371.371 0 00.163-.502zm-2.261-.493a.371.371 0 00-.503-.163.37.37 0 00-.163.502.371.371 0 00.503.163.37.37 0 00.163-.502z" fill="#A6A6A6"/><path d="M156.668 113.388c0-.092-.113-9.32 3.233-19.317l.348.227c-3.307 9.88-3.201 18.988-3.198 19.08l-.383.01z" fill="#2F61A8"/><path d="M156.909 109.082l-2.63-13.803.373-.135 2.63 13.8-.373.138zm1.394 4.331l-.383-.06c.035-.46.932-11.292 3.187-16.419l.326.28c-2.209 5.028-3.123 16.089-3.13 16.202v-.003zm-2.465.001c-.007-.081-.712-8.397-2.609-17.692l.369-.146c1.904 9.342 2.613 17.697 2.62 17.778l-.38.06z" fill="#2F61A8"/><path d="M151.368 88.103c.723 1.855 1.114 6.423 2.117 5.556s.535-4.49.535-4.49 1.095-.132 2.641 1.79c0 0 .386.311-1.227 4.097-1.613 3.787.032 3.925.032 3.925s2.283-1.32 2.634-4.876c0 0 1.081 4.349-.596 7.063-1.676 2.714-3.697 1.539-3.697 1.539s-.882-9.763-3.41-12.891c-2.527-3.124-4.08-3.758-4.08-3.758s4.328.195 5.051 2.049v-.004z" fill="#2F61A8"/><path d="M153.806 102.703s-.574 3.146-4.614 3.196a3.44 3.44 0 01-2.425-.913s.755-1.971 2.893-1.568c2.137.403 2.091-.888 2.091-.888s-6.682.725-6.909-4.558c0 0 6.537.998 6.625-.06.089-1.058-6.866-3.21-6.866-3.21s-.212-2.37.553-4.097c0 0 2.148.91 3.541 2.148 1.397 1.239 1.875.439 1.875.439s-.829-3.04-4.487-4.41l.23-2.724s1.549.633 4.08 3.758c2.527 3.124 3.41 12.891 3.41 12.891l.003-.004zM165.99 82.58c-1.039 1.737-2.095 6.213-3.056 5.215-.96-.998.054-4.526.054-4.526s-1.163-.28-3.095 1.416c0 0-.461.258.745 4.228 1.205 3.97-.582 3.886-.582 3.886s-2.272-1.621-2.151-5.191c0 0-1.773 4.161-.348 7.08 1.425 2.92 3.765 2.028 3.765 2.028s2.314-9.558 5.473-12.307c3.158-2.753 4.912-3.17 4.912-3.17s-4.682-.397-5.721 1.34h.004z" fill="#477EBF"/><path d="M161.322 96.715s.181 3.196 4.516 3.797a3.974 3.974 0 002.736-.573s-.535-2.056-2.892-1.95c-2.357.11-2.127-1.164-2.127-1.164s7.086 1.631 8.071-3.574c0 0-7.17.096-7.121-.962.054-1.058 7.837-2.244 7.837-2.244s.56-2.321-.021-4.136c0 0-2.438.608-4.111 1.645-1.673 1.037-2.081.177-2.081.177s1.319-2.898 5.448-3.758l.135-2.731s-1.755.417-4.913 3.17c-3.159 2.753-5.473 12.307-5.473 12.307l-.004-.004zm-5.296 16.105s-3.523-9.158-11.506-9.002c-7.986.156 10.67 7.912 11.506 9.002z" fill="#2F61A8"/><path d="M170.563 96.177s1.216 1.592-2.148 2.7a4.502 4.502 0 00-.716-1.801c1.131-.184 2.074-.506 2.864-.902v.003z" fill="#477EBF"/><path d="M169.085 94.761c5.047-1.928 5.256-2.746 5.256-2.746s-.716 2.63-3.778 4.162c-.791.396-1.734.714-2.864.902 0 0 .535.715.715 1.801.185 1.115-.006 2.626-1.545 4.161-3.038 3.029-7.188 2.336-7.188 2.336s2.843-8.107 9.404-10.612v-.004z" fill="#477EBF"/><path opacity=".3" d="M129.272 145.779c9.733 0 17.624-1.096 17.624-2.448 0-1.353-7.891-2.449-17.624-2.449-9.733 0-17.624 1.096-17.624 2.449 0 1.352 7.891 2.448 17.624 2.448z" fill="#5BAEDC"/><path d="M139.796 69.779c1.974-.864 1.407-6.502-1.268-12.593-2.674-6.09-6.443-10.328-8.417-9.464-1.974.864-1.406 6.502 1.269 12.592 2.674 6.091 6.442 10.329 8.416 9.465z" fill="#083E7F"/><path d="M123.261 133.334l4.083.24 1.287-15.24 1.155-5.41.571-5.368 1.754 5.424 4.194 20.602h3.445l-.875-13.801-1.205-10.056-.982-18.507-7.398-.661-4.271-.64-1.758 43.417z" fill="#16528E"/><path d="M139.814 141.735l-6.504.722 4.232-3.404v-5.262h1.754l.103 4.331.415 3.613z" fill="#D8B598"/><path d="M138.059 141.526s-2.647.244-3.714.386c-2.116.283-3.456 1.419-3.456 1.419h3.558l3.612-1.147v.839h1.701v-2.219l-1.701.722z" fill="url(#paint0_linear_248_64087)"/><path d="M127.001 141.51l-6.501.722 4.232-3.404v-5.258h1.751l.106 4.331.412 3.609z" fill="#D8B598"/><path d="M125.245 141.307s-2.648.244-3.715.386c-2.116.283-3.456 1.418-3.456 1.418h3.559l3.612-1.146v.839h1.701v-2.219l-1.701.722z" fill="url(#paint1_linear_248_64087)"/><path d="M137.574 71.023l-3.297-10.092-4.746 2.212s-2.009 3.468-2.924 7.236c-.716 2.951-.401 5.966-.308 8.443.205 5.637-1.946 11.964-1.946 11.964s3.253-.202 6.28-.067c3.027.134 6.221.891 6.221.891s-2.619-6.146-2.63-10.293c-.011-4.147 3.353-10.294 3.353-10.294h-.003z" fill="#729EDB"/><path d="M148.973 76.003l-14.391-14.617s-1.546 1.553-1.202 4.44c.344 2.888 4.19 5.198 4.19 5.198l5.99 6.89-3.027 2.901 1.79 3.988s5.221-4.15 6.359-5.134.291-3.666.291-3.666z" fill="#729EDB"/><path d="M132.281 55.511l-3.764-7.367-1.06 1.805s-.446.64-.61 1.171c-.124.404-1.527 1.66-1.049 1.805 0 0 .28.067.344.393.064.322-.089.898-.089 1.054 0 1.511.724 2.166.724 2.166s2.544-.138 3.576 1.857c1.031 1.996 0 4.264 0 4.264s6.27 1.179 4.161-1.238c-1.822-2.091-2.236-5.917-2.236-5.917l.003.008z" fill="#F5CDA7"/><path d="M132.928 54.95c1.316-.575 1.634-2.748.711-4.854-.924-2.105-2.739-3.345-4.055-2.77-1.317.576-1.635 2.749-.712 4.854.924 2.105 2.74 3.345 4.056 2.77z" fill="#083E7F"/><path d="M136.878 85.568l4.828-1.745-.72-1.95-4.65 1.858.542 1.837z" fill="#F5CDA7"/><path d="M134.266 86.144c1.827 0 3.307-.611 3.307-1.366 0-.754-1.48-1.365-3.307-1.365-1.826 0-3.307.611-3.307 1.365 0 .755 1.481 1.366 3.307 1.366z" fill="#F5CDA7"/><path d="M130.045 47.41c-.266.078-.521.17-.77.273 2.117 1.48 3.846 3.84 4.693 6.748.114.393.21.79.288 1.182 2.151-1.231 3.339-3.411 2.757-5.407-.716-2.452-3.835-3.705-6.968-2.792v-.003z" fill="#083E7F"/><path d="M86.304 11.332c-.68-4.717-5.568-7.088-11.059-6.812-5.792.29-10.162 5.637-8.599 10.262.567 1.677 1.485 3.04 2.697 4.037l-.255 6.968 4.428-5.152c1.247.194 2.619.173 4.093-.085 5.427-.952 9.373-4.505 8.692-9.218h.003zm76.59-11.845v2.937h.635V-.513c0-.213-.142-.383-.319-.383-.177 0-.319.174-.319.383h.003zm0 12.838c0 .213.141.382.318.382.178 0 .32-.173.32-.382v-2.76h-.635v2.76h-.003zm-6.498-6.42c0 .177.174.318.383.318h2.942V5.59h-2.942c-.212 0-.383.142-.383.319v-.004zm13.246-.318h-2.765v.633h2.765c.213 0 .382-.142.382-.319 0-.176-.173-.318-.382-.318v.004zM158.44 1.592l2.081 2.077.45-.45-2.08-2.077c-.149-.148-.373-.17-.497-.046-.124.124-.102.347.046.496zm9.094 9.075c.149.149.372.17.496.046.124-.124.103-.346-.046-.495l-1.957-1.953-.45.449 1.957 1.953zm-9.14.047c.124.124.348.103.497-.046l2.08-2.077-.45-.45-2.081 2.078c-.148.148-.17.371-.046.495zm9.14-9.572l-1.957 1.954.45.449 1.957-1.953c.149-.149.17-.372.046-.496-.124-.123-.347-.102-.496.046z" fill="#F29B00"/><path d="M6.205 45.156H5.13v-.644h1.074v-1.14h.659v1.14h1.074v.644H6.864v1.14h-.66v-1.14zM117.518-.066h-1.815v-1.086h1.815v-1.922h1.113v1.922h1.815v1.086h-1.815v1.921h-1.113V-.066z" fill="#729EDB"/><path opacity=".7" d="M148.842 76.058l-14.111-14.617 12.651 15.895s.964.927-.174 1.91c-.634.549-5.015 5.613-5.015 5.613s5.221-4.151 6.359-5.135.29-3.666.29-3.666z" fill="#2F61A8"/><path d="M30.758 60.865c2.396.715 6.55.541 9.648.906l-.096-.23c-2.839-.198-6.121-.167-8.145-.772-.67-.198-1.145-.576-1.599-.063l-.06.07c.081.029.163.06.252.085v.004zm16.953 4.08c0-.042 0-1.008-.007-1.05-.11-1.487-.84-2.47-1.41-4.003-.88-2.367-2.206-6.217-4.871-10.725-1.27-2.148-3.116-2.856-6.238-2.753a.255.255 0 00-.213.095c2.417.11 3.948.889 5.047 2.746 2.666 4.508 3.992 8.358 4.87 10.726.571 1.532 1.301 2.515 1.411 4.002.004.042.004 1.005.007 1.05.036.708-.088.39-.453.8-.04.071-.068.142-.11.216-.252.442-.94.722-1.879.856 1.634-.007 2.92-.307 3.286-.948.042-.074.074-.145.11-.216.365-.41.489-.092.453-.8l-.003.004z" fill="#EF8200"/><path d="M180.533 46.458s-2.038-.74-4.434-.358c-2.396.383-13.016 4.905-13.016 4.905s-1.627-.878-2.846-3.56c-1.223-2.682-.865-4.596-.865-4.596s9.408-6.126 11.098-7.42c1.691-1.292 2.917-4.53 2.917-4.53l7.146 15.555v.004z" fill="#fff"/><path d="M177.054 38.882l3.481 7.576s-2.038-.74-4.434-.357c-2.396.382-13.016 4.904-13.016 4.904s-1.613-.87-2.832-3.524l16.801-8.599z" fill="#BAD4E4"/><path d="M163.794 49.512L161.67 50.6s-1.265-.627-2.233-2.746c-.964-2.12-.521-3.302-.521-3.302l2.123-1.086 2.755 6.047z" fill="#CDDADC"/><path d="M174.924 39.668c2.729 5.995 7.915 9.335 11.58 7.46 3.665-1.876 4.423-8.256 1.694-14.254-2.729-5.994-7.915-9.334-11.58-7.459-3.665 1.876-4.424 8.256-1.694 14.253z" fill="#DCEEF1"/><path d="M162.894 50.585s10.619-4.522 13.015-4.904c2.372-.38 4.388.343 4.434.357l.192.421s-2.038-.74-4.434-.357c-2.396.382-13.016 4.904-13.016 4.904s-1.613-.87-2.832-3.524h.01c1.188 2.328 2.631 3.106 2.631 3.106v-.003z" fill="#DCEEF1"/><path d="M188.199 32.878c2.729 5.994 1.97 12.378-1.695 14.253s-8.851-1.465-11.58-7.46a19.078 19.078 0 01-.79-2.034l13.051-6.677a18.24 18.24 0 011.01 1.921l.004-.003z" fill="#A2C3D6"/><path d="M175.873 39.215c2.662 5.845 7.578 9.168 10.985 7.427 3.406-1.741 4.012-7.895 1.35-13.74-2.662-5.846-7.578-9.169-10.984-7.428-3.407 1.745-4.013 7.895-1.351 13.74z" fill="#fff"/><path d="M176.6 38.87c2.425 5.326 6.799 8.412 9.769 6.89 2.97-1.521 3.413-7.07.989-12.395-2.425-5.326-6.798-8.411-9.769-6.89-2.97 1.522-3.413 7.07-.989 12.396z" fill="#ED9E40"/><path d="M159.369 42.846s2.941-1.978 5.926-3.928c.113 1.607.557 3.351 1.294 4.965.797 1.755 1.914 3.301 3.151 4.433-3.378 1.356-6.657 2.686-6.657 2.686s-1.627-.877-2.846-3.56c-1.223-2.682-.865-4.596-.865-4.596h-.003z" fill="#2C6088"/><path d="M188.283 35.853c1.3 4.47.595 8.627-1.915 9.908-2.509 1.285-6.018-.714-8.507-4.575l10.422-5.333z" fill="#E7893C"/><path d="M175.323 34.978l3.772-1.15 2.562 5.626-3.246 2.572s-.911-1.213-1.801-3.142a20.335 20.335 0 01-1.287-3.903v-.003z" fill="#DAE8F2"/><path d="M180.576 37.08l1.057 2.32-3.148 2.52s-.248-.152-.801-1.016a12.657 12.657 0 01-.875-1.606l3.767-2.219z" fill="#BAD4E4"/><path d="M181.649 39.668c.908-.386 1.1-1.973.429-3.544s-1.951-2.532-2.858-2.145c-.908.386-1.1 1.973-.429 3.544s1.951 2.532 2.858 2.145z" fill="#fff"/><path d="M166.586 43.885a13.873 13.873 0 002.24 3.471l-6.525 3.054c-.582-.534-1.386-1.468-2.067-2.962a11.12 11.12 0 01-.567-1.535l6.444-3.203c.142.393.298.79.475 1.178v-.003z" fill="#314572"/><path d="M173.225 57.01s-1.354 1.083-2.431 1.911c-1.078.828-1.716-.372-1.716-.372l-4.8-7.983 4.148-1.694 4.802 8.138h-.003z" fill="#BAD4E4"/><path d="M167.744 49.126l.666-.272 4.803 8.138-.503.397-4.966-8.263z" fill="#DCEEF1"/><path d="M161.653 49.725a7.921 7.921 0 01-.475-.62l6.497-3.255c.167.251.34.499.517.733l-6.539 3.142z" fill="#2C6088"/><path d="M171.464 55.276l-.489-.831-1.698.87a.489.489 0 00-.209.637l.007.018a.442.442 0 00.603.223l1.79-.917h-.004zm-4.158-2.399a.442.442 0 00.603.223l1.744-.892-.49-.831-1.651.846a.487.487 0 00-.209.637l.007.017h-.004zm3.268.896l-.489-.832-1.762.902a.489.489 0 00-.209.637l.007.018a.442.442 0 00.603.223l1.854-.948h-.004z" opacity=".5" fill="#DCEEF1"/></g><defs><linearGradient id="paint0_linear_248_64087" x1="135.323" y1="143.331" x2="135.323" y2="140.804" gradientUnits="userSpaceOnUse"><stop stop-color="#132E47"/><stop offset="1" stop-color="#132A38"/></linearGradient><linearGradient id="paint1_linear_248_64087" x1="122.512" y1="143.111" x2="122.512" y2="140.585" gradientUnits="userSpaceOnUse"><stop stop-color="#132E47"/><stop offset="1" stop-color="#132A38"/></linearGradient><clipPath id="clip0_248_64087"><path fill="#fff" d="M0 0h195v146H0z"/></clipPath></defs></svg>