<svg width="164" height="123" fill="none" xmlns="http://www.w3.org/2000/svg"><path d="M157.631 51.96c7.249 16.862-.416 65.971-47.294 62.453-13.45-1.011-28.526-13.37-39.696-10.753-11.171 2.618-16.428 12.993-37.437 9.571-21.008-3.422-25.889-20.98-21.398-34.033 4.491-13.051-7.697-17.21-6.754-28.342.863-10.183 16.58-12.424 23.823-20.398 7.243-7.977 10.16-23.584 26.494-23.719 18.198-.151 17.503 20.687 41.898 17.648 26.958-3.358 51.218 6.303 60.364 27.573z" fill="#EAF0F9"/><g filter="url(#filter0_d_248_64625)"><path d="M106.337 94.29c-24.276-4.91-23.488-13.733-54.753-10.185-21.659 2.456-35.614 11.647-31.85 19.804 2.838 6.155 11.379 10.839 26.796 9.658 15.42-1.182 28.686.843 40.656 2.211 15.062 1.723 38.054-2.366 41.505-8.495 3.451-6.129-5.766-9.638-22.354-12.993z" fill="#EAF0F9"/></g><path d="M145.92 7.219H77.373V56.65h68.547V7.219z" fill="#fff"/><path d="M145.92 7.268H77.373v12.365h68.547V7.268z" fill="#729EDB"/><path d="M135.203 23.91H88.09v1.413h47.113V23.91z" fill="#1065E4"/><path d="M135.199 27.07h-42.4v1.414h42.4V27.07zm-44.048 0H88.09v1.414h3.061V27.07z" fill="#ED971B"/><path d="M135.203 30.742H88.09v1.413h47.113v-1.413zm-15.829 3.568H88.09v1.414h31.284V34.31z" fill="#BEBEBE"/><path d="M130.49 39.828h-42.4v1.413h42.4v-1.413z" fill="#1065E4"/><path d="M123.424 42.99H88.09v1.413h35.334V42.99z" fill="#ED971B"/><path d="M135.203 46.664H88.09v1.413h47.113v-1.413zm-15.829 3.57H88.09v1.414h31.284v-1.414z" fill="#BEBEBE"/><path d="M132.795 11.994H97.361v3.27h35.434v-3.27z" fill="#fff"/><path d="M134.935 11.861h-7.617v3.535h7.617v-3.535z" fill="#4286F5"/><path d="M95.491 11.994h-9.98v3.27h9.98v-3.27z" fill="#ED971B"/><path d="M145.916 8.182V5.214c0-.667-.547-1.214-1.214-1.214h-66.12c-.666 0-1.213.547-1.213 1.214v2.968h68.547z" fill="#153F5E"/><path d="M20.022 12.826H41.73c3.654 0 6.645 2.99 6.645 6.645v9.239c0 3.222-2.328 5.93-5.383 6.522v5.682l-5.987-5.56h-16.98c-3.654 0-6.644-2.99-6.644-6.644v-9.24c0-3.653 2.99-6.644 6.644-6.644h-.003z" fill="#fff"/><path d="M19.849 24.144c0 .74.206 1.432.563 2.022l-2.276 1.374a6.523 6.523 0 01-.947-3.4h2.66v.004zm6.592 5.966a6.52 6.52 0 01-2.643.553c-2.385 0-4.51-1.22-5.66-3.122l2.277-1.375c.685 1.133 1.963 1.838 3.383 1.838a3.9 3.9 0 001.574-.331l1.07 2.437z" fill="#FFCB49"/><path d="M26.431 30.107l-1.081-2.43a3.925 3.925 0 001.99-1.993l2.433 1.075a6.6 6.6 0 01-3.342 3.351v-.003zm3.345-3.355l-2.434-1.075a3.907 3.907 0 00-.174-3.509l2.315-1.31a6.565 6.565 0 01.293 5.894z" fill="#FFCB49"/><path d="M24.986 20.432l.847-2.524a6.586 6.586 0 013.667 2.988l-2.315 1.31a3.931 3.931 0 00-2.195-1.774h-.004z" fill="#FFCB49"/><path d="M23.76 17.574c.724 0 1.42.12 2.07.335l-.837 2.524a3.911 3.911 0 00-5.144 3.712h-2.66a6.571 6.571 0 016.57-6.57zm20.428 3.86h-11.39v.856h11.39v-.856zm.005 1.988h-11.39v.856h11.39v-.856zm.003 1.935h-11.39v.857h11.39v-.857z" fill="#729EDB"/><path d="M64.334 81.135H46.747c-.3 0-.544.243-.544.544v3.47c0 .3.244.544.544.544h17.587c.3 0 .544-.243.544-.544v-3.47c0-.3-.244-.544-.544-.544z" fill="#fff"/><path d="M45.02 106.12l11.537-.908v-1.905l-11.538 1.996v.817z" fill="#03263B"/><path d="M68.091 106.12l-11.534-.907v-1.906l11.534 1.996v.817zm-23.159 3.087c.676 0 1.224-.569 1.224-1.271 0-.703-.548-1.272-1.224-1.272-.675 0-1.223.569-1.223 1.272 0 .702.548 1.271 1.223 1.271zm23.158-.183c.676 0 1.224-.57 1.224-1.272 0-.702-.548-1.271-1.224-1.271-.675 0-1.223.569-1.223 1.271s.548 1.272 1.223 1.272z" fill="#03263B"/><path d="M45.642 106.084h-.445v.853h.445v-.853zm22.208-.18h-.444v.854h.444v-.854zm-11.293 3.303c.676 0 1.224-.569 1.224-1.271 0-.703-.548-1.272-1.224-1.272-.675 0-1.223.569-1.223 1.272 0 .702.548 1.271 1.223 1.271z" fill="#03263B"/><path d="M56.78 105.731h-.444v1.361h.444v-1.361z" fill="#03263B"/><path d="M57.253 104.713h-1.398v1.178h1.398v-1.178zm2.099-20.533H53.76v10.36h5.592V84.18z" fill="#03263B"/><path d="M57.517 92.444h-1.921v10.98h1.922v-10.98z" fill="#03263B"/><path d="M85.09 108.024l-6.615.496-.921.068-1.159.087-.31-4.147 3.291-.215 1.754 1.471 3.918 1.703.042.537z" fill="#19132E"/><path d="M78.96 102.88l-2.935.22.11 1.467 2.934-.22-.11-1.467z" fill="#F3C6A0"/><path d="M72.187 108.988l-6.632.164-.924.023-1.159.029-.103-4.159 3.297-.049 1.68 1.555 3.828 1.9.013.537z" fill="#19132E"/><path d="M66.355 103.343l-2.94.073.036 1.471 2.941-.073-.037-1.471z" fill="#F3C6A0"/><path d="M70.732 89.695c-1.539-2.897-9.432-1.58-14.998-6.316-5.566-4.736 8.65-5.363 8.65-5.363s8.18 4.526 9.651 4.944c1.471.419 2.28 2.06 2.782 4.755.505 2.691 4.294 16.599 4.294 16.599l-5.959.534s-2.884-12.259-4.423-15.156l.003.003z" fill="#2C5D82"/><path d="M61.056 88.661c-.978-3.129-7.729-1.844-12.326-7.526-4.597-5.682 8.901-1.864 8.901-1.864s6.751 3.522 8.12 4.207c1.367.686 1.857 2.447 1.857 5.187v16.534h-4.794s-.782-13.402-1.76-16.534l.002-.004z" fill="#29577B"/><path d="M47.364 79.075s1.036 2.785 9.03 1.88c7.993-.901 8.872-3.064 8.872-3.064s-.683-13.296-1.465-17.404c-.782-4.107-4.697-5.479-4.697-5.479L55.737 56.4l-3.284-1.39s-4.697-.133-5.868 4.76c-1.175 4.894.782 19.306.782 19.306h-.003z" fill="#729EDB"/><path d="M56.442 81.035l-.158.016c-2.221-6.908-3.786-17.79-3.786-25.963 0 0-.084.911 3.406 1.39 3.493.48 2.897-1.39 2.897-1.39 1.87 3.985 1.575 17.98 3.29 24.82-1.303.432-3.119.844-5.652 1.127h.003z" fill="#153F5E"/><path d="M64.949 63.184l.331 4.392 5.895 5.707c.077 1.017-1.655 2.186-2.672 2.263l-3.458-.46c-.2-3.39-.605-9.706-1.078-13.398.544.29.933.84.982 1.496z" fill="#729EDB"/><path d="M55.362 73.944l.902-1.774 5.791 1.68c.715-.177 1.63-.28 2.624-.28 2.286 0 4.14.557 4.14 1.243s-1.854 1.243-4.14 1.243c-1.487 0-2.788-.235-3.519-.59l-5.8-1.522h.002z" fill="#F3C6A0"/><path d="M44.916 69.974c0-2.053.49-8.315 1.664-10.208 1.175-1.893.725-.029 2.206.042a2.7 2.7 0 012.562 2.814s-1.349 6.905-.367 7.864c.982.956 9.1 1.642 9.1 1.642v4.793s-12.165-2.163-13.272-2.646c-1.107-.483-1.893-2.681-1.89-4.3h-.003z" fill="#729EDB"/><path d="M68.244 75.399c.197-.692.64-1.32 1.265-1.848.596-.1 1.278-.154 2.006-.154 2.285 0 4.14.556 4.14 1.242 0 .686-1.855 1.243-4.14 1.243-1.33 0-2.511-.19-3.268-.48l-.003-.003z" fill="#F3C6A0"/><path d="M58.469 52.236v3.66s-2.856 3.133-5.483.075l.229-3.731h5.25l.004-.004z" fill="#E8BEA9"/><path d="M55.676 54.737c.07.01.141.016.212.022.88.065 1.69-.183 2.35-.718.062-.048.062-.132 0-.186-.058-.055-.154-.061-.212-.01a2.966 2.966 0 01-2.128.654c-.827-.062-1.536-.451-2.105-1.156a.172.172 0 00-.213-.039.118.118 0 00-.032.184c.567.705 1.3 1.136 2.125 1.252l.003-.003z" fill="#BA745D"/><path d="M59.539 48.073c.344 2.984-.045 6.213-2.389 6.423-2.437.218-5.009-1.172-5.353-4.156-.345-2.985 1.258-5.802 3.576-6.294 2.318-.493 3.821 1.043 4.163 4.027h.003z" fill="#F3C6A0"/><path d="M59.696 45.53c.122-.309.083-.672-.177-1.078a2.74 2.74 0 00-.184-.251c-.296-.377-.721-.73-1.114-1.037-.013 0-.029 0-.038.004-1.925-.6-4.153-.744-5.895.11-.853.401-1.326 1.01-1.545 1.709-.45.94-.319 2.459-.068 3.599.068.312.142.592.216.83.338 1.095.773 2.579 1.67 3.41.188.147.49.302.764.27.016 0 .029-.007.038-.007a1.836 1.836 0 01-.093-.157c-.09-.332-.068-.705-.068-1.034-.135.122-.244.187-.373.193-.123.01-.258-.038-.441-.148-.477-.257-.644-.753-.663-1.265 0-.132.022-.364.08-.586 0 0 0-.006.007-.01a.978.978 0 01.193-.402.347.347 0 01.26-.129c.149 0 .4.187.529.345.01.013.019.029.029.038.029.158.06.313.103.464.041.177.093.35.148.521.212.104.425.245.66.268l.01-.113c-.339-.946-.33-1.947-.294-2.949.01-.244.023-.489.03-.734.009-.228.015-.454.015-.679v-.035c1.047-.068 2.112-.132 3.01-.512-.35.154-.644.364-.914.599a9.3 9.3 0 00-.267.238c-.21.193-.409.392-.618.58 1.194.086 2.974-.574 4.185-1.304a8.1 8.1 0 00.483-.32h.003l.006.014c.023.257.039.518.052.785.051.94.055 1.919-.039 2.868.016 0 .036 0 .055.004.048-.252.122-.496.19-.74.09-.332.177-.667.206-1.018.055-.686.222-1.706-.151-2.344v.004z" fill="#0F343D"/><path d="M55.377 44.047c0 .962 2.624 1.43 3.609 1.43.988 0 1.79-.783 1.79-1.746 0-.962-.802-1.745-1.79-1.745-.989 0-3.609 1.098-3.609 2.06zm2.451 9.959c.757-.025 1.278-.325 1.623-.792-.158 1.324-.709 2.37-1.941 2.47-1.945.157-3.995-.847-4.27-3.007a4.474 4.474 0 01-.034-.618c.946 1.345 2.842 2.009 4.622 1.947z" fill="#0F343D"/><path d="M71.208 73.328h-9.825v1.375h9.825v-1.375z" fill="#fff"/><path d="M69.922 74.571H83.5l4.442-10.63H74.365l-4.443 10.63z" fill="#fff"/><path d="M70.56 74.571h13.58l4.442-10.63H75.003l-4.442 10.63z" fill="#073453"/><path d="M116.794 74.152H30.873v2.917h85.921v-2.917z" fill="#C3D6ED"/><path d="M30.874 74.152H14.736v2.917h16.138v-2.917z" fill="#A1BAD3"/><path d="M31.771 118.793h1.826l7.372-41.725h-3.622l-5.576 41.725z" fill="#C3D6ED"/><path d="M19.04 113.185h1.593l6.425-36.117h-3.155l-4.864 36.117z" fill="#153F5E"/><path d="M116.794 118.793h-1.828l-7.372-41.725h3.621l5.579 41.725z" fill="#C3D6ED"/><path d="M102.436 113.185h-1.593l-6.429-36.117h3.158l4.864 36.117z" fill="#153F5E"/><path d="M23.81 47.778v3.2h.693v-3.2c0-.232-.155-.419-.345-.419-.19 0-.344.187-.344.419h-.003zm.002 13.984c0 .232.154.419.344.419.19 0 .345-.187.345-.419v-3.006h-.692v3.006h.003zm-7.064-6.992c0 .19.187.344.418.344h3.2v-.692h-3.2c-.231 0-.418.154-.418.344v.004zm14.4-.348H28.14v.692h3.007c.231 0 .418-.155.418-.344 0-.19-.187-.345-.418-.345v-.003zM18.966 50.07l2.263 2.264.49-.49-2.264-2.263c-.164-.164-.405-.187-.54-.051-.136.135-.113.376.05.54zm9.888 9.889c.165.164.406.187.541.051.136-.135.113-.376-.051-.54l-2.128-2.128-.49.49 2.128 2.127zm-9.938.05c.136.135.377.113.541-.051l2.263-2.264-.49-.489-2.262 2.263c-.164.164-.187.406-.052.541zm9.938-10.428l-2.127 2.128.489.49 2.128-2.129c.164-.164.186-.405.051-.54-.135-.136-.376-.113-.54.051z" fill="#E5803C"/><path d="M135.412 79.97h-2.93v-1.754h2.93v-3.107h1.799v3.107h2.93v1.754h-2.93v3.107h-1.799V79.97z" fill="#729EDB"/><defs><filter id="filter0_d_248_64625" x="19.121" y="83.285" width="111.973" height="34.573" filterUnits="userSpaceOnUse" color-interpolation-filters="sRGB"><feFlood flood-opacity="0" result="BackgroundImageFix"/><feColorMatrix in="SourceAlpha" values="0 0 0 0 0 0 0 0 0 0 0 0 0 0 0 0 0 0 127 0" result="hardAlpha"/><feOffset dx="1.684" dy="1.684"/><feColorMatrix values="0 0 0 0 0 0 0 0 0 0 0 0 0 0 0 0 0 0 0.08 0"/><feBlend in2="BackgroundImageFix" result="effect1_dropShadow_248_64625"/><feBlend in="SourceGraphic" in2="effect1_dropShadow_248_64625" result="shape"/></filter></defs></svg>