<svg width="380" height="285" fill="none" xmlns="http://www.w3.org/2000/svg"><path d="M148.261 256.702c76.384-5.585 111.163 56.489 168.588-18.71 39.782-52.089 33.85-138.07-8.683-188.184-32.09-37.8-71.221-56.205-101.898-23.033-30.677 33.164-69.682 40.759-102.978 50.765-41.903 12.59-77.985 78.088-60.516 125.93 17.477 47.841 53.288 57.05 105.487 53.239v-.007z" fill="url(#paint0_linear_248_64038)"/><path d="M207.13 140.352s37.267-54.77 51.972-73.716c3.811-4.906 5.522-.88 5.37-.581-1.317 2.626-56.559 79.536-56.559 79.536s-16.914 21.218-21.869 23.872c-1.829.984-2.148-.041-2.675-.201-.526-.159.159-1.995 2.862-4.268 0 0 16.028-17.082 20.886-24.642h.013z" fill="#CDDAE7"/><path d="M180.116 84.527c.16 8.676 11.101 21.121 15.82 26.18 3.708 3.977 12.287 8.447 13.375 4.109 1.095-4.338-9.321-9.278-15.01-15.64-6.832-7.622-9.355-13.45-7.837-23.72.741-4.996 13.685-15.279 19.43-15.452-4.081 14.275-.658 24.26 2.384 30.92 2.01 4.4 5.641 8.564 9.896 5.536 4.254-3.028-.416-7.976-2.474-13.256-3.5-8.974-1.345-16.54.408-21.177 2.024-5.342 11.656-8.6 20.692-6.465-6.93 8.309-3.694 22.32-1.248 26.124 2.432 3.804 5.752 1.809 6.798-2.155.79-2.993 4.961-19.312 6.451-21.045 5.551-6.472 18.8-4.303 25.681-6.292.957 8.253 5.841 17.587 1.49 22.556-1.511 1.725-15.654 12.071-18.308 13.949-3.506 2.48-4.158 6.084.61 6.59 4.767.506 20.012-2.446 25.459-11.635 5.779 6.736 9.14 17.338 4.65 21.204-3.902 3.354-13.201 5.793-23.533 6.486-6.084.416-14.683.388-15.972 5.198-1.289 4.802 5.695 4.899 11.274 5.432 5.155.492 19.153-1.302 31.689-10.519 2.162 4.899-2.294 18.169-6.611 21.281-6.306 4.525-15.28 6.867-27.898 3.52-8.607-2.287-17.484-8.142-21.35-5.474-3.874 2.681 5.142 6.991 10.983 9.548 5.142 2.253 28.889 4.629 32.756 1.948.443 8.01-6.549 15.626-12.737 18.619-9.507 4.608-19.298-.076-25.486-4.13-6.694-4.379-16.277-13.284-17.317-7.816-2.508 13.194 23.72 17.857 27.843 19.382-7.228 13.373-28.272 12.978-37.863-1.068-5.827-8.53-2.377-17.822-6.244-21.682.901-1.164 41.799-59.24 43.94-62.15 2.523-3.424 8.336-12.605 8.406-13.832-1.185.555-7.969 9.161-10.339 12.674-2.023 2.98-44.425 60.675-45.228 61.901-5.398-1.684-9.099 5.911-19.812 3.812-11.419-2.246-27.628-11.573-17.892-32.888 3.181 2.855 11.593 10.471 16.631 14.275 3.998 3.028 10.748 5.994 12.404 2.723 2.543-5.038-11.157-9.743-18.225-13.595-6.535-3.562-11.101-6.854-12.05-14.157-.534-4.075 6.243-17.81 14.357-19.833l.007.014zm-24.78 172.125c44.623 0 80.798-3.927 80.798-8.772 0-4.845-36.175-8.773-80.798-8.773-44.624 0-80.798 3.928-80.798 8.773s36.174 8.772 80.798 8.772z" fill="#CDDAE7"/><path d="M196.629 137.754H95.556a7.948 7.948 0 00-7.949 7.948v93.984a7.95 7.95 0 007.949 7.949h101.073a7.95 7.95 0 007.949-7.949v-93.984a7.948 7.948 0 00-7.949-7.948z" fill="#FF9A2E"/><path d="M209.918 137.754H108.844a7.948 7.948 0 00-7.948 7.948v93.984a7.949 7.949 0 007.948 7.949h101.074a7.948 7.948 0 007.948-7.949v-93.984a7.947 7.947 0 00-7.948-7.948z" fill="#FFCB49"/><path d="M147.866 216.326l7.082-26.547c-3.749-1.892-6.341-5.925-6.341-10.595 0-6.486 4.989-11.739 11.15-11.739 6.16 0 11.15 5.259 11.15 11.739 0 4.94-2.897 9.16-6.999 10.893l7.144 26.249h-23.186z" fill="#FF9B2F"/><path d="M143.428 216.326l7.081-26.547c-3.748-1.892-6.34-5.925-6.34-10.595 0-6.486 4.99-11.739 11.15-11.739s11.149 5.259 11.149 11.739c0 4.94-2.896 9.16-6.998 10.893l7.144 26.249h-23.186z" fill="#3B2B5C"/><path d="M186.113 137.752V109.03c0-17.102-13.99-31.086-31.085-31.086-17.102 0-31.086 13.99-31.086 31.086v28.722h-11.226v-30.351c0-23.269 19.042-42.311 42.312-42.311 23.269 0 42.311 19.042 42.311 42.311v30.351h-11.226z" fill="#3E3F44"/><path d="M191.73 111.566c0-20.768-16.985-38.099-39.582-42.145 23.117.942 41.508 16.575 41.508 35.721 0 3.964-.79 7.775-2.245 11.337.215-1.615.325-3.257.325-4.92l-.006.007z" fill="#5D6079"/><path d="M257.387 232.822c4.123-8.218 7.102-20.678 8.128-35.133 6.569-10.11 11.136-25.812 12.175-43.863h-18.751a473.444 473.444 0 00-2.065 13.055c-3.589 24.849-4.982 47.897-4.386 65.934h4.892l.007.007z" fill="#1E2D54"/><path d="M293.199 191.669c.804-5.606 1.247-11.621 1.247-17.892 0-7.255-.589-14.177-1.656-20.504h-25.112c2.716 12.23 7.712 27.164 14.607 42.693 6.812 15.328 14.351 28.701 21.392 38.562l4.857-2.592c-1.192-6.389-3.042-13.152-5.585-19.984-2.799-7.546-6.146-14.393-9.763-20.276l.013-.007z" fill="#153F5E"/><path d="M262.724 118.459a39.034 39.034 0 002.182-4.525l-10.02-5.682a37.279 37.279 0 00-2.183 3.395c-1.628 2.855-2.806 5.731-3.478 8.295a93.619 93.619 0 00-2.211-.575c-9.902-2.391-18.314-2.446-18.779-.125-.471 2.314 7.18 6.133 17.089 8.516.603.146 4.899 2.093 7.144 1.65 2.245-.444 6.063-3.479 10.269-10.949h-.013z" fill="#EA9F87"/><path d="M229.987 115.751s-.478-.942-1.06-.097c-.693.991-1.684 1.088-2.557-.118-.444-.61-1.067-1.434-1.892-3.007-.18-.915-.769-1.033-.915-.52-.499 1.774-.304 3.881 1.428 6.257 1.733 2.384 3.513 3.514 4.843 2.363 1.054-.914 1.068-2.91.16-4.878h-.007z" fill="#EA9F87"/><path d="M295.617 114.316l8.149-4.49c-.291-9.077-7.962-16.68-18.363-19.07-1.075 1.899-3.694 3.25-6.763 3.25-3.07 0-5.766-1.386-6.812-3.333-9.847 2.134-17.317 8.911-18.564 17.234l9.971 4.753c-.111 13.513-8.135 36.311-6.361 39.374 1.947 3.36 34.176 4.033 36.948 3.361 2.765-.673-2.128-31.862-.326-40.926l2.114-.153h.007z" fill="#729EDB"/><path d="M305.889 113.644a42.775 42.775 0 00-2.3-4.858l-10.693 6.126a42.933 42.933 0 001.394 4.164c1.302 3.306 2.889 6.188 4.538 8.399-.602.575-1.205 1.157-1.815 1.767-7.969 8.024-13.152 16.049-11.579 17.913 1.573 1.864 9.313-3.132 17.282-11.157.485-.492 4.67-3.409 5.689-5.834 1.012-2.426.907-7.935-2.523-16.52h.007z" fill="#EFB495"/><path d="M283.708 143.339s-1.046-.124-.728.957c.375 1.268-.152 2.272-1.656 2.376-.762.056-1.808.146-3.569-.027-.845-.388-1.302.111-.977.561 1.123 1.559 2.931 2.661 5.897 2.46 2.966-.201 4.969-1.22 4.858-3.195-.09-1.566-1.684-2.792-3.825-3.132z" fill="#EFB495"/><path d="M284.364 93.064a12.875 12.875 0 01-5.737 1.337c-2.37 0-4.581-.644-6.472-1.739.741-1.282 1.191-2.945 1.191-4.774 0-2.488-.831-4.685-2.099-6.001v-3.119h7.664c.339 5.807 2.404 10.9 5.453 14.296z" fill="#EA9F86"/><path d="M269.6 75.558c.7-3.839 4.559-3.139 7.38-2.529 1.808.388 3.375 1.026 4.061 3.285.408-.375.845.637 1.302.755.95.242 1.456.741 1.144 2.203-.319 1.463-1.338 3.334-2.287 3.091-.049-.014-.083-.041-.132-.055-.332 1.17-.159 2.196-.866 3.014-1.386 1.614-4.06 2.501-5.834 2.53-5.787.075-5.461-8.455-4.761-12.294h-.007z" fill="#EBB190"/><path d="M266.813 70.62c.471-3.119 6.639-4.29 11.254-3.728l.922.11s2.237.465 3.741 2.35c1.552 1.94 2.37 5.342 2.107 8.072-.291 3.05-2.023 5.142-3.451 5.211-.333.014-.568-.124-.755-.38.506-.16 1.018-.597 1.365-1.227.589-1.067.485-2.28-.222-2.703-.582-.353-1.386-.062-1.982.63-.478-2.362-1.469-4.857-5.654-4.108-4.58.824-7.803-1.102-7.332-4.22l.007-.007z" fill="#1C3054"/><path d="M252.882 236.072l3.249 1.088 1.685-6.001-3.832-1.282-1.102 6.195z" fill="#EA9F88"/><path d="M259.459 240.464l-1.406-4.331s-2.079.506-3.347.298c-1.268-.208-1.268-1.476-1.767-2.307h-1.691s-2.224 4.303-6.583 5.377h-3.27c-.763 0-1.386.998-1.386 2.224v.984h13.741l.693-1.316h.388v1.316h4.885v-.984c0-.464-.09-.894-.242-1.254l-.015-.007z" fill="#16415D"/><path d="M305.497 237.339l3.389-.291-.45-6.257-3.992.346 1.053 6.202z" fill="#EA9F88"/><path d="M313.098 238.79l-2.772-3.465s-1.766 1.303-3.014 1.615c-1.254.312-1.67-.866-2.425-1.441l-1.573.679s-.617 4.892-4.317 7.643l-3.042 1.31c-.707.305-.949 1.483-.541 2.619l.333.922 12.778-5.509.201-1.504.36-.153.444 1.227 4.545-1.961-.332-.922a3.036 3.036 0 00-.645-1.067v.007z" fill="#16415D"/><path d="M53.2 112.471v6.888h1.49v-6.888c0-.499-.332-.901-.741-.901-.41 0-.742.402-.742.901H53.2zm.003 30.104c0 .499.333.901.742.901s.74-.402.74-.901v-6.472h-1.489v6.472h.007zM38 127.526c0 .408.403.741.901.741h6.888v-1.49H38.9c-.498 0-.901.333-.901.742v.007zm31.001-.741H62.53v1.489h6.472c.5 0 .901-.332.901-.741s-.402-.742-.9-.742v-.006zm-26.218-9.378l4.872 4.871 1.053-1.053-4.872-4.872c-.353-.353-.873-.401-1.164-.11-.29.291-.242.81.111 1.164zm21.287 21.286c.353.354.873.402 1.164.111.29-.291.242-.811-.111-1.164l-4.58-4.58-1.054 1.053 4.58 4.58zm-21.398.116c.291.292.81.243 1.164-.11l4.872-4.872-1.053-1.053-4.872 4.871c-.353.354-.402.873-.11 1.164zm21.398-22.456l-4.58 4.581 1.052 1.053 4.58-4.58c.354-.354.403-.874.112-1.165-.291-.291-.811-.242-1.165.111z" fill="#E5803C"/><path d="M143.432 46.866c6.805 0 12.321-5.516 12.321-12.32 0-6.805-5.516-12.321-12.321-12.321-6.804 0-12.321 5.516-12.321 12.32 0 6.805 5.517 12.321 12.321 12.321z" fill="#EAF0F9"/><defs><linearGradient id="paint0_linear_248_64038" x1="190.942" y1="9.5" x2="190.942" y2="275.5" gradientUnits="userSpaceOnUse"><stop stop-color="#F6FBFF"/><stop offset="1" stop-color="#EAF0F9"/></linearGradient></defs></svg>