<svg width="380" height="285" fill="none" xmlns="http://www.w3.org/2000/svg"><path d="M83.41 200.551a3.283 3.283 0 01-6.562 0 3.283 3.283 0 016.563 0zm-.47 7.531a1.442 1.442 0 100-2.884 1.442 1.442 0 000 2.884zm14.588-6.311a6.507 6.507 0 10-12.664-3 6.508 6.508 0 1012.664 3zm58.66 8.105v2.732h.591v-2.732c0-.195-.132-.355-.292-.355-.16 0-.293.16-.293.355h-.006zm0 11.943c0 .195.133.355.293.355.16 0 .293-.16.293-.355v-2.571h-.592v2.571h.006zm-6.034-5.971c0 .16.16.293.355.293h2.732v-.592h-2.732c-.195 0-.355.132-.355.292v.007zm12.306-.299h-2.571v.592h2.571c.195 0 .355-.133.355-.293 0-.16-.16-.292-.355-.292v-.007zm-10.409-3.713l1.931 1.93.418-.418-1.93-1.93c-.139-.139-.349-.16-.46-.042-.111.118-.098.321.041.46zm8.453 8.445c.139.14.348.161.46.042.111-.118.097-.32-.042-.46l-1.819-1.818-.417.418 1.818 1.818zm-8.495.04c.118.119.321.098.46-.041l1.93-1.93-.418-.418-1.931 1.93c-.139.139-.159.348-.041.459zm8.495-8.904l-1.818 1.818.417.418 1.819-1.818c.139-.139.16-.348.042-.46-.119-.111-.321-.097-.46.042zm26.381 58.457h-2.006v-1.198h2.006v-2.125h1.234v2.125h2.007v1.198h-2.007v2.125h-1.234v-2.125z" fill="#E5803C"/><path opacity=".3" d="M252.127 238.076c31.253 0 56.589-4.442 56.589-9.922s-25.336-9.922-56.589-9.922c-31.254 0-56.59 4.442-56.59 9.922s25.336 9.922 56.59 9.922zm-135.891 1.72c31.254 0 56.589-4.442 56.589-9.921 0-5.48-25.335-9.922-56.589-9.922-31.253 0-56.59 4.442-56.59 9.922 0 5.479 25.337 9.921 56.59 9.921z" fill="#C7D0DD"/><path d="M309.895 151.025c-.272-13.782-5.727-19.16-9.525-28.803-4.633-11.775-7.601-20.248-1.602-32.74 9.803-20.421 27.472-72.844-26.065-77.338-19.188-1.61-38.495 10.542-53.823 23.543-13.043 11.064-29.612 8.625-43.602 8.779-17.189.188-35.269 2.222-52.66 7.218-35.819 10.284-52.506 32.781-60.93 64.42-2.543 9.56-5.915 24.762 3.4 45.483 12.577 27.968 42.884 29.73 80.926 26.588 8.71-.718 17.419-2.94 26.136-4.139 9.057-1.24 18.122-1.365 26.943-.376 20.581 2.313 37.623 18.471 58.742 16.227 11.168-1.184 22.386-5.4 32.273-12.123 12.346-8.396 20.072-22.198 19.787-36.739z" fill="#EAF0F9"/><path d="M87.65 211.799l1.344-5.553a14.286 14.286 0 01-1.867-.328 14.03 14.03 0 01-2.856-1.059l-1.345 5.56c.92.446 1.874.802 2.857 1.045.613.154 1.233.265 1.867.335z" fill="#55B6CA"/><path d="M134.545 144.285l-.669-2.654a57.805 57.805 0 01-4.201 1.17c-.884.216-1.776.404-2.661.572l.669 2.654a58.417 58.417 0 002.661-.578 63.888 63.888 0 004.201-1.164z" fill="#314572"/><path d="M109.524 43.87s-4.877-6.194-3.456-13.314c.753-3.756 10.116-6.529 13.321-6.529s2.787 4.348 2.787 4.348 5.93 7.657 6.404 9.002l-3.01 2.104s3.525 6.403 1.567 7.371c-1.156.572-6.793 1.046-6.793 1.046l-.808 9.475-9.713-3.017-.313-10.486h.014z" fill="#CF8E5A"/><path d="M114.865 28.445c-.202-2.243 4.627-.697 6.996-1.407 1.504-.453.049-3.01-1.84-3.867-3.504-1.582-8.563 1.867-8.563 1.867s-5.162 2.446-5.978 5.846c-.815 3.4 2.042 12.444 2.042 12.444s-1.923-.948 1.56-1.798c3.477-.857 1.847-4.759 3.714-4.947 1.867-.188 4.759 3.219 4.759 3.219l2.209-.53s-4.69-8.59-4.899-10.834v.007z" fill="#0F343D"/><path d="M112.119 41.328l4.09 7.079 3.734.766.412-1.275-3.923-.404-3.867-6.166h-.446z" fill="#D3AF94"/><path d="M127.015 36.018l-3.568-5.985 5.135 7.35-.481.495-1.086-1.86z" fill="#CF8E5A"/><path d="M136.142 222.411l-11.684 3.393-3.275-37.617 1.316-12.332-5.245-39.101-10.501 36.739-18.895 52.332H76.312l8.821-33.388 7.846-24.323 3.282-44.766 24.79-1.602 14.303-1.547.788 102.212z" fill="#314572"/><path d="M172.358 68.814l-19.899 7.26s-.836 2.097-2.411-.16c-.996-1.429-8.68-9.838-14.219-15.851l-5.01-5.992-.572-.042-.146-.16.014.146-6.849-.502-3.407 29.305-13.642-31.095-16.137 11.58-4.34 7.622-1.052 16.533 11.691-9.287 1.575 19.432-2.23 27.18 41.985-2.752-4.716-43.54 3.441 2.223 14.66 11.726s2.626 0 3.483-1.142c.857-1.143 21.056-11.97 21.056-11.97l-3.281-10.521.006.007z" fill="#729EDB"/><path d="M123.545 173.757l-1.1 13.774 2.41 37.094-3.728-37.756 1.22-12.98-5.093-37.136 1.442-5.114 4.849 42.118z" fill="#314572"/><path d="M100.32 175.986l-3.937 4.202" stroke="#3E2B68" stroke-width=".561" stroke-miterlimit="10"/><path d="M154.515 231.859h-22.567l-1.707-1.575-1.443 1.575h-3.943v-7.232l11.218-1.498 5.58 4.996 12.862 2.8v.934zm-67.181.921l-11.245-.558-.3-2.989 1.575-3.407 9.97.39v6.564z" fill="#19132E"/><path d="M119.872 82.832l-13.253-30.705 1.679-.23 8.954 4.82 3.797-3.977 2.229.787-3.406 29.305z" fill="#729EDB"/><path d="M118.042 60.655l3.086 11.315-1.254 10.862-4.724-10.771 1.708-11.141-1.708-1.84 1.965-2.494 2.104 2.362-1.177 1.707zM103.08 57.77l16.791 25.062-13.642-31.096-2.759 3.672 2.571.126-2.961 2.236z" fill="#729EDB"/><path d="M127.481 55.54l-7.608 27.292 3.407-29.305 4.201 2.014z" fill="#729EDB"/><path d="M96.128 125.186l20.073-.787 18.763-2.362-39.1 1.707.264 1.442z" fill="#29667D"/><path d="M120.882 121.753l.334-.014-1.177-38.885 7.608-26.873-.327-.09-7.623 26.922v.027l1.185 38.913z" fill="#729EDB"/><path d="M95.6 69.713l.787 8.396" stroke="#382B66" stroke-width=".561" stroke-miterlimit="10"/><path d="M132.031 66.25l.968 12.249" stroke="#25596B" stroke-width=".561" stroke-miterlimit="10"/><path d="M180.894 64.397l1.484 1.435-2.034 3.114 4.556-.766 2.864 2.16-.119 1.818-3.929 2.39-4.222 1.386-3.77.44-2.271-4.341 7.441-7.636z" fill="#CF8E5A"/><path d="M98.676 175.066l-6.153 6.292m41.256-7.467l-3.937 4.194" stroke="#3E2B68" stroke-width=".561" stroke-miterlimit="10"/><path d="M132.604 76.27l.132 1.88 18.367 14.298-18.499-16.178zM87.6 85.147l8.662-6.647-.397-1.832-9.441 8.438 1.177.041z" fill="#729EDB"/><path d="M86.52 93.814l11.135-11.489L95.48 59.34l-6.062 4.354-14.401 26.748 2.522 33.339 8.946-1.804.035-28.163z" fill="#729EDB"/><path d="M89.12 131.104l-1.728.919-2.327-2.557-.53 4.146 3.1 6.5-2.006.07-3.867-4.633-2.793-4.578-.133-4.013.613-3.379 4.634-.864 5.037 8.389z" fill="#CF8E5A"/><path d="M243.546 29.984h-1.867v-3.4h-3.038v-1.923h3.038v-3.4h1.867v3.4h3.038v1.923h-3.038v3.4zm-13.473 112.381h-2.619v-4.766h-4.265v-2.697h4.265v-4.765h2.619v4.765h4.264v2.697h-4.264v4.766z" fill="#FCFCFD"/><path d="M248.783 44.324s5.414-6.605 3.825-14.2c-.836-4.006-11.218-6.96-14.771-6.96-3.553 0-4.048 4.64-4.048 4.64s-3.233 7.644-3.762 9.079l.961 2.766s-3.909 6.828-1.742 7.86c1.282.605 7.526 1.114 7.526 1.114l.891 10.103 10.765-3.22.348-11.182h.007z" fill="#B06D55"/><path d="M241.897 30.64c.223-2.396-4.173-3.511-6.8-4.264-1.665-.48-.056-3.212 2.034-4.117 3.888-1.686 9.497 1.992 9.497 1.992s5.721 2.606 6.626 6.236c.906 3.63-2.264 13.273-2.264 13.273s2.125-1.01-1.728-1.916c-3.86-.913.829-5.072-1.241-5.274-2.069-.202-3.357 3.435-3.357 3.435l-1.972-1.025s-1.032-5.936-.802-8.326l.007-.014z" fill="#314572"/><path d="M246.756 43.537l-4.02 6.703-3.679.724-.397-1.205 3.853-.383 3.804-5.839h.439z" fill="#633629"/><path d="M223.131 220.935l11.489 3.212 3.219-41.686-1.289-11.664 5.163-36.983 10.318 34.747 23.223 55.606h11.35l-10.605-37.679-10.423-23.013-3.226-47.532-24.379-1.519-14.06-1.463-.78 107.974z" fill="#314572"/><path d="M202.465 116.186s7.351-31.332 8.904-33.471c.976-1.352 6.633-15.767 12.075-21.446l4.925-5.671.558-.042c.09-.098.146-.153.146-.153l-.014.139 6.731-.474 3.351 16.046 13.412-17.739s10.41 4.404 15.865 10.953c5.456 6.55 11.35 22.574 11.74 28.761.39 6.187.391 29.542.391 29.542l-9.128-.704-2.996-25.528-6.577-12.744-1.164 13.113 2.195 20.519-41.282-2.606 4.641-35.993.097 2.104-8.8 12.876-5.385 23.417-9.678-.913-.007.014z" fill="#ED971B"/><path d="M235.516 168.812l1.081 13.036-2.363 41.184 3.658-41.818-1.198-12.276 5.017-35.123-1.422-4.842-4.773 39.839z" fill="#314572"/><path d="M205.07 229.874h22.191l1.679-1.492 1.415 1.492h3.88v-6.842l-11.029-1.415-5.49 4.724-12.646 2.648v.885zm70.698.869l11.057-.522.293-2.829-1.547-3.226-9.803.369v6.208z" fill="#19132E"/><path d="M239.664 68.174l12.499-14.415-1.651-.216-8.8 4.564-3.741-3.77-2.188.746 3.881 13.091z" fill="#fff"/><path d="M268.621 130.602l1.762.906 2.376-2.516.544 4.076-3.163 6.375 2.048.077 3.951-4.557 2.843-4.494.139-3.943-.627-3.317-4.724-.85-5.149 8.243z" fill="#B06D55"/><path opacity=".6" d="M262.479 117.677l-19.739-.745-18.449-2.237 38.446 1.617-.258 1.365z" fill="#19132E"/><path d="M270.346 111.561l-1.93-15.147-6.584-12.744.39-1.734 7.344 14.436.78 15.189zm-43.732-33.159l-.063 1.77-9.03 13.51 9.093-15.28z" fill="#ED971B"/><path d="M212.873 125.969l-1.916.599-1.818-2.864-1.359 3.916 1.798 6.793-2.028-.272-2.94-5.128-1.881-4.891.668-3.901 1.303-3.15 4.808-.055 3.365 8.953z" fill="#B06D55"/><path d="M191.322 131.382v22.7h31.222v-22.7h-6.766v-6.431h-17.684v6.431h-6.772zm23.049 0h-14.883v-5.414h14.883v5.414z" fill="#314572"/><path d="M55.285 25.884v6.926h1.498v-6.926c0-.501-.334-.905-.745-.905s-.746.404-.746.905h-.007zm.001 30.268c0 .502.335.906.746.906.41 0 .746-.404.746-.906v-6.508h-1.499v6.508h.007zM40 41.018c0 .411.404.746.906.746h6.925v-1.498h-6.925c-.502 0-.906.334-.906.745v.007zm31.171-.745h-6.507v1.498h6.507c.502 0 .907-.334.907-.745s-.405-.746-.907-.746v-.007zm-26.365-9.429l4.899 4.898 1.058-1.059-4.897-4.898c-.355-.355-.879-.404-1.171-.111-.293.292-.244.815.111 1.17zm21.403 21.404c.355.356.878.405 1.17.112.293-.293.244-.815-.111-1.17l-4.606-4.606-1.059 1.059 4.605 4.605zm-21.514.112c.292.292.816.243 1.17-.112l4.898-4.898-1.058-1.059-4.899 4.898c-.355.355-.404.878-.111 1.17zm21.514-22.575l-4.606 4.605 1.06 1.06 4.605-4.606c.355-.356.404-.878.111-1.17-.292-.293-.815-.244-1.17.11z" fill="#E5803C"/><path d="M328.074 102.671c6.842 0 12.387-5.547 12.387-12.388 0-6.842-5.545-12.389-12.387-12.389-6.842 0-12.388 5.547-12.388 12.389 0 6.841 5.546 12.388 12.388 12.388z" fill="#EAF0F9"/></svg>