<svg width="380" height="285" fill="none" xmlns="http://www.w3.org/2000/svg"><path d="M280.759 94.456c-67.041-36.464-63.488-108.802-151.345-74.98C68.549 42.91 28.16 120.274 37.421 186.487c6.983 49.95 30.115 86.972 73.357 74.941 43.242-12.03 79.982 2.508 113.201 11.871 41.805 11.787 106.64-25.203 117.215-75.916 10.575-50.707-14.615-78.013-60.435-102.934v.007z" fill="url(#paint0_linear_248_63919)"/><path d="M271.506 62.377H56c-5.543 0-10.036 4.494-10.036 10.036v141.11c0 5.543 4.493 10.036 10.036 10.036h215.506c5.543 0 10.036-4.493 10.036-10.036V72.413c0-5.542-4.493-10.036-10.036-10.036z" fill="#C5DAEF"/><path d="M271.506 63.531H56c-5.522 0-10.036 4.515-10.036 10.036v128.124h235.578V73.567c0-5.521-4.515-10.036-10.036-10.036z" fill="#284C7D"/><path d="M187.96 223.562h-48.417v21.252h48.417v-21.252z" fill="#7AA9D7"/><path d="M273.274 72.415H54.228v119.267h219.046V72.415z" fill="#D7E7F5"/><path d="M168.181 207.616h-8.862a3.541 3.541 0 00-3.541 3.54v.006a3.541 3.541 0 003.541 3.54h8.862a3.54 3.54 0 003.54-3.54v-.006a3.54 3.54 0 00-3.54-3.54z" fill="#7AA9D7"/><path d="M208.032 252.49v-1.18c0-3.572-2.925-6.496-6.497-6.496h-75.576c-3.572 0-6.496 2.924-6.496 6.496v1.18h88.569z" fill="#C5DAEF"/><path d="M257.924 106.482H122.721v50.867h135.203v-50.867zm-145.15.092H69.576v47.52h43.198v-47.52zm145.15 55.987H122.721v8.465h135.203v-8.465zM231.35 84.023H96.147v8.465H231.35v-8.465z" fill="#fff"/><path fill-rule="evenodd" clip-rule="evenodd" d="M77.952 140.871c1.481-1.404 4.553-1.923 7.298-2.892 2.777-.981 3.174-5.246 2.956-7.798l6.201-.436c-.224 2.552-.057 7.099 2.72 8.234 2.776 1.135 5.88 1.488 7.567 2.841a18.427 18.427 0 01-11.312 5.611h-4.169a18.55 18.55 0 01-11.248-5.56h-.013z" fill="#2E6A3F"/><path fill-rule="evenodd" clip-rule="evenodd" d="M91.092 144.396c-2.623-1.077-5.861-2.937-6.304-6.907 1.494-.545 2.328-2.026 2.751-3.713a29.803 29.803 0 013.547-.205c1.237 0 2.437.071 3.553.205.423 1.687 1.257 3.175 2.75 3.713-.435 3.97-3.68 5.83-6.303 6.907h.006z" fill="#E8B88E"/><path fill-rule="evenodd" clip-rule="evenodd" d="M94.322 141.895c.064.475-5.213-6.092-4.938-7.869 1.11-.134.462-.455 1.706-.455s2.437.071 3.553.205c.423 1.687 1.257 3.175 2.751 3.713-.436 3.97-.442 3.329-3.065 4.406h-.007z" fill="#CBA07E"/><path fill-rule="evenodd" clip-rule="evenodd" d="M98.404 124.339c1.648 1.43-.95 6.875-.95 6.875s-3.27 4.828-6.169 4.828c-2.898 0-6.17-4.828-6.17-4.828s-2.596-4.778-.948-6.202c.333-4.04 2.571-7.65 7.124-7.65 4.554 0 6.779 2.93 7.119 6.977h-.006z" fill="#F5D3AE"/><path fill-rule="evenodd" clip-rule="evenodd" d="M83.835 127.137c-.026-1.847.212-3.45.904-4.617.673-1.129.917-3.579 2.873-3.014.95.275 2.886.814 4.117.814 1.231 0 2.796-.539 3.745-.814 1.706-.494 1.398 1.866 2.084 2.879.821 1.206 1.148 2.86 1.084 4.733.847-2.88-.34-10.562-.34-10.562s-4.181-1.54-7.099-1.54c-3.367 0-6.996 2.444-6.996 2.444s-1.2 6.785-.379 9.683l.007-.006z" fill="#83422A"/><path d="M103.495 136.587l-7.606-.455-4.855 2.668-4.745-2.636-7.15.429c-.654 0-1.187.533-1.187 1.187v6.676c3.444 3.213 8.061 2.27 13.14 2.27 5.08 0 10.113 1.552 13.596-1.918v-7.035c0-.654-.533-1.186-1.187-1.186h-.006z" fill="#ED971B"/><path d="M91.033 138.429l-4.546-2.276-.193.013 1.16 10.485c1.18.224 6.003.237 7.138.025l1.296-10.517-.2-.013-4.655 2.283z" fill="#C9E3F1"/><path d="M92.309 114.278l-6.022 2.02 1.11 2.213 4.912.987v-5.22z" fill="#83422A"/><path d="M92.431 121.043c1.783-.443 2.072-1.398 2.43-2.437.193-.551 1.476.128 2.104 1.199.674 1.148.706 2.719 1.058 2.88.577-.744.706-2.117.706-3.014 0-1.495-.263-2.918-1.61-4.15-1.346-1.224-3.777-.41-6.015-.41-1.911 0-4.444-.628-5.887 1-.968 1.091-1.257 2.354-1.257 3.56 0 .891.07 2.751.648 3.488.68-.314.237-2.071 2.622-3.078 2.258-.949 3.56 1.366 5.208.949l-.007.013z" fill="#83422A"/><path d="M179.876 47.981s13.134 1.725 18.623 1.533c5.49-.192 15.263-.289 15.263-.289s1.559 5.182-.647 7.1c-2.207 1.917-15.405 7.477-24.575 3.546-9.17-3.931-9.504-11.23-8.664-11.896v.006z" fill="#1F3E68"/><path d="M191.83 63.138s11.133-7.67 15.167-10.28c3.508-2.27 10.242-7.74 13.403-3.142 3.162 4.605-1.148 8.721-4.701 11.12-3.091 2.09-16.436 7.83-18.982 10.068-1.629.096-5.156-4.983-4.887-7.766z" fill="#1E598D"/><path d="M198.961 64.072c-1.039-1.25-1.647-2.764-2.34-4.226-2.7 1.847-4.791 3.29-4.791 3.29-.269 2.783 3.258 7.862 4.887 7.766.987-.872 3.61-2.27 6.624-3.777-1.661-.706-3.2-1.642-4.38-3.053z" fill="#1E598D"/><path d="M185.217 66.479s-2.635 1.943-3.213 2.988c-.577 1.046 1.604 1.571 1.604 1.571s8.266-.904 10.664-2.443c2.399-1.533-.558-3.784-2.456-3.784s-5.162.52-6.599 1.668zm13.32.106s3.643 2.784 7.478 3.066c3.835.288 5.271.865 5.271.865s-2.205-4.136-4.7-5.572c-2.495-1.437-7.285-2.963-8.055-2.386-.77.577-.577 2.206 0 4.027h.006z" fill="#EBCEAD"/><path d="M188.906 65.138l-8.767 1.712c-1.096.27-1.834 1.725-1.642 3.232.193 1.507 1.251 2.52 2.348 2.258l9.67-2.38c-.782-1.135-1.359-2.828-1.615-4.816l.006-.006z" fill="#24447E"/><path d="M181.603 66.56l-1.456.281c-1.097.27-1.834 1.726-1.642 3.233.193 1.507 1.25 2.52 2.347 2.257l1.341-.334c0-1.994-.219-3.854-.597-5.431l.007-.007zm3.261-.281l-.586.069.358 3.025.586-.07-.358-3.024zm1.072-.301l-.585.07.358 3.024.585-.07-.358-3.024zm1.002-.163l-.585.069.358 3.025.585-.07-.358-3.024z" fill="#fff"/><path d="M190.509 70.216l-9.568 2.2-.077-.61 9.575-2.192.07.602z" fill="#fff"/><path d="M200.649 61.982s-5.752-3.989-11.639-7.567c-3.822-2.328-10.319-8.92-13.288-7.773-2.97 1.148-4.7 4.656-3.739 7.6.956 2.943 9.549 8.285 13.833 10.267 5.245 2.43 11.678 3.572 13.306 4.816 1.629 1.244 3.335-6.586 1.527-7.35v.007z" fill="#284C7D"/><path d="M204.789 63.891l9.165 1.79c1.147.282 1.917 1.802 1.712 3.38-.205 1.577-1.309 2.635-2.456 2.359l-10.113-2.488c.814-1.187 1.423-2.963 1.692-5.034v-.007z" fill="#24447E"/><path d="M212.428 65.38l1.526.294c1.148.282 1.917 1.802 1.712 3.38-.205 1.578-1.308 2.636-2.456 2.36l-1.404-.346c0-2.091.23-4.034.622-5.682v-.007zm-3.065-.535l-.374 3.165.586.07.374-3.166-.586-.07zm-1.109-.252l-.374 3.165.586.07.374-3.166-.586-.069zm-1.05-.234l-.374 3.165.586.07.374-3.166-.586-.07z" fill="#fff"/><path d="M203.111 69.203l10.011 2.302.077-.635-10.011-2.296-.077.629z" fill="#fff"/><path d="M209.768 26.646s-5.701-4.213-12.614-4.213c-6.913 0-14.077 4.213-14.077 4.213s-3.373 6.182-4.496 16.577c-1.122 10.396 34.707 8.292 36.811 0 2.11-8.292-5.618-16.577-5.618-16.577h-.006zm-24.305 16.443v-5.9l2.527 5.9h-2.527zm22.618 0h-2.526l2.526-5.9v5.9z" fill="#EA9646"/><path d="M206.529 54.33h-18.828l-3.367-14.192h25.991l-3.796 14.191z" fill="#C2C6C6"/><path d="M183.347 48.636l4.354 4.572v1.122l-4.354-4.566v-1.128z" fill="#D3D3D5"/><path d="M187.284 52.785l-3.937-4.15h3.02l.917 4.15z" fill="#AEA9A9"/><path d="M206.599 53.24H187.7v1.091h18.899v-1.09zm4.361-4.564l-4.36 4.566v1.123l4.36-4.566v-1.123z" fill="#D3D3D5"/><path d="M206.907 52.922l4.053-4.246h-2.918l-1.135 4.246z" fill="#AEA9A9"/><path d="M202.615 18.782s.379-.634 1.039-.68c.661-.044.231 2.027.038 2.816-.192.789-.942 1.09-1.212.635l.135-2.77z" fill="#EED3C0"/><path d="M202.695 13.77c-.096-2.186-3.2-1.737-5.367-1.962-2.168.225-5.272-.224-5.368 1.963-.096 2.206.205 8.548.391 10.17.18 1.604 3.277 4.496 4.977 4.682 1.705-.18 4.796-3.078 4.976-4.682.186-1.622.487-7.964.391-10.17z" fill="#EBCEAD"/><path d="M202.264 10.627c-1.423-1.084-3.668-1.167-4.938-1.116-1.269-.051-3.508.032-4.938 1.116-2.084 1.584-1.41 2.373-1.507 3.046-.096.674.218 4.265.411 4.887.192.622.75.224.75.224s-.032-3.245 1.264-3.578c1.295-.333 2.161-.282 3.45.07.199.058 3.302-.41 4.598-.07 1.295.333 1.263 3.578 1.263 3.578s.558.398.75-.224c.193-.622.5-4.22.41-4.887-.096-.673.571-1.462-1.506-3.046h-.007z" fill="#6A2119"/><path d="M192.044 18.782s-.379-.634-1.039-.68c-.661-.044-.231 2.027-.039 2.816.193.789.943 1.09 1.212.635l-.134-2.77z" fill="#EED3C0"/><path d="M185.466 119.615a.38.38 0 00-.122-.276l-.75-.724a.408.408 0 00-.564 0l-3.951 3.95-2.764-2.681a.396.396 0 00-.282-.115.396.396 0 00-.282.115l-.782.783a.395.395 0 000 .558l3.796 3.674a.422.422 0 00.565 0l5.021-5.008a.383.383 0 00.115-.276zm-13.185-2.279h-37.997v1.834h37.997v-1.834zm-.008 4.26h-37.997v1.834h37.997v-1.834zm-.019 4.142h-37.996v1.834h37.996v-1.834zm.027 6.616h-37.997v1.834h37.997v-1.834zm-.008 4.268h-37.997v1.834h37.997v-1.834zm-.011 4.141h-37.996v1.834h37.996v-1.834zm13.204-6.29a.378.378 0 00-.122-.275l-.75-.725a.409.409 0 00-.564 0l-3.951 3.95-2.764-2.68a.397.397 0 00-.282-.116.397.397 0 00-.282.116l-.782.782a.395.395 0 000 .558l3.796 3.675a.423.423 0 00.565 0l5.021-5.009a.383.383 0 00.115-.276zm-13.204 10.554h-37.996v1.834h37.996v-1.834zm74.84-24.8a.38.38 0 00-.123-.276l-.75-.724a.408.408 0 00-.564 0l-3.951 3.95-2.763-2.681a.399.399 0 00-.283-.115.394.394 0 00-.281.115l-.783.783a.395.395 0 000 .558l3.797 3.674a.421.421 0 00.564 0l5.021-5.008a.384.384 0 00.116-.276zm-13.183-2.271h-37.996v1.834h37.996v-1.834zm-.015 4.26h-37.997v1.834h37.997v-1.834zm-.011 4.141h-37.997v1.834h37.997v-1.834zm.026 6.621h-37.996v1.834h37.996v-1.834zm-.007 4.264h-37.997v1.834h37.997v-1.834zm-.011 4.141h-37.997v1.834h37.997v-1.834zm13.201-6.297a.379.379 0 00-.123-.276l-.75-.725a.409.409 0 00-.564 0l-3.951 3.951-2.763-2.681a.399.399 0 00-.283-.115.394.394 0 00-.281.115l-.783.782a.395.395 0 000 .558l3.797 3.675a.422.422 0 00.564 0l5.021-5.009a.383.383 0 00.116-.275zm-13.201 10.557h-37.997v1.834h37.997v-1.834z" fill="#729EDB"/><path d="M139.161 179.483h-32.429c-2.719 0-4.945 2.225-4.945 4.944v62.994a4.96 4.96 0 004.945 4.945h32.429a4.96 4.96 0 004.945-4.945v-62.994c0-2.719-2.225-4.944-4.945-4.944zm1.386 62l-.071 1.943h-34.97l-.07-1.943v-53.33h-1.225 36.265l.071 2.271v51.059z" fill="#284C7D"/><path d="M140.464 188.152h-35.04v55.273h35.04v-55.273zm-13.768 57.916h-7.497v2.117h7.497v-2.117z" fill="#fff"/><path d="M138.098 192.026h-30.307v46.917h30.307v-46.917z" fill="#D7E7F5"/><path d="M134.462 197.715h-22.355v34.604h22.355v-34.604z" fill="#F2F2F2"/><path d="M117.116 213.824l-1.828-.006v-5.701l1.828.006v5.701zm2.377.009l-1.834-.006.007-7.414 1.827.007v7.413zm2.413.006l-1.828-.006.006-9.639 1.828.007-.006 9.638zm2.378.011l-1.834-.006.006-5.701 1.828.006v5.701zm2.346.006l-1.827-.007.006-8.4 1.827.006-.006 8.401zm2.381.007l-1.833-.007.006-11.306 1.834.007-.007 11.306z" fill="#729EDB"/><path d="M131.422 213.871l-1.828-.007.006-13.095 1.834.006-.012 13.096z" fill="#ED971B"/><path d="M132.903 216.511h-19.085v13.063h19.085v-13.063z" fill="#fff"/><path d="M131.117 219.135h-15.763v.724h15.763v-.724zm0 1.681h-15.763v.724h15.763v-.724zm-.003 1.636h-15.763v.725h15.763v-.725zm.098 2.563l-4.29.035.011 1.346 4.29-.034-.011-1.347z" fill="#729EDB"/><path d="M284.475 232.077c.808 2.302 1.366 5.079 1.545 8.093.456 7.741-.814 10.53-3.052 22.939l-2.77.193c-1.167-5.939-2.251-16.501-2.745-24.844-.115-2.007-.199-3.97-.257-5.881l7.279-.506v.006zm-14.389-.224c1.065 2.154 1.963 4.822 2.54 7.779 1.481 7.586.679 10.523.301 23.118l-2.546.59c-1.891-5.707-5.335-15.384-6.528-22.208-1.193-6.823-1.007-8.324-1.43-10.831l7.663 1.558v-.006z" fill="#EFB495"/><path d="M273.478 270.858c1.142-1.418 2.79-.757 4.271-3.354 1.482-2.598 1.841-3.97 1.841-3.97l1.802-.224c.096.218.289.365.494.352.224-.013.404-.211.461-.474l.744-.02c.789.507 1.456 2.399 1.59 4.708.09 1.487-.064 2.828-.378 3.764l-1.039.07a34.7 34.7 0 00.026-3.591l-1.065.706-1.275 3.039-7.728.539s-.898-.147.25-1.558l.006.013z" fill="#16415D"/><path d="M263.333 271.534c1.141-1.417 2.789-.757 4.271-3.354 1.481-2.597 1.84-3.97 1.84-3.97l1.802-.224c.096.218.289.365.494.353.225-.013.404-.212.462-.469l.744-.019c.788.507 1.456 2.399 1.59 4.707.09 1.488-.064 2.828-.378 3.765l-1.039.07c.071-1.071.077-2.289.026-3.591l-1.065.705-1.276 3.04-7.728.539s-.898-.148.25-1.558l.007.006z" fill="#16415D"/><path d="M285.015 234.066c1.071-1.924 3.206-5.785 3.848-8.331 1.481-5.906 2.905-8.266.455-19.38l-7.593-.179c-1.609 5.079-3.251 14.211-4.085 21.457a127.26 127.26 0 00-.481 5.124l7.862 1.315-.006-.006zm-16.611-2.513c.866-1.956 2.598-5.867 3.156-8.426 1.289-5.932 2.437-8.331.878-19.322l-5.771.064c-1.366 5.111-2.867 14.262-3.7 21.509a177.91 177.91 0 00-.507 5.117l5.944 1.052v.006z" fill="#EFB495"/><path d="M270.217 233.116c.744-1.968 2.232-5.912 2.739-8.484 1.174-5.951 2.155-8.369 1.135-19.284l-4.681.218c-1.219 5.131-2.636 14.295-3.47 21.541a203.883 203.883 0 00-.519 5.118l4.79.898.006-.007z" fill="#EFB495"/><path d="M272.887 157.053c1.026 1.917-3.63 6.938-10.402 11.209-1.943 1.225-6.252 3.547-9.863 4.181-8.971 1.578-19.335.033-20.066-1.34-.66-1.237 7.061-2.199 14.436-4.335 4.046-1.173 7.99-3.149 10.389-4.662 3.982-2.514 6.822-13.397 9.503-13.974 1.879-.404 5.586 8.132 6.009 8.921h-.006z" fill="#EFB291"/><path d="M236.956 169.953c0 1.956-3.431 3.54-6.471 3.54s-5.413-3.02-5.413-4.976c0-1.469 3.509 1.282 5.458 1.148.648-.045-.802-3.252-.045-3.252 1.52 0 1.334 2.04 2.334 2.681.994.641 4.137-.116 4.137.859z" fill="#EFB291"/><path d="M266.494 130.997c2.411 11.178 1.846 13.211 2.506 13.063 3.592-.782 8.184-6.663 8.184-13.999 0-7.337-2.367-13.281-5.285-13.281-2.917 0-6.958 7.073-5.412 14.211l.007.006z" fill="#1C3054"/><path d="M281.005 143.226c-1.199.622-2.636 2.424-4.008 2.924-2.848 1.033-5.227-2.328-6.548-3.136.52-.942 2.379-2.244 2.379-3.591 0-1.827-.096-3.444-.987-4.412v-2.289h5.354c.238 4.271 1.681 8.009 3.81 10.504z" fill="#EA9F86"/><path d="M267.79 122.992c.602-3.893 3.912-3.181 6.329-2.565 1.552.397 2.899 1.039 3.482 3.334.347-.378.725.642 1.116.764.815.25 1.251.75.982 2.238-.27 1.481-1.149 3.379-1.963 3.129-.039-.013-.077-.038-.109-.058-.282 1.187-.135 2.226-.744 3.059-1.193 1.636-3.482 2.54-5.002 2.566-4.964.077-4.682-8.574-4.085-12.467h-.006z" fill="#EBB190"/><path d="M266.057 120.017c.398-2.662 6.041-5.041 9.908-4.38 2.463.416 3.598.397 5.714 3.302 2.116 2.905 2.174 15.667 1.815 16.655-.885 2.43-4.765 5.97-5.971 6.028-.173.006-.589-4.239-.474-7.612.077-2.168.718-3.976.66-4.06.43-.141.86-.506 1.155-1.045.494-.911.411-1.943-.186-2.309-.487-.301-1.167-.051-1.668.539-.404-2.02-1.237-4.149-4.77-3.508-3.861.705-6.58-.943-6.183-3.604v-.006z" fill="#1C3054"/><path d="M289.157 176.804c-2.988-4.797-5.906-14.596-5.906-18.142 0-4.771 2.95-8.638 6.586-8.638a5.12 5.12 0 012.226.519c-1.988-5.598-9.626-11.472-11.403-12.652-.269-.18-.532-.334-.789-.475l-6.695 7.561-2.45-2.597c-2.032 1.468-6.438 5.271-7.701 11.492-1.661 8.17 3.757 14.095 4.052 19.783.289 5.689.289 16.404.289 16.404h22.279s-.795-5.643-.488-13.249v-.006z" fill="#C0E1E4"/><path d="M289.209 184.905c-.186-.302-.391-.59-.603-.872-4.053 1.648-10.556 2.796-14.968 3.104-3.604.25-5.592-.34-6.701-1.431l-.077.174c-3.515 9.26-4.541 33.879-4.541 33.879s30.154 2.899 29.879 1.186c-2.258-13.954 1.878-28.133-2.996-36.046l.007.006z" fill="url(#paint1_linear_248_63919)"/><path d="M290.458 150.043c-2.803.263-5.349 1.905-7.317 4.483.288 2.834.904 6.381 1.583 10.331 1.649 9.587 5.227 16.994 7.997 16.545 2.771-.449 3.604-8.561 2.033-18.161-1.154-7.067-2.693-11.024-4.29-13.204l-.006.006z" fill="#EFB291"/><path d="M290.701 180.453c-1.013.981-3.983-1.481-10.549-7.83-6.567-6.349-11.063-12.293-10.049-13.275 1.013-.981 7.156 3.374 13.723 9.722 6.567 6.349 7.888 10.402 6.875 11.383z" fill="#EFB291"/><path d="M273.502 156.106c1.327 2.732 1.058 5.553-.59 6.303-1.654.751-2.437-.147-3.764-2.879-1.328-2.732-1.694-3.816-.046-4.566 1.655-.75 3.079-1.59 4.4 1.142z" fill="#EFB291"/><defs><linearGradient id="paint0_linear_248_63919" x1="189.846" y1="10.702" x2="189.846" y2="275.501" gradientUnits="userSpaceOnUse"><stop stop-color="#F6FBFF"/><stop offset="1" stop-color="#EAF0F9"/></linearGradient><linearGradient id="paint1_linear_248_63919" x1="262.319" y1="202.765" x2="292.204" y2="202.765" gradientUnits="userSpaceOnUse"><stop stop-color="#002D49"/><stop offset="1" stop-color="#002737"/></linearGradient></defs></svg>