<svg width="86" height="124" viewBox="0 0 86 124" fill="none" xmlns="http://www.w3.org/2000/svg">
<path d="M19.7317 65.3653C19.8242 65.3653 19.9105 65.3013 19.936 65.2023L21.3713 59.6929C21.4 59.5779 21.3332 59.4564 21.2215 59.4276C21.1067 59.3957 20.9917 59.466 20.963 59.5811L19.5276 65.0904C19.4989 65.2055 19.5658 65.3269 19.6775 65.3557C19.6966 65.362 19.7157 65.3621 19.7317 65.3621V65.3653Z" fill="#49478A"/>
<path d="M7.40546 57.7195L30.0453 57.0388C30.2813 61.4233 30.8332 73.5158 31.2542 80.2235C32.1728 98.9822 33.8984 121.109 33.8984 121.109L36.4756 123.912H30.1092L22.2531 80.2235L19.7587 69.4381L18.1801 71.723L17.118 80.2235L12.8565 123.912H7.49143L8.82149 121.355C8.82149 121.355 7.83613 101.957 7.38958 80.2235C7.24286 74.3403 7.22039 63.2001 7.40858 57.7163L7.40546 57.7195Z" fill="#153F5E"/>
<path d="M0.0356153 42.0478C0.0547531 41.642 0.118458 41.169 0.265181 40.7184C0.475697 39.1749 1.08514 37.6761 1.69117 36.2029C3.04357 32.9082 4.39278 29.6134 5.74518 26.3186C6.25871 25.0659 7.25699 23.4681 8.06078 22.3304C9.75766 19.9273 12.2808 19.138 15.4577 19.1475C16.9377 19.1539 12.9919 25.4143 12.0509 26.9418C10.6571 29.2012 10.2042 31.9494 8.03523 36.2221C7.31119 37.6505 6.73379 39.8684 5.88535 41.5525C5.90449 41.8625 5.90474 42.1725 5.90155 42.4793C5.87922 44.6875 5.86002 46.8957 5.83769 49.1039C5.81855 51.1012 5.75141 52.9643 6.22985 54.9073C6.42442 55.6934 6.14071 56.5147 5.43899 57.0835C4.3896 57.9336 3.52832 57.8665 3.52832 57.8665C2.20463 54.8817 1.07563 51.8074 0.479173 48.6469C0.351588 47.9694 0.249532 47.2888 0.172981 46.6049C0.00712043 45.0933 -0.0409358 43.569 0.0356153 42.0478Z" fill="#BB793A"/>
<path d="M6.83836 59.8154L30.4033 60.838C30.3395 56.4918 30.0556 50.4424 29.8482 47.0933C29.8323 46.8792 29.8229 46.6715 29.8165 46.4734C29.6729 44.3195 29.59 42.2071 29.6156 39.9478C29.6156 39.7241 29.6157 39.5004 29.6252 39.2767C29.6444 38.3915 29.6859 37.4807 29.756 36.5348C29.8613 35.0009 30.0269 33.3743 30.2725 31.607C30.6138 29.14 32.078 25.6663 31.6985 23.7616C31.2264 21.4543 29.271 19.6712 26.882 18.9361C26.008 18.6613 25.0766 18.5271 24.1325 18.5591L14.3371 18.8978C7.58785 19.1311 6.86391 25.9539 7.03615 30.6451C7.17012 34.3617 7.40309 38.0815 7.56257 41.8045C7.7667 46.8728 7.74416 49.423 7.26572 54.4562C7.13176 55.923 6.86084 58.3198 6.83213 59.8154H6.83836Z" fill="#ED971B"/>
<path d="M15.6963 40.834C18.6658 42.2273 25.8201 44.9405 27.2746 45.7905C28.0783 46.2603 28.9524 46.7013 29.8487 47.0911C29.8327 46.877 29.823 46.6693 29.8166 46.4712C29.6731 44.3173 29.5902 42.2049 29.6157 39.9456C26.7163 39.2681 23.6766 38.3669 21.6799 37.4913C20.8793 37.1462 18.0216 35.5004 17.473 36.4207C17.0647 37.1206 16.1939 37.9195 15.3901 38.5778C14.6118 39.2074 14.7713 40.4026 15.6963 40.834Z" fill="#BB793A"/>
<path d="M12.098 28.4715C12.0948 28.5386 12.098 28.6057 12.1107 28.676L14.0117 36.2402C14.1042 36.5918 14.4741 36.8666 14.8409 36.857L18.9526 36.7579C19.0865 36.7483 19.2108 36.71 19.3033 36.6429V36.6333C19.4532 36.5151 19.5171 36.3265 19.4597 36.106L17.5618 28.5322C17.4788 28.1903 17.1056 27.9155 16.7388 27.925L12.6275 28.0241C12.334 28.0305 12.1299 28.2159 12.098 28.4683V28.4715Z" fill="#686868"/>
<path d="M12.0978 28.47C12.0946 28.5371 12.0978 28.6042 12.1106 28.6745L14.0116 36.2388C14.1041 36.5903 14.474 36.8651 14.8408 36.8555L18.9524 36.7565C19.0864 36.7469 19.2107 36.7085 19.3031 36.6414V36.6318C19.3159 36.5679 19.3127 36.4976 19.2904 36.4273L17.3925 28.8535C17.3096 28.5116 16.9366 28.2368 16.5602 28.2463L12.4486 28.3454C12.305 28.355 12.1903 28.3933 12.0978 28.47Z" fill="#3D403F"/>
<path d="M18.4009 35.2996C19.8043 35.942 20.0246 38.0256 20.5732 38.767C21.2398 39.665 19.8776 39.9558 18.404 39.764C17.0835 39.5915 15.4663 39.0066 14.9368 38.3515C14.4903 37.7987 13.9195 37.134 13.9706 35.4499C14.012 34.0757 16.5668 34.4592 18.4009 35.2996Z" fill="#F3C6A0"/>
<path d="M19.3498 36.4934C19.8888 35.851 20.4565 36.3208 21.2539 36.5733C24.1086 37.4713 29.0589 37.2507 32.7493 37.7077C32.5005 37.0909 32.2645 36.4966 32.0444 35.9693C29.8627 30.7667 28.5741 28.5649 27.7384 26.7018C26.957 24.9601 23.3878 18.6263 24.8519 18.5751C28.5742 18.4473 30.7717 19.3325 32.2868 22.0233C35.4636 27.6733 37.0426 32.4987 38.092 35.4675C38.7714 37.3881 39.642 38.6217 39.7727 40.4816C39.7791 40.5359 39.7792 41.7439 39.7824 41.7982C39.8239 42.6866 39.6771 42.2871 39.2401 42.7985C39.1954 42.8879 39.1571 42.9774 39.1093 43.0701C38.1396 44.8724 31.6711 44.5273 27.3332 42.7122C25.2759 41.8493 18.9956 38.8358 18.9956 38.8358C18.9956 38.8358 18.4694 37.5448 19.3529 36.4902L19.3498 36.4934Z" fill="#ED971B"/>
<path d="M15.9522 18.8415C16.0032 19.062 16.0831 19.2665 16.1852 19.4615C16.6955 20.4841 17.8215 21.1168 19.2951 21.0657C20.9951 21.0082 22.7237 20.0527 23.8752 18.6977C23.9166 18.6562 23.9581 18.605 23.9932 18.5603L15.9522 18.8383V18.8415Z" fill="#BB793A"/>
<path d="M23.1617 13.6191V18.8345C23.1617 18.8345 19.4014 23.2989 15.947 18.94L16.2498 13.6223H23.1651L23.1617 13.6191Z" fill="#E8BEA9"/>
<path d="M19.4814 17.1811C19.5739 17.1939 19.6665 17.2067 19.759 17.2131C20.9168 17.3057 21.9854 16.951 22.853 16.1873C22.9327 16.117 22.9326 15.9987 22.8561 15.922C22.7795 15.8453 22.652 15.8357 22.5754 15.906C21.7876 16.5995 20.8214 16.9223 19.7752 16.836C18.6843 16.7465 17.7528 16.1937 17.0032 15.187C16.9394 15.1007 16.815 15.0751 16.7257 15.1327C16.6364 15.1902 16.6174 15.3053 16.6812 15.3947C17.4307 16.4014 18.3907 17.0117 19.4783 17.1779L19.4814 17.1811Z" fill="#BA745D"/>
<path d="M24.5697 7.68471C25.0226 11.9382 24.5124 16.5368 21.428 16.8372C18.2192 17.1503 14.8316 15.169 14.3787 10.9155C13.9258 6.66209 16.0375 2.64512 19.09 1.94207C22.1424 1.23902 24.1199 3.43125 24.5697 7.68471Z" fill="#F3C6A0"/>
<path d="M24.7708 4.06219C24.9302 3.62119 24.879 3.10351 24.5378 2.52509C24.4708 2.41004 24.3911 2.2918 24.2954 2.16717C23.9063 1.6303 23.3447 1.12538 22.828 0.690767C22.8121 0.690767 22.79 0.690773 22.7772 0.697165C20.2415 -0.156084 17.3068 -0.360611 15.0134 0.85375C13.8907 1.42897 13.2655 2.29181 12.9785 3.28886C12.3852 4.63105 12.5606 6.79451 12.8859 8.41791C12.9721 8.86211 13.0711 9.2616 13.17 9.60034C13.6166 11.163 14.1873 13.2786 15.3707 14.461C15.6163 14.6751 16.0151 14.8924 16.3755 14.8476C16.3947 14.8444 16.4139 14.8413 16.4266 14.8381C16.3852 14.7678 16.3403 14.6942 16.302 14.6144C16.184 14.1414 16.2095 13.6109 16.2095 13.1411C16.0309 13.3169 15.8877 13.4064 15.7186 13.4192C15.5591 13.432 15.3804 13.3649 15.138 13.2083C14.5096 12.8408 14.2927 12.1345 14.264 11.4027C14.264 11.2142 14.2927 10.8818 14.3693 10.5686C14.3724 10.5654 14.3723 10.559 14.3755 10.5558C14.4329 10.3322 14.5129 10.1244 14.6309 9.98061C14.7234 9.86876 14.8351 9.79847 14.9754 9.79847C15.17 9.79847 15.4984 10.0669 15.6706 10.2906C15.6834 10.3098 15.6962 10.3321 15.709 10.3481C15.7472 10.5718 15.7919 10.7923 15.8429 11.0065C15.8971 11.2557 15.9674 11.505 16.0376 11.751C16.3151 11.9012 16.5956 12.0993 16.9082 12.1345L16.921 11.9715C16.4776 10.6229 16.4872 9.19769 16.535 7.76922C16.5478 7.42089 16.5638 7.07255 16.5733 6.72422C16.5861 6.40146 16.5958 6.07869 16.5958 5.75912V5.70798C17.9737 5.6153 19.377 5.51946 20.5604 4.97939C20.1011 5.1967 19.7118 5.49707 19.3546 5.83262C19.2334 5.94446 19.1187 6.05953 19.0039 6.17458C18.7296 6.4526 18.4649 6.737 18.1906 6.99905C19.7599 7.12048 22.1073 6.18097 23.6989 5.13918C23.9286 4.98578 24.1423 4.83557 24.3368 4.68218L24.3431 4.68857L24.3496 4.69817C24.3783 5.06567 24.4006 5.43957 24.4166 5.81666C24.4836 7.15885 24.4898 8.54895 24.3686 9.90392C24.3909 9.90392 24.4166 9.90392 24.4421 9.91031C24.5059 9.5524 24.6017 9.20405 24.691 8.85572C24.8122 8.38276 24.9237 7.90663 24.962 7.40491C25.0354 6.42703 25.2523 4.97296 24.7611 4.06219H24.7708Z" fill="#0F343D"/>
<path d="M7.4332 56.3941C7.07915 56.0553 6.69647 55.6686 6.31371 55.3203C6.26268 55.3842 6.19874 55.4418 6.16046 55.5216C5.69478 56.5091 5.24504 57.3496 3.36954 57.6755C3.6885 58.1932 3.98532 58.5991 5.7141 59.9221C6.98676 60.6859 7.97222 60.8009 8.76325 60.7082C9.40118 60.6347 9.8923 60.0595 9.88274 59.7016C8.98964 58.4393 8.05844 57.0172 7.43008 56.3941H7.4332Z" fill="#F3C6A0"/>
<path d="M9.8679 121.193L13.0831 121.385L12.8086 123.91H5.9958L9.8679 121.193Z" fill="#19132E"/>
<path d="M41.6358 124H32.7428L32.07 123.108L31.5022 124H29.9488V119.912L34.3697 119.065L36.5673 121.887L41.6358 123.469V124Z" fill="#19132E"/>
<path d="M37.377 19.5188H84.4434C85.3031 19.5188 85.9999 20.217 85.9999 21.0783V113.804C85.9999 114.666 85.3031 115.364 84.4434 115.364H37.377C36.5174 115.364 35.8205 114.666 35.8205 113.804V21.0783C35.8205 20.217 36.5174 19.5188 37.377 19.5188Z" fill="#729EDB"/>
<path d="M35.8205 30.752H85.9999V102.585H35.8205V30.752Z" fill="white"/>
<path d="M53.3958 25.3821H67.8544V25.9263H53.3958V25.3821Z" fill="#2C3C77"/>
<path d="M49.7468 71.0193H78.246V73.2147H49.7468V71.0193Z" fill="#ECF5FC"/>
<path d="M41.6513 70.9504C42.6369 72.0881 43.7436 73.1043 44.8089 74.1653C45.6701 73.4175 46.4772 72.609 47.2235 71.7429C46.9269 71.4042 46.6525 71.0431 46.2953 70.7651C45.7116 71.1741 45.3098 71.7621 44.7643 72.2095C44.0339 71.516 43.3194 70.8002 42.6272 70.0652C42.1934 70.2505 41.9734 70.65 41.6545 70.9504H41.6513Z" fill="#ED971B"/>
<path d="M35.8205 51.6689H85.9999V63.3875H35.8205V51.6689Z" fill="#DDE9F7"/>
<path d="M53.3958 34.75H67.8544V36.8719H53.3958V34.75Z" fill="#DDE9F7"/>
<path d="M55.6431 40.2361H66.1337V47.9153H55.6431V40.2361Z" fill="#273977"/>
<path d="M69.5738 40.2361H80.0644V47.9153H69.5738V40.2361Z" fill="#DDE9F7"/>
<path d="M41.7102 40.2361H52.2011V47.9153H41.7102V40.2361Z" fill="#DDE9F7"/>
<path d="M49.9177 77.2903H78.4169V79.4857H49.9177V77.2903Z" fill="#ECF5FC"/>
<path d="M41.821 77.2282C42.8065 78.3659 43.9135 79.3821 44.9788 80.4431C45.84 79.6953 46.6471 78.8868 47.3935 78.0208C47.0968 77.682 46.8225 77.3209 46.4652 77.0429C45.8815 77.4519 45.4797 78.0399 44.9343 78.4873C44.2038 77.7938 43.4893 77.078 42.7972 76.343C42.3634 76.5284 42.1433 76.9278 41.8244 77.2282H41.821Z" fill="#ED971B"/>
<path d="M49.6686 83.5762H78.1679V85.7716H49.6686V83.5762Z" fill="#ECF5FC"/>
<path d="M41.5722 83.5092C42.5578 84.6469 43.6645 85.6631 44.7298 86.7241C45.591 85.9763 46.3981 85.1678 47.1444 84.3018C46.8478 83.963 46.5734 83.6019 46.2162 83.3239C45.6325 83.7329 45.2307 84.3209 44.6852 84.7683C43.9548 84.0749 43.2403 83.359 42.5481 82.624C42.1143 82.8094 41.8943 83.2088 41.5754 83.5092H41.5722Z" fill="#ED971B"/>
<path d="M49.8386 89.8496H78.3378V92.045H49.8386V89.8496Z" fill="#ECF5FC"/>
<path d="M41.7409 89.7827C42.7265 90.9203 43.8334 91.9365 44.8987 92.9975C45.7599 92.2497 46.567 91.4412 47.3134 90.5752C47.0167 90.2365 46.7424 89.8753 46.3852 89.5973C45.8015 90.0063 45.3996 90.5944 44.8542 91.0418C44.1238 90.3483 43.4092 89.6325 42.7171 88.8975C42.2833 89.0828 42.0633 89.4823 41.7443 89.7827H41.7409Z" fill="#ED971B"/>
<path d="M59.0925 42.001H62.6874V44.0782H59.0925V42.001Z" fill="#ED971B"/>
<path d="M73.0222 42.001H76.6171V44.0782H73.0222V42.001Z" fill="#B7CDE2"/>
<path d="M45.1583 42.001H48.7528V44.0782H45.1583V42.001Z" fill="#B7CDE2"/>
<path d="M41.4763 54.5928H79.9687V55.6505H41.4763V54.5928Z" fill="#B7CDE2"/>
<path d="M41.4763 57.2188H79.9687V58.2765H41.4763V57.2188Z" fill="#B7CDE2"/>
</svg>
