<svg width="30" height="31" viewBox="0 0 30 31" fill="none" xmlns="http://www.w3.org/2000/svg">
<path d="M16.0197 8.87306C16.2608 8.63419 16.5878 8.5 16.9287 8.5C17.2697 8.5 17.5966 8.63419 17.8378 8.87306L23.6236 14.6069C23.8646 14.8458 24 15.1698 24 15.5077C24 15.8456 23.8646 16.1696 23.6236 16.4085L17.8378 22.1423C17.5953 22.3744 17.2705 22.5029 16.9334 22.5C16.5963 22.497 16.2738 22.363 16.0354 22.1268C15.797 21.8906 15.6618 21.571 15.6589 21.2369C15.6559 20.9028 15.7855 20.581 16.0197 20.3406L19.5002 16.7819H7.28573C6.94474 16.7819 6.6177 16.6476 6.37658 16.4087C6.13546 16.1697 6 15.8456 6 15.5077C6 15.1698 6.13546 14.8457 6.37658 14.6067C6.6177 14.3678 6.94474 14.2335 7.28573 14.2335H19.5002L16.0197 10.6747C15.7787 10.4358 15.6433 10.1118 15.6433 9.7739C15.6433 9.43604 15.7787 9.112 16.0197 8.87306Z" fill="#333333"/>
</svg>
