<svg width="47" height="63" viewBox="0 0 47 63" fill="none" xmlns="http://www.w3.org/2000/svg">
<path d="M9.9946 63C4.47482 63 -3.8147e-06 58.5228 -3.8147e-06 53C-3.8147e-06 47.4771 4.47482 43 9.9946 43C15.5144 43 19.9892 47.4771 19.9892 53C19.9892 58.5228 15.5144 63 9.9946 63Z" fill="url(#paint0_linear_248_54392)"/>
<path d="M30.3137 1.06445V9.20347H28.6775V1.06445C28.6775 0.474902 29.043 0 29.4919 0C29.9408 0 30.3063 0.474902 30.3063 1.06445H30.3137Z" fill="#38CCF0"/>
<path d="M30.3131 36.6448C30.3131 37.2343 29.9476 37.7092 29.4987 37.7092C29.0498 37.7092 28.6851 37.2343 28.6851 36.6448V28.9971H30.3205V36.6448H30.3131Z" fill="#38CCF0"/>
<path d="M47 18.856C47 19.3391 46.5583 19.7322 46.0108 19.7322H38.4523V17.9717H46.0108C46.5583 17.9717 47 18.3647 47 18.8478V18.856Z" fill="#38CCF0"/>
<path d="M12.9823 17.9717H20.0849V19.7322H12.9823C12.4348 19.7322 11.9939 19.3391 11.9939 18.856C11.9939 18.3729 12.4348 17.9799 12.9823 17.9799V17.9717Z" fill="#38CCF0"/>
<path d="M41.7499 6.90664L36.4037 12.6629L35.2482 11.4183L40.5936 5.66208C40.9815 5.24449 41.5523 5.18714 41.8717 5.53104C42.1911 5.87494 42.1377 6.48905 41.7499 6.90664Z" fill="#38CCF0"/>
<path d="M18.397 32.0505C18.0092 32.4681 17.4391 32.5254 17.1197 32.1815C16.8003 31.8376 16.8529 31.2235 17.2407 30.8059L22.2676 25.3936L23.4239 26.6382L18.397 32.0505Z" fill="#38CCF0"/>
<path d="M41.8715 32.1785C41.5521 32.5224 40.9813 32.4651 40.5935 32.0475L35.248 26.2912L36.4035 25.0466L41.7497 30.8029C42.1376 31.2205 42.1909 31.8346 41.8715 32.1785Z" fill="#38CCF0"/>
<path d="M18.397 5.66208L23.4239 11.0744L22.2676 12.319L17.2407 6.90664C16.8529 6.48905 16.8003 5.87494 17.1197 5.53104C17.4391 5.18714 18.0092 5.24449 18.397 5.66208Z" fill="#38CCF0"/>
<defs>
<linearGradient id="paint0_linear_248_54392" x1="9.99521" y1="63" x2="9.99521" y2="43" gradientUnits="userSpaceOnUse">
<stop offset="0.0817308" stop-color="#4C99EB"/>
<stop offset="1" stop-color="#56BDED"/>
</linearGradient>
</defs>
</svg>
