<svg width="68" height="46" viewBox="0 0 68 46" fill="none" xmlns="http://www.w3.org/2000/svg">
<path d="M51.3098 1.06445V9.20347H49.6737V1.06445C49.6737 0.474902 50.0391 0 50.488 0C50.9369 0 51.3024 0.474902 51.3024 1.06445H51.3098Z" fill="#38CCF0"/>
<path d="M51.3092 36.6438C51.3092 37.2333 50.9438 37.7082 50.4949 37.7082C50.046 37.7082 49.6812 37.2333 49.6812 36.6438V28.9961H51.3167V36.6438H51.3092Z" fill="#38CCF0"/>
<path d="M67.9993 18.857C67.9993 19.3401 67.5576 19.7331 67.0099 19.7331H59.4502V17.9727H67.0099C67.5576 17.9727 67.9993 18.3657 67.9993 18.8488V18.857Z" fill="#38CCF0"/>
<path d="M33.9756 17.9727H41.0794V19.7331H33.9756C33.428 19.7331 32.987 19.3401 32.987 18.857C32.987 18.3739 33.428 17.9809 33.9756 17.9809V17.9727Z" fill="#38CCF0"/>
<path d="M62.7481 6.90664L57.4009 12.6629L56.2452 11.4183L61.5916 5.66208C61.9795 5.24449 62.5504 5.18714 62.8699 5.53104C63.1893 5.87494 63.1359 6.48905 62.7481 6.90664Z" fill="#38CCF0"/>
<path d="M39.3914 32.0515C39.0035 32.4691 38.4333 32.5264 38.1138 32.1825C37.7944 31.8386 37.847 31.2245 38.2349 30.8069L43.2626 25.3945L44.4191 26.6391L39.3914 32.0515Z" fill="#38CCF0"/>
<path d="M62.8697 32.1785C62.5502 32.5224 61.9793 32.4651 61.5914 32.0475L56.245 26.2912L57.4008 25.0466L62.7479 30.8029C63.1358 31.2205 63.1891 31.8346 62.8697 32.1785Z" fill="#38CCF0"/>
<path d="M39.3914 5.66208L44.4191 11.0744L43.2626 12.319L38.2349 6.90664C37.847 6.48905 37.7944 5.87494 38.1138 5.53104C38.4333 5.18714 39.0035 5.24449 39.3914 5.66208Z" fill="#38CCF0"/>
<path d="M16.9936 28C15.3374 28 13.9947 26.6568 13.9947 25C13.9947 23.3431 15.3374 22 16.9936 22C18.6498 22 19.9924 23.3431 19.9924 25C19.9924 26.6568 18.6498 28 16.9936 28Z" fill="url(#paint0_linear_248_65103)"/>
<path d="M7.4972 46C3.35667 46 -9.53674e-07 42.6421 -9.53674e-07 38.5C-9.53674e-07 34.3579 3.35667 31 7.4972 31C11.6377 31 14.9944 34.3579 14.9944 38.5C14.9944 42.6421 11.6377 46 7.4972 46Z" fill="url(#paint1_linear_248_65103)"/>
<defs>
<linearGradient id="paint0_linear_248_65103" x1="16.9938" y1="28" x2="16.9938" y2="22" gradientUnits="userSpaceOnUse">
<stop offset="0.0817308" stop-color="#4C99EB"/>
<stop offset="1" stop-color="#56BDED"/>
</linearGradient>
<linearGradient id="paint1_linear_248_65103" x1="7.4972" y1="31" x2="7.4972" y2="46" gradientUnits="userSpaceOnUse">
<stop stop-color="#80D1E5"/>
<stop offset="1" stop-color="#24A3C2"/>
</linearGradient>
</defs>
</svg>
