<svg width="44" height="40" viewBox="0 0 44 40" fill="none" xmlns="http://www.w3.org/2000/svg">
<path d="M30.5 27C23.0443 27 17 20.9558 17 13.5C17 6.04413 23.0443 0 30.5 0C37.9557 0 44 6.04413 44 13.5C44 20.9558 37.9557 27 30.5 27Z" fill="url(#paint0_linear_248_54335)"/>
<path d="M7.5 40C3.35793 40 0 36.6421 0 32.5C0 28.3579 3.35793 25 7.5 25C11.6421 25 15 28.3579 15 32.5C15 36.6421 11.6421 40 7.5 40Z" fill="url(#paint1_linear_248_54335)"/>
<defs>
<linearGradient id="paint0_linear_248_54335" x1="30.5008" y1="27" x2="30.5008" y2="0" gradientUnits="userSpaceOnUse">
<stop offset="0.0817308" stop-color="#4C99EB"/>
<stop offset="1" stop-color="#56BDED"/>
</linearGradient>
<linearGradient id="paint1_linear_248_54335" x1="7.5" y1="25" x2="7.5" y2="40" gradientUnits="userSpaceOnUse">
<stop stop-color="#5EDFFF"/>
<stop offset="1" stop-color="#2AC4EB"/>
</linearGradient>
</defs>
</svg>
