<svg width="910" height="788" viewBox="0 0 910 788" fill="none" xmlns="http://www.w3.org/2000/svg">
<g filter="url(#filter0_n_248_53890)">
<path d="M19.3218 204.447L181.495 24.7512C195.716 8.9938 215.948 0 237.173 0H835C876.421 0 910 33.5786 910 75V713C910 754.421 876.421 788 835 788H236.925C215.844 788 195.736 779.128 181.526 763.556L19.6009 586.12C6.9909 572.302 0 554.271 0 535.564V254.696C0 236.132 6.8845 218.228 19.3218 204.447Z" fill="url(#paint0_linear_248_53890)"/>
</g>
<g filter="url(#filter1_n_248_53890)">
<path d="M282.452 597.561C248.276 550.295 221.33 497.837 202.833 442.558C189.911 403.947 181.799 359.069 203.267 324.451C219.963 297.53 251.613 282.87 283.021 278.331C314.429 273.793 346.346 277.895 377.985 280.376C409.625 282.856 442.317 283.569 472.128 272.71C493.453 264.942 512.242 251.627 532.592 241.591C552.942 231.555 576.531 224.777 598.268 231.303C624.013 239.032 641.207 263.753 649.831 289.155C658.455 314.557 660.533 341.705 667.698 367.555C674.864 393.404 688.7 419.427 712.758 431.397C732.998 441.468 757.461 440.12 777.733 450.124C801.151 461.682 815.286 486.978 819.957 512.617C824.628 538.257 821.231 571.719 817.826 597.557H282.452V597.561Z" fill="url(#paint1_linear_248_53890)"/>
</g>
<path d="M841.898 594.538H247.526C246.396 594.538 245.48 595.452 245.48 596.579C245.48 597.706 246.396 598.619 247.526 598.619H841.898C843.028 598.619 843.944 597.706 843.944 596.579C843.944 595.452 843.028 594.538 841.898 594.538Z" fill="#1D28A8"/>
<path d="M818.266 537.004C818.266 537.004 825.189 528.114 826.748 521.822C828.31 515.53 826.399 509.625 822.3 509.951C818.202 510.274 812.531 519.299 818.262 537.007L818.266 537.004Z" fill="#69CCB4"/>
<path d="M807.907 551.674C807.907 551.674 813.465 539.697 812.753 532.447C812.038 525.197 810.27 520.445 805.043 520.587C799.817 520.729 794.527 526.883 807.907 551.674Z" fill="#69CCB4"/>
<path d="M796.022 567.62C796.022 567.62 799.452 554.873 797.513 547.85C795.57 540.827 793.016 536.444 787.893 537.474C782.766 538.503 778.603 545.462 796.022 567.617V567.62Z" fill="#69CCB4"/>
<path d="M792.355 583.71C792.355 583.71 803.584 573.139 814.574 569.647C825.564 566.155 828.015 571.552 827.887 575.811C827.759 580.066 816.897 584.86 792.355 583.71Z" fill="#69CCB4"/>
<path d="M828.803 550.951C831.404 550.656 834.45 550.777 836.068 552.824C837.733 554.929 836.965 558.215 835.051 560.099C833.137 561.984 830.419 562.775 827.786 563.329C824.324 564.056 804.927 567.232 805.909 561.678C806.503 558.318 812.829 555.858 815.487 554.652C819.695 552.736 824.207 551.469 828.807 550.951H828.803Z" fill="#69CCB4"/>
<path d="M835.668 507.229C836.966 504.812 838.507 502.406 840.819 500.915C843.128 499.428 846.387 499.095 848.547 500.791C851.002 502.722 851.151 506.565 849.739 509.347C848.323 512.129 845.736 514.099 843.235 515.969C839.478 518.78 834.02 524.664 829.63 525.714C828.687 520.451 833.092 511.743 835.675 507.229H835.668Z" fill="#69CCB4"/>
<path d="M830.989 529.902C833.295 528.404 835.803 527.034 838.546 526.836C841.289 526.637 844.306 527.907 845.381 530.431C846.604 533.301 844.886 536.744 842.303 538.504C839.72 540.264 836.504 540.754 833.409 541.194C828.759 541.858 821.138 544.402 816.783 543.217C818.494 538.149 826.549 532.624 830.989 529.902Z" fill="#69CCB4"/>
<path d="M784.373 595.631C784.317 595.482 784.317 595.312 784.384 595.156C799.793 558.128 835.983 516.551 836.345 516.136C836.58 515.866 836.993 515.837 837.263 516.072C837.534 516.309 837.562 516.718 837.327 516.987C836.964 517.403 800.914 558.824 785.587 595.653C785.448 595.983 785.067 596.139 784.736 596.004C784.562 595.933 784.438 595.795 784.377 595.631H784.373Z" fill="#1D28A8"/>
<path d="M815.852 542.58C815.841 542.548 815.831 542.516 815.824 542.481C815.752 542.129 815.98 541.789 816.332 541.714C816.411 541.697 824.355 540.057 831.922 535.905C832.236 535.731 832.634 535.848 832.805 536.16C832.965 536.469 832.862 536.867 832.549 537.041C824.8 541.292 816.67 542.967 816.592 542.985C816.275 543.049 815.962 542.871 815.856 542.577L815.852 542.58Z" fill="#1D28A8"/>
<path d="M813.697 545.555C813.629 545.37 813.644 545.157 813.757 544.98C813.832 544.866 821.136 533.251 820.414 520.369C820.393 520.01 820.667 519.705 821.026 519.684C821.385 519.663 821.691 519.936 821.713 520.294C822.46 533.602 815.163 545.189 814.853 545.675C814.661 545.977 814.259 546.066 813.957 545.874C813.832 545.796 813.747 545.682 813.697 545.555Z" fill="#1D28A8"/>
<path d="M801.459 563.662C801.334 563.325 801.505 562.952 801.843 562.828C801.95 562.789 812.755 558.836 820.468 557.76C820.824 557.711 821.147 557.959 821.201 558.314C821.251 558.669 821.001 558.995 820.646 559.045C813.068 560.099 802.398 564.003 802.291 564.045C801.957 564.169 801.583 563.999 801.459 563.665V563.662Z" fill="#1D28A8"/>
<path d="M806.655 555.688C806.609 555.564 806.602 555.426 806.637 555.287C806.662 555.199 809.042 546.337 805.687 535.028C805.584 534.683 805.783 534.325 806.129 534.222C806.474 534.119 806.84 534.3 806.936 534.662C810.401 546.345 807.993 555.263 807.89 555.635C807.794 555.979 807.434 556.182 807.089 556.086C806.879 556.029 806.726 555.877 806.655 555.688Z" fill="#1D28A8"/>
<path d="M789.201 585.146C789.083 584.831 789.229 584.472 789.539 584.33C790.108 584.071 803.578 577.939 811.348 576.211C811.696 576.132 812.042 576.363 812.123 576.704C812.202 577.052 811.981 577.399 811.629 577.477C803.994 579.174 790.218 585.448 790.079 585.512C789.752 585.661 789.368 585.519 789.218 585.192C789.211 585.178 789.208 585.164 789.201 585.146Z" fill="#1D28A8"/>
<path d="M794.61 575.047C794.553 574.894 794.553 574.724 794.62 574.564C794.652 574.493 797.595 567.353 792.92 554.869C792.795 554.532 792.966 554.159 793.3 554.035C793.635 553.911 794.012 554.081 794.136 554.414C799.014 567.438 795.947 574.774 795.816 575.079C795.673 575.405 795.293 575.558 794.962 575.416C794.791 575.345 794.67 575.207 794.61 575.047Z" fill="#1D28A8"/>
<path d="M327.405 550.006C327.405 550.006 330.355 541.872 333.813 538.274C337.271 534.679 341.9 533.494 343.373 536.283C344.842 539.073 341.295 546.45 327.405 550.006Z" fill="#69CCB4"/>
<path d="M322.101 562.743C322.101 562.743 327.622 554.222 332.635 551.71C337.652 549.197 341.473 548.392 343.525 551.838C345.578 555.284 343.743 561.238 322.101 562.743Z" fill="#69CCB4"/>
<path d="M316.592 576.995C316.592 576.995 323.487 569.539 328.859 567.914C334.231 566.288 338.134 566.146 339.568 569.89C341.002 573.634 338.177 579.192 316.592 576.995Z" fill="#69CCB4"/>
<path d="M307.616 585.973C307.616 585.973 309.893 574.355 307.655 565.799C305.417 557.243 300.895 557.871 298.173 559.702C295.452 561.533 296.789 570.54 307.616 585.973Z" fill="#69CCB4"/>
<path d="M313.994 548.902C313.119 547.095 311.791 545.172 309.788 544.962C307.732 544.746 305.91 546.595 305.466 548.611C305.025 550.623 305.626 552.713 306.345 554.644C307.291 557.188 313.186 571.06 316.402 568.147C318.348 566.383 317.352 561.273 317.05 559.055C316.57 555.538 315.545 552.096 313.994 548.902Z" fill="#69CCB4"/>
<path d="M339.654 526.498C340.696 524.663 341.632 522.676 341.649 520.568C341.671 518.46 340.55 516.214 338.558 515.511C336.291 514.713 333.726 516.192 332.495 518.251C331.264 520.309 331.044 522.797 330.852 525.185C330.563 528.773 328.973 534.728 330.09 538.003C333.908 536.452 337.771 530.026 339.65 526.498H339.654Z" fill="#69CCB4"/>
<path d="M326.802 538.842C326.831 536.734 326.696 534.544 325.696 532.685C324.7 530.825 322.633 529.391 320.548 529.732C318.175 530.119 316.641 532.646 316.552 535.041C316.463 537.436 317.47 539.722 318.452 541.911C319.929 545.198 321.402 551.181 323.96 553.519C326.56 550.329 326.852 542.841 326.802 538.845V538.842Z" fill="#69CCB4"/>
<path d="M303.122 596.039C303.243 596.015 303.354 595.947 303.428 595.837C321.224 570.648 333.449 530.125 333.573 529.72C333.652 529.457 333.502 529.177 333.239 529.099C332.976 529.021 332.695 529.17 332.616 529.433C332.495 529.837 320.314 570.208 302.614 595.262C302.454 595.486 302.507 595.798 302.735 595.954C302.852 596.036 302.994 596.061 303.126 596.036L303.122 596.039Z" fill="#1D28A8"/>
<path d="M324.762 553.861C324.787 553.854 324.812 553.847 324.837 553.84C325.093 553.741 325.225 553.453 325.125 553.198C325.104 553.141 322.912 547.317 322.51 540.709C322.492 540.436 322.258 540.227 321.98 540.241C321.713 540.262 321.496 540.493 321.51 540.77C321.923 547.537 324.168 553.492 324.189 553.552C324.278 553.783 324.52 553.911 324.759 553.865L324.762 553.861Z" fill="#1D28A8"/>
<path d="M323.71 556.475C323.86 556.443 323.991 556.348 324.059 556.199C324.105 556.103 328.67 546.599 337.358 541.78C337.6 541.645 337.685 541.343 337.553 541.102C337.418 540.861 337.116 540.772 336.874 540.907C327.898 545.886 323.347 555.372 323.155 555.773C323.038 556.021 323.144 556.319 323.393 556.436C323.497 556.483 323.603 556.493 323.707 556.472L323.71 556.475Z" fill="#1D28A8"/>
<path d="M316.941 571.845C317.211 571.788 317.382 571.522 317.325 571.252C317.307 571.167 315.447 562.54 312.981 557.1C312.867 556.851 312.575 556.741 312.319 556.851C312.067 556.965 311.956 557.259 312.07 557.511C314.493 562.856 316.332 571.376 316.35 571.462C316.407 571.731 316.67 571.902 316.941 571.845Z" fill="#1D28A8"/>
<path d="M320.001 565.204C320.1 565.182 320.193 565.133 320.267 565.051C320.314 564.998 325.11 559.817 333.855 557.35C334.121 557.276 334.274 556.999 334.2 556.736C334.125 556.47 333.858 556.307 333.584 556.392C324.551 558.94 319.73 564.164 319.531 564.384C319.346 564.586 319.36 564.902 319.567 565.087C319.691 565.197 319.855 565.236 320.004 565.204H320.001Z" fill="#1D28A8"/>
<path d="M307.977 588.607C308.229 588.554 308.403 588.313 308.368 588.054C308.304 587.578 306.77 576.332 304.703 570.587C304.611 570.328 304.319 570.2 304.063 570.285C303.803 570.377 303.668 570.661 303.761 570.924C305.788 576.57 307.357 588.072 307.375 588.189C307.411 588.462 307.663 588.654 307.937 588.618C307.952 588.618 307.962 588.615 307.973 588.611L307.977 588.607Z" fill="#1D28A8"/>
<path d="M312.332 580.955C312.453 580.93 312.567 580.859 312.642 580.749C312.674 580.699 316.118 575.862 326.172 573.765C326.442 573.708 326.617 573.446 326.56 573.176C326.503 572.906 326.24 572.732 325.969 572.789C315.485 574.975 311.966 579.975 311.82 580.185C311.667 580.412 311.724 580.721 311.952 580.877C312.069 580.958 312.208 580.98 312.336 580.951L312.332 580.955Z" fill="#1D28A8"/>
<path d="M250.384 525.826C250.384 525.826 243.955 514.988 243.109 507.781C242.262 500.577 245.215 494.292 249.719 495.225C254.223 496.158 259.243 506.971 250.388 525.826H250.384Z" fill="#69CCB4"/>
<path d="M259.811 543.563C259.811 543.563 255.332 529.489 257.143 521.54C258.957 513.59 261.59 508.565 267.371 509.456C273.153 510.347 278.159 517.92 259.808 543.563H259.811Z" fill="#69CCB4"/>
<path d="M270.754 562.931C270.754 562.931 268.74 548.3 271.885 540.776C275.03 533.253 278.485 528.746 284.028 530.609C289.571 532.468 293.214 540.78 270.75 562.931H270.754Z" fill="#69CCB4"/>
<path d="M272.556 581.309C272.556 581.309 261.58 568.001 249.871 562.579C238.163 557.16 234.683 562.809 234.224 567.554C233.765 572.295 245.15 579.144 272.556 581.309Z" fill="#69CCB4"/>
<path d="M236.712 539.829C233.866 539.137 230.472 538.842 228.384 540.89C226.238 542.994 226.63 546.749 228.487 549.109C230.344 551.469 233.254 552.729 236.097 553.712C239.84 555.007 260.923 561.249 260.617 554.95C260.432 551.139 253.754 547.519 250.979 545.805C246.574 543.087 241.75 541.046 236.716 539.825L236.712 539.829Z" fill="#69CCB4"/>
<path d="M235.255 490.327C234.152 487.459 232.782 484.574 230.427 482.598C228.072 480.621 224.503 479.794 221.867 481.377C218.868 483.176 218.16 487.42 219.341 490.706C220.522 493.993 223.116 496.544 225.627 498.972C229.402 502.62 234.632 509.916 239.357 511.697C241.146 505.984 237.485 495.703 235.255 490.327Z" fill="#69CCB4"/>
<path d="M237.255 516.156C234.907 514.172 232.313 512.295 229.296 511.692C226.279 511.088 222.75 512.071 221.202 514.726C219.441 517.742 220.864 521.802 223.479 524.119C226.097 526.437 229.602 527.43 232.975 528.353C238.041 529.741 246.142 533.634 251.148 532.931C249.963 527.065 241.801 519.801 237.255 516.156Z" fill="#69CCB4"/>
<path d="M279.743 595.665C279.825 595.508 279.85 595.32 279.8 595.136C267.917 551.869 233.603 500.636 233.261 500.125C233.037 499.791 232.585 499.702 232.251 499.926C231.916 500.15 231.827 500.6 232.051 500.934C232.396 501.445 266.576 552.487 278.398 595.519C278.505 595.906 278.904 596.133 279.291 596.027C279.494 595.97 279.654 595.835 279.743 595.665Z" fill="#1D28A8"/>
<path d="M252.276 532.355C252.294 532.319 252.308 532.287 252.322 532.248C252.45 531.869 252.248 531.457 251.867 531.329C251.781 531.301 243.197 528.366 235.38 522.691C235.056 522.457 234.601 522.528 234.363 522.851C234.142 523.171 234.199 523.628 234.523 523.866C242.524 529.672 251.312 532.674 251.401 532.703C251.746 532.82 252.116 532.663 252.276 532.355Z" fill="#1D28A8"/>
<path d="M254.25 535.954C254.353 535.759 254.364 535.521 254.264 535.308C254.2 535.169 247.725 521.251 250.344 507.053C250.415 506.659 250.155 506.279 249.76 506.208C249.365 506.137 248.985 506.393 248.913 506.79C246.21 521.461 252.674 535.343 252.952 535.929C253.122 536.291 253.556 536.447 253.919 536.273C254.065 536.202 254.183 536.089 254.254 535.954H254.25Z" fill="#1D28A8"/>
<path d="M265.29 557.778C265.475 557.419 265.336 556.983 264.98 556.798C264.866 556.738 253.428 550.837 245.017 548.562C244.63 548.459 244.238 548.686 244.124 549.073C244.021 549.46 244.249 549.857 244.637 549.963C252.898 552.199 264.197 558.03 264.308 558.087C264.663 558.271 265.101 558.133 265.286 557.781L265.29 557.778Z" fill="#1D28A8"/>
<path d="M260.641 548.199C260.708 548.067 260.737 547.915 260.715 547.759C260.701 547.659 259.306 537.485 264.625 525.401C264.785 525.036 264.618 524.606 264.252 524.447C263.885 524.287 263.451 524.432 263.295 524.819C257.798 537.304 259.214 547.539 259.278 547.968C259.335 548.365 259.705 548.639 260.103 548.582C260.342 548.546 260.537 548.401 260.644 548.199H260.641Z" fill="#1D28A8"/>
<path d="M275.861 583.345C276.036 583.011 275.926 582.596 275.602 582.394C275.008 582.024 260.919 573.326 252.537 570.321C252.16 570.186 251.747 570.392 251.608 570.757C251.473 571.133 251.669 571.548 252.046 571.683C260.282 574.639 274.691 583.536 274.833 583.625C275.175 583.834 275.623 583.731 275.837 583.391C275.847 583.377 275.854 583.359 275.861 583.345Z" fill="#1D28A8"/>
<path d="M271.279 571.376C271.365 571.217 271.389 571.025 271.336 570.84C271.311 570.759 269.052 562.416 276.004 549.214C276.192 548.859 276.054 548.419 275.698 548.235C275.342 548.05 274.901 548.185 274.716 548.54C267.465 562.313 269.838 570.887 269.941 571.245C270.055 571.628 270.454 571.852 270.842 571.738C271.041 571.681 271.194 571.547 271.283 571.38L271.279 571.376Z" fill="#1D28A8"/>
<path d="M330.664 297.562C330.525 297.782 328.771 292.068 325.107 290.745C325.107 290.745 328.383 289.758 330.934 294.435C330.934 294.435 335.182 291.877 338.904 294.602C338.904 294.602 332.752 294.222 330.664 297.562Z" fill="#EFF1F5"/>
<path d="M291.049 412.014C291.024 412.227 287.701 408.59 284.51 408.888C284.51 408.888 286.602 407.003 290.149 409.59C290.149 409.59 292.408 406.194 296.14 406.918C296.14 406.918 291.426 408.792 291.052 412.014H291.049Z" fill="#F4F4FD"/>
<path d="M391.944 304.218C391.972 304.42 388.041 301.869 385.177 302.909C385.177 302.909 386.646 300.676 390.531 302.206C390.531 302.206 391.794 298.544 395.398 298.313C395.398 298.313 391.513 301.166 391.944 304.218Z" fill="#F4F4FD"/>
<path d="M390.183 356.197C393.274 355.846 396.43 354.479 398.536 353.39C402.421 350.693 407.057 349.117 412.042 349.117C412.917 349.117 413.781 349.167 414.635 349.263C416.382 344.333 420.858 340.824 426.109 340.824C428.308 340.824 430.368 341.441 432.15 342.516C434.438 340.536 437.355 339.347 440.536 339.347C441.126 339.347 441.706 339.394 442.276 339.472C445.097 335.405 449.633 332.764 454.753 332.764C456.24 332.764 457.677 332.992 459.04 333.407C462.252 331.402 465.992 330.248 469.987 330.248C480.625 330.248 489.466 338.393 491.309 349.131C491.48 349.121 491.654 349.11 491.828 349.11C494.646 349.11 497.3 350.143 499.652 351.963V351.949C499.652 351.949 504.476 355.583 509.13 356.19C513.783 356.793 534.497 356.861 536.29 358.181H504.889H498.944H491.177H478.771H448.801H441.745H437.668H414.546H401.859H393.353H359.042C361.094 356.861 384.846 356.797 390.183 356.19V356.197Z" fill="url(#paint2_linear_248_53890)"/>
<path d="M232.317 332.166C235.095 331.897 237.945 330.697 239.468 329.966C242.051 328.426 245.071 327.535 248.302 327.535C249.202 327.535 250.081 327.61 250.945 327.741C252.354 325.236 255.04 323.543 258.121 323.543C259.249 323.543 260.32 323.77 261.298 324.178C262.995 322.315 265.44 321.147 268.161 321.147C268.574 321.147 268.976 321.176 269.374 321.229C271.342 318.571 274.505 316.843 278.07 316.843C279.155 316.843 280.204 317.006 281.193 317.301C283.976 315.09 287.501 313.766 291.337 313.766C296.588 313.766 301.256 316.247 304.237 320.093C305.312 319.763 306.45 319.582 307.635 319.582C312.758 319.582 317.098 322.932 318.575 327.553C319.543 327.61 320.482 327.826 321.375 328.192C321.926 328.355 322.432 328.621 322.873 328.965C323.09 329.1 323.307 329.246 323.52 329.398V329.391C323.52 329.391 326.882 331.769 330.127 332.163C333.368 332.557 347.809 332.599 349.058 333.465H327.174H323.033H308.973H307.268H296.599H296.414H287.142H276.91H275.416H275.088H269.012H266.169H261.953H261.337H259.427H253.105H250.088H241.211H235.28H208.618C210.184 332.603 228.261 332.56 232.324 332.163L232.317 332.166Z" fill="url(#paint3_linear_248_53890)"/>
<path d="M624.268 596.086L341.728 619.604L336.903 587.388L625.983 562.948L624.268 596.086Z" fill="#49B79A"/>
<path d="M598.492 272.23L340.037 461.908L318.107 436.91L576.558 247.232L598.492 272.23Z" fill="#49B79A"/>
<path d="M636.127 215.453L622.429 255.558L608.735 295.662L580.764 263.78L552.793 231.895L594.462 223.676L636.127 215.453Z" fill="url(#paint4_linear_248_53890)"/>
<path d="M523.324 638.572C619.139 638.572 696.812 633.614 696.812 627.497C696.812 621.38 619.139 616.421 523.324 616.421C427.51 616.421 349.837 621.38 349.837 627.497C349.837 633.614 427.51 638.572 523.324 638.572Z" fill="#F4F4FD"/>
<path d="M478.301 619.778H561.297V551.734H478.301V619.778Z" fill="url(#paint5_linear_248_53890)"/>
<path d="M358.491 327.71H681.103C688.25 327.71 694.053 333.498 694.053 340.627V540.437C694.053 546.672 688.979 551.733 682.728 551.733H356.861C350.61 551.733 345.537 546.672 345.537 540.437V340.627C345.537 333.498 351.34 327.71 358.487 327.71H358.491Z" fill="url(#paint6_linear_248_53890)"/>
<path d="M354.476 529.837C354.476 536.97 360.276 542.755 367.427 542.755H672.175C679.326 542.755 685.125 536.97 685.125 529.837V351.412H354.48V529.837H354.476Z" fill="url(#paint7_linear_248_53890)"/>
<path d="M676.789 335.036H362.809C358.209 335.036 354.476 338.759 354.476 343.347V351.414H685.122V343.347C685.122 338.759 681.389 335.036 676.789 335.036Z" fill="#1D28A8"/>
<path d="M369.759 347.157C371.445 347.157 372.812 345.794 372.812 344.112C372.812 342.431 371.445 341.067 369.759 341.067C368.074 341.067 366.707 342.431 366.707 344.112C366.707 345.794 368.074 347.157 369.759 347.157Z" fill="#C9316F"/>
<path d="M382.59 347.157C384.275 347.157 385.642 345.794 385.642 344.112C385.642 342.431 384.275 341.067 382.59 341.067C380.904 341.067 379.537 342.431 379.537 344.112C379.537 345.794 380.904 347.157 382.59 347.157Z" fill="#E38735"/>
<path d="M395.415 347.157C397.101 347.157 398.467 345.794 398.467 344.112C398.467 342.43 397.101 341.067 395.415 341.067C393.729 341.067 392.362 342.43 392.362 344.112C392.362 345.794 393.729 347.157 395.415 347.157Z" fill="#69CCB4"/>
<path d="M683.44 628.469H356.15C354.136 628.469 352.585 626.694 352.862 624.703L354.41 615.665C354.698 613.596 356.473 612.056 358.565 612.056H681.024C683.12 612.056 684.891 613.596 685.179 615.665L686.727 624.703C687.005 626.694 685.453 628.469 683.44 628.469Z" fill="url(#paint8_linear_248_53890)"/>
<path d="M361.276 611.078H379.318C380.182 611.078 380.887 611.777 380.887 612.643V616.816H359.711V612.643C359.711 611.781 360.412 611.078 361.28 611.078H361.276Z" fill="url(#paint9_linear_248_53890)"/>
<path d="M384.277 611.078H402.319C403.183 611.078 403.888 611.777 403.888 612.643V616.816H382.712V612.643C382.712 611.781 383.413 611.078 384.281 611.078H384.277Z" fill="url(#paint10_linear_248_53890)"/>
<path d="M407.27 611.078H425.312C426.176 611.078 426.881 611.777 426.881 612.643V616.816H405.705V612.643C405.705 611.781 406.406 611.078 407.274 611.078H407.27Z" fill="url(#paint11_linear_248_53890)"/>
<path d="M430.274 611.078H448.316C449.18 611.078 449.885 611.777 449.885 612.643V616.816H428.709V612.643C428.709 611.781 429.41 611.078 430.278 611.078H430.274Z" fill="url(#paint12_linear_248_53890)"/>
<path d="M453.275 611.078H471.317C472.181 611.078 472.886 611.777 472.886 612.643V616.816H451.71V612.643C451.71 611.781 452.411 611.078 453.279 611.078H453.275Z" fill="url(#paint13_linear_248_53890)"/>
<path d="M476.276 611.078H494.318C495.182 611.078 495.887 611.777 495.887 612.643V616.816H474.711V612.643C474.711 611.781 475.412 611.078 476.28 611.078H476.276Z" fill="url(#paint14_linear_248_53890)"/>
<path d="M499.277 611.078H517.319C518.183 611.078 518.887 611.777 518.887 612.643V616.816H497.712V612.643C497.712 611.781 498.413 611.078 499.281 611.078H499.277Z" fill="url(#paint15_linear_248_53890)"/>
<path d="M522.282 611.078H540.324C541.188 611.078 541.893 611.777 541.893 612.643V616.816H520.717V612.643C520.717 611.781 521.418 611.078 522.286 611.078H522.282Z" fill="url(#paint16_linear_248_53890)"/>
<path d="M545.279 611.078H563.321C564.185 611.078 564.89 611.777 564.89 612.643V616.816H543.714V612.643C543.714 611.781 544.415 611.078 545.283 611.078H545.279Z" fill="url(#paint17_linear_248_53890)"/>
<path d="M568.279 611.078H586.321C587.185 611.078 587.89 611.777 587.89 612.643V616.816H566.714V612.643C566.714 611.781 567.415 611.078 568.283 611.078H568.279Z" fill="url(#paint18_linear_248_53890)"/>
<path d="M591.28 611.078H609.322C610.186 611.078 610.891 611.777 610.891 612.643V616.816H589.715V612.643C589.715 611.781 590.416 611.078 591.284 611.078H591.28Z" fill="url(#paint19_linear_248_53890)"/>
<path d="M614.282 611.078H632.324C633.188 611.078 633.893 611.777 633.893 612.643V616.816H612.717V612.643C612.717 611.781 613.418 611.078 614.286 611.078H614.282Z" fill="url(#paint20_linear_248_53890)"/>
<path d="M637.278 611.078H655.32C656.184 611.078 656.889 611.777 656.889 612.643V616.816H635.713V612.643C635.713 611.781 636.414 611.078 637.282 611.078H637.278Z" fill="url(#paint21_linear_248_53890)"/>
<path d="M660.278 611.078H678.32C679.184 611.078 679.889 611.777 679.889 612.643V616.816H658.713V612.643C658.713 611.781 659.414 611.078 660.282 611.078H660.278Z" fill="url(#paint22_linear_248_53890)"/>
<path d="M359.007 614.462H377.362C378.233 614.462 378.941 615.168 378.941 616.038V620.197H357.428V616.038C357.428 615.168 358.136 614.462 359.007 614.462Z" fill="url(#paint23_linear_248_53890)"/>
<path d="M382.371 614.462H400.725C401.597 614.462 402.305 615.168 402.305 616.038V620.197H380.791V616.038C380.791 615.168 381.499 614.462 382.371 614.462Z" fill="url(#paint24_linear_248_53890)"/>
<path d="M405.737 614.462H424.091C424.963 614.462 425.671 615.168 425.671 616.038V620.197H404.157V616.038C404.157 615.168 404.865 614.462 405.737 614.462Z" fill="url(#paint25_linear_248_53890)"/>
<path d="M429.104 614.462H447.458C448.33 614.462 449.038 615.168 449.038 616.038V620.197H427.524V616.038C427.524 615.168 428.232 614.462 429.104 614.462Z" fill="url(#paint26_linear_248_53890)"/>
<path d="M452.47 614.462H470.825C471.696 614.462 472.404 615.168 472.404 616.038V620.197H450.891V616.038C450.891 615.168 451.599 614.462 452.47 614.462Z" fill="url(#paint27_linear_248_53890)"/>
<path d="M475.833 614.462H494.188C495.06 614.462 495.768 615.168 495.768 616.038V620.197H474.254V616.038C474.254 615.168 474.962 614.462 475.833 614.462Z" fill="url(#paint28_linear_248_53890)"/>
<path d="M499.2 614.462H517.554C518.426 614.462 519.134 615.168 519.134 616.038V620.197H497.62V616.038C497.62 615.168 498.328 614.462 499.2 614.462Z" fill="url(#paint29_linear_248_53890)"/>
<path d="M522.567 614.462H540.921C541.793 614.462 542.501 615.168 542.501 616.038V620.197H520.987V616.038C520.987 615.168 521.695 614.462 522.567 614.462Z" fill="url(#paint30_linear_248_53890)"/>
<path d="M545.933 614.462H564.288C565.159 614.462 565.867 615.168 565.867 616.038V620.197H544.353V616.038C544.353 615.168 545.061 614.462 545.933 614.462Z" fill="url(#paint31_linear_248_53890)"/>
<path d="M569.296 614.462H587.651C588.523 614.462 589.231 615.168 589.231 616.038V620.197H567.717V616.038C567.717 615.168 568.425 614.462 569.296 614.462Z" fill="url(#paint32_linear_248_53890)"/>
<path d="M592.662 614.462H611.016C611.888 614.462 612.596 615.168 612.596 616.038V620.197H591.082V616.038C591.082 615.168 591.79 614.462 592.662 614.462Z" fill="url(#paint33_linear_248_53890)"/>
<path d="M616.029 614.462H634.383C635.255 614.462 635.963 615.168 635.963 616.038V620.197H614.449V616.038C614.449 615.168 615.157 614.462 616.029 614.462Z" fill="url(#paint34_linear_248_53890)"/>
<path d="M639.396 614.462H657.75C658.622 614.462 659.33 615.168 659.33 616.038V620.197H637.816V616.038C637.816 615.168 638.524 614.462 639.396 614.462Z" fill="url(#paint35_linear_248_53890)"/>
<path d="M662.763 614.462H681.118C681.989 614.462 682.697 615.168 682.697 616.038V620.197H661.183V616.038C661.183 615.168 661.891 614.462 662.763 614.462Z" fill="url(#paint36_linear_248_53890)"/>
<path d="M357.44 618.354H376.022C376.901 618.354 377.612 619.064 377.612 619.941V624.093H355.849V619.941C355.849 619.064 356.561 618.354 357.44 618.354Z" fill="url(#paint37_linear_248_53890)"/>
<path d="M381.076 618.354H399.658C400.537 618.354 401.248 619.064 401.248 619.941V624.093H379.485V619.941C379.485 619.064 380.197 618.354 381.076 618.354Z" fill="url(#paint38_linear_248_53890)"/>
<path d="M404.707 618.354H423.29C424.168 618.354 424.88 619.064 424.88 619.941V624.093H403.117V619.941C403.117 619.064 403.829 618.354 404.707 618.354Z" fill="url(#paint39_linear_248_53890)"/>
<path d="M428.342 618.354H446.924C447.803 618.354 448.515 619.064 448.515 619.941V624.093H426.752V619.941C426.752 619.064 427.463 618.354 428.342 618.354Z" fill="url(#paint40_linear_248_53890)"/>
<path d="M451.982 618.354H588.672C589.551 618.354 590.262 619.064 590.262 619.941V624.093H450.395V619.941C450.395 619.064 451.107 618.354 451.986 618.354H451.982Z" fill="url(#paint41_linear_248_53890)"/>
<path d="M593.789 618.354H612.372C613.25 618.354 613.962 619.064 613.962 619.941V624.093H592.199V619.941C592.199 619.064 592.911 618.354 593.789 618.354Z" fill="url(#paint42_linear_248_53890)"/>
<path d="M617.43 618.354H636.012C636.891 618.354 637.603 619.064 637.603 619.941V624.093H615.84V619.941C615.84 619.064 616.551 618.354 617.43 618.354Z" fill="url(#paint43_linear_248_53890)"/>
<path d="M641.061 618.354H659.643C660.522 618.354 661.233 619.064 661.233 619.941V624.093H639.471V619.941C639.471 619.064 640.182 618.354 641.061 618.354Z" fill="url(#paint44_linear_248_53890)"/>
<path d="M664.696 618.354H683.278C684.157 618.354 684.868 619.064 684.868 619.941V624.093H663.105V619.941C663.105 619.064 663.817 618.354 664.696 618.354Z" fill="url(#paint45_linear_248_53890)"/>
<path opacity="0.13" d="M670.102 429.463H648.375C646.261 429.463 644.547 431.173 644.547 433.281V454.954C644.547 457.063 646.261 458.772 648.375 458.772H670.102C672.216 458.772 673.93 457.063 673.93 454.954V433.281C673.93 431.173 672.216 429.463 670.102 429.463Z" fill="#1D1D1B"/>
<path d="M671.725 427.613H649.998C647.884 427.613 646.17 429.323 646.17 431.432V453.104C646.17 455.213 647.884 456.923 649.998 456.923H671.725C673.84 456.923 675.553 455.213 675.553 453.104V431.432C675.553 429.323 673.84 427.613 671.725 427.613Z" fill="url(#paint46_linear_248_53890)"/>
<path d="M661.546 434.891L663.481 438.805C663.591 439.029 663.808 439.185 664.057 439.224L668.387 439.852C669.013 439.944 669.266 440.711 668.811 441.154L665.676 444.203C665.495 444.377 665.413 444.632 665.456 444.877L666.196 449.178C666.302 449.803 665.648 450.275 665.086 449.984L661.211 447.954C660.987 447.837 660.724 447.837 660.5 447.954L656.625 449.984C656.063 450.278 655.408 449.803 655.515 449.178L656.255 444.877C656.298 444.629 656.216 444.377 656.035 444.203L652.9 441.154C652.445 440.714 652.697 439.944 653.324 439.852L657.653 439.224C657.902 439.188 658.119 439.032 658.23 438.805L660.165 434.891C660.446 434.323 661.257 434.323 661.535 434.891H661.546Z" fill="white"/>
<path opacity="0.13" d="M403.175 369.546H608.967V511.67H403.175C397.586 511.67 393.046 507.142 393.046 501.567V379.645C393.046 374.07 397.586 369.542 403.175 369.542V369.546Z" fill="#1D1D1B"/>
<path d="M626.794 365.556H408.578C402.972 365.556 398.428 370.088 398.428 375.68V497.871C398.428 503.463 402.972 507.996 408.578 507.996H626.794C632.4 507.996 636.945 503.463 636.945 497.871V375.68C636.945 370.088 632.4 365.556 626.794 365.556Z" fill="white"/>
<path d="M408.581 507.994H626.797C632.404 507.994 636.948 503.462 636.948 497.869V383.436C612.346 394.597 617.056 405.786 593.191 405.786C558.815 405.786 544.659 457.019 513.116 457.42C481.569 457.825 478.741 433.218 460.945 431.965C443.149 430.716 429.803 446.93 420.098 461.452C413.829 470.831 404.358 474.824 398.435 476.477V497.866C398.435 503.459 402.978 507.99 408.585 507.99L408.581 507.994Z" fill="url(#paint47_linear_248_53890)"/>
<path d="M398.427 477.6V475.453C404.781 473.679 413.337 469.778 419.265 460.907C429.031 446.296 442.6 429.688 461.004 430.98C468.8 431.526 473.887 436.385 479.277 441.527C486.709 448.621 495.155 456.659 513.09 456.432C528.047 456.24 538.948 444.334 550.486 431.725C562.604 418.485 575.134 404.793 593.179 404.793C606.706 404.793 610.634 401.245 616.582 395.872C620.834 392.032 626.533 387.085 636.94 382.365V384.519C626.814 389.115 622.061 393.59 617.913 397.337C611.85 402.813 607.471 406.77 593.183 406.77C576.013 406.77 563.781 420.135 551.952 433.056C540.638 445.42 528.937 458.202 513.119 458.405C494.351 458.646 485.617 450.31 477.911 442.953C472.564 437.85 467.946 433.446 460.866 432.949C443.482 431.729 430.379 447.833 420.912 462C414.647 471.375 405.105 475.733 398.427 477.596V477.6Z" fill="#3036BC"/>
<path d="M462.197 382.05H416.095C413.861 382.05 412.05 383.856 412.05 386.083C412.05 388.311 413.861 390.116 416.095 390.116H462.197C464.431 390.116 466.242 388.311 466.242 386.083C466.242 383.856 464.431 382.05 462.197 382.05Z" fill="#1D1D1B"/>
<path d="M440.964 396.569H413.871C412.865 396.569 412.05 397.382 412.05 398.385C412.05 399.387 412.865 400.2 413.871 400.2H440.964C441.97 400.2 442.785 399.387 442.785 398.385C442.785 397.382 441.97 396.569 440.964 396.569Z" fill="#1D1D1B"/>
<path d="M427.197 493.985H416.588C415.546 493.985 414.702 494.827 414.702 495.865V495.869C414.702 496.908 415.546 497.75 416.588 497.75H427.197C428.238 497.75 429.083 496.908 429.083 495.869V495.865C429.083 494.827 428.238 493.985 427.197 493.985Z" fill="#DADADA"/>
<path d="M459.553 493.985H448.943C447.902 493.985 447.058 494.827 447.058 495.865V495.869C447.058 496.908 447.902 497.75 448.943 497.75H459.553C460.594 497.75 461.438 496.908 461.438 495.869V495.865C461.438 494.827 460.594 493.985 459.553 493.985Z" fill="#DADADA"/>
<path d="M491.903 493.985H481.294C480.252 493.985 479.408 494.827 479.408 495.865V495.869C479.408 496.908 480.252 497.75 481.294 497.75H491.903C492.944 497.75 493.789 496.908 493.789 495.869V495.865C493.789 494.827 492.944 493.985 491.903 493.985Z" fill="#DADADA"/>
<path d="M524.255 493.985H513.645C512.604 493.985 511.76 494.827 511.76 495.865V495.869C511.76 496.908 512.604 497.75 513.645 497.75H524.255C525.296 497.75 526.14 496.908 526.14 495.869V495.865C526.14 494.827 525.296 493.985 524.255 493.985Z" fill="#DADADA"/>
<path d="M556.609 493.985H546C544.958 493.985 544.114 494.827 544.114 495.865V495.869C544.114 496.908 544.958 497.75 546 497.75H556.609C557.651 497.75 558.495 496.908 558.495 495.869V495.865C558.495 494.827 557.651 493.985 556.609 493.985Z" fill="#DADADA"/>
<path d="M588.968 493.985H578.358C577.317 493.985 576.473 494.827 576.473 495.865V495.869C576.473 496.908 577.317 497.75 578.358 497.75H588.968C590.009 497.75 590.853 496.908 590.853 495.869V495.865C590.853 494.827 590.009 493.985 588.968 493.985Z" fill="#DADADA"/>
<path d="M621.323 493.985H610.714C609.672 493.985 608.828 494.827 608.828 495.865V495.869C608.828 496.908 609.672 497.75 610.714 497.75H621.323C622.364 497.75 623.209 496.908 623.209 495.869V495.865C623.209 494.827 622.364 493.985 621.323 493.985Z" fill="#DADADA"/>
<path d="M422.382 492.316C422.108 492.316 421.888 492.096 421.888 491.823V486.099C421.888 485.825 422.108 485.605 422.382 485.605C422.656 485.605 422.877 485.825 422.877 486.099V491.823C422.877 492.096 422.656 492.316 422.382 492.316Z" fill="#3036BC"/>
<path d="M454.659 492.316C454.385 492.316 454.164 492.096 454.164 491.823V486.099C454.164 485.825 454.385 485.605 454.659 485.605C454.933 485.605 455.153 485.825 455.153 486.099V491.823C455.153 492.096 454.933 492.316 454.659 492.316Z" fill="#3036BC"/>
<path d="M486.928 492.316C486.654 492.316 486.434 492.096 486.434 491.823V486.099C486.434 485.825 486.654 485.605 486.928 485.605C487.202 485.605 487.423 485.825 487.423 486.099V491.823C487.423 492.096 487.202 492.316 486.928 492.316Z" fill="#3036BC"/>
<path d="M519.204 492.316C518.931 492.316 518.71 492.096 518.71 491.823V486.099C518.71 485.825 518.931 485.605 519.204 485.605C519.478 485.605 519.699 485.825 519.699 486.099V491.823C519.699 492.096 519.478 492.316 519.204 492.316Z" fill="#3036BC"/>
<path d="M551.474 492.316C551.2 492.316 550.979 492.096 550.979 491.823V486.099C550.979 485.825 551.2 485.605 551.474 485.605C551.748 485.605 551.969 485.825 551.969 486.099V491.823C551.969 492.096 551.748 492.316 551.474 492.316Z" fill="#3036BC"/>
<path d="M583.75 492.316C583.476 492.316 583.256 492.096 583.256 491.823V486.099C583.256 485.825 583.476 485.605 583.75 485.605C584.024 485.605 584.245 485.825 584.245 486.099V491.823C584.245 492.096 584.024 492.316 583.75 492.316Z" fill="#3036BC"/>
<path d="M616.014 492.316C615.74 492.316 615.52 492.096 615.52 491.823V486.099C615.52 485.825 615.74 485.605 616.014 485.605C616.288 485.605 616.509 485.825 616.509 486.099V491.823C616.509 492.096 616.288 492.316 616.014 492.316Z" fill="#3036BC"/>
<path opacity="0.13" d="M431.736 266.653H346.972C344.795 266.653 343.03 268.414 343.03 270.585V318.05C343.03 320.222 344.795 321.982 346.972 321.982H431.736C433.913 321.982 435.678 320.222 435.678 318.05V270.585C435.678 268.414 433.913 266.653 431.736 266.653Z" fill="#1D1D1B"/>
<path d="M433.759 264.792H348.996C346.818 264.792 345.054 266.552 345.054 268.724V316.189C345.054 318.36 346.818 320.121 348.996 320.121H433.759C435.937 320.121 437.701 318.36 437.701 316.189V268.724C437.701 266.552 435.937 264.792 433.759 264.792Z" fill="white"/>
<path d="M362.301 300.201C362.301 298.356 360.802 296.861 358.953 296.861C357.104 296.861 355.605 298.356 355.605 300.201V304.342C355.605 306.186 357.104 307.681 358.953 307.681C360.802 307.681 362.301 306.186 362.301 304.342V300.201Z" fill="url(#paint48_linear_248_53890)"/>
<path d="M375.19 295.934C375.19 294.09 373.691 292.595 371.842 292.595C369.993 292.595 368.494 294.09 368.494 295.934V304.338C368.494 306.182 369.993 307.677 371.842 307.677C373.691 307.677 375.19 306.182 375.19 304.338V295.934Z" fill="url(#paint49_linear_248_53890)"/>
<path d="M400.964 295.934C400.964 294.09 399.465 292.595 397.616 292.595C395.767 292.595 394.268 294.09 394.268 295.934V304.338C394.268 306.182 395.767 307.677 397.616 307.677C399.465 307.677 400.964 306.182 400.964 304.338V295.934Z" fill="url(#paint50_linear_248_53890)"/>
<path d="M413.857 291.14C413.857 289.296 412.358 287.801 410.509 287.801C408.66 287.801 407.161 289.296 407.161 291.14V304.338C407.161 306.182 408.66 307.677 410.509 307.677C412.358 307.677 413.857 306.182 413.857 304.338V291.14Z" fill="url(#paint51_linear_248_53890)"/>
<path d="M426.742 282.502C426.742 280.658 425.243 279.163 423.394 279.163C421.545 279.163 420.047 280.658 420.047 282.502V304.338C420.047 306.182 421.545 307.677 423.394 307.677C425.243 307.677 426.742 306.182 426.742 304.338V282.502Z" fill="url(#paint52_linear_248_53890)"/>
<path d="M388.075 287.864C388.075 286.019 386.576 284.524 384.727 284.524C382.879 284.524 381.38 286.019 381.38 287.864V304.34C381.38 306.185 382.879 307.68 384.727 307.68C386.576 307.68 388.075 306.185 388.075 304.34V287.864Z" fill="url(#paint53_linear_248_53890)"/>
<path d="M375.084 272.249H357.178C356.309 272.249 355.605 272.95 355.605 273.816C355.605 274.681 356.309 275.382 357.178 275.382H375.084C375.953 275.382 376.657 274.681 376.657 273.816C376.657 272.95 375.953 272.249 375.084 272.249Z" fill="#1D1D1B"/>
<path d="M366.837 277.891H356.313C355.922 277.891 355.605 278.206 355.605 278.595C355.605 278.984 355.922 279.299 356.313 279.299H366.837C367.228 279.299 367.545 278.984 367.545 278.595C367.545 278.206 367.228 277.891 366.837 277.891Z" fill="#1D1D1B"/>
<path opacity="0.13" d="M722.665 472.072H645.739C643.763 472.072 642.16 473.671 642.16 475.642V518.717C642.16 520.689 643.763 522.287 645.739 522.287H722.665C724.642 522.287 726.245 520.689 726.245 518.717V475.642C726.245 473.671 724.642 472.072 722.665 472.072Z" fill="#1D1D1B"/>
<path d="M724.505 470.382H647.579C645.602 470.382 644 471.98 644 473.952V517.027C644 518.999 645.602 520.597 647.579 520.597H724.505C726.482 520.597 728.084 518.999 728.084 517.027V473.952C728.084 471.98 726.482 470.382 724.505 470.382Z" fill="white"/>
<path d="M671.255 477.154H655.003C654.215 477.154 653.576 477.791 653.576 478.576C653.576 479.361 654.215 479.997 655.003 479.997H671.255C672.043 479.997 672.681 479.361 672.681 478.576C672.681 477.791 672.043 477.154 671.255 477.154Z" fill="#1D1D1B"/>
<path d="M665.874 482.271H654.219C653.865 482.271 653.578 482.557 653.578 482.91V482.914C653.578 483.267 653.865 483.553 654.219 483.553H665.874C666.227 483.553 666.514 483.267 666.514 482.914V482.91C666.514 482.557 666.227 482.271 665.874 482.271Z" fill="#1D1D1B"/>
<path d="M665.874 485.226H654.219C653.865 485.226 653.578 485.512 653.578 485.864V485.868C653.578 486.221 653.865 486.507 654.219 486.507H665.874C666.227 486.507 666.514 486.221 666.514 485.868V485.864C666.514 485.512 666.227 485.226 665.874 485.226Z" fill="#1D1D1B"/>
<path d="M663.775 488.174H654.219C653.865 488.174 653.578 488.46 653.578 488.813V488.816C653.578 489.169 653.865 489.455 654.219 489.455H663.775C664.128 489.455 664.415 489.169 664.415 488.816V488.813C664.415 488.46 664.128 488.174 663.775 488.174Z" fill="#1D1D1B"/>
<path d="M665.874 504.944H654.219C653.865 504.944 653.578 505.23 653.578 505.583V505.587C653.578 505.939 653.865 506.225 654.219 506.225H665.874C666.227 506.225 666.514 505.939 666.514 505.587V505.583C666.514 505.23 666.227 504.944 665.874 504.944Z" fill="#1D1D1B"/>
<path d="M665.874 507.893H654.219C653.865 507.893 653.578 508.179 653.578 508.531V508.535C653.578 508.888 653.865 509.174 654.219 509.174H665.874C666.227 509.174 666.514 508.888 666.514 508.535V508.531C666.514 508.179 666.227 507.893 665.874 507.893Z" fill="#1D1D1B"/>
<path d="M663.775 510.846H654.219C653.865 510.846 653.578 511.132 653.578 511.484V511.488C653.578 511.841 653.865 512.127 654.219 512.127H663.775C664.128 512.127 664.415 511.841 664.415 511.488V511.484C664.415 511.132 664.128 510.846 663.775 510.846Z" fill="#1D1D1B"/>
<path d="M663.775 493.84H654.219C653.865 493.84 653.578 494.126 653.578 494.479V494.482C653.578 494.835 653.865 495.121 654.219 495.121H663.775C664.128 495.121 664.415 494.835 664.415 494.482V494.479C664.415 494.126 664.128 493.84 663.775 493.84Z" fill="#1D1D1B"/>
<path d="M665.056 496.788H654.219C653.865 496.788 653.578 497.074 653.578 497.427V497.43C653.578 497.783 653.865 498.069 654.219 498.069H665.056C665.409 498.069 665.696 497.783 665.696 497.43V497.427C665.696 497.074 665.409 496.788 665.056 496.788Z" fill="#1D1D1B"/>
<path d="M660.573 499.742H654.219C653.865 499.742 653.578 500.028 653.578 500.381V500.385C653.578 500.737 653.865 501.023 654.219 501.023H660.573C660.926 501.023 661.213 500.737 661.213 500.385V500.381C661.213 500.028 660.926 499.742 660.573 499.742Z" fill="#1D1D1B"/>
<path d="M698.535 483.671C690.484 483.671 683.959 490.179 683.959 498.21C683.959 506.241 690.484 512.749 698.535 512.749C706.586 512.749 713.111 506.241 713.111 498.21H698.535V483.671Z" fill="url(#paint54_linear_248_53890)"/>
<path d="M699.797 481.611V496.15H714.373C714.373 488.12 707.848 481.611 699.797 481.611Z" fill="url(#paint55_linear_248_53890)"/>
<path d="M624.43 596.234L329.914 474.987L317.807 436.213L626.144 563.095L624.43 596.234Z" fill="#69CCB4"/>
<path d="M288.773 665.281C329.785 665.281 363.031 660.894 363.031 655.483C363.031 650.071 329.785 645.685 288.773 645.685C247.762 645.685 214.516 650.071 214.516 655.483C214.516 660.894 247.762 665.281 288.773 665.281Z" fill="#F4F4FD"/>
<path d="M270.045 306.874C270.045 306.874 267.263 319.369 269.501 329.976C271.735 340.583 264.346 355.328 256.903 363.189C249.456 371.049 242.494 386.277 264.499 395.429C282.775 403.031 313.212 394.028 314.87 377.739C316.531 361.45 307.879 346.201 310.159 328.84C312.44 311.483 316.246 299.627 298.571 293.427C280.896 287.228 270.045 306.874 270.045 306.874Z" fill="#1D1D1B"/>
<path d="M306.714 352.154C306.714 352.154 335.845 328.651 338.513 325.741C341.182 322.831 354.086 267.374 354.086 267.374L369.057 269.081C369.057 269.081 357.334 311.744 355.046 324.988C353.179 335.819 332.127 355.831 332.127 355.831C332.127 355.831 323.713 368.532 311.784 363.986C299.855 359.44 306.711 352.151 306.711 352.151L306.714 352.154Z" fill="url(#paint56_linear_248_53890)"/>
<path d="M356.875 262.746C356.836 260.972 356.075 259.832 356.075 259.832L355.509 255.098C355.509 255.098 356.025 247.11 356.587 246.099C357.242 244.92 358.448 244.15 359.779 243.923C363.457 243.302 368.09 243.625 371.06 245.811C373.199 247.383 373.042 252.249 370.833 259.417C369.189 264.747 369.427 267.228 369.427 267.228L356.53 265.713C356.53 265.713 356.925 264.772 356.883 262.753L356.875 262.746Z" fill="#EFA8A8"/>
<path d="M354.379 269.476L369.107 271.28C369.973 271.386 370.761 270.771 370.868 269.908L371.371 265.818C371.478 264.955 370.862 264.168 369.996 264.062L355.267 262.259C354.401 262.152 353.613 262.767 353.507 263.63L353.003 267.72C352.897 268.584 353.513 269.37 354.379 269.476Z" fill="#E5CD34"/>
<path d="M355.935 258.665C355.935 258.665 355.096 256.965 354.761 255.042C354.427 253.118 353.608 249.051 357.184 249.207C360.76 249.364 355.932 258.665 355.932 258.665H355.935Z" fill="#EFA8A8"/>
<path d="M295.134 633.856L294.558 643.572L306.768 644.293L308.49 633.82L295.134 633.856Z" fill="#EFA8A8"/>
<path d="M294.68 641.522C294.68 641.522 296.228 643.953 307.015 642.8C307.015 642.8 324.036 647.098 326.9 647.541C329.764 647.985 331.087 648.886 331.386 650.827C331.685 652.768 331.108 655.48 331.108 655.48L291.72 654.255C291.72 654.255 291.375 643.797 294.677 641.522H294.68Z" fill="#686863"/>
<path d="M314.124 546.316C315.885 534.434 320.557 493.148 320.557 493.148L326.238 459.967L304.582 455.261L302.764 473.832C299.367 491.384 301.338 552.636 301.338 552.636C292.052 596.297 293.955 637.874 293.955 637.874L300.388 637.718C300.637 630.095 301.352 613.849 303.202 601.545C305.699 584.919 312.36 558.201 314.121 546.319L314.124 546.316Z" fill="#1D28A8"/>
<path d="M323.714 548.779C325.781 538.3 332.093 507.947 335.067 484.536C336.985 469.418 336.277 456.302 336.277 456.302L325.564 455.95L320.551 493.149C320.551 493.149 315.88 534.435 314.119 546.316C312.358 558.197 305.698 584.916 303.2 601.542C301.35 613.846 300.635 630.092 300.386 637.715L309.07 637.527C309.07 637.527 320.309 566.033 323.714 548.786V548.779Z" fill="url(#paint57_linear_248_53890)"/>
<path d="M257.278 626.886L253.511 635.339L264.131 640.048L269.172 631.307L257.278 626.886Z" fill="#EFA8A8"/>
<path d="M254.774 632.847C254.774 632.847 255.372 635.689 265.974 638.425C265.974 638.425 268.909 640.519 273.566 642.744C277.277 644.515 283.909 647.588 285.165 650.214C286.019 652.003 285.115 654.583 285.115 654.583L267.931 653.965C265.903 653.664 263.623 652.166 261.797 651.226L247.445 643.83C247.445 643.83 250.843 633.83 254.774 632.847Z" fill="#686863"/>
<path d="M286.219 450.313C286.219 450.313 274.344 448.616 281.381 497.039C286.501 532.257 285.995 546.786 285.995 546.786L255.758 629.398L269.121 634.348C269.121 634.348 304.197 571.475 309.619 549.508C312.487 537.893 316.966 513.523 320.552 493.136L326.928 455.994L286.216 450.316L286.219 450.313Z" fill="url(#paint58_linear_248_53890)"/>
<path d="M322.133 489.299C325.029 472.826 327.281 459.22 327.281 459.22L322.133 489.299Z" fill="#1D28A8"/>
<path d="M327.289 415.501C327.292 406.125 327.766 389.123 328.417 385.163C331.725 364.967 319.291 350.938 308.692 346.073L285.652 343.905C281.045 345.125 277.797 346.673 275.513 348.518C274.026 348.309 271.713 347.567 269.251 345.186C262.093 338.251 252.615 324.681 250.811 322.289C247.958 318.506 237.637 264.792 237.637 264.792L222.082 267.546C222.082 267.546 226.049 300.422 231.176 318.623C231.179 318.645 232.268 323.574 234.452 328.088C236.64 332.609 253.177 357.067 260.581 364.697C265.729 370.002 271.61 382.015 275.342 390.997C276.893 398.094 278.27 405.82 278.583 413.638C279.323 431.935 277.63 461.777 277.63 461.777L287.641 460.847C287.641 460.847 327.442 461.177 336.678 456.794C336.678 456.794 329.203 435.736 327.289 415.497V415.501Z" fill="url(#paint59_linear_248_53890)"/>
<path d="M235.494 263.424C235.437 261.649 236.138 260.471 236.138 260.471L236.451 255.716C236.451 255.716 235.508 247.767 234.889 246.784C234.17 245.641 232.925 244.935 231.584 244.782C227.876 244.356 223.269 244.928 220.423 247.27C218.374 248.955 218.793 253.803 221.383 260.844C223.312 266.082 223.209 268.566 223.209 268.566L236.006 266.362C236.006 266.362 235.561 265.443 235.497 263.424H235.494Z" fill="#EFA8A8"/>
<path d="M237.091 262.868L222.48 265.456C221.621 265.608 221.048 266.426 221.201 267.283L221.923 271.34C222.076 272.196 222.896 272.768 223.755 272.615L238.365 270.027C239.224 269.875 239.797 269.057 239.645 268.2L238.922 264.144C238.77 263.287 237.95 262.716 237.091 262.868Z" fill="#F0AD30"/>
<path d="M236.213 259.297C236.213 259.297 236.96 257.554 237.188 255.613C237.415 253.676 238.017 249.57 234.455 249.918C230.894 250.265 236.213 259.297 236.213 259.297Z" fill="#EFA8A8"/>
<path d="M303.454 356.713C298.103 359.726 288.685 352.188 288.038 344.91C287.39 337.635 288.372 338.043 288.984 326.903C288.984 326.903 301.458 329.82 305.343 329.863C305.343 329.863 303.635 341.219 304.806 345.112C305.976 349.001 308.096 354.101 303.454 356.713Z" fill="#EFA8A8"/>
<path d="M304.756 334.755C304.756 334.755 293.983 334.315 290.215 330.632C290.215 330.632 290.048 335.078 304.585 336.679L304.752 334.755H304.756Z" fill="#D89595"/>
<path d="M307.782 299.881C307.782 299.881 283.546 283.011 274.221 299.331C274.221 299.331 268.049 304.654 269.49 317.657C270.959 330.926 282.351 337.619 285.852 333.882C288.097 331.483 288.474 333.556 288.474 333.556L288.879 328.719L307.782 299.881Z" fill="#1D1D1B"/>
<path d="M288.874 328.72C288.874 328.72 281.791 328.954 277.977 324.014C275.252 320.487 269.702 305.046 285.302 299.571C285.302 299.571 289.735 297.793 295.093 298.399C299.356 298.882 306.3 301.1 307.788 316.317L308.688 321.25L288.874 328.717V328.72Z" fill="#1D1D1B"/>
<path d="M311.939 332.996C311.939 332.996 292.457 340.274 288.476 327.63C284.637 315.437 279.211 308.204 291.443 303.371C303.674 298.537 307.912 302.207 309.972 306.086C312.291 310.458 312.274 312.48 312.608 316.114C312.765 317.804 313.764 319.305 313.775 321.675C313.8 327.307 314.262 332.024 311.943 332.996H311.939Z" fill="#EFA8A8"/>
<path d="M299.342 299.577C299.342 299.577 298.691 316.203 290.889 321.204C283.086 326.204 278.632 325.146 278.632 325.146C278.632 325.146 283.453 317.804 281.809 308.311C281.809 308.311 292.813 293.921 299.338 299.577H299.342Z" fill="#1D1D1B"/>
<path d="M298.363 301.231C298.363 301.231 302.761 301.497 306.361 304.372C309.136 306.586 310.894 308.052 312.299 313.488C312.299 313.488 313.117 303.084 306.525 298.946C299.537 294.559 298.363 301.231 298.363 301.231Z" fill="#1D1D1B"/>
<path d="M752.648 653.491C793.66 653.491 826.906 649.104 826.906 643.693C826.906 638.281 793.66 633.895 752.648 633.895C711.637 633.895 678.391 638.281 678.391 643.693C678.391 649.104 711.637 653.491 752.648 653.491Z" fill="#F4F4FD"/>
<path d="M746.673 613.755C746.673 613.755 745.659 626.03 746.673 631.126C746.673 631.126 743.34 633.678 734.079 627.24C734.079 627.24 732.741 621.577 734.161 614.064C734.161 614.064 739.846 602.821 746.67 613.755H746.673Z" fill="#EFA8A8"/>
<path d="M744.714 628.321C744.714 628.321 747.628 628.356 748.617 633.023C749.606 637.689 749.695 640.532 749.695 640.532C749.695 640.532 737.915 640.532 731.07 641.66C724.228 642.792 716.177 643.509 704.678 637.856C704.678 637.856 702.718 633.672 706.151 633.25C709.584 632.828 717.009 633.31 720.29 631.273C723.57 629.236 727.861 626.333 729.675 625.262C731.49 624.19 732.486 622.064 733.681 623.934C734.88 625.805 735.368 631.167 744.714 628.321Z" fill="url(#paint60_linear_248_53890)"/>
<path d="M730.056 631.482C729.8 631.67 729.448 631.596 729.277 631.315L727.26 628.061C727.085 627.781 727.157 627.401 727.413 627.213C727.669 627.025 728.021 627.099 728.192 627.38L730.209 630.634C730.383 630.914 730.312 631.294 730.056 631.482Z" fill="white"/>
<path d="M728.718 632.455C728.462 632.643 728.11 632.568 727.939 632.288L725.922 629.034C725.747 628.753 725.819 628.374 726.075 628.185C726.331 627.997 726.683 628.072 726.854 628.352L728.871 631.606C729.046 631.887 728.974 632.267 728.718 632.455Z" fill="white"/>
<path d="M727.382 633.427C727.126 633.615 726.774 633.541 726.603 633.26L724.586 630.006C724.412 629.726 724.483 629.346 724.739 629.158C724.995 628.97 725.347 629.045 725.518 629.325L727.535 632.579C727.71 632.859 727.638 633.239 727.382 633.427Z" fill="white"/>
<path d="M749.69 640.53L749.978 645.175C749.978 645.175 732.584 645.055 727.244 644.998C721.904 644.941 716.72 645.08 712.526 643.671C708.328 642.262 704.941 641.467 704.674 637.854C704.674 637.854 711.957 642.673 722.427 642.411C732.898 642.145 731.094 640.47 742.297 640.633C750.277 640.75 749.69 640.53 749.69 640.53Z" fill="#EAF0FF"/>
<path d="M795.994 607.922C795.994 607.922 797.954 620.062 800.153 624.697C800.153 624.697 797.545 628.104 787.064 624.498C787.064 624.498 784.417 619.406 783.99 611.751C783.99 611.751 786.787 599.291 795.998 607.926L795.994 607.922Z" fill="#EFA8A8"/>
<path d="M797.589 622.539C797.589 622.539 800.411 621.751 802.481 625.978C804.552 630.204 805.32 632.926 805.32 632.926C805.32 632.926 793.943 636.248 787.606 639.271C781.27 642.295 773.667 645.258 761.211 643.044C761.211 643.044 758.319 639.555 761.531 638.178C764.744 636.801 772.03 635.173 774.713 632.28C777.396 629.388 780.843 625.374 782.337 623.827C783.832 622.283 784.283 619.945 785.888 621.414C787.492 622.883 789.25 627.922 797.589 622.535V622.539Z" fill="url(#paint61_linear_248_53890)"/>
<path d="M784.189 629.733C783.986 629.988 783.63 630.013 783.395 629.793L780.67 627.217C780.435 626.997 780.41 626.61 780.617 626.354C780.819 626.099 781.175 626.074 781.41 626.294L784.135 628.87C784.37 629.09 784.395 629.477 784.189 629.733Z" fill="white"/>
<path d="M783.136 631.045C782.933 631.301 782.577 631.326 782.342 631.106L779.617 628.529C779.382 628.309 779.357 627.922 779.564 627.667C779.767 627.411 780.122 627.386 780.357 627.607L783.082 630.183C783.317 630.403 783.342 630.79 783.136 631.045Z" fill="white"/>
<path d="M782.083 632.363C781.88 632.618 781.524 632.643 781.29 632.423L778.564 629.847C778.33 629.627 778.305 629.24 778.511 628.984C778.714 628.729 779.07 628.704 779.304 628.924L782.03 631.5C782.265 631.72 782.289 632.107 782.083 632.363Z" fill="white"/>
<path d="M805.326 632.928L806.718 637.332C806.718 637.332 789.893 642.122 784.723 643.574C779.55 645.029 774.584 646.622 770.193 646.445C765.803 646.267 762.341 646.459 761.221 643.045C761.221 643.045 769.407 645.646 779.454 642.435C789.501 639.223 787.356 638.116 798.214 635.114C805.949 632.974 805.33 632.928 805.33 632.928H805.326Z" fill="#EAF0FF"/>
<path d="M732.314 425.21C732.314 425.21 724.33 519.37 724.946 533.639C725.561 547.909 731.727 620.321 731.727 620.321C731.727 620.321 739.084 618.98 748.039 621.588C748.039 621.588 750.975 552.842 750.857 533.636C750.857 533.636 759.2 483.644 759.2 425.136C759.2 425.136 745.563 425.136 732.318 425.203L732.314 425.21Z" fill="url(#paint62_linear_248_53890)"/>
<path d="M788.107 422.69C788.107 422.69 793.512 442.634 790.445 460.08C785.382 488.875 783.959 522.659 783.959 522.659L798.582 615.168C798.582 615.168 792.224 615.314 782.981 619.033C782.981 619.033 758.293 541.95 758.293 527.869C758.293 513.787 750.915 483.53 748.513 467.057C746.112 450.587 740.451 425.455 740.451 425.455C740.451 425.455 777.569 425.171 788.107 422.69Z" fill="url(#paint63_linear_248_53890)"/>
<path d="M754.965 501.897L749.461 472.868L753.659 513.374L754.965 501.897Z" fill="#1D1D1B"/>
<path d="M711.32 333.201C711.32 333.201 718.486 326.998 720.133 315.457L694.674 308.856C694.674 308.856 688.298 283.309 677.514 257.023L667.61 259.053C667.61 259.053 674.184 289.367 677.952 304.988C680.03 313.598 680.763 321.88 687.387 324.705C694.012 327.53 711.32 333.197 711.32 333.197V333.201Z" fill="#EFA8A8"/>
<path d="M719.021 315.185C719.021 315.185 712.389 326.879 706.871 331.719L708.198 332.163C708.198 332.163 714.499 327.074 719.024 315.185H719.021Z" fill="#D89595"/>
<path d="M750.767 340.308C750.767 340.308 742.05 350.025 706.871 332.874C706.871 332.874 714.538 327.071 719.067 314.676C719.067 314.676 730.793 315.701 741.417 319.023C748.967 321.383 750.767 340.308 750.767 340.308Z" fill="#E15CA7"/>
<path d="M677.514 257.02C677.514 257.02 676.589 254.462 677.813 252.609C679.037 250.757 680.638 249.628 679.627 245.835C678.617 242.041 677.133 244.514 677.133 244.514C677.133 244.514 676.166 241.281 674.728 239.862C673.291 238.442 669.523 238.528 667.022 240.298C664.521 242.069 660.18 244.451 667.609 259.05L677.514 257.02Z" fill="#EFA8A8"/>
<path d="M789.973 433.026C789.973 433.026 795.736 374.702 790.432 348.413C785.127 322.124 781.395 317.102 777.62 314.906C773.845 312.709 749.93 313.337 732.312 316.474C714.69 319.611 712.805 342.838 712.805 342.838C712.805 342.838 717.839 342.21 724.762 344.879C724.762 344.879 732.568 402.759 729.832 433.026C729.832 433.026 775.973 436.635 789.973 433.026Z" fill="url(#paint64_linear_248_53890)"/>
<path d="M764.722 313.606C764.722 313.606 760.947 326.755 748.203 326.989C735.459 327.223 732.314 316.474 732.314 316.474C732.314 316.474 740.889 312.694 764.722 313.603V313.606Z" fill="#EFA8A8"/>
<path d="M717.201 274.325C717.201 274.325 714.611 281.707 717.77 290.948C717.77 290.948 715.668 297.892 715.842 299.046C716.017 300.199 720.015 300.149 720.015 300.149C720.015 300.149 721.681 306.339 722.413 308.773C723.146 311.204 723.723 313.205 726.864 312.914C730.006 312.623 735.801 311.207 737.715 313.642C737.964 313.958 740.729 322.503 746.621 320.431C747.983 319.952 767.739 313.464 763.456 313.464C758.169 313.464 750.676 298.251 752.8 290.032C754.924 281.813 753.818 270.901 746.055 267.71C738.288 264.52 719.909 264.566 717.198 274.325H717.201Z" fill="#EFA8A8"/>
<path d="M752.021 294.507C751.21 290.635 745.962 294.784 745.962 294.784C745.962 294.784 746.154 299.348 744.389 301.832C743.71 302.786 737.58 309.76 728.803 312.531C728.803 312.531 735.562 311.868 744.581 306.704C748.84 304.266 752.711 297.8 752.021 294.507Z" fill="#D89595"/>
<path d="M743.503 289.343C743.503 289.343 738.376 289.751 738.526 284.737C738.526 284.737 735.295 286.859 732.865 282.228C730.435 277.6 727.447 274.69 721.128 275.641C714.81 276.592 715.261 274.165 715.044 272.742C714.831 271.322 715.863 268.533 719.196 268.302C722.53 268.072 721.075 264.477 723.74 263.441C726.404 262.404 729.912 263.327 731.962 263.018C734.007 262.71 735.683 260.552 738.355 260.147C741.027 259.746 744.4 261.599 745.976 264.175C747.548 266.752 748.1 268.576 751.344 268.363C754.589 268.146 756.798 268.902 757.681 271.131C758.563 273.359 757.222 274.105 757.343 274.903C757.464 275.702 759.741 276.905 759.933 278.782C760.125 280.659 758.403 283.097 756.717 283.988C756.717 283.988 757.862 285.542 757.481 287.232C757.101 288.924 754.546 289.489 754.603 290.479C754.664 291.469 754.934 295.06 751.967 295.326C749 295.592 745.965 294.776 745.965 294.776C745.965 294.776 751.12 289.733 750.323 285.677C749.526 281.621 745.677 282.654 744.841 283.143C744.005 283.633 742.119 285.007 742.332 286.426C742.546 287.846 743.503 289.336 743.503 289.336V289.343Z" fill="#1D1D1B"/>
<path d="M681.664 395.047L781.042 374.699C782.917 374.315 784.753 375.522 785.137 377.392L682.362 398.436L681.664 395.047Z" fill="url(#paint65_linear_248_53890)"/>
<path d="M750.226 384.513L728.086 337.68C727.548 336.541 726.296 335.917 725.058 336.168L659.342 349.625C658.126 349.874 657.467 351.194 657.997 352.312L678.608 395.724C679.486 397.573 681.514 398.584 683.524 398.173L750.226 384.513Z" fill="url(#paint66_linear_248_53890)"/>
<path d="M701.565 370.341C703.025 369.844 703.623 367.732 702.902 365.623C702.18 363.514 700.411 362.207 698.952 362.704C697.492 363.201 696.894 365.314 697.615 367.423C698.337 369.532 700.106 370.838 701.565 370.341Z" fill="white"/>
<path d="M805.416 341.613C805.416 341.613 796.543 343.284 789.638 351.979L802.929 364.765C802.929 364.765 778.459 378.839 760.158 380.979L761.04 391.097C761.04 391.097 805.868 382.949 817.232 378.814C828.595 374.68 825.091 365.538 821.003 360.045C816.915 354.555 805.413 341.609 805.413 341.609L805.416 341.613Z" fill="#EFA8A8"/>
<path d="M761.614 380.787C761.614 380.787 758.96 381.408 757.256 379.981C755.552 378.554 754.612 376.837 750.717 377.401C746.821 377.965 749.116 379.718 749.116 379.718C749.116 379.718 745.786 380.304 744.206 381.564C742.626 382.827 742.274 386.567 743.751 389.25C745.224 391.933 747.098 396.508 762.493 390.833L761.614 380.787Z" fill="#EFA8A8"/>
<path d="M790.43 352.738C790.43 352.738 801.505 346.3 808.368 344.963L807.493 343.962C807.493 343.962 799.865 345.129 790.43 352.738Z" fill="#D89595"/>
<path d="M772.578 314.8C772.578 314.8 785.948 309.541 808.87 343.847C808.87 343.847 799.229 344.702 787.805 354.99C787.805 354.99 771.471 336.622 768.678 328.768C765.889 320.915 772.578 314.8 772.578 314.8Z" fill="url(#paint67_linear_248_53890)"/>
<g opacity="0.2">
<path d="M789.402 353.599L787.805 354.99C787.805 354.99 781.451 349.319 777.897 343.052C777.897 343.052 786.225 351.31 789.402 353.599Z" fill="#1D1D1B"/>
<path d="M790.434 352.74C790.434 352.74 788.495 354.067 787.805 354.99C787.805 354.99 789.014 355.093 791.398 353.666L790.434 352.74Z" fill="#1D1D1B"/>
</g>
<path opacity="0.2" d="M808.869 343.846C808.869 343.846 808.837 344.371 808.371 344.964L807.496 343.963L808.869 343.843V343.846Z" fill="#1D1D1B"/>
<path d="M55.9978 152.27C53.2376 152.27 51 150.014 51 147.231C51 144.449 53.2376 142.193 55.9978 142.193C58.758 142.193 60.9956 144.449 60.9956 147.231C60.9956 150.014 58.758 152.27 55.9978 152.27Z" fill="url(#paint68_linear_248_53890)"/>
<path d="M92.312 118.073V126.274H90.6759V118.073C90.6759 117.479 91.0413 117 91.4902 117C91.9391 117 92.3046 117.479 92.3046 118.073H92.312Z" fill="#38CCF0"/>
<path d="M92.3114 153.927C92.3114 154.521 91.946 155 91.4971 155C91.0481 155 90.6834 154.521 90.6834 153.927V146.221H92.3188V153.927H92.3114Z" fill="#38CCF0"/>
<path d="M109 136.001C109 136.488 108.559 136.884 108.011 136.884H100.452V135.11H108.011C108.559 135.11 109 135.506 109 135.993V136.001Z" fill="#38CCF0"/>
<path d="M74.9792 135.11H82.0825V136.884H74.9792C74.4317 136.884 73.9907 136.488 73.9907 136.001C73.9907 135.515 74.4317 135.118 74.9792 135.118V135.11Z" fill="#38CCF0"/>
<path d="M103.749 123.96L98.4026 129.761L97.247 128.506L102.593 122.706C102.981 122.285 103.552 122.227 103.871 122.574C104.191 122.92 104.137 123.539 103.749 123.96Z" fill="#38CCF0"/>
<path d="M80.395 149.298C80.0071 149.718 79.4369 149.776 79.1175 149.43C78.7981 149.083 78.8507 148.464 79.2386 148.043L84.266 142.589L85.4224 143.843L80.395 149.298Z" fill="#38CCF0"/>
<path d="M103.871 149.427C103.552 149.773 102.981 149.716 102.593 149.295L97.247 143.494L98.4026 142.24L103.749 148.04C104.137 148.461 104.191 149.08 103.871 149.427Z" fill="#38CCF0"/>
<path d="M80.395 122.706L85.4224 128.16L84.266 129.414L79.2386 123.96C78.8507 123.539 78.7981 122.92 79.1175 122.574C79.4369 122.227 80.0071 122.285 80.395 122.706Z" fill="#38CCF0"/>
<path d="M408 193C405.791 193 404 191.209 404 189C404 186.791 405.791 185 408 185C410.209 185 412 186.791 412 189C412 191.209 410.209 193 408 193Z" fill="url(#paint69_linear_248_53890)"/>
<path d="M415 219C409.477 219 405 214.523 405 209C405 203.477 409.477 199 415 199C420.523 199 425 203.477 425 209C425 214.523 420.523 219 415 219Z" fill="url(#paint70_linear_248_53890)"/>
<path d="M155.995 565C150.475 565 146 560.523 146 555C146 549.477 150.475 545 155.995 545C161.514 545 165.989 549.477 165.989 555C165.989 560.523 161.514 565 155.995 565Z" fill="url(#paint71_linear_248_53890)"/>
<path d="M176.314 503.064V511.203H174.678V503.064C174.678 502.475 175.043 502 175.492 502C175.941 502 176.306 502.475 176.306 503.064H176.314Z" fill="#38CCF0"/>
<path d="M176.313 538.645C176.313 539.234 175.948 539.709 175.499 539.709C175.05 539.709 174.685 539.234 174.685 538.645V530.997H176.321V538.645H176.313Z" fill="#38CCF0"/>
<path d="M193 520.856C193 521.339 192.558 521.732 192.011 521.732H184.452V519.972H192.011C192.558 519.972 193 520.365 193 520.848V520.856Z" fill="#38CCF0"/>
<path d="M158.982 519.972H166.085V521.732H158.982C158.435 521.732 157.994 521.339 157.994 520.856C157.994 520.373 158.435 519.98 158.982 519.98V519.972Z" fill="#38CCF0"/>
<path d="M187.749 508.907L182.403 514.663L181.248 513.418L186.593 507.662C186.981 507.244 187.552 507.187 187.871 507.531C188.191 507.875 188.137 508.489 187.749 508.907Z" fill="#38CCF0"/>
<path d="M164.397 534.051C164.009 534.468 163.439 534.525 163.119 534.182C162.8 533.838 162.853 533.224 163.24 532.806L168.267 527.394L169.424 528.638L164.397 534.051Z" fill="#38CCF0"/>
<path d="M187.871 534.178C187.552 534.522 186.981 534.465 186.593 534.047L181.248 528.291L182.403 527.047L187.749 532.803C188.137 533.22 188.191 533.835 187.871 534.178Z" fill="#38CCF0"/>
<path d="M164.397 507.662L169.424 513.074L168.267 514.319L163.24 508.907C162.853 508.489 162.8 507.875 163.119 507.531C163.439 507.187 164.009 507.244 164.397 507.662Z" fill="#38CCF0"/>
<path d="M726 726C718.268 726 712 719.732 712 712C712 704.268 718.268 698 726 698C733.732 698 740 704.268 740 712C740 719.732 733.732 726 726 726Z" fill="url(#paint72_linear_248_53890)"/>
<path d="M725.09 698C721.476 698 718.203 699.566 715.832 702.101C713.465 704.635 712 708.135 712 712H726V698.036C725.699 698.014 725.396 698.002 725.09 698.002V698Z" fill="#37A9E6" fill-opacity="0.7"/>
<path d="M703.5 738C699.358 738 696 734.642 696 730.5C696 726.358 699.358 723 703.5 723C707.642 723 711 726.358 711 730.5C711 734.642 707.642 738 703.5 738Z" fill="url(#paint73_linear_248_53890)"/>
<path d="M743.311 148.073V156.274H741.674V148.073C741.674 147.479 742.04 147 742.489 147C742.938 147 743.303 147.479 743.303 148.073H743.311Z" fill="#38CCF0"/>
<path d="M743.31 183.927C743.31 184.521 742.944 185 742.496 185C742.047 185 741.682 184.521 741.682 183.927V176.221H743.317V183.927H743.31Z" fill="#38CCF0"/>
<path d="M760 166.001C760 166.488 759.558 166.884 759.011 166.884H751.451V165.11H759.011C759.558 165.11 760 165.506 760 165.993V166.001Z" fill="#38CCF0"/>
<path d="M725.976 165.11H733.08V166.884H725.976C725.429 166.884 724.988 166.488 724.988 166.001C724.988 165.515 725.429 165.118 725.976 165.118V165.11Z" fill="#38CCF0"/>
<path d="M754.749 153.96L749.402 159.761L748.246 158.506L753.592 152.706C753.98 152.285 754.551 152.227 754.871 152.574C755.19 152.92 755.137 153.539 754.749 153.96Z" fill="#38CCF0"/>
<path d="M731.392 179.298C731.004 179.718 730.434 179.776 730.115 179.43C729.795 179.083 729.848 178.464 730.236 178.043L735.263 172.589L736.42 173.843L731.392 179.298Z" fill="#38CCF0"/>
<path d="M754.871 179.427C754.551 179.773 753.98 179.716 753.592 179.295L748.246 173.494L749.402 172.24L754.749 178.04C755.137 178.461 755.19 179.08 754.871 179.427Z" fill="#38CCF0"/>
<path d="M731.392 152.706L736.42 158.16L735.264 159.414L730.236 153.96C729.848 153.539 729.795 152.92 730.115 152.574C730.434 152.227 731.004 152.285 731.392 152.706Z" fill="#38CCF0"/>
<path d="M709.993 158.085C708.337 158.085 706.994 156.731 706.994 155.062C706.994 153.392 708.337 152.039 709.993 152.039C711.65 152.039 712.992 153.392 712.992 155.062C712.992 156.731 711.65 158.085 709.993 158.085Z" fill="url(#paint74_linear_248_53890)"/>
<path d="M700.497 176.224C696.356 176.224 693 172.84 693 168.666C693 164.492 696.356 161.108 700.497 161.108C704.637 161.108 707.994 164.492 707.994 168.666C707.994 172.84 704.637 176.224 700.497 176.224Z" fill="url(#paint75_linear_248_53890)"/>
<defs>
<filter id="filter0_n_248_53890" x="0" y="0" width="910" height="788" filterUnits="userSpaceOnUse" color-interpolation-filters="sRGB">
<feFlood flood-opacity="0" result="BackgroundImageFix"/>
<feBlend mode="normal" in="SourceGraphic" in2="BackgroundImageFix" result="shape"/>
<feTurbulence type="fractalNoise" baseFrequency="1 1" stitchTiles="stitch" numOctaves="3" result="noise" seed="7531" />
<feColorMatrix in="noise" type="luminanceToAlpha" result="alphaNoise" />
<feComponentTransfer in="alphaNoise" result="coloredNoise1">
<feFuncA type="discrete" tableValues="1 1 1 1 1 1 1 1 1 1 1 1 1 1 1 1 1 1 1 1 1 1 1 1 1 1 1 1 1 1 1 1 1 1 1 1 1 1 1 1 1 1 1 1 1 1 1 1 1 1 1 0 0 0 0 0 0 0 0 0 0 0 0 0 0 0 0 0 0 0 0 0 0 0 0 0 0 0 0 0 0 0 0 0 0 0 0 0 0 0 0 0 0 0 0 0 0 0 0 0 "/>
</feComponentTransfer>
<feComposite operator="in" in2="shape" in="coloredNoise1" result="noise1Clipped" />
<feFlood flood-color="#DEECFC" result="color1Flood" />
<feComposite operator="in" in2="noise1Clipped" in="color1Flood" result="color1" />
<feMerge result="effect1_noise_248_53890">
<feMergeNode in="shape" />
<feMergeNode in="color1" />
</feMerge>
</filter>
<filter id="filter1_n_248_53890" x="189.997" y="228.729" width="632.245" height="368.832" filterUnits="userSpaceOnUse" color-interpolation-filters="sRGB">
<feFlood flood-opacity="0" result="BackgroundImageFix"/>
<feBlend mode="normal" in="SourceGraphic" in2="BackgroundImageFix" result="shape"/>
<feTurbulence type="fractalNoise" baseFrequency="0.5 0.5" stitchTiles="stitch" numOctaves="3" result="noise" seed="5782" />
<feColorMatrix in="noise" type="luminanceToAlpha" result="alphaNoise" />
<feComponentTransfer in="alphaNoise" result="coloredNoise1">
<feFuncA type="discrete" tableValues="1 1 1 1 1 1 1 1 1 1 1 1 1 1 1 1 1 1 1 1 1 1 1 1 1 1 1 1 1 1 1 1 1 1 1 1 1 1 1 1 1 1 1 1 1 1 1 1 1 1 1 0 0 0 0 0 0 0 0 0 0 0 0 0 0 0 0 0 0 0 0 0 0 0 0 0 0 0 0 0 0 0 0 0 0 0 0 0 0 0 0 0 0 0 0 0 0 0 0 0 "/>
</feComponentTransfer>
<feComposite operator="in" in2="shape" in="coloredNoise1" result="noise1Clipped" />
<feFlood flood-color="rgba(176, 210, 249, 0.5)" result="color1Flood" />
<feComposite operator="in" in2="noise1Clipped" in="color1Flood" result="color1" />
<feMerge result="effect1_noise_248_53890">
<feMergeNode in="shape" />
<feMergeNode in="color1" />
</feMerge>
</filter>
<linearGradient id="paint0_linear_248_53890" x1="455" y1="0" x2="455" y2="788" gradientUnits="userSpaceOnUse">
<stop stop-color="#F8FCFF"/>
<stop offset="1" stop-color="#EBF4FA"/>
</linearGradient>
<linearGradient id="paint1_linear_248_53890" x1="506.1" y1="597.561" x2="506.1" y2="228.729" gradientUnits="userSpaceOnUse">
<stop offset="0.0817308" stop-color="#9EC8F4"/>
<stop offset="1" stop-color="#C1EBFF"/>
</linearGradient>
<linearGradient id="paint2_linear_248_53890" x1="536.29" y1="344.22" x2="359.042" y2="344.22" gradientUnits="userSpaceOnUse">
<stop stop-color="white"/>
<stop offset="0.75" stop-color="white"/>
</linearGradient>
<linearGradient id="paint3_linear_248_53890" x1="349.051" y1="323.617" x2="208.611" y2="323.617" gradientUnits="userSpaceOnUse">
<stop stop-color="white"/>
<stop offset="0.75" stop-color="white"/>
</linearGradient>
<linearGradient id="paint4_linear_248_53890" x1="618.32" y1="234.215" x2="553.031" y2="285.873" gradientUnits="userSpaceOnUse">
<stop offset="0.08" stop-color="#69CCB4"/>
<stop offset="1" stop-color="#47AD9E"/>
</linearGradient>
<linearGradient id="paint5_linear_248_53890" x1="519.799" y1="619.778" x2="519.799" y2="551.734" gradientUnits="userSpaceOnUse">
<stop offset="0.21" stop-color="#D8D9DF"/>
<stop offset="0.51" stop-color="#D5D6DC"/>
<stop offset="0.69" stop-color="#CECFD4"/>
<stop offset="0.84" stop-color="#C2C2C5"/>
<stop offset="0.97" stop-color="#B1B1B1"/>
<stop offset="1" stop-color="#ADADAD"/>
</linearGradient>
<linearGradient id="paint6_linear_248_53890" x1="519.797" y1="327.71" x2="519.797" y2="551.733" gradientUnits="userSpaceOnUse">
<stop stop-color="white"/>
<stop offset="0.88" stop-color="white"/>
<stop offset="0.94" stop-color="#FDFDFD"/>
<stop offset="0.96" stop-color="#F7F6F7"/>
<stop offset="0.98" stop-color="#ECEAED"/>
<stop offset="0.99" stop-color="#DDD9DE"/>
<stop offset="1" stop-color="#D7D2D8"/>
</linearGradient>
<linearGradient id="paint7_linear_248_53890" x1="519.799" y1="351.412" x2="519.799" y2="542.751" gradientUnits="userSpaceOnUse">
<stop offset="0.89" stop-color="#EEE8EE"/>
<stop offset="0.94" stop-color="#ECE6EC"/>
<stop offset="0.96" stop-color="#E5E1E6"/>
<stop offset="0.98" stop-color="#D9D7DB"/>
<stop offset="0.99" stop-color="#C8CACD"/>
<stop offset="1" stop-color="#BBBFC1"/>
</linearGradient>
<linearGradient id="paint8_linear_248_53890" x1="519.796" y1="612.059" x2="519.796" y2="628.469" gradientUnits="userSpaceOnUse">
<stop offset="0.21" stop-color="#EEE8EE"/>
<stop offset="0.61" stop-color="#ECE6EC"/>
<stop offset="0.76" stop-color="#E5E1E6"/>
<stop offset="0.86" stop-color="#D9D7DB"/>
<stop offset="0.95" stop-color="#C8CACD"/>
<stop offset="1" stop-color="#BBBFC1"/>
</linearGradient>
<linearGradient id="paint9_linear_248_53890" x1="370.295" y1="611.078" x2="370.295" y2="616.813" gradientUnits="userSpaceOnUse">
<stop offset="0.3" stop-color="#F3F0F4"/>
<stop offset="0.55" stop-color="#DDDDE0"/>
<stop offset="1" stop-color="#BBBFC1"/>
</linearGradient>
<linearGradient id="paint10_linear_248_53890" x1="393.296" y1="611.078" x2="393.296" y2="616.813" gradientUnits="userSpaceOnUse">
<stop offset="0.3" stop-color="#F3F0F4"/>
<stop offset="0.55" stop-color="#DDDDE0"/>
<stop offset="1" stop-color="#BBBFC1"/>
</linearGradient>
<linearGradient id="paint11_linear_248_53890" x1="416.293" y1="611.078" x2="416.293" y2="616.813" gradientUnits="userSpaceOnUse">
<stop offset="0.3" stop-color="#F3F0F4"/>
<stop offset="0.55" stop-color="#DDDDE0"/>
<stop offset="1" stop-color="#BBBFC1"/>
</linearGradient>
<linearGradient id="paint12_linear_248_53890" x1="439.297" y1="611.078" x2="439.297" y2="616.813" gradientUnits="userSpaceOnUse">
<stop offset="0.3" stop-color="#F3F0F4"/>
<stop offset="0.55" stop-color="#DDDDE0"/>
<stop offset="1" stop-color="#BBBFC1"/>
</linearGradient>
<linearGradient id="paint13_linear_248_53890" x1="462.298" y1="611.078" x2="462.298" y2="616.813" gradientUnits="userSpaceOnUse">
<stop offset="0.3" stop-color="#F3F0F4"/>
<stop offset="0.55" stop-color="#DDDDE0"/>
<stop offset="1" stop-color="#BBBFC1"/>
</linearGradient>
<linearGradient id="paint14_linear_248_53890" x1="485.299" y1="611.078" x2="485.299" y2="616.813" gradientUnits="userSpaceOnUse">
<stop offset="0.3" stop-color="#F3F0F4"/>
<stop offset="0.55" stop-color="#DDDDE0"/>
<stop offset="1" stop-color="#BBBFC1"/>
</linearGradient>
<linearGradient id="paint15_linear_248_53890" x1="508.3" y1="611.078" x2="508.3" y2="616.813" gradientUnits="userSpaceOnUse">
<stop offset="0.3" stop-color="#F3F0F4"/>
<stop offset="0.55" stop-color="#DDDDE0"/>
<stop offset="1" stop-color="#BBBFC1"/>
</linearGradient>
<linearGradient id="paint16_linear_248_53890" x1="531.305" y1="611.078" x2="531.305" y2="616.813" gradientUnits="userSpaceOnUse">
<stop offset="0.3" stop-color="#F3F0F4"/>
<stop offset="0.55" stop-color="#DDDDE0"/>
<stop offset="1" stop-color="#BBBFC1"/>
</linearGradient>
<linearGradient id="paint17_linear_248_53890" x1="554.298" y1="611.078" x2="554.298" y2="616.813" gradientUnits="userSpaceOnUse">
<stop offset="0.3" stop-color="#F3F0F4"/>
<stop offset="0.55" stop-color="#DDDDE0"/>
<stop offset="1" stop-color="#BBBFC1"/>
</linearGradient>
<linearGradient id="paint18_linear_248_53890" x1="577.298" y1="611.078" x2="577.298" y2="616.813" gradientUnits="userSpaceOnUse">
<stop offset="0.3" stop-color="#F3F0F4"/>
<stop offset="0.55" stop-color="#DDDDE0"/>
<stop offset="1" stop-color="#BBBFC1"/>
</linearGradient>
<linearGradient id="paint19_linear_248_53890" x1="600.299" y1="611.078" x2="600.299" y2="616.813" gradientUnits="userSpaceOnUse">
<stop offset="0.3" stop-color="#F3F0F4"/>
<stop offset="0.55" stop-color="#DDDDE0"/>
<stop offset="1" stop-color="#BBBFC1"/>
</linearGradient>
<linearGradient id="paint20_linear_248_53890" x1="623.301" y1="611.078" x2="623.301" y2="616.813" gradientUnits="userSpaceOnUse">
<stop offset="0.3" stop-color="#F3F0F4"/>
<stop offset="0.55" stop-color="#DDDDE0"/>
<stop offset="1" stop-color="#BBBFC1"/>
</linearGradient>
<linearGradient id="paint21_linear_248_53890" x1="646.301" y1="611.078" x2="646.301" y2="616.813" gradientUnits="userSpaceOnUse">
<stop offset="0.3" stop-color="#F3F0F4"/>
<stop offset="0.55" stop-color="#DDDDE0"/>
<stop offset="1" stop-color="#BBBFC1"/>
</linearGradient>
<linearGradient id="paint22_linear_248_53890" x1="669.301" y1="611.078" x2="669.301" y2="616.813" gradientUnits="userSpaceOnUse">
<stop offset="0.3" stop-color="#F3F0F4"/>
<stop offset="0.55" stop-color="#DDDDE0"/>
<stop offset="1" stop-color="#BBBFC1"/>
</linearGradient>
<linearGradient id="paint23_linear_248_53890" x1="368.183" y1="614.462" x2="368.183" y2="620.197" gradientUnits="userSpaceOnUse">
<stop offset="0.3" stop-color="#F3F0F4"/>
<stop offset="0.58" stop-color="#DFDEE2"/>
<stop offset="1" stop-color="#BBBFC1"/>
</linearGradient>
<linearGradient id="paint24_linear_248_53890" x1="391.546" y1="614.462" x2="391.546" y2="620.197" gradientUnits="userSpaceOnUse">
<stop offset="0.3" stop-color="#F3F0F4"/>
<stop offset="0.58" stop-color="#DFDEE2"/>
<stop offset="1" stop-color="#BBBFC1"/>
</linearGradient>
<linearGradient id="paint25_linear_248_53890" x1="414.912" y1="614.462" x2="414.912" y2="620.197" gradientUnits="userSpaceOnUse">
<stop offset="0.3" stop-color="#F3F0F4"/>
<stop offset="0.58" stop-color="#DFDEE2"/>
<stop offset="1" stop-color="#BBBFC1"/>
</linearGradient>
<linearGradient id="paint26_linear_248_53890" x1="438.283" y1="614.462" x2="438.283" y2="620.197" gradientUnits="userSpaceOnUse">
<stop offset="0.3" stop-color="#F3F0F4"/>
<stop offset="0.58" stop-color="#DFDEE2"/>
<stop offset="1" stop-color="#BBBFC1"/>
</linearGradient>
<linearGradient id="paint27_linear_248_53890" x1="461.646" y1="614.462" x2="461.646" y2="620.197" gradientUnits="userSpaceOnUse">
<stop offset="0.3" stop-color="#F3F0F4"/>
<stop offset="0.58" stop-color="#DFDEE2"/>
<stop offset="1" stop-color="#BBBFC1"/>
</linearGradient>
<linearGradient id="paint28_linear_248_53890" x1="485.012" y1="614.462" x2="485.012" y2="620.197" gradientUnits="userSpaceOnUse">
<stop offset="0.3" stop-color="#F3F0F4"/>
<stop offset="0.58" stop-color="#DFDEE2"/>
<stop offset="1" stop-color="#BBBFC1"/>
</linearGradient>
<linearGradient id="paint29_linear_248_53890" x1="508.375" y1="614.462" x2="508.375" y2="620.197" gradientUnits="userSpaceOnUse">
<stop offset="0.3" stop-color="#F3F0F4"/>
<stop offset="0.58" stop-color="#DFDEE2"/>
<stop offset="1" stop-color="#BBBFC1"/>
</linearGradient>
<linearGradient id="paint30_linear_248_53890" x1="531.746" y1="614.462" x2="531.746" y2="620.197" gradientUnits="userSpaceOnUse">
<stop offset="0.3" stop-color="#F3F0F4"/>
<stop offset="0.58" stop-color="#DFDEE2"/>
<stop offset="1" stop-color="#BBBFC1"/>
</linearGradient>
<linearGradient id="paint31_linear_248_53890" x1="555.109" y1="614.462" x2="555.109" y2="620.197" gradientUnits="userSpaceOnUse">
<stop offset="0.3" stop-color="#F3F0F4"/>
<stop offset="0.58" stop-color="#DFDEE2"/>
<stop offset="1" stop-color="#BBBFC1"/>
</linearGradient>
<linearGradient id="paint32_linear_248_53890" x1="578.475" y1="614.462" x2="578.475" y2="620.197" gradientUnits="userSpaceOnUse">
<stop offset="0.3" stop-color="#F3F0F4"/>
<stop offset="0.58" stop-color="#DFDEE2"/>
<stop offset="1" stop-color="#BBBFC1"/>
</linearGradient>
<linearGradient id="paint33_linear_248_53890" x1="601.837" y1="614.462" x2="601.837" y2="620.197" gradientUnits="userSpaceOnUse">
<stop offset="0.3" stop-color="#F3F0F4"/>
<stop offset="0.58" stop-color="#DFDEE2"/>
<stop offset="1" stop-color="#BBBFC1"/>
</linearGradient>
<linearGradient id="paint34_linear_248_53890" x1="625.204" y1="614.462" x2="625.204" y2="620.197" gradientUnits="userSpaceOnUse">
<stop offset="0.3" stop-color="#F3F0F4"/>
<stop offset="0.58" stop-color="#DFDEE2"/>
<stop offset="1" stop-color="#BBBFC1"/>
</linearGradient>
<linearGradient id="paint35_linear_248_53890" x1="648.575" y1="614.462" x2="648.575" y2="620.197" gradientUnits="userSpaceOnUse">
<stop offset="0.3" stop-color="#F3F0F4"/>
<stop offset="0.58" stop-color="#DFDEE2"/>
<stop offset="1" stop-color="#BBBFC1"/>
</linearGradient>
<linearGradient id="paint36_linear_248_53890" x1="671.939" y1="614.462" x2="671.939" y2="620.197" gradientUnits="userSpaceOnUse">
<stop offset="0.3" stop-color="#F3F0F4"/>
<stop offset="0.58" stop-color="#DFDEE2"/>
<stop offset="1" stop-color="#BBBFC1"/>
</linearGradient>
<linearGradient id="paint37_linear_248_53890" x1="366.729" y1="618.354" x2="366.729" y2="624.089" gradientUnits="userSpaceOnUse">
<stop offset="0.3" stop-color="#F3F0F4"/>
<stop offset="0.65" stop-color="#F1EEF2"/>
<stop offset="0.78" stop-color="#EAE8EC"/>
<stop offset="0.87" stop-color="#DEDEE1"/>
<stop offset="0.94" stop-color="#CDCFD2"/>
<stop offset="1" stop-color="#BBBFC1"/>
</linearGradient>
<linearGradient id="paint38_linear_248_53890" x1="390.368" y1="618.354" x2="390.368" y2="624.089" gradientUnits="userSpaceOnUse">
<stop offset="0.3" stop-color="#F3F0F4"/>
<stop offset="0.65" stop-color="#F1EEF2"/>
<stop offset="0.78" stop-color="#EAE8EC"/>
<stop offset="0.87" stop-color="#DEDEE1"/>
<stop offset="0.94" stop-color="#CDCFD2"/>
<stop offset="1" stop-color="#BBBFC1"/>
</linearGradient>
<linearGradient id="paint39_linear_248_53890" x1="414" y1="618.354" x2="414" y2="624.089" gradientUnits="userSpaceOnUse">
<stop offset="0.3" stop-color="#F3F0F4"/>
<stop offset="0.65" stop-color="#F1EEF2"/>
<stop offset="0.78" stop-color="#EAE8EC"/>
<stop offset="0.87" stop-color="#DEDEE1"/>
<stop offset="0.94" stop-color="#CDCFD2"/>
<stop offset="1" stop-color="#BBBFC1"/>
</linearGradient>
<linearGradient id="paint40_linear_248_53890" x1="437.632" y1="618.354" x2="437.632" y2="624.089" gradientUnits="userSpaceOnUse">
<stop offset="0.3" stop-color="#F3F0F4"/>
<stop offset="0.65" stop-color="#F1EEF2"/>
<stop offset="0.78" stop-color="#EAE8EC"/>
<stop offset="0.87" stop-color="#DEDEE1"/>
<stop offset="0.94" stop-color="#CDCFD2"/>
<stop offset="1" stop-color="#BBBFC1"/>
</linearGradient>
<linearGradient id="paint41_linear_248_53890" x1="520.327" y1="618.354" x2="520.327" y2="624.089" gradientUnits="userSpaceOnUse">
<stop offset="0.3" stop-color="#F3F0F4"/>
<stop offset="0.65" stop-color="#F1EEF2"/>
<stop offset="0.78" stop-color="#EAE8EC"/>
<stop offset="0.87" stop-color="#DEDEE1"/>
<stop offset="0.94" stop-color="#CDCFD2"/>
<stop offset="1" stop-color="#BBBFC1"/>
</linearGradient>
<linearGradient id="paint42_linear_248_53890" x1="603.079" y1="618.354" x2="603.079" y2="624.089" gradientUnits="userSpaceOnUse">
<stop offset="0.3" stop-color="#F3F0F4"/>
<stop offset="0.65" stop-color="#F1EEF2"/>
<stop offset="0.78" stop-color="#EAE8EC"/>
<stop offset="0.87" stop-color="#DEDEE1"/>
<stop offset="0.94" stop-color="#CDCFD2"/>
<stop offset="1" stop-color="#BBBFC1"/>
</linearGradient>
<linearGradient id="paint43_linear_248_53890" x1="626.723" y1="618.354" x2="626.723" y2="624.089" gradientUnits="userSpaceOnUse">
<stop offset="0.3" stop-color="#F3F0F4"/>
<stop offset="0.65" stop-color="#F1EEF2"/>
<stop offset="0.78" stop-color="#EAE8EC"/>
<stop offset="0.87" stop-color="#DEDEE1"/>
<stop offset="0.94" stop-color="#CDCFD2"/>
<stop offset="1" stop-color="#BBBFC1"/>
</linearGradient>
<linearGradient id="paint44_linear_248_53890" x1="650.354" y1="618.354" x2="650.354" y2="624.089" gradientUnits="userSpaceOnUse">
<stop offset="0.3" stop-color="#F3F0F4"/>
<stop offset="0.65" stop-color="#F1EEF2"/>
<stop offset="0.78" stop-color="#EAE8EC"/>
<stop offset="0.87" stop-color="#DEDEE1"/>
<stop offset="0.94" stop-color="#CDCFD2"/>
<stop offset="1" stop-color="#BBBFC1"/>
</linearGradient>
<linearGradient id="paint45_linear_248_53890" x1="673.989" y1="618.354" x2="673.989" y2="624.089" gradientUnits="userSpaceOnUse">
<stop offset="0.3" stop-color="#F3F0F4"/>
<stop offset="0.65" stop-color="#F1EEF2"/>
<stop offset="0.78" stop-color="#EAE8EC"/>
<stop offset="0.87" stop-color="#DEDEE1"/>
<stop offset="0.94" stop-color="#CDCFD2"/>
<stop offset="1" stop-color="#BBBFC1"/>
</linearGradient>
<linearGradient id="paint46_linear_248_53890" x1="646.17" y1="442.266" x2="675.553" y2="442.266" gradientUnits="userSpaceOnUse">
<stop stop-color="#E38735"/>
<stop offset="1" stop-color="#EB9E44"/>
</linearGradient>
<linearGradient id="paint47_linear_248_53890" x1="517.691" y1="507.994" x2="517.691" y2="383.436" gradientUnits="userSpaceOnUse">
<stop offset="0.28" stop-color="white"/>
<stop offset="1" stop-color="#E15CA7"/>
</linearGradient>
<linearGradient id="paint48_linear_248_53890" x1="358.953" y1="307.678" x2="358.953" y2="296.861" gradientUnits="userSpaceOnUse">
<stop stop-color="#3036BC"/>
<stop offset="1" stop-color="#3D52E1"/>
</linearGradient>
<linearGradient id="paint49_linear_248_53890" x1="371.842" y1="307.677" x2="371.842" y2="292.595" gradientUnits="userSpaceOnUse">
<stop stop-color="#3036BC"/>
<stop offset="1" stop-color="#3D52E1"/>
</linearGradient>
<linearGradient id="paint50_linear_248_53890" x1="397.616" y1="307.677" x2="397.616" y2="292.595" gradientUnits="userSpaceOnUse">
<stop stop-color="#3036BC"/>
<stop offset="1" stop-color="#3D52E1"/>
</linearGradient>
<linearGradient id="paint51_linear_248_53890" x1="410.505" y1="307.677" x2="410.505" y2="287.801" gradientUnits="userSpaceOnUse">
<stop stop-color="#3036BC"/>
<stop offset="1" stop-color="#3D52E1"/>
</linearGradient>
<linearGradient id="paint52_linear_248_53890" x1="423.394" y1="307.677" x2="423.394" y2="279.163" gradientUnits="userSpaceOnUse">
<stop stop-color="#E38735"/>
<stop offset="1" stop-color="#EB9E44"/>
</linearGradient>
<linearGradient id="paint53_linear_248_53890" x1="384.728" y1="307.676" x2="384.728" y2="284.524" gradientUnits="userSpaceOnUse">
<stop stop-color="#3036BC"/>
<stop offset="1" stop-color="#3D52E1"/>
</linearGradient>
<linearGradient id="paint54_linear_248_53890" x1="683.959" y1="498.21" x2="713.115" y2="498.21" gradientUnits="userSpaceOnUse">
<stop stop-color="#3036BC"/>
<stop offset="1" stop-color="#3D52E1"/>
</linearGradient>
<linearGradient id="paint55_linear_248_53890" x1="699.797" y1="488.879" x2="714.373" y2="488.879" gradientUnits="userSpaceOnUse">
<stop stop-color="#E38735"/>
<stop offset="1" stop-color="#EB9E44"/>
</linearGradient>
<linearGradient id="paint56_linear_248_53890" x1="369.057" y1="316.171" x2="304.75" y2="316.171" gradientUnits="userSpaceOnUse">
<stop stop-color="#E3D535"/>
<stop offset="1" stop-color="#F2A72F"/>
</linearGradient>
<linearGradient id="paint57_linear_248_53890" x1="318.395" y1="637.711" x2="318.395" y2="455.95" gradientUnits="userSpaceOnUse">
<stop offset="0.21" stop-color="#303EBC"/>
<stop offset="1" stop-color="#365FC8"/>
</linearGradient>
<linearGradient id="paint58_linear_248_53890" x1="291.343" y1="634.348" x2="291.343" y2="450.306" gradientUnits="userSpaceOnUse">
<stop offset="0.21" stop-color="#3036BC"/>
<stop offset="1" stop-color="#3D52E1"/>
</linearGradient>
<linearGradient id="paint59_linear_248_53890" x1="336.678" y1="363.284" x2="222.082" y2="363.284" gradientUnits="userSpaceOnUse">
<stop stop-color="#E3D535"/>
<stop offset="1" stop-color="#F2A72F"/>
</linearGradient>
<linearGradient id="paint60_linear_248_53890" x1="704.12" y1="632.82" x2="749.691" y2="632.82" gradientUnits="userSpaceOnUse">
<stop offset="0.21" stop-color="#717170"/>
<stop offset="1" stop-color="#848484"/>
</linearGradient>
<linearGradient id="paint61_linear_248_53890" x1="760.016" y1="632.383" x2="805.324" y2="632.383" gradientUnits="userSpaceOnUse">
<stop offset="0.21" stop-color="#888884"/>
<stop offset="1" stop-color="#6E6E6D"/>
</linearGradient>
<linearGradient id="paint62_linear_248_53890" x1="742.055" y1="621.588" x2="742.055" y2="425.136" gradientUnits="userSpaceOnUse">
<stop offset="0.0817308" stop-color="#6784A2"/>
<stop offset="1" stop-color="#62767F"/>
</linearGradient>
<linearGradient id="paint63_linear_248_53890" x1="769.515" y1="619.033" x2="769.515" y2="422.69" gradientUnits="userSpaceOnUse">
<stop offset="0.0817308" stop-color="#6784A2"/>
<stop offset="1" stop-color="#62767F"/>
</linearGradient>
<linearGradient id="paint64_linear_248_53890" x1="752.741" y1="434.63" x2="752.741" y2="313.607" gradientUnits="userSpaceOnUse">
<stop stop-color="#C9316F"/>
<stop offset="0.67" stop-color="#E15CA7"/>
</linearGradient>
<linearGradient id="paint65_linear_248_53890" x1="733.746" y1="387.915" x2="733.052" y2="384.525" gradientUnits="userSpaceOnUse">
<stop offset="0.0817308" stop-color="#4C99EB"/>
<stop offset="1" stop-color="#56BDED"/>
</linearGradient>
<linearGradient id="paint66_linear_248_53890" x1="704.016" y1="398.264" x2="704.016" y2="336.113" gradientUnits="userSpaceOnUse">
<stop offset="0.0817308" stop-color="#4C99EB"/>
<stop offset="1" stop-color="#56BDED"/>
</linearGradient>
<linearGradient id="paint67_linear_248_53890" x1="788.435" y1="354.99" x2="788.435" y2="314.509" gradientUnits="userSpaceOnUse">
<stop stop-color="#C9316F"/>
<stop offset="1" stop-color="#E15CA7"/>
</linearGradient>
<linearGradient id="paint68_linear_248_53890" x1="55.9981" y1="152.27" x2="55.9981" y2="142.193" gradientUnits="userSpaceOnUse">
<stop offset="0.0817308" stop-color="#4C99EB"/>
<stop offset="1" stop-color="#56BDED"/>
</linearGradient>
<linearGradient id="paint69_linear_248_53890" x1="408" y1="185" x2="408" y2="193" gradientUnits="userSpaceOnUse">
<stop stop-color="#80D1E5"/>
<stop offset="1" stop-color="#24A3C2"/>
</linearGradient>
<linearGradient id="paint70_linear_248_53890" x1="415.001" y1="219" x2="415.001" y2="199" gradientUnits="userSpaceOnUse">
<stop offset="0.0817308" stop-color="#4C99EB"/>
<stop offset="1" stop-color="#56BDED"/>
</linearGradient>
<linearGradient id="paint71_linear_248_53890" x1="155.995" y1="565" x2="155.995" y2="545" gradientUnits="userSpaceOnUse">
<stop offset="0.0817308" stop-color="#4C99EB"/>
<stop offset="1" stop-color="#56BDED"/>
</linearGradient>
<linearGradient id="paint72_linear_248_53890" x1="726.001" y1="726" x2="726.001" y2="698" gradientUnits="userSpaceOnUse">
<stop offset="0.0817308" stop-color="#4C99EB"/>
<stop offset="1" stop-color="#56BDED"/>
</linearGradient>
<linearGradient id="paint73_linear_248_53890" x1="703.5" y1="723" x2="703.5" y2="738" gradientUnits="userSpaceOnUse">
<stop stop-color="#80D1E5"/>
<stop offset="1" stop-color="#24A3C2"/>
</linearGradient>
<linearGradient id="paint74_linear_248_53890" x1="709.994" y1="158.085" x2="709.994" y2="152.039" gradientUnits="userSpaceOnUse">
<stop offset="0.0817308" stop-color="#4C99EB"/>
<stop offset="1" stop-color="#56BDED"/>
</linearGradient>
<linearGradient id="paint75_linear_248_53890" x1="700.497" y1="161.108" x2="700.497" y2="176.224" gradientUnits="userSpaceOnUse">
<stop stop-color="#80D1E5"/>
<stop offset="1" stop-color="#24A3C2"/>
</linearGradient>
</defs>
</svg>
