<svg width="355" height="284" viewBox="0 0 355 284" fill="none" xmlns="http://www.w3.org/2000/svg">
<g filter="url(#filter0_n_248_55763)">
<path d="M8.54004 72.6579L70.6898 9.03646C76.3347 3.25786 84.0715 0 92.1497 0H325C341.569 0 355 13.4315 355 30V254C355 270.569 341.569 284 325 284H92.0516C84.0313 284 76.3449 280.789 70.7086 275.083L8.65695 212.264C3.11035 206.649 0 199.074 0 191.182V93.6214C0 85.7865 3.06512 78.2624 8.54004 72.6579Z" fill="url(#paint0_linear_248_55763)"/>
</g>
<g filter="url(#filter1_n_248_55763)">
<path d="M101.786 217.229C87.8185 197.895 76.8055 176.437 69.2459 153.825C63.9648 138.032 60.6495 119.675 69.4233 105.514C76.2472 94.5025 89.1824 88.5059 102.019 86.6493C114.855 84.7927 127.899 86.4707 140.83 87.4854C153.761 88.5001 167.123 88.7919 179.306 84.3499C188.022 81.1724 195.7 75.7259 204.018 71.6208C212.335 67.5156 221.975 64.743 230.859 67.4125C241.381 70.5741 248.408 80.6861 251.933 91.0767C255.458 101.467 256.307 112.572 259.235 123.146C262.164 133.719 267.819 144.364 277.651 149.26C285.923 153.38 295.921 152.828 304.206 156.92C313.777 161.648 319.554 171.995 321.463 182.483C323.372 192.971 321.984 206.658 320.592 217.227H101.786V217.229Z" fill="url(#paint1_linear_248_55763)"/>
</g>
<path d="M330.43 215.994H87.5119C87.0501 215.994 86.6758 216.368 86.6758 216.829C86.6758 217.29 87.0501 217.663 87.5119 217.663H330.43C330.892 217.663 331.266 217.29 331.266 216.829C331.266 216.368 330.892 215.994 330.43 215.994Z" fill="#1D28A8"/>
<path d="M320.772 192.456C320.772 192.456 323.602 188.82 324.239 186.246C324.877 183.673 324.096 181.257 322.421 181.391C320.746 181.523 318.428 185.214 320.771 192.458L320.772 192.456Z" fill="#69CCB4"/>
<path d="M316.537 198.459C316.537 198.459 318.808 193.56 318.517 190.595C318.225 187.629 317.502 185.685 315.366 185.743C313.23 185.801 311.068 188.319 316.537 198.459Z" fill="#69CCB4"/>
<path d="M311.679 204.98C311.679 204.98 313.081 199.766 312.289 196.893C311.495 194.021 310.451 192.228 308.357 192.649C306.261 193.07 304.56 195.916 311.679 204.979V204.98Z" fill="#69CCB4"/>
<path d="M310.181 211.563C310.181 211.563 314.77 207.239 319.261 205.81C323.753 204.382 324.755 206.59 324.702 208.332C324.65 210.072 320.211 212.033 310.181 211.563Z" fill="#69CCB4"/>
<path d="M325.079 198.163C326.142 198.042 327.386 198.092 328.048 198.929C328.728 199.79 328.414 201.134 327.632 201.905C326.85 202.676 325.739 203 324.663 203.226C323.248 203.524 315.32 204.823 315.722 202.551C315.965 201.176 318.55 200.17 319.636 199.677C321.356 198.893 323.2 198.375 325.08 198.163H325.079Z" fill="#69CCB4"/>
<path d="M327.882 180.278C328.413 179.29 329.042 178.305 329.987 177.696C330.931 177.087 332.263 176.951 333.146 177.645C334.149 178.435 334.21 180.007 333.633 181.145C333.054 182.283 331.997 183.088 330.975 183.853C329.439 185.003 327.209 187.41 325.414 187.839C325.029 185.687 326.829 182.125 327.885 180.278H327.882Z" fill="#69CCB4"/>
<path d="M325.972 189.552C326.914 188.94 327.939 188.379 329.06 188.298C330.182 188.217 331.415 188.736 331.854 189.769C332.354 190.943 331.652 192.351 330.596 193.071C329.54 193.791 328.226 193.991 326.961 194.171C325.06 194.443 321.946 195.484 320.166 194.999C320.865 192.926 324.157 190.666 325.972 189.552Z" fill="#69CCB4"/>
<path d="M306.919 216.439C306.896 216.378 306.896 216.309 306.924 216.245C313.221 201.099 328.012 184.092 328.16 183.922C328.256 183.812 328.425 183.8 328.535 183.896C328.646 183.993 328.657 184.16 328.561 184.27C328.413 184.44 313.679 201.383 307.415 216.448C307.358 216.583 307.203 216.647 307.068 216.592C306.996 216.563 306.945 216.506 306.921 216.439H306.919Z" fill="#1D28A8"/>
<path d="M319.783 194.738C319.778 194.725 319.774 194.712 319.771 194.697C319.742 194.554 319.835 194.414 319.979 194.384C320.011 194.376 323.258 193.706 326.351 192.007C326.478 191.936 326.641 191.984 326.711 192.112C326.777 192.238 326.734 192.401 326.606 192.472C323.44 194.211 320.117 194.896 320.085 194.903C319.956 194.929 319.828 194.857 319.784 194.736L319.783 194.738Z" fill="#1D28A8"/>
<path d="M318.904 195.956C318.877 195.881 318.883 195.794 318.929 195.721C318.96 195.675 321.945 190.924 321.65 185.654C321.641 185.508 321.753 185.383 321.9 185.374C322.047 185.365 322.172 185.477 322.18 185.624C322.486 191.067 319.503 195.807 319.377 196.006C319.298 196.129 319.134 196.165 319.01 196.087C318.96 196.055 318.925 196.009 318.904 195.956Z" fill="#1D28A8"/>
<path d="M313.901 203.362C313.85 203.224 313.92 203.071 314.058 203.021C314.102 203.005 318.518 201.387 321.67 200.948C321.816 200.927 321.948 201.029 321.97 201.174C321.99 201.319 321.888 201.453 321.743 201.473C318.646 201.904 314.285 203.501 314.242 203.518C314.105 203.569 313.952 203.5 313.901 203.363V203.362Z" fill="#1D28A8"/>
<path d="M316.026 200.101C316.007 200.05 316.004 199.993 316.019 199.937C316.029 199.9 317.001 196.276 315.63 191.65C315.588 191.509 315.67 191.362 315.811 191.32C315.952 191.278 316.101 191.352 316.141 191.5C317.557 196.279 316.573 199.927 316.53 200.079C316.491 200.22 316.344 200.303 316.203 200.263C316.117 200.24 316.055 200.178 316.026 200.101Z" fill="#1D28A8"/>
<path d="M308.892 212.151C308.844 212.022 308.903 211.876 309.03 211.818C309.262 211.712 314.767 209.203 317.943 208.496C318.086 208.464 318.227 208.559 318.26 208.698C318.292 208.84 318.202 208.983 318.058 209.014C314.937 209.708 309.307 212.275 309.251 212.301C309.117 212.362 308.96 212.304 308.899 212.17C308.896 212.164 308.894 212.159 308.892 212.151Z" fill="#1D28A8"/>
<path d="M311.103 208.02C311.08 207.957 311.08 207.888 311.107 207.822C311.12 207.793 312.323 204.873 310.412 199.766C310.361 199.628 310.431 199.475 310.568 199.425C310.704 199.374 310.859 199.444 310.909 199.58C312.903 204.907 311.65 207.908 311.596 208.033C311.538 208.166 311.382 208.229 311.247 208.171C311.177 208.142 311.128 208.085 311.103 208.02Z" fill="#1D28A8"/>
<path d="M120.158 197.778C120.158 197.778 121.364 194.451 122.777 192.979C124.19 191.509 126.082 191.024 126.684 192.165C127.285 193.306 125.835 196.324 120.158 197.778Z" fill="#69CCB4"/>
<path d="M117.99 202.986C117.99 202.986 120.247 199.5 122.296 198.473C124.346 197.445 125.908 197.115 126.747 198.525C127.586 199.935 126.835 202.37 117.99 202.986Z" fill="#69CCB4"/>
<path d="M115.738 208.816C115.738 208.816 118.556 205.766 120.752 205.101C122.947 204.436 124.543 204.378 125.129 205.91C125.715 207.441 124.56 209.714 115.738 208.816Z" fill="#69CCB4"/>
<path d="M112.07 212.489C112.07 212.489 113.001 207.737 112.086 204.237C111.172 200.737 109.324 200.994 108.211 201.743C107.099 202.492 107.646 206.176 112.07 212.489Z" fill="#69CCB4"/>
<path d="M114.678 197.325C114.32 196.586 113.778 195.8 112.959 195.714C112.119 195.625 111.374 196.382 111.192 197.206C111.012 198.029 111.258 198.884 111.551 199.674C111.938 200.715 114.348 206.389 115.662 205.197C116.457 204.476 116.05 202.385 115.927 201.478C115.73 200.04 115.312 198.632 114.678 197.325Z" fill="#69CCB4"/>
<path d="M125.164 188.16C125.59 187.41 125.972 186.597 125.98 185.735C125.988 184.872 125.53 183.954 124.716 183.666C123.79 183.34 122.741 183.945 122.238 184.787C121.735 185.629 121.645 186.646 121.566 187.623C121.449 189.091 120.799 191.527 121.255 192.866C122.816 192.232 124.395 189.603 125.162 188.16H125.164Z" fill="#69CCB4"/>
<path d="M119.912 193.211C119.924 192.348 119.868 191.453 119.46 190.692C119.053 189.931 118.208 189.345 117.356 189.484C116.386 189.643 115.759 190.676 115.723 191.656C115.687 192.636 116.098 193.571 116.499 194.466C117.103 195.811 117.705 198.258 118.75 199.215C119.813 197.91 119.932 194.847 119.912 193.212V193.211Z" fill="#69CCB4"/>
<path d="M110.234 216.607C110.283 216.597 110.328 216.569 110.359 216.524C117.632 206.221 122.628 189.645 122.679 189.479C122.711 189.372 122.65 189.257 122.542 189.225C122.435 189.193 122.32 189.254 122.288 189.362C122.239 189.527 117.26 206.041 110.026 216.289C109.961 216.381 109.982 216.508 110.075 216.572C110.123 216.606 110.182 216.616 110.235 216.606L110.234 216.607Z" fill="#1D28A8"/>
<path d="M119.078 199.355C119.088 199.352 119.099 199.349 119.109 199.346C119.214 199.306 119.267 199.188 119.227 199.083C119.218 199.06 118.322 196.678 118.158 193.975C118.151 193.864 118.055 193.778 117.941 193.784C117.832 193.792 117.743 193.887 117.749 194C117.918 196.768 118.835 199.204 118.844 199.229C118.881 199.323 118.979 199.375 119.077 199.356L119.078 199.355Z" fill="#1D28A8"/>
<path d="M118.647 200.423C118.708 200.41 118.762 200.371 118.789 200.31C118.808 200.271 120.674 196.384 124.224 194.412C124.323 194.357 124.358 194.234 124.304 194.135C124.249 194.036 124.126 194 124.027 194.055C120.358 196.092 118.498 199.972 118.42 200.136C118.372 200.238 118.416 200.36 118.517 200.407C118.559 200.426 118.603 200.431 118.645 200.422L118.647 200.423Z" fill="#1D28A8"/>
<path d="M115.881 206.708C115.991 206.685 116.061 206.576 116.038 206.466C116.031 206.431 115.27 202.902 114.263 200.677C114.216 200.575 114.097 200.53 113.992 200.575C113.889 200.622 113.844 200.742 113.89 200.845C114.881 203.031 115.632 206.517 115.64 206.551C115.663 206.662 115.77 206.731 115.881 206.708Z" fill="#1D28A8"/>
<path d="M117.131 203.993C117.171 203.985 117.209 203.964 117.24 203.931C117.259 203.909 119.219 201.79 122.793 200.781C122.902 200.751 122.964 200.637 122.934 200.53C122.903 200.421 122.794 200.354 122.682 200.389C118.99 201.431 117.02 203.568 116.939 203.658C116.863 203.741 116.869 203.87 116.953 203.946C117.004 203.991 117.071 204.007 117.132 203.993H117.131Z" fill="#1D28A8"/>
<path d="M112.217 213.567C112.321 213.545 112.392 213.446 112.377 213.34C112.351 213.146 111.724 208.546 110.88 206.196C110.842 206.09 110.723 206.037 110.618 206.072C110.512 206.11 110.457 206.226 110.494 206.333C111.323 208.643 111.964 213.348 111.972 213.396C111.986 213.507 112.089 213.586 112.201 213.571C112.207 213.571 112.212 213.57 112.216 213.568L112.217 213.567Z" fill="#1D28A8"/>
<path d="M113.998 210.436C114.048 210.426 114.094 210.397 114.125 210.352C114.138 210.332 115.545 208.353 119.655 207.495C119.765 207.472 119.836 207.365 119.813 207.254C119.79 207.144 119.682 207.073 119.572 207.096C115.287 207.99 113.849 210.036 113.789 210.121C113.726 210.214 113.75 210.34 113.843 210.404C113.891 210.438 113.947 210.446 114 210.435L113.998 210.436Z" fill="#1D28A8"/>
<path d="M88.6799 187.886C88.6799 187.886 86.0525 183.453 85.7064 180.505C85.3603 177.558 86.5672 174.987 88.408 175.369C90.2489 175.751 92.3005 180.174 88.6814 187.886H88.6799Z" fill="#69CCB4"/>
<path d="M92.532 195.14C92.532 195.14 90.7014 189.383 91.4415 186.131C92.183 182.88 93.259 180.824 95.6219 181.188C97.9847 181.553 100.031 184.65 92.5306 195.14H92.532Z" fill="#69CCB4"/>
<path d="M97.0033 203.064C97.0033 203.064 96.1803 197.079 97.4656 194.002C98.751 190.924 100.163 189.081 102.428 189.843C104.694 190.603 106.183 194.003 97.0018 203.064H97.0033Z" fill="#69CCB4"/>
<path d="M97.7413 210.58C97.7413 210.58 93.2556 205.137 88.4703 202.918C83.685 200.702 82.263 203.013 82.0754 204.954C81.8878 206.893 86.5408 209.695 97.7413 210.58Z" fill="#69CCB4"/>
<path d="M83.092 193.613C81.9287 193.33 80.5416 193.21 79.6881 194.047C78.8113 194.908 78.9712 196.444 79.7302 197.409C80.4892 198.374 81.6787 198.89 82.8404 199.292C84.3701 199.822 92.9868 202.375 92.8618 199.798C92.7862 198.239 90.0569 196.759 88.9227 196.058C87.1226 194.946 85.1509 194.111 83.0934 193.612L83.092 193.613Z" fill="#69CCB4"/>
<path d="M82.4956 173.365C82.0448 172.192 81.485 171.012 80.5224 170.204C79.5599 169.395 78.1014 169.057 77.024 169.704C75.7982 170.44 75.5089 172.176 75.9916 173.521C76.4744 174.865 77.5344 175.908 78.5609 176.901C80.1037 178.394 82.2411 181.378 84.1721 182.107C84.9035 179.77 83.4073 175.564 82.4956 173.365Z" fill="#69CCB4"/>
<path d="M83.3144 183.93C82.3547 183.118 81.2947 182.35 80.0617 182.103C78.8286 181.857 77.3862 182.259 76.7537 183.345C76.0339 184.578 76.6155 186.239 77.6843 187.187C78.7545 188.135 80.1867 188.541 81.5651 188.919C83.6357 189.486 86.9466 191.079 88.9924 190.791C88.5082 188.392 85.1726 185.42 83.3144 183.93Z" fill="#69CCB4"/>
<path d="M100.678 216.452C100.711 216.388 100.721 216.311 100.701 216.236C95.8445 198.537 81.8201 177.581 81.6805 177.372C81.5889 177.235 81.4043 177.199 81.2676 177.29C81.1309 177.382 81.0945 177.566 81.1862 177.703C81.3272 177.912 95.2963 198.79 100.128 216.392C100.172 216.551 100.335 216.643 100.493 216.6C100.576 216.577 100.641 216.521 100.678 216.452Z" fill="#1D28A8"/>
<path d="M89.4512 190.557C89.4585 190.543 89.4643 190.53 89.4701 190.514C89.5225 190.359 89.4396 190.19 89.284 190.138C89.2491 190.126 85.7405 188.926 82.5459 186.605C82.4136 186.509 82.2275 186.538 82.1301 186.67C82.0399 186.801 82.0632 186.988 82.1955 187.085C85.4657 189.46 89.0572 190.688 89.0935 190.7C89.2346 190.748 89.3858 190.684 89.4512 190.557Z" fill="#1D28A8"/>
<path d="M90.2591 192.028C90.3013 191.948 90.3057 191.851 90.265 191.764C90.2388 191.707 87.5924 186.014 88.6626 180.206C88.6917 180.045 88.5855 179.89 88.4241 179.861C88.2627 179.832 88.1071 179.936 88.0781 180.099C86.973 186.1 89.615 191.779 89.7284 192.018C89.7982 192.166 89.9756 192.23 90.1239 192.159C90.1835 192.13 90.2315 192.083 90.2606 192.028H90.2591Z" fill="#1D28A8"/>
<path d="M94.7715 200.954C94.8471 200.808 94.7904 200.629 94.645 200.554C94.5985 200.529 89.9237 198.115 86.4863 197.185C86.3278 197.142 86.1679 197.235 86.1213 197.394C86.0792 197.552 86.1722 197.714 86.3307 197.758C89.707 198.672 94.3251 201.057 94.3702 201.081C94.5156 201.156 94.6944 201.1 94.7701 200.956L94.7715 200.954Z" fill="#1D28A8"/>
<path d="M92.87 197.035C92.8977 196.982 92.9093 196.919 92.9006 196.855C92.8948 196.815 92.3248 192.653 94.4986 187.71C94.564 187.561 94.4957 187.385 94.3459 187.32C94.1961 187.254 94.0187 187.314 93.9548 187.472C91.7083 192.579 92.287 196.765 92.3131 196.941C92.3364 197.103 92.4876 197.215 92.6505 197.192C92.7479 197.178 92.8279 197.118 92.8715 197.035H92.87Z" fill="#1D28A8"/>
<path d="M99.0908 211.413C99.162 211.277 99.117 211.107 98.9846 211.024C98.7418 210.873 92.9838 207.315 89.558 206.086C89.4039 206.031 89.2352 206.115 89.1785 206.264C89.1233 206.418 89.2032 206.588 89.3573 206.643C92.7235 207.852 98.6124 211.492 98.6706 211.528C98.8101 211.614 98.9934 211.571 99.0806 211.432C99.085 211.426 99.0879 211.419 99.0908 211.413Z" fill="#1D28A8"/>
<path d="M97.2187 206.517C97.2536 206.451 97.2638 206.373 97.242 206.298C97.2318 206.264 96.3085 202.851 99.1497 197.451C99.2268 197.306 99.1701 197.126 99.0247 197.051C98.8793 196.975 98.699 197.031 98.6233 197.176C95.66 202.809 96.6298 206.316 96.672 206.463C96.7185 206.62 96.8814 206.711 97.0399 206.665C97.1213 206.642 97.1838 206.586 97.2202 206.518L97.2187 206.517Z" fill="#1D28A8"/>
<path d="M121.49 94.5144C121.433 94.6044 120.716 92.2673 119.219 91.7258C119.219 91.7258 120.558 91.3223 121.6 93.2355C121.6 93.2355 123.337 92.1889 124.858 93.3037C124.858 93.3037 122.344 93.1484 121.49 94.5144Z" fill="#EFF1F5"/>
<path d="M105.299 141.332C105.288 141.419 103.93 139.931 102.626 140.053C102.626 140.053 103.481 139.282 104.931 140.34C104.931 140.34 105.854 138.951 107.379 139.247C107.379 139.247 105.453 140.014 105.3 141.332H105.299Z" fill="#F4F4FD"/>
<path d="M146.534 97.2386C146.546 97.3213 144.939 96.2776 143.769 96.703C143.769 96.703 144.369 95.7899 145.957 96.4155C145.957 96.4155 146.473 94.9175 147.946 94.8231C147.946 94.8231 146.358 95.9902 146.534 97.2386Z" fill="#F4F4FD"/>
<path d="M145.814 118.499C147.078 118.355 148.368 117.796 149.228 117.351C150.816 116.248 152.711 115.603 154.748 115.603C155.106 115.603 155.459 115.623 155.808 115.663C156.522 113.646 158.351 112.211 160.497 112.211C161.396 112.211 162.238 112.463 162.966 112.903C163.901 112.093 165.094 111.607 166.393 111.607C166.635 111.607 166.872 111.626 167.104 111.658C168.258 109.994 170.111 108.914 172.204 108.914C172.812 108.914 173.399 109.007 173.956 109.177C175.269 108.357 176.797 107.885 178.43 107.885C182.778 107.885 186.391 111.216 187.144 115.609C187.214 115.604 187.285 115.6 187.357 115.6C188.508 115.6 189.593 116.023 190.554 116.767V116.761C190.554 116.761 192.526 118.248 194.428 118.496C196.329 118.743 204.795 118.77 205.528 119.31H192.694H190.265H187.09H182.02H169.771H166.888H165.221H155.772H150.586H147.11H133.087C133.926 118.77 143.633 118.744 145.814 118.496V118.499Z" fill="url(#paint2_linear_248_55763)"/>
<path d="M81.2958 108.669C82.4314 108.559 83.5961 108.068 84.2184 107.769C85.2741 107.139 86.5086 106.775 87.8289 106.775C88.1967 106.775 88.5559 106.805 88.9092 106.859C89.485 105.834 90.5828 105.142 91.842 105.142C92.303 105.142 92.7406 105.235 93.1405 105.402C93.8341 104.64 94.833 104.162 95.9454 104.162C96.114 104.162 96.2783 104.174 96.4412 104.195C97.2453 103.108 98.5379 102.401 99.9949 102.401C100.438 102.401 100.867 102.468 101.272 102.588C102.409 101.684 103.85 101.143 105.417 101.143C107.563 101.143 109.471 102.157 110.689 103.731C111.129 103.596 111.594 103.522 112.078 103.522C114.172 103.522 115.946 104.892 116.549 106.782C116.945 106.805 117.329 106.894 117.694 107.043C117.919 107.11 118.125 107.219 118.306 107.36C118.394 107.415 118.483 107.475 118.57 107.537V107.534C118.57 107.534 119.945 108.507 121.271 108.668C122.595 108.829 128.497 108.846 129.008 109.2H120.064H118.371H112.625H111.928H107.568H107.492H103.703H99.5209H98.9102H98.7764H96.2929H95.1311H93.408H93.1565H92.3757H89.7918H88.5588H84.9309H82.507H71.6104C72.2501 108.848 79.6382 108.83 81.2987 108.668L81.2958 108.669Z" fill="url(#paint3_linear_248_55763)"/>
<path d="M241.485 216.626L126.012 226.246L124.04 213.068L242.186 203.071L241.485 216.626Z" fill="#49B79A"/>
<path d="M230.95 84.1529L125.32 161.74L116.357 151.515L221.986 73.9277L230.95 84.1529Z" fill="#49B79A"/>
<path d="M246.332 60.9277L240.734 77.3324L235.138 93.737L223.706 80.6958L212.274 67.653L229.304 64.2911L246.332 60.9277Z" fill="url(#paint4_linear_248_55763)"/>
<path d="M200.23 234.003C239.389 234.003 271.134 231.975 271.134 229.473C271.134 226.971 239.389 224.943 200.23 224.943C161.071 224.943 129.326 226.971 129.326 229.473C129.326 231.975 161.071 234.003 200.23 234.003Z" fill="#F4F4FD"/>
<path d="M181.829 226.318H215.749V198.484H181.829V226.318Z" fill="url(#paint5_linear_248_55763)"/>
<path d="M132.862 106.845H264.712C267.633 106.845 270.005 109.212 270.005 112.129V193.86C270.005 196.411 267.931 198.481 265.377 198.481H132.196C129.641 198.481 127.567 196.411 127.567 193.86V112.129C127.567 109.212 129.939 106.845 132.86 106.845H132.862Z" fill="url(#paint6_linear_248_55763)"/>
<path d="M131.222 189.527C131.222 192.445 133.592 194.811 136.514 194.811H261.064C263.987 194.811 266.357 192.445 266.357 189.527V116.543H131.223V189.527H131.222Z" fill="url(#paint7_linear_248_55763)"/>
<path d="M262.95 109.844H134.627C132.747 109.844 131.222 111.366 131.222 113.243V116.543H266.355V113.243C266.355 111.366 264.83 109.844 262.95 109.844Z" fill="#1D28A8"/>
<path d="M137.468 114.803C138.157 114.803 138.716 114.246 138.716 113.558C138.716 112.87 138.157 112.312 137.468 112.312C136.779 112.312 136.221 112.87 136.221 113.558C136.221 114.246 136.779 114.803 137.468 114.803Z" fill="#C9316F"/>
<path d="M142.711 114.803C143.4 114.803 143.959 114.246 143.959 113.558C143.959 112.87 143.4 112.312 142.711 112.312C142.022 112.312 141.464 112.87 141.464 113.558C141.464 114.246 142.022 114.803 142.711 114.803Z" fill="#E38735"/>
<path d="M147.953 114.803C148.642 114.803 149.2 114.246 149.2 113.558C149.2 112.87 148.642 112.312 147.953 112.312C147.264 112.312 146.705 112.87 146.705 113.558C146.705 114.246 147.264 114.803 147.953 114.803Z" fill="#69CCB4"/>
<path d="M265.667 229.872H131.905C131.082 229.872 130.448 229.146 130.561 228.332L131.194 224.634C131.311 223.788 132.037 223.158 132.892 223.158H264.68C265.536 223.158 266.26 223.788 266.378 224.634L267.011 228.332C267.124 229.146 266.49 229.872 265.667 229.872Z" fill="url(#paint8_linear_248_55763)"/>
<path d="M134.001 222.756H141.375C141.728 222.756 142.016 223.042 142.016 223.396V225.103H133.361V223.396C133.361 223.043 133.648 222.756 134.003 222.756H134.001Z" fill="url(#paint9_linear_248_55763)"/>
<path d="M143.401 222.756H150.774C151.127 222.756 151.415 223.042 151.415 223.396V225.103H142.761V223.396C142.761 223.043 143.047 222.756 143.402 222.756H143.401Z" fill="url(#paint10_linear_248_55763)"/>
<path d="M152.8 222.756H160.173C160.527 222.756 160.815 223.042 160.815 223.396V225.103H152.16V223.396C152.16 223.043 152.447 222.756 152.801 222.756H152.8Z" fill="url(#paint11_linear_248_55763)"/>
<path d="M162.199 222.756H169.573C169.926 222.756 170.214 223.042 170.214 223.396V225.103H161.56V223.396C161.56 223.043 161.846 222.756 162.201 222.756H162.199Z" fill="url(#paint12_linear_248_55763)"/>
<path d="M171.601 222.756H178.974C179.328 222.756 179.615 223.042 179.615 223.396V225.103H170.961V223.396C170.961 223.043 171.247 222.756 171.602 222.756H171.601Z" fill="url(#paint13_linear_248_55763)"/>
<path d="M181 222.756H188.374C188.727 222.756 189.015 223.042 189.015 223.396V225.103H180.36V223.396C180.36 223.043 180.647 222.756 181.002 222.756H181Z" fill="url(#paint14_linear_248_55763)"/>
<path d="M190.401 222.756H197.775C198.128 222.756 198.416 223.042 198.416 223.396V225.103H189.762V223.396C189.762 223.043 190.048 222.756 190.403 222.756H190.401Z" fill="url(#paint15_linear_248_55763)"/>
<path d="M199.802 222.756H207.175C207.529 222.756 207.817 223.042 207.817 223.396V225.103H199.162V223.396C199.162 223.043 199.449 222.756 199.803 222.756H199.802Z" fill="url(#paint16_linear_248_55763)"/>
<path d="M209.201 222.756H216.575C216.928 222.756 217.216 223.042 217.216 223.396V225.103H208.562V223.396C208.562 223.043 208.848 222.756 209.203 222.756H209.201Z" fill="url(#paint17_linear_248_55763)"/>
<path d="M218.602 222.756H225.975C226.329 222.756 226.616 223.042 226.616 223.396V225.103H217.962V223.396C217.962 223.043 218.248 222.756 218.603 222.756H218.602Z" fill="url(#paint18_linear_248_55763)"/>
<path d="M228.004 222.756H235.378C235.731 222.756 236.019 223.042 236.019 223.396V225.103H227.364V223.396C227.364 223.043 227.651 222.756 228.005 222.756H228.004Z" fill="url(#paint19_linear_248_55763)"/>
<path d="M237.405 222.756H244.779C245.132 222.756 245.42 223.042 245.42 223.396V225.103H236.766V223.396C236.766 223.043 237.052 222.756 237.407 222.756H237.405Z" fill="url(#paint20_linear_248_55763)"/>
<path d="M246.803 222.756H254.176C254.53 222.756 254.818 223.042 254.818 223.396V225.103H246.163V223.396C246.163 223.043 246.45 222.756 246.804 222.756H246.803Z" fill="url(#paint21_linear_248_55763)"/>
<path d="M256.202 222.756H263.576C263.929 222.756 264.217 223.042 264.217 223.396V225.103H255.562V223.396C255.562 223.043 255.849 222.756 256.204 222.756H256.202Z" fill="url(#paint22_linear_248_55763)"/>
<path d="M133.072 224.142H140.574C140.93 224.142 141.219 224.431 141.219 224.786V226.488H132.427V224.786C132.427 224.431 132.716 224.142 133.072 224.142Z" fill="url(#paint23_linear_248_55763)"/>
<path d="M142.623 224.142H150.125C150.481 224.142 150.77 224.431 150.77 224.786V226.488H141.978V224.786C141.978 224.431 142.267 224.142 142.623 224.142Z" fill="url(#paint24_linear_248_55763)"/>
<path d="M152.172 224.142H159.674C160.03 224.142 160.319 224.43 160.319 224.786V226.487H151.527V224.786C151.527 224.43 151.816 224.142 152.172 224.142Z" fill="url(#paint25_linear_248_55763)"/>
<path d="M161.722 224.142H169.223C169.58 224.142 169.869 224.43 169.869 224.786V226.487H161.076V224.786C161.076 224.43 161.366 224.142 161.722 224.142Z" fill="url(#paint26_linear_248_55763)"/>
<path d="M171.272 224.142H178.774C179.13 224.142 179.42 224.43 179.42 224.786V226.487H170.627V224.786C170.627 224.43 170.916 224.142 171.272 224.142Z" fill="url(#paint27_linear_248_55763)"/>
<path d="M180.819 224.142H188.321C188.677 224.142 188.966 224.43 188.966 224.786V226.487H180.174V224.786C180.174 224.43 180.463 224.142 180.819 224.142Z" fill="url(#paint28_linear_248_55763)"/>
<path d="M190.37 224.142H197.872C198.228 224.142 198.517 224.431 198.517 224.786V226.488H189.725V224.786C189.725 224.431 190.014 224.142 190.37 224.142Z" fill="url(#paint29_linear_248_55763)"/>
<path d="M199.92 224.142H207.421C207.778 224.142 208.067 224.431 208.067 224.786V226.488H199.274V224.786C199.274 224.431 199.564 224.142 199.92 224.142Z" fill="url(#paint30_linear_248_55763)"/>
<path d="M209.469 224.142H216.97C217.327 224.142 217.616 224.431 217.616 224.786V226.488H208.823V224.786C208.823 224.431 209.113 224.142 209.469 224.142Z" fill="url(#paint31_linear_248_55763)"/>
<path d="M219.017 224.142H226.518C226.874 224.142 227.164 224.431 227.164 224.786V226.488H218.371V224.786C218.371 224.431 218.66 224.142 219.017 224.142Z" fill="url(#paint32_linear_248_55763)"/>
<path d="M228.567 224.142H236.068C236.424 224.142 236.714 224.43 236.714 224.786V226.487H227.921V224.786C227.921 224.43 228.21 224.142 228.567 224.142Z" fill="url(#paint33_linear_248_55763)"/>
<path d="M238.117 224.142H245.619C245.975 224.142 246.264 224.43 246.264 224.786V226.487H237.472V224.786C237.472 224.43 237.761 224.142 238.117 224.142Z" fill="url(#paint34_linear_248_55763)"/>
<path d="M247.667 224.142H255.168C255.525 224.142 255.814 224.43 255.814 224.786V226.487H247.021V224.786C247.021 224.43 247.311 224.142 247.667 224.142Z" fill="url(#paint35_linear_248_55763)"/>
<path d="M257.218 224.142H264.719C265.075 224.142 265.365 224.43 265.365 224.786V226.487H256.572V224.786C256.572 224.43 256.861 224.142 257.218 224.142Z" fill="url(#paint36_linear_248_55763)"/>
<path d="M132.432 225.734H140.027C140.386 225.734 140.677 226.024 140.677 226.382V228.081H131.782V226.382C131.782 226.024 132.073 225.734 132.432 225.734Z" fill="url(#paint37_linear_248_55763)"/>
<path d="M142.092 225.734H149.687C150.046 225.734 150.337 226.024 150.337 226.383V228.081H141.442V226.383C141.442 226.024 141.733 225.734 142.092 225.734Z" fill="url(#paint38_linear_248_55763)"/>
<path d="M151.752 225.734H159.346C159.705 225.734 159.996 226.024 159.996 226.383V228.081H151.102V226.383C151.102 226.024 151.392 225.734 151.752 225.734Z" fill="url(#paint39_linear_248_55763)"/>
<path d="M161.409 225.734H169.003C169.363 225.734 169.653 226.024 169.653 226.383V228.081H160.759V226.383C160.759 226.024 161.05 225.734 161.409 225.734Z" fill="url(#paint40_linear_248_55763)"/>
<path d="M171.07 225.734H226.935C227.294 225.734 227.585 226.024 227.585 226.382V228.081H170.422V226.382C170.422 226.024 170.713 225.734 171.072 225.734H171.07Z" fill="url(#paint41_linear_248_55763)"/>
<path d="M229.027 225.734H236.621C236.981 225.734 237.271 226.024 237.271 226.382V228.081H228.377V226.382C228.377 226.024 228.668 225.734 229.027 225.734Z" fill="url(#paint42_linear_248_55763)"/>
<path d="M238.692 225.734H246.286C246.646 225.734 246.936 226.024 246.936 226.382V228.081H238.042V226.382C238.042 226.024 238.333 225.734 238.692 225.734Z" fill="url(#paint43_linear_248_55763)"/>
<path d="M248.348 225.734H255.942C256.302 225.734 256.592 226.024 256.592 226.383V228.081H247.698V226.383C247.698 226.024 247.989 225.734 248.348 225.734Z" fill="url(#paint44_linear_248_55763)"/>
<path d="M258.008 225.734H265.603C265.962 225.734 266.253 226.024 266.253 226.383V228.081H257.358V226.383C257.358 226.024 257.649 225.734 258.008 225.734Z" fill="url(#paint45_linear_248_55763)"/>
<path opacity="0.13" d="M260.218 148.469H251.338C250.474 148.469 249.773 149.168 249.773 150.031V158.896C249.773 159.758 250.474 160.457 251.338 160.457H260.218C261.082 160.457 261.782 159.758 261.782 158.896V150.031C261.782 149.168 261.082 148.469 260.218 148.469Z" fill="#1D1D1B"/>
<path d="M260.88 147.713H252C251.136 147.713 250.436 148.412 250.436 149.275V158.14C250.436 159.002 251.136 159.702 252 159.702H260.88C261.744 159.702 262.445 159.002 262.445 158.14V149.275C262.445 148.412 261.744 147.713 260.88 147.713Z" fill="url(#paint46_linear_248_55763)"/>
<path d="M256.721 150.691L257.512 152.292C257.557 152.383 257.646 152.447 257.748 152.463L259.517 152.72C259.773 152.758 259.876 153.071 259.69 153.253L258.409 154.5C258.335 154.571 258.302 154.675 258.319 154.776L258.622 156.535C258.665 156.79 258.398 156.983 258.168 156.864L256.584 156.034C256.493 155.986 256.385 155.986 256.294 156.034L254.71 156.864C254.48 156.985 254.213 156.79 254.256 156.535L254.559 154.776C254.576 154.674 254.543 154.571 254.469 154.5L253.188 153.253C253.002 153.073 253.105 152.758 253.361 152.72L255.13 152.463C255.232 152.449 255.321 152.385 255.366 152.292L256.157 150.691C256.272 150.458 256.603 150.458 256.717 150.691H256.721Z" fill="white"/>
<path opacity="0.13" d="M151.125 123.96H235.232V182.096H151.125C148.841 182.096 146.985 180.244 146.985 177.963V128.092C146.985 125.811 148.841 123.959 151.125 123.959V123.96Z" fill="#1D1D1B"/>
<path d="M242.517 122.328H153.333C151.042 122.328 149.185 124.182 149.185 126.47V176.451C149.185 178.739 151.042 180.593 153.333 180.593H242.517C244.808 180.593 246.666 178.739 246.666 176.451V126.47C246.666 124.182 244.808 122.328 242.517 122.328Z" fill="white"/>
<path d="M153.334 180.592H242.519C244.81 180.592 246.667 178.738 246.667 176.45V129.642C236.612 134.207 238.537 138.784 228.784 138.784C214.735 138.784 208.949 159.741 196.057 159.905C183.164 160.07 182.008 150.005 174.735 149.492C167.462 148.981 162.008 155.614 158.041 161.554C155.479 165.39 151.608 167.024 149.187 167.7V176.449C149.187 178.737 151.044 180.59 153.336 180.59L153.334 180.592Z" fill="url(#paint47_linear_248_55763)"/>
<path d="M149.185 168.16V167.282C151.782 166.556 155.279 164.961 157.701 161.332C161.692 155.356 167.238 148.562 174.76 149.091C177.946 149.314 180.025 151.301 182.228 153.405C185.265 156.307 188.717 159.595 196.047 159.502C202.16 159.423 206.615 154.553 211.331 149.396C216.283 143.98 221.404 138.379 228.779 138.379C234.308 138.379 235.913 136.928 238.344 134.73C240.082 133.159 242.411 131.136 246.664 129.205V130.086C242.526 131.966 240.583 133.797 238.888 135.329C236.41 137.569 234.62 139.188 228.781 139.188C221.764 139.188 216.765 144.655 211.93 149.94C207.306 154.997 202.524 160.226 196.059 160.309C188.389 160.407 184.819 156.998 181.67 153.988C179.484 151.901 177.597 150.1 174.703 149.896C167.599 149.397 162.243 155.984 158.374 161.779C155.814 165.614 151.914 167.397 149.185 168.159V168.16Z" fill="#3036BC"/>
<path d="M175.246 129.076H156.404C155.491 129.076 154.751 129.815 154.751 130.726C154.751 131.637 155.491 132.376 156.404 132.376H175.246C176.159 132.376 176.899 131.637 176.899 130.726C176.899 129.815 176.159 129.076 175.246 129.076Z" fill="#1D1D1B"/>
<path d="M166.568 135.014H155.495C155.084 135.014 154.751 135.347 154.751 135.757C154.751 136.167 155.084 136.499 155.495 136.499H166.568C166.979 136.499 167.313 136.167 167.313 135.757C167.313 135.347 166.979 135.014 166.568 135.014Z" fill="#1D1D1B"/>
<path d="M160.942 174.861H156.606C156.18 174.861 155.835 175.206 155.835 175.631V175.632C155.835 176.057 156.18 176.401 156.606 176.401H160.942C161.367 176.401 161.712 176.057 161.712 175.632V175.631C161.712 175.206 161.367 174.861 160.942 174.861Z" fill="#DADADA"/>
<path d="M174.167 174.861H169.831C169.406 174.861 169.061 175.206 169.061 175.631V175.632C169.061 176.057 169.406 176.401 169.831 176.401H174.167C174.593 176.401 174.938 176.057 174.938 175.632V175.631C174.938 175.206 174.593 174.861 174.167 174.861Z" fill="#DADADA"/>
<path d="M187.387 174.861H183.051C182.625 174.861 182.28 175.206 182.28 175.631V175.632C182.28 176.057 182.625 176.401 183.051 176.401H187.387C187.813 176.401 188.158 176.057 188.158 175.632V175.631C188.158 175.206 187.813 174.861 187.387 174.861Z" fill="#DADADA"/>
<path d="M200.61 174.861H196.274C195.848 174.861 195.503 175.206 195.503 175.631V175.632C195.503 176.057 195.848 176.401 196.274 176.401H200.61C201.035 176.401 201.38 176.057 201.38 175.632V175.631C201.38 175.206 201.035 174.861 200.61 174.861Z" fill="#DADADA"/>
<path d="M213.832 174.861H209.496C209.071 174.861 208.726 175.206 208.726 175.631V175.632C208.726 176.057 209.071 176.401 209.496 176.401H213.832C214.258 176.401 214.603 176.057 214.603 175.632V175.631C214.603 175.206 214.258 174.861 213.832 174.861Z" fill="#DADADA"/>
<path d="M227.058 174.861H222.722C222.296 174.861 221.951 175.206 221.951 175.631V175.632C221.951 176.057 222.296 176.401 222.722 176.401H227.058C227.483 176.401 227.828 176.057 227.828 175.632V175.631C227.828 175.206 227.483 174.861 227.058 174.861Z" fill="#DADADA"/>
<path d="M240.281 174.861H235.945C235.52 174.861 235.175 175.206 235.175 175.631V175.632C235.175 176.057 235.52 176.401 235.945 176.401H240.281C240.707 176.401 241.052 176.057 241.052 175.632V175.631C241.052 175.206 240.707 174.861 240.281 174.861Z" fill="#DADADA"/>
<path d="M158.974 174.18C158.862 174.18 158.771 174.09 158.771 173.978V171.636C158.771 171.525 158.862 171.435 158.974 171.435C159.086 171.435 159.176 171.525 159.176 171.636V173.978C159.176 174.09 159.086 174.18 158.974 174.18Z" fill="#3036BC"/>
<path d="M172.166 174.18C172.054 174.18 171.964 174.09 171.964 173.978V171.636C171.964 171.525 172.054 171.435 172.166 171.435C172.278 171.435 172.368 171.525 172.368 171.636V173.978C172.368 174.09 172.278 174.18 172.166 174.18Z" fill="#3036BC"/>
<path d="M185.353 174.18C185.242 174.18 185.151 174.09 185.151 173.978V171.636C185.151 171.525 185.242 171.435 185.353 171.435C185.465 171.435 185.556 171.525 185.556 171.636V173.978C185.556 174.09 185.465 174.18 185.353 174.18Z" fill="#3036BC"/>
<path d="M198.546 174.18C198.434 174.18 198.344 174.09 198.344 173.978V171.636C198.344 171.525 198.434 171.435 198.546 171.435C198.658 171.435 198.748 171.525 198.748 171.636V173.978C198.748 174.09 198.658 174.18 198.546 174.18Z" fill="#3036BC"/>
<path d="M211.734 174.18C211.622 174.18 211.532 174.09 211.532 173.978V171.636C211.532 171.525 211.622 171.435 211.734 171.435C211.846 171.435 211.936 171.525 211.936 171.636V173.978C211.936 174.09 211.846 174.18 211.734 174.18Z" fill="#3036BC"/>
<path d="M224.925 174.18C224.813 174.18 224.723 174.09 224.723 173.978V171.636C224.723 171.525 224.813 171.435 224.925 171.435C225.037 171.435 225.127 171.525 225.127 171.636V173.978C225.127 174.09 225.037 174.18 224.925 174.18Z" fill="#3036BC"/>
<path d="M238.112 174.18C238 174.18 237.91 174.09 237.91 173.978V171.636C237.91 171.525 238 171.435 238.112 171.435C238.224 171.435 238.314 171.525 238.314 171.636V173.978C238.314 174.09 238.224 174.18 238.112 174.18Z" fill="#3036BC"/>
<path opacity="0.13" d="M162.797 81.8721H128.154C127.264 81.8721 126.543 82.5922 126.543 83.4805V102.896C126.543 103.784 127.264 104.504 128.154 104.504H162.797C163.687 104.504 164.408 103.784 164.408 102.896V83.4805C164.408 82.5922 163.687 81.8721 162.797 81.8721Z" fill="#1D1D1B"/>
<path d="M163.627 81.1123H128.984C128.094 81.1123 127.373 81.8324 127.373 82.7207V102.136C127.373 103.024 128.094 103.744 128.984 103.744H163.627C164.517 103.744 165.238 103.024 165.238 102.136V82.7207C165.238 81.8324 164.517 81.1123 163.627 81.1123Z" fill="white"/>
<path d="M134.419 95.5953C134.419 94.8409 133.807 94.2294 133.051 94.2294C132.295 94.2294 131.683 94.8409 131.683 95.5953V97.2894C131.683 98.0438 132.295 98.6553 133.051 98.6553C133.807 98.6553 134.419 98.0438 134.419 97.2894V95.5953Z" fill="url(#paint48_linear_248_55763)"/>
<path d="M139.688 93.8491C139.688 93.0947 139.075 92.4832 138.319 92.4832C137.564 92.4832 136.951 93.0947 136.951 93.8491V97.2865C136.951 98.0409 137.564 98.6525 138.319 98.6525C139.075 98.6525 139.688 98.0409 139.688 97.2865V93.8491Z" fill="url(#paint49_linear_248_55763)"/>
<path d="M150.222 93.8491C150.222 93.0947 149.609 92.4832 148.854 92.4832C148.098 92.4832 147.485 93.0947 147.485 93.8491V97.2865C147.485 98.0409 148.098 98.6525 148.854 98.6525C149.609 98.6525 150.222 98.0409 150.222 97.2865V93.8491Z" fill="url(#paint50_linear_248_55763)"/>
<path d="M155.49 91.8881C155.49 91.1337 154.878 90.5221 154.122 90.5221C153.366 90.5221 152.754 91.1337 152.754 91.8881V97.2866C152.754 98.041 153.366 98.6526 154.122 98.6526C154.878 98.6526 155.49 98.041 155.49 97.2866V91.8881Z" fill="url(#paint51_linear_248_55763)"/>
<path d="M160.757 88.355C160.757 87.6006 160.144 86.989 159.389 86.989C158.633 86.989 158.021 87.6006 158.021 88.355V97.2867C158.021 98.0411 158.633 98.6527 159.389 98.6527C160.144 98.6527 160.757 98.0411 160.757 97.2867V88.355Z" fill="url(#paint52_linear_248_55763)"/>
<path d="M144.952 90.5503C144.952 89.7959 144.34 89.1843 143.584 89.1843C142.828 89.1843 142.216 89.7959 142.216 90.5503V97.2901C142.216 98.0445 142.828 98.6561 143.584 98.6561C144.34 98.6561 144.952 98.0445 144.952 97.2901V90.5503Z" fill="url(#paint53_linear_248_55763)"/>
<path d="M139.644 84.1611H132.325C131.97 84.1611 131.683 84.4481 131.683 84.802C131.683 85.156 131.97 85.4429 132.325 85.4429H139.644C139.999 85.4429 140.286 85.156 140.286 84.802C140.286 84.4481 139.999 84.1611 139.644 84.1611Z" fill="#1D1D1B"/>
<path d="M136.273 86.4697H131.972C131.812 86.4697 131.683 86.5986 131.683 86.7576C131.683 86.9166 131.812 87.0455 131.972 87.0455H136.273C136.433 87.0455 136.562 86.9166 136.562 86.7576C136.562 86.5986 136.433 86.4697 136.273 86.4697Z" fill="#1D1D1B"/>
<path opacity="0.13" d="M281.701 165.9H250.262C249.454 165.9 248.799 166.554 248.799 167.361V184.98C248.799 185.787 249.454 186.441 250.262 186.441H281.701C282.509 186.441 283.164 185.787 283.164 184.98V167.361C283.164 166.554 282.509 165.9 281.701 165.9Z" fill="#1D1D1B"/>
<path d="M282.452 165.206H251.013C250.205 165.206 249.55 165.86 249.55 166.666V184.286C249.55 185.093 250.205 185.746 251.013 185.746H282.452C283.26 185.746 283.915 185.093 283.915 184.286V166.666C283.915 165.86 283.26 165.206 282.452 165.206Z" fill="white"/>
<path d="M260.687 167.977H254.045C253.723 167.977 253.462 168.237 253.462 168.558C253.462 168.878 253.723 169.138 254.045 169.138H260.687C261.009 169.138 261.27 168.878 261.27 168.558C261.27 168.237 261.009 167.977 260.687 167.977Z" fill="#1D1D1B"/>
<path d="M258.488 170.068H253.725C253.58 170.068 253.463 170.185 253.463 170.33V170.331C253.463 170.475 253.58 170.592 253.725 170.592H258.488C258.633 170.592 258.75 170.475 258.75 170.331V170.33C258.75 170.185 258.633 170.068 258.488 170.068Z" fill="#1D1D1B"/>
<path d="M258.488 171.278H253.725C253.58 171.278 253.463 171.395 253.463 171.54V171.541C253.463 171.685 253.58 171.802 253.725 171.802H258.488C258.633 171.802 258.75 171.685 258.75 171.541V171.54C258.75 171.395 258.633 171.278 258.488 171.278Z" fill="#1D1D1B"/>
<path d="M257.63 172.486H253.725C253.58 172.486 253.463 172.603 253.463 172.748V172.749C253.463 172.893 253.58 173.01 253.725 173.01H257.63C257.775 173.01 257.892 172.893 257.892 172.749V172.748C257.892 172.603 257.775 172.486 257.63 172.486Z" fill="#1D1D1B"/>
<path d="M258.488 179.345H253.725C253.58 179.345 253.463 179.462 253.463 179.606V179.607C253.463 179.752 253.58 179.868 253.725 179.868H258.488C258.633 179.868 258.75 179.752 258.75 179.607V179.606C258.75 179.462 258.633 179.345 258.488 179.345Z" fill="#1D1D1B"/>
<path d="M258.488 180.551H253.725C253.58 180.551 253.463 180.668 253.463 180.812V180.813C253.463 180.958 253.58 181.074 253.725 181.074H258.488C258.633 181.074 258.75 180.958 258.75 180.813V180.812C258.75 180.668 258.633 180.551 258.488 180.551Z" fill="#1D1D1B"/>
<path d="M257.63 181.759H253.725C253.58 181.759 253.463 181.876 253.463 182.02V182.021C253.463 182.166 253.58 182.282 253.725 182.282H257.63C257.775 182.282 257.892 182.166 257.892 182.021V182.02C257.892 181.876 257.775 181.759 257.63 181.759Z" fill="#1D1D1B"/>
<path d="M257.63 174.803H253.725C253.58 174.803 253.463 174.92 253.463 175.064V175.065C253.463 175.21 253.58 175.326 253.725 175.326H257.63C257.775 175.326 257.892 175.21 257.892 175.065V175.064C257.892 174.92 257.775 174.803 257.63 174.803Z" fill="#1D1D1B"/>
<path d="M258.154 176.01H253.725C253.58 176.01 253.463 176.127 253.463 176.271V176.272C253.463 176.417 253.58 176.533 253.725 176.533H258.154C258.298 176.533 258.415 176.417 258.415 176.272V176.271C258.415 176.127 258.298 176.01 258.154 176.01Z" fill="#1D1D1B"/>
<path d="M256.322 177.218H253.725C253.58 177.218 253.463 177.335 253.463 177.479V177.48C253.463 177.625 253.58 177.741 253.725 177.741H256.322C256.466 177.741 256.583 177.625 256.583 177.48V177.479C256.583 177.335 256.466 177.218 256.322 177.218Z" fill="#1D1D1B"/>
<path d="M271.837 170.642C268.547 170.642 265.88 173.304 265.88 176.589C265.88 179.874 268.547 182.536 271.837 182.536C275.128 182.536 277.794 179.874 277.794 176.589H271.837V170.642Z" fill="url(#paint54_linear_248_55763)"/>
<path d="M272.353 169.8V175.747H278.31C278.31 172.462 275.643 169.8 272.353 169.8Z" fill="url(#paint55_linear_248_55763)"/>
<path d="M241.551 216.685L121.183 167.09L116.235 151.229L242.252 203.13L241.551 216.685Z" fill="#69CCB4"/>
<path d="M104.369 244.928C121.13 244.928 134.718 243.133 134.718 240.92C134.718 238.706 121.13 236.912 104.369 236.912C87.6072 236.912 74.0195 238.706 74.0195 240.92C74.0195 243.133 87.6072 244.928 104.369 244.928Z" fill="#F4F4FD"/>
<path d="M96.7142 98.3232C96.7142 98.3232 95.5771 103.434 96.4917 107.773C97.4049 112.112 94.3848 118.143 91.3429 121.359C88.2996 124.574 85.454 130.803 94.4473 134.547C101.917 137.656 114.356 133.973 115.034 127.31C115.713 120.648 112.177 114.41 113.109 107.309C114.041 100.209 115.597 95.359 108.373 92.823C101.149 90.2871 96.7142 98.3232 96.7142 98.3232Z" fill="#1D1D1B"/>
<path d="M111.701 116.847C111.701 116.847 123.607 107.233 124.698 106.043C125.788 104.853 131.062 82.1683 131.062 82.1683L137.181 82.8665C137.181 82.8665 132.389 100.318 131.455 105.735C130.691 110.165 122.088 118.351 122.088 118.351C122.088 118.351 118.649 123.546 113.773 121.687C108.898 119.827 111.7 116.846 111.7 116.846L111.701 116.847Z" fill="url(#paint56_linear_248_55763)"/>
<path d="M132.203 80.2731C132.187 79.5472 131.876 79.0813 131.876 79.0813L131.645 77.1448C131.645 77.1448 131.855 73.8773 132.085 73.4635C132.353 72.9816 132.846 72.6666 133.389 72.5737C134.893 72.3197 136.786 72.4518 138 73.346C138.874 73.989 138.81 75.9792 137.907 78.9114C137.235 81.0918 137.333 82.1064 137.333 82.1064L132.062 81.4866C132.062 81.4866 132.223 81.1019 132.206 80.276L132.203 80.2731Z" fill="#EFA8A8"/>
<path d="M131.183 83.0267L137.203 83.7645C137.557 83.8079 137.879 83.5567 137.922 83.2034L138.128 81.5306C138.172 81.1773 137.92 80.8557 137.566 80.8124L131.546 80.0745C131.193 80.0311 130.87 80.2823 130.827 80.6356L130.621 82.3084C130.578 82.6617 130.829 82.9833 131.183 83.0267Z" fill="#E5CD34"/>
<path d="M131.819 78.605C131.819 78.605 131.476 77.9097 131.339 77.1229C131.203 76.3361 130.868 74.6726 132.329 74.7365C133.791 74.8003 131.818 78.605 131.818 78.605H131.819Z" fill="#EFA8A8"/>
<path d="M106.969 232.076L106.733 236.051L111.724 236.345L112.427 232.062L106.969 232.076Z" fill="#EFA8A8"/>
<path d="M106.783 235.212C106.783 235.212 107.416 236.206 111.825 235.734C111.825 235.734 118.781 237.492 119.951 237.674C121.122 237.855 121.663 238.224 121.785 239.018C121.907 239.812 121.671 240.921 121.671 240.921L105.574 240.42C105.574 240.42 105.433 236.142 106.782 235.212H106.783Z" fill="#686863"/>
<path d="M114.73 196.269C115.449 191.409 117.359 174.521 117.359 174.521L119.681 160.948L110.83 159.023L110.087 166.62C108.698 173.799 109.504 198.854 109.504 198.854C105.709 216.713 106.487 233.72 106.487 233.72L109.116 233.657C109.217 230.538 109.51 223.893 110.266 218.86C111.286 212.059 114.008 201.13 114.728 196.27L114.73 196.269Z" fill="#1D28A8"/>
<path d="M118.649 197.274C119.494 192.987 122.074 180.572 123.289 170.995C124.073 164.812 123.784 159.446 123.784 159.446L119.406 159.303L117.357 174.519C117.357 174.519 115.448 191.407 114.728 196.267C114.008 201.127 111.286 212.056 110.265 218.856C109.509 223.889 109.217 230.535 109.115 233.653L112.665 233.576C112.665 233.576 117.258 204.332 118.649 197.277V197.274Z" fill="url(#paint57_linear_248_55763)"/>
<path d="M91.4949 229.225L89.9551 232.682L94.2954 234.609L96.3558 231.033L91.4949 229.225Z" fill="#EFA8A8"/>
<path d="M90.4739 231.662C90.4739 231.662 90.7181 232.825 95.0512 233.944C95.0512 233.944 96.2508 234.801 98.1542 235.711C99.6707 236.435 102.381 237.692 102.894 238.767C103.243 239.498 102.874 240.554 102.874 240.554L95.851 240.301C95.0221 240.178 94.0901 239.565 93.3442 239.18L87.4785 236.155C87.4785 236.155 88.8671 232.065 90.4739 231.662Z" fill="#686863"/>
<path d="M103.325 156.997C103.325 156.997 98.4718 156.303 101.348 176.111C103.44 190.516 103.234 196.459 103.234 196.459L90.8758 230.251L96.3372 232.276C96.3372 232.276 110.673 206.558 112.889 197.573C114.061 192.821 115.891 182.853 117.357 174.514L119.963 159.321L103.324 156.999L103.325 156.997Z" fill="url(#paint58_linear_248_55763)"/>
<path d="M118.004 172.945C119.188 166.206 120.108 160.641 120.108 160.641L118.004 172.945Z" fill="#1D28A8"/>
<path d="M120.11 142.759C120.112 138.924 120.305 131.97 120.571 130.35C121.923 122.088 116.841 116.35 112.51 114.36L103.093 113.473C101.21 113.972 99.8828 114.605 98.9493 115.36C98.3415 115.275 97.3963 114.971 96.3901 113.997C93.4646 111.161 89.591 105.61 88.8538 104.631C87.6876 103.084 83.4694 81.1124 83.4694 81.1124L77.1123 82.2388C77.1123 82.2388 78.7336 95.6865 80.8289 103.132C80.8303 103.141 81.2753 105.157 82.168 107.003C83.0623 108.853 89.8207 118.857 92.8466 121.978C94.9506 124.148 97.3542 129.062 98.8795 132.736C99.5134 135.639 100.076 138.799 100.204 141.997C100.507 149.482 99.8144 161.688 99.8144 161.688L103.906 161.308C103.906 161.308 120.173 161.443 123.947 159.65C123.947 159.65 120.892 151.036 120.11 142.758V142.759Z" fill="url(#paint59_linear_248_55763)"/>
<path d="M82.5921 80.5505C82.5689 79.8247 82.8553 79.3427 82.8553 79.3427L82.9833 77.3976C82.9833 77.3976 82.5979 74.146 82.3449 73.7439C82.0512 73.2765 81.5423 72.9876 80.9941 72.9252C79.479 72.751 77.596 72.9847 76.4328 73.9428C75.5952 74.6323 75.7668 76.6152 76.8254 79.4952C77.6135 81.6377 77.5713 82.6539 77.5713 82.6539L82.8015 81.7524C82.8015 81.7524 82.6198 81.3764 82.5936 80.5505H82.5921Z" fill="#EFA8A8"/>
<path d="M83.2467 80.3248L77.2753 81.3835C76.9242 81.4457 76.6902 81.7803 76.7525 82.1307L77.0477 83.7901C77.1101 84.1406 77.4452 84.3742 77.7962 84.312L83.7677 83.2533C84.1187 83.1911 84.3528 82.8565 84.2904 82.506L83.9953 80.8467C83.9329 80.4962 83.5978 80.2626 83.2467 80.3248Z" fill="#F0AD30"/>
<path d="M82.8881 78.8637C82.8881 78.8637 83.1934 78.151 83.2865 77.357C83.3796 76.5644 83.6253 74.8849 82.1698 75.0271C80.7143 75.1694 82.8881 78.8637 82.8881 78.8637Z" fill="#EFA8A8"/>
<path d="M110.368 118.71C108.181 119.942 104.332 116.859 104.067 113.882C103.803 110.906 104.204 111.073 104.454 106.517C104.454 106.517 109.552 107.71 111.14 107.727C111.14 107.727 110.442 112.372 110.92 113.965C111.399 115.556 112.265 117.642 110.368 118.71Z" fill="#EFA8A8"/>
<path d="M110.901 109.729C110.901 109.729 106.498 109.549 104.958 108.042C104.958 108.042 104.89 109.861 110.831 110.516L110.899 109.729H110.901Z" fill="#D89595"/>
<path d="M112.137 95.4633C112.137 95.4633 102.232 88.5623 98.4212 95.2383C98.4212 95.2383 95.8985 97.4157 96.4874 102.734C97.0879 108.162 101.744 110.9 103.175 109.371C104.092 108.39 104.246 109.238 104.246 109.238L104.412 107.259L112.137 95.4633Z" fill="#1D1D1B"/>
<path d="M104.411 107.263C104.411 107.263 101.516 107.359 99.9571 105.338C98.8433 103.895 96.575 97.5792 102.951 95.3393C102.951 95.3393 104.763 94.6121 106.953 94.8603C108.695 95.0577 111.533 95.965 112.141 102.189L112.509 104.207L104.411 107.261V107.263Z" fill="#1D1D1B"/>
<path d="M113.835 109.01C113.835 109.01 105.873 111.987 104.246 106.815C102.677 101.828 100.459 98.8692 105.458 96.8921C110.457 94.915 112.189 96.416 113.031 98.0026C113.979 99.791 113.972 100.618 114.108 102.105C114.172 102.796 114.581 103.41 114.585 104.379C114.596 106.683 114.785 108.612 113.837 109.01H113.835Z" fill="#EFA8A8"/>
<path d="M108.689 95.3397C108.689 95.3397 108.423 102.141 105.234 104.186C102.045 106.231 100.225 105.799 100.225 105.799C100.225 105.799 102.195 102.795 101.523 98.9122C101.523 98.9122 106.02 93.0259 108.687 95.3397H108.689Z" fill="#1D1D1B"/>
<path d="M108.287 96.0165C108.287 96.0165 110.084 96.1254 111.556 97.3012C112.69 98.207 113.408 98.8065 113.983 101.03C113.983 101.03 114.317 96.7743 111.623 95.0817C108.767 93.2875 108.287 96.0165 108.287 96.0165Z" fill="#1D1D1B"/>
<path d="M293.953 240.108C310.715 240.108 324.302 238.313 324.302 236.1C324.302 233.886 310.715 232.092 293.953 232.092C277.192 232.092 263.604 233.886 263.604 236.1C263.604 238.313 277.192 240.108 293.953 240.108Z" fill="#F4F4FD"/>
<path d="M291.512 223.854C291.512 223.854 291.097 228.875 291.512 230.96C291.512 230.96 290.149 232.003 286.364 229.37C286.364 229.37 285.817 227.053 286.398 223.98C286.398 223.98 288.721 219.381 291.51 223.854H291.512Z" fill="#EFA8A8"/>
<path d="M290.71 229.81C290.71 229.81 291.901 229.824 292.305 231.733C292.71 233.642 292.746 234.805 292.746 234.805C292.746 234.805 287.932 234.805 285.134 235.266C282.338 235.729 279.047 236.022 274.348 233.71C274.348 233.71 273.547 231.999 274.95 231.826C276.353 231.653 279.388 231.851 280.728 231.017C282.069 230.184 283.822 228.997 284.564 228.558C285.306 228.12 285.713 227.25 286.201 228.015C286.691 228.78 286.89 230.974 290.71 229.81Z" fill="url(#paint60_linear_248_55763)"/>
<path d="M284.721 231.105C284.616 231.182 284.472 231.151 284.403 231.036L283.578 229.705C283.507 229.591 283.536 229.435 283.641 229.358C283.745 229.281 283.889 229.312 283.959 229.427L284.784 230.758C284.855 230.872 284.826 231.028 284.721 231.105Z" fill="white"/>
<path d="M284.172 231.503C284.068 231.58 283.924 231.549 283.854 231.435L283.029 230.104C282.958 229.989 282.987 229.834 283.092 229.757C283.197 229.68 283.341 229.71 283.41 229.825L284.235 231.156C284.306 231.271 284.277 231.426 284.172 231.503Z" fill="white"/>
<path d="M283.628 231.899C283.524 231.976 283.38 231.946 283.31 231.831L282.485 230.5C282.414 230.385 282.443 230.23 282.548 230.153C282.653 230.076 282.797 230.107 282.866 230.221L283.691 231.552C283.762 231.667 283.733 231.822 283.628 231.899Z" fill="white"/>
<path d="M292.745 234.805L292.863 236.705C292.863 236.705 285.754 236.655 283.571 236.632C281.389 236.609 279.27 236.666 277.556 236.089C275.84 235.513 274.456 235.188 274.347 233.71C274.347 233.71 277.323 235.681 281.602 235.574C285.882 235.465 285.144 234.78 289.723 234.847C292.985 234.895 292.745 234.805 292.745 234.805Z" fill="#EAF0FF"/>
<path d="M311.669 221.468C311.669 221.468 312.47 226.434 313.368 228.33C313.368 228.33 312.303 229.723 308.019 228.248C308.019 228.248 306.937 226.165 306.763 223.034C306.763 223.034 307.906 217.938 311.67 221.469L311.669 221.468Z" fill="#EFA8A8"/>
<path d="M312.32 227.446C312.32 227.446 313.473 227.124 314.32 228.853C315.166 230.581 315.48 231.695 315.48 231.695C315.48 231.695 310.83 233.054 308.24 234.29C305.65 235.527 302.543 236.739 297.453 235.833C297.453 235.833 296.27 234.406 297.583 233.843C298.896 233.28 301.874 232.614 302.971 231.431C304.067 230.248 305.476 228.606 306.087 227.973C306.697 227.341 306.882 226.385 307.538 226.986C308.194 227.587 308.912 229.648 312.32 227.445V227.446Z" fill="url(#paint61_linear_248_55763)"/>
<path d="M306.844 230.39C306.761 230.494 306.616 230.504 306.52 230.414L305.406 229.36C305.31 229.27 305.3 229.112 305.384 229.008C305.467 228.903 305.613 228.893 305.709 228.983L306.822 230.037C306.918 230.127 306.929 230.285 306.844 230.39Z" fill="white"/>
<path d="M306.415 230.924C306.332 231.029 306.186 231.039 306.09 230.949L304.977 229.895C304.881 229.805 304.87 229.647 304.955 229.542C305.038 229.438 305.183 229.427 305.279 229.517L306.393 230.571C306.489 230.661 306.499 230.82 306.415 230.924Z" fill="white"/>
<path d="M305.984 231.466C305.901 231.57 305.756 231.58 305.66 231.49L304.546 230.437C304.45 230.347 304.44 230.188 304.524 230.084C304.607 229.979 304.752 229.969 304.848 230.059L305.962 231.113C306.058 231.203 306.068 231.361 305.984 231.466Z" fill="white"/>
<path d="M315.483 231.696L316.051 233.497C316.051 233.497 309.175 235.457 307.063 236.051C304.948 236.646 302.918 237.297 301.124 237.225C299.33 237.152 297.915 237.231 297.457 235.834C297.457 235.834 300.803 236.898 304.909 235.585C309.015 234.271 308.139 233.818 312.576 232.59C315.737 231.715 315.484 231.696 315.484 231.696H315.483Z" fill="#EAF0FF"/>
<path d="M285.642 146.731C285.642 146.731 282.379 185.246 282.631 191.083C282.883 196.92 285.402 226.54 285.402 226.54C285.402 226.54 288.409 225.992 292.069 227.059C292.069 227.059 293.269 198.938 293.221 191.082C293.221 191.082 296.631 170.633 296.631 146.7C296.631 146.7 291.057 146.7 285.644 146.728L285.642 146.731Z" fill="url(#paint62_linear_248_55763)"/>
<path d="M308.446 145.698C308.446 145.698 310.654 153.856 309.401 160.993C307.332 172.771 306.75 186.59 306.75 186.59L312.727 224.431C312.727 224.431 310.128 224.49 306.35 226.012C306.35 226.012 296.261 194.481 296.261 188.721C296.261 182.961 293.245 170.585 292.264 163.846C291.282 157.109 288.969 146.829 288.969 146.829C288.969 146.829 304.139 146.713 308.446 145.698Z" fill="url(#paint63_linear_248_55763)"/>
<path d="M294.902 178.097L292.652 166.223L294.368 182.792L294.902 178.097Z" fill="#1D1D1B"/>
<path d="M277.063 109.094C277.063 109.094 279.991 106.556 280.664 101.836L270.259 99.1358C270.259 99.1358 267.654 88.6856 263.246 77.9335L259.198 78.7639C259.198 78.7639 261.885 91.1635 263.425 97.5535C264.274 101.075 264.574 104.463 267.281 105.619C269.989 106.774 277.063 109.092 277.063 109.092V109.094Z" fill="#EFA8A8"/>
<path d="M280.211 101.723C280.211 101.723 277.5 106.506 275.245 108.486L275.787 108.667C275.787 108.667 278.363 106.585 280.212 101.723H280.211Z" fill="#D89595"/>
<path d="M293.185 112C293.185 112 289.623 115.975 275.245 108.959C275.245 108.959 278.379 106.586 280.23 101.516C280.23 101.516 285.022 101.935 289.364 103.294C292.449 104.259 293.185 112 293.185 112Z" fill="#E15CA7"/>
<path d="M263.246 77.9317C263.246 77.9317 262.868 76.8851 263.368 76.1273C263.868 75.3696 264.523 74.908 264.11 73.3562C263.697 71.8044 263.091 72.8162 263.091 72.8162C263.091 72.8162 262.695 71.4938 262.108 70.9131C261.52 70.3325 259.98 70.3673 258.958 71.0917C257.936 71.816 256.162 72.7901 259.198 78.762L263.246 77.9317Z" fill="#EFA8A8"/>
<path d="M309.207 149.928C309.207 149.928 311.563 126.071 309.395 115.317C307.227 104.564 305.702 102.51 304.159 101.611C302.616 100.713 292.842 100.97 285.642 102.253C278.44 103.536 277.669 113.037 277.669 113.037C277.669 113.037 279.726 112.78 282.556 113.871C282.556 113.871 285.746 137.547 284.628 149.928C284.628 149.928 303.486 151.404 309.207 149.928Z" fill="url(#paint64_linear_248_55763)"/>
<path d="M298.888 101.079C298.888 101.079 297.345 106.457 292.136 106.553C286.928 106.649 285.643 102.252 285.643 102.252C285.643 102.252 289.147 100.706 298.888 101.077V101.079Z" fill="#EFA8A8"/>
<path d="M279.466 85.01C279.466 85.01 278.407 88.0294 279.699 91.8094C279.699 91.8094 278.839 94.6502 278.91 95.122C278.982 95.5937 280.616 95.5734 280.616 95.5734C280.616 95.5734 281.297 98.105 281.596 99.1008C281.896 100.095 282.131 100.914 283.415 100.795C284.699 100.676 287.068 100.097 287.85 101.092C287.952 101.222 289.082 104.717 291.489 103.869C292.046 103.673 300.121 101.02 298.37 101.02C296.209 101.02 293.147 94.7968 294.015 91.4349C294.883 88.0729 294.431 83.6092 291.258 82.3042C288.084 80.9992 280.572 81.0181 279.464 85.01H279.466Z" fill="#EFA8A8"/>
<path d="M293.697 93.2664C293.366 91.6827 291.221 93.3797 291.221 93.3797C291.221 93.3797 291.299 95.2464 290.578 96.2625C290.3 96.653 287.795 99.5055 284.208 100.639C284.208 100.639 286.971 100.368 290.657 98.2556C292.397 97.2584 293.979 94.6135 293.697 93.2664Z" fill="#D89595"/>
<path d="M290.215 91.1532C290.215 91.1532 288.12 91.3201 288.181 89.269C288.181 89.269 286.861 90.137 285.868 88.2427C284.874 86.3498 283.653 85.1595 281.071 85.5485C278.488 85.9375 278.673 84.9446 278.584 84.3625C278.497 83.7819 278.919 82.6409 280.281 82.5466C281.644 82.4522 281.049 80.9817 282.138 80.5579C283.227 80.134 284.661 80.5114 285.498 80.3851C286.334 80.2588 287.019 79.3763 288.111 79.2108C289.203 79.0467 290.582 79.8045 291.226 80.8583C291.868 81.9122 292.094 82.6583 293.42 82.5712C294.746 82.4827 295.649 82.7919 296.01 83.7035C296.37 84.6151 295.822 84.92 295.871 85.2466C295.921 85.5732 296.851 86.0653 296.93 86.8332C297.008 87.6011 296.305 88.5983 295.616 88.9627C295.616 88.9627 296.084 89.5985 295.928 90.2895C295.773 90.9819 294.729 91.2127 294.752 91.6177C294.777 92.0227 294.887 93.4917 293.674 93.6006C292.462 93.7095 291.221 93.3756 291.221 93.3756C291.221 93.3756 293.328 91.3128 293.003 89.6537C292.677 87.9945 291.104 88.4169 290.762 88.6172C290.42 88.8175 289.65 89.3793 289.737 89.9599C289.824 90.5406 290.215 91.1503 290.215 91.1503V91.1532Z" fill="#1D1D1B"/>
<path d="M264.942 134.393L305.558 126.07C306.324 125.913 307.074 126.407 307.232 127.172L265.227 135.779L264.942 134.393Z" fill="url(#paint65_linear_248_55763)"/>
<path d="M292.963 130.082L283.915 110.925C283.695 110.459 283.183 110.204 282.677 110.307L255.82 115.811C255.322 115.913 255.053 116.453 255.27 116.91L263.693 134.668C264.052 135.424 264.881 135.838 265.703 135.67L292.963 130.082Z" fill="url(#paint66_linear_248_55763)"/>
<path d="M273.076 124.285C273.673 124.082 273.917 123.218 273.622 122.355C273.327 121.492 272.605 120.958 272.008 121.161C271.411 121.365 271.167 122.229 271.462 123.091C271.757 123.954 272.48 124.489 273.076 124.285Z" fill="white"/>
<path d="M315.519 112.536C315.519 112.536 311.893 113.219 309.071 116.776L314.503 122.006C314.503 122.006 304.502 127.763 297.022 128.638L297.383 132.777C297.383 132.777 315.704 129.444 320.348 127.753C324.993 126.062 323.56 122.323 321.89 120.075C320.219 117.83 315.518 112.534 315.518 112.534L315.519 112.536Z" fill="#EFA8A8"/>
<path d="M297.619 128.558C297.619 128.558 296.534 128.812 295.838 128.228C295.141 127.645 294.757 126.942 293.165 127.173C291.573 127.404 292.511 128.121 292.511 128.121C292.511 128.121 291.15 128.36 290.504 128.876C289.859 129.392 289.715 130.922 290.318 132.02C290.92 133.117 291.686 134.988 297.978 132.667L297.619 128.558Z" fill="#EFA8A8"/>
<path d="M309.395 117.084C309.395 117.084 313.921 114.451 316.726 113.903L316.368 113.494C316.368 113.494 313.251 113.972 309.395 117.084Z" fill="#D89595"/>
<path d="M302.097 101.568C302.097 101.568 307.562 99.4164 316.93 113.449C316.93 113.449 312.99 113.799 308.321 118.007C308.321 118.007 301.645 110.494 300.504 107.281C299.364 104.069 302.097 101.568 302.097 101.568Z" fill="url(#paint67_linear_248_55763)"/>
<g opacity="0.2">
<path d="M308.975 117.437L308.322 118.006C308.322 118.006 305.725 115.687 304.272 113.123C304.272 113.123 307.676 116.501 308.975 117.437Z" fill="#1D1D1B"/>
<path d="M309.396 117.086C309.396 117.086 308.603 117.628 308.321 118.006C308.321 118.006 308.816 118.048 309.79 117.465L309.396 117.086Z" fill="#1D1D1B"/>
</g>
<path opacity="0.2" d="M316.931 113.448C316.931 113.448 316.918 113.662 316.728 113.904L316.37 113.495L316.931 113.446V113.448Z" fill="#1D1D1B"/>
<path d="M29.0513 36.4757C27.9184 36.4757 27 35.5498 27 34.4077C27 33.2655 27.9184 32.3397 29.0513 32.3397C30.1841 32.3397 31.1025 33.2655 31.1025 34.4077C31.1025 35.5498 30.1841 36.4757 29.0513 36.4757Z" fill="url(#paint68_linear_248_55763)"/>
<path d="M43.9559 22.4397V25.806H43.2844V22.4397C43.2844 22.1959 43.4344 21.9995 43.6186 21.9995C43.8029 21.9995 43.9529 22.1959 43.9529 22.4397H43.9559Z" fill="#38CCF0"/>
<path d="M43.9554 37.1558C43.9554 37.3996 43.8055 37.596 43.6212 37.596C43.437 37.596 43.2873 37.3996 43.2873 37.1558V33.9927H43.9585V37.1558H43.9554Z" fill="#38CCF0"/>
<path d="M50.8055 29.7987C50.8055 29.9985 50.6242 30.1611 50.3994 30.1611H47.2968V29.4329H50.3994C50.6242 29.4329 50.8055 29.5955 50.8055 29.7953V29.7987Z" fill="#38CCF0"/>
<path d="M36.8424 29.4329H39.7578V30.1611H36.8424C36.6176 30.1611 36.4366 29.9985 36.4366 29.7987C36.4366 29.5989 36.6176 29.4363 36.8424 29.4363V29.4329Z" fill="#38CCF0"/>
<path d="M48.6507 24.856L46.4562 27.2369L45.9818 26.7221L48.176 24.3413C48.3352 24.1686 48.5696 24.1448 48.7007 24.2871C48.8318 24.4293 48.8099 24.6833 48.6507 24.856Z" fill="#38CCF0"/>
<path d="M39.0646 35.256C38.9054 35.4287 38.6714 35.4524 38.5402 35.3101C38.4091 35.1679 38.4307 34.9139 38.5899 34.7412L40.6534 32.5026L41.128 33.0174L39.0646 35.256Z" fill="#38CCF0"/>
<path d="M48.7007 35.3086C48.5696 35.4508 48.3352 35.4271 48.176 35.2544L45.9818 32.8736L46.4562 32.3588L48.6507 34.7396C48.8099 34.9123 48.8318 35.1663 48.7007 35.3086Z" fill="#38CCF0"/>
<path d="M39.0646 24.3413L41.128 26.5798L40.6534 27.0946L38.5899 24.856C38.4307 24.6833 38.4091 24.4293 38.5402 24.2871C38.6714 24.1448 38.9054 24.1686 39.0646 24.3413Z" fill="#38CCF0"/>
<path d="M170.526 46.1927C169.619 46.1927 168.884 45.4576 168.884 44.5509C168.884 43.6442 169.619 42.9092 170.526 42.9092C171.433 42.9092 172.168 43.6442 172.168 44.5509C172.168 45.4576 171.433 46.1927 170.526 46.1927Z" fill="url(#paint69_linear_248_55763)"/>
<path d="M173.399 56.8635C171.132 56.8635 169.295 55.0259 169.295 52.7591C169.295 50.4924 171.132 48.6548 173.399 48.6548C175.666 48.6548 177.504 50.4924 177.504 52.7591C177.504 55.0259 175.666 56.8635 173.399 56.8635Z" fill="url(#paint70_linear_248_55763)"/>
<path d="M53.1018 206.857C50.8363 206.857 48.9997 205.019 48.9997 202.752C48.9997 200.486 50.8363 198.648 53.1018 198.648C55.3674 198.648 57.204 200.486 57.204 202.752C57.204 205.019 55.3674 206.857 53.1018 206.857Z" fill="url(#paint71_linear_248_55763)"/>
<path d="M61.4424 181.436V184.776H60.7708V181.436C60.7708 181.194 60.9208 180.999 61.1051 180.999C61.2893 180.999 61.4393 181.194 61.4393 181.436H61.4424Z" fill="#38CCF0"/>
<path d="M61.442 196.039C61.442 196.281 61.292 196.476 61.1077 196.476C60.9235 196.476 60.7738 196.281 60.7738 196.039V192.9H61.445V196.039H61.442Z" fill="#38CCF0"/>
<path d="M68.2911 188.738C68.2911 188.936 68.1099 189.097 67.8851 189.097H64.7829V188.375H67.8851C68.1099 188.375 68.2911 188.536 68.2911 188.734V188.738Z" fill="#38CCF0"/>
<path d="M54.3292 188.375H57.2443V189.097H54.3292C54.1045 189.097 53.9235 188.936 53.9235 188.738C53.9235 188.539 54.1045 188.378 54.3292 188.378V188.375Z" fill="#38CCF0"/>
<path d="M66.1354 183.834L63.9411 186.196L63.4668 185.685L65.6608 183.323C65.82 183.151 66.0543 183.128 66.1854 183.269C66.3164 183.41 66.2945 183.662 66.1354 183.834Z" fill="#38CCF0"/>
<path d="M56.5503 194.154C56.3911 194.325 56.1571 194.349 56.026 194.208C55.895 194.066 55.9166 193.814 56.0757 193.643L58.1389 191.422L58.6135 191.932L56.5503 194.154Z" fill="#38CCF0"/>
<path d="M66.1854 194.206C66.0543 194.347 65.82 194.323 65.6608 194.152L63.4668 191.789L63.9411 191.279L66.1354 193.641C66.2945 193.813 66.3164 194.065 66.1854 194.206Z" fill="#38CCF0"/>
<path d="M56.5503 183.323L58.6135 185.544L58.1389 186.055L56.0757 183.834C55.9166 183.662 55.895 183.41 56.026 183.269C56.1571 183.128 56.3911 183.151 56.5503 183.323Z" fill="#38CCF0"/>
<path d="M301.044 264.956C297.871 264.956 295.298 262.383 295.298 259.21C295.298 256.036 297.871 253.464 301.044 253.464C304.218 253.464 306.791 256.036 306.791 259.21C306.791 262.383 304.218 264.956 301.044 264.956Z" fill="url(#paint72_linear_248_55763)"/>
<path d="M300.671 253.464C299.188 253.464 297.844 254.107 296.872 255.147C295.9 256.187 295.299 257.624 295.299 259.21H301.045V253.479C300.921 253.47 300.797 253.465 300.671 253.465V253.464Z" fill="#37A9E6" fill-opacity="0.7"/>
<path d="M291.809 269.882C290.109 269.882 288.731 268.504 288.731 266.803C288.731 265.103 290.109 263.725 291.809 263.725C293.51 263.725 294.888 265.103 294.888 266.803C294.888 268.504 293.51 269.882 291.809 269.882Z" fill="url(#paint73_linear_248_55763)"/>
<path d="M308.15 27.753V31.1193H307.478V27.753C307.478 27.5092 307.628 27.3127 307.812 27.3127C307.997 27.3127 308.147 27.5092 308.147 27.753H308.15Z" fill="#38CCF0"/>
<path d="M308.149 42.4691C308.149 42.7129 307.999 42.9093 307.815 42.9093C307.631 42.9093 307.481 42.7129 307.481 42.4691V39.306H308.152V42.4691H308.149Z" fill="#38CCF0"/>
<path d="M314.999 35.1119C314.999 35.3117 314.818 35.4743 314.593 35.4743H311.49V34.7462H314.593C314.818 34.7462 314.999 34.9087 314.999 35.1085V35.1119Z" fill="#38CCF0"/>
<path d="M301.035 34.7462H303.951V35.4743H301.035C300.81 35.4743 300.629 35.3117 300.629 35.1119C300.629 34.9121 300.81 34.7495 301.035 34.7495V34.7462Z" fill="#38CCF0"/>
<path d="M312.844 30.1693L310.65 32.5501L310.175 32.0354L312.37 29.6546C312.529 29.4819 312.763 29.4581 312.894 29.6004C313.025 29.7426 313.004 29.9966 312.844 30.1693Z" fill="#38CCF0"/>
<path d="M303.257 40.5693C303.098 40.742 302.864 40.7657 302.733 40.6234C302.602 40.4812 302.623 40.2272 302.783 40.0545L304.846 37.8159L305.321 38.3307L303.257 40.5693Z" fill="#38CCF0"/>
<path d="M312.894 40.6219C312.763 40.7641 312.529 40.7404 312.37 40.5677L310.175 38.1869L310.65 37.6721L312.844 40.0529C313.004 40.2256 313.025 40.4796 312.894 40.6219Z" fill="#38CCF0"/>
<path d="M303.257 29.6546L305.321 31.8931L304.846 32.4079L302.783 30.1693C302.623 29.9966 302.602 29.7426 302.733 29.6004C302.864 29.4581 303.098 29.4819 303.257 29.6546Z" fill="#38CCF0"/>
<path d="M294.475 31.8627C293.795 31.8627 293.244 31.3072 293.244 30.6219C293.244 29.9366 293.795 29.3811 294.475 29.3811C295.155 29.3811 295.706 29.9366 295.706 30.6219C295.706 31.3072 295.155 31.8627 294.475 31.8627Z" fill="url(#paint74_linear_248_55763)"/>
<path d="M290.578 39.3078C288.878 39.3078 287.501 37.919 287.501 36.2058C287.501 34.4926 288.878 33.1038 290.578 33.1038C292.277 33.1038 293.655 34.4926 293.655 36.2058C293.655 37.919 292.277 39.3078 290.578 39.3078Z" fill="url(#paint75_linear_248_55763)"/>
<defs>
<filter id="filter0_n_248_55763" x="0" y="0" width="355" height="284" filterUnits="userSpaceOnUse" color-interpolation-filters="sRGB">
<feFlood flood-opacity="0" result="BackgroundImageFix"/>
<feBlend mode="normal" in="SourceGraphic" in2="BackgroundImageFix" result="shape"/>
<feTurbulence type="fractalNoise" baseFrequency="2.6376810073852539 2.6376810073852539" stitchTiles="stitch" numOctaves="3" result="noise" seed="7531" />
<feColorMatrix in="noise" type="luminanceToAlpha" result="alphaNoise" />
<feComponentTransfer in="alphaNoise" result="coloredNoise1">
<feFuncA type="discrete" tableValues="1 1 1 1 1 1 1 1 1 1 1 1 1 1 1 1 1 1 1 1 1 1 1 1 1 1 1 1 1 1 1 1 1 1 1 1 1 1 1 1 1 1 1 1 1 1 1 1 1 1 1 0 0 0 0 0 0 0 0 0 0 0 0 0 0 0 0 0 0 0 0 0 0 0 0 0 0 0 0 0 0 0 0 0 0 0 0 0 0 0 0 0 0 0 0 0 0 0 0 0 "/>
</feComponentTransfer>
<feComposite operator="in" in2="shape" in="coloredNoise1" result="noise1Clipped" />
<feFlood flood-color="#DEECFC" result="color1Flood" />
<feComposite operator="in" in2="noise1Clipped" in="color1Flood" result="color1" />
<feMerge result="effect1_noise_248_55763">
<feMergeNode in="shape" />
<feMergeNode in="color1" />
</feMerge>
</filter>
<filter id="filter1_n_248_55763" x="64" y="66.3594" width="258.397" height="150.87" filterUnits="userSpaceOnUse" color-interpolation-filters="sRGB">
<feFlood flood-opacity="0" result="BackgroundImageFix"/>
<feBlend mode="normal" in="SourceGraphic" in2="BackgroundImageFix" result="shape"/>
<feTurbulence type="fractalNoise" baseFrequency="1.2266449928283691 1.2266449928283691" stitchTiles="stitch" numOctaves="3" result="noise" seed="5782" />
<feColorMatrix in="noise" type="luminanceToAlpha" result="alphaNoise" />
<feComponentTransfer in="alphaNoise" result="coloredNoise1">
<feFuncA type="discrete" tableValues="1 1 1 1 1 1 1 1 1 1 1 1 1 1 1 1 1 1 1 1 1 1 1 1 1 1 1 1 1 1 1 1 1 1 1 1 1 1 1 1 1 1 1 1 1 1 1 1 1 1 1 0 0 0 0 0 0 0 0 0 0 0 0 0 0 0 0 0 0 0 0 0 0 0 0 0 0 0 0 0 0 0 0 0 0 0 0 0 0 0 0 0 0 0 0 0 0 0 0 0 "/>
</feComponentTransfer>
<feComposite operator="in" in2="shape" in="coloredNoise1" result="noise1Clipped" />
<feFlood flood-color="rgba(176, 210, 249, 0.5)" result="color1Flood" />
<feComposite operator="in" in2="noise1Clipped" in="color1Flood" result="color1" />
<feMerge result="effect1_noise_248_55763">
<feMergeNode in="shape" />
<feMergeNode in="color1" />
</feMerge>
</filter>
<linearGradient id="paint0_linear_248_55763" x1="177.5" y1="0" x2="177.5" y2="284" gradientUnits="userSpaceOnUse">
<stop stop-color="#F8FCFF"/>
<stop offset="1" stop-color="#EBF4FA"/>
</linearGradient>
<linearGradient id="paint1_linear_248_55763" x1="193.191" y1="217.229" x2="193.191" y2="66.3594" gradientUnits="userSpaceOnUse">
<stop offset="0.0817308" stop-color="#9EC8F4"/>
<stop offset="1" stop-color="#C1EBFF"/>
</linearGradient>
<linearGradient id="paint2_linear_248_55763" x1="205.528" y1="113.6" x2="133.087" y2="113.6" gradientUnits="userSpaceOnUse">
<stop stop-color="white"/>
<stop offset="0.75" stop-color="white"/>
</linearGradient>
<linearGradient id="paint3_linear_248_55763" x1="129.005" y1="105.172" x2="71.6074" y2="105.172" gradientUnits="userSpaceOnUse">
<stop stop-color="white"/>
<stop offset="0.75" stop-color="white"/>
</linearGradient>
<linearGradient id="paint4_linear_248_55763" x1="239.055" y1="68.6024" x2="212.354" y2="89.7104" gradientUnits="userSpaceOnUse">
<stop offset="0.08" stop-color="#69CCB4"/>
<stop offset="1" stop-color="#47AD9E"/>
</linearGradient>
<linearGradient id="paint5_linear_248_55763" x1="198.789" y1="226.318" x2="198.789" y2="198.484" gradientUnits="userSpaceOnUse">
<stop offset="0.21" stop-color="#D8D9DF"/>
<stop offset="0.51" stop-color="#D5D6DC"/>
<stop offset="0.69" stop-color="#CECFD4"/>
<stop offset="0.84" stop-color="#C2C2C5"/>
<stop offset="0.97" stop-color="#B1B1B1"/>
<stop offset="1" stop-color="#ADADAD"/>
</linearGradient>
<linearGradient id="paint6_linear_248_55763" x1="198.787" y1="106.845" x2="198.787" y2="198.481" gradientUnits="userSpaceOnUse">
<stop stop-color="white"/>
<stop offset="0.88" stop-color="white"/>
<stop offset="0.94" stop-color="#FDFDFD"/>
<stop offset="0.96" stop-color="#F7F6F7"/>
<stop offset="0.98" stop-color="#ECEAED"/>
<stop offset="0.99" stop-color="#DDD9DE"/>
<stop offset="1" stop-color="#D7D2D8"/>
</linearGradient>
<linearGradient id="paint7_linear_248_55763" x1="198.789" y1="116.543" x2="198.789" y2="194.809" gradientUnits="userSpaceOnUse">
<stop offset="0.89" stop-color="#EEE8EE"/>
<stop offset="0.94" stop-color="#ECE6EC"/>
<stop offset="0.96" stop-color="#E5E1E6"/>
<stop offset="0.98" stop-color="#D9D7DB"/>
<stop offset="0.99" stop-color="#C8CACD"/>
<stop offset="1" stop-color="#BBBFC1"/>
</linearGradient>
<linearGradient id="paint8_linear_248_55763" x1="198.787" y1="223.16" x2="198.787" y2="229.872" gradientUnits="userSpaceOnUse">
<stop offset="0.21" stop-color="#EEE8EE"/>
<stop offset="0.61" stop-color="#ECE6EC"/>
<stop offset="0.76" stop-color="#E5E1E6"/>
<stop offset="0.86" stop-color="#D9D7DB"/>
<stop offset="0.95" stop-color="#C8CACD"/>
<stop offset="1" stop-color="#BBBFC1"/>
</linearGradient>
<linearGradient id="paint9_linear_248_55763" x1="137.687" y1="222.756" x2="137.687" y2="225.102" gradientUnits="userSpaceOnUse">
<stop offset="0.3" stop-color="#F3F0F4"/>
<stop offset="0.55" stop-color="#DDDDE0"/>
<stop offset="1" stop-color="#BBBFC1"/>
</linearGradient>
<linearGradient id="paint10_linear_248_55763" x1="147.087" y1="222.756" x2="147.087" y2="225.102" gradientUnits="userSpaceOnUse">
<stop offset="0.3" stop-color="#F3F0F4"/>
<stop offset="0.55" stop-color="#DDDDE0"/>
<stop offset="1" stop-color="#BBBFC1"/>
</linearGradient>
<linearGradient id="paint11_linear_248_55763" x1="156.487" y1="222.756" x2="156.487" y2="225.102" gradientUnits="userSpaceOnUse">
<stop offset="0.3" stop-color="#F3F0F4"/>
<stop offset="0.55" stop-color="#DDDDE0"/>
<stop offset="1" stop-color="#BBBFC1"/>
</linearGradient>
<linearGradient id="paint12_linear_248_55763" x1="165.887" y1="222.756" x2="165.887" y2="225.102" gradientUnits="userSpaceOnUse">
<stop offset="0.3" stop-color="#F3F0F4"/>
<stop offset="0.55" stop-color="#DDDDE0"/>
<stop offset="1" stop-color="#BBBFC1"/>
</linearGradient>
<linearGradient id="paint13_linear_248_55763" x1="175.288" y1="222.756" x2="175.288" y2="225.102" gradientUnits="userSpaceOnUse">
<stop offset="0.3" stop-color="#F3F0F4"/>
<stop offset="0.55" stop-color="#DDDDE0"/>
<stop offset="1" stop-color="#BBBFC1"/>
</linearGradient>
<linearGradient id="paint14_linear_248_55763" x1="184.688" y1="222.756" x2="184.688" y2="225.102" gradientUnits="userSpaceOnUse">
<stop offset="0.3" stop-color="#F3F0F4"/>
<stop offset="0.55" stop-color="#DDDDE0"/>
<stop offset="1" stop-color="#BBBFC1"/>
</linearGradient>
<linearGradient id="paint15_linear_248_55763" x1="194.089" y1="222.756" x2="194.089" y2="225.102" gradientUnits="userSpaceOnUse">
<stop offset="0.3" stop-color="#F3F0F4"/>
<stop offset="0.55" stop-color="#DDDDE0"/>
<stop offset="1" stop-color="#BBBFC1"/>
</linearGradient>
<linearGradient id="paint16_linear_248_55763" x1="203.489" y1="222.756" x2="203.489" y2="225.102" gradientUnits="userSpaceOnUse">
<stop offset="0.3" stop-color="#F3F0F4"/>
<stop offset="0.55" stop-color="#DDDDE0"/>
<stop offset="1" stop-color="#BBBFC1"/>
</linearGradient>
<linearGradient id="paint17_linear_248_55763" x1="212.887" y1="222.756" x2="212.887" y2="225.102" gradientUnits="userSpaceOnUse">
<stop offset="0.3" stop-color="#F3F0F4"/>
<stop offset="0.55" stop-color="#DDDDE0"/>
<stop offset="1" stop-color="#BBBFC1"/>
</linearGradient>
<linearGradient id="paint18_linear_248_55763" x1="222.288" y1="222.756" x2="222.288" y2="225.102" gradientUnits="userSpaceOnUse">
<stop offset="0.3" stop-color="#F3F0F4"/>
<stop offset="0.55" stop-color="#DDDDE0"/>
<stop offset="1" stop-color="#BBBFC1"/>
</linearGradient>
<linearGradient id="paint19_linear_248_55763" x1="231.69" y1="222.756" x2="231.69" y2="225.102" gradientUnits="userSpaceOnUse">
<stop offset="0.3" stop-color="#F3F0F4"/>
<stop offset="0.55" stop-color="#DDDDE0"/>
<stop offset="1" stop-color="#BBBFC1"/>
</linearGradient>
<linearGradient id="paint20_linear_248_55763" x1="241.091" y1="222.756" x2="241.091" y2="225.102" gradientUnits="userSpaceOnUse">
<stop offset="0.3" stop-color="#F3F0F4"/>
<stop offset="0.55" stop-color="#DDDDE0"/>
<stop offset="1" stop-color="#BBBFC1"/>
</linearGradient>
<linearGradient id="paint21_linear_248_55763" x1="250.49" y1="222.756" x2="250.49" y2="225.102" gradientUnits="userSpaceOnUse">
<stop offset="0.3" stop-color="#F3F0F4"/>
<stop offset="0.55" stop-color="#DDDDE0"/>
<stop offset="1" stop-color="#BBBFC1"/>
</linearGradient>
<linearGradient id="paint22_linear_248_55763" x1="259.89" y1="222.756" x2="259.89" y2="225.102" gradientUnits="userSpaceOnUse">
<stop offset="0.3" stop-color="#F3F0F4"/>
<stop offset="0.55" stop-color="#DDDDE0"/>
<stop offset="1" stop-color="#BBBFC1"/>
</linearGradient>
<linearGradient id="paint23_linear_248_55763" x1="136.822" y1="224.142" x2="136.822" y2="226.488" gradientUnits="userSpaceOnUse">
<stop offset="0.3" stop-color="#F3F0F4"/>
<stop offset="0.58" stop-color="#DFDEE2"/>
<stop offset="1" stop-color="#BBBFC1"/>
</linearGradient>
<linearGradient id="paint24_linear_248_55763" x1="146.373" y1="224.142" x2="146.373" y2="226.488" gradientUnits="userSpaceOnUse">
<stop offset="0.3" stop-color="#F3F0F4"/>
<stop offset="0.58" stop-color="#DFDEE2"/>
<stop offset="1" stop-color="#BBBFC1"/>
</linearGradient>
<linearGradient id="paint25_linear_248_55763" x1="155.922" y1="224.142" x2="155.922" y2="226.487" gradientUnits="userSpaceOnUse">
<stop offset="0.3" stop-color="#F3F0F4"/>
<stop offset="0.58" stop-color="#DFDEE2"/>
<stop offset="1" stop-color="#BBBFC1"/>
</linearGradient>
<linearGradient id="paint26_linear_248_55763" x1="165.473" y1="224.142" x2="165.473" y2="226.487" gradientUnits="userSpaceOnUse">
<stop offset="0.3" stop-color="#F3F0F4"/>
<stop offset="0.58" stop-color="#DFDEE2"/>
<stop offset="1" stop-color="#BBBFC1"/>
</linearGradient>
<linearGradient id="paint27_linear_248_55763" x1="175.022" y1="224.142" x2="175.022" y2="226.487" gradientUnits="userSpaceOnUse">
<stop offset="0.3" stop-color="#F3F0F4"/>
<stop offset="0.58" stop-color="#DFDEE2"/>
<stop offset="1" stop-color="#BBBFC1"/>
</linearGradient>
<linearGradient id="paint28_linear_248_55763" x1="184.571" y1="224.142" x2="184.571" y2="226.487" gradientUnits="userSpaceOnUse">
<stop offset="0.3" stop-color="#F3F0F4"/>
<stop offset="0.58" stop-color="#DFDEE2"/>
<stop offset="1" stop-color="#BBBFC1"/>
</linearGradient>
<linearGradient id="paint29_linear_248_55763" x1="194.12" y1="224.142" x2="194.12" y2="226.488" gradientUnits="userSpaceOnUse">
<stop offset="0.3" stop-color="#F3F0F4"/>
<stop offset="0.58" stop-color="#DFDEE2"/>
<stop offset="1" stop-color="#BBBFC1"/>
</linearGradient>
<linearGradient id="paint30_linear_248_55763" x1="203.671" y1="224.142" x2="203.671" y2="226.488" gradientUnits="userSpaceOnUse">
<stop offset="0.3" stop-color="#F3F0F4"/>
<stop offset="0.58" stop-color="#DFDEE2"/>
<stop offset="1" stop-color="#BBBFC1"/>
</linearGradient>
<linearGradient id="paint31_linear_248_55763" x1="213.219" y1="224.142" x2="213.219" y2="226.488" gradientUnits="userSpaceOnUse">
<stop offset="0.3" stop-color="#F3F0F4"/>
<stop offset="0.58" stop-color="#DFDEE2"/>
<stop offset="1" stop-color="#BBBFC1"/>
</linearGradient>
<linearGradient id="paint32_linear_248_55763" x1="222.768" y1="224.142" x2="222.768" y2="226.488" gradientUnits="userSpaceOnUse">
<stop offset="0.3" stop-color="#F3F0F4"/>
<stop offset="0.58" stop-color="#DFDEE2"/>
<stop offset="1" stop-color="#BBBFC1"/>
</linearGradient>
<linearGradient id="paint33_linear_248_55763" x1="232.317" y1="224.142" x2="232.317" y2="226.487" gradientUnits="userSpaceOnUse">
<stop offset="0.3" stop-color="#F3F0F4"/>
<stop offset="0.58" stop-color="#DFDEE2"/>
<stop offset="1" stop-color="#BBBFC1"/>
</linearGradient>
<linearGradient id="paint34_linear_248_55763" x1="241.867" y1="224.142" x2="241.867" y2="226.487" gradientUnits="userSpaceOnUse">
<stop offset="0.3" stop-color="#F3F0F4"/>
<stop offset="0.58" stop-color="#DFDEE2"/>
<stop offset="1" stop-color="#BBBFC1"/>
</linearGradient>
<linearGradient id="paint35_linear_248_55763" x1="251.418" y1="224.142" x2="251.418" y2="226.487" gradientUnits="userSpaceOnUse">
<stop offset="0.3" stop-color="#F3F0F4"/>
<stop offset="0.58" stop-color="#DFDEE2"/>
<stop offset="1" stop-color="#BBBFC1"/>
</linearGradient>
<linearGradient id="paint36_linear_248_55763" x1="260.968" y1="224.142" x2="260.968" y2="226.487" gradientUnits="userSpaceOnUse">
<stop offset="0.3" stop-color="#F3F0F4"/>
<stop offset="0.58" stop-color="#DFDEE2"/>
<stop offset="1" stop-color="#BBBFC1"/>
</linearGradient>
<linearGradient id="paint37_linear_248_55763" x1="136.229" y1="225.734" x2="136.229" y2="228.079" gradientUnits="userSpaceOnUse">
<stop offset="0.3" stop-color="#F3F0F4"/>
<stop offset="0.65" stop-color="#F1EEF2"/>
<stop offset="0.78" stop-color="#EAE8EC"/>
<stop offset="0.87" stop-color="#DEDEE1"/>
<stop offset="0.94" stop-color="#CDCFD2"/>
<stop offset="1" stop-color="#BBBFC1"/>
</linearGradient>
<linearGradient id="paint38_linear_248_55763" x1="145.89" y1="225.734" x2="145.89" y2="228.08" gradientUnits="userSpaceOnUse">
<stop offset="0.3" stop-color="#F3F0F4"/>
<stop offset="0.65" stop-color="#F1EEF2"/>
<stop offset="0.78" stop-color="#EAE8EC"/>
<stop offset="0.87" stop-color="#DEDEE1"/>
<stop offset="0.94" stop-color="#CDCFD2"/>
<stop offset="1" stop-color="#BBBFC1"/>
</linearGradient>
<linearGradient id="paint39_linear_248_55763" x1="155.55" y1="225.734" x2="155.55" y2="228.08" gradientUnits="userSpaceOnUse">
<stop offset="0.3" stop-color="#F3F0F4"/>
<stop offset="0.65" stop-color="#F1EEF2"/>
<stop offset="0.78" stop-color="#EAE8EC"/>
<stop offset="0.87" stop-color="#DEDEE1"/>
<stop offset="0.94" stop-color="#CDCFD2"/>
<stop offset="1" stop-color="#BBBFC1"/>
</linearGradient>
<linearGradient id="paint40_linear_248_55763" x1="165.205" y1="225.734" x2="165.205" y2="228.08" gradientUnits="userSpaceOnUse">
<stop offset="0.3" stop-color="#F3F0F4"/>
<stop offset="0.65" stop-color="#F1EEF2"/>
<stop offset="0.78" stop-color="#EAE8EC"/>
<stop offset="0.87" stop-color="#DEDEE1"/>
<stop offset="0.94" stop-color="#CDCFD2"/>
<stop offset="1" stop-color="#BBBFC1"/>
</linearGradient>
<linearGradient id="paint41_linear_248_55763" x1="199.003" y1="225.734" x2="199.003" y2="228.079" gradientUnits="userSpaceOnUse">
<stop offset="0.3" stop-color="#F3F0F4"/>
<stop offset="0.65" stop-color="#F1EEF2"/>
<stop offset="0.78" stop-color="#EAE8EC"/>
<stop offset="0.87" stop-color="#DEDEE1"/>
<stop offset="0.94" stop-color="#CDCFD2"/>
<stop offset="1" stop-color="#BBBFC1"/>
</linearGradient>
<linearGradient id="paint42_linear_248_55763" x1="232.823" y1="225.734" x2="232.823" y2="228.079" gradientUnits="userSpaceOnUse">
<stop offset="0.3" stop-color="#F3F0F4"/>
<stop offset="0.65" stop-color="#F1EEF2"/>
<stop offset="0.78" stop-color="#EAE8EC"/>
<stop offset="0.87" stop-color="#DEDEE1"/>
<stop offset="0.94" stop-color="#CDCFD2"/>
<stop offset="1" stop-color="#BBBFC1"/>
</linearGradient>
<linearGradient id="paint43_linear_248_55763" x1="242.49" y1="225.734" x2="242.49" y2="228.079" gradientUnits="userSpaceOnUse">
<stop offset="0.3" stop-color="#F3F0F4"/>
<stop offset="0.65" stop-color="#F1EEF2"/>
<stop offset="0.78" stop-color="#EAE8EC"/>
<stop offset="0.87" stop-color="#DEDEE1"/>
<stop offset="0.94" stop-color="#CDCFD2"/>
<stop offset="1" stop-color="#BBBFC1"/>
</linearGradient>
<linearGradient id="paint44_linear_248_55763" x1="252.146" y1="225.734" x2="252.146" y2="228.08" gradientUnits="userSpaceOnUse">
<stop offset="0.3" stop-color="#F3F0F4"/>
<stop offset="0.65" stop-color="#F1EEF2"/>
<stop offset="0.78" stop-color="#EAE8EC"/>
<stop offset="0.87" stop-color="#DEDEE1"/>
<stop offset="0.94" stop-color="#CDCFD2"/>
<stop offset="1" stop-color="#BBBFC1"/>
</linearGradient>
<linearGradient id="paint45_linear_248_55763" x1="261.806" y1="225.734" x2="261.806" y2="228.08" gradientUnits="userSpaceOnUse">
<stop offset="0.3" stop-color="#F3F0F4"/>
<stop offset="0.65" stop-color="#F1EEF2"/>
<stop offset="0.78" stop-color="#EAE8EC"/>
<stop offset="0.87" stop-color="#DEDEE1"/>
<stop offset="0.94" stop-color="#CDCFD2"/>
<stop offset="1" stop-color="#BBBFC1"/>
</linearGradient>
<linearGradient id="paint46_linear_248_55763" x1="250.436" y1="153.706" x2="262.445" y2="153.706" gradientUnits="userSpaceOnUse">
<stop stop-color="#E38735"/>
<stop offset="1" stop-color="#EB9E44"/>
</linearGradient>
<linearGradient id="paint47_linear_248_55763" x1="197.927" y1="180.592" x2="197.927" y2="129.642" gradientUnits="userSpaceOnUse">
<stop offset="0.28" stop-color="white"/>
<stop offset="1" stop-color="#E15CA7"/>
</linearGradient>
<linearGradient id="paint48_linear_248_55763" x1="133.051" y1="98.6539" x2="133.051" y2="94.2294" gradientUnits="userSpaceOnUse">
<stop stop-color="#3036BC"/>
<stop offset="1" stop-color="#3D52E1"/>
</linearGradient>
<linearGradient id="paint49_linear_248_55763" x1="138.319" y1="98.6525" x2="138.319" y2="92.4832" gradientUnits="userSpaceOnUse">
<stop stop-color="#3036BC"/>
<stop offset="1" stop-color="#3D52E1"/>
</linearGradient>
<linearGradient id="paint50_linear_248_55763" x1="148.854" y1="98.6525" x2="148.854" y2="92.4832" gradientUnits="userSpaceOnUse">
<stop stop-color="#3036BC"/>
<stop offset="1" stop-color="#3D52E1"/>
</linearGradient>
<linearGradient id="paint51_linear_248_55763" x1="154.121" y1="98.6526" x2="154.121" y2="90.5221" gradientUnits="userSpaceOnUse">
<stop stop-color="#3036BC"/>
<stop offset="1" stop-color="#3D52E1"/>
</linearGradient>
<linearGradient id="paint52_linear_248_55763" x1="159.389" y1="98.6527" x2="159.389" y2="86.989" gradientUnits="userSpaceOnUse">
<stop stop-color="#E38735"/>
<stop offset="1" stop-color="#EB9E44"/>
</linearGradient>
<linearGradient id="paint53_linear_248_55763" x1="143.584" y1="98.6546" x2="143.584" y2="89.1843" gradientUnits="userSpaceOnUse">
<stop stop-color="#3036BC"/>
<stop offset="1" stop-color="#3D52E1"/>
</linearGradient>
<linearGradient id="paint54_linear_248_55763" x1="265.88" y1="176.589" x2="277.796" y2="176.589" gradientUnits="userSpaceOnUse">
<stop stop-color="#3036BC"/>
<stop offset="1" stop-color="#3D52E1"/>
</linearGradient>
<linearGradient id="paint55_linear_248_55763" x1="272.353" y1="172.773" x2="278.31" y2="172.773" gradientUnits="userSpaceOnUse">
<stop stop-color="#E38735"/>
<stop offset="1" stop-color="#EB9E44"/>
</linearGradient>
<linearGradient id="paint56_linear_248_55763" x1="137.181" y1="102.129" x2="110.898" y2="102.129" gradientUnits="userSpaceOnUse">
<stop stop-color="#E3D535"/>
<stop offset="1" stop-color="#F2A72F"/>
</linearGradient>
<linearGradient id="paint57_linear_248_55763" x1="116.476" y1="233.651" x2="116.476" y2="159.303" gradientUnits="userSpaceOnUse">
<stop offset="0.21" stop-color="#303EBC"/>
<stop offset="1" stop-color="#365FC8"/>
</linearGradient>
<linearGradient id="paint58_linear_248_55763" x1="105.419" y1="232.276" x2="105.419" y2="156.994" gradientUnits="userSpaceOnUse">
<stop offset="0.21" stop-color="#3036BC"/>
<stop offset="1" stop-color="#3D52E1"/>
</linearGradient>
<linearGradient id="paint59_linear_248_55763" x1="123.947" y1="121.4" x2="77.1123" y2="121.4" gradientUnits="userSpaceOnUse">
<stop stop-color="#E3D535"/>
<stop offset="1" stop-color="#F2A72F"/>
</linearGradient>
<linearGradient id="paint60_linear_248_55763" x1="274.12" y1="231.65" x2="292.745" y2="231.65" gradientUnits="userSpaceOnUse">
<stop offset="0.21" stop-color="#717170"/>
<stop offset="1" stop-color="#848484"/>
</linearGradient>
<linearGradient id="paint61_linear_248_55763" x1="296.964" y1="231.473" x2="315.481" y2="231.473" gradientUnits="userSpaceOnUse">
<stop offset="0.21" stop-color="#888884"/>
<stop offset="1" stop-color="#6E6E6D"/>
</linearGradient>
<linearGradient id="paint62_linear_248_55763" x1="289.623" y1="227.059" x2="289.623" y2="146.7" gradientUnits="userSpaceOnUse">
<stop offset="0.0817308" stop-color="#6784A2"/>
<stop offset="1" stop-color="#62767F"/>
</linearGradient>
<linearGradient id="paint63_linear_248_55763" x1="300.847" y1="226.012" x2="300.847" y2="145.698" gradientUnits="userSpaceOnUse">
<stop offset="0.0817308" stop-color="#6784A2"/>
<stop offset="1" stop-color="#62767F"/>
</linearGradient>
<linearGradient id="paint64_linear_248_55763" x1="293.991" y1="150.584" x2="293.991" y2="101.08" gradientUnits="userSpaceOnUse">
<stop stop-color="#C9316F"/>
<stop offset="0.67" stop-color="#E15CA7"/>
</linearGradient>
<linearGradient id="paint65_linear_248_55763" x1="286.228" y1="131.476" x2="285.944" y2="130.089" gradientUnits="userSpaceOnUse">
<stop offset="0.0817308" stop-color="#4C99EB"/>
<stop offset="1" stop-color="#56BDED"/>
</linearGradient>
<linearGradient id="paint66_linear_248_55763" x1="274.078" y1="135.707" x2="274.078" y2="110.284" gradientUnits="userSpaceOnUse">
<stop offset="0.0817308" stop-color="#4C99EB"/>
<stop offset="1" stop-color="#56BDED"/>
</linearGradient>
<linearGradient id="paint67_linear_248_55763" x1="308.578" y1="118.007" x2="308.578" y2="101.449" gradientUnits="userSpaceOnUse">
<stop stop-color="#C9316F"/>
<stop offset="1" stop-color="#E15CA7"/>
</linearGradient>
<linearGradient id="paint68_linear_248_55763" x1="29.0514" y1="36.4757" x2="29.0514" y2="32.3397" gradientUnits="userSpaceOnUse">
<stop offset="0.0817308" stop-color="#4C99EB"/>
<stop offset="1" stop-color="#56BDED"/>
</linearGradient>
<linearGradient id="paint69_linear_248_55763" x1="170.526" y1="42.9092" x2="170.526" y2="46.1927" gradientUnits="userSpaceOnUse">
<stop stop-color="#80D1E5"/>
<stop offset="1" stop-color="#24A3C2"/>
</linearGradient>
<linearGradient id="paint70_linear_248_55763" x1="173.399" y1="56.8635" x2="173.399" y2="48.6548" gradientUnits="userSpaceOnUse">
<stop offset="0.0817308" stop-color="#4C99EB"/>
<stop offset="1" stop-color="#56BDED"/>
</linearGradient>
<linearGradient id="paint71_linear_248_55763" x1="53.1021" y1="206.857" x2="53.1021" y2="198.648" gradientUnits="userSpaceOnUse">
<stop offset="0.0817308" stop-color="#4C99EB"/>
<stop offset="1" stop-color="#56BDED"/>
</linearGradient>
<linearGradient id="paint72_linear_248_55763" x1="301.045" y1="264.956" x2="301.045" y2="253.464" gradientUnits="userSpaceOnUse">
<stop offset="0.0817308" stop-color="#4C99EB"/>
<stop offset="1" stop-color="#56BDED"/>
</linearGradient>
<linearGradient id="paint73_linear_248_55763" x1="291.809" y1="263.725" x2="291.809" y2="269.882" gradientUnits="userSpaceOnUse">
<stop stop-color="#80D1E5"/>
<stop offset="1" stop-color="#24A3C2"/>
</linearGradient>
<linearGradient id="paint74_linear_248_55763" x1="294.475" y1="31.8627" x2="294.475" y2="29.3811" gradientUnits="userSpaceOnUse">
<stop offset="0.0817308" stop-color="#4C99EB"/>
<stop offset="1" stop-color="#56BDED"/>
</linearGradient>
<linearGradient id="paint75_linear_248_55763" x1="290.578" y1="33.1038" x2="290.578" y2="39.3078" gradientUnits="userSpaceOnUse">
<stop stop-color="#80D1E5"/>
<stop offset="1" stop-color="#24A3C2"/>
</linearGradient>
</defs>
</svg>
