<svg width="98" height="106" viewBox="0 0 98 106" fill="none" xmlns="http://www.w3.org/2000/svg">
<path d="M34.5625 106C18.9336 106 6.26401 104.34 6.26401 102.291C6.26401 100.243 18.9336 98.5828 34.5625 98.5828C50.1915 98.5828 62.8613 100.243 62.8613 102.291C62.8613 104.34 50.1915 106 34.5625 106Z" fill="#CDDAE7"/>
<path d="M81.5767 99.1606C72.5063 99.1606 65.1531 97.8353 65.1531 96.2004C65.1531 94.5656 72.5063 93.2402 81.5767 93.2402C90.6471 93.2402 98 94.5656 98 96.2004C98 97.8353 90.6471 99.1606 81.5767 99.1606Z" fill="#CDDAE7"/>
<path d="M33.2659 10.785C46.2339 0.998994 64.1197 4.38016 73.2131 18.3392C77.8856 25.5091 79.3263 34.079 77.864 42.0408C77.3766 44.6969 75.6504 49.5816 77.7491 53.1131C79.4597 55.9931 80.9002 57.9777 82.0458 59.9823C84.5637 64.3892 84.4052 65.6421 84.4052 65.6421C84.4052 65.6421 80.9995 70.1058 74.9082 74.7031C68.817 79.3004 63.7564 81.2249 63.7564 81.2249C63.7564 81.2249 62.6047 80.9576 59.6149 76.9082C58.2551 75.0673 57.0131 72.9324 55.0789 70.2194C52.7101 66.8917 47.8516 66.9719 45.3679 66.5609C37.9137 65.3247 30.9187 60.9479 26.2462 53.7746C17.1528 39.8189 20.2948 20.571 33.2659 10.785Z" fill="#F1B146"/>
<path opacity="0.6" d="M44.6848 7.31423C40.8785 8.08601 37.3299 9.69975 34.1321 12.112C28.1898 16.5957 24.2252 23.3013 22.9679 30.9958C21.7105 38.6903 23.3156 46.4483 27.482 52.8431C29.6459 56.1641 32.3626 58.9138 35.551 61.0087C38.6339 63.0334 42.0115 64.3631 45.5974 64.9578C45.9855 65.0213 46.47 65.0781 46.9854 65.1349C49.7454 65.4489 53.9179 65.92 56.2774 69.231C57.2647 70.6176 58.0842 71.8671 58.8045 72.9664C59.5248 74.0656 60.1457 75.0144 60.7976 75.8965C62.4089 78.0782 63.3963 79.0304 63.8838 79.4314C65.3926 78.7732 69.4316 76.8554 74.0451 73.374C78.6585 69.8926 81.7105 66.4579 82.8002 65.1583C82.617 64.5268 82.1204 63.2037 80.7637 60.8316C80.2173 59.8727 79.5993 58.9205 78.8821 57.8179C78.1649 56.712 77.3549 55.4625 76.4793 53.9891C74.3899 50.4742 75.3989 46.0908 76.0664 43.1907C76.1906 42.6528 76.3084 42.1416 76.3829 41.7273C77.0877 37.8984 77.0783 34.0228 76.3581 30.2173C75.613 26.2748 74.1382 22.593 71.9743 19.2719C68.9162 14.5777 64.6972 10.9861 59.7701 8.88454C54.9642 6.83312 49.7485 6.29186 44.6818 7.31757M44.4053 5.72055C55.1318 3.54885 66.5382 8.09269 73.2131 18.3364C77.8856 25.5064 79.3263 34.0762 77.864 42.038C77.3766 44.6942 75.6504 49.5788 77.7491 53.1104C79.4597 55.9904 80.9002 57.975 82.0458 59.9796C84.5637 64.3865 84.4052 65.6394 84.4052 65.6394C84.4052 65.6394 80.9995 70.1031 74.9082 74.7004C68.817 79.2977 63.7564 81.2222 63.7564 81.2222C63.7564 81.2222 62.6047 80.9549 59.6149 76.9055C58.2551 75.0646 57.0131 72.9296 55.0789 70.2167C52.7101 66.889 47.8516 66.9691 45.3679 66.5582C37.9137 65.322 30.9187 60.9452 26.2462 53.7719C17.1528 39.8162 20.2948 20.5683 33.2659 10.7823C36.7182 8.17957 40.5152 6.5057 44.4053 5.7172V5.72055Z" fill="#FFF6E1"/>
<path opacity="0.32" d="M44.4044 5.72076C40.5143 6.50925 36.7173 8.17978 33.265 10.7858C20.297 20.5718 17.155 39.8164 26.2453 53.7754C30.9178 60.9454 37.9128 65.3255 45.367 66.5617C47.8507 66.9727 52.7092 66.8925 55.078 70.2202C57.0122 72.9332 58.2511 75.0648 59.614 76.909C62.6038 80.9584 63.7555 81.2257 63.7555 81.2257C63.7555 81.2257 68.8161 79.3013 74.9073 74.7039C80.9986 70.1066 84.4043 65.6429 84.4043 65.6429C84.4043 65.6429 84.5628 64.3867 82.045 59.9832C80.8993 57.9785 79.4588 55.9939 77.7482 53.1139C75.6495 49.5824 77.3757 44.6944 77.8631 42.0416C79.3254 34.0765 77.8847 25.5099 73.2122 18.34C66.5404 8.09625 55.1309 3.54904 44.4044 5.72408M44.1251 4.12706C49.7507 2.98775 55.5469 3.58915 60.8838 5.86442C66.3603 8.20318 71.0482 12.1924 74.4447 17.4045C76.8477 21.093 78.4871 25.1859 79.3129 29.566C80.1108 33.7958 80.1201 38.0991 79.3408 42.3523C79.2508 42.8434 79.1235 43.388 78.9931 43.966C78.4156 46.4685 77.6271 49.8965 79.0179 52.2352C79.8593 53.6518 80.6539 54.8747 81.3525 55.9572C82.0634 57.053 82.7341 58.0888 83.3302 59.1278C85.1339 62.2852 86.0468 64.6774 85.9009 65.8568L85.8451 66.3145L85.575 66.6687C85.429 66.8591 81.9672 71.3562 75.7766 76.027C69.5859 80.6978 64.4758 82.6657 64.2616 82.7493L63.858 82.9029L63.439 82.806C62.3586 82.5555 60.5826 80.8148 58.4373 77.9147C57.7326 76.9592 57.0559 75.9268 56.3387 74.8342C55.6339 73.7584 54.8359 72.5389 53.8859 71.2058C52.315 69.0007 49.0519 68.6299 46.6707 68.3626C46.1212 68.2991 45.6028 68.2423 45.1402 68.1655C41.157 67.5073 37.4034 66.0305 33.979 63.7786C30.4335 61.4499 27.4159 58.3962 25.0129 54.7076C20.3839 47.6045 18.602 38.9845 19.9991 30.438C21.3931 21.8916 25.7984 14.4409 32.3988 9.4594C35.9505 6.77986 39.8966 4.98572 44.1251 4.1304V4.12706Z" fill="#FFF6E1"/>
<path d="M30.9424 43.6148C24.8574 34.2766 27.8466 20.728 37.6188 13.3533C47.3911 5.97862 60.246 7.57044 66.331 16.9086C72.4159 26.2467 69.4266 39.795 59.6543 47.1697C49.882 54.5445 37.0273 52.9529 30.9424 43.6148Z" fill="url(#paint0_linear_248_53798)"/>
<path d="M64.4993 78.9664C63.9135 78.0675 67.3069 74.4196 72.0786 70.8186C76.8503 67.2175 81.1935 65.0271 81.7792 65.926C82.365 66.8249 78.9716 70.4729 74.1999 74.0739C69.4281 77.6749 65.085 79.8654 64.4993 78.9664Z" fill="#0D657F"/>
<path d="M63.9822 81.1658C63.9822 81.1658 68.9402 79.3181 74.8887 74.8311C80.8341 70.344 84.1404 65.9572 84.1404 65.9572C84.1404 65.9572 84.2149 65.5162 84.3235 65.75C85.2674 67.8014 85.2052 68.4496 85.2052 68.4496C85.2052 68.4496 82.0665 72.7128 76.354 77.0228C70.6446 81.3328 65.848 83.0535 65.848 83.0535C65.848 83.0535 65.2519 82.8931 63.7648 81.2125C63.6654 81.1023 63.9822 81.1658 63.9822 81.1658Z" fill="#5D819F"/>
<path opacity="0.5" d="M85.42 94.928L89.1177 92.1382C92.806 89.3551 88.9468 87.2436 93.3398 83.261C91.9738 81.1628 87.8352 81.7241 84.1469 84.5072L80.4496 87.297C76.7613 90.0801 74.858 94.0761 76.2271 96.1743C80.7195 93.3845 81.7317 97.7112 85.42 94.928Z" fill="#1F638B"/>
<path d="M67.4721 82.8097C68.6704 82.3487 72.008 80.8886 76.5874 77.4306C80.8686 74.1998 83.3865 71.3766 84.4111 70.1203C84.7743 69.676 87.4814 71.6672 87.4814 71.6672C87.4814 71.6672 83.9703 75.9605 78.4068 80.1603C72.8402 84.36 67.9875 86.4114 67.9875 86.4114C67.9875 86.4114 67.1554 82.93 67.4721 82.8064V82.8097Z" fill="#144A5B"/>
<path d="M67.2477 82.1127C68.4275 81.665 71.7122 80.2451 76.2108 76.8506C80.4145 73.6799 82.8795 70.8968 83.8823 69.6572C84.2363 69.2195 86.9248 71.2242 86.9248 71.2242C86.9248 71.2242 83.491 75.4607 78.0269 79.5835C72.5627 83.7064 67.7816 85.7011 67.7816 85.7011C67.7816 85.7011 66.9311 82.233 67.2447 82.1127H67.2477Z" fill="#195871"/>
<path opacity="0.7" d="M70.7868 81.5477C72.4913 80.5721 74.5588 79.2657 76.7445 77.6186C80.8519 74.5181 83.8139 71.3541 85.0278 69.9775C85.8567 70.4386 86.8283 71.1536 86.9121 71.2171C86.909 71.2271 86.9059 71.2371 86.8997 71.2472C86.6296 71.5746 83.2612 75.6306 78.0206 79.5831C77.1916 80.2079 76.3781 80.7859 75.5926 81.3138C73.8509 81.7916 72.193 81.8718 70.7835 81.5477H70.7868Z" fill="#3488A2"/>
<g opacity="0.7">
<path d="M69.2578 85.0114C68.3295 85.4691 67.7831 85.6963 67.7831 85.6963C67.7831 85.6963 67.4695 84.41 67.2926 83.3776C67.6185 83.2239 68.0377 83.0201 68.5344 82.7695C68.6462 83.5614 68.8853 84.3198 69.2578 85.0114Z" fill="#7CBDD7"/>
<path d="M84.1067 70.9927C84.4792 70.5951 84.7928 70.2476 85.035 69.9736C85.9043 70.4547 86.9287 71.2198 86.9287 71.2198C86.9287 71.2198 86.5438 71.6976 85.8266 72.4828C85.3454 71.8713 84.7651 71.3735 84.11 70.9927H84.1067Z" fill="#7CBDD7"/>
</g>
<path opacity="0.5" d="M78.537 77.9118C76.2271 79.6558 73.8366 80.6815 72.0048 80.8553C73.4206 79.9933 75.0069 78.9442 76.6648 77.6946C79.6918 75.4093 82.0918 73.094 83.6348 71.4802C83.0852 73.4381 81.2131 75.8938 78.54 77.9118H78.537Z" fill="#7CBDD7"/>
<path d="M90.4307 90.8054C90.1606 91.2464 89.7602 91.6908 89.1424 92.1586L85.4448 94.9484C84.8332 95.4094 84.2991 95.6734 83.8054 95.807C84.7741 94.9049 85.8514 93.9995 87.0125 93.1241C88.1675 92.2521 89.3192 91.477 90.4307 90.8054Z" fill="#195871"/>
<path d="M69.4555 86.1506C70.6538 85.6895 73.9911 84.2294 78.5704 80.7714C82.8517 77.5406 85.3696 74.7174 86.3942 73.4612C86.7574 73.0168 89.4648 75.0081 89.4648 75.0081C89.4648 75.0081 85.9534 79.3013 80.3899 83.5011C74.8233 87.7008 69.9709 89.7522 69.9709 89.7522C69.9709 89.7522 69.1388 86.2708 69.4555 86.1472V86.1506Z" fill="#144A5B"/>
<path d="M69.2318 85.4536C70.4115 85.0059 73.6963 83.5859 78.1949 80.1914C82.3985 77.0207 84.8636 74.2376 85.8664 72.998C86.2203 72.5604 88.9092 74.565 88.9092 74.565C88.9092 74.565 85.4754 78.8015 80.0113 82.9244C74.5471 87.0473 69.766 89.0419 69.766 89.0419C69.766 89.0419 68.9152 85.5738 69.2287 85.4536H69.2318Z" fill="#195871"/>
<path opacity="0.7" d="M72.7709 84.8885C74.4754 83.9129 76.5432 82.6065 78.7288 80.9594C82.8362 77.8589 85.798 74.6949 87.0119 73.3184C87.8408 73.7794 88.8127 74.4944 88.8965 74.5579C88.8934 74.5679 88.8903 74.578 88.8841 74.588C88.614 74.9154 85.2452 78.9715 80.0046 82.924C79.1757 83.5487 78.3625 84.1268 77.577 84.6546C75.8353 85.1324 74.1774 85.2126 72.7679 84.8885H72.7709Z" fill="#3488A2"/>
<g opacity="0.7">
<path d="M71.2412 88.3532C70.3129 88.8109 69.7665 89.0381 69.7665 89.0381C69.7665 89.0381 69.4529 87.7518 69.276 86.7194C69.6019 86.5657 70.0211 86.3619 70.5178 86.1113C70.6296 86.9032 70.8687 87.6616 71.2412 88.3532Z" fill="#7CBDD7"/>
<path d="M86.0899 74.3335C86.4625 73.9359 86.7758 73.5884 87.018 73.3145C87.8872 73.7956 88.912 74.5607 88.912 74.5607C88.912 74.5607 88.527 75.0384 87.8099 75.8236C87.3287 75.2122 86.748 74.7144 86.0929 74.3335H86.0899Z" fill="#7CBDD7"/>
</g>
<path opacity="0.5" d="M80.5233 81.2526C78.2135 82.9967 75.8229 84.0224 73.9912 84.1961C75.4069 83.3341 76.9936 82.285 78.6514 81.0355C81.6785 78.7502 84.0781 76.4348 85.6211 74.821C85.0716 76.7789 83.1997 79.2346 80.5267 81.2526H80.5233Z" fill="#7CBDD7"/>
<path d="M71.6078 89.4953C72.8062 89.0342 76.1438 87.5742 80.7231 84.1162C85.0044 80.8853 87.522 78.0621 88.5465 76.8059C88.9098 76.3615 91.6172 78.3528 91.6172 78.3528C91.6172 78.3528 88.1057 82.6461 82.5422 86.8458C76.9756 91.0456 72.1232 93.097 72.1232 93.097C72.1232 93.097 71.2911 89.6156 71.6078 89.492V89.4953Z" fill="#144A5B"/>
<path d="M71.3834 88.8012C72.5632 88.3535 75.8479 86.9336 80.3465 83.539C84.5502 80.3684 87.0153 77.5852 88.0181 76.3457C88.372 75.908 91.0605 77.9127 91.0605 77.9127C91.0605 77.9127 87.6268 82.1492 82.1626 86.272C76.6985 90.3949 71.9174 92.3896 71.9174 92.3896C71.9174 92.3896 71.0668 88.9215 71.3804 88.8012H71.3834Z" fill="#195871"/>
<path opacity="0.7" d="M74.9233 88.2332C76.6277 87.2576 78.6955 85.9513 80.8812 84.3041C84.9886 81.2036 87.9503 78.0396 89.1642 76.6631C89.9932 77.1242 90.965 77.8392 91.0488 77.9026C91.0457 77.9127 91.0426 77.9227 91.0364 77.9327C90.7663 78.2601 87.3979 82.3162 82.1573 86.2687C81.3283 86.8935 80.5148 87.4715 79.7294 87.9994C77.9877 88.4771 76.3297 88.5573 74.9202 88.2332H74.9233Z" fill="#3488A2"/>
<g opacity="0.7">
<path d="M73.3916 91.6989C72.4633 92.1566 71.9169 92.3838 71.9169 92.3838C71.9169 92.3838 71.6033 91.0975 71.4263 90.0651C71.7523 89.9114 72.1715 89.7076 72.6682 89.457C72.78 90.2489 73.019 91.0073 73.3916 91.6989Z" fill="#7CBDD7"/>
<path d="M88.2385 77.6792C88.611 77.2816 88.9244 76.9341 89.1665 76.6602C90.0358 77.1413 91.0605 77.9064 91.0605 77.9064C91.0605 77.9064 90.6756 78.3842 89.9585 79.1693C89.4772 78.5579 88.8966 78.0601 88.2415 77.6792H88.2385Z" fill="#7CBDD7"/>
</g>
<path opacity="0.5" d="M82.6727 84.5976C80.3629 86.3416 77.9723 87.3673 76.1406 87.5411C77.5563 86.6791 79.143 85.63 80.8009 84.3804C83.8279 82.0951 86.2275 79.7798 87.7705 78.166C87.221 80.1239 85.3492 82.5796 82.6761 84.5976H82.6727Z" fill="#7CBDD7"/>
<path d="M73.7992 92.8634C74.9976 92.4024 78.3352 90.9423 82.9145 87.4843C87.1958 84.2535 89.7137 81.4303 90.7382 80.174C91.1015 79.7297 93.8086 81.721 93.8086 81.721C93.8086 81.721 90.2974 86.0142 84.7339 90.214C79.1673 94.4137 74.3146 96.4651 74.3146 96.4651C74.3146 96.4651 73.4825 92.9837 73.7992 92.8601V92.8634Z" fill="#144A5B"/>
<path d="M73.5749 92.1655C74.7546 91.7178 78.0393 90.2978 82.538 86.9033C86.7416 83.7326 89.2067 80.9495 90.2095 79.71C90.5634 79.2723 93.252 81.2769 93.252 81.2769C93.252 81.2769 89.8182 85.5134 84.354 89.6363C78.8899 93.7592 74.1088 95.7538 74.1088 95.7538C74.1088 95.7538 73.2583 92.2858 73.5718 92.1655H73.5749Z" fill="#195871"/>
<path opacity="0.7" d="M77.114 91.5965C78.8184 90.6209 80.8859 89.3146 83.0716 87.6674C87.179 84.5669 90.141 81.4029 91.355 80.0264C92.1839 80.4874 93.1554 81.2024 93.2393 81.2659C93.2362 81.2759 93.233 81.2859 93.2268 81.296C92.9567 81.6234 89.5883 85.6795 84.3477 89.632C83.5188 90.2567 82.7053 90.8347 81.9198 91.3626C80.1781 91.8404 78.5205 91.9206 77.111 91.5965H77.114Z" fill="#3488A2"/>
<g opacity="0.7">
<path d="M75.585 95.0612C74.6567 95.5189 74.1103 95.7461 74.1103 95.7461C74.1103 95.7461 73.797 94.4598 73.62 93.4274C73.946 93.2737 74.3651 93.0699 74.8619 92.8193C74.9736 93.6112 75.2124 94.3696 75.585 95.0612Z" fill="#7CBDD7"/>
<path d="M90.4336 81.0417C90.8061 80.6441 91.1198 80.2967 91.3619 80.0227C92.2312 80.5038 93.256 81.2689 93.256 81.2689C93.256 81.2689 92.8707 81.7467 92.1536 82.5319C91.6723 81.9204 91.092 81.4226 90.4369 81.0417H90.4336Z" fill="#7CBDD7"/>
</g>
<path opacity="0.5" d="M84.8641 87.9609C82.5543 89.7049 80.1637 90.7306 78.332 90.9044C79.7477 90.0424 81.3341 88.9933 82.992 87.7437C86.019 85.4584 88.4189 83.143 89.9619 81.5293C89.4124 83.4872 87.5403 85.9429 84.8672 87.9609H84.8641Z" fill="#7CBDD7"/>
<path d="M48.024 49.9451L47.0398 50.6868C49.7502 54.8498 53.5563 57.6195 55.8289 59.2733C56.6982 59.9082 57.521 60.5062 57.7011 60.7802L67.0647 75.1535L68.0488 74.4118L58.6852 60.0384C58.3779 59.5674 57.6327 59.0261 56.5026 58.2042C54.2983 56.5971 50.6071 53.9109 48.0209 49.9451H48.024Z" fill="#153F5E"/>
<path d="M64.4277 40.4366L64.2849 40.313L63.5615 41.1683L63.5521 41.1616C63.133 41.6728 62.5462 42.0136 61.9222 42.164C62.2078 41.5459 62.3319 40.8576 62.2357 40.2094C62.0122 38.7059 60.6959 37.9709 59.2957 38.5656L59.3051 38.6325L59.2493 38.599C58.2527 39.8118 58.445 41.3955 59.6838 42.1339C60.2178 42.4513 60.8606 42.5615 61.5002 42.4847C61.1556 43.0627 60.6556 43.5405 60.0688 43.7911L60.0749 43.8412L60.0315 43.8144C59.6124 44.3256 59.0256 44.6664 58.4016 44.8168C58.6872 44.1987 58.8113 43.5104 58.7151 42.8622C58.4916 41.3588 57.1753 40.6237 55.7751 41.2184L55.7845 41.2852L55.7284 41.2518C54.7318 42.4647 54.9244 44.0483 56.1632 44.7867C56.6972 45.1041 57.3397 45.2144 57.9793 45.1375C57.6346 45.7155 57.135 46.1933 56.5482 46.4439L56.5697 46.5842L56.4551 46.514C56.036 47.0252 55.4492 47.366 54.8252 47.5164C55.1108 46.8983 55.235 46.21 55.1387 45.5618C54.9152 44.0584 53.5989 43.3233 52.1987 43.918L52.2078 43.9848L52.152 43.9514C51.1554 45.1642 51.348 46.7479 52.5868 47.4863C53.1208 47.8037 53.7633 47.914 54.4029 47.8371C54.0583 48.4151 53.5583 48.8929 52.9715 49.1435L52.9779 49.1936L52.9342 49.1669C52.5151 49.678 51.9283 50.0188 51.3043 50.1692C51.5899 49.5511 51.7144 48.8628 51.6181 48.2147C51.3946 46.7112 50.078 45.9761 48.6778 46.5708L48.6872 46.6377L48.6314 46.6043C47.6348 47.8171 47.8271 49.4007 49.0659 50.1391C49.5999 50.4565 50.2427 50.5668 50.8823 50.4899C50.5377 51.0679 50.0377 51.5457 49.4509 51.7963V51.8063L48.4607 52.244L48.5195 52.4311L49.4788 52.0068V52.0235C50.1836 51.7228 50.7765 51.1414 51.1615 50.4431C51.8787 50.2961 52.5651 49.9119 53.0649 49.3373C53.7386 49.0299 54.3065 48.4652 54.6791 47.7903C55.4056 47.64 56.1072 47.2491 56.607 46.6544C57.2963 46.3503 57.877 45.7757 58.2558 45.0907C58.9729 44.9437 59.659 44.5595 60.1589 43.9848C60.8326 43.6775 61.4008 43.1128 61.7733 42.4379C62.5122 42.2842 63.2232 41.8833 63.7262 41.2752L63.7104 41.2652L64.4089 40.4366H64.4277ZM49.2648 49.9153C48.1502 49.2504 47.9453 47.8571 48.7867 46.778C50.0161 46.2935 51.1647 46.9784 51.3665 48.3316C51.4596 48.9664 51.3262 49.6379 51.0375 50.2293C50.4197 50.3229 49.7894 50.2293 49.2678 49.9153H49.2648ZM52.7823 47.2591C51.6678 46.5942 51.4629 45.201 52.3042 44.1218C53.5337 43.6374 54.6822 44.3223 54.884 45.6754C54.9772 46.3102 54.8438 46.9818 54.5551 47.5732C53.9373 47.6667 53.307 47.5732 52.7854 47.2591H52.7823ZM56.3587 44.5595C55.2442 43.8946 55.0393 42.5014 55.8806 41.4222C57.11 40.9378 58.2589 41.6227 58.4607 42.9759C58.5539 43.6107 58.4202 44.2822 58.1315 44.8736C57.5136 44.9671 56.8833 44.8736 56.3618 44.5595H56.3587ZM59.8763 41.9067C58.7617 41.2418 58.5568 39.8486 59.3982 38.7694C60.6276 38.285 61.7765 38.9699 61.9783 40.323C62.0714 40.9578 61.9378 41.6294 61.649 42.2208C61.0312 42.3143 60.4009 42.2208 59.8793 41.9067H59.8763Z" fill="#153F5E"/>
<path d="M59.223 38.395L59.1858 38.4418L59.133 38.4652L59.1391 38.5019C58.6144 39.1401 58.3817 39.9252 58.4996 40.6536C58.6083 41.3385 59.0056 41.9131 59.6172 42.2773C60.0705 42.548 60.6233 42.6849 61.2007 42.6682C60.8841 43.1026 60.4804 43.44 60.0395 43.6305L60.0083 43.6104L59.968 43.6605L59.9092 43.6839L59.9152 43.724C59.5986 44.1016 59.1672 44.3956 58.6797 44.5693C58.8877 43.9913 58.9591 43.3866 58.8753 42.8353C58.7666 42.0902 58.3972 41.4922 57.8384 41.148C57.2423 40.7805 56.4752 40.7505 55.7394 41.0645L55.7115 41.0478L55.6743 41.0912L55.6215 41.1146L55.6279 41.148C55.1032 41.7862 54.8702 42.5713 54.9881 43.2997C55.0968 43.9846 55.4944 44.5593 56.106 44.9235C56.5593 45.1941 57.1118 45.3311 57.6892 45.3144C57.3663 45.7554 56.9567 46.0928 56.5065 46.2866L56.4349 46.3033L56.4195 46.3234L56.3977 46.3334V46.3501L56.3573 46.4002C56.0376 46.7878 55.6028 47.0885 55.1061 47.2655C55.3141 46.6875 55.3858 46.0828 55.3019 45.5315C55.1933 44.7865 54.8236 44.1884 54.2647 43.8443C53.6686 43.4768 52.9019 43.4467 52.1661 43.7608L52.1382 43.7441L52.1009 43.7875L52.0481 43.8109L52.0545 43.8443C51.5298 44.4824 51.2968 45.2676 51.4148 45.9959C51.5234 46.6809 51.9207 47.2555 52.5323 47.6197C52.9856 47.8903 53.5384 48.0273 54.1159 48.0106C53.7992 48.4449 53.3955 48.7824 52.9547 48.9728L52.9237 48.9528L52.8834 49.0029L52.8243 49.0263L52.8307 49.0664C52.5109 49.4473 52.0823 49.7413 51.5949 49.9117C51.8029 49.3337 51.8743 48.7289 51.7904 48.1777C51.6818 47.4326 51.3124 46.8345 50.7535 46.4904C50.1574 46.1229 49.3907 46.0928 48.6549 46.4069L48.627 46.3902L48.5897 46.437L48.54 46.457L48.546 46.4904C48.0214 47.1286 47.7887 47.9137 47.9036 48.6421C48.0122 49.3237 48.4094 49.9017 49.0242 50.2658C49.4774 50.5365 50.0302 50.6701 50.6077 50.6567C50.2848 51.0978 49.8748 51.4352 49.4247 51.629L49.3131 51.6758V51.6858L48.3008 52.1335L48.4593 52.6246L49.5644 52.1535C50.2568 51.8595 50.8653 51.2982 51.2844 50.5699C52.0171 50.4028 52.6846 50.0119 53.1721 49.464L53.1969 49.4773V49.4473C53.8427 49.1399 54.4077 48.5986 54.802 47.9171C55.5378 47.75 56.2022 47.3591 56.6896 46.8112L56.7857 46.868L56.7672 46.751C57.413 46.4437 57.981 45.9024 58.3784 45.2175C59.1111 45.0504 59.7786 44.6629 60.266 44.1116L60.2909 44.1249V44.0949C60.9366 43.7875 61.5017 43.2462 61.8959 42.5647C62.6752 42.3909 63.3739 41.9633 63.8676 41.3619L63.9916 41.2115L63.9791 41.2048L64.6592 40.403L64.2835 40.0755L63.5477 40.9476L63.4577 41.0411C63.1379 41.4287 62.7 41.7294 62.2064 41.9065C62.4144 41.3285 62.4858 40.7237 62.402 40.1725C62.2933 39.4274 61.9239 38.8293 61.3651 38.4852C60.769 38.1177 60.0053 38.0876 59.2664 38.3983L59.2385 38.3816L59.223 38.395ZM61.5482 42.0702C60.9645 42.1403 60.3997 42.0334 59.9465 41.7661C59.4621 41.4788 59.1454 41.0311 59.0554 40.5066C58.9622 39.9686 59.1111 39.4073 59.4774 38.9195L59.5056 38.9362L59.4993 38.9028C60.0488 38.7024 60.589 38.7425 61.0267 39.0198C61.4551 39.2904 61.7378 39.7615 61.8247 40.3495C61.9054 40.8975 61.8059 41.5089 61.5452 42.0735L61.5482 42.0702ZM54.4542 47.4226C53.8706 47.4928 53.3055 47.3858 52.8522 47.1185C52.3679 46.8312 52.0512 46.3835 51.9611 45.8589C51.868 45.321 52.0171 44.7597 52.3835 44.2719L52.4114 44.2887L52.4053 44.2552C52.9548 44.0548 53.495 44.0949 53.9327 44.3722C54.3612 44.6428 54.6435 45.1139 54.7304 45.7019C54.8112 46.2532 54.712 46.8613 54.4512 47.4259L54.4542 47.4226ZM48.8938 46.9415L48.8877 46.9081C49.4372 46.7042 49.9805 46.7443 50.4182 47.0217C50.8467 47.2923 51.1293 47.7634 51.2162 48.3514C51.2969 48.9027 51.1974 49.5108 50.9367 50.0754C50.353 50.1456 49.7879 50.0386 49.3346 49.7714C48.8503 49.484 48.5336 49.0363 48.4436 48.5118C48.3504 47.9739 48.4996 47.4126 48.8629 46.9248L48.8908 46.9415H48.8938ZM56.4319 44.4189C55.9476 44.1316 55.6309 43.6839 55.5408 43.1594C55.4477 42.6215 55.5999 42.0602 55.9632 41.5724L55.9911 41.5891L55.9847 41.5557C56.5342 41.3552 57.0744 41.3953 57.5122 41.6726C57.9406 41.9432 58.2232 42.4143 58.3102 43.0023C58.3909 43.5536 58.2917 44.1617 58.0309 44.7263C57.4472 44.7965 56.8822 44.6896 56.4289 44.4223L56.4319 44.4189Z" fill="#153F5E"/>
<path d="M63.5473 38.2305L62.5632 38.9722C65.1462 42.938 66.2358 47.5888 66.8878 50.3686C67.22 51.7919 67.4406 52.7307 67.748 53.2018L77.1116 67.5751L78.0957 66.8334L68.7321 52.4601C68.552 52.1861 68.3097 51.1504 68.052 50.0512C67.3814 47.1879 66.2576 42.3934 63.5473 38.2305Z" fill="#153F5E"/>
<path opacity="0.65" d="M67.7882 82.3513C68.968 81.9036 72.2527 80.4837 76.7513 77.0891C80.955 73.9184 83.4201 71.1353 84.4229 69.8958C84.5595 69.7287 85.0345 69.9158 85.5716 70.2132C86.4409 70.6943 87.4653 71.4594 87.4653 71.4594C87.4653 71.4594 87.4561 71.4728 87.4374 71.4962C87.782 71.7334 88.0211 71.9071 88.0211 71.9071C88.0211 71.9071 87.6144 72.4049 86.8568 73.2268C87.0555 73.2937 87.2978 73.4106 87.5523 73.5509C88.4216 74.032 89.446 74.7971 89.446 74.7971C89.446 74.7971 89.4368 74.8105 89.4182 74.8339C89.7628 75.0711 90.0018 75.2448 90.0018 75.2448C90.0018 75.2448 89.6043 75.7293 88.8685 76.5311C89.0858 76.5779 89.384 76.7183 89.7007 76.8953C90.57 77.3764 91.5944 78.1415 91.5944 78.1415C91.5944 78.1415 91.5852 78.1549 91.5665 78.1783C91.9111 78.4155 92.1502 78.5893 92.1502 78.5893C92.1502 78.5893 91.7498 79.0771 91.0078 79.8856C91.2282 79.9224 91.5479 80.066 91.8894 80.2565C92.7587 80.7376 93.7831 81.5027 93.7831 81.5027C93.7831 81.5027 93.7739 81.516 93.7552 81.5394C94.0998 81.7767 94.3389 81.9504 94.3389 81.9504C94.3389 81.9504 94.0253 82.3346 93.4323 82.9861C93.6 83.1331 93.746 83.3002 93.8701 83.4906C90.1849 86.8317 92.3085 88.8564 90.9083 91.0648C90.9269 91.0548 90.9424 91.0414 90.9611 91.0314C90.691 91.4724 90.2906 91.9168 89.6728 92.3846L85.9752 95.1744C85.3636 95.6354 84.8295 95.8994 84.3358 96.033C84.3483 96.023 84.3577 96.013 84.3701 96.0029C81.8491 96.748 80.5327 94.0584 76.7544 96.4039C76.6519 96.2502 76.5712 96.0831 76.5061 95.9094C75.4598 96.4339 74.8419 96.6979 74.8419 96.6979C74.8419 96.6979 74.7704 96.3972 74.6772 95.9662C74.6524 95.9762 74.6402 95.9829 74.6402 95.9829C74.6402 95.9829 74.6402 95.9829 74.6402 95.9796C74.6402 95.9796 74.3266 94.6932 74.1497 93.6608C74.0845 93.2733 74.0379 92.9191 74.0348 92.6853C73.1593 93.1196 72.6501 93.3334 72.6501 93.3334C72.6501 93.3334 72.5786 93.0327 72.4855 92.6017C72.4607 92.6118 72.4482 92.6184 72.4482 92.6184C72.4482 92.6184 72.4482 92.6184 72.4482 92.6151C72.4482 92.6151 72.1346 91.3288 71.9576 90.2964C71.8956 89.9289 71.8489 89.5914 71.8427 89.3609C70.9921 89.7785 70.4984 89.989 70.4984 89.989C70.4984 89.989 70.4272 89.6883 70.3341 89.2573C70.3092 89.2673 70.2968 89.274 70.2968 89.274C70.2968 89.274 70.2968 89.274 70.2968 89.2707C70.2968 89.2707 69.9832 87.9844 69.8062 86.952C69.7504 86.6279 69.7098 86.3272 69.6974 86.1C68.9461 86.4675 68.5147 86.6479 68.5147 86.6479C68.5147 86.6479 68.4432 86.3472 68.35 85.9162C68.3252 85.9263 68.3127 85.9329 68.3127 85.9329C68.3127 85.9329 68.3127 85.9329 68.3127 85.9296C68.3127 85.9296 67.9991 84.6433 67.8222 83.6109C67.7104 82.9494 67.6547 82.3914 67.7758 82.3446L67.7882 82.3513Z" fill="#729EDB"/>
<path d="M25.8685 51.2393C26.0424 54.4333 25.9026 55.3421 26.7129 59.3948C27.9702 65.6727 27.8276 64.1926 27.9487 65.0746C28.5044 66.6249 30.1499 73.434 30.7553 74.7404C30.7894 77.3932 31.1589 79.4814 31.8792 82.7155C32.736 86.5778 35.232 93.1263 36.4894 96.7113L38.9795 96.0698C38.6163 88.9232 37.6847 79.1105 36.269 68.3088C35.3625 61.3928 36.238 54.9746 35.2445 49.3616L25.8655 51.2359L25.8685 51.2393Z" fill="#1E2D54"/>
<path d="M20.4673 50.5752C19.8495 53.7258 19.7439 57.1838 19.6414 61.3301C19.4831 67.7516 20.4951 70.6818 20.4082 71.5672C20.6535 73.2143 20.9608 74.7646 21.3272 76.1879C20.6876 78.7772 20.3151 81.8711 20.3151 85.1954C20.3151 89.168 20.5354 93.6584 21.0725 97.4605H24.1089C25.5215 90.4175 26.962 80.6415 28.0952 69.783C28.8217 62.8303 29.331 56.2818 29.626 50.5752H20.4704H20.4673Z" fill="#153F5E"/>
<path d="M29.4119 57.0994C26.0015 57.0994 23.2369 54.8272 23.2369 52.0243C23.2369 49.2214 26.0015 46.9492 29.4119 46.9492C32.8223 46.9492 35.5869 49.2214 35.5869 52.0243C35.5869 54.8272 32.8223 57.0994 29.4119 57.0994Z" fill="#153F5E"/>
<path d="M23.4377 99.7544H21.3048V96.3699H23.8164L23.4377 99.7544Z" fill="#EA9F88"/>
<path d="M24.5244 103.316V103.807H19.47V103.316C19.47 103.189 19.492 103.069 19.5231 102.959C19.3088 102.945 19.346 102.942 19.5261 102.942C19.5913 102.728 19.7123 102.554 19.8644 102.441C20.001 102.15 20.1779 101.766 20.3486 101.365C20.4977 101.014 20.5784 99.9349 20.8113 99.4003C21.1342 98.6619 21.5968 98.4949 21.5968 98.4949H21.8233C22.3263 98.8591 22.3016 99.5941 22.7735 99.7043C23.2454 99.8146 23.7298 99.5506 23.7298 99.5506L24.2543 101.816C24.3102 102.003 24.3443 102.227 24.3443 102.471V102.705C24.4468 102.878 24.512 103.089 24.512 103.323L24.5244 103.316ZM22.3915 102.29V102.297H22.5343V102.29H22.3915Z" fill="#16415D"/>
<path d="M39.4297 99.1561L37.6509 99.7441L36.7319 96.5066L38.8276 95.8184L39.4297 99.1561Z" fill="#EA9F88"/>
<path d="M35.8309 101.526L36.601 99.1903C36.601 99.1903 37.7402 99.461 38.4325 99.3507C39.128 99.2371 39.1249 98.5555 39.4012 98.1045H40.3265C40.3265 98.1045 41.5434 100.427 43.9278 101.005H45.716C46.132 101.005 46.4736 101.542 46.4736 102.204V102.735H38.9573L38.5787 102.024H38.3673V102.735H35.6944V102.204C35.6944 101.953 35.744 101.723 35.8278 101.529L35.8309 101.526Z" fill="#16415D"/>
<path d="M24.5583 20.6355C25.3251 21.0298 26.1914 21.257 27.1165 21.257C28.1752 21.257 29.1594 20.9596 30.0008 20.4518C29.6717 19.8571 29.4699 19.0853 29.4699 18.2366C29.4699 17.0806 29.8393 16.0616 30.4043 15.4535V14.0068H26.9892C26.8402 16.6997 25.9181 19.0619 24.5583 20.6355Z" fill="#EA9F86"/>
<path d="M31.3048 11.0963C30.9229 9.02818 28.8087 9.40237 27.2688 9.73314C26.2784 9.94363 25.4217 10.2844 25.0491 11.5039C24.8256 11.3035 24.5896 11.8447 24.3382 11.9082C23.8166 12.0385 23.5404 12.3091 23.7142 13.0976C23.8881 13.8861 24.4436 14.8951 24.9652 14.7648C24.99 14.7581 25.0119 14.7448 25.0367 14.7347C25.2168 15.3662 25.1237 15.9175 25.5118 16.3618C26.2724 17.2339 27.7314 17.7116 28.7031 17.725C31.8699 17.7651 31.69 13.1644 31.3081 11.0963H31.3048Z" fill="#EBB190"/>
<path d="M32.828 8.43082C32.5703 6.75025 31.8314 5.84148 29.3198 6.25577C27.6526 6.52974 24.908 7.32491 23.2718 8.21029C21.6046 9.11238 22.2319 10.519 22.4647 11.1404C23.0391 12.674 24.073 14.8724 24.8554 14.9092C25.0354 14.9192 25.169 14.839 25.2683 14.702C24.992 14.6151 24.7094 14.3813 24.5201 14.0405C24.2003 13.4658 24.2529 12.8143 24.641 12.5804C24.9577 12.39 25.3986 12.547 25.7246 12.9212C25.9885 11.6483 26.5286 10.3018 28.8198 10.7061C31.3253 11.1505 33.0888 10.1114 32.828 8.43082Z" fill="#1C3054"/>
<path d="M25.9211 34.2296C30.7053 34.2296 35.2629 33.959 39.4014 33.4712C39.1747 27.1165 35.592 21.8041 30.7084 20.0167C29.9478 20.7283 28.8176 21.1827 27.5541 21.1827C26.1601 21.1827 24.9307 20.6314 24.1763 19.7861C18.8704 21.3197 14.9058 26.9494 14.7599 33.7184C18.2588 34.0492 22.0124 34.2296 25.9181 34.2296H25.9211Z" fill="#729EDB"/>
<path d="M20.7177 51.5396C20.8916 51.5396 34.996 51.5396 35.3313 51.5396C35.6666 51.5396 35.5982 50.5339 35.5548 50.3903C35.2754 49.4882 34.9867 49.2443 34.8004 48.2219C34.5055 46.5981 34.3378 44.8341 34.3378 42.9597C34.3378 37.0293 35.9955 31.4297 38.1719 28.122C36.7282 24.2731 33.9497 21.2928 30.5346 20.0433C29.774 20.7549 28.6438 21.2093 27.3803 21.2093C25.9863 21.2093 24.7569 20.658 24.0025 19.8127C20.0006 20.9688 16.7625 24.4602 15.3468 29.0074C18.5042 30.5075 20.8884 37.3701 20.8884 45.6159C20.8884 46.9055 20.8295 48.1584 20.7177 49.3645C20.6556 50.0227 20.398 50.3067 20.367 50.5406C20.28 51.1955 20.5408 51.5362 20.7147 51.5362L20.7177 51.5396Z" fill="#729EDB"/>
<path d="M37.9502 32.9325C38.6053 39.8385 37.6428 40.774 36.3233 40.9076C35.007 41.0413 33.8334 40.323 33.1784 33.417C32.5233 26.511 33.0605 20.8011 34.3769 20.6674C35.6932 20.5338 37.2921 26.0265 37.9472 32.9325H37.9502Z" fill="#EA9F86"/>
<path d="M35.0979 17.6473C35.6288 19.2945 35.3771 20.8146 34.396 21.1521C33.415 21.4895 32.5924 20.3469 32.0615 18.7031C31.5306 17.0559 31.4282 16.5982 32.4092 16.2608C33.3903 15.9233 34.567 16.0035 35.0979 17.6506V17.6473Z" fill="#EA9F86"/>
<path d="M37.7082 39.4584C37.0004 39.5921 35.6841 39.6389 35.026 39.6389C33.5978 39.6389 34.104 38.837 34.104 37.9616C34.104 37.7712 33.9114 37.4738 33.7438 37.5173C32.8372 37.7445 32.1293 38.2289 31.8189 38.8303L21.4775 39.1878V33.1438L15.0229 33.8554C14.9453 34.537 14.9017 35.6529 14.9017 36.378C14.9017 41.9342 16.3703 44.7173 19.3724 44.7173C22.7906 44.7173 28.8975 42.9165 32.2815 41.2559C32.7565 41.8807 33.4861 42.3585 34.4548 42.3585C35.9853 42.3585 37.46 41.0755 38.0903 40.0866C38.4908 39.4584 37.8852 39.425 37.7082 39.4584Z" fill="#EFB290"/>
<path d="M5.51992 17.6416C2.4713 17.6416 -0.000189781 14.982 -0.000189781 11.7012C-0.000189781 8.42035 2.4713 5.76074 5.51992 5.76074C8.56855 5.76074 11.04 8.42035 11.04 11.7012C11.04 14.982 8.56855 17.6416 5.51992 17.6416Z" fill="#EAF0F9"/>
<path d="M87.4541 6.74488V10.0659H86.7865V6.74488C86.7865 6.50433 86.9356 6.31055 87.1188 6.31055C87.302 6.31055 87.4511 6.50433 87.4511 6.74488H87.4541Z" fill="#E5803C"/>
<path d="M87.454 21.2631C87.454 21.5037 87.3049 21.6975 87.1217 21.6975C86.9385 21.6975 86.7897 21.5037 86.7897 21.2631V18.1426H87.457V21.2631H87.454Z" fill="#E5803C"/>
<path d="M94.2666 14.0044C94.2666 14.2015 94.0863 14.3619 93.8628 14.3619H90.7769V13.6436H93.8628C94.0863 13.6436 94.2666 13.8039 94.2666 14.0011V14.0044Z" fill="#E5803C"/>
<path d="M80.3786 13.6436H83.2783V14.3619H80.3786C80.1551 14.3619 79.9751 14.2015 79.9751 14.0044C79.9751 13.8073 80.1551 13.6469 80.3786 13.6469V13.6436Z" fill="#E5803C"/>
<path d="M92.123 9.12869L89.9404 11.4775L89.4686 10.9696L91.651 8.62086C91.8093 8.45047 92.0423 8.42707 92.1727 8.56739C92.3031 8.70772 92.2814 8.9583 92.123 9.12869Z" fill="#E5803C"/>
<path d="M82.5893 19.3884C82.431 19.5588 82.1982 19.5822 82.0679 19.4419C81.9375 19.3015 81.9589 19.051 82.1173 18.8806L84.1695 16.6721L84.6416 17.18L82.5893 19.3884Z" fill="#E5803C"/>
<path d="M92.1727 19.4406C92.0423 19.5809 91.8093 19.5575 91.651 19.3871L89.4686 17.0383L89.9404 16.5305L92.123 18.8793C92.2814 19.0497 92.3031 19.3003 92.1727 19.4406Z" fill="#E5803C"/>
<path d="M82.5893 8.62086L84.6416 10.8293L84.1695 11.3372L82.1173 9.12869C81.9589 8.9583 81.9375 8.70772 82.0679 8.56739C82.1982 8.42707 82.431 8.45047 82.5893 8.62086Z" fill="#E5803C"/>
<defs>
<linearGradient id="paint0_linear_248_53798" x1="52.1708" y1="8.60282" x2="44.0223" y2="51.721" gradientUnits="userSpaceOnUse">
<stop stop-color="#FCF5B8"/>
<stop offset="1" stop-color="#F7C959" stop-opacity="0"/>
</linearGradient>
</defs>
</svg>
