<svg width="46" height="46" viewBox="0 0 46 46" fill="none" xmlns="http://www.w3.org/2000/svg">
<g clip-path="url(#clip0_248_55225)">
<circle cx="23" cy="23" r="23" fill="white"/>
<path d="M33 18.5352V28C33 28.7652 32.7077 29.5015 32.1827 30.0582C31.6578 30.615 30.9399 30.9501 30.176 30.995L30 31H16C15.2348 31 14.4985 30.7076 13.9417 30.1827C13.385 29.6577 13.0499 28.9399 13.005 28.176L13 28V18.5352L22.445 24.8321L22.561 24.8981C22.6977 24.9649 22.8478 24.9996 23 24.9996C23.1522 24.9996 23.3023 24.9649 23.439 24.8981L23.555 24.8321L33 18.5352Z" fill="#FBBF33"/>
<path d="M29.9984 15C31.0784 15 32.0254 15.57 32.5534 16.427L22.9984 22.7969L13.4434 16.427C13.6942 16.0198 14.0387 15.6785 14.4481 15.4315C14.8576 15.1845 15.3202 15.0389 15.7974 15.007L15.9984 15H29.9984Z" fill="#FBBF33"/>
</g>
<defs>
<clipPath id="clip0_248_55225">
<rect width="46" height="46" fill="white"/>
</clipPath>
</defs>
</svg>
