<svg width="180" height="39" viewBox="0 0 180 39" fill="none" xmlns="http://www.w3.org/2000/svg">
<g clip-path="url(#clip0_248_55253)">
<path d="M156.168 15.3276L156.177 16.5039C155.182 16.1005 153.97 15.8758 152.499 15.8758C146.774 15.8758 144.924 19.2787 144.924 23.4119C144.924 27.5451 146.775 30.9481 152.499 30.9481V27.9605C149.114 27.9605 148.774 25.2011 148.774 23.4119C148.774 21.6228 149.114 18.8633 152.499 18.8633C155.885 18.8633 156.206 21.4951 156.223 23.286L156.271 30.3625C156.271 32.3014 155.902 35.2924 152.232 35.2924H146.604V38.5319H152.232C158.438 38.5319 160.445 34.8413 160.445 30.3625V15.3293H156.168V15.3276Z" fill="black"/>
<path d="M43.5737 9.82422V31.91H47.7789V19.1137H51.2966C54.9669 19.1137 55.3354 22.1047 55.3354 24.0436C55.3354 25.9826 54.9669 28.9735 51.2966 28.9735V32.213C57.5023 32.213 59.5097 28.5241 59.5097 24.0436C59.5097 19.5632 57.504 15.8742 51.2966 15.8742H47.7789V9.82422H43.5737Z" fill="black"/>
<path d="M73.6457 15.876C70.4434 15.876 67.9714 17.4012 66.5777 19.2483V16.179H62.556V31.9118H66.7903V24.6497C66.7903 20.7122 71.5474 19.4151 73.6457 19.4151V15.876Z" fill="black"/>
<path d="M80.484 16.3896H76.2189V31.9113H80.484V16.3896Z" fill="black"/>
<path d="M80.8508 11.71C80.8508 12.3688 80.5868 12.9987 80.1188 13.4651C79.6508 13.9298 79.0131 14.192 78.3514 14.192C76.9714 14.192 75.852 13.0804 75.852 11.71C75.852 11.0512 76.116 10.4213 76.584 9.95492C77.052 9.49018 77.688 9.22803 78.3514 9.22803C79.0148 9.22803 79.6508 9.49018 80.1188 9.95492C80.5868 10.4196 80.8508 11.0512 80.8508 11.71Z" fill="black"/>
<path d="M124.102 9.82422H119.837V31.91H124.102V9.82422Z" fill="black"/>
<path d="M108.226 19.1135C111.897 19.1135 112.265 22.1045 112.265 24.0434C112.265 25.9824 111.897 28.9733 108.226 28.9733C104.556 28.9733 104.187 25.9824 104.187 24.0434C104.187 22.1045 104.556 19.1135 108.226 19.1135ZM108.226 15.874C102.021 15.874 100.013 19.5646 100.013 24.0434C100.013 28.5222 102.019 32.2128 108.226 32.2128C114.434 32.2128 116.439 28.5239 116.439 24.0434C116.439 19.5629 114.432 15.874 108.226 15.874Z" fill="black"/>
<path d="M92.1994 15.874C85.9937 15.874 83.9863 19.5646 83.9863 24.0434C83.9863 28.5222 85.992 32.2128 92.1994 32.2128H97.8274V28.9733H92.1994C88.5291 28.9733 88.1606 25.9824 88.1606 24.0434C88.1606 22.1045 88.5291 19.1135 92.1994 19.1135H97.8274V15.874H92.1994Z" fill="black"/>
<path d="M133.803 15.8691V15.8742H128.175V19.1137H133.803V19.1103C136.205 19.1103 137.193 20.3922 137.589 21.8204H134.23C129.072 21.8204 127.404 24.1186 127.404 26.9086C127.404 29.6987 129.072 31.9969 134.23 31.9969H136.181V29.2221H134.23C132.081 29.2221 130.874 27.8824 130.874 26.9069C130.874 25.9315 132.081 24.5935 134.23 24.5935H137.841V31.91H142.015V24.0385C142.015 19.5581 140.009 15.8691 133.802 15.8691H133.803Z" fill="black"/>
<path d="M171.787 19.1138C175.116 19.1138 175.726 21.5719 175.812 23.4768H167.762C167.847 21.5719 168.458 19.1138 171.787 19.1138ZM171.787 15.8743C165.581 15.8743 163.574 19.5649 163.574 24.0437C163.574 28.5225 165.579 32.2131 171.787 32.2131H177.415V28.9736H171.787C169.32 28.9736 168.346 27.6219 167.971 26.1477H179.998V24.042C179.998 19.5615 177.993 15.8726 171.785 15.8726L171.787 15.8743Z" fill="black"/>
<path d="M0 0L10.6834 6.12492V0H0Z" fill="#7586DD"/>
<path d="M9.98914 12.0117C7.23086 12.0117 4.73314 13.1216 2.92457 14.9176C1.11771 16.7135 0 19.1938 0 21.9328H10.6834V12.0373C10.4537 12.0219 10.2223 12.0134 9.98914 12.0134V12.0117Z" fill="white"/>
<path d="M0 0V21.9326C0 19.1936 1.11771 16.7133 2.92629 14.9174C4.73486 13.1214 7.23257 12.0115 9.99086 12.0115C10.224 12.0115 10.4554 12.02 10.6851 12.0354V6.12492L0 0Z" fill="#101841"/>
<path d="M10.6834 12.0369V21.9324H0C0 24.6714 1.11771 27.1517 2.92629 28.9476C4.73314 30.7419 7.23086 31.8535 9.99086 31.8535C12.7509 31.8535 15.2469 30.7436 17.0537 28.9476C18.8623 27.1517 19.98 24.6714 19.98 21.9324C19.98 19.1934 18.8623 16.7131 17.0537 14.9172C15.3994 13.2744 13.1657 12.2054 10.6834 12.0352V12.0369Z" fill="#70ACCE"/>
<path d="M10.6834 6.125V12.0354C13.1657 12.204 15.3977 13.273 17.0537 14.9174C18.8623 16.7134 19.98 19.192 19.98 21.9327C19.98 24.6734 18.8623 27.152 17.0537 28.9479C16.7709 29.2288 16.4692 29.4944 16.1537 29.7412L34.0132 19.5018L10.6834 6.125Z" fill="#144DA0"/>
<path d="M0 21.9326V39L13.7057 31.1421C12.5571 31.6001 11.304 31.852 9.98914 31.852C7.23086 31.852 4.73314 30.7421 2.92457 28.9461C1.11771 27.1519 0 24.6716 0 21.9326Z" fill="#144DA0"/>
</g>
<defs>
<clipPath id="clip0_248_55253">
<rect width="180" height="39" fill="white"/>
</clipPath>
</defs>
</svg>
