<svg width="260" height="57" viewBox="0 0 260 57" fill="none" xmlns="http://www.w3.org/2000/svg">
<g clip-path="url(#clip0_248_55235)">
<path d="M225.575 22.4023L225.588 24.1215C224.152 23.5319 222.401 23.2035 220.276 23.2035C212.006 23.2035 209.334 28.177 209.334 34.2178C209.334 40.2587 212.008 45.2322 220.276 45.2322V40.8658C215.386 40.8658 214.895 36.8327 214.895 34.2178C214.895 31.603 215.386 27.5699 220.276 27.5699C225.167 27.5699 225.63 31.4164 225.655 34.0337L225.724 44.3763C225.724 47.2102 225.192 51.5816 219.89 51.5816H211.761V56.3162H219.89C228.854 56.3162 231.753 50.9222 231.753 44.3763V22.4048H225.575V22.4023Z" fill="white"/>
<path d="M62.9395 14.3594V46.6386H69.0135V27.9364H74.0947C79.3962 27.9364 79.9286 32.3078 79.9286 35.1416C79.9286 37.9754 79.3962 42.3468 74.0947 42.3468V47.0815C83.0585 47.0815 85.9581 41.69 85.9581 35.1416C85.9581 28.5932 83.061 23.2017 74.0947 23.2017H69.0135V14.3594H62.9395Z" fill="white"/>
<path d="M106.376 23.2031C101.75 23.2031 98.1797 25.4324 96.1666 28.1318V23.646H90.3574V46.6401H96.4736V36.0263C96.4736 30.2715 103.345 28.3757 106.376 28.3757V23.2031Z" fill="white"/>
<path d="M116.255 23.9531H110.094V46.6387H116.255V23.9531Z" fill="white"/>
<path d="M116.783 17.1158C116.783 18.0786 116.402 18.9992 115.726 19.6809C115.05 20.3601 114.129 20.7433 113.173 20.7433C111.179 20.7433 109.562 19.1186 109.562 17.1158C109.562 16.1529 109.944 15.2324 110.62 14.5507C111.296 13.8714 112.214 13.4883 113.173 13.4883C114.131 13.4883 115.05 13.8714 115.726 14.5507C116.402 15.2299 116.783 16.1529 116.783 17.1158Z" fill="white"/>
<path d="M179.258 14.3594H173.098V46.6386H179.258V14.3594Z" fill="white"/>
<path d="M156.326 27.9339C161.628 27.9339 162.16 32.3053 162.16 35.1391C162.16 37.9729 161.628 42.3444 156.326 42.3444C151.025 42.3444 150.492 37.9729 150.492 35.1391C150.492 32.3053 151.025 27.9339 156.326 27.9339ZM156.326 23.1992C147.363 23.1992 144.463 28.5932 144.463 35.1391C144.463 41.685 147.36 47.079 156.326 47.079C165.293 47.079 168.19 41.6875 168.19 35.1391C168.19 28.5907 165.29 23.1992 156.326 23.1992Z" fill="white"/>
<path d="M133.176 23.1992C124.212 23.1992 121.312 28.5932 121.312 35.1391C121.312 41.685 124.21 47.079 133.176 47.079H141.305V42.3444H133.176C127.874 42.3444 127.342 37.9729 127.342 35.1391C127.342 32.3053 127.874 27.9339 133.176 27.9339H141.305V23.1992H133.176Z" fill="white"/>
<path d="M193.273 23.1934V23.2008H185.144V27.9355H193.273V27.9305C196.742 27.9305 198.168 29.804 198.74 31.8914H193.889C186.439 31.8914 184.029 35.2502 184.029 39.328C184.029 43.4058 186.439 46.7646 193.889 46.7646H196.707V42.7092H193.889C190.784 42.7092 189.041 40.7511 189.041 39.3255C189.041 37.8999 190.784 35.9443 193.889 35.9443H199.104V46.6377H205.134V35.1333C205.134 28.5848 202.237 23.1934 193.27 23.1934H193.273Z" fill="white"/>
<path d="M248.137 27.9344C252.946 27.9344 253.827 31.5271 253.951 34.3111H242.323C242.447 31.5271 243.328 27.9344 248.137 27.9344ZM248.137 23.1998C239.173 23.1998 236.273 28.5937 236.273 35.1397C236.273 41.6856 239.171 47.0795 248.137 47.0795H256.266V42.3449H248.137C244.574 42.3449 243.167 40.3694 242.625 38.2148H259.998V35.1372C259.998 28.5888 257.101 23.1973 248.134 23.1973L248.137 23.1998Z" fill="white"/>
<path d="M0 0L15.4316 8.95181V0H0Z" fill="#7586DD"/>
<path d="M14.4288 17.5547C10.4446 17.5547 6.83676 19.1769 4.22438 21.8017C1.61448 24.4265 0 28.0515 0 32.0547H15.4316V17.592C15.0998 17.5696 14.7655 17.5572 14.4288 17.5572V17.5547Z" fill="white"/>
<path d="M0 0V32.0553C0 28.0522 1.61448 24.4271 4.22686 21.8023C6.83924 19.1775 10.447 17.5553 14.4312 17.5553C14.768 17.5553 15.1023 17.5677 15.4341 17.5901V8.95181L0 0Z" fill="#101841"/>
<path d="M15.4316 17.5923V32.0551H0C0 36.0582 1.61448 39.6833 4.22686 42.3081C6.83676 44.9304 10.4446 46.5551 14.4312 46.5551C18.4179 46.5551 22.0232 44.9329 24.6331 42.3081C27.2455 39.6833 28.86 36.0582 28.86 32.0551C28.86 28.0519 27.2455 24.4269 24.6331 21.802C22.2436 19.4011 19.0171 17.8386 15.4316 17.5898V17.5923Z" fill="#70ACCE"/>
<path d="M15.4316 8.95312V17.5914C19.0172 17.8378 22.2412 19.4002 24.6332 21.8036C27.2455 24.4285 28.86 28.051 28.86 32.0567C28.86 36.0623 27.2455 39.6849 24.6332 42.3097C24.2246 42.7202 23.7888 43.1083 23.3332 43.4691L49.1301 28.5038L15.4316 8.95312Z" fill="#144DA0"/>
<path d="M0 32.0547V56.9993L19.7971 45.5148C18.1381 46.184 16.328 46.5522 14.4288 46.5522C10.4446 46.5522 6.83676 44.9301 4.22438 42.3052C1.61448 39.6829 0 36.0579 0 32.0547Z" fill="#144DA0"/>
</g>
<defs>
<clipPath id="clip0_248_55235">
<rect width="260" height="57" fill="white"/>
</clipPath>
</defs>
</svg>
