<svg width="49" height="57" viewBox="0 0 49 57" fill="none" xmlns="http://www.w3.org/2000/svg">
<g clip-path="url(#clip0_249_65614)">
<path d="M0 0L15.4316 8.95181V0H0Z" fill="#7586DD"/>
<path d="M14.4288 17.5547C10.4446 17.5547 6.83676 19.1769 4.22438 21.8017C1.61448 24.4265 0 28.0515 0 32.0547H15.4316V17.592C15.0998 17.5696 14.7655 17.5572 14.4288 17.5572V17.5547Z" fill="white"/>
<path d="M0 0V32.0553C0 28.0522 1.61448 24.4271 4.22686 21.8023C6.83924 19.1775 10.447 17.5553 14.4312 17.5553C14.768 17.5553 15.1023 17.5677 15.4341 17.5901V8.95181L0 0Z" fill="#101841"/>
<path d="M15.4316 17.5923V32.0551H0C0 36.0582 1.61448 39.6833 4.22686 42.3081C6.83676 44.9304 10.4446 46.5551 14.4312 46.5551C18.4179 46.5551 22.0232 44.9329 24.6331 42.3081C27.2455 39.6833 28.86 36.0582 28.86 32.0551C28.86 28.0519 27.2455 24.4269 24.6331 21.802C22.2436 19.4011 19.0171 17.8386 15.4316 17.5898V17.5923Z" fill="#70ACCE"/>
<path d="M15.4316 8.95312V17.5914C19.0172 17.8378 22.2412 19.4002 24.6332 21.8036C27.2455 24.4285 28.86 28.051 28.86 32.0567C28.86 36.0623 27.2455 39.6849 24.6332 42.3097C24.2246 42.7202 23.7888 43.1083 23.3332 43.4691L49.1301 28.5038L15.4316 8.95312Z" fill="#144DA0"/>
<path d="M0 32.0547V56.9993L19.7971 45.5148C18.1381 46.184 16.328 46.5522 14.4288 46.5522C10.4446 46.5522 6.83676 44.9301 4.22438 42.3052C1.61448 39.6829 0 36.0579 0 32.0547Z" fill="#144DA0"/>
</g>
<defs>
<clipPath id="clip0_249_65614">
<rect width="49" height="57" fill="white"/>
</clipPath>
</defs>
</svg>
