<svg width="256" height="165" viewBox="0 0 256 165" fill="none" xmlns="http://www.w3.org/2000/svg">
<path opacity="0.3" d="M140.459 164.032C149.913 164.032 157.578 162.712 157.578 161.085C157.578 159.457 149.913 158.138 140.459 158.138C131.004 158.138 123.34 159.457 123.34 161.085C123.34 162.712 131.004 164.032 140.459 164.032Z" fill="#C7D0DD"/>
<path opacity="0.3" d="M80.8777 161.641C90.3322 161.641 97.9966 160.322 97.9966 158.694C97.9966 157.066 90.3322 155.747 80.8777 155.747C71.4232 155.747 63.7588 157.066 63.7588 158.694C63.7588 160.322 71.4232 161.641 80.8777 161.641Z" fill="#C7D0DD"/>
<path d="M109.427 126.502H91.9006C90.8116 126.502 89.9287 127.386 89.9287 128.476V129.775C89.9287 130.865 90.8116 131.748 91.9006 131.748H109.427C110.516 131.748 111.399 130.865 111.399 129.775V128.476C111.399 127.386 110.516 126.502 109.427 126.502Z" fill="#528BBF"/>
<path d="M112.756 155.253L99.4942 154.209V152.016L112.756 154.315V155.253Z" fill="#528BBF"/>
<path d="M86.2354 155.253L99.4931 154.209V152.016L86.2354 154.315V155.253Z" fill="#528BBF"/>
<path d="M112.857 158.804C113.635 158.804 114.265 158.148 114.265 157.34C114.265 156.532 113.635 155.876 112.857 155.876C112.08 155.876 111.45 156.532 111.45 157.34C111.45 158.148 112.08 158.804 112.857 158.804Z" fill="#528BBF"/>
<path d="M86.2354 158.596C87.0126 158.596 87.6426 157.941 87.6426 157.133C87.6426 156.324 87.0126 155.669 86.2354 155.669C85.4581 155.669 84.8281 156.324 84.8281 157.133C84.8281 157.941 85.4581 158.596 86.2354 158.596Z" fill="#528BBF"/>
<path d="M112.554 155.214H112.045V156.194H112.554V155.214Z" fill="#528BBF"/>
<path d="M87.0203 155.006H86.5107V155.986H87.0203V155.006Z" fill="#528BBF"/>
<path d="M99.4932 158.804C100.27 158.804 100.9 158.148 100.9 157.34C100.9 156.532 100.27 155.876 99.4932 155.876C98.7159 155.876 98.0859 156.532 98.0859 157.34C98.0859 158.148 98.7159 158.804 99.4932 158.804Z" fill="#528BBF"/>
<path d="M99.7478 154.806H99.2383V156.371H99.7478V154.806Z" fill="#528BBF"/>
<path d="M100.298 153.637H98.6904V154.994H100.298V153.637Z" fill="#528BBF"/>
<path d="M102.709 130.01H96.2801V141.932H102.709V130.01Z" fill="#528BBF"/>
<path d="M100.599 139.517H98.3885V152.153H100.599V139.517Z" fill="#528BBF"/>
<path d="M66.6943 157.447L74.299 158.016L75.3575 158.098L76.6863 158.196L77.0431 153.421L73.2604 153.178L71.2453 154.869L66.7414 156.831L66.6943 157.447Z" fill="#19132E"/>
<path d="M73.6635 151.445L73.5371 153.136L76.9107 153.388L77.0371 151.698L73.6635 151.445Z" fill="#F3C6A0"/>
<path d="M81.5283 158.553L89.1487 158.745L90.211 158.769L91.544 158.804L91.6615 154.017L87.8747 153.962L85.9422 155.751L81.544 157.933L81.5283 158.553Z" fill="#19132E"/>
<path d="M88.4934 152.312L88.4512 154.007L91.8332 154.091L91.8754 152.397L88.4934 152.312Z" fill="#F3C6A0"/>
<path d="M83.1974 136.351C84.9654 133.019 94.0405 134.534 100.438 129.084C106.836 123.633 90.4928 122.911 90.4928 122.911C90.4928 122.911 81.0926 128.118 79.3991 128.601C77.7056 129.084 76.7804 130.971 76.2003 134.071C75.6201 137.171 71.2607 153.173 71.2607 153.173L78.1094 153.789C78.1094 153.789 81.4256 139.682 83.1936 136.351H83.1974Z" fill="#314572"/>
<path d="M94.3194 135.162C95.4445 131.56 103.206 133.039 108.491 126.502C113.775 119.964 98.2552 124.355 98.2552 124.355C98.2552 124.355 90.4936 128.409 88.9217 129.197C87.3458 129.986 86.7852 132.011 86.7852 135.166V154.193H92.2966C92.2966 154.193 93.1983 138.768 94.3194 135.166V135.162Z" fill="#41587F"/>
<path d="M110.067 124.133C110.067 124.133 108.875 127.335 99.6866 126.299C90.498 125.259 89.4902 122.771 89.4902 122.771C89.4902 122.771 90.2746 107.471 91.1762 102.743C92.0778 98.0144 96.5739 96.4369 96.5739 96.4369L100.447 98.038L104.222 96.4369C104.222 96.4369 109.62 96.2839 110.968 101.915C112.317 107.546 110.067 124.133 110.067 124.133Z" fill="#528BBF"/>
<path d="M99.6265 126.388C99.6892 126.396 99.748 126.4 99.8068 126.408C102.359 118.458 104.158 105.94 104.158 96.5305C104.158 96.5305 104.256 97.5783 100.242 98.1315C96.228 98.6848 96.91 96.5305 96.91 96.5305C94.7579 101.118 95.1027 117.222 93.1309 125.089C94.6283 125.584 96.7178 126.059 99.6265 126.388Z" fill="#ECF5FC"/>
<path d="M89.8435 105.846L89.4592 110.9L82.6856 117.469C82.5954 118.642 84.5867 119.984 85.7588 120.07L89.7337 119.54C89.961 115.64 90.4276 108.373 90.9725 104.123C90.3492 104.457 89.8984 105.092 89.8435 105.846Z" fill="#6DA2C9"/>
<path d="M100.864 118.226L99.8253 116.186L93.165 118.12C92.3457 117.916 91.2955 117.794 90.1469 117.794C87.5165 117.794 85.3877 118.434 85.3877 119.223C85.3877 120.011 87.5205 120.651 90.1469 120.651C91.856 120.651 93.3532 120.38 94.1921 119.976L100.86 118.226H100.864Z" fill="#F3C6A0"/>
<path d="M112.878 113.663C112.878 111.301 112.317 104.092 110.965 101.915C109.616 99.7367 110.13 101.883 108.433 101.962C106.735 102.04 105.406 103.496 105.489 105.199C105.489 105.199 107.041 113.145 105.912 114.248C104.783 115.35 95.4492 116.139 95.4492 116.139V121.656C95.4492 121.656 109.436 119.168 110.706 118.611C111.98 118.054 112.882 115.523 112.878 113.663Z" fill="#6DA2C9"/>
<path d="M86.0601 119.902C85.8327 119.105 85.3271 118.379 84.6058 117.775C83.9237 117.661 83.1358 117.594 82.3008 117.594C79.6704 117.594 77.542 118.234 77.542 119.023C77.542 119.812 79.6744 120.451 82.3008 120.451C83.8296 120.451 85.1898 120.235 86.0601 119.898V119.902Z" fill="#F3C6A0"/>
<path d="M97.293 93.2458V97.4563C97.293 97.4563 100.578 101.062 103.593 97.5387L103.33 93.2458H97.293Z" fill="#E8BEA9"/>
<path d="M100.509 96.1269C100.431 96.1386 100.349 96.1465 100.266 96.1544C99.255 96.2289 98.3222 95.9424 97.5656 95.3264C97.4951 95.2714 97.4951 95.1734 97.5656 95.1106C97.6323 95.0478 97.742 95.04 97.8125 95.0988C98.4985 95.66 99.3454 95.9189 100.259 95.8483C101.211 95.7776 102.027 95.3303 102.677 94.5181C102.732 94.4474 102.842 94.4278 102.92 94.4749C102.999 94.522 103.014 94.6162 102.96 94.6868C102.305 95.4991 101.466 95.9934 100.517 96.1269H100.509Z" fill="#BA745D"/>
<path d="M96.0686 88.4588C95.6726 91.8923 96.1195 95.6084 98.8126 95.8478C101.615 96.0989 104.571 94.5019 104.967 91.0684C105.363 87.6348 103.521 84.3897 100.855 83.8247C98.1893 83.2596 96.4645 85.0253 96.0686 88.4588Z" fill="#F3C6A0"/>
<path d="M95.8873 85.532C95.7501 85.1788 95.793 84.7551 96.091 84.2921C96.1498 84.1979 96.2203 84.1037 96.3027 84.0017C96.6398 83.5661 97.134 83.1619 97.5809 82.8088C97.5966 82.8088 97.6123 82.8088 97.628 82.8127C99.8428 82.126 102.403 81.9573 104.406 82.9383C105.386 83.4013 105.93 84.0998 106.181 84.9042C106.699 85.9872 106.546 87.7334 106.26 89.0479C106.185 89.405 106.099 89.7307 106.013 90.0015C105.625 91.2611 105.123 92.972 104.092 93.9255C103.876 94.0982 103.532 94.2747 103.214 94.2354C103.198 94.2354 103.183 94.2316 103.167 94.2277C103.202 94.1688 103.241 94.1099 103.276 94.0471C103.378 93.6664 103.355 93.2348 103.355 92.8581C103.512 92.9994 103.637 93.0739 103.782 93.0818C103.923 93.0936 104.08 93.0386 104.288 92.9131C104.837 92.6149 105.029 92.0459 105.049 91.4573C105.049 91.3043 105.021 91.0374 104.958 90.7824C104.958 90.7824 104.958 90.7745 104.951 90.7706C104.903 90.5901 104.833 90.4213 104.731 90.3075C104.648 90.2172 104.555 90.1584 104.429 90.1584C104.261 90.1584 103.971 90.3742 103.822 90.5547C103.81 90.5704 103.798 90.5861 103.786 90.6018C103.755 90.7823 103.716 90.9589 103.668 91.1355C103.621 91.3395 103.559 91.5397 103.496 91.7359C103.253 91.8575 103.006 92.0184 102.736 92.0459L102.724 91.9164C103.112 90.8294 103.104 89.6758 103.061 88.5261C103.049 88.2435 103.037 87.9649 103.026 87.6824C103.014 87.4194 103.006 87.1605 103.006 86.9015V86.8584C101.803 86.7838 100.58 86.7053 99.5447 86.2698C99.9446 86.4463 100.286 86.6896 100.595 86.9604C100.701 87.0506 100.803 87.1448 100.901 87.2351C101.14 87.4587 101.371 87.6863 101.61 87.9021C100.238 88.0002 98.1923 87.2429 96.8007 86.3992C96.6008 86.2775 96.4126 86.152 96.2441 86.0304H96.2403L96.2322 86.0421C96.2048 86.3404 96.1854 86.6386 96.1736 86.9447C96.1148 88.0277 96.1107 89.1539 96.2165 90.2447C96.1969 90.2447 96.1733 90.2447 96.1537 90.2487C96.0989 89.9583 96.0166 89.6797 95.9382 89.3972C95.8324 89.0166 95.7345 88.632 95.7032 88.2278C95.6404 87.4391 95.4481 86.2619 95.8754 85.5281L95.8873 85.532Z" fill="#314572"/>
<path d="M100.85 83.8242C100.85 84.9347 97.8355 85.4684 96.6987 85.4684C95.5618 85.4684 94.6406 84.5697 94.6406 83.4592C94.6406 82.3487 95.5618 81.4502 96.6987 81.4502C97.8355 81.4502 100.85 82.7137 100.85 83.8203V83.8242Z" fill="#314572"/>
<path d="M98.0329 95.2865C97.1626 95.2551 96.5629 94.9137 96.167 94.3761C96.3473 95.8986 96.9825 97.1033 98.3977 97.221C100.632 97.4015 102.988 96.2478 103.305 93.76C103.337 93.5206 103.349 93.2813 103.349 93.0459C102.263 94.5959 100.083 95.3571 98.0329 95.2865Z" fill="#314572"/>
<path d="M90.6958 117.52H79.3984V119.102H90.6958V117.52Z" fill="white"/>
<path d="M80.8766 118.948H65.2668L60.1631 106.717H75.7729L80.8766 118.948Z" fill="white"/>
<path d="M80.1432 118.948H64.5334L59.4297 106.717H75.0395L80.1432 118.948Z" fill="#ADCDE0"/>
<path d="M69.6013 120.328L54.9922 156.779L55.9636 157.169L70.5726 120.718L69.6013 120.328Z" fill="#6D819E"/>
<path d="M172.439 120.672L157.83 157.123L158.801 157.513L173.411 121.062L172.439 120.672Z" fill="#6D819E"/>
<path d="M180.39 119.463L179.419 119.854L194.028 156.305L194.999 155.915L180.39 119.463Z" fill="#6D819E"/>
<path d="M77.5641 119.892L76.5928 120.282L91.2019 156.734L92.1733 156.343L77.5641 119.892Z" fill="#6D819E"/>
<path d="M189.293 119.18H62.0434C61.8485 119.18 61.6904 119.338 61.6904 119.533V120.302C61.6904 120.497 61.8485 120.655 62.0434 120.655H189.293C189.488 120.655 189.645 120.497 189.645 120.302V119.533C189.645 119.338 189.488 119.18 189.293 119.18Z" fill="#314572"/>
<path d="M139.622 160.241L134.307 160.935L136.823 157.651L137.388 152.569H140.144L139.85 156.752L139.622 160.241Z" fill="#F3C6A0"/>
<path d="M138.19 160.04C138.19 160.04 136.026 160.275 135.152 160.413C133.423 160.687 132.325 161.782 132.325 161.782H135.234L138.186 160.676V161.484H139.577V159.342L138.186 160.04H138.19Z" fill="url(#paint0_linear_248_55055)"/>
<path d="M150.387 160.684L145.169 161.916L147.341 158.393L147.388 153.28L150.128 153.001L150.261 157.192L150.387 160.684Z" fill="#F3C6A0"/>
<path d="M148.94 160.63C148.94 160.63 146.811 161.085 145.957 161.309C144.263 161.756 143.283 162.957 143.283 162.957L146.18 162.663L149.006 161.258L149.089 162.062L150.473 161.921L150.257 159.79L148.944 160.626L148.94 160.63Z" fill="url(#paint1_linear_248_55055)"/>
<path d="M150.125 157.98L146.127 157.694C146.127 157.694 146.389 149.183 146.283 139.62C146.178 130.057 144.943 121.601 144.943 121.601L140.043 157.258L136.734 157.023C136.734 157.023 137.452 132.313 137.809 125.121C138.169 117.932 139.831 111.202 139.831 111.202C139.831 111.202 144.449 111.316 147.683 111.088C150.917 110.861 153.152 109.691 153.152 109.691C153.152 109.691 154.865 116.323 154.865 125.266C154.865 134.209 150.121 157.98 150.121 157.98H150.125Z" fill="#314572"/>
<path d="M153.154 109.692L148.478 111.552L140.022 111.203L138.533 109.598C138.533 109.598 138.874 105.313 138.298 99.6272C137.721 93.9452 137.733 92.0539 138.783 91.1317C139.834 90.2096 142.17 89.6131 145.985 89.2875C148.827 89.0442 152.159 89.5857 153.154 89.5857C155.491 89.5857 157.404 93.4155 157.404 93.4155L154.852 99.9058C154.852 99.9058 153.182 101.44 152.88 103.853C152.574 106.267 153.154 109.696 153.154 109.696V109.692Z" fill="#F7882D"/>
<path d="M157.404 93.415L154.868 99.4776L158.573 105.116L154.868 110.755L156.765 112.348L163.144 104.689L157.404 93.415Z" fill="#F7882D"/>
<path d="M139 115.236H137.106L138.533 109.602L139.835 111.202L139 115.236Z" fill="#F7882D"/>
<path d="M150.603 89.9023C150.603 89.9023 146.283 94.0656 145.147 94.0852C144.014 94.1088 142.81 94.2971 141.748 93.4103C140.686 92.5235 142.1 89.8983 142.1 89.8983C142.1 89.8983 145.429 88.623 143.731 85.786C142.03 82.9489 148.4 82.9489 147.659 85.786C146.918 88.623 150.603 89.8983 150.603 89.8983V89.9023Z" fill="#ECB5A1"/>
<path d="M147.506 86.3274C147.517 86.1548 147.549 85.9743 147.596 85.7899C148.337 82.9528 141.967 82.9528 143.668 85.7899C144.252 86.767 144.244 87.5596 143.978 88.1796C145.416 88.0501 146.675 87.3516 147.51 86.3274H147.506Z" fill="#BB673D"/>
<path d="M149.19 81.7131C149.19 84.711 147.438 87.14 145.274 87.14C143.11 87.14 142.106 85.0995 141.546 81.7131C141.056 78.7583 143.11 76.2861 145.274 76.2861C147.438 76.2861 149.19 78.7151 149.19 81.7131Z" fill="#ECB5A1"/>
<path d="M146.142 72.3154C142.661 72.3154 139.839 74.8542 139.839 77.9895C139.839 79.3394 140.509 80.7089 141.544 81.8311C141.544 81.7919 141.544 81.7487 141.544 81.7134C141.544 79.9908 143.073 78.6292 145.049 78.6292C145.543 78.6292 147.385 77.8836 147.385 77.8836C147.385 77.8836 147.302 78.9039 147.604 79.9045C147.922 80.9561 148.624 82.0077 148.624 82.6708C148.624 83.1417 148.439 83.6871 148.138 84.2326C150.874 83.5773 152.45 80.7403 152.45 77.9895C152.45 74.8582 149.627 72.3154 146.146 72.3154H146.142Z" fill="#314572"/>
<path d="M148.727 76.2863C150.154 76.2863 151.31 75.1286 151.31 73.7005C151.31 72.2723 150.154 71.1145 148.727 71.1145C147.3 71.1145 146.144 72.2723 146.144 73.7005C146.144 75.1286 147.3 76.2863 148.727 76.2863Z" fill="#314572"/>
<path d="M156.507 112.038L154.962 111.065L154.39 111.689C153.841 112.073 153.261 112.846 152.865 113.788C152.253 115.24 152.32 116.543 153.01 116.696C153.7 116.849 154.755 115.797 155.366 114.345C155.633 113.713 155.77 113.109 155.782 112.615L156.503 112.038H156.507Z" fill="#F3C6A0"/>
<path d="M138.833 115.235L137.01 115.255L136.865 116.087C136.61 116.707 136.539 117.672 136.712 118.677C136.982 120.231 137.743 121.29 138.405 121.043C139.072 120.8 139.389 119.344 139.119 117.79C139.001 117.115 138.79 116.53 138.535 116.11L138.833 115.231V115.235Z" fill="#F3C6A0"/>
<path opacity="0.7" d="M66.8537 75.2419H57.3633V87.2768H66.8537V75.2419Z" fill="#89BCC9"/>
<path d="M66.2434 74.8152H56.792V86.6265H66.2434V74.8152Z" fill="#E2E2E1"/>
<path d="M65.714 75.3489V86.0928H57.3288V75.3489H65.714ZM66.2469 74.8152H56.7959V86.6265H66.2469V74.8152Z" fill="#2A2B47"/>
<path d="M64.466 76.5183H58.5859V84.7744H64.466V76.5183Z" fill="white"/>
<path opacity="0.7" d="M90.6881 63.9189H75.251V78.9872H90.6881V63.9189Z" fill="#89BCC9"/>
<path d="M89.9291 63.3809H74.5391V78.1704H89.9291V63.3809Z" fill="#E2E2E1"/>
<path d="M89.2627 64.0479V77.4994H75.2094V64.0479H89.2627ZM89.9291 63.3809H74.5391V78.1704H89.9291V63.3809Z" fill="#2A2B47"/>
<path d="M87.7028 65.5107H76.7852V75.8427H87.7028V65.5107Z" fill="white"/>
<path d="M127.954 71.2609V65.2139C127.954 61.9295 125.779 59.1278 122.799 58.1782L122.207 52.2529H116.962L116.367 58.2253C113.454 59.2103 111.341 61.9766 111.341 65.2139V71.2609H127.954Z" fill="#262042"/>
<path d="M122.98 61.2769C124.862 63.6627 123.972 67.5043 120.992 69.8548C118.013 72.2092 112.196 69.796 112.196 69.796C112.196 69.796 111.204 63.5685 114.183 61.218C117.162 58.8636 121.102 58.8911 122.98 61.2769Z" fill="#3F3A55"/>
<path d="M118.958 58.2567H116.21L116.963 52.2568H118.958V58.2567Z" fill="#3F3A55"/>
<path d="M127.954 71.259H111.341V72.0077H127.954V71.259Z" fill="white"/>
<path d="M119.577 38H119.213V52.2558H119.577V38Z" fill="#262042"/>
<path d="M129.647 119H125.903L124.915 113.746H130.634L129.647 119Z" fill="#F7AB5E"/>
<g style="mix-blend-mode:multiply">
<path d="M125.144 114.947L125.363 116.116H130.193L130.412 114.947H125.144Z" fill="#F7AB5E"/>
</g>
<path d="M131.023 113.58H124.531V115.326H131.023V113.58Z" fill="#F7AB5E"/>
<path d="M127.698 112.058C130.255 112.058 132.328 109.983 132.328 107.423C132.328 104.864 130.255 102.789 127.698 102.789C125.141 102.789 123.068 104.864 123.068 107.423C123.068 109.983 125.141 112.058 127.698 112.058Z" fill="#7BB842"/>
<path d="M130.292 107.369L130.222 107.255L127.854 108.769V105.128H127.67V106.211L126.302 105.477L126.235 105.599L127.67 106.368V110.221L125.29 108.942L125.228 109.064L127.67 110.374V113.541H127.854V108.93L130.292 107.369Z" fill="#716657"/>
<path d="M125.287 106.178C125.476 106.178 125.628 106.025 125.628 105.837C125.628 105.649 125.476 105.496 125.287 105.496C125.099 105.496 124.946 105.649 124.946 105.837C124.946 106.025 125.099 106.178 125.287 106.178Z" fill="#92C84E"/>
<path d="M126.455 108.432C126.644 108.432 126.796 108.279 126.796 108.091C126.796 107.903 126.644 107.75 126.455 107.75C126.267 107.75 126.114 107.903 126.114 108.091C126.114 108.279 126.267 108.432 126.455 108.432Z" fill="#92C84E"/>
<path d="M124.669 107.886C124.858 107.886 125.01 107.734 125.01 107.545C125.01 107.357 124.858 107.204 124.669 107.204C124.481 107.204 124.328 107.357 124.328 107.545C124.328 107.734 124.481 107.886 124.669 107.886Z" fill="#92C84E"/>
<path d="M176.202 115.543H166.179V119.161H176.202V115.543Z" fill="#9DD1F1"/>
<path d="M183.097 115.543H176.202V119.161H183.097V115.543Z" fill="#F6F8FA"/>
<path d="M177.56 118.858H166.634C166.384 118.858 166.184 118.654 166.184 118.407V116.143C166.184 115.892 166.387 115.692 166.634 115.692H177.56V115.39H166.634C166.219 115.39 165.882 115.727 165.882 116.143V118.407C165.882 118.823 166.219 119.161 166.634 119.161H177.56V118.858Z" fill="#124859"/>
<path d="M183.738 115.39H177.561V115.692H183.738V115.39Z" fill="#268EAE"/>
<path d="M183.738 118.859H177.561V119.16H183.738V118.859Z" fill="#268EAE"/>
<path opacity="0.3" d="M176.202 116.068H183.097" stroke="#93A3BA" stroke-width="0.195695" stroke-miterlimit="10"/>
<path opacity="0.3" d="M176.202 116.673H183.097" stroke="#93A3BA" stroke-width="0.195695" stroke-miterlimit="10"/>
<path opacity="0.3" d="M176.202 117.277H183.097" stroke="#93A3BA" stroke-width="0.195695" stroke-miterlimit="10"/>
<path opacity="0.3" d="M176.202 117.862H183.097" stroke="#93A3BA" stroke-width="0.195695" stroke-miterlimit="10"/>
<path opacity="0.3" d="M176.202 118.446H183.097" stroke="#93A3BA" stroke-width="0.195695" stroke-miterlimit="10"/>
<path d="M175.372 115.337H167.234C167.152 115.337 167.085 115.263 167.085 115.168V112.441C167.085 112.347 167.152 112.272 167.234 112.272H175.372C175.454 112.272 175.431 112.272 175.431 112.363L175.195 112.739L175.231 115.019L175.521 115.341C175.521 115.435 175.454 115.341 175.372 115.341V115.337Z" fill="#3ABDB2"/>
<path d="M181.675 112.289H175.317C175.263 112.289 175.219 112.333 175.219 112.387V115.283C175.219 115.337 175.263 115.381 175.317 115.381H181.675C181.729 115.381 181.773 115.337 181.773 115.283V112.387C181.773 112.333 181.729 112.289 181.675 112.289Z" fill="#D9E8E6"/>
<path d="M182.757 115.133H175.497C175.332 115.133 175.195 114.968 175.195 114.76V112.904C175.195 112.7 175.328 112.531 175.497 112.531H182.757V112.284H175.497C175.223 112.284 174.995 112.563 174.995 112.904V114.76C174.995 115.102 175.219 115.38 175.497 115.38H182.757V115.133Z" fill="#2D9285"/>
<g opacity="0.4">
<path d="M175.401 112.59L175.542 112.363C175.542 112.269 175.565 112.272 175.483 112.272H167.345C167.263 112.272 167.196 112.347 167.196 112.441V112.59H175.401Z" fill="#289285"/>
</g>
<path opacity="0.3" d="M175.051 112.854H181.793" stroke="#93A3BA" stroke-width="0.195695" stroke-miterlimit="10"/>
<path opacity="0.3" d="M175.051 113.46H181.793" stroke="#93A3BA" stroke-width="0.195695" stroke-miterlimit="10"/>
<path opacity="0.3" d="M175.051 114.064H181.793" stroke="#93A3BA" stroke-width="0.195695" stroke-miterlimit="10"/>
<path opacity="0.3" d="M175.051 114.648H181.793" stroke="#93A3BA" stroke-width="0.195695" stroke-miterlimit="10"/>
<path opacity="0.3" d="M175.051 115.231H181.793" stroke="#93A3BA" stroke-width="0.195695" stroke-miterlimit="10"/>
<path d="M9.00849 133.773H44.0341L35.026 75.4902H0L9.00849 133.773Z" fill="#314572"/>
<path d="M10.5435 130.324H41.4297L33.4878 78.9395H2.60156L10.5435 130.324Z" fill="white"/>
<path d="M35.6767 158.82V134.153H37.3465V158.82H40.0159V160.527H33.0107V158.82H35.6767Z" fill="#CDCEEC"/>
<path d="M12.9081 158.82V134.153H14.578V158.82H17.2474V160.527H10.2422V158.82H12.9081Z" fill="#CDCEEC"/>
<path d="M21.3916 84.9385H8.05957V85.5461H21.3916V84.9385Z" fill="#627089"/>
<path d="M31.0695 86.7913H8.34082V87.4499H31.0695V86.7913Z" fill="#627089"/>
<path d="M31.3674 88.6387H8.63867V89.2973H31.3674V88.6387Z" fill="#627089"/>
<path d="M22.8643 93.9492H9.53223V94.5568H22.8643V93.9492Z" fill="#627089"/>
<path d="M32.5393 95.8047H9.81055V96.4633H32.5393V95.8047Z" fill="#627089"/>
<path d="M32.8416 97.6494H10.1133V98.308H32.8416V97.6494Z" fill="#627089"/>
<path d="M19.7284 91.4102L22.9862 99.8978C22.9862 99.8978 31.9864 92.6148 34.9029 93.4585L34.8049 97.7003L24.7854 104.018C24.7854 104.018 21.3983 105.568 20.2379 102.499C19.0776 99.4308 16.4082 92.3754 16.4082 92.3754L19.7284 91.4102Z" fill="#528BBF"/>
<path d="M19.058 86.8184L18.0899 86.5595L17.7607 88.2585L16.4748 86.1003L16.4082 85.0762L15.236 85.9748L14.7969 88.2938L15.7692 90.4717L16.8943 92.1982L19.0776 92.0256L19.058 86.8184Z" fill="#E8BEA9"/>
<path opacity="0.3" d="M41.2965 165C49.9348 165 56.9373 163.795 56.9373 162.308C56.9373 160.821 49.9348 159.616 41.2965 159.616C32.6582 159.616 25.6553 160.821 25.6553 162.308C25.6553 163.795 32.6582 165 41.2965 165Z" fill="#C7D0DD"/>
<path d="M36.259 162.956C37.5056 163.332 38.5444 162.924 38.5444 162.924C38.5444 162.924 38.7406 163.548 39.7794 162.669C40.8182 161.79 38.5796 161.386 38.5796 161.386L35.2594 160.876L34.2756 161.005C34.2756 161.005 32.2018 162.124 33.6248 162.351C35.0478 162.579 35.2908 162.669 36.2551 162.96L36.259 162.956Z" fill="#19132E"/>
<path d="M38.4574 138.314H33.3418L36.8304 160.582C36.7207 160.575 36.6385 160.602 36.5954 160.669C36.4974 160.83 36.658 161.167 36.9755 161.501V161.536L37.0188 161.544C37.0893 161.614 37.1676 161.689 37.2538 161.756C37.7438 162.152 38.2377 162.309 38.3671 162.105C38.4063 162.042 38.4063 161.952 38.3671 161.846L38.4574 161.866V138.31V138.314Z" fill="#ECB5A1"/>
<path d="M43.436 163.185C44.4905 163.44 45.2704 163.106 45.2704 163.106C45.2704 163.106 45.294 163.173 46.1015 162.568C46.9091 161.96 45.1805 161.238 45.1805 161.238L42.4089 161.05L41.6092 161.273C41.6092 161.273 39.9902 162.588 41.1819 162.674C42.3736 162.761 42.6244 162.988 43.4398 163.188L43.436 163.185Z" fill="#19132E"/>
<path d="M45.0219 138.356H39.9062L43.3949 160.624C43.2851 160.617 43.2029 160.644 43.1598 160.711C43.0618 160.872 43.2224 161.209 43.54 161.543V161.578L43.5832 161.586C43.6538 161.656 43.732 161.731 43.8183 161.798C44.3083 162.194 44.8021 162.351 44.9315 162.147C44.9707 162.084 44.9707 161.994 44.9315 161.888L45.0219 161.908V138.352V138.356Z" fill="#ECB5A1"/>
<path d="M46.4052 139.71C46.4052 139.71 41.7484 139.483 37.4951 139.597C33.2418 139.71 30.0703 138.592 30.0703 138.592C30.0703 138.592 31.117 135.892 30.9366 132.145C30.7563 128.397 30.388 123.681 30.8976 120.153C31.4072 116.629 33.967 112.011 33.967 112.011H43.9594C43.9594 112.011 46.4837 115.221 46.9894 123.477C47.4951 131.733 46.3975 139.71 46.3975 139.71H46.4052Z" fill="#314572"/>
<path d="M45.0599 111.508C46.2908 113.36 32.7392 112.136 32.7392 112.136C32.7392 112.136 30.7676 110.233 32.4728 102.903C34.178 95.5725 33.5194 93.3437 33.5194 93.3437L43.9309 92.7158C43.9309 92.7158 46.0009 97.201 45.9342 100.069C45.8637 102.938 43.8328 109.656 45.0637 111.504L45.0599 111.508Z" fill="#528BBF"/>
<path d="M49.5021 107.294C49.5021 107.294 47.3735 96.1501 43.818 94.0272C40.2625 91.9043 43.63 99.9877 43.63 99.9877L45.9778 107.141L44.3118 111.367C44.3118 111.367 44.9625 115.48 45.817 115.181C46.6716 114.883 49.4982 107.298 49.4982 107.298L49.5021 107.294Z" fill="#528BBF"/>
<path d="M35.8277 89.86C36.9191 89.7941 37.7175 88.3098 37.6112 86.5446C37.5049 84.7794 36.5341 83.4018 35.4428 83.4677C34.3514 83.5335 33.553 85.0179 33.6593 86.7831C33.7656 88.5483 34.7364 89.9258 35.8277 89.86Z" fill="#ECB5A1"/>
<path d="M43.3909 88.2549C42.8186 87.3249 43.1399 86.7638 43.6103 85.6887C44.0807 84.6135 43.83 83.2518 43.7791 82.4121C43.634 79.9831 41.2543 78.1506 38.4633 78.3194C35.6722 78.4881 33.5318 80.5914 33.6769 83.0242C33.7788 84.688 35.1 85.3316 35.7273 86.2733C36.3545 87.2151 35.9703 87.8468 35.7273 88.8592C35.4803 89.8677 35.1117 90.99 35.194 92.3595C35.3508 94.9415 37.7736 96.8995 40.6078 96.7268C43.442 96.5542 45.6134 94.3214 45.4566 91.7394C45.3704 90.2954 43.9672 89.1888 43.3909 88.2549Z" fill="#314572"/>
<path d="M136.174 85.6685H102.25L110.537 70.667H128.447L136.174 85.6685Z" fill="url(#paint2_linear_248_55055)"/>
<path d="M218.995 63C213.475 63 209 58.5228 209 53C209 47.4771 213.475 43 218.995 43C224.514 43 228.989 47.4771 228.989 53C228.989 58.5228 224.514 63 218.995 63Z" fill="url(#paint3_linear_248_55055)"/>
<path d="M239.314 1.06445V9.20347H237.678V1.06445C237.678 0.474902 238.043 0 238.492 0C238.941 0 239.306 0.474902 239.306 1.06445H239.314Z" fill="#38CCF0"/>
<path d="M239.313 36.6448C239.313 37.2343 238.948 37.7092 238.499 37.7092C238.05 37.7092 237.685 37.2343 237.685 36.6448V28.9971H239.321V36.6448H239.313Z" fill="#38CCF0"/>
<path d="M256 18.856C256 19.3391 255.558 19.7322 255.011 19.7322H247.452V17.9717H255.011C255.558 17.9717 256 18.3647 256 18.8478V18.856Z" fill="#38CCF0"/>
<path d="M221.982 17.9717H229.085V19.7322H221.982C221.435 19.7322 220.994 19.3391 220.994 18.856C220.994 18.3729 221.435 17.9799 221.982 17.9799V17.9717Z" fill="#38CCF0"/>
<path d="M250.75 6.90664L245.404 12.6629L244.248 11.4183L249.594 5.66208C249.981 5.24449 250.552 5.18714 250.872 5.53104C251.191 5.87494 251.138 6.48905 250.75 6.90664Z" fill="#38CCF0"/>
<path d="M227.397 32.0505C227.009 32.4681 226.439 32.5254 226.12 32.1815C225.8 31.8376 225.853 31.2235 226.241 30.8059L231.268 25.3936L232.424 26.6382L227.397 32.0505Z" fill="#38CCF0"/>
<path d="M250.872 32.1785C250.552 32.5224 249.981 32.4651 249.593 32.0475L244.248 26.2912L245.404 25.0466L250.75 30.8029C251.138 31.2205 251.191 31.8346 250.872 32.1785Z" fill="#38CCF0"/>
<path d="M227.397 5.66208L232.424 11.0744L231.268 12.319L226.241 6.90664C225.853 6.48905 225.8 5.87494 226.12 5.53104C226.439 5.18714 227.009 5.24449 227.397 5.66208Z" fill="#38CCF0"/>
<defs>
<linearGradient id="paint0_linear_248_55055" x1="135.955" y1="161.782" x2="135.955" y2="159.342" gradientUnits="userSpaceOnUse">
<stop stop-color="#002D49"/>
<stop offset="1" stop-color="#002737"/>
</linearGradient>
<linearGradient id="paint1_linear_248_55055" x1="146.862" y1="162.787" x2="146.614" y2="160.359" gradientUnits="userSpaceOnUse">
<stop stop-color="#002D49"/>
<stop offset="1" stop-color="#002737"/>
</linearGradient>
<linearGradient id="paint2_linear_248_55055" x1="119.212" y1="85.6685" x2="119.212" y2="70.667" gradientUnits="userSpaceOnUse">
<stop stop-color="#9ACBDD" stop-opacity="0"/>
<stop offset="0.77" stop-color="white" stop-opacity="0.8"/>
</linearGradient>
<linearGradient id="paint3_linear_248_55055" x1="218.995" y1="63" x2="218.995" y2="43" gradientUnits="userSpaceOnUse">
<stop offset="0.0817308" stop-color="#4C99EB"/>
<stop offset="1" stop-color="#56BDED"/>
</linearGradient>
</defs>
</svg>
