<svg width="200" height="150" viewBox="0 0 200 150" fill="none" xmlns="http://www.w3.org/2000/svg">
<path d="M78.0327 135.106C118.235 132.167 136.539 164.837 166.763 125.259C187.701 97.8439 184.579 52.5907 162.193 26.2148C145.303 6.31991 124.708 -3.36678 108.562 14.0919C92.4168 31.5469 71.8875 35.5441 54.3632 40.8105C32.3092 47.4373 13.3188 81.9097 22.5131 107.089C31.7111 132.269 50.5591 137.116 78.0327 135.11V135.106Z" fill="url(#paint0_linear_248_55003)"/>
<path d="M109.016 73.8697C109.016 73.8697 128.63 45.043 136.369 35.0719C138.375 32.4897 139.276 34.6087 139.196 34.7655C138.503 36.1478 109.428 76.6269 109.428 76.6269C109.428 76.6269 100.526 87.7943 97.9181 89.1912C96.9553 89.709 96.7874 89.1693 96.5102 89.0854C96.233 89.0015 96.594 88.035 98.0164 86.8388C98.0164 86.8388 106.452 77.8487 109.009 73.8697H109.016Z" fill="#CDDAE7"/>
<path d="M94.798 44.4881C94.8819 49.0542 100.641 55.6044 103.124 58.2668C105.076 60.3602 109.591 62.7126 110.164 60.4295C110.74 58.1464 105.258 55.5461 102.264 52.198C98.6678 48.1862 97.3401 45.119 98.1388 39.714C98.5291 37.0844 105.342 31.6722 108.365 31.581C106.217 39.094 108.019 44.3495 109.62 47.8543C110.678 50.1702 112.589 52.3622 114.828 50.7684C117.068 49.1746 114.609 46.5706 113.526 43.7915C111.684 39.0685 112.818 35.0858 113.741 32.6459C114.806 29.834 119.876 28.1199 124.632 29.2432C120.984 33.6161 122.687 40.9905 123.975 42.9927C125.255 44.995 127.002 43.9446 127.553 41.8585C127.969 40.2829 130.164 31.694 130.948 30.7823C133.869 27.3759 140.843 28.5174 144.464 27.4707C144.968 31.8144 147.539 36.7271 145.248 39.342C144.453 40.2502 137.01 45.6953 135.613 46.6836C133.767 47.9893 133.424 49.8857 135.934 50.152C138.443 50.4182 146.467 48.8646 149.333 44.0285C152.375 47.5735 154.144 53.1536 151.78 55.1887C149.727 56.9538 144.833 58.2376 139.395 58.6023C136.193 58.8212 131.667 58.8066 130.988 61.3377C130.31 63.8651 133.986 63.9161 136.922 64.197C139.635 64.4559 147.003 63.5113 153.6 58.6607C154.738 61.2392 152.393 68.2234 150.121 69.8609C146.802 72.2425 142.079 73.4752 135.438 71.7136C130.908 70.5101 126.236 67.4283 124.201 68.8325C122.162 70.2439 126.907 72.5123 129.982 73.8581C132.688 75.0434 145.186 76.2944 147.221 74.883C147.455 79.099 143.775 83.1072 140.518 84.6827C135.514 87.1081 130.361 84.6426 127.104 82.5091C123.581 80.2041 118.537 75.5176 117.99 78.3951C116.67 85.3392 130.474 87.7937 132.644 88.5961C128.84 95.635 117.764 95.4271 112.717 88.0344C109.649 83.5448 111.465 78.6541 109.43 76.6227C109.904 76.0099 131.43 45.4436 132.556 43.9118C133.884 42.1101 136.944 37.2777 136.98 36.6322C136.357 36.924 132.786 41.4537 131.539 43.3028C130.474 44.871 108.158 75.2367 107.735 75.8823C104.893 74.996 102.946 78.9933 97.3075 77.8882C91.2971 76.7065 82.7664 71.7975 87.8906 60.5791C89.5646 62.0817 93.9922 66.0898 96.6436 68.0921C98.748 69.6859 102.3 71.2468 103.172 69.5254C104.511 66.8739 97.3 64.3976 93.5799 62.3698C90.1407 60.4952 87.7374 58.7628 87.2378 54.9188C86.9569 52.7743 90.5237 45.5457 94.7945 44.4808L94.798 44.4881Z" fill="#CDDAE7"/>
<path d="M81.7555 135.08C105.241 135.08 124.281 133.013 124.281 130.463C124.281 127.913 105.241 125.846 81.7555 125.846C58.2695 125.846 39.2305 127.913 39.2305 130.463C39.2305 133.013 58.2695 135.08 81.7555 135.08Z" fill="#CDDAE7"/>
<path d="M103.489 72.502H50.2928C47.9825 72.502 46.1094 74.3748 46.1094 76.6852V126.151C46.1094 128.461 47.9825 130.334 50.2928 130.334H103.489C105.799 130.334 107.673 128.461 107.673 126.151V76.6852C107.673 74.3748 105.799 72.502 103.489 72.502Z" fill="#FF9A2E"/>
<path d="M110.483 72.502H57.2866C54.9763 72.502 53.1035 74.3748 53.1035 76.6852V126.151C53.1035 128.461 54.9763 130.334 57.2866 130.334H110.483C112.794 130.334 114.666 128.461 114.666 126.151V76.6852C114.666 74.3748 112.794 72.502 110.483 72.502Z" fill="#FFCB49"/>
<path d="M77.8242 113.856L81.5515 99.8835C79.5784 98.8879 78.2142 96.7653 78.2142 94.3071C78.2142 90.8934 80.8401 88.1289 84.0823 88.1289C87.3246 88.1289 89.9508 90.8971 89.9508 94.3071C89.9508 96.9075 88.4261 99.1286 86.267 100.04L90.0274 113.856H77.8242Z" fill="#FF9B2F"/>
<path d="M75.4883 113.856L79.2155 99.8835C77.2424 98.8879 75.8786 96.7653 75.8786 94.3071C75.8786 90.8934 78.5045 88.1289 81.7468 88.1289C84.989 88.1289 87.6149 90.8971 87.6149 94.3071C87.6149 96.9075 86.0905 99.1286 83.9314 100.04L87.6914 113.856H75.4883Z" fill="#3B2B5C"/>
<path d="M97.9542 72.5013V57.3841C97.9542 48.383 90.591 41.0232 81.5936 41.0232C72.5925 41.0232 65.2326 48.3867 65.2326 57.3841V72.5013H59.3242V56.527C59.3242 44.2801 69.3466 34.2578 81.5936 34.2578C93.8405 34.2578 103.863 44.2801 103.863 56.527V72.5013H97.9542Z" fill="#3E3F44"/>
<path d="M100.91 58.7188C100.91 47.7884 91.9713 38.667 80.0781 36.5371C92.2448 37.0331 101.924 45.261 101.924 55.3379C101.924 57.4241 101.509 59.43 100.743 61.3046C100.856 60.4548 100.914 59.5904 100.914 58.7151L100.91 58.7188Z" fill="#5D6079"/>
<path d="M135.467 122.538C137.637 118.212 139.205 111.655 139.745 104.047C143.202 98.7259 145.606 90.4616 146.153 80.9609H136.284C135.897 83.2039 135.533 85.4979 135.197 87.8321C133.308 100.911 132.575 113.041 132.888 122.534H135.463L135.467 122.538Z" fill="#1E2D54"/>
<path d="M154.315 100.879C154.738 97.928 154.971 94.7623 154.971 91.4617C154.971 87.6432 154.662 83.9997 154.1 80.6699H140.883C142.312 87.1071 144.942 94.9665 148.571 103.14C152.156 111.207 156.124 118.246 159.83 123.436L162.386 122.072C161.759 118.709 160.785 115.15 159.447 111.554C157.973 107.582 156.212 103.979 154.308 100.882L154.315 100.879Z" fill="#153F5E"/>
<path d="M138.276 62.3468C138.728 61.5444 139.111 60.742 139.425 59.9652L134.151 56.9746C133.753 57.5253 133.367 58.1198 133.002 58.7617C132.145 60.2643 131.525 61.7778 131.171 63.1273C130.788 63.0215 130.402 62.923 130.008 62.8245C124.796 61.5663 120.369 61.5371 120.124 62.7589C119.876 63.977 123.903 65.9866 129.118 67.2412C129.435 67.3178 131.696 68.3426 132.878 68.1092C134.06 67.8758 136.069 66.2783 138.283 62.3468H138.276Z" fill="#EA9F87"/>
<path d="M121.046 60.9216C121.046 60.9216 120.794 60.4255 120.488 60.8705C120.123 61.392 119.601 61.4431 119.142 60.8085C118.908 60.4876 118.58 60.0535 118.146 59.2256C118.052 58.7442 117.741 58.6822 117.665 58.9521C117.402 59.8858 117.505 60.9945 118.416 62.2455C119.328 63.5001 120.265 64.0945 120.965 63.4891C121.52 63.0077 121.527 61.9573 121.049 60.9216H121.046Z" fill="#EA9F87"/>
<path d="M155.588 60.1666L159.877 57.8032C159.724 53.0255 155.686 49.0247 150.212 47.7664C149.647 48.7657 148.268 49.4769 146.653 49.4769C145.037 49.4769 143.618 48.7475 143.067 47.7227C137.885 48.846 133.953 52.4128 133.297 56.793L138.545 59.2949C138.487 66.4067 134.263 78.4057 135.197 80.0177C136.222 81.7865 153.185 82.1403 154.643 81.7866C156.099 81.4328 153.524 65.0172 154.472 60.2468L155.584 60.1666H155.588Z" fill="#729EDB"/>
<path d="M160.994 59.8125C160.626 58.8898 160.214 58.0327 159.784 57.2559L154.156 60.4799C154.357 61.1947 154.598 61.9314 154.889 62.6718C155.575 64.4115 156.41 65.9286 157.278 67.0921C156.961 67.3948 156.643 67.7011 156.322 68.0221C152.128 72.2454 149.4 76.4688 150.228 77.4498C151.056 78.4309 155.13 75.8013 159.324 71.578C159.579 71.319 161.782 69.7836 162.318 68.5071C162.851 67.2307 162.796 64.3312 160.991 59.8125H160.994Z" fill="#EFB495"/>
<path d="M149.32 75.4418C149.32 75.4418 148.769 75.3761 148.937 75.9451C149.134 76.6125 148.857 77.1413 148.065 77.196C147.664 77.2252 147.113 77.2726 146.187 77.1814C145.742 76.9772 145.501 77.2398 145.673 77.4768C146.264 78.2974 147.215 78.8773 148.776 78.7716C150.337 78.6658 151.392 78.1297 151.333 77.0903C151.286 76.266 150.447 75.6205 149.32 75.4418Z" fill="#EFB495"/>
<path d="M149.666 48.981C148.761 49.4296 147.736 49.6849 146.646 49.6849C145.398 49.6849 144.235 49.3457 143.239 48.7695C143.63 48.0948 143.867 47.2195 143.867 46.2566C143.867 44.9473 143.429 43.7912 142.762 43.0982V41.457H146.795C146.974 44.5133 148.061 47.1939 149.666 48.981Z" fill="#EA9F86"/>
<path d="M141.895 39.7675C142.263 37.7471 144.294 38.1154 145.779 38.4363C146.731 38.6406 147.555 38.9761 147.916 40.1651C148.131 39.9681 148.361 40.5006 148.602 40.5626C149.101 40.6903 149.368 40.9528 149.204 41.7224C149.036 42.4919 148.499 43.4767 148 43.349C147.974 43.3417 147.956 43.3271 147.931 43.3198C147.756 43.9362 147.847 44.4759 147.475 44.9063C146.745 45.7561 145.338 46.2229 144.404 46.2375C141.359 46.2776 141.53 41.788 141.898 39.7675H141.895Z" fill="#EBB190"/>
<path d="M140.428 37.1682C140.676 35.527 143.922 34.9107 146.351 35.2061L146.836 35.2644C146.836 35.2644 148.014 35.5088 148.805 36.5008C149.622 37.522 150.053 39.3127 149.914 40.7497C149.761 42.3544 148.849 43.4558 148.098 43.4923C147.923 43.4996 147.799 43.4267 147.7 43.2917C147.967 43.2078 148.236 42.9781 148.419 42.6462C148.729 42.0845 148.674 41.4463 148.302 41.2238C147.996 41.0378 147.573 41.191 147.259 41.5557C147.008 40.312 146.486 38.9991 144.283 39.3929C141.872 39.8269 140.176 38.8131 140.424 37.1719L140.428 37.1682Z" fill="#1C3054"/>
<path d="M133.096 124.249L134.806 124.821L135.693 121.663L133.676 120.988L133.096 124.249Z" fill="#EA9F88"/>
<path d="M136.557 126.56L135.817 124.281C135.817 124.281 134.723 124.547 134.056 124.437C133.388 124.328 133.388 123.661 133.126 123.223H132.236C132.236 123.223 131.065 125.488 128.771 126.053H127.05C126.648 126.053 126.32 126.578 126.32 127.224V127.742H133.552L133.917 127.049H134.121V127.742H136.692V127.224C136.692 126.979 136.645 126.753 136.565 126.564L136.557 126.56Z" fill="#16415D"/>
<path d="M160.788 124.915L162.572 124.762L162.335 121.469L160.234 121.651L160.788 124.915Z" fill="#EA9F88"/>
<path d="M164.789 125.679L163.33 123.855C163.33 123.855 162.4 124.541 161.744 124.705C161.083 124.869 160.865 124.249 160.467 123.947L159.639 124.304C159.639 124.304 159.315 126.879 157.367 128.327L155.766 129.016C155.394 129.177 155.266 129.797 155.481 130.395L155.656 130.88L162.382 127.98L162.488 127.189L162.677 127.109L162.911 127.754L165.303 126.722L165.128 126.237C165.048 126.011 164.924 125.818 164.789 125.675V125.679Z" fill="#16415D"/>
<path d="M28 59.1951V62.8203H28.7839V59.1951C28.7839 58.9325 28.6091 58.7209 28.3939 58.7209C28.1787 58.7209 28.0036 58.9325 28.0036 59.1951H28Z" fill="#E5803C"/>
<path d="M28.0016 75.0395C28.0016 75.3021 28.1768 75.5136 28.392 75.5136C28.6071 75.5136 28.782 75.3021 28.782 75.0395V71.6331H27.998V75.0395H28.0016Z" fill="#E5803C"/>
<path d="M20 67.1187C20 67.3339 20.2118 67.509 20.4744 67.509H24.0994V66.7249H20.4744C20.2118 66.7249 20 66.8999 20 67.1151V67.1187Z" fill="#E5803C"/>
<path d="M36.3165 66.7288H32.9102V67.5129H36.3165C36.5791 67.5129 36.7905 67.3378 36.7905 67.1226C36.7905 66.9075 36.5791 66.7324 36.3165 66.7324V66.7288Z" fill="#E5803C"/>
<path d="M22.5177 61.793L25.0817 64.3569L25.6359 63.8025L23.0719 61.2386C22.8859 61.0526 22.6125 61.0271 22.4593 61.1803C22.3061 61.3335 22.3317 61.607 22.5177 61.793Z" fill="#E5803C"/>
<path d="M33.721 72.9966C33.9071 73.1826 34.1808 73.2081 34.334 73.055C34.4872 72.9018 34.4616 72.6282 34.2756 72.4422L31.8647 70.0315L31.3105 70.5859L33.721 72.9966Z" fill="#E5803C"/>
<path d="M22.4593 73.0577C22.6125 73.2109 22.8859 73.1853 23.0719 72.9993L25.6359 70.4355L25.0817 69.8811L22.5177 72.445C22.3317 72.631 22.3061 72.9045 22.4593 73.0577Z" fill="#E5803C"/>
<path d="M33.721 61.2386L31.3105 63.6493L31.8647 64.2037L34.2756 61.793C34.4616 61.607 34.4872 61.3335 34.334 61.1803C34.1808 61.0271 33.9071 61.0526 33.721 61.2386Z" fill="#E5803C"/>
<path d="M75.4905 24.6663C79.0718 24.6663 81.9751 21.7631 81.9751 18.1818C81.9751 14.6005 79.0718 11.6973 75.4905 11.6973C71.9092 11.6973 69.0059 14.6005 69.0059 18.1818C69.0059 21.7631 71.9092 24.6663 75.4905 24.6663Z" fill="#EAF0F9"/>
<defs>
<linearGradient id="paint0_linear_248_55003" x1="100.496" y1="5" x2="100.496" y2="145" gradientUnits="userSpaceOnUse">
<stop stop-color="#F6FBFF"/>
<stop offset="1" stop-color="#EAF0F9"/>
</linearGradient>
</defs>
</svg>
