<svg width="200" height="150" viewBox="0 0 200 150" fill="none" xmlns="http://www.w3.org/2000/svg">
<path d="M10.5869 104.72C-0.490563 87.1776 0.498862 30.7546 55.2212 25.9934C70.9209 24.6269 90.3196 35.6713 102.803 30.6686C115.29 25.6658 119.701 13.0663 144.522 13.0002C169.341 12.934 177.795 31.6942 174.698 47.1458C171.601 62.5974 186.347 64.9929 187.042 77.6387C187.678 89.2058 169.877 94.6288 162.786 104.906C155.693 115.182 154.826 133.205 135.976 136.388C114.976 139.935 112.441 116.469 84.7445 124.397C54.1358 133.158 24.5595 126.845 10.5869 104.72Z" fill="url(#paint0_linear_248_54406)"/>
<path d="M89.9992 46.1C89.9992 45.8948 89.9991 45.6897 89.9892 45.4912C89.9892 45.4018 89.9828 45.3158 89.9795 45.2298C89.9729 45.071 89.9694 44.9122 89.9594 44.76C89.9528 44.6276 89.9429 44.5019 89.9329 44.3728C89.9263 44.2703 89.9199 44.1644 89.91 44.0618C89.8902 43.8335 89.867 43.6118 89.8405 43.4001C89.4964 43.8832 89.1522 44.3762 88.8114 44.8758C88.689 45.0544 88.57 45.2364 88.4476 45.4184C88.2292 45.7459 88.0074 46.0768 87.7923 46.411C87.6633 46.6128 87.5343 46.818 87.4052 47.0198C87.2001 47.344 86.9915 47.6716 86.7897 48.0025C86.6673 48.2043 86.545 48.4061 86.4259 48.608C86.2207 48.9521 86.0157 49.2962 85.8139 49.6436C85.7643 49.7263 85.7146 49.809 85.6649 49.895C85.6749 49.8785 85.6879 49.8586 85.7011 49.8388C82.6737 55.1095 80.3148 60.7806 79.7655 65.7602C79.7655 65.7304 79.7655 65.7039 79.7655 65.6742C79.749 65.8164 79.7422 65.9521 79.729 66.0911C79.7191 66.2002 79.7092 66.3094 79.6993 66.4186C79.6728 66.766 79.6529 67.1134 79.6463 67.4542C79.6198 67.4675 79.5934 67.484 79.5736 67.5171C79.1666 68.3079 78.7859 69.1086 78.3128 69.863C77.297 68.4005 76.2782 66.9447 75.2293 65.512C75.6363 64.5691 76.0827 63.6062 76.1622 62.5905C76.2978 62.4184 76.4304 62.2464 76.5528 62.071C76.5991 62.0048 76.6422 61.9353 76.6885 61.8692C76.7911 61.717 76.8901 61.5648 76.9861 61.4093C77.0324 61.3332 77.0787 61.2538 77.125 61.1777C77.2144 61.0222 77.3004 60.8633 77.3864 60.7012C77.4228 60.6284 77.4625 60.5589 77.4989 60.4861C77.6114 60.2578 77.7205 60.0262 77.8165 59.7913C77.8231 59.7781 77.8267 59.7649 77.8333 59.7516C77.9259 59.5266 78.0117 59.3016 78.0911 59.0733C78.1176 58.9939 78.1442 58.9112 78.1706 58.8318C78.2236 58.6664 78.2765 58.5009 78.3228 58.3322C78.3493 58.2429 78.3724 58.1502 78.3955 58.0609C78.4121 58.0013 78.4287 57.9418 78.4453 57.8789C78.4387 57.8921 78.4353 57.9021 78.432 57.9153C79.7522 52.6644 78.1344 46.3944 76.1657 41.3652C76.1657 41.3586 76.1622 41.3553 76.1589 41.3487C75.8413 40.5414 75.5171 39.7638 75.1928 39.0293C75.173 38.983 75.1532 38.9367 75.1334 38.8937C74.9845 38.5595 74.8389 38.2385 74.6933 37.9242C74.6602 37.8481 74.6236 37.7753 74.5905 37.7025C74.4449 37.3915 74.2994 37.0871 74.1605 36.7993C74.0579 37.0573 73.9619 37.3154 73.8726 37.5801C73.8329 37.6992 73.7966 37.8183 73.7569 37.9375C73.7073 38.0863 73.6575 38.2352 73.6112 38.3841C73.5715 38.5132 73.5387 38.6422 73.5023 38.7712C73.4593 38.9168 73.4162 39.0657 73.3798 39.2146C73.3467 39.3403 73.3169 39.4661 73.2871 39.5918C73.2474 39.7506 73.211 39.9061 73.1746 40.0649C73.1482 40.184 73.1249 40.3065 73.0984 40.4256C73.062 40.5943 73.0291 40.7631 72.996 40.9318C72.9728 41.0476 72.956 41.1634 72.9362 41.2792C72.9064 41.4579 72.8735 41.6333 72.847 41.8152C72.8305 41.9277 72.8138 42.0435 72.7972 42.156C72.7708 42.338 72.7445 42.52 72.7213 42.7053C72.7081 42.8211 72.6948 42.9369 72.6816 43.0527C72.6617 43.2347 72.6419 43.4133 72.6254 43.5986C72.622 43.6416 72.6154 43.6846 72.6121 43.7243C72.6121 43.7177 72.612 43.7078 72.6153 43.6979C72.4135 45.9048 72.4333 48.1811 72.6318 50.4079C72.6318 50.4079 72.6318 50.4013 72.6318 50.398C72.6318 50.4112 72.6321 50.4211 72.6354 50.4344C72.6585 50.6759 72.6816 50.9141 72.7081 51.1557C72.7147 51.2119 72.7179 51.2681 72.7245 51.3244C72.751 51.5725 72.7842 51.8207 72.8173 52.0688C72.8239 52.1152 72.8271 52.1615 72.8338 52.2078C72.8668 52.4659 72.9065 52.7207 72.9462 52.9721C72.9528 53.0085 72.9561 53.0416 72.9627 53.078C73.0057 53.3427 73.0488 53.6074 73.0952 53.8688C73.0985 53.8919 73.1018 53.9151 73.1084 53.9416C73.158 54.2129 73.2077 54.4809 73.2606 54.7456C73.2606 54.7621 73.2673 54.7754 73.2706 54.7919C73.3269 55.0632 73.383 55.3345 73.4425 55.6025C73.4425 55.6124 73.446 55.6191 73.4493 55.629C74.0482 58.3024 74.8918 60.7111 75.881 62.5905C75.8016 63.5136 75.4178 64.3904 75.0406 65.2473C73.6907 63.4077 72.2943 61.6045 70.7988 59.8674C70.6731 59.6093 70.5442 59.3579 70.4185 59.0899C70.3192 58.8814 70.2166 58.6697 70.1173 58.4546C70.0015 58.2131 69.889 57.9682 69.7732 57.7201C69.4457 57.0186 69.1147 56.3007 68.7706 55.5529C68.7706 55.5529 68.7706 55.5529 68.7706 55.5562C67.5199 52.8497 66.1271 49.8884 64.3966 46.9536C62.7423 44.1445 60.724 41.6002 58.6727 39.5091C58.6826 39.5157 58.6925 39.5256 58.7024 39.5322C58.6362 39.4628 58.5666 39.3966 58.5004 39.3304C58.4475 39.2775 58.3979 39.2278 58.3482 39.1782C58.0835 38.9168 57.819 38.6621 57.5576 38.4139C57.5113 38.3709 57.465 38.3279 57.4186 38.2849C57.1606 38.0466 56.9025 37.815 56.6477 37.5933C56.6278 37.5768 56.6045 37.557 56.5847 37.5371C56.32 37.3121 56.0589 37.097 55.8008 36.8886C55.7446 36.8423 55.6881 36.796 55.6318 36.7529C55.3837 36.5577 55.1358 36.3691 54.8909 36.1905C54.8314 36.1474 54.775 36.1044 54.7155 36.0647C54.4673 35.8894 54.2225 35.7173 53.9843 35.5618C53.9479 35.5387 53.9082 35.5155 53.8718 35.489C53.6468 35.3434 53.4217 35.2078 53.2033 35.0787C53.1636 35.0556 53.1238 35.0324 53.0841 35.0093C52.8525 34.8769 52.6276 34.7578 52.4026 34.6486C52.353 34.6255 52.3032 34.599 52.2569 34.5758C52.0385 34.4699 51.8236 34.374 51.6152 34.2913C51.5755 34.2747 51.5391 34.2615 51.5028 34.2483C51.2844 34.1655 51.0693 34.0928 50.8675 34.0332C50.937 34.2516 51.0131 34.4865 51.0892 34.728C51.0991 34.7611 51.1089 34.7909 51.1221 34.824C51.1916 35.0324 51.2612 35.2508 51.3373 35.4758C51.3572 35.532 51.3737 35.585 51.3935 35.6412C51.4796 35.8927 51.5655 36.1508 51.6614 36.4188C51.7011 36.5313 51.7442 36.6471 51.7839 36.7629C51.8335 36.9018 51.8831 37.0408 51.936 37.1864C51.9658 37.2691 51.9925 37.3485 52.0256 37.4312C52.0256 37.4246 52.0253 37.418 52.022 37.4114C53.8021 42.2123 57.0844 49.1208 63.5959 55.0864C63.5761 55.0731 63.5596 55.0566 63.5397 55.0434C63.6522 55.1459 63.768 55.2485 63.8838 55.3511C63.9798 55.4371 64.0758 55.5231 64.1717 55.6091C64.4199 55.8275 64.6746 56.0459 64.9327 56.261C64.9955 56.3139 65.0549 56.3668 65.1178 56.4198C65.4487 56.6911 65.7831 56.9624 66.1272 57.2304C66.1702 57.2635 66.2196 57.2999 66.2626 57.333C66.5571 57.5613 66.8583 57.7863 67.166 58.0079C67.262 58.0774 67.3611 58.1502 67.4604 58.2197C67.7251 58.4083 67.9932 58.5969 68.2678 58.7822C68.377 58.855 68.4862 58.9311 68.5987 59.0038C68.8799 59.1924 69.1677 59.3777 69.4588 59.5597C69.5581 59.6226 69.6575 59.6854 69.7567 59.7483C69.9817 59.8873 70.2099 60.0229 70.4382 60.1586C71.5433 61.4424 72.5988 62.7559 73.6212 64.0959C72.5955 63.7419 71.6295 63.3548 70.7461 62.6963C70.6105 62.5342 70.4682 62.3754 70.3193 62.2166C70.2531 62.1438 70.1836 62.071 70.1141 62.0015C70.0579 61.942 70.005 61.8824 69.9454 61.8262C69.9454 61.8361 69.9585 61.8493 69.9652 61.8592C65.4885 57.3727 57.0678 54.6629 51.4827 53.3162C50.682 53.121 49.7325 52.9721 48.7631 52.853C48.7068 52.8464 48.6507 52.8398 48.5944 52.8332C48.3694 52.8067 48.1444 52.7802 47.9194 52.757C47.8301 52.7471 47.7406 52.7372 47.648 52.7306C47.5388 52.7207 47.4296 52.7107 47.3204 52.7008C47.2244 52.6909 47.1287 52.6843 47.036 52.6743C46.9368 52.6644 46.8374 52.6578 46.7381 52.6479C46.5628 52.6346 46.3908 52.6214 46.2253 52.6082C46.1426 52.6015 46.0666 52.5982 45.9872 52.5916C45.878 52.585 45.7719 52.5751 45.666 52.5685C45.5866 52.5618 45.514 52.5585 45.4379 52.5552C45.3188 52.5486 45.2062 52.542 45.097 52.5354C45.0474 52.5354 44.9944 52.5288 44.9481 52.5254C44.7959 52.5155 44.6505 52.5089 44.5115 52.5023C44.4619 52.5023 44.4154 52.499 44.3658 52.4957C44.2666 52.4924 44.174 52.4857 44.0847 52.4824C44.0483 52.4824 44.0119 52.4824 43.9755 52.4791C43.8696 52.4758 43.7701 52.4692 43.6808 52.4659C43.6709 52.4659 43.661 52.4659 43.6511 52.4659C43.5518 52.4626 43.4725 52.4593 43.3997 52.456C43.3765 52.456 43.3633 52.456 43.3435 52.456C43.2939 52.456 43.254 52.456 43.2243 52.4527C43.211 52.4527 43.2044 52.4527 43.1978 52.4527C43.168 52.4527 43.1516 52.4527 43.1516 52.4527C43.2508 52.628 43.3665 52.8001 43.4857 52.9754C43.522 53.0317 43.5652 53.0846 43.6049 53.1376C43.6975 53.2666 43.7999 53.3956 43.9025 53.5214C43.9422 53.571 43.9819 53.6239 44.0249 53.6736C44.1639 53.839 44.313 54.0011 44.4718 54.1632C44.528 54.2195 44.5841 54.2757 44.6437 54.3353C44.7562 54.4478 44.8719 54.5603 44.991 54.6695C45.0671 54.739 45.1434 54.8084 45.2195 54.8779C45.3353 54.9838 45.4577 55.0864 45.5801 55.1889C45.729 55.3147 45.8845 55.4404 46.0467 55.5661C46.1294 55.629 46.2055 55.6952 46.2916 55.758C46.2916 55.758 46.2881 55.7514 46.2848 55.7514C51.2015 59.4935 59.9066 62.5574 66.1931 63.196C66.1931 63.196 66.1932 63.196 66.1899 63.196C66.1998 63.196 66.2099 63.196 66.2232 63.196C66.3059 63.2026 66.3851 63.2092 66.4645 63.2158C66.6664 63.2357 66.8648 63.2489 67.06 63.2621C67.1527 63.2687 67.242 63.2721 67.3347 63.2787C67.5299 63.2886 67.7219 63.2985 67.9105 63.3018C67.98 63.3018 68.0526 63.3051 68.1221 63.3085C68.3802 63.3118 68.635 63.3118 68.8798 63.3085C68.8964 63.3085 68.913 63.3085 68.9296 63.3085C69.1546 63.3018 69.3763 63.2886 69.5881 63.2721C69.6476 63.2688 69.7072 63.2621 69.7668 63.2555C69.9421 63.239 70.1109 63.2191 70.2763 63.196C70.3326 63.1893 70.3887 63.1794 70.445 63.1728C70.5608 63.1529 70.6764 63.1331 70.7855 63.1099C71.7384 63.7584 72.7808 64.1455 73.8826 64.5161C73.9058 64.5227 73.929 64.5261 73.9488 64.5227C75.2988 66.3028 76.5958 68.1193 77.8763 69.9556C77.1517 70.0317 76.427 70.1442 75.7024 70.1806C75.4311 70.0615 75.1533 69.9457 74.8687 69.8299C74.7629 69.7869 74.6567 69.7438 74.5476 69.7041C74.1207 69.5387 73.6841 69.3766 73.2341 69.2211C73.2275 69.2211 73.221 69.2178 73.2144 69.2145C73.2144 69.2145 73.2143 69.2145 73.2176 69.2145C68.9196 67.7388 63.6291 66.7991 58.7256 66.6072C55.5394 66.3624 51.7441 66.8951 48.6009 67.2226C47.8994 67.2921 47.1815 67.4013 46.4735 67.5436C46.4768 67.5436 46.4834 67.5403 46.4867 67.5403C46.2287 67.5899 45.9737 67.6461 45.7222 67.7057C45.6461 67.7222 45.5703 67.7454 45.4909 67.7619C45.2758 67.8149 45.0606 67.8711 44.8489 67.9274C44.7595 67.9505 44.6703 67.977 44.581 68.0035C44.3527 68.0697 44.1277 68.1391 43.906 68.2086C43.8564 68.2252 43.8067 68.2384 43.7571 68.2549C43.4924 68.3443 43.2376 68.4336 42.9861 68.5296C42.9166 68.556 42.8503 68.5825 42.7842 68.609C42.5956 68.6818 42.4171 68.7579 42.2384 68.8373C42.169 68.867 42.0994 68.8968 42.0333 68.9299C41.8083 69.0325 41.5866 69.1384 41.3848 69.2475C41.7553 69.3898 42.1323 69.5387 42.5095 69.6909C42.9397 69.863 43.3765 70.0383 43.8165 70.2137C43.8628 70.2335 43.9091 70.2501 43.9555 70.2666C44.3558 70.4254 44.7595 70.5809 45.1665 70.7298C45.1897 70.7398 45.2127 70.7464 45.2392 70.7563C45.6594 70.9118 46.0832 71.0607 46.51 71.1997C46.5232 71.203 46.5397 71.2096 46.553 71.2162C46.5497 71.2162 46.543 71.2129 46.5397 71.2096C47.5356 71.5338 48.5448 71.8052 49.5738 71.9739C52.7832 72.5033 55.3872 72.6919 58.4642 73.0095C63.3379 73.2643 68.0959 72.7382 72.8835 71.3783C72.8405 71.3949 72.8042 71.4114 72.7578 71.428C72.9961 71.3618 73.234 71.2824 73.4722 71.2129C73.6939 71.1467 73.919 71.0806 74.144 71.0111C74.6635 70.8489 75.1861 70.6736 75.7056 70.4883C76.4964 70.4486 77.2841 70.3129 78.0815 70.2435C78.6737 71.0938 79.2624 71.9474 79.8547 72.8044C79.1003 73.0194 78.3525 73.2411 77.5948 73.4297C77.1978 73.433 76.7878 73.443 76.3709 73.4529C76.1922 73.4595 76.01 73.4661 75.8281 73.4727C75.57 73.4827 75.3121 73.4926 75.0474 73.5091C74.8423 73.5191 74.637 73.5323 74.4319 73.5455C74.1672 73.5621 73.8993 73.5819 73.628 73.6051C73.4261 73.6216 73.224 73.6382 73.0189 73.6547C72.9593 73.6613 72.9034 73.6646 72.8405 73.6679C72.8505 73.6679 72.8601 73.6679 72.8667 73.6679C68.2015 74.1113 62.7986 75.2793 57.6106 77.9957C57.6271 77.9858 57.6403 77.9792 57.6535 77.9692C57.4418 78.0784 57.2333 78.2075 57.0215 78.3233C56.6675 78.5185 56.3135 78.7071 55.9595 78.9155C55.7014 79.0677 55.4501 79.2398 55.1953 79.4019C54.8843 79.6004 54.5699 79.789 54.2589 80.0008C53.9016 80.2456 53.5509 80.5103 53.1968 80.7717C52.995 80.9206 52.7896 81.0596 52.5878 81.2151C52.0352 81.6452 51.4895 82.0952 50.9502 82.5716C51.076 82.6312 51.2081 82.6841 51.3438 82.7304C51.3901 82.747 51.4432 82.7635 51.4895 82.7801C51.5788 82.8098 51.6647 82.8396 51.7574 82.8661C51.8169 82.8826 51.88 82.8992 51.9428 82.9124C52.0256 82.9323 52.1082 82.9554 52.1942 82.972C52.2604 82.9852 52.3299 82.9984 52.3994 83.0117C52.4821 83.0282 52.5648 83.0415 52.6475 83.0547C52.7203 83.0646 52.7932 83.0745 52.866 83.0845C52.9487 83.0944 53.0314 83.1043 53.1141 83.1109C53.1902 83.1176 53.2694 83.1242 53.3455 83.1308C53.4282 83.1374 53.5112 83.1407 53.5972 83.1473C53.6799 83.1506 53.7591 83.1539 53.8418 83.1573C53.9245 83.1573 54.0072 83.1573 54.0899 83.1606C54.176 83.1606 54.2621 83.1606 54.3481 83.1606C54.4275 83.1606 54.5068 83.1573 54.5862 83.154C54.6789 83.154 54.7717 83.1506 54.8677 83.144C54.9272 83.144 54.9868 83.1374 55.0463 83.1308C55.45 83.1043 55.8634 83.0646 56.2803 83.0084C56.3299 83.0018 56.3764 82.9951 56.426 82.9885C56.5551 82.972 56.6841 82.9488 56.8131 82.929C56.8628 82.9223 56.9124 82.9124 56.9653 82.9058C57.0977 82.8826 57.2301 82.8595 57.3624 82.8363C57.4121 82.8264 57.4582 82.8198 57.5078 82.8098C57.6435 82.7834 57.7824 82.7569 57.9214 82.7271C57.9611 82.7172 58.0042 82.7106 58.0439 82.7007C58.1895 82.6709 58.3384 82.6378 58.484 82.6047C58.5104 82.5981 58.537 82.5915 58.5634 82.5849C58.7256 82.5485 58.8844 82.5088 59.0465 82.4691C59.0465 82.4691 59.0496 82.4691 59.053 82.4691C59.1853 82.436 59.3177 82.4029 59.4501 82.3698C59.4468 82.3698 59.4434 82.3698 59.4368 82.3698C61.968 81.7047 64.4596 80.7386 66.3224 79.9048C67.5929 79.339 69.0818 78.6508 70.5839 77.9064C70.5806 77.9064 70.5772 77.9097 70.5739 77.913C70.6037 77.8965 70.6369 77.8832 70.6666 77.8667C70.9677 77.7178 71.2722 77.5656 71.5733 77.4101C71.5931 77.4001 71.6097 77.3902 71.6295 77.3803C71.9174 77.2347 72.2019 77.0858 72.4864 76.9369C72.5724 76.8906 72.6586 76.8443 72.7446 76.798C72.9663 76.6788 73.1879 76.5597 73.4063 76.4406C73.4923 76.391 73.5817 76.3447 73.6677 76.295C73.9126 76.1594 74.1539 76.0237 74.3921 75.8848C74.4385 75.8583 74.488 75.8285 74.5343 75.8021C74.8189 75.6366 75.097 75.4712 75.3683 75.3024C75.4179 75.2727 75.464 75.2429 75.5137 75.2131C75.7287 75.0808 75.9375 74.9484 76.136 74.8161C76.2088 74.7664 76.2813 74.7201 76.3541 74.6705C76.5328 74.5514 76.705 74.4323 76.8704 74.3131C76.9366 74.2668 76.9995 74.2205 77.0624 74.1742C77.2774 74.0187 77.4857 73.8598 77.6743 73.7076C78.4651 73.5124 79.246 73.2742 80.0302 73.0558C80.0302 73.0558 80.0301 73.0558 80.0334 73.0558C80.4933 73.7242 80.9534 74.3892 81.4166 75.0576C81.8997 75.7557 82.5019 76.6226 83.1802 77.6119C83.1636 77.6119 83.1437 77.6119 83.1272 77.6185C82.2802 77.9064 81.443 78.2108 80.6754 78.6938C80.3942 78.7898 80.0965 78.8824 79.7888 78.9685C79.7392 78.9817 79.6892 78.9982 79.6363 79.0115C79.3352 79.0942 79.0243 79.1703 78.7067 79.2431C76.0399 79.8585 72.8436 80.239 70.3025 81.5261C68.1221 82.661 64.9394 84.9903 62.2395 87.3097C62.2395 87.3097 62.2394 87.3063 62.2427 87.303C62.2262 87.3163 62.2128 87.3295 62.1962 87.3428C62.1234 87.4056 62.054 87.4652 61.9846 87.528C61.8191 87.6736 61.6536 87.8159 61.4915 87.9582C61.3922 88.0475 61.2932 88.1368 61.1939 88.2262C61.0583 88.3486 60.9259 88.471 60.7936 88.5901C60.6976 88.6761 60.6048 88.7655 60.5121 88.8515C60.307 89.0401 60.1085 89.2287 59.9199 89.414C59.8537 89.4768 59.7944 89.5397 59.7315 89.6026C59.5925 89.7382 59.4566 89.8739 59.3276 90.0062C59.2548 90.0823 59.1855 90.1551 59.1127 90.2279C58.9936 90.3536 58.8779 90.4761 58.7654 90.5952C58.7058 90.658 58.6461 90.7209 58.5932 90.7838C58.431 90.9625 58.2789 91.1378 58.1366 91.3032C58.3451 91.3628 58.5568 91.4091 58.7718 91.4488C58.8645 91.4654 58.9639 91.4753 59.0565 91.4885C59.1789 91.5051 59.3046 91.5249 59.4304 91.5349C59.5428 91.5448 59.6552 91.5481 59.7677 91.5514C59.8802 91.558 59.9928 91.5646 60.1086 91.5646C60.2277 91.5646 60.3468 91.5613 60.4659 91.5547C60.5784 91.5514 60.691 91.5481 60.8068 91.5382C60.9259 91.5282 61.0482 91.515 61.1706 91.5018C61.2864 91.4885 61.4054 91.4786 61.5212 91.4621C61.6436 91.4455 61.7662 91.4257 61.8886 91.4025C62.011 91.3827 62.1303 91.3595 62.2528 91.3363C62.3752 91.3132 62.4974 91.2834 62.6198 91.2569C62.7455 91.2271 62.8714 91.1974 63.0004 91.1643C63.1229 91.1312 63.2418 91.1014 63.3643 91.065C63.4238 91.0485 63.4802 91.0352 63.5397 91.0187C63.5298 91.0187 63.5166 91.0187 63.51 91.022C67.2852 89.9004 71.4078 87.1972 74.8555 84.4113C74.8555 84.4113 74.852 84.4146 74.8487 84.4179C74.8586 84.4112 74.8685 84.4013 74.8784 84.3947C75.1497 84.1763 75.4145 83.958 75.6759 83.7396C75.7454 83.68 75.8148 83.6238 75.8843 83.5642C76.0828 83.3955 76.2782 83.23 76.4701 83.0646C76.5462 82.9984 76.6223 82.9323 76.7018 82.8628C76.8904 82.6974 77.0755 82.5352 77.2575 82.3698C77.3204 82.3135 77.3866 82.254 77.4494 82.1977C77.6844 81.986 77.9159 81.7742 78.1409 81.5658C78.1442 81.5625 78.1476 81.5592 78.1509 81.5559C78.3825 81.3408 78.604 81.129 78.8224 80.9206C78.8786 80.8643 78.9351 80.8114 78.9913 80.7585C79.1435 80.6096 79.2955 80.464 79.4411 80.3184C79.5073 80.2522 79.5737 80.1861 79.6398 80.1232C79.7755 79.9875 79.9079 79.8519 80.0369 79.7195C80.0932 79.6633 80.1494 79.6037 80.2056 79.5475C80.381 79.3655 80.5528 79.1868 80.7116 79.0148C80.7248 79.0115 80.7349 79.0082 80.7481 78.9982C81.5223 78.4887 82.3792 78.1975 83.2329 77.9031C83.2825 77.8865 83.3124 77.8534 83.3224 77.817C83.9841 78.7766 84.722 79.8486 85.5127 81C85.5094 81.0066 85.5028 81.0066 85.4995 81.0132C85.0429 81.933 84.6195 82.9124 83.9114 83.6701C83.7195 83.733 83.5273 83.8025 83.3288 83.8786C83.2726 83.8984 83.2164 83.9216 83.1602 83.9414C82.9021 84.044 82.6373 84.1532 82.3659 84.2723C82.3064 84.2988 82.2437 84.3285 82.1808 84.355C81.9095 84.4774 81.6349 84.6065 81.3536 84.7487C81.3371 84.7587 81.3172 84.7653 81.3006 84.7752C81.0128 84.9208 80.7217 85.0763 80.4273 85.2351C80.3644 85.2682 80.3047 85.3013 80.2418 85.3377C79.9506 85.4998 79.6529 85.6685 79.3584 85.8472C79.2988 85.8803 79.2428 85.9167 79.1833 85.9531C78.8723 86.1417 78.5611 86.3336 78.2501 86.5354C78.2501 86.5354 78.2466 86.5354 78.2433 86.5387C77.9257 86.7439 77.6081 86.9589 77.2905 87.1806C77.2342 87.2203 77.1813 87.2567 77.125 87.2931C76.8173 87.5082 76.5096 87.7299 76.2019 87.9582C76.182 87.9747 76.1623 87.9879 76.1424 88.0012C76.1458 88.0012 76.1492 87.9979 76.1525 87.9946C74.0184 89.5827 71.937 91.4587 70.2065 93.4572C70.2164 93.4473 70.2231 93.434 70.233 93.4208C70.1768 93.487 70.1206 93.5531 70.0644 93.6226C69.9883 93.7153 69.9088 93.8046 69.8327 93.8973C69.74 94.0098 69.6474 94.1189 69.558 94.2314C69.4819 94.3274 69.406 94.4233 69.3299 94.5193C69.2439 94.6318 69.1578 94.741 69.0717 94.8535C68.999 94.9494 68.9261 95.0487 68.8533 95.1446C68.7706 95.2571 68.6914 95.3696 68.612 95.4788C68.5425 95.5748 68.4762 95.674 68.41 95.77C68.3339 95.8825 68.2544 95.995 68.1783 96.1108C68.1155 96.2067 68.0527 96.306 67.9932 96.4019C67.9204 96.5177 67.8475 96.6302 67.778 96.746C67.7184 96.8453 67.6623 96.9412 67.6061 97.0405C67.5399 97.153 67.4738 97.2688 67.4109 97.3813C67.3514 97.4905 67.295 97.5964 67.2387 97.7055C67.1858 97.8081 67.1261 97.914 67.0765 98.0166C66.9706 98.2283 66.8716 98.4368 66.7789 98.6485C66.994 98.5691 67.2191 98.4831 67.4507 98.3971C67.5235 98.3706 67.5962 98.3408 67.6723 98.311C67.8378 98.2449 68.0098 98.1787 68.1819 98.1092C68.2646 98.0761 68.3438 98.043 68.4265 98.01C68.6647 97.914 68.9031 97.8147 69.1512 97.7089C69.2141 97.6824 69.2771 97.6526 69.3399 97.6261C69.5318 97.5434 69.727 97.4574 69.9222 97.3714C70.0281 97.3251 70.1338 97.2754 70.243 97.2291C70.4085 97.153 70.5738 97.0769 70.7426 97.0008C70.8518 96.9512 70.9578 96.9015 71.067 96.8486C71.3184 96.7295 71.5731 96.6071 71.8311 96.478C71.9271 96.4317 72.0231 96.3821 72.119 96.3324C72.301 96.2398 72.4831 96.1505 72.6651 96.0545C72.7809 95.995 72.8966 95.9354 73.0124 95.8725C73.1911 95.7766 73.3698 95.6806 73.5485 95.5847C73.6246 95.545 73.6973 95.5053 73.7734 95.4623C73.7635 95.4656 73.7571 95.4689 73.7504 95.4722C77.347 93.477 80.93 90.8169 82.8193 87.5843C82.902 87.442 82.9849 87.2964 83.061 87.1542C83.1007 87.0781 83.1405 86.9986 83.1802 86.9192C83.2397 86.8001 83.2959 86.6843 83.3489 86.5652C83.3853 86.4891 83.4182 86.4097 83.4513 86.3336C83.5175 86.1814 83.5769 86.0259 83.6332 85.8737C83.653 85.8208 83.6731 85.7678 83.693 85.7182C83.7558 85.5362 83.8119 85.3542 83.8649 85.1689C83.8847 85.0995 83.9012 85.03 83.9211 84.9572C83.9575 84.8149 83.9905 84.6726 84.0203 84.5304C84.0335 84.4609 84.0501 84.3947 84.06 84.3252C84.0865 84.1796 84.1064 84.0341 84.1263 83.8885C84.8343 83.144 85.2713 82.1812 85.7179 81.2647C87.2995 83.5708 89.0859 86.1847 90.8991 88.8681C90.2572 89.4835 89.5459 89.9963 88.8411 90.529C88.4276 90.6018 88.0108 90.6812 87.5939 90.7639C87.4814 90.7871 87.3688 90.8103 87.2563 90.8367C86.8857 90.9161 86.5119 91.0055 86.138 91.1014C86.0685 91.118 85.999 91.1312 85.9296 91.151C85.9329 91.151 85.9394 91.151 85.946 91.151C84.1163 91.6407 82.2601 92.3587 80.3378 93.5697C77.1283 95.5913 74.4353 97.8114 71.7255 100.743C71.7486 100.716 71.7751 100.687 71.795 100.66C71.7288 100.733 71.6624 100.806 71.5962 100.879C71.5234 100.958 71.4474 101.041 71.3746 101.123C71.0205 101.517 70.6634 101.918 70.306 102.334C70.4483 102.367 70.5938 102.397 70.7393 102.424C70.7724 102.43 70.8054 102.437 70.8385 102.444C70.9907 102.47 71.1431 102.497 71.2986 102.516C71.3086 102.516 71.3185 102.516 71.3251 102.516C71.474 102.536 71.6259 102.549 71.7781 102.563C71.8112 102.563 71.8478 102.569 71.8809 102.569C72.0463 102.579 72.2116 102.586 72.3837 102.589C72.4035 102.589 72.4236 102.589 72.4434 102.589C72.5989 102.589 72.7576 102.583 72.9197 102.573C72.9561 102.573 72.9926 102.569 73.0257 102.566C73.2044 102.553 73.3864 102.533 73.575 102.506C73.6048 102.503 73.6344 102.497 73.6642 102.493C73.8329 102.467 74.0083 102.434 74.187 102.397C74.22 102.391 74.2566 102.384 74.2897 102.374C74.4882 102.328 74.6932 102.275 74.9017 102.212C74.9149 102.209 74.925 102.205 74.9382 102.202C74.9349 102.202 74.9283 102.202 74.925 102.202C75.4974 102.027 76.1062 101.788 76.758 101.464C80.7251 99.4823 85.2148 96.4185 87.9048 92.5738C87.9015 92.5804 87.8984 92.587 87.8951 92.5936C87.905 92.5804 87.9113 92.5672 87.9212 92.5539C88.09 92.3124 88.2489 92.0676 88.4011 91.8194C88.4375 91.7598 88.4807 91.7003 88.5171 91.6407C88.6891 91.3562 88.8477 91.0683 88.9966 90.7772C89.7046 90.2412 90.416 89.725 91.0645 89.1096C95.6735 95.9222 100.435 103.102 102.486 106.646C102.632 106.897 102.999 106.606 102.857 106.358C101.335 103.727 98.1552 98.8173 94.6944 93.6094C95.5844 93.176 96.5075 92.7425 97.2188 92.0179C97.2321 92.0047 97.242 91.9881 97.2486 91.9716C97.275 91.9716 97.3017 91.965 97.3248 91.9617C97.6325 91.8823 97.9303 91.7896 98.2215 91.687C98.2678 91.6705 98.3173 91.654 98.3636 91.6374C98.6416 91.5382 98.9095 91.429 99.1675 91.3132C99.2172 91.29 99.2636 91.2702 99.3133 91.247C99.5747 91.1279 99.8325 90.9988 100.081 90.8632C100.101 90.85 100.124 90.84 100.144 90.8268C100.382 90.6944 100.61 90.5588 100.835 90.4132C100.872 90.3901 100.908 90.3702 100.941 90.347C101.113 90.2345 101.278 90.122 101.444 90.0029C101.427 90.0129 101.407 90.0228 101.391 90.0327C104.226 88.0144 105.98 85.1789 107.463 83.5973C109.828 81.0728 110.86 78.3597 111.482 76.2024C111.671 75.5506 111.823 74.9451 111.962 74.4157C111.853 74.4157 111.737 74.4289 111.618 74.4521C111.585 74.4587 111.552 74.4653 111.516 74.472C111.413 74.4951 111.31 74.5216 111.201 74.558C111.178 74.5646 111.155 74.5712 111.129 74.5811C111 74.6242 110.867 74.6804 110.731 74.7433C110.688 74.7631 110.646 74.783 110.603 74.8028C110.497 74.8525 110.387 74.9087 110.278 74.9716C110.235 74.9947 110.192 75.0179 110.149 75.041C110.007 75.1238 109.861 75.2098 109.712 75.3058C109.663 75.3355 109.617 75.3719 109.567 75.4017C109.454 75.4778 109.342 75.5539 109.226 75.6366C109.17 75.6763 109.114 75.716 109.057 75.759C108.902 75.8715 108.746 75.9906 108.587 76.1164C108.544 76.1495 108.501 76.1859 108.455 76.2223C108.326 76.3248 108.197 76.4307 108.065 76.5399C108.005 76.5895 107.945 76.6425 107.883 76.6921C107.734 76.8211 107.581 76.9535 107.429 77.0891C107.406 77.109 107.383 77.1288 107.36 77.152C107.178 77.3141 106.996 77.4862 106.814 77.6582C106.774 77.6979 106.731 77.7343 106.692 77.774C106.483 77.9725 106.278 78.1711 106.066 78.3795C106.073 78.3762 106.076 78.3696 106.083 78.3663C103.84 80.6063 101.507 83.4683 99.7666 86.0689C99.7666 86.0656 99.7731 86.059 99.7731 86.0557C99.7532 86.0854 99.7335 86.1152 99.7136 86.145C99.6938 86.1715 99.6772 86.1979 99.6606 86.2277C99.6474 86.2476 99.634 86.2641 99.6241 86.284C99.6241 86.284 99.6209 86.2873 99.6176 86.2906C99.4853 86.4891 99.3594 86.6843 99.237 86.8795C99.2337 86.8861 99.2271 86.8928 99.2238 86.8994C99.2105 86.9192 99.1973 86.9391 99.184 86.9622C99.184 86.9656 99.1776 86.9689 99.1776 86.9755C99.1312 87.045 99.0881 87.1144 99.0451 87.1839C99.0451 87.1839 99.0452 87.1905 99.0386 87.1939C98.9923 87.27 98.9492 87.3427 98.9029 87.4155C98.8434 87.5115 98.7873 87.6041 98.731 87.7001C98.7045 87.7431 98.6747 87.7894 98.6515 87.8324C98.6482 87.839 98.6417 87.849 98.6351 87.8556C98.5987 87.9218 98.5622 87.9846 98.5258 88.0475C98.5225 88.0541 98.5191 88.0574 98.5191 88.0607C98.4893 88.1137 98.4597 88.1666 98.4299 88.2196C98.4133 88.2493 98.3967 88.2758 98.3801 88.3056C98.3503 88.3618 98.3172 88.4148 98.2874 88.471C98.2874 88.4776 98.2807 88.4875 98.2741 88.4942C98.241 88.5504 98.2115 88.61 98.1817 88.6662C98.1751 88.6795 98.1683 88.6894 98.1617 88.6993C98.1319 88.7589 98.0991 88.8184 98.0693 88.878C98.066 88.8813 98.0658 88.8879 98.0625 88.8912C98.0294 88.9574 97.9964 89.0203 97.9633 89.0864C97.9633 89.0864 97.9633 89.0875 97.9633 89.0897C97.9335 89.1493 97.9036 89.2088 97.8738 89.2684C97.8672 89.2816 97.8607 89.2949 97.8541 89.3081C97.8309 89.3577 97.8045 89.4041 97.7846 89.4537C97.778 89.4669 97.7712 89.4802 97.7646 89.4934C97.7646 89.4967 97.7614 89.5033 97.7581 89.5066C97.7515 89.5232 97.7415 89.5397 97.7349 89.5563C97.7183 89.5926 97.702 89.629 97.6854 89.6654C97.6589 89.725 97.6324 89.7846 97.6059 89.8441C97.5993 89.854 97.596 89.864 97.5927 89.8739C97.5728 89.9202 97.5531 89.9665 97.5332 90.0096C97.5266 90.0261 97.5198 90.0393 97.5132 90.0526C97.4967 90.0956 97.4801 90.1386 97.4602 90.1783C97.4569 90.1915 97.4503 90.2048 97.4437 90.218C97.4007 90.3239 97.361 90.4297 97.3213 90.5323C97.3147 90.5489 97.3113 90.5588 97.308 90.5753C97.3014 90.5886 97.2981 90.6018 97.2948 90.6183C97.2882 90.6349 97.2849 90.6514 97.2783 90.6647C97.2783 90.6713 97.2718 90.6812 97.2718 90.6878C97.2652 90.7044 97.2583 90.7176 97.255 90.7342C97.2418 90.7705 97.2321 90.8103 97.2188 90.8466C97.2155 90.8566 97.2122 90.8698 97.2056 90.883C97.1924 90.9294 97.1759 90.979 97.1626 91.0253C97.1626 91.0319 97.1591 91.0419 97.1558 91.0485C97.1426 91.0882 97.1361 91.1246 97.1229 91.161C97.1196 91.1775 97.1162 91.1907 97.1129 91.2073C97.1062 91.2371 97.0962 91.2668 97.0896 91.2999C97.0896 91.3132 97.0832 91.3264 97.0799 91.3396C97.07 91.376 97.0633 91.4091 97.0566 91.4455C97.0566 91.4521 97.0567 91.4621 97.0534 91.4687C97.0468 91.5117 97.04 91.5514 97.0334 91.5911C97.0334 91.601 97.0302 91.6143 97.0269 91.6209C97.0236 91.6507 97.0202 91.6804 97.0169 91.7102C97.0169 91.7234 97.0169 91.7367 97.0169 91.7466C97.0169 91.7698 97.0137 91.7896 97.0104 91.8128C96.3057 92.5109 95.4055 92.9245 94.5386 93.3513C93.2813 91.4621 91.991 89.5364 90.7304 87.6736C91.4252 87.0218 91.9977 86.2674 92.6164 85.5461C92.8943 85.3972 93.1656 85.245 93.4303 85.0928C93.5197 85.0432 93.6057 84.9903 93.6917 84.9406C94.059 84.7256 94.4196 84.5039 94.7671 84.2789C94.8299 84.2392 94.8893 84.1962 94.9522 84.1565C95.2698 83.948 95.5844 83.733 95.8921 83.5179C95.9484 83.4782 96.0078 83.4385 96.064 83.3988C96.4015 83.1573 96.7292 82.9124 97.0534 82.661C97.1229 82.6047 97.1956 82.5518 97.265 82.4955C97.5728 82.254 97.8806 82.0091 98.1817 81.7544C99.2901 80.8279 100.375 79.832 101.507 78.7501C102.298 77.9957 102.9 77.4001 103.426 76.7913C103.423 76.798 103.416 76.8046 103.413 76.8112C103.449 76.7715 103.482 76.7285 103.515 76.6888C103.552 76.6458 103.588 76.6027 103.624 76.5597C103.733 76.4274 103.843 76.2884 103.949 76.1495C103.978 76.1098 104.008 76.0701 104.038 76.027C104.144 75.8815 104.25 75.7326 104.352 75.5771C104.379 75.5374 104.405 75.4943 104.432 75.4546C104.538 75.2925 104.643 75.1205 104.753 74.9418C104.772 74.9087 104.792 74.8723 104.812 74.8392C104.928 74.6407 105.044 74.4356 105.163 74.2139C106.275 72.1426 106.857 70.2335 107.003 68.4568C105.855 69.0292 104.902 69.5486 103.476 70.4486C103.34 70.5346 103.198 70.6339 103.055 70.7365C103.016 70.7662 102.973 70.7993 102.93 70.8291C102.82 70.9118 102.708 70.9978 102.592 71.0905C102.549 71.1236 102.509 71.1567 102.466 71.1897C102.317 71.3122 102.165 71.4379 102.013 71.5736C102.013 71.5736 102.01 71.5769 102.006 71.5802C101.844 71.7224 101.676 71.8746 101.51 72.0268C101.477 72.0566 101.444 72.0897 101.411 72.1195C101.275 72.2452 101.139 72.3742 101.004 72.5066C100.967 72.543 100.931 72.5761 100.895 72.6125C100.742 72.7614 100.59 72.9136 100.438 73.0658C100.428 73.079 100.415 73.0889 100.405 73.0989C100.243 73.2643 100.081 73.4297 99.922 73.5985C99.8757 73.6481 99.8294 73.6977 99.7831 73.7474C99.6805 73.8532 99.5812 73.9624 99.4819 74.0683C99.4488 74.1047 99.4126 74.1411 99.3795 74.1775C99.3828 74.1775 99.3859 74.1709 99.3892 74.1676C98.6944 74.9186 98.0593 75.6465 97.5762 76.2289C96.4777 77.4696 95.6207 78.7005 94.906 79.9379C94.906 79.9313 94.9128 79.928 94.9128 79.9214C94.9062 79.9346 94.8994 79.9478 94.8895 79.9644C94.6281 80.421 94.3831 80.8776 94.1515 81.3375C94.1482 81.3441 94.1451 81.3507 94.1418 81.3606C93.6687 82.3135 93.2517 83.2731 92.8481 84.2524C92.8481 84.2557 92.8482 84.259 92.8448 84.2624C92.6993 84.6131 92.5567 84.9671 92.4145 85.3245C91.8024 86.0325 91.2433 86.7803 90.5617 87.4255C89.2052 85.4171 87.8882 83.4881 86.6937 81.7478C87.3886 81.0893 87.9643 80.3316 88.593 79.607C89.7113 79.2133 92.203 77.8237 94.8433 75.6366C94.8863 75.6035 94.926 75.5704 94.969 75.5341C95.1047 75.4216 95.2401 75.3024 95.3758 75.1866C95.4585 75.1138 95.5412 75.0444 95.624 74.9716C95.7232 74.8822 95.8225 74.7929 95.9251 74.7003C96.0277 74.6076 96.1337 74.515 96.2363 74.419C96.2329 74.419 96.2263 74.4256 96.223 74.4289C97.9733 72.8077 99.6903 70.8556 101.03 68.6288C101.03 68.6288 101.03 68.6354 101.027 68.6354C101.358 68.0829 101.666 67.5138 101.947 66.9282C101.98 66.862 102.007 66.7925 102.04 66.723C102.142 66.498 102.245 66.2763 102.341 66.048C102.43 65.8297 102.513 65.6113 102.592 65.3896C102.622 65.3069 102.658 65.2275 102.688 65.1448C103.122 63.9172 103.416 62.6335 103.538 61.2935C103.059 61.5946 102.589 61.9089 102.129 62.2331C102.013 62.3125 101.897 62.3953 101.785 62.478C101.348 62.7923 100.918 63.1166 100.501 63.4474C100.415 63.5136 100.336 63.5864 100.25 63.6526C99.8923 63.9437 99.5448 64.2382 99.2041 64.5393C99.1048 64.6286 99.0021 64.7146 98.9061 64.8007C98.5256 65.1448 98.1584 65.4922 97.8011 65.8462C97.7018 65.9422 97.6092 66.0414 97.5132 66.1374C97.2088 66.4451 96.9111 66.7594 96.6266 67.0704C96.5604 67.1432 96.4876 67.2193 96.4214 67.2921C96.4115 67.3053 96.3984 67.3153 96.3884 67.3285C96.3884 67.3285 96.3983 67.3186 96.4049 67.3153C95.27 68.5858 94.2938 69.8795 93.503 71.1401C91.6369 74.1212 90.1349 76.5333 89.225 78.0321C89.1952 78.0817 89.1656 78.1314 89.1358 78.1777C89.0763 78.2769 89.0165 78.3729 88.9636 78.4622C88.9206 78.535 88.8776 78.6045 88.8379 78.674C88.8015 78.7369 88.765 78.7964 88.7319 78.8527C88.6922 78.9188 88.6559 78.9817 88.6195 79.0412C88.5897 79.0942 88.5633 79.1405 88.5335 79.1868C88.5071 79.2298 88.4804 79.2795 88.4573 79.3192C88.4573 79.3192 88.4509 79.3225 88.4476 79.3258C87.8024 80.0537 87.2265 80.8313 86.5251 81.4996C84.9369 79.1901 83.5706 77.238 82.6309 75.9278C83.2099 75.1138 83.8747 74.3562 84.3909 73.5025C84.3942 73.4959 84.3911 73.4893 84.3945 73.4827C84.583 73.3635 84.7716 73.2378 84.9602 73.1088C85.0264 73.0625 85.0924 73.0161 85.1586 72.9698C85.4035 72.7978 85.6482 72.6224 85.8931 72.4338C85.9096 72.4206 85.9263 72.4073 85.9428 72.3941C86.1843 72.2088 86.4293 72.0136 86.6708 71.8151C86.737 71.7588 86.8062 71.7026 86.8724 71.6463C87.1272 71.4313 87.3854 71.2129 87.6401 70.9846C87.6467 70.978 87.6532 70.9714 87.6598 70.9648C87.9146 70.7365 88.1663 70.5015 88.4211 70.26C88.4807 70.2038 88.5402 70.1475 88.5998 70.0879C89.1226 69.5817 89.6451 69.0457 90.1546 68.4899C90.2042 68.4369 90.2508 68.384 90.2971 68.331C93.7249 64.5459 96.6796 59.7384 97.3281 55.447C97.3281 55.4503 97.3281 55.4536 97.3281 55.4569C97.3314 55.4305 97.3311 55.404 97.3377 55.3742C97.3775 55.0996 97.4074 54.8283 97.4273 54.5603C97.4339 54.4643 97.4404 54.3717 97.4437 54.2757C97.4603 53.978 97.467 53.6835 97.4537 53.3923C97.3512 53.4287 97.2452 53.4784 97.1394 53.5313C97.1096 53.5478 97.0764 53.5644 97.0466 53.5809C96.9672 53.6239 96.8847 53.6703 96.802 53.7232C96.7623 53.7464 96.7224 53.7728 96.686 53.7993C96.6066 53.8522 96.5274 53.9052 96.4447 53.968C96.4016 53.9978 96.362 54.0309 96.319 54.064C96.2363 54.1268 96.1501 54.1963 96.064 54.2658C96.021 54.3022 95.9781 54.3353 95.9351 54.3717C95.8425 54.4511 95.7464 54.5371 95.6504 54.6232C95.6141 54.6562 95.5776 54.686 95.5412 54.7224C95.4089 54.8448 95.2734 54.9739 95.1344 55.1128C95.0054 55.2386 94.8761 55.3742 94.7438 55.5099C94.7438 55.5099 94.7506 55.5066 94.7506 55.5033C93.1326 57.2006 91.2664 59.7119 89.5294 62.4647C89.5294 62.4614 89.5329 62.4581 89.5362 62.4548C89.513 62.4912 89.4898 62.5276 89.4699 62.564C89.3707 62.7228 89.2714 62.8849 89.1688 63.0438C89.1158 63.1265 89.0663 63.2125 89.0134 63.2952C88.9141 63.4573 88.8182 63.6162 88.7222 63.7783C88.6726 63.861 88.6229 63.947 88.5733 64.0297C88.474 64.1952 88.3781 64.3606 88.2822 64.526C88.2358 64.6021 88.1927 64.6783 88.1497 64.7577C88.0504 64.933 87.9478 65.1051 87.8485 65.2804C87.8221 65.3301 87.7956 65.3797 87.7658 65.426C87.3952 66.0844 87.0412 66.7429 86.7037 67.3947C86.6938 67.4178 86.6807 67.4377 86.6708 67.4608C86.5781 67.6395 86.4886 67.8182 86.4026 67.9969C86.3662 68.0697 86.33 68.1391 86.2969 68.2119C86.2175 68.3741 86.1381 68.5362 86.062 68.6983C86.0223 68.7843 85.9793 68.867 85.9396 68.9531C85.8668 69.1086 85.7939 69.2608 85.7244 69.413C85.6814 69.5056 85.6417 69.595 85.5987 69.6876C85.5325 69.8332 85.4664 69.9788 85.4035 70.1243C85.3605 70.2203 85.3209 70.3162 85.2778 70.4122C85.2183 70.5512 85.1586 70.6901 85.1024 70.8291C85.0594 70.9284 85.0196 71.0276 84.9799 71.1269C84.927 71.2592 84.8741 71.3883 84.8245 71.5206C84.7848 71.6265 84.745 71.7291 84.7053 71.8316C84.659 71.9507 84.6126 72.0732 84.5696 72.1923C84.5266 72.3114 84.4869 72.4305 84.4439 72.5496C84.4108 72.6489 84.3745 72.7481 84.3415 72.8474C84.2918 72.9963 84.2455 73.1452 84.2025 73.2908C84.186 73.3007 84.166 73.304 84.1528 73.3272C83.6498 74.1576 83.0113 74.8955 82.4422 75.6829C81.122 73.8433 79.8415 71.9838 78.5577 70.131C79.064 69.3336 79.4678 68.4865 79.9012 67.6461L80.447 67.5006C80.7249 67.4212 80.993 67.3186 81.2577 67.2061C81.3437 67.1697 81.4298 67.1267 81.5158 67.087C81.6945 67.001 81.873 66.9116 82.0451 66.8157C82.1344 66.766 82.2205 66.7131 82.3065 66.6602C82.4852 66.5477 82.6607 66.4285 82.8361 66.3028C82.9022 66.2565 82.9684 66.2102 83.0312 66.1639C87.981 62.3622 90.0754 52.724 90.0622 46.2224C90.0622 46.2257 90.0622 46.229 90.0622 46.2356C90.0622 46.1893 90.0622 46.1463 90.0622 46.1H89.9992Z" fill="#D9E7F4"/>
<path d="M172.261 48.3379H77.4111C74.9716 48.3379 72.9941 50.3155 72.9941 52.755V114.862C72.9941 117.302 74.9716 119.279 77.4111 119.279H172.261C174.701 119.279 176.678 117.302 176.678 114.862V52.755C176.678 50.3155 174.701 48.3379 172.261 48.3379Z" fill="#C5DAEF"/>
<path d="M172.261 48.8477H77.4111C74.9825 48.8477 72.9941 50.8362 72.9941 53.2648V109.655H176.678V53.2648C176.678 50.8362 174.69 48.8477 172.261 48.8477Z" fill="#2F61A8"/>
<path d="M135.492 119.279H114.184V128.633H135.492V119.279Z" fill="#7AA9D7"/>
<path d="M173.043 52.7539H76.6348V105.246H173.043V52.7539Z" fill="#D7E7F5"/>
<path d="M126.787 112.266H122.887C122.026 112.266 121.328 112.963 121.328 113.824C121.328 114.685 122.026 115.382 122.887 115.382H126.787C127.648 115.382 128.346 114.685 128.346 113.824C128.346 112.963 127.648 112.266 126.787 112.266Z" fill="#7AA9D7"/>
<path d="M144.326 132.011V131.492C144.326 129.92 143.038 128.633 141.467 128.633H108.205C106.633 128.633 105.346 129.92 105.346 131.492V132.011H144.326Z" fill="#C5DAEF"/>
<path d="M168.254 103.112C168.254 103.327 167.821 103.499 167.291 103.502L83.6012 103.919C83.0685 103.919 82.6352 103.754 82.6319 103.539L82.334 57.528C82.334 57.3163 82.7642 57.1409 83.2969 57.1376L166.987 56.7207C167.519 56.7207 167.953 56.8894 167.956 57.1012L168.254 103.112Z" fill="white"/>
<path d="M92.298 71.0212L95.0077 72.8012C95.1532 70.7234 96.791 69.0591 98.8556 68.8705L100.629 66.174L98.8227 63.4277C93.767 63.6461 89.7173 67.7423 89.5684 72.8145L92.3013 71.0179L92.298 71.0212Z" fill="#729EDB"/>
<path d="M101.33 66.1747L99.5632 68.8647C101.654 69.0202 103.325 70.6877 103.484 72.7788L106.194 74.5589L108.923 72.7656C108.748 67.6669 104.629 63.5675 99.5234 63.4219L101.333 66.1747H101.33Z" fill="#083E7F"/>
<path d="M97.0863 80.0705L98.8828 77.3375C96.8413 77.1654 95.2103 75.5475 95.0151 73.5093L92.2987 71.7227L89.5723 73.516C89.784 78.5452 93.8338 82.5818 98.8663 82.777L97.0863 80.0672V80.0705Z" fill="#F4A82F"/>
<path d="M106.194 75.2679L103.481 73.4845C103.299 75.5425 101.651 77.1803 99.5896 77.3425L97.7928 80.0754L99.5728 82.7852C104.648 82.6165 108.731 78.5435 108.923 73.4746L106.194 75.2679Z" fill="white"/>
<path d="M151.723 69.0604L151.5 98.7285L153.727 98.7452L153.949 69.0771L151.723 69.0604Z" fill="#729EDB"/>
<path d="M148.491 74.8706L148.312 98.709L150.539 98.7257L150.718 74.8873L148.491 74.8706Z" fill="#F4A82F"/>
<path d="M158.135 64.3699L157.877 98.7793L160.104 98.796L160.362 64.3866L158.135 64.3699Z" fill="#F4A82F"/>
<path d="M154.828 80.3205L154.689 98.7559L156.916 98.7726L157.054 80.3372L154.828 80.3205Z" fill="#083E7F"/>
<path d="M145.123 87.2205L145.037 98.6816L147.264 98.6984L147.35 87.2372L145.123 87.2205Z" fill="#083E7F"/>
<path d="M136.375 68.0297L112.381 68.3507L112.348 66.1901L136.339 65.8691L136.375 68.0297Z" fill="#BFD7E8"/>
<path d="M138.384 70.9714L112.427 71.3188L112.414 70.3923L138.371 70.0449L138.384 70.9714Z" fill="#BFD7E8"/>
<path d="M138.413 72.901L112.457 73.2485L112.443 72.3253L138.4 71.9746L138.413 72.901Z" fill="#BFD7E8"/>
<path d="M138.443 74.8093L112.486 75.1567L112.473 74.2302L138.426 73.8828L138.443 74.8093Z" fill="#BFD7E8"/>
<path d="M138.474 76.7409L112.517 77.0883L112.504 76.1619L138.457 75.8145L138.474 76.7409Z" fill="#BFD7E8"/>
<path d="M138.503 78.7923L112.55 79.143L112.533 78.2165L138.49 77.8691L138.503 78.7923Z" fill="#BFD7E8"/>
<path d="M135.759 80.761L112.579 81.072L112.562 80.1456L135.743 79.8379L135.759 80.761Z" fill="#BFD7E8"/>
<path d="M138.035 87.4753L91.2007 88.1006L91.1875 87.1775L138.022 86.5488L138.035 87.4753Z" fill="#BFD7E8"/>
<path d="M138.066 89.3288L91.2279 89.9541L91.2147 89.0277L138.053 88.4023L138.066 89.3288Z" fill="#BFD7E8"/>
<path d="M138.096 91.3503L91.2613 91.9789L91.248 91.0525L138.082 90.4238L138.096 91.3503Z" fill="#BFD7E8"/>
<path d="M138.124 93.2018L91.2867 93.8272L91.2734 92.9007L138.111 92.2754L138.124 93.2018Z" fill="#BFD7E8"/>
<path d="M138.155 95.1215L91.3178 95.7468L91.3045 94.8237L138.142 94.1951L138.155 95.1215Z" fill="#BFD7E8"/>
<path d="M138.182 96.9753L91.3472 97.6006L91.334 96.6742L138.168 96.0488L138.182 96.9753Z" fill="#BFD7E8"/>
<path d="M61.6121 46.9512L53.3769 52.9068C53.3769 52.9068 53.1946 53.7075 52.2847 53.3105C51.7123 53.059 47.5203 51.9241 44.5061 51.1234L41.7302 50.2268L41.4721 50.3194C41.4191 50.3062 41.3926 50.2996 41.3926 50.2996L41.4126 50.3426L44.9032 57.3007L46.6435 57.3371L54.247 58.1809C54.247 58.1809 55.4182 57.6879 55.6994 57.1783C55.9807 56.6688 64.0273 49.5617 64.0273 49.5617L61.6153 46.9545L61.6121 46.9512Z" fill="#F29B00"/>
<path d="M40.2831 42.9176C40.2831 42.9176 39.8101 34.7981 42.0732 33.9544C44.3363 33.1107 45.9641 37.0513 45.9641 37.0513C45.9641 37.0513 47.0857 38.9306 47.3306 40.6478C47.5754 42.3684 46.8411 43.222 46.8411 43.222C46.8411 43.222 43.8631 43.4669 42.9863 45.8954C42.1095 48.324 43.2015 55.0903 43.2015 55.0903C43.2015 55.0903 36.5808 53.072 38.6388 49.9949C40.4189 47.3314 40.2799 42.9209 40.2799 42.9209L40.2831 42.9176Z" fill="#314572"/>
<path d="M40.9391 48.6983C44.0906 41.7184 44.785 35.22 42.49 34.1838C40.1951 33.1476 35.7798 37.9659 32.6282 44.9458C29.4767 51.9256 28.7823 58.424 31.0773 59.4602C33.3723 60.4965 37.7876 55.6781 40.9391 48.6983Z" fill="#314572"/>
<path d="M30.8047 132.176L38.4279 132.947L33.4684 129.314V123.699H31.4102L31.2877 128.325L30.8047 132.176Z" fill="#F3C6A0"/>
<path d="M32.8624 131.955C32.8624 131.955 35.9659 132.216 37.2199 132.368C39.7014 132.669 41.2731 133.88 41.2731 133.88H37.0975L32.8624 132.656V133.549H30.8672V131.184L32.8624 131.955Z" fill="url(#paint1_linear_248_54406)"/>
<path d="M45.8281 131.942L53.4514 132.709L48.4916 129.08V123.465H46.4336L46.3144 128.087L45.8281 131.942Z" fill="#F3C6A0"/>
<path d="M47.8875 131.72C47.8875 131.72 50.9913 131.982 52.2453 132.134C54.7268 132.435 56.2985 133.646 56.2985 133.646H52.1229L47.8875 132.422V133.315H45.8926V130.949L47.8875 131.72Z" fill="url(#paint2_linear_248_54406)"/>
<path d="M50.216 125.496L45.4284 125.754L43.9198 109.486L42.563 103.712L41.8948 97.9846L39.8369 103.772L34.9168 125.761H30.877L31.9057 111.031L33.3187 100.297L34.4667 80.5445L43.1456 79.8398L48.1516 79.1582L50.216 125.496Z" fill="#2F61A8"/>
<path d="M33.4316 58.9938L37.2993 48.2207L42.8646 50.5831C42.8646 50.5831 45.2238 54.2822 46.2958 58.3056C47.1362 61.4555 46.7656 64.6715 46.6564 67.3151C46.4148 73.3336 48.9395 80.0833 48.9395 80.0833C48.9395 80.0833 45.1213 79.8683 41.5744 80.0139C38.0242 80.1594 34.2785 80.9668 34.2785 80.9668C34.2785 80.9668 37.349 74.4056 37.3656 69.9819C37.3788 65.5549 33.4316 58.9971 33.4316 58.9971V58.9938Z" fill="#F29B00"/>
<path d="M20.0605 64.3055L36.9348 48.7051C36.9348 48.7051 38.7479 50.3627 38.3442 53.4464C37.9406 56.5301 33.431 58.9951 33.431 58.9951L26.4065 66.347L29.9568 69.4439L27.8592 73.6989C27.8592 73.6989 21.7381 69.2686 20.4014 68.2164C19.0647 67.1642 20.0637 64.3055 20.0637 64.3055H20.0605Z" fill="#F29B00"/>
<path d="M39.6375 43.1105L44.0512 34.6602L45.2955 36.7314C45.2955 36.7314 45.8181 37.4659 46.0067 38.0747C46.149 38.5379 47.7966 39.9772 47.2374 40.146C47.2374 40.146 46.9099 40.2254 46.8338 40.5959C46.7577 40.9665 46.9366 41.6283 46.9366 41.8069C46.9366 43.544 46.0894 44.2917 46.0894 44.2917C46.0894 44.2917 43.1051 44.1329 41.8941 46.4225C40.6831 48.7088 41.8941 50.1746 41.8941 50.1746C41.8941 50.1746 34.5422 51.4021 37.0138 48.6294C39.1512 46.2306 39.6342 43.1105 39.6342 43.1105H39.6375Z" fill="#F3C6A0"/>
<path d="M43.6376 39.6876C44.7491 37.2843 44.4145 34.7646 42.8903 34.0597C41.3661 33.3548 39.2295 34.7316 38.118 37.1348C37.0065 39.5381 37.3411 42.0578 38.8653 42.7627C40.3895 43.4676 42.5262 42.0908 43.6376 39.6876Z" fill="#314572"/>
<path d="M34.2446 74.5156L28.5801 72.6528L29.427 70.5684L34.8831 72.5536L34.2446 74.5156Z" fill="#F3C6A0"/>
<path d="M37.3093 75.1311C39.451 75.1311 41.187 74.4779 41.187 73.672C41.187 72.8662 39.451 72.2129 37.3093 72.2129C35.1677 72.2129 33.4316 72.8662 33.4316 73.672C33.4316 74.4779 35.1677 75.1311 37.3093 75.1311Z" fill="#F3C6A0"/>
<path d="M42.2618 33.8152C42.5728 33.9045 42.8741 34.0071 43.1652 34.1262C40.6837 35.8235 38.6556 38.53 37.6597 41.8685C37.524 42.3218 37.4147 42.7718 37.322 43.2251C34.8008 41.8089 33.4047 39.3109 34.0896 37.0213C34.93 34.2056 38.5892 32.7729 42.2618 33.8185V33.8152Z" fill="#314572"/>
<path d="M64.6281 43.2695L65.6175 43.5574L65.0084 45.225L67.2851 44.0074L69.1013 44.3184L69.3065 45.0761L67.6027 46.8264L65.5942 48.2259L63.6849 49.1524L61.8555 47.8421L64.6281 43.2695Z" fill="#F3C6A0"/>
<path d="M67.0831 32.9614L63.4699 33.6893C61.4349 34.0993 60.1175 36.0813 60.5274 38.1163L60.5771 38.3628C60.9871 40.3978 62.9692 41.7151 65.0041 41.3051L68.6173 40.5772C70.6523 40.1673 71.9697 38.1853 71.5598 36.1503L71.5101 35.9038C71.1002 33.8688 69.1181 32.5515 67.0831 32.9614Z" fill="#314572"/>
<path d="M68.5377 40.8492C71.5122 40.2504 79.3006 40.3993 83.6052 44.4954L79.774 24.6797C75.2742 30.2085 71.1215 32.4055 67.0055 33.2359C67.0055 33.2359 65.4738 34.3344 66.0892 37.3817C66.655 40.1941 68.541 40.8492 68.541 40.8492H68.5377Z" fill="#4B94D0"/>
<path d="M85.0293 44.6838C87.0123 44.2844 87.6701 39.2453 86.4983 33.4288C85.3266 27.6122 82.769 23.2209 80.786 23.6204C78.803 24.0199 78.1452 29.059 79.317 34.8755C80.4887 40.692 83.0463 45.0833 85.0293 44.6838Z" fill="#ADD1F0"/>
<path d="M85.3323 44.3223C87.0753 43.9712 87.5639 39.0976 86.4236 33.437C85.2832 27.7763 82.9456 23.4721 81.2027 23.8232C79.4597 24.1744 78.9713 29.0479 80.1117 34.7085C81.252 40.3692 83.5893 44.6734 85.3323 44.3223Z" fill="#3D6194"/>
<path d="M68.4642 40.8213C68.1135 40.6692 66.585 39.8651 66.0854 37.3836C65.5428 34.6937 66.6742 33.5224 66.9456 33.2842L66.9323 33.2246C66.6411 33.3007 66.35 33.3702 66.0622 33.4264C66.0622 33.4264 64.5304 34.5249 65.1458 37.5722C65.7116 40.3846 67.5973 41.0397 67.5973 41.0397C67.852 40.9868 68.15 40.9471 68.4842 40.9173L68.4642 40.8213Z" fill="#F4A82F"/>
<path d="M68.9108 48.5098C68.9108 48.5098 67.8718 48.9565 67.0546 49.2874C66.234 49.6182 66.0355 48.5727 66.0355 48.5727L64.3711 41.4755L67.2697 41.2969L68.9108 48.5098Z" fill="#263558"/>
<path d="M66.8047 41.313L67.2713 41.2832L68.9124 48.4961L68.5285 48.655L66.8047 41.313Z" fill="#314572"/>
<path d="M68.0967 46.7847L67.9277 46.0469L66.7102 46.2487C66.5514 46.2752 66.4423 46.4605 66.4688 46.6623V46.6788C66.4986 46.8807 66.6505 47.0229 66.8126 46.9965L68.0967 46.7847Z" fill="#4B598D"/>
<path d="M65.8861 43.9509C65.9126 44.1527 66.0682 44.295 66.227 44.2685L67.4777 44.0601L67.3088 43.3223L66.1245 43.5175C65.9657 43.5439 65.8564 43.7292 65.8829 43.9311V43.9476L65.8861 43.9509Z" fill="#4B598D"/>
<path d="M67.7955 45.4488L67.6269 44.7109L66.3628 44.9194C66.204 44.9459 66.0947 45.1311 66.1211 45.333V45.3495C66.1509 45.5513 66.3031 45.6936 66.4653 45.6671L67.7955 45.4455V45.4488Z" fill="#4B598D"/>
<path d="M80.1712 35.0193C80.3597 35.949 80.5784 36.8457 80.8232 37.6861L83.159 36.849L82.1929 32.0547L79.7246 32.1837C79.8272 33.0936 79.9726 34.0432 80.1712 35.0193Z" fill="#D4E7F8"/>
<path d="M83.1174 36.6117C83.6244 36.5095 83.8194 35.3565 83.5535 34.0363C83.2875 32.7161 82.6612 31.7286 82.1543 31.8307C81.6473 31.9328 81.4519 33.0859 81.7179 34.4061C81.9839 35.7263 82.6105 36.7138 83.1174 36.6117Z" fill="#F6F5FB"/>
<path d="M91.7015 32.4255L88.5912 33.0509C88.4357 33.0839 88.2834 32.9814 88.2503 32.8259C88.2173 32.6704 88.32 32.5182 88.4756 32.4851L91.5855 31.8597C91.741 31.8266 91.8933 31.9292 91.9264 32.0847C91.9595 32.2402 91.857 32.3924 91.7015 32.4255Z" fill="#EB7104"/>
<path d="M87.0595 28.1815C86.9238 28.208 86.7848 28.1352 86.7319 28.0028C86.6756 27.8539 86.7484 27.6852 86.8973 27.6289L89.9313 26.4643C90.0802 26.408 90.2489 26.4808 90.3052 26.6297C90.3614 26.7786 90.2886 26.9474 90.1398 27.0036L87.1057 28.1683C87.1057 28.1683 87.076 28.1782 87.0595 28.1815Z" fill="#EB7104"/>
<path d="M85.2291 23.8562C85.1265 23.876 85.0142 23.8396 84.9448 23.7503C84.8455 23.6245 84.8685 23.4426 84.9942 23.3433L87.35 21.4971C87.4758 21.3978 87.6579 21.421 87.7571 21.5467C87.8564 21.6724 87.8331 21.8544 87.7074 21.9537L85.3516 23.7999C85.3152 23.8297 85.2721 23.8462 85.2291 23.8562Z" fill="#EB7104"/>
<path d="M92.3034 38.0023C92.3034 38.0023 92.2705 38.009 92.2539 38.009L89.0047 38.1115C88.8459 38.1181 88.7104 37.9924 88.7071 37.8303C88.7038 37.6682 88.8261 37.5358 88.9882 37.5325L92.2374 37.4299C92.3963 37.4233 92.5317 37.5491 92.535 37.7112C92.5383 37.8535 92.439 37.9759 92.3034 38.0023Z" fill="#EB7104"/>
<path d="M91.9305 43.5892C91.8875 43.5992 91.8413 43.5959 91.7983 43.5859L88.9097 42.7952C88.7542 42.7521 88.6651 42.5933 88.7081 42.4411C88.7511 42.2856 88.9097 42.1963 89.0619 42.2393L91.9505 43.0301C92.106 43.0731 92.1952 43.2319 92.1521 43.3841C92.1224 43.4933 92.0331 43.5694 91.9305 43.5926V43.5892Z" fill="#EB7104"/>
<path d="M19.8905 64.862L32.6719 52.2129L21.214 65.9671C21.214 65.9671 20.3403 66.7711 21.3727 67.6214C21.9484 68.0979 25.9156 72.4786 25.9156 72.4786C25.9156 72.4786 21.1875 68.8854 20.1552 68.035C19.1229 67.1847 19.8938 64.862 19.8938 64.862H19.8905Z" fill="#EF8200"/>
<path d="M32.6317 125.132L33.3662 110.402L34.3788 99.6686L38.4022 80.4551L34.2299 81.001L32.8767 100.4L31.8676 111.133L31.1328 125.86H34.0182L34.1339 125.132H32.6317Z" fill="#1E5184"/>
<path d="M156.44 74.5045C156.44 74.6997 156.268 74.8552 156.053 74.8585L122.417 75.0174C122.202 75.0174 122.027 74.8618 122.027 74.6666L121.785 32.7257C121.785 32.5338 121.957 32.375 122.172 32.3717L155.808 32.2129C156.023 32.2129 156.199 32.3684 156.199 32.5636L156.44 74.5045Z" fill="white"/>
<path d="M151.76 55.0765L138.092 55.2585L138.072 54.0277L151.741 53.8457L151.76 55.0765Z" fill="#BFD7E8"/>
<path d="M130.266 54.3033C127.348 54.343 125.018 56.626 125.061 59.4019C125.104 62.1779 127.503 64.3981 130.421 64.3584C133.34 64.3187 135.669 62.0357 135.626 59.2597C135.583 56.4837 133.184 54.2636 130.266 54.3033ZM130.382 61.8735C128.906 61.8934 127.695 60.7717 127.672 59.3689C127.649 57.966 128.827 56.8112 130.302 56.7914C131.778 56.7715 132.989 57.8932 133.012 59.2961C133.035 60.6989 131.857 61.8537 130.382 61.8735Z" fill="#F4A82F"/>
<path d="M132.355 54.4697C129.655 53.5069 126.631 54.7642 125.552 57.3218C125.549 57.3317 125.542 57.345 125.539 57.3549L127.981 58.288C127.981 58.288 127.987 58.2648 127.994 58.2549C128.53 56.981 130.022 56.3458 131.369 56.7891L131.349 56.8321C132.047 57.1332 132.547 57.6891 132.778 58.3376L135.2 57.3516C134.704 56.1175 133.702 55.0686 132.332 54.5094L132.352 54.4664L132.355 54.4697Z" fill="#FCF2F2"/>
<path d="M127.464 54.7794C125.042 56.265 124.3 59.3289 125.816 61.6813C125.822 61.6913 125.829 61.7012 125.836 61.7111L128.079 60.4009C128.079 60.4009 128.066 60.381 128.059 60.3711C127.305 59.1998 127.655 57.6811 128.837 56.9201L128.863 56.9598C129.535 56.6058 130.299 56.5562 130.984 56.7646L131.596 54.3261C130.259 53.9688 128.781 54.1078 127.49 54.8224L127.464 54.7827V54.7794Z" fill="#2F61A8"/>
<path d="M133.131 59.1206C133.139 57.6277 131.875 56.4101 130.307 56.4011C128.74 56.3921 127.462 57.595 127.453 59.0879C127.444 60.5808 128.708 61.7983 130.276 61.8074C131.844 61.8164 133.122 60.6135 133.131 59.1206Z" fill="white"/>
<path d="M152.904 56.7526L138.114 56.9512L138.107 56.4251L152.897 56.2266L152.904 56.7526Z" fill="#BFD7E8"/>
<path d="M152.921 57.8542L138.131 58.0527L138.125 57.5233L152.915 57.3281L152.921 57.8542Z" fill="#BFD7E8"/>
<path d="M152.937 58.9415L138.151 59.1367L138.141 58.6106L152.931 58.4121L152.937 58.9415Z" fill="#BFD7E8"/>
<path d="M152.955 60.0417L138.168 60.2402L138.158 59.7141L152.948 59.5156L152.955 60.0417Z" fill="#BFD7E8"/>
<path d="M152.974 61.213L138.184 61.4115L138.178 60.8821L152.964 60.6836L152.974 61.213Z" fill="#BFD7E8"/>
<path d="M151.408 62.3341L138.2 62.5094L138.193 61.9833L151.402 61.8047L151.408 62.3341Z" fill="#BFD7E8"/>
<path d="M152.974 66.5626L126.289 66.9199L126.279 66.3905L152.967 66.0332L152.974 66.5626Z" fill="#BFD7E8"/>
<path d="M152.991 67.614L126.307 67.9713L126.297 67.4452L152.985 67.0879L152.991 67.614Z" fill="#BFD7E8"/>
<path d="M153.007 68.7696L126.323 69.127L126.312 68.5976L153 68.2402L153.007 68.7696Z" fill="#BFD7E8"/>
<path d="M153.023 69.8243L126.338 70.1816L126.328 69.6523L153.016 69.2949L153.023 69.8243Z" fill="#BFD7E8"/>
<path d="M153.04 70.9167L126.355 71.274L126.346 70.748L153.033 70.3906L153.04 70.9167Z" fill="#BFD7E8"/>
<path d="M153.056 71.9733L126.371 72.3307L126.361 71.8046L153.049 71.4473L153.056 71.9733Z" fill="#BFD7E8"/>
<path d="M129.453 48.7185L129.423 44.9731L129.41 43.2559L126.779 43.2724L126.792 45.0425L126.822 48.735L129.453 48.7185Z" fill="#2F61A8"/>
<path d="M126.822 48.7626L126.839 51.125L129.469 51.1085L129.453 48.7461L126.822 48.7626Z" fill="#2F61A8"/>
<path d="M133.118 49.8542L133.105 48.3123L133.052 41.1523L130.422 41.1689L130.472 47.9451L130.475 48.0973L130.488 50.0494L130.495 51.0486L133.125 51.0321L133.118 49.8542Z" fill="#F4A82F"/>
<path d="M136.902 46.8275L136.899 46.5231V46.2121L136.892 45.6959L136.879 43.9258L134.252 43.9423L134.259 44.8919L134.272 46.5661L134.305 51.0262L136.935 51.0097L136.902 46.8275Z" fill="#729EDB"/>
<path d="M140.771 46.3802L140.758 45.0137L138.131 45.0302L138.141 46.3537L138.161 49.2389L140.791 49.2223L140.771 46.3802Z" fill="#2F61A8"/>
<path d="M138.16 49.2587L138.173 51.0785L140.803 51.062L140.79 49.2422L138.16 49.2587Z" fill="#2F61A8"/>
<path d="M144.457 50.2283L144.443 48.7262L144.404 43.3926L141.773 43.4091L141.816 48.9214V49.2357L141.823 49.8379L141.826 50.2449L141.833 51.0555L144.463 51.039L144.457 50.2283Z" fill="#F4A82F"/>
<path d="M152.262 47.7295L152.252 46.717L152.246 45.4961L149.615 45.5126L149.625 46.8758L149.628 47.2695L149.655 50.9654L152.285 50.9488L152.262 47.7295Z" fill="#2F61A8"/>
<path d="M148.455 47.0273L148.448 45.995L148.445 45.459L145.814 45.4755L145.824 46.8387L145.831 47.8611L145.854 50.9282L148.484 50.9117L148.468 48.4335L148.455 47.0273Z" fill="#2F61A8"/>
<path d="M148.328 37.2562L130.262 37.4978L130.242 36.2669L148.308 36.0254L148.328 37.2562Z" fill="#BFD7E8"/>
<path d="M144.976 39.4301L134.452 39.5723L134.432 38.3415L144.957 38.1992L144.976 39.4301Z" fill="#BFD7E8"/>
<path d="M108.375 23.959C108.375 24.6836 108.576 25.3586 108.924 25.9343L106.7 27.2776C106.115 26.3082 105.777 25.1733 105.777 23.959H108.375Z" fill="#2F61A8"/>
<path d="M114.809 29.7855C114.018 30.1329 113.145 30.3281 112.228 30.3281C109.899 30.3281 107.824 29.137 106.699 27.2808L108.923 25.9375C109.591 27.0426 110.842 27.7308 112.228 27.7308C112.774 27.7308 113.293 27.615 113.763 27.4066L114.809 29.7855Z" fill="#F4A82F"/>
<path d="M114.799 29.7815L113.744 27.4058C114.608 27.022 115.303 26.3239 115.686 25.457L118.065 26.5059C117.423 27.9617 116.255 29.133 114.803 29.7782L114.799 29.7815Z" fill="white"/>
<path d="M118.068 26.5058L115.69 25.4569C115.898 24.9838 116.014 24.4643 116.014 23.9151C116.014 23.2302 115.832 22.5883 115.517 22.0324L117.777 20.752C118.307 21.685 118.611 22.7636 118.611 23.9151C118.611 24.8382 118.416 25.715 118.065 26.5058H118.068Z" fill="#729EDB"/>
<path d="M113.39 20.3361L114.214 17.8711C115.739 18.3674 117.009 19.4196 117.794 20.7894L115.53 22.0698C115.061 21.2526 114.297 20.6272 113.387 20.3361H113.39Z" fill="#729EDB"/>
<path d="M112.193 17.543C112.901 17.543 113.579 17.6588 114.214 17.8705L113.397 20.3355C113.02 20.2098 112.613 20.1403 112.193 20.1403C110.082 20.1403 108.375 21.8509 108.375 23.9585H105.777C105.777 20.4149 108.649 17.543 112.193 17.543Z" fill="#729EDB"/>
<path d="M188.363 37.3456V40.0852H188.956V37.3456C188.956 37.1471 188.823 36.9883 188.661 36.9883C188.499 36.9883 188.367 37.1471 188.367 37.3456H188.363Z" fill="#F29B00"/>
<path d="M188.363 49.3124C188.363 49.511 188.495 49.6698 188.657 49.6698C188.819 49.6698 188.952 49.511 188.952 49.3124V46.7383H188.359V49.3124H188.363Z" fill="#F29B00"/>
<path d="M182.318 43.3271C182.318 43.4892 182.477 43.6215 182.676 43.6215H185.412V43.0293H182.676C182.477 43.0293 182.318 43.1616 182.318 43.3238V43.3271Z" fill="#F29B00"/>
<path d="M194.645 43.0312H192.07V43.6235H194.645C194.843 43.6235 195.002 43.4912 195.002 43.329C195.002 43.1669 194.843 43.0346 194.645 43.0346V43.0312Z" fill="#F29B00"/>
<path d="M184.217 39.3049L186.153 41.2405L186.57 40.8236L184.634 38.888C184.495 38.7491 184.287 38.7292 184.171 38.845C184.055 38.9608 184.075 39.166 184.214 39.3082L184.217 39.3049Z" fill="#F29B00"/>
<path d="M192.68 47.7654C192.818 47.9043 193.027 47.9242 193.143 47.8084C193.259 47.6926 193.239 47.4874 193.1 47.3452L191.28 45.5254L190.863 45.9423L192.683 47.7621L192.68 47.7654Z" fill="#F29B00"/>
<path d="M184.174 47.8096C184.289 47.9254 184.495 47.9055 184.637 47.7665L186.572 45.831L186.155 45.4141L184.22 47.3496C184.081 47.4886 184.061 47.6971 184.177 47.8129L184.174 47.8096Z" fill="#F29B00"/>
<path d="M192.681 38.8855L190.861 40.7053L191.278 41.1221L193.098 39.3024C193.237 39.1634 193.257 38.955 193.141 38.8392C193.025 38.7234 192.82 38.7432 192.678 38.8822L192.681 38.8855Z" fill="#F29B00"/>
<path d="M12.2573 78.0368H10.5664V77.0244H12.2573V75.2344H13.2928V77.0244H14.9837V78.0368H13.2928V79.8268H12.2573V78.0368Z" fill="#729EDB"/>
<path d="M24.457 85.8346H23.3652V85.1795H24.457V84.0215H25.1252V85.1795H26.2174V85.8346H25.1252V86.9927H24.457V85.8346Z" fill="#729EDB"/>
<path d="M67.9739 115.924H74.9189H81.864L81.5001 121.999C81.338 124.725 80.3981 127.362 78.7404 129.536C78.5353 129.804 78.3336 130.045 78.1417 130.247C78.1417 130.502 76.699 130.707 74.9189 130.707C73.1389 130.707 71.6962 130.502 71.6962 130.247H71.6865C71.488 130.042 71.2827 129.791 71.071 129.516C69.4133 127.332 68.4736 124.689 68.3148 121.949L67.9707 115.924H67.9739Z" fill="#729EDB"/>
<path d="M74.9177 116.915C78.7532 116.915 81.8627 116.47 81.8627 115.922C81.8627 115.374 78.7532 114.93 74.9177 114.93C71.0821 114.93 67.9727 115.374 67.9727 115.922C67.9727 116.47 71.0821 116.915 74.9177 116.915Z" fill="#BBD4F2"/>
<path d="M74.9409 116.502C77.9469 116.502 80.3838 116.243 80.3838 115.923C80.3838 115.603 77.9469 115.344 74.9409 115.344C71.9349 115.344 69.498 115.603 69.498 115.923C69.498 116.243 71.9349 116.502 74.9409 116.502Z" fill="#2F61A8"/>
<path d="M78.2704 128.969C78.1844 128.797 77.9727 128.727 77.8006 128.816C77.6286 128.902 77.5591 129.114 77.6484 129.286C77.7344 129.458 77.9462 129.528 78.1182 129.438C78.2903 129.352 78.3597 129.141 78.2704 128.969Z" fill="#A6A6A6"/>
<path d="M76.1649 128.514C76.0789 128.341 75.8672 128.272 75.6951 128.361C75.5231 128.447 75.4536 128.659 75.543 128.831C75.629 129.003 75.8407 129.073 76.0128 128.983C76.1848 128.897 76.2543 128.686 76.1649 128.514Z" fill="#A6A6A6"/>
<path d="M74.2973 116.27C74.2973 116.184 74.1914 107.581 77.3048 98.2637L77.6293 98.4721C74.5522 107.68 74.6514 116.174 74.6547 116.256L74.2973 116.266V116.27Z" fill="#2F61A8"/>
<path d="M74.5247 112.253L72.0762 99.3888L72.4203 99.2598L74.8688 112.127L74.5247 112.253Z" fill="#2F61A8"/>
<path d="M75.8229 116.29L75.4688 116.234C75.5018 115.807 76.3356 105.709 78.4333 100.928L78.7377 101.186C76.683 105.871 75.8328 116.184 75.8229 116.287V116.29Z" fill="#2F61A8"/>
<path d="M73.5264 116.293C73.5197 116.217 72.8614 108.465 71.0978 99.7995L71.442 99.6638C73.2121 108.369 73.8739 116.158 73.8805 116.234L73.5264 116.29V116.293Z" fill="#2F61A8"/>
<path d="M69.3683 92.697C70.04 94.4241 70.4037 98.6824 71.3367 97.8751C72.2698 97.0678 71.833 93.6863 71.833 93.6863C71.833 93.6863 72.8556 93.5639 74.2916 95.3539C74.2916 95.3539 74.6521 95.645 73.1533 99.1721C71.6544 102.699 73.183 102.828 73.183 102.828C73.183 102.828 75.3072 101.597 75.6348 98.282C75.6348 98.282 76.6407 102.335 75.079 104.866C73.5173 107.397 71.6379 106.299 71.6379 106.299C71.6379 106.299 70.8174 97.1968 68.4649 94.2851C66.1124 91.3735 64.6699 90.7812 64.6699 90.7812C64.6699 90.7812 68.6967 90.9632 69.3683 92.6904V92.697Z" fill="#2F61A8"/>
<path d="M71.6372 106.309C71.6372 106.309 71.1012 109.24 67.3459 109.29C66.4062 109.303 65.6683 108.959 65.0893 108.44C65.0893 108.44 65.7907 106.603 67.7792 106.977C69.7677 107.354 69.7246 106.15 69.7246 106.15C69.7246 106.15 63.5077 106.828 63.2992 101.902C63.2992 101.902 69.3805 102.831 69.4633 101.845C69.546 100.859 63.0743 98.8543 63.0743 98.8543C63.0743 98.8543 62.8757 96.6441 63.5871 95.0328C63.5871 95.0328 65.5855 95.8798 66.8825 97.0345C68.1795 98.1892 68.6296 97.4415 68.6296 97.4415C68.6296 97.4415 67.8587 94.6092 64.454 93.3321L64.6692 90.791C64.6692 90.791 66.1117 91.3833 68.4642 94.2949C70.8167 97.2066 71.6372 106.309 71.6372 106.309Z" fill="#477EBF"/>
<path d="M82.9755 87.5477C82.0094 89.1689 81.0231 93.3412 80.1331 92.4114C79.2397 91.4817 80.1828 88.1929 80.1828 88.1929C80.1828 88.1929 79.1008 87.9315 77.3042 89.5097C77.3042 89.5097 76.874 89.748 77.9957 93.4504C79.1173 97.1528 77.4532 97.0701 77.4532 97.0701C77.4532 97.0701 75.3391 95.5613 75.4482 92.2295C75.4482 92.2295 73.8004 96.1072 75.1238 98.8303C76.4506 101.553 78.6277 100.72 78.6277 100.72C78.6277 100.72 80.7818 91.8126 83.7232 89.245C86.6613 86.6808 88.2959 86.2904 88.2959 86.2904C88.2959 86.2904 83.9381 85.9198 82.972 87.5411L82.9755 87.5477Z" fill="#477EBF"/>
<path d="M78.6309 100.728C78.6309 100.728 78.796 103.706 82.8326 104.268C83.8418 104.407 84.6823 104.169 85.3804 103.732C85.3804 103.732 84.8809 101.817 82.6872 101.916C80.4936 102.018 80.7085 100.831 80.7085 100.831C80.7085 100.831 87.3028 102.353 88.216 97.4987C88.216 97.4987 81.5422 97.5881 81.5919 96.6021C81.6415 95.6161 88.8842 94.511 88.8842 94.511C88.8842 94.511 89.4071 92.3471 88.8645 90.6531C88.8645 90.6531 86.5979 91.2188 85.0395 92.185C83.4811 93.1511 83.104 92.3504 83.104 92.3504C83.104 92.3504 84.3317 89.6505 88.1731 88.8465L88.2987 86.2988C88.2987 86.2988 86.6642 86.6893 83.726 89.2535C80.7879 91.8177 78.6309 100.728 78.6309 100.728Z" fill="#2F61A8"/>
<path d="M73.7011 115.734C73.7011 115.734 70.4254 107.198 62.9941 107.344C55.5628 107.489 72.9203 114.719 73.7011 115.734Z" fill="#2F61A8"/>
<path d="M87.2253 100.225C87.2253 100.225 88.3568 101.71 85.2268 102.743C85.0581 101.73 84.5586 101.065 84.5586 101.065C85.6108 100.893 86.4874 100.592 87.2253 100.225Z" fill="#477EBF"/>
<path d="M85.8492 98.9047C90.5475 97.1081 90.7428 96.3438 90.7428 96.3438C90.7428 96.3438 90.0777 98.7955 87.2257 100.225C86.4911 100.592 85.6112 100.893 84.559 101.065C84.559 101.065 85.0585 101.73 85.2272 102.743C85.3993 103.782 85.2207 105.188 83.7881 106.621C80.9624 109.446 77.0977 108.798 77.0977 108.798C77.0977 108.798 79.7447 101.241 85.8492 98.9047Z" fill="#477EBF"/>
<path d="M41.3912 53.0324C41.5447 53.0324 41.669 52.908 41.669 52.7545C41.669 52.601 41.5447 52.4766 41.3912 52.4766C41.2377 52.4766 41.1133 52.601 41.1133 52.7545C41.1133 52.908 41.2377 53.0324 41.3912 53.0324Z" fill="white"/>
<path d="M42.3931 54.927C42.5466 54.927 42.671 54.8025 42.671 54.649C42.671 54.4955 42.5466 54.3711 42.3931 54.3711C42.2396 54.3711 42.1152 54.4955 42.1152 54.649C42.1152 54.8025 42.2396 54.927 42.3931 54.927Z" fill="white"/>
<defs>
<linearGradient id="paint0_linear_248_54406" x1="96.0294" y1="13" x2="96.0294" y2="136.756" gradientUnits="userSpaceOnUse">
<stop stop-color="#F6FBFF"/>
<stop offset="1" stop-color="#EAF0F9"/>
</linearGradient>
<linearGradient id="paint1_linear_248_54406" x1="36.0685" y1="133.883" x2="36.0685" y2="131.187" gradientUnits="userSpaceOnUse">
<stop stop-color="#002D49"/>
<stop offset="1" stop-color="#002737"/>
</linearGradient>
<linearGradient id="paint2_linear_248_54406" x1="51.0939" y1="133.646" x2="51.0939" y2="130.949" gradientUnits="userSpaceOnUse">
<stop stop-color="#002D49"/>
<stop offset="1" stop-color="#002737"/>
</linearGradient>
</defs>
</svg>
