<svg width="200" height="150" viewBox="0 0 200 150" fill="none" xmlns="http://www.w3.org/2000/svg">
<path d="M147.767 49.7136C112.483 30.5221 114.353 -7.55029 68.1122 10.2506C36.078 22.5836 14.821 63.3022 19.6948 98.1512C23.3704 124.441 35.5449 143.926 58.304 137.594C81.0631 131.262 100.4 138.914 117.883 143.841C139.886 150.045 174.01 130.577 179.576 103.886C185.141 77.1979 171.883 62.8262 147.767 49.7102V49.7136Z" fill="url(#paint0_linear_248_54885)"/>
<path d="M142.898 32.8301H29.4736C26.5563 32.8301 24.1914 35.195 24.1914 38.1123V112.38C24.1914 115.298 26.5563 117.663 29.4736 117.663H142.898C145.815 117.663 148.18 115.298 148.18 112.38V38.1123C148.18 35.195 145.815 32.8301 142.898 32.8301Z" fill="#C5DAEF"/>
<path d="M142.898 33.4375H29.4736C26.5675 33.4375 24.1914 35.8136 24.1914 38.7197V106.153H148.18V38.7197C148.18 35.8136 145.804 33.4375 142.898 33.4375Z" fill="#284C7D"/>
<path d="M98.9263 117.664H73.4434V128.85H98.9263V117.664Z" fill="#7AA9D7"/>
<path d="M143.828 38.1133H28.541V100.885H143.828V38.1133Z" fill="#D7E7F5"/>
<path d="M88.5159 109.271H83.8516C82.8226 109.271 81.9883 110.106 81.9883 111.135V111.138C81.9883 112.167 82.8226 113.001 83.8516 113.001H88.5159C89.5449 113.001 90.3792 112.167 90.3792 111.138V111.135C90.3792 110.106 89.5449 109.271 88.5159 109.271Z" fill="#7AA9D7"/>
<path d="M109.49 132.89V132.269C109.49 130.389 107.951 128.85 106.071 128.85H66.2941C64.4141 128.85 62.875 130.389 62.875 132.269V132.89H109.487H109.49Z" fill="#C5DAEF"/>
<path d="M135.75 56.043H64.5898V82.8151H135.75V56.043Z" fill="white"/>
<path d="M59.3547 56.0918H36.6191V81.1021H59.3547V56.0918Z" fill="white"/>
<path d="M135.75 85.5586H64.5898V90.0139H135.75V85.5586Z" fill="white"/>
<path d="M121.763 44.2227H50.6035V48.6779H121.763V44.2227Z" fill="white"/>
<path fill-rule="evenodd" clip-rule="evenodd" d="M41.0273 74.1428C41.807 73.4037 43.4237 73.1303 44.8683 72.6206C46.3298 72.1042 46.539 69.8597 46.4242 68.5164L49.688 68.2869C49.5699 69.6302 49.6577 72.0232 51.1192 72.6206C52.5807 73.218 54.2142 73.4037 55.1019 74.1158C53.5797 75.7123 51.5108 76.8025 49.1481 77.0691H49.1211H46.9542C44.6658 76.8092 42.58 75.7461 41.0341 74.1428H41.0273Z" fill="#2E6A3F"/>
<path fill-rule="evenodd" clip-rule="evenodd" d="M47.9429 75.9979C46.5624 75.4309 44.8579 74.452 44.625 72.3628C45.4114 72.0759 45.8502 71.2962 46.073 70.4085C46.6569 70.3376 47.2882 70.3005 47.9396 70.3005C48.591 70.3005 49.2222 70.3376 49.8095 70.4085C50.0322 71.2962 50.471 72.0793 51.2574 72.3628C51.0279 74.452 49.32 75.4309 47.9396 75.9979H47.9429Z" fill="#E8B88E"/>
<path fill-rule="evenodd" clip-rule="evenodd" d="M49.6434 74.6816C49.6771 74.9313 46.8994 71.4751 47.0446 70.5402C47.6285 70.4693 47.2875 70.3005 47.9423 70.3005C48.597 70.3005 49.2249 70.3376 49.8121 70.4085C50.0349 71.2962 50.4737 72.0793 51.2601 72.3628C51.0306 74.452 51.0273 74.1145 49.6468 74.6816H49.6434Z" fill="#CBA07E"/>
<path fill-rule="evenodd" clip-rule="evenodd" d="M51.7911 65.4415C52.6585 66.1942 51.2914 69.0597 51.2914 69.0597C51.2914 69.0597 49.5701 71.6013 48.0445 71.6013C46.5189 71.6013 44.7975 69.0597 44.7975 69.0597C44.7975 69.0597 43.4306 66.5452 44.298 65.7959C44.4735 63.6695 45.6514 61.7693 48.0478 61.7693C50.4442 61.7693 51.6155 63.3118 51.7944 65.4415H51.7911Z" fill="#F5D3AE"/>
<path fill-rule="evenodd" clip-rule="evenodd" d="M44.1234 66.9141C44.1099 65.942 44.2348 65.0982 44.5993 64.4839C44.9537 63.8899 45.082 62.6005 46.1114 62.8976C46.611 63.0427 47.6303 63.3262 48.2783 63.3262C48.9263 63.3262 49.7498 63.0427 50.2494 62.8976C51.1472 62.6377 50.9852 63.8797 51.3463 64.413C51.7784 65.0476 51.9505 65.9184 51.9167 66.9039C52.3622 65.3885 51.7379 61.345 51.7379 61.345C51.7379 61.345 49.5372 60.5349 48.0014 60.5349C46.2294 60.5349 44.3192 61.8209 44.3192 61.8209C44.3192 61.8209 43.6879 65.3919 44.1199 66.9174L44.1234 66.9141Z" fill="#83422A"/>
<path d="M54.4709 71.8878L50.4677 71.6482L47.9128 73.0523L45.4151 71.665L41.6518 71.8912C41.3075 71.8912 41.0273 72.1713 41.0273 72.5156V76.0292C42.8398 77.7202 45.2699 77.224 47.9431 77.224C50.6163 77.224 53.2659 78.0409 55.0986 76.2149V72.5122C55.0986 72.168 54.8184 71.8878 54.4742 71.8878H54.4709Z" fill="#ED971B"/>
<path d="M47.9123 72.8576L45.5193 71.6594L45.418 71.6661L46.0289 77.1846C46.6499 77.3027 49.1881 77.3095 49.7855 77.1981L50.4673 71.6628L50.3626 71.656L47.9123 72.8576Z" fill="#C9E3F1"/>
<path d="M48.5834 60.1462L45.4141 61.2094L45.998 62.3739L48.5834 62.8937V60.1462Z" fill="#83422A"/>
<path d="M48.6481 63.7068C49.5864 63.4739 49.7383 62.971 49.9273 62.4242C50.0286 62.1339 50.7036 62.4917 51.0343 63.0554C51.3887 63.6596 51.4056 64.4865 51.5912 64.5709C51.895 64.1793 51.9625 63.457 51.9625 62.9845C51.9625 62.1981 51.8242 61.4488 51.1154 60.8007C50.4066 60.1561 49.1273 60.5847 47.9493 60.5847C46.9435 60.5847 45.6104 60.254 44.851 61.1113C44.3413 61.6851 44.1895 62.3499 44.1895 62.9845C44.1895 63.4536 44.2265 64.4325 44.5303 64.8206C44.888 64.6552 44.6551 63.7304 45.9107 63.2005C47.0988 62.701 47.784 63.9194 48.6514 63.7L48.6481 63.7068Z" fill="#83422A"/>
<path d="M94.6712 25.2534C94.6712 25.2534 101.584 26.1613 104.473 26.06C107.362 25.9588 112.506 25.9081 112.506 25.9081C112.506 25.9081 113.326 28.6353 112.165 29.6445C111.004 30.6537 104.058 33.58 99.2311 31.511C94.4045 29.442 94.2291 25.601 94.6712 25.25V25.2534Z" fill="#1F3E68"/>
<path d="M100.963 33.2306C100.963 33.2306 106.822 29.1939 108.945 27.8202C110.792 26.6254 114.336 23.7463 116 26.1663C117.664 28.5897 115.395 30.7566 113.526 32.0189C111.899 33.1193 104.875 36.1401 103.535 37.318C102.677 37.3687 100.821 34.6955 100.963 33.2306Z" fill="#1E598D"/>
<path d="M104.716 33.7223C104.169 33.0641 103.849 32.2676 103.484 31.498C102.063 32.4701 100.963 33.2295 100.963 33.2295C100.821 34.6943 102.677 37.3675 103.535 37.3169C104.055 36.8579 105.435 36.1221 107.021 35.3289C106.147 34.9576 105.337 34.4648 104.716 33.7223Z" fill="#1E598D"/>
<path d="M97.4823 34.9889C97.4823 34.9889 96.0952 36.0116 95.7914 36.5617C95.4876 37.1119 96.6352 37.3886 96.6352 37.3886C96.6352 37.3886 100.986 36.9127 102.248 36.1027C103.511 35.296 101.955 34.1113 100.955 34.1113C99.9564 34.1113 98.2384 34.3847 97.4823 34.9889Z" fill="#EBCEAD"/>
<path d="M104.493 35.0448C104.493 35.0448 106.41 36.5097 108.429 36.6582C110.447 36.8101 111.203 37.1139 111.203 37.1139C111.203 37.1139 110.042 34.9369 108.729 34.1808C107.416 33.4248 104.895 32.6215 104.49 32.9252C104.085 33.229 104.186 34.0863 104.49 35.0448H104.493Z" fill="#EBCEAD"/>
<path d="M99.4239 34.2832L94.81 35.1844C94.2328 35.3261 93.8445 36.0923 93.9457 36.8855C94.047 37.6787 94.604 38.2119 95.1811 38.0736L100.271 36.8213C99.8592 36.2239 99.5556 35.3329 99.4206 34.2865L99.4239 34.2832Z" fill="#24447E"/>
<path d="M95.5798 35.0312L94.8134 35.1797C94.2363 35.3215 93.8483 36.0877 93.9495 36.8809C94.0508 37.674 94.6074 38.2073 95.1846 38.0689L95.8903 37.8934C95.8903 36.8437 95.7753 35.8649 95.5762 35.0346L95.5798 35.0312Z" fill="white"/>
<path d="M97.2966 34.8834L96.9883 34.9199L97.1767 36.512L97.4851 36.4755L97.2966 34.8834Z" fill="white"/>
<path d="M97.8611 34.7252L97.5527 34.7617L97.7412 36.3538L98.0495 36.3173L97.8611 34.7252Z" fill="white"/>
<path d="M98.3884 34.6393L98.0801 34.6758L98.2685 36.2679L98.5769 36.2314L98.3884 34.6393Z" fill="white"/>
<path d="M100.268 36.9559L95.2319 38.1136L95.1914 37.793L100.231 36.6387L100.268 36.9559Z" fill="white"/>
<path d="M105.604 32.6221C105.604 32.6221 102.577 30.5227 99.4784 28.6393C97.4668 27.4141 94.0475 23.9444 92.4848 24.5485C90.922 25.1527 90.011 26.9989 90.5173 28.5482C91.0202 30.0974 95.5428 32.9089 97.7974 33.9519C100.558 35.2311 103.944 35.8319 104.801 36.4867C105.658 37.1415 106.556 33.0203 105.604 32.6187V32.6221Z" fill="#284C7D"/>
<path d="M107.784 33.627L112.607 34.5687C113.211 34.7172 113.616 35.5171 113.508 36.3474C113.4 37.1777 112.819 37.7346 112.215 37.5894L106.893 36.2799C107.321 35.6555 107.642 34.7205 107.784 33.6303V33.627Z" fill="#24447E"/>
<path d="M111.804 34.4102L112.607 34.5654C113.211 34.714 113.616 35.5139 113.508 36.3442C113.4 37.1745 112.82 37.7314 112.216 37.5862L111.477 37.404C111.477 36.3037 111.598 35.281 111.804 34.4135V34.4102Z" fill="white"/>
<path d="M110.191 34.1288L109.994 35.7949L110.303 35.8314L110.499 34.1652L110.191 34.1288Z" fill="white"/>
<path d="M109.607 33.9963L109.41 35.6621L109.719 35.6986L109.915 34.0328L109.607 33.9963Z" fill="white"/>
<path d="M109.054 33.8729L108.857 35.5391L109.166 35.5755L109.363 33.9094L109.054 33.8729Z" fill="white"/>
<path d="M106.9 36.4226L112.169 37.6343L112.21 37.3001L106.941 36.0918L106.9 36.4226Z" fill="white"/>
<path d="M110.404 14.0242C110.404 14.0242 107.404 11.8066 103.765 11.8066C100.127 11.8066 96.3564 14.0242 96.3564 14.0242C96.3564 14.0242 94.5808 17.2779 93.9902 22.7491C93.3995 28.2203 112.257 27.1132 113.364 22.7491C114.474 18.3849 110.407 14.0242 110.407 14.0242H110.404ZM97.6119 22.6782V19.573L98.9419 22.6782H97.6119ZM109.516 22.6782H108.187L109.516 19.573V22.6782Z" fill="#EA9646"/>
<path d="M108.699 28.5943H98.7896L97.0176 21.125H110.697L108.699 28.5943Z" fill="#C2C6C6"/>
<path d="M96.4978 25.5979L98.7896 28.0044V28.5951L96.4978 26.1919V25.5979Z" fill="#D3D3D5"/>
<path d="M98.5701 27.7817L96.4978 25.5979H98.0875L98.5701 27.7817Z" fill="#AEA9A9"/>
<path d="M108.736 28.0215H98.7891V28.5953H108.736V28.0215Z" fill="#D3D3D5"/>
<path d="M111.031 25.6191L108.736 28.0223V28.613L111.031 26.2098V25.6191Z" fill="#D3D3D5"/>
<path d="M108.898 27.8535L111.031 25.6191H109.496L108.898 27.8535Z" fill="#AEA9A9"/>
<path d="M106.639 9.88551C106.639 9.88551 106.838 9.55135 107.186 9.52772C107.534 9.5041 107.307 10.5943 107.206 11.0094C107.105 11.4246 106.71 11.5832 106.568 11.3436L106.639 9.88551Z" fill="#EED3C0"/>
<path d="M106.681 7.24764C106.631 6.09669 104.997 6.33298 103.856 6.21484C102.715 6.33298 101.082 6.09669 101.031 7.24764C100.981 8.40871 101.139 11.7468 101.237 12.6007C101.332 13.4445 102.962 14.9668 103.856 15.0646C104.754 14.9701 106.381 13.4445 106.475 12.6007C106.573 11.7468 106.732 8.40871 106.681 7.24764Z" fill="#EBCEAD"/>
<path d="M106.455 5.59326C105.705 5.02285 104.524 4.97894 103.856 5.00594C103.187 4.97894 102.009 5.02285 101.257 5.59326C100.16 6.42694 100.514 6.84209 100.463 7.19649C100.413 7.55089 100.578 9.441 100.679 9.7684C100.781 10.0958 101.074 9.88652 101.074 9.88652C101.074 9.88652 101.058 8.17864 101.739 8.00313C102.421 7.82762 102.877 7.85465 103.555 8.04029C103.66 8.07067 105.293 7.82424 105.975 8.00313C106.657 8.17864 106.64 9.88652 106.64 9.88652C106.64 9.88652 106.934 10.0958 107.035 9.7684C107.136 9.441 107.298 7.54751 107.251 7.19649C107.2 6.84209 107.551 6.42694 106.458 5.59326H106.455Z" fill="#6A2119"/>
<path d="M101.075 9.88551C101.075 9.88551 100.876 9.55135 100.528 9.52772C100.181 9.5041 100.407 10.5943 100.508 11.0094C100.609 11.4246 101.004 11.5832 101.146 11.3436L101.075 9.88551Z" fill="#EED3C0"/>
<path d="M97.614 62.9552C97.614 62.9012 97.5902 62.8472 97.5497 62.81L97.1548 62.4286C97.0705 62.3476 96.9389 62.351 96.8579 62.4286L94.7787 64.5078L93.3241 63.097C93.2836 63.0565 93.2295 63.0362 93.1755 63.0362C93.1214 63.0362 93.0676 63.0565 93.0271 63.097L92.6154 63.5087C92.5344 63.5897 92.5344 63.7214 92.6154 63.8024L94.6135 65.7364C94.6946 65.814 94.8329 65.8106 94.9105 65.7364L97.5533 63.1003C97.5939 63.0598 97.614 63.0092 97.614 62.9552Z" fill="#729EDB"/>
<path d="M90.674 61.7559H70.6758V62.7212H90.674V61.7559Z" fill="#729EDB"/>
<path d="M90.67 63.998H70.6719V64.9634H90.67V63.998Z" fill="#729EDB"/>
<path d="M90.6603 66.1777H70.6621V67.143H90.6603V66.1777Z" fill="#729EDB"/>
<path d="M90.674 69.6602H70.6758V70.6255H90.674V69.6602Z" fill="#729EDB"/>
<path d="M90.67 71.9062H70.6719V72.8716H90.67V71.9062Z" fill="#729EDB"/>
<path d="M90.6642 74.0859H70.666V75.0512H90.6642V74.0859Z" fill="#729EDB"/>
<path d="M97.614 70.7755C97.614 70.7215 97.5902 70.6675 97.5497 70.6303L97.1548 70.2489C97.0705 70.1679 96.9389 70.1713 96.8579 70.2489L94.7787 72.3281L93.3241 70.9172C93.2836 70.8767 93.2295 70.8565 93.1755 70.8565C93.1214 70.8565 93.0676 70.8767 93.0271 70.9172L92.6154 71.329C92.5344 71.41 92.5344 71.5416 92.6154 71.6226L94.6135 73.5567C94.6946 73.6343 94.8329 73.6309 94.9105 73.5567L97.5533 70.9206C97.5939 70.8801 97.614 70.8295 97.614 70.7755Z" fill="#729EDB"/>
<path d="M90.6642 76.3301H70.666V77.2954H90.6642V76.3301Z" fill="#729EDB"/>
<path d="M130.054 63.2774C130.054 63.2234 130.03 63.1694 129.99 63.1323L129.595 62.7509C129.51 62.6699 129.379 62.6733 129.298 62.7509L127.218 64.83L125.764 63.4192C125.723 63.3787 125.669 63.3584 125.615 63.3584C125.561 63.3584 125.507 63.3787 125.467 63.4192L125.055 63.831C124.974 63.912 124.974 64.0436 125.055 64.1246L127.053 66.0586C127.134 66.1362 127.273 66.1328 127.35 66.0586L129.993 63.4226C130.034 63.3821 130.054 63.3314 130.054 63.2774Z" fill="#729EDB"/>
<path d="M123.115 62.082H103.117V63.0473H123.115V62.082Z" fill="#729EDB"/>
<path d="M123.108 64.3242H103.109V65.2896H123.108V64.3242Z" fill="#729EDB"/>
<path d="M123.102 66.5039H103.104V67.4692H123.102V66.5039Z" fill="#729EDB"/>
<path d="M123.115 69.9883H103.117V70.9536H123.115V69.9883Z" fill="#729EDB"/>
<path d="M123.111 72.2324H103.113V73.1977H123.111V72.2324Z" fill="#729EDB"/>
<path d="M123.106 74.4121H103.107V75.3774H123.106V74.4121Z" fill="#729EDB"/>
<path d="M130.054 71.0978C130.054 71.0438 130.03 70.9897 129.99 70.9526L129.595 70.5712C129.51 70.4902 129.379 70.4936 129.298 70.5712L127.218 72.6504L125.764 71.2395C125.723 71.199 125.669 71.1788 125.615 71.1788C125.561 71.1788 125.507 71.199 125.467 71.2395L125.055 71.6513C124.974 71.7323 124.974 71.8639 125.055 71.9449L127.053 73.8789C127.134 73.9566 127.273 73.9532 127.35 73.8789L129.993 71.2429C130.034 71.2024 130.054 71.1518 130.054 71.0978Z" fill="#729EDB"/>
<path d="M123.106 76.6543H103.107V77.6196H123.106V76.6543Z" fill="#729EDB"/>
<path d="M73.243 94.4648H56.1747C54.7436 94.4648 53.5723 95.636 53.5723 97.0671V130.222C53.5723 131.653 54.7436 132.824 56.1747 132.824H73.243C74.6741 132.824 75.8453 131.653 75.8453 130.222V97.0671C75.8453 95.636 74.6741 94.4648 73.243 94.4648ZM73.9721 127.096L73.9348 128.119H55.5298L55.4927 127.096V99.0281H54.848H73.9348L73.9721 100.223V127.096Z" fill="#284C7D"/>
<path d="M73.9286 99.0273H55.4863V128.118H73.9286V99.0273Z" fill="white"/>
<path d="M66.6821 129.51H62.7363V130.624H66.6821V129.51Z" fill="white"/>
<path d="M72.6836 101.066H56.7324V125.759H72.6836V101.066Z" fill="#D7E7F5"/>
<path d="M70.7696 104.061H59.0038V122.273H70.7696V104.061Z" fill="#F2F2F2"/>
<path d="M61.6395 112.539L60.6777 112.536V109.535L61.6395 109.539V112.539Z" fill="#729EDB"/>
<path d="M62.8912 112.544L61.9258 112.54L61.9294 108.639L62.8912 108.642V112.544Z" fill="#729EDB"/>
<path d="M64.161 112.547L63.1992 112.544L63.2025 107.471L64.1647 107.474L64.161 112.547Z" fill="#729EDB"/>
<path d="M65.4124 112.553L64.4473 112.549L64.4506 109.549L65.4124 109.552V112.553Z" fill="#729EDB"/>
<path d="M66.6474 112.556L65.6855 112.552L65.6888 108.131L66.6506 108.134L66.6474 112.556Z" fill="#729EDB"/>
<path d="M67.9006 112.559L66.9355 112.556L66.9388 106.605L67.9043 106.609L67.9006 112.559Z" fill="#729EDB"/>
<path d="M69.1692 112.564L68.207 112.56L68.2103 105.668L69.1758 105.671L69.1692 112.564Z" fill="#ED971B"/>
<path d="M69.9489 113.953H59.9043V120.828H69.9489V113.953Z" fill="white"/>
<path d="M69.0092 115.334H60.7129V115.715H69.0092V115.334Z" fill="#729EDB"/>
<path d="M69.0092 116.219H60.7129V116.6H69.0092V116.219Z" fill="#729EDB"/>
<path d="M69.0073 117.08H60.7109V117.461H69.0073V117.08Z" fill="#729EDB"/>
<path d="M69.0589 118.429L66.8008 118.447L66.8065 119.156L69.0646 119.138L69.0589 118.429Z" fill="#729EDB"/>
<path d="M149.724 122.146C150.149 123.358 150.442 124.819 150.537 126.405C150.776 130.479 150.108 131.948 148.93 138.479L147.472 138.58C146.858 135.454 146.288 129.895 146.028 125.504C145.967 124.448 145.923 123.415 145.893 122.409L149.724 122.143V122.146Z" fill="#EFB495"/>
<path d="M142.151 122.028C142.711 123.162 143.183 124.566 143.487 126.122C144.267 130.115 143.845 131.661 143.646 138.289L142.306 138.6C141.31 135.596 139.498 130.503 138.87 126.912C138.242 123.32 138.34 122.531 138.117 121.211L142.151 122.031V122.028Z" fill="#EFB495"/>
<path d="M143.936 142.557C144.537 141.811 145.404 142.158 146.184 140.791C146.963 139.424 147.153 138.702 147.153 138.702L148.101 138.584C148.151 138.699 148.253 138.776 148.361 138.77C148.479 138.763 148.573 138.658 148.604 138.52L148.995 138.51C149.411 138.776 149.761 139.772 149.832 140.987C149.88 141.77 149.799 142.476 149.633 142.968L149.086 143.006C149.123 142.442 149.127 141.801 149.1 141.115L148.54 141.487L147.868 143.087L143.801 143.37C143.801 143.37 143.328 143.292 143.933 142.55L143.936 142.557Z" fill="#16415D"/>
<path d="M138.596 142.913C139.197 142.167 140.064 142.514 140.844 141.147C141.624 139.78 141.813 139.058 141.813 139.058L142.761 138.94C142.811 139.055 142.913 139.132 143.021 139.126C143.139 139.119 143.233 139.014 143.264 138.879L143.655 138.869C144.071 139.136 144.422 140.131 144.493 141.347C144.54 142.13 144.459 142.835 144.293 143.328L143.747 143.365C143.784 142.801 143.787 142.16 143.76 141.475L143.2 141.846L142.528 143.446L138.461 143.729C138.461 143.729 137.988 143.652 138.593 142.909L138.596 142.913Z" fill="#16415D"/>
<path d="M150.008 123.192C150.571 122.18 151.695 120.148 152.033 118.808C152.812 115.699 153.562 114.457 152.272 108.608L148.276 108.514C147.429 111.187 146.565 115.993 146.126 119.807C146.022 120.725 145.937 121.626 145.873 122.504L150.011 123.196L150.008 123.192Z" fill="#EFB495"/>
<path d="M141.265 121.87C141.721 120.841 142.632 118.782 142.926 117.435C143.604 114.313 144.209 113.051 143.388 107.266L140.351 107.299C139.632 109.989 138.842 114.806 138.403 118.62C138.299 119.538 138.211 120.439 138.137 121.313L141.265 121.867V121.87Z" fill="#EFB495"/>
<path d="M142.22 122.693C142.611 121.657 143.395 119.581 143.661 118.227C144.279 115.095 144.795 113.823 144.258 108.078L141.795 108.193C141.153 110.893 140.407 115.716 139.969 119.53C139.864 120.448 139.773 121.349 139.695 122.224L142.217 122.696L142.22 122.693Z" fill="#EFB495"/>
<path d="M143.624 82.6593C144.164 83.6685 141.714 86.3112 138.15 88.5591C137.127 89.2038 134.859 90.4256 132.959 90.7598C128.237 91.5901 122.783 90.7767 122.398 90.0544C122.05 89.403 126.114 88.8967 129.995 87.7727C132.125 87.1551 134.201 86.1155 135.463 85.3189C137.559 83.9959 139.054 78.2681 140.465 77.9643C141.454 77.7517 143.405 82.2441 143.628 82.6593H143.624Z" fill="#EFB291"/>
<path d="M124.713 89.4491C124.713 90.4785 122.908 91.3122 121.308 91.3122C119.708 91.3122 118.459 89.7225 118.459 88.693C118.459 87.9201 120.305 89.3681 121.332 89.2972C121.672 89.2736 120.91 87.5859 121.308 87.5859C122.108 87.5859 122.01 88.6593 122.536 88.9968C123.059 89.3343 124.713 88.936 124.713 89.4491Z" fill="#EFB291"/>
<path d="M140.26 68.9457C141.529 74.8287 141.231 75.8987 141.579 75.8211C143.469 75.4093 145.886 72.3142 145.886 68.453C145.886 64.5917 144.64 61.4629 143.105 61.4629C141.569 61.4629 139.442 65.1858 140.256 68.9424L140.26 68.9457Z" fill="#1C3054"/>
<path d="M147.897 75.3821C147.266 75.7095 146.51 76.658 145.788 76.9212C144.289 77.4646 143.037 75.696 142.342 75.2707C142.615 74.7746 143.594 74.0894 143.594 73.3806C143.594 72.4187 143.543 71.5681 143.074 71.0585V69.8535H145.892C146.017 72.1014 146.777 74.0692 147.897 75.3821Z" fill="#EA9F86"/>
<path d="M140.942 64.7326C141.259 62.6839 143.001 63.0585 144.273 63.3825C145.09 63.5918 145.799 63.9293 146.106 65.1376C146.288 64.9385 146.488 65.4752 146.693 65.5393C147.122 65.6709 147.352 65.9342 147.21 66.7172C147.068 67.4969 146.606 68.496 146.177 68.3644C146.157 68.3576 146.137 68.3441 146.12 68.3339C145.971 68.9584 146.049 69.5051 145.728 69.9439C145.1 70.8046 143.895 71.2805 143.095 71.294C140.483 71.3345 140.631 66.7814 140.945 64.7326H140.942Z" fill="#EBB190"/>
<path d="M140.03 63.1667C140.239 61.7659 143.21 60.5138 145.245 60.8614C146.541 61.0808 147.138 61.0706 148.252 62.5996C149.366 64.1286 149.396 70.8453 149.207 71.3651C148.742 72.6443 146.699 74.5074 146.065 74.5377C145.974 74.5411 145.755 72.3067 145.815 70.5314C145.856 69.3905 146.193 68.4387 146.163 68.3949C146.389 68.3206 146.615 68.1282 146.771 67.8447C147.031 67.3654 146.987 66.822 146.673 66.6296C146.416 66.471 146.058 66.6026 145.795 66.9131C145.582 65.8499 145.144 64.7294 143.284 65.0669C141.252 65.4382 139.821 64.5708 140.03 63.17V63.1667Z" fill="#1C3054"/>
<path d="M152.188 93.0547C150.615 90.5301 149.079 85.3728 149.079 83.5063C149.079 80.9951 150.632 78.9599 152.545 78.9599C152.957 78.9599 153.352 79.0578 153.717 79.2333C152.671 76.2867 148.651 73.195 147.716 72.574C147.574 72.4795 147.435 72.3985 147.3 72.3242L143.777 76.3036L142.487 74.9366C141.417 75.7096 139.099 77.7111 138.434 80.985C137.56 85.285 140.411 88.4037 140.567 91.3975C140.719 94.3913 140.719 100.031 140.719 100.031H152.444C152.444 100.031 152.026 97.0611 152.188 93.0581V93.0547Z" fill="#C0E1E4"/>
<path d="M152.215 97.3184C152.117 97.1598 152.009 97.0079 151.898 96.8594C149.764 97.7268 146.342 98.331 144.02 98.493C142.123 98.6246 141.077 98.3141 140.493 97.7403C140.479 97.7707 140.466 97.8011 140.452 97.8314C138.603 102.705 138.062 115.663 138.062 115.663C138.062 115.663 153.933 117.188 153.788 116.287C152.6 108.943 154.777 101.48 152.211 97.3151L152.215 97.3184Z" fill="url(#paint1_linear_248_54885)"/>
<path d="M152.873 78.9702C151.398 79.1086 150.058 79.9726 149.021 81.3294C149.173 82.8213 149.497 84.6878 149.855 86.7669C150.723 91.8129 152.606 95.7112 154.064 95.475C155.522 95.2387 155.961 90.9691 155.134 85.9164C154.526 82.1969 153.716 80.1144 152.876 78.9668L152.873 78.9702Z" fill="#EFB291"/>
<path d="M153 94.9754C152.467 95.4918 150.904 94.1957 147.448 90.8543C143.992 87.5128 141.626 84.384 142.159 83.8676C142.692 83.3512 145.926 85.6429 149.382 88.9844C152.838 92.3259 153.534 94.459 153 94.9754Z" fill="#EFB291"/>
<path d="M143.948 82.1609C144.647 83.5987 144.505 85.0838 143.638 85.4787C142.767 85.8736 142.355 85.4011 141.657 83.9632C140.958 82.5254 140.765 81.955 141.633 81.5601C142.504 81.1652 143.253 80.723 143.948 82.1609Z" fill="#EFB291"/>
<defs>
<linearGradient id="paint0_linear_248_54885" x1="99.9184" y1="5.63281" x2="99.9184" y2="145.001" gradientUnits="userSpaceOnUse">
<stop stop-color="#F6FBFF"/>
<stop offset="1" stop-color="#EAF0F9"/>
</linearGradient>
<linearGradient id="paint1_linear_248_54885" x1="138.063" y1="106.718" x2="153.791" y2="106.718" gradientUnits="userSpaceOnUse">
<stop stop-color="#002D49"/>
<stop offset="1" stop-color="#002737"/>
</linearGradient>
</defs>
</svg>
