<svg width="200" height="150" viewBox="0 0 200 150" fill="none" xmlns="http://www.w3.org/2000/svg">
<path d="M16.8823 120.141C2.99409 101.952 -4.19239 39.7593 51.1179 29.008C66.9878 25.9245 88.4449 36.1248 100.495 29.3616C112.546 22.5984 115.23 8.2867 140.622 5.71709C166.014 3.14337 177.39 22.9355 176.469 40.2526C175.544 57.5697 190.987 58.7168 193.536 72.5639C195.867 85.2269 178.439 92.9892 172.674 105.015C166.91 117.041 168.641 136.96 149.811 142.363C128.835 148.382 122.828 122.813 95.6356 134.329C65.5855 147.054 34.3967 143.086 16.8823 120.145V120.141Z" fill="url(#paint0_linear_248_54564)"/>
<path d="M166.038 44.8667L119.331 45.3151C117.682 45.3309 116.358 46.6801 116.374 48.3285L117.154 129.561C117.17 131.21 118.519 132.533 120.168 132.517L166.875 132.069C168.523 132.053 169.847 130.704 169.831 129.056L169.051 47.8228C169.035 46.1744 167.686 44.8509 166.038 44.8667Z" fill="#314572"/>
<path d="M162.931 50.5894L122.543 50.9771C121.115 50.9908 119.968 52.1597 119.982 53.5879L120.045 60.1616C120.059 61.5898 121.228 62.7365 122.656 62.7228L163.044 62.335C164.472 62.3213 165.619 61.1524 165.605 59.7243L165.542 53.1505C165.528 51.7223 164.36 50.5757 162.931 50.5894Z" fill="#F0B644"/>
<path d="M131.312 70.8245L121.034 70.9232C120.546 70.9278 120.154 71.3274 120.159 71.8156L120.173 73.2504C120.177 73.7386 120.577 74.1305 121.065 74.1258L131.343 74.0271C131.831 74.0224 132.223 73.6229 132.218 73.1348L132.205 71.7C132.2 71.2118 131.801 70.8198 131.312 70.8245Z" fill="#F0B644"/>
<path d="M129.116 77.9145L121.658 77.9861C120.859 77.9938 120.217 78.6479 120.225 79.4471L120.271 84.3025C120.279 85.1017 120.933 85.7434 121.733 85.7357L129.19 85.6641C129.989 85.6565 130.631 85.0023 130.624 84.2031L130.577 79.3478C130.569 78.5485 129.915 77.9068 129.116 77.9145Z" fill="#BCC1B5"/>
<path d="M129.114 77.3032L121.656 77.3748C120.857 77.3825 120.215 78.0366 120.223 78.8358L120.269 83.6911C120.277 84.4904 120.931 85.1321 121.73 85.1244L129.188 85.0528C129.987 85.0451 130.629 84.391 130.621 83.5918L130.575 78.7364C130.567 77.9372 129.913 77.2955 129.114 77.3032Z" fill="#F2F2F2"/>
<path d="M140.922 77.8051L133.465 77.8767C132.666 77.8844 132.024 78.5385 132.031 79.3378L132.078 84.1931C132.086 84.9923 132.74 85.634 133.539 85.6264L140.997 85.5548C141.796 85.5471 142.438 84.893 142.43 84.0937L142.384 79.2384C142.376 78.4392 141.722 77.7975 140.922 77.8051Z" fill="#BCC1B5"/>
<path d="M140.913 77.1919L133.455 77.2635C132.656 77.2711 132.014 77.9253 132.022 78.7245L132.068 83.5798C132.076 84.3791 132.73 85.0207 133.529 85.0131L140.987 84.9415C141.786 84.9338 142.428 84.2797 142.42 83.4804L142.374 78.6251C142.366 77.8259 141.712 77.1842 140.913 77.1919Z" fill="#F2F2F2"/>
<path d="M152.528 77.6938L145.07 77.7654C144.271 77.7731 143.629 78.4272 143.637 79.2264L143.684 84.0818C143.691 84.881 144.345 85.5227 145.144 85.515L152.602 85.4434C153.402 85.4358 154.043 84.7816 154.035 83.9824L153.989 79.1271C153.981 78.3278 153.327 77.6861 152.528 77.6938Z" fill="#BCC1B5"/>
<path d="M152.522 77.0805L145.065 77.1521C144.265 77.1598 143.623 77.8139 143.631 78.6132L143.678 83.4685C143.685 84.2677 144.34 84.9094 145.139 84.9017L152.596 84.8302C153.396 84.8225 154.038 84.1683 154.03 83.3691L153.983 78.5138C153.976 77.7146 153.321 77.0729 152.522 77.0805Z" fill="#F2F2F2"/>
<path d="M164.328 77.5786L156.871 77.6502C156.072 77.6578 155.43 78.3119 155.438 79.1111L155.484 83.9664C155.492 84.7657 156.146 85.4074 156.945 85.3997L164.403 85.3281C165.202 85.3204 165.844 84.6663 165.836 83.8671L165.79 79.0117C165.782 78.2125 165.128 77.5709 164.328 77.5786Z" fill="#BCC1B5"/>
<path d="M164.323 76.9633L156.865 77.0349C156.066 77.0426 155.424 77.6966 155.432 78.4959L155.478 83.3512C155.486 84.1504 156.14 84.7921 156.94 84.7845L164.397 84.7129C165.196 84.7052 165.838 84.0511 165.831 83.2518L165.784 78.3965C165.776 77.5973 165.122 76.9557 164.323 76.9633Z" fill="#F2F2F2"/>
<path d="M129.221 88.4301L121.764 88.5017C120.965 88.5094 120.323 89.1635 120.33 89.9628L120.377 94.8181C120.385 95.6173 121.039 96.259 121.838 96.2514L129.296 96.1798C130.095 96.1721 130.737 95.518 130.729 94.7187L130.683 89.8634C130.675 89.0642 130.021 88.4225 129.221 88.4301Z" fill="#BCC1B5"/>
<path d="M129.212 87.8169L121.754 87.8885C120.954 87.8961 120.313 88.5503 120.321 89.3495L120.367 94.2048C120.375 95.0041 121.029 95.6457 121.828 95.6381L129.286 95.5665C130.085 95.5588 130.727 94.9047 130.719 94.1054L130.672 89.2501C130.665 88.4509 130.011 87.8092 129.212 87.8169Z" fill="#F2F2F2"/>
<path d="M141.022 88.3149L133.564 88.3865C132.765 88.3942 132.123 89.0483 132.131 89.8475L132.178 94.7029C132.185 95.5021 132.839 96.1438 133.639 96.1361L141.096 96.0645C141.896 96.0569 142.537 95.4027 142.53 94.6035L142.483 89.7482C142.475 88.9489 141.821 88.3072 141.022 88.3149Z" fill="#BCC1B5"/>
<path d="M141.02 87.7016L133.562 87.7732C132.763 87.7809 132.121 88.435 132.129 89.2343L132.176 94.0896C132.183 94.8888 132.837 95.5305 133.637 95.5228L141.095 95.4512C141.894 95.4436 142.535 94.7894 142.528 93.9902L142.481 89.1349C142.473 88.3356 141.819 87.694 141.02 87.7016Z" fill="#F2F2F2"/>
<path d="M152.629 88.1997L145.172 88.2713C144.372 88.2789 143.731 88.9331 143.739 89.7323L143.785 94.5876C143.793 95.3869 144.447 96.0286 145.246 96.0209L152.703 95.9493C153.503 95.9416 154.145 95.2875 154.137 94.4883L154.09 89.6329C154.083 88.8337 153.428 88.192 152.629 88.1997Z" fill="#BCC1B5"/>
<path d="M152.624 87.5886L145.166 87.6602C144.367 87.6679 143.725 88.322 143.733 89.1212L143.779 93.9765C143.787 94.7758 144.441 95.4175 145.241 95.4098L152.698 95.3382C153.497 95.3305 154.139 94.6764 154.132 93.8772L154.085 89.0218C154.077 88.2226 153.423 87.5809 152.624 87.5886Z" fill="#F2F2F2"/>
<path d="M164.43 88.0903L156.973 88.1619C156.174 88.1696 155.532 88.8237 155.539 89.6229L155.586 94.4783C155.594 95.2775 156.248 95.9192 157.047 95.9115L164.505 95.8399C165.304 95.8322 165.946 95.1781 165.938 94.3789L165.892 89.5235C165.884 88.7243 165.23 88.0826 164.43 88.0903Z" fill="#BCC1B5"/>
<path d="M164.426 87.479L156.969 87.5506C156.17 87.5582 155.528 88.2124 155.535 89.0116L155.582 93.8669C155.59 94.6662 156.244 95.3079 157.043 95.3002L164.501 95.2286C165.3 95.2209 165.941 94.5668 165.934 93.7676L165.887 88.9122C165.88 88.113 165.226 87.4713 164.426 87.479Z" fill="#F2F2F2"/>
<path d="M129.323 98.9399L121.865 99.0115C121.066 99.0192 120.424 99.6733 120.432 100.473L120.478 105.328C120.486 106.127 121.14 106.769 121.939 106.761L129.397 106.689C130.196 106.682 130.838 106.028 130.83 105.228L130.784 100.373C130.776 99.5739 130.122 98.9322 129.323 98.9399Z" fill="#BCC1B5"/>
<path d="M129.317 98.3286L121.859 98.4002C121.06 98.4078 120.418 99.062 120.426 99.8612L120.473 104.716C120.48 105.516 121.134 106.157 121.933 106.15L129.391 106.078C130.191 106.07 130.832 105.416 130.824 104.617L130.778 99.7618C130.77 98.9626 130.116 98.3209 129.317 98.3286Z" fill="#F2F2F2"/>
<path d="M141.128 98.8344L133.67 98.906C132.87 98.9137 132.229 99.5678 132.237 100.367L132.283 105.222C132.291 106.022 132.945 106.663 133.744 106.656L141.202 106.584C142.001 106.576 142.643 105.922 142.635 105.123L142.588 100.268C142.581 99.4685 141.927 98.8268 141.128 98.8344Z" fill="#BCC1B5"/>
<path d="M141.117 98.2231L133.66 98.2947C132.861 98.3024 132.219 98.9565 132.227 99.7557L132.273 104.611C132.281 105.41 132.935 106.052 133.734 106.044L141.192 105.973C141.991 105.965 142.633 105.311 142.625 104.512L142.579 99.6564C142.571 98.8571 141.917 98.2154 141.117 98.2231Z" fill="#F2F2F2"/>
<path d="M152.731 98.7212L145.273 98.7928C144.474 98.8004 143.832 99.4546 143.84 100.254L143.887 105.109C143.894 105.908 144.548 106.55 145.348 106.542L152.805 106.471C153.604 106.463 154.246 105.809 154.239 105.01L154.192 100.154C154.184 99.3552 153.53 98.7135 152.731 98.7212Z" fill="#BCC1B5"/>
<path d="M152.725 98.1098L145.268 98.1814C144.468 98.1891 143.827 98.8432 143.834 99.6425L143.881 104.498C143.888 105.297 144.543 105.939 145.342 105.931L152.8 105.859C153.599 105.852 154.24 105.198 154.233 104.398L154.186 99.5431C154.178 98.7439 153.524 98.1022 152.725 98.1098Z" fill="#F2F2F2"/>
<path d="M164.534 98.6059L157.076 98.6775C156.277 98.6852 155.635 99.3393 155.643 100.139L155.69 104.994C155.697 105.793 156.352 106.435 157.151 106.427L164.608 106.356C165.408 106.348 166.05 105.694 166.042 104.895L165.995 100.039C165.988 99.2399 165.333 98.5983 164.534 98.6059Z" fill="#BCC1B5"/>
<path d="M164.528 97.9929L157.07 98.0645C156.271 98.0721 155.629 98.7263 155.637 99.5255L155.683 104.381C155.691 105.18 156.345 105.822 157.145 105.814L164.602 105.743C165.401 105.735 166.043 105.081 166.035 104.281L165.989 99.4261C165.981 98.6269 165.327 97.9852 164.528 97.9929Z" fill="#F2F2F2"/>
<path d="M129.422 109.459L121.965 109.531C121.165 109.539 120.524 110.193 120.531 110.992L120.578 115.847C120.586 116.647 121.24 117.288 122.039 117.281L129.497 117.209C130.296 117.201 130.938 116.547 130.93 115.748L130.883 110.893C130.876 110.093 130.222 109.452 129.422 109.459Z" fill="#BCC1B5"/>
<path d="M129.417 108.848L121.959 108.92C121.16 108.927 120.518 109.582 120.526 110.381L120.572 115.236C120.58 116.035 121.234 116.677 122.033 116.669L129.491 116.598C130.29 116.59 130.932 115.936 130.924 115.137L130.878 110.281C130.87 109.482 130.216 108.84 129.417 108.848Z" fill="#F2F2F2"/>
<path d="M141.223 109.348L133.765 109.42C132.966 109.427 132.325 110.082 132.332 110.881L132.379 115.736C132.387 116.535 133.04 117.177 133.84 117.169L141.298 117.098C142.097 117.09 142.738 116.436 142.731 115.637L142.684 110.781C142.676 109.982 142.022 109.34 141.223 109.348Z" fill="#BCC1B5"/>
<path d="M141.221 108.733L133.763 108.804C132.964 108.812 132.323 109.466 132.33 110.266L132.377 115.121C132.385 115.92 133.039 116.562 133.838 116.554L141.295 116.482C142.095 116.475 142.737 115.821 142.729 115.021L142.682 110.166C142.675 109.367 142.02 108.725 141.221 108.733Z" fill="#F2F2F2"/>
<path d="M152.831 109.237L145.373 109.308C144.574 109.316 143.932 109.97 143.94 110.769L143.986 115.625C143.994 116.424 144.648 117.066 145.448 117.058L152.905 116.986C153.704 116.979 154.346 116.324 154.339 115.525L154.292 110.67C154.284 109.871 153.63 109.229 152.831 109.237Z" fill="#BCC1B5"/>
<path d="M152.825 108.625L145.367 108.697C144.568 108.705 143.926 109.359 143.934 110.158L143.98 115.013C143.988 115.813 144.642 116.454 145.442 116.447L152.899 116.375C153.698 116.367 154.34 115.713 154.332 114.914L154.286 110.059C154.278 109.259 153.624 108.618 152.825 108.625Z" fill="#F2F2F2"/>
<path d="M164.629 109.124L157.172 109.195C156.373 109.203 155.731 109.857 155.739 110.656L155.785 115.511C155.793 116.311 156.447 116.952 157.246 116.945L164.704 116.873C165.503 116.865 166.145 116.211 166.137 115.412L166.09 110.557C166.083 109.758 165.429 109.116 164.629 109.124Z" fill="#BCC1B5"/>
<path d="M164.628 108.51L157.17 108.582C156.37 108.589 155.729 109.244 155.737 110.043L155.783 114.898C155.791 115.697 156.445 116.339 157.244 116.331L164.702 116.26C165.501 116.252 166.143 115.598 166.135 114.799L166.088 109.943C166.081 109.144 165.427 108.503 164.628 108.51Z" fill="#F2F2F2"/>
<path d="M163.061 61.4274L122.77 61.8138C121.322 61.8262 120.126 60.6545 120.11 59.2032L120.122 60.4694C120.134 61.9166 121.331 63.0925 122.782 63.0802L163.073 62.6937C164.521 62.6814 165.696 61.485 165.684 60.0337L165.672 58.7673C165.684 60.2145 164.512 61.4109 163.061 61.4274Z" fill="#EEA443"/>
<path d="M124.295 79.8019L126.737 79.7773V80.3405L125.249 83.1856L124.406 83.1938L125.899 80.431L124.303 80.4474L124.295 79.8019Z" fill="black"/>
<path d="M137.189 83.1235C136.436 83.1317 135.877 82.7493 135.869 82.1532C135.869 81.7379 136.05 81.4912 136.407 81.3227C136.144 81.1664 135.972 80.9486 135.968 80.5786C135.964 80.0564 136.432 79.637 137.152 79.6329C137.871 79.6247 138.348 80.0358 138.352 80.558C138.352 80.928 138.188 81.146 137.929 81.3104C138.274 81.4872 138.48 81.701 138.484 82.1121C138.488 82.7494 137.937 83.1194 137.185 83.1276L137.189 83.1235ZM137.16 80.2455C136.856 80.2455 136.675 80.4346 136.679 80.6484C136.679 80.891 136.872 81.0678 137.168 81.0678C137.464 81.0678 137.653 80.8869 137.649 80.6443C137.649 80.4305 137.464 80.2414 137.16 80.2455ZM137.176 81.6557C136.835 81.6557 136.593 81.8161 136.593 82.0833C136.593 82.3259 136.815 82.5068 137.185 82.5027C137.555 82.5027 137.769 82.3135 137.769 82.0709C137.769 81.8037 137.518 81.6516 137.176 81.6557Z" fill="black"/>
<path d="M148.783 83.021C148.29 83.0251 147.952 82.8648 147.665 82.6304L148.051 82.0589C148.302 82.2563 148.511 82.3468 148.795 82.3427C149.21 82.3427 149.433 82.0219 149.478 81.5656C149.313 81.7095 149.087 81.8041 148.791 81.8041C148.055 81.8123 147.574 81.4093 147.57 80.7145C147.562 80.0279 148.088 79.5181 148.853 79.5099C149.309 79.5058 149.576 79.6127 149.835 79.8676C150.082 80.1061 150.242 80.476 150.251 81.1503C150.263 82.2563 149.749 83.0128 148.783 83.021ZM148.881 80.1472C148.511 80.1472 148.306 80.3651 148.31 80.6734C148.31 80.9777 148.536 81.1873 148.906 81.1832C149.276 81.1832 149.486 80.9653 149.482 80.6693C149.482 80.3651 149.256 80.1472 148.881 80.1513V80.1472Z" fill="black"/>
<path d="M126.391 90.2695L126.412 92.3499H126.868L126.872 92.9502H126.416L126.424 93.6861L125.713 93.6943L125.705 92.9625L124.048 92.979L123.92 92.4527L125.762 90.2778H126.391V90.2695ZM125.688 91.3015L124.796 92.3664L125.696 92.3581L125.688 91.3015Z" fill="black"/>
<path d="M136.114 90.2042L138.199 90.1836L138.207 90.8373L136.764 90.8497L136.731 91.4376C136.867 91.4006 136.986 91.376 137.175 91.376C137.845 91.3677 138.367 91.6843 138.375 92.4572C138.384 93.1808 137.878 93.6413 137.097 93.6496C136.554 93.6537 136.155 93.4645 135.822 93.152L136.266 92.6094C136.525 92.8396 136.78 92.9711 137.081 92.9711C137.43 92.9711 137.648 92.7944 137.644 92.4901C137.644 92.1941 137.401 92.0255 137.039 92.0296C136.825 92.0296 136.632 92.0913 136.472 92.1612L136.036 91.8775L136.119 90.2042H136.114Z" fill="black"/>
<path d="M149.666 90.9631C149.439 90.7945 149.259 90.6958 148.971 90.6999C148.547 90.6999 148.338 91.0453 148.296 91.4935C148.465 91.3784 148.662 91.2714 148.999 91.2673C149.674 91.2591 150.196 91.6291 150.204 92.3403C150.213 93.0393 149.658 93.5245 148.922 93.5327C148.482 93.5368 148.178 93.4134 147.939 93.1791C147.688 92.9324 147.532 92.5706 147.524 91.8923C147.515 90.8398 147.98 90.0298 148.995 90.0216C149.456 90.0175 149.756 90.149 150.06 90.3833L149.674 90.9631H149.666ZM148.86 91.8882C148.49 91.8882 148.28 92.0978 148.284 92.3897C148.284 92.6858 148.51 92.8954 148.88 92.8913C149.25 92.8913 149.46 92.6775 149.456 92.3815C149.456 92.0896 149.23 91.884 148.86 91.8882Z" fill="black"/>
<path d="M159.221 90.8379L159.702 90.3446L160.549 91.1792L161.383 90.3281L161.86 90.7968L161.025 91.6479L161.873 92.4825L161.392 92.9758L160.544 92.1412L159.71 92.9923L159.233 92.5236L160.068 91.6726L159.221 90.8379Z" fill="black"/>
<path d="M125.693 100.736H126.203L126.236 104.149L125.5 104.157L125.475 101.493L124.883 101.645L124.723 101.036L125.693 100.736Z" fill="black"/>
<path d="M136.621 101.732L136.094 101.317C136.423 100.857 136.748 100.606 137.353 100.602C138.076 100.593 138.524 101.009 138.532 101.642C138.537 102.209 138.249 102.497 137.653 102.97L137.106 103.402L138.586 103.389V104.035L136.082 104.059V103.467L137.196 102.53C137.616 102.176 137.776 101.991 137.776 101.708C137.776 101.42 137.583 101.268 137.315 101.272C137.052 101.272 136.876 101.42 136.625 101.732H136.621Z" fill="black"/>
<path d="M147.935 101.189V100.548L150.221 100.528V101.091L149.374 101.917C149.838 101.991 150.287 102.23 150.295 102.863C150.299 103.508 149.838 103.981 149.082 103.989C148.469 103.993 148.046 103.755 147.754 103.414L148.264 102.92C148.498 103.179 148.745 103.323 149.086 103.319C149.366 103.319 149.563 103.155 149.563 102.896C149.563 102.616 149.32 102.46 148.893 102.464H148.584L148.465 101.991L149.267 101.169L147.935 101.181V101.189Z" fill="black"/>
<path d="M160.016 102.678L160.008 101.971L161.5 101.959L161.509 102.666L160.016 102.678Z" fill="black"/>
<path d="M125.545 114.966C124.636 114.974 124.036 114.218 124.024 113.231C124.015 112.24 124.612 111.463 125.52 111.455C126.429 111.447 127.029 112.203 127.042 113.19C127.05 114.181 126.453 114.958 125.545 114.966ZM125.516 112.129C125.064 112.134 124.784 112.586 124.788 113.215C124.792 113.84 125.093 114.3 125.545 114.292C125.997 114.288 126.277 113.827 126.273 113.207C126.269 112.586 125.969 112.121 125.516 112.129Z" fill="black"/>
<path d="M136.846 114.803L136.838 114.026L137.623 114.018L137.631 114.795L136.846 114.803Z" fill="black"/>
<path d="M148.602 111.776L149.292 111.768L149.301 112.639L150.176 112.631L150.185 113.301L149.309 113.309L149.317 114.181L148.627 114.189L148.618 113.318L147.742 113.326L147.734 112.656L148.61 112.647L148.602 111.776Z" fill="black"/>
<path d="M161.786 111.891L161.795 112.561L159.496 112.581L159.488 111.911L161.786 111.891ZM161.799 113.153L161.807 113.823L159.509 113.844L159.5 113.173L161.799 113.153Z" fill="black"/>
<path d="M157.58 54.9734C157.58 54.369 157.761 53.9044 158.127 53.5755C158.468 53.2507 158.88 53.0862 159.356 53.0821C159.85 53.078 160.269 53.2343 160.614 53.555C160.968 53.8757 161.153 54.3402 161.17 54.9446L161.199 57.8266C161.194 58.4269 161.018 58.8916 160.668 59.2205C160.327 59.5453 159.912 59.7138 159.418 59.7262C158.941 59.7262 158.526 59.5657 158.18 59.2451C157.81 58.9244 157.617 58.4639 157.605 57.8637L157.576 54.9775L157.58 54.9734ZM160.269 55.0063C160.244 54.3526 159.944 54.0195 159.364 54.0154C158.785 54.0318 158.489 54.369 158.485 55.0268L158.51 57.802C158.526 58.4639 158.826 58.7929 159.41 58.7929C159.99 58.7805 160.282 58.4434 160.294 57.7815L160.269 55.0063Z" fill="white"/>
<path d="M161.849 80.8379V81.4012L158.926 81.4299V80.8667L161.849 80.8379Z" fill="black"/>
<path d="M159.987 80.2462L159.979 79.4692L160.764 79.4609L160.772 80.2379L159.987 80.2462Z" fill="black"/>
<path d="M160.012 82.8576L160.004 82.0805L160.789 82.0723L160.797 82.8494L160.012 82.8576Z" fill="black"/>
<path d="M116.516 67.2426L169.195 66.6465" stroke="#032A36" stroke-width="0.960339" stroke-miterlimit="10"/>
<path d="M100.87 140.387C111.522 140.387 120.157 138.738 120.157 136.703C120.157 134.669 111.522 133.02 100.87 133.02C90.2189 133.02 81.584 134.669 81.584 136.703C81.584 138.738 90.2189 140.387 100.87 140.387Z" fill="#E69200"/>
<path d="M120.153 133.02H81.584V136.703H120.153V133.02Z" fill="#E69200"/>
<path d="M100.87 136.706C111.522 136.706 120.157 135.056 120.157 133.022C120.157 130.987 111.522 129.338 100.87 129.338C90.2189 129.338 81.584 130.987 81.584 133.022C81.584 135.056 90.2189 136.706 100.87 136.706Z" fill="#F4CA44"/>
<path d="M100.871 135.465C109.393 135.465 116.301 134.36 116.301 132.998C116.301 131.636 109.393 130.531 100.871 130.531C92.3498 130.531 85.4414 131.636 85.4414 132.998C85.4414 134.36 92.3498 135.465 100.871 135.465Z" fill="#EA9403"/>
<path d="M100.87 135.336C109.112 135.336 115.794 134.354 115.794 133.144C115.794 131.934 109.112 130.953 100.87 130.953C92.6272 130.953 85.9455 131.934 85.9455 133.144C85.9455 134.354 92.6272 135.336 100.87 135.336Z" fill="#FFD237"/>
<path d="M98.5537 134.864C109.205 134.864 117.84 133.214 117.84 131.18C117.84 129.145 109.205 127.496 98.5537 127.496C87.9021 127.496 79.2672 129.145 79.2672 131.18C79.2672 133.214 87.9021 134.864 98.5537 134.864Z" fill="#E69200"/>
<path d="M117.836 127.492H79.2673V131.176H117.836V127.492Z" fill="#E69200"/>
<path d="M98.5537 131.177C109.205 131.177 117.84 129.527 117.84 127.493C117.84 125.458 109.205 123.809 98.5537 123.809C87.9021 123.809 79.2672 125.458 79.2672 127.493C79.2672 129.527 87.9021 131.177 98.5537 131.177Z" fill="#F4CA44"/>
<path d="M98.5529 129.938C107.075 129.938 113.983 128.833 113.983 127.471C113.983 126.109 107.075 125.004 98.5529 125.004C90.0312 125.004 83.1228 126.109 83.1228 127.471C83.1228 128.833 90.0312 129.938 98.5529 129.938Z" fill="#EA9403"/>
<path d="M98.5533 129.811C106.796 129.811 113.477 128.83 113.477 127.619C113.477 126.409 106.796 125.428 98.5533 125.428C90.3108 125.428 83.6287 126.409 83.6287 127.619C83.6287 128.83 90.3108 129.811 98.5533 129.811Z" fill="#FFD237"/>
<path d="M101.638 130.954C112.29 130.954 120.924 129.304 120.924 127.27C120.924 125.235 112.29 123.586 101.638 123.586C90.9865 123.586 82.3516 125.235 82.3516 127.27C82.3516 129.304 90.9865 130.954 101.638 130.954Z" fill="#E69200"/>
<path d="M120.92 123.586H82.3516V127.27H120.92V123.586Z" fill="#E69200"/>
<path d="M101.638 127.27C112.29 127.27 120.924 125.621 120.924 123.586C120.924 121.552 112.29 119.902 101.638 119.902C90.9865 119.902 82.3516 121.552 82.3516 123.586C82.3516 125.621 90.9865 127.27 101.638 127.27Z" fill="#F4CA44"/>
<path d="M101.639 126.033C110.161 126.033 117.069 124.929 117.069 123.566C117.069 122.204 110.161 121.1 101.639 121.1C93.1173 121.1 86.209 122.204 86.209 123.566C86.209 124.929 93.1173 126.033 101.639 126.033Z" fill="#EA9403"/>
<path d="M101.639 125.902C109.882 125.902 116.564 124.921 116.564 123.711C116.564 122.501 109.882 121.52 101.639 121.52C93.397 121.52 86.7148 122.501 86.7148 123.711C86.7148 124.921 93.397 125.902 101.639 125.902Z" fill="#FFD237"/>
<path d="M98.5538 125.428C109.205 125.428 117.84 123.779 117.84 121.744C117.84 119.71 109.205 118.061 98.5538 118.061C87.9022 118.061 79.2673 119.71 79.2673 121.744C79.2673 123.779 87.9022 125.428 98.5538 125.428Z" fill="#E69200"/>
<path d="M117.836 118.057H79.2673V121.74H117.836V118.057Z" fill="#E69200"/>
<path d="M98.5536 121.741C109.205 121.741 117.84 120.091 117.84 118.057C117.84 116.022 109.205 114.373 98.5536 114.373C87.902 114.373 79.2671 116.022 79.2671 118.057C79.2671 120.091 87.902 121.741 98.5536 121.741Z" fill="#F4CA44"/>
<path d="M98.5529 120.504C107.075 120.504 113.983 119.4 113.983 118.037C113.983 116.675 107.075 115.57 98.5529 115.57C90.0312 115.57 83.1228 116.675 83.1228 118.037C83.1228 119.4 90.0312 120.504 98.5529 120.504Z" fill="#EA9403"/>
<path d="M98.5533 120.373C106.796 120.373 113.477 119.392 113.477 118.182C113.477 116.971 106.796 115.99 98.5533 115.99C90.3108 115.99 83.6287 116.971 83.6287 118.182C83.6287 119.392 90.3108 120.373 98.5533 120.373Z" fill="#FFD237"/>
<path d="M101.212 120.76C111.864 120.76 120.499 119.111 120.499 117.076C120.499 115.042 111.864 113.393 101.212 113.393C90.5607 113.393 81.9258 115.042 81.9258 117.076C81.9258 119.111 90.5607 120.76 101.212 120.76Z" fill="#E69200"/>
<path d="M120.494 113.393H81.9258V117.076H120.494V113.393Z" fill="#E69200"/>
<path d="M101.212 117.077C111.864 117.077 120.499 115.427 120.499 113.393C120.499 111.358 111.864 109.709 101.212 109.709C90.5609 109.709 81.926 111.358 81.926 113.393C81.926 115.427 90.5609 117.077 101.212 117.077Z" fill="#F4CA44"/>
<path d="M101.213 115.84C109.735 115.84 116.643 114.735 116.643 113.373C116.643 112.011 109.735 110.906 101.213 110.906C92.6916 110.906 85.7832 112.011 85.7832 113.373C85.7832 114.735 92.6916 115.84 101.213 115.84Z" fill="#EA9403"/>
<path d="M101.214 115.707C109.456 115.707 116.138 114.726 116.138 113.516C116.138 112.305 109.456 111.324 101.214 111.324C92.9712 111.324 86.2891 112.305 86.2891 113.516C86.2891 114.726 92.9712 115.707 101.214 115.707Z" fill="#FFD237"/>
<path d="M100.13 114.452C110.782 114.452 119.416 112.802 119.416 110.768C119.416 108.733 110.782 107.084 100.13 107.084C89.4787 107.084 80.8438 108.733 80.8438 110.768C80.8438 112.802 89.4787 114.452 100.13 114.452Z" fill="#E69200"/>
<path d="M119.416 107.084H80.8477V110.768H119.416V107.084Z" fill="#E69200"/>
<path d="M100.13 110.77C110.782 110.77 119.416 109.121 119.416 107.086C119.416 105.052 110.782 103.402 100.13 103.402C89.4787 103.402 80.8438 105.052 80.8438 107.086C80.8438 109.121 89.4787 110.77 100.13 110.77Z" fill="#F4CA44"/>
<path d="M100.131 109.531C108.653 109.531 115.561 108.427 115.561 107.064C115.561 105.702 108.653 104.598 100.131 104.598C91.6095 104.598 84.7012 105.702 84.7012 107.064C84.7012 108.427 91.6095 109.531 100.131 109.531Z" fill="#EA9403"/>
<path d="M100.132 109.4C108.374 109.4 115.056 108.419 115.056 107.209C115.056 105.999 108.374 105.018 100.132 105.018C91.8892 105.018 85.207 105.999 85.207 107.209C85.207 108.419 91.8892 109.4 100.132 109.4Z" fill="#FFD237"/>
<path d="M97.4682 109.18C108.12 109.18 116.755 107.531 116.755 105.496C116.755 103.462 108.12 101.812 97.4682 101.812C86.8165 101.812 78.1816 103.462 78.1816 105.496C78.1816 107.531 86.8165 109.18 97.4682 109.18Z" fill="#E69200"/>
<path d="M116.751 101.812H78.1816V105.496H116.751V101.812Z" fill="#E69200"/>
<path d="M97.4682 105.496C108.12 105.496 116.755 103.847 116.755 101.813C116.755 99.7782 108.12 98.1289 97.4682 98.1289C86.8165 98.1289 78.1816 99.7782 78.1816 101.813C78.1816 103.847 86.8165 105.496 97.4682 105.496Z" fill="#F4CA44"/>
<path d="M97.4688 104.26C105.99 104.26 112.899 103.155 112.899 101.793C112.899 100.431 105.99 99.3262 97.4688 99.3262C88.947 99.3262 82.0391 100.431 82.0391 101.793C82.0391 103.155 88.947 104.26 97.4688 104.26Z" fill="#EA9403"/>
<path d="M97.4691 104.127C105.712 104.127 112.393 103.146 112.393 101.936C112.393 100.725 105.712 99.7441 97.4691 99.7441C89.2267 99.7441 82.5449 100.725 82.5449 101.936C82.5449 103.146 89.2267 104.127 97.4691 104.127Z" fill="#FFD237"/>
<path opacity="0.3" d="M117.804 121.588V118.945C119.49 118.398 120.46 117.761 120.46 117.078V113.394C120.46 112.827 119.79 112.293 118.598 111.812C119.104 111.483 119.383 111.133 119.383 110.771V107.088C119.383 106.405 118.409 105.768 116.723 105.221V101.813C116.723 99.7776 108.089 98.1289 97.4365 98.1289C86.7839 98.1289 78.1504 99.7776 78.1504 101.813V105.496C78.1504 106.179 79.1247 106.816 80.8103 107.363V110.771C80.8103 111.339 81.4806 111.873 82.6729 112.354C82.1672 112.683 81.8876 113.033 81.8876 113.394V116.194C80.2019 116.741 79.2316 117.378 79.2316 118.061V121.745C79.2316 122.481 80.3664 123.167 82.3152 123.743V125.498C80.3664 126.074 79.2316 126.76 79.2316 127.496V131.18C79.2316 131.817 80.0741 132.414 81.5583 132.936C81.5583 132.965 81.5463 132.993 81.5463 133.022V136.706C81.5463 138.741 90.1802 140.39 100.833 140.39C111.485 140.39 120.119 138.741 120.119 136.706V133.022C120.119 132.385 119.276 131.789 117.792 131.267C117.792 131.238 117.804 131.209 117.804 131.18V129.268C119.753 128.693 120.888 128.006 120.888 127.27V123.586C120.888 122.851 119.753 122.164 117.804 121.588Z" fill="#FCDD41"/>
<path d="M122.007 144.997C130.533 144.997 137.445 143.678 137.445 142.049C137.445 140.421 130.533 139.102 122.007 139.102C113.481 139.102 106.568 140.421 106.568 142.049C106.568 143.678 113.481 144.997 122.007 144.997Z" fill="#E69200"/>
<path d="M137.441 139.098H106.568V142.046H137.441V139.098Z" fill="#E69200"/>
<path d="M122.007 142.046C130.533 142.046 137.445 140.726 137.445 139.098C137.445 137.47 130.533 136.15 122.007 136.15C113.481 136.15 106.568 137.47 106.568 139.098C106.568 140.726 113.481 142.046 122.007 142.046Z" fill="#F4CA44"/>
<path d="M122.007 141.054C128.828 141.054 134.357 140.171 134.357 139.081C134.357 137.991 128.828 137.107 122.007 137.107C115.186 137.107 109.656 137.991 109.656 139.081C109.656 140.171 115.186 141.054 122.007 141.054Z" fill="#EA9403"/>
<path d="M122.006 140.946C128.605 140.946 133.954 140.162 133.954 139.195C133.954 138.228 128.605 137.443 122.006 137.443C115.408 137.443 110.059 138.228 110.059 139.195C110.059 140.162 115.408 140.946 122.006 140.946Z" fill="#FFD237"/>
<path d="M120.153 140.573C128.679 140.573 135.592 139.254 135.592 137.626C135.592 135.998 128.679 134.678 120.153 134.678C111.627 134.678 104.715 135.998 104.715 137.626C104.715 139.254 111.627 140.573 120.153 140.573Z" fill="#E69200"/>
<path d="M135.587 134.674H104.715V137.622H135.587V134.674Z" fill="#E69200"/>
<path d="M120.153 137.623C128.679 137.623 135.592 136.303 135.592 134.675C135.592 133.047 128.679 131.727 120.153 131.727C111.627 131.727 104.715 133.047 104.715 134.675C104.715 136.303 111.627 137.623 120.153 137.623Z" fill="#F4CA44"/>
<path d="M120.151 136.63C126.972 136.63 132.502 135.747 132.502 134.657C132.502 133.567 126.972 132.684 120.151 132.684C113.33 132.684 107.801 133.567 107.801 134.657C107.801 135.747 113.33 136.63 120.151 136.63Z" fill="#EA9403"/>
<path d="M120.153 136.524C126.751 136.524 132.1 135.74 132.1 134.773C132.1 133.806 126.751 133.021 120.153 133.021C113.554 133.021 108.205 133.806 108.205 134.773C108.205 135.74 113.554 136.524 120.153 136.524Z" fill="#FFD237"/>
<path d="M122.624 137.446C131.15 137.446 138.062 136.127 138.062 134.499C138.062 132.871 131.15 131.551 122.624 131.551C114.098 131.551 107.186 132.871 107.186 134.499C107.186 136.127 114.098 137.446 122.624 137.446Z" fill="#E69200"/>
<path d="M138.058 131.547H107.186V134.495H138.058V131.547Z" fill="#E69200"/>
<path d="M122.624 134.493C131.15 134.493 138.062 133.174 138.062 131.545C138.062 129.917 131.15 128.598 122.624 128.598C114.098 128.598 107.186 129.917 107.186 131.545C107.186 133.174 114.098 134.493 122.624 134.493Z" fill="#F4CA44"/>
<path d="M122.624 133.504C129.445 133.504 134.975 132.62 134.975 131.53C134.975 130.44 129.445 129.557 122.624 129.557C115.803 129.557 110.273 130.44 110.273 131.53C110.273 132.62 115.803 133.504 122.624 133.504Z" fill="#EA9403"/>
<path d="M122.624 133.396C129.222 133.396 134.571 132.612 134.571 131.644C134.571 130.677 129.222 129.893 122.624 129.893C116.025 129.893 110.676 130.677 110.676 131.644C110.676 132.612 116.025 133.396 122.624 133.396Z" fill="#FFD237"/>
<path d="M120.153 133.017C128.679 133.017 135.591 131.697 135.591 130.069C135.591 128.441 128.679 127.121 120.153 127.121C111.627 127.121 104.715 128.441 104.715 130.069C104.715 131.697 111.627 133.017 120.153 133.017Z" fill="#E69200"/>
<path d="M135.587 127.121H104.715V130.069H135.587V127.121Z" fill="#E69200"/>
<path d="M120.153 130.069C128.679 130.069 135.592 128.75 135.592 127.122C135.592 125.494 128.679 124.174 120.153 124.174C111.627 124.174 104.715 125.494 104.715 127.122C104.715 128.75 111.627 130.069 120.153 130.069Z" fill="#F4CA44"/>
<path d="M120.151 129.076C126.972 129.076 132.502 128.192 132.502 127.102C132.502 126.012 126.972 125.129 120.151 125.129C113.33 125.129 107.801 126.012 107.801 127.102C107.801 128.192 113.33 129.076 120.151 129.076Z" fill="#EA9403"/>
<path d="M120.153 128.97C126.751 128.97 132.1 128.186 132.1 127.218C132.1 126.251 126.751 125.467 120.153 125.467C113.554 125.467 108.205 126.251 108.205 127.218C108.205 128.186 113.554 128.97 120.153 128.97Z" fill="#FFD237"/>
<path d="M122.278 129.284C130.804 129.284 137.716 127.965 137.716 126.337C137.716 124.709 130.804 123.389 122.278 123.389C113.752 123.389 106.84 124.709 106.84 126.337C106.84 127.965 113.752 129.284 122.278 129.284Z" fill="#E69200"/>
<path d="M137.716 123.389H106.844V126.337H137.716V123.389Z" fill="#E69200"/>
<path d="M122.278 126.337C130.804 126.337 137.716 125.017 137.716 123.389C137.716 121.761 130.804 120.441 122.278 120.441C113.752 120.441 106.84 121.761 106.84 123.389C106.84 125.017 113.752 126.337 122.278 126.337Z" fill="#F4CA44"/>
<path d="M122.276 125.345C129.097 125.345 134.627 124.462 134.627 123.372C134.627 122.282 129.097 121.398 122.276 121.398C115.455 121.398 109.926 122.282 109.926 123.372C109.926 124.462 115.455 125.345 122.276 125.345Z" fill="#EA9403"/>
<path d="M122.278 125.239C128.876 125.239 134.225 124.455 134.225 123.488C134.225 122.52 128.876 121.736 122.278 121.736C115.679 121.736 110.33 122.52 110.33 123.488C110.33 124.455 115.679 125.239 122.278 125.239Z" fill="#FFD237"/>
<path opacity="0.3" d="M135.501 129.47V127.357C136.85 126.917 137.627 126.407 137.627 125.864V122.917C137.627 121.288 130.716 119.969 122.189 119.969C113.662 119.969 106.751 121.288 106.751 122.917V125.157C105.402 125.597 104.625 126.107 104.625 126.65V129.598C104.625 130.185 105.534 130.736 107.092 131.197V132.603C105.534 133.063 104.625 133.614 104.625 134.202V137.15C104.625 137.66 105.299 138.137 106.488 138.556C106.488 138.581 106.479 138.601 106.479 138.626V141.574C106.479 143.202 113.39 144.522 121.917 144.522C130.444 144.522 137.356 143.202 137.356 141.574V138.626C137.356 138.116 136.681 137.639 135.493 137.22C135.493 137.195 135.501 137.175 135.501 137.15V135.621C137.059 135.16 137.968 134.609 137.968 134.021V131.073C137.968 130.486 137.059 129.935 135.501 129.474V129.47Z" fill="#FCDD41"/>
<path d="M54.1426 77.7527C54.3605 81.5064 54.1876 82.5753 55.2114 87.3404C56.8025 94.7203 56.6219 92.9812 56.774 94.0173C57.4771 95.8386 59.5573 103.843 60.3261 105.381C60.3713 108.502 60.84 110.956 61.7486 114.755C62.834 119.294 65.9872 126.995 67.5824 131.209L70.7318 130.456C70.2713 122.053 69.0955 110.516 67.303 97.8203C66.1559 89.688 67.2621 82.1437 66.0081 75.5449L54.1426 77.7486V77.7527Z" fill="#1E2D54"/>
<path d="M47.3061 76.9746C46.5249 80.679 46.3933 84.7451 46.2617 89.6171C46.0603 97.1656 47.3428 100.611 47.2318 101.655C47.5442 103.592 47.9308 105.413 48.3913 107.086C47.5814 110.133 47.1085 113.767 47.1085 117.677C47.1085 122.344 47.3881 127.627 48.0665 132.096H51.9065C53.6949 123.815 55.5165 112.32 56.9473 99.5583C57.8641 91.3808 58.5096 83.6885 58.8837 76.9787H47.2976L47.3061 76.9746Z" fill="#153F5E"/>
<path d="M58.6241 84.6441C62.9383 84.6441 66.4357 81.9732 66.4357 78.6785C66.4357 75.3838 62.9383 72.7129 58.6241 72.7129C54.3099 72.7129 50.8125 75.3838 50.8125 78.6785C50.8125 81.9732 54.3099 84.6441 58.6241 84.6441Z" fill="#153F5E"/>
<path d="M51.0661 134.79H48.3652V130.811H51.5431L51.0661 134.79Z" fill="#EA9F88"/>
<path d="M52.226 138.249V137.977C52.226 137.694 52.1848 137.426 52.1107 137.209L51.4447 134.544C51.4447 134.544 50.8323 134.853 50.2361 134.725C49.6359 134.598 49.6689 133.73 49.0316 133.303H48.7438C48.7438 133.303 48.1559 133.5 47.7488 134.368C47.4528 134.997 47.3498 136.263 47.1606 136.678C46.9427 137.151 46.721 137.603 46.5483 137.944C46.3551 138.08 46.2027 138.286 46.1163 138.532C45.8861 138.532 45.841 138.541 46.1123 138.553C46.0712 138.685 46.0425 138.824 46.0425 138.976V139.552H52.4356V138.976C52.4356 138.701 52.3535 138.45 52.222 138.249H52.226ZM49.9238 137.772V137.78H49.7387V137.772H49.9238Z" fill="#16415D"/>
<path d="M71.2991 134.087L69.0503 134.777L67.8867 130.974L70.5346 130.16L71.2991 134.087Z" fill="#EA9F88"/>
<path d="M66.7435 136.877L67.7175 134.13C67.7175 134.13 69.1567 134.451 70.0366 134.315C70.9164 134.184 70.9121 133.382 71.2616 132.852H72.4335C72.4335 132.852 73.9712 135.582 76.989 136.26H79.2502C79.7765 136.26 80.2082 136.893 80.2082 137.67V138.295H70.6983L70.2173 137.46H69.9503V138.295H66.5664V137.67C66.5664 137.378 66.6281 137.103 66.735 136.877H66.7435Z" fill="#16415D"/>
<path d="M52.4824 41.7752C53.4527 42.2398 54.5505 42.507 55.7181 42.507C57.0543 42.507 58.3042 42.1576 59.365 41.5614C58.9456 40.8625 58.6949 39.9539 58.6949 38.9589C58.6949 37.6022 59.1635 36.4017 59.8789 35.6863V33.9883H55.5575C55.3684 37.154 54.201 39.9333 52.4824 41.7834V41.7752Z" fill="#EA9F86"/>
<path d="M62.0704 31.3942C62.2513 28.9192 59.5541 28.6355 57.5724 28.4916C56.2979 28.397 55.1468 28.4957 54.3122 29.7537C54.1025 29.4536 53.6421 29.9881 53.3173 29.9758C52.643 29.9511 52.2192 30.1608 52.1822 31.1146C52.1452 32.0644 52.5113 33.3964 53.1856 33.4252C53.2185 33.4252 53.2516 33.417 53.2804 33.417C53.305 34.194 53.0172 34.7861 53.3502 35.4192C54.0039 36.6609 55.636 37.6969 56.816 38.0382C60.6642 39.1523 61.8851 33.8775 62.066 31.4024L62.0704 31.3942Z" fill="#EBB190"/>
<path d="M64.7629 28.8859C64.9726 26.896 64.3559 25.6174 61.1655 25.2392C59.044 24.9884 55.4508 24.9678 53.1772 25.4201C50.8584 25.8806 51.1872 27.6855 51.2777 28.4666C51.4997 30.3949 52.0711 33.2358 53.0126 33.54C53.2305 33.6099 53.4154 33.5647 53.5799 33.4455C53.2674 33.2523 53.0003 32.8945 52.8729 32.4423C52.6632 31.6817 52.9303 30.9622 53.4771 30.8307C53.9253 30.7238 54.4105 31.0485 54.69 31.583C55.4095 30.2263 56.4909 28.8818 59.1592 30.1152C62.0782 31.4597 64.5492 30.8758 64.7589 28.8859H64.7629Z" fill="#1C3054"/>
<path d="M54.2062 57.7556C60.2581 57.7556 66.0224 57.4389 71.2644 56.8633C70.9766 49.393 66.4458 43.1479 60.2664 41.0428C59.3044 41.8816 57.8735 42.4119 56.2783 42.4119C54.5145 42.4119 52.9561 41.7623 52.0063 40.7715C45.2925 42.5764 40.2809 49.1957 40.0918 57.1512C44.5197 57.5418 49.2683 57.7556 54.2102 57.7556H54.2062Z" fill="#729EDB"/>
<path d="M70.9231 56.5271L71.26 62.3693C68.1024 63.1176 66.08 64.4456 65.4057 66.5054C64.2093 65.198 63.5268 63.0025 63.35 59.9272C63.3089 59.2159 63.2966 58.1182 63.35 57.448L70.9231 56.5312V56.5271Z" fill="#EA9F87"/>
<path d="M65.3891 66.6193C65.94 63.1986 68.123 62.5531 70.8941 62.2283L83.072 61.5253C83.4009 60.925 84.2108 60.4275 85.2674 60.1726C85.4607 60.1274 85.7073 60.407 85.7155 60.5961C85.7649 61.4554 85.2099 62.257 86.8955 62.2077C87.6726 62.1871 89.2225 62.0967 90.0489 61.9405C90.2586 61.8994 90.9697 61.9117 90.5339 62.5408C89.8473 63.5316 88.1825 64.8431 86.3776 64.8924C85.2346 64.9253 84.3463 64.4813 83.7502 63.8852C79.8567 65.6284 72.7564 67.6019 68.7232 67.7211C67.3705 67.7622 66.2604 67.3922 65.3847 66.6193H65.3891Z" fill="#EFB290"/>
<path d="M47.6256 78.1087C47.8476 78.1087 65.6908 78.1087 66.1143 78.1087C66.5378 78.1087 66.4553 76.9288 66.3978 76.7602C66.0442 75.6995 65.6785 75.4117 65.4442 74.2112C65.0701 72.3035 64.8604 70.2313 64.8604 68.0235C64.8604 61.0548 66.9571 54.4683 69.7117 50.5831C67.8863 46.0565 64.3711 42.5577 60.05 41.0858C59.088 41.9245 57.6571 42.4549 56.0619 42.4549C54.2981 42.4549 52.7401 41.8053 51.7903 40.8145C46.7292 42.1753 42.6302 46.2785 40.8418 51.6233C44.8381 53.387 47.8556 61.4536 47.8556 71.1482C47.8556 72.6653 47.7774 74.1372 47.6376 75.5556C47.5595 76.3285 47.2347 76.6615 47.1935 76.937C47.0825 77.7058 47.4116 78.1087 47.6336 78.1087H47.6256Z" fill="#729EDB"/>
<path d="M48.13 56.5818L47.912 63.5793C44.4585 64.2577 42.1645 65.7049 41.2395 68.1183C40.0883 66.4738 39.5786 63.8096 39.6937 60.1217C39.7225 59.2666 39.8169 57.9592 39.9402 57.1616L48.13 56.5818Z" fill="#EA9F87"/>
<path d="M41.2109 68.2552C42.136 64.2096 44.5411 63.5888 47.5342 63.3873L60.6247 63.3791C61.04 62.6843 61.9527 62.1456 63.108 61.9154C63.3218 61.8743 63.5522 62.2279 63.5481 62.4499C63.5152 63.4777 62.8449 64.3987 64.6498 64.4563C65.4844 64.481 67.1497 64.481 68.0501 64.3494C68.2762 64.3165 69.0369 64.3781 68.5106 65.1017C67.676 66.2406 65.7684 67.6878 63.8319 67.6262C62.6067 67.5891 61.6978 66.9971 61.1222 66.2447C56.7847 68.0578 48.9937 69.9326 44.6727 69.797C43.2214 69.7517 42.0742 69.2337 41.215 68.2511L41.2109 68.2552Z" fill="#EFB290"/>
<path d="M87.9553 5.5345V9.62118H88.8394V5.5345C88.8394 5.23848 88.642 5 88.3994 5C88.1568 5 87.9593 5.23848 87.9593 5.5345H87.9553Z" fill="#E5803C"/>
<path d="M87.9571 23.3947C87.9571 23.6907 88.1546 23.9292 88.3972 23.9292C88.6398 23.9292 88.8368 23.6907 88.8368 23.3947V19.5547H87.9531V23.3947H87.9571Z" fill="#E5803C"/>
<path d="M78.9316 14.4635C78.9316 14.7061 79.17 14.9034 79.466 14.9034H83.5529V14.0195H79.466C79.17 14.0195 78.9316 14.2169 78.9316 14.4594V14.4635Z" fill="#E5803C"/>
<path d="M97.3261 14.0256H93.4861V14.9096H97.3261C97.6221 14.9096 97.8605 14.7123 97.8605 14.4697C97.8605 14.2271 97.6221 14.0298 97.3261 14.0298V14.0256Z" fill="#E5803C"/>
<path d="M81.7683 8.46356L84.6584 11.3538L85.2835 10.7289L82.3931 7.83863C82.1834 7.62895 81.8752 7.60015 81.7025 7.77283C81.5298 7.94551 81.5587 8.25388 81.7683 8.46356Z" fill="#E5803C"/>
<path d="M94.3974 21.0925C94.6071 21.3022 94.9154 21.331 95.088 21.1583C95.2607 20.9857 95.2319 20.6773 95.0222 20.4676L92.3048 17.75L91.6797 18.3749L94.3974 21.0925Z" fill="#E5803C"/>
<path d="M81.7025 21.1572C81.8752 21.3299 82.1834 21.3011 82.3931 21.0914L85.2835 18.2011L84.6584 17.5762L81.7683 20.4665C81.5587 20.6762 81.5298 20.9845 81.7025 21.1572Z" fill="#E5803C"/>
<path d="M94.3974 7.83863L91.6797 10.5562L92.3048 11.1812L95.0222 8.46356C95.2319 8.25388 95.2607 7.94551 95.088 7.77283C94.9154 7.60015 94.6071 7.62895 94.3974 7.83863Z" fill="#E5803C"/>
<path d="M101.017 71.1573H97.2754V68.9167H101.017V64.9492H103.315V68.9167H107.056V71.1573H103.315V75.1249H101.017V71.1573Z" fill="#729EDB"/>
<defs>
<linearGradient id="paint0_linear_248_54564" x1="100.374" y1="5.48999" x2="100.374" y2="143.294" gradientUnits="userSpaceOnUse">
<stop stop-color="#F6FBFF"/>
<stop offset="1" stop-color="#EAF0F9"/>
</linearGradient>
</defs>
</svg>
