<svg width="195" height="127" viewBox="0 0 195 127" fill="none" xmlns="http://www.w3.org/2000/svg">
<path opacity="0.3" d="M140.459 126.032C149.913 126.032 157.578 124.712 157.578 123.085C157.578 121.457 149.913 120.138 140.459 120.138C131.004 120.138 123.34 121.457 123.34 123.085C123.34 124.712 131.004 126.032 140.459 126.032Z" fill="#C7D0DD"/>
<path opacity="0.3" d="M80.8777 123.641C90.3322 123.641 97.9966 122.322 97.9966 120.694C97.9966 119.066 90.3322 117.747 80.8777 117.747C71.4232 117.747 63.7588 119.066 63.7588 120.694C63.7588 122.322 71.4232 123.641 80.8777 123.641Z" fill="#C7D0DD"/>
<path d="M109.427 88.502H91.9006C90.8116 88.502 89.9287 89.3856 89.9287 90.4756V91.7745C89.9287 92.8646 90.8116 93.7483 91.9006 93.7483H109.427C110.516 93.7483 111.399 92.8646 111.399 91.7745V90.4756C111.399 89.3856 110.516 88.502 109.427 88.502Z" fill="#528BBF"/>
<path d="M112.756 117.253L99.4942 116.209V114.016L112.756 116.315V117.253Z" fill="#528BBF"/>
<path d="M86.2354 117.253L99.4931 116.209V114.016L86.2354 116.315V117.253Z" fill="#528BBF"/>
<path d="M112.857 120.804C113.635 120.804 114.265 120.148 114.265 119.34C114.265 118.532 113.635 117.876 112.857 117.876C112.08 117.876 111.45 118.532 111.45 119.34C111.45 120.148 112.08 120.804 112.857 120.804Z" fill="#528BBF"/>
<path d="M86.2354 120.596C87.0126 120.596 87.6426 119.941 87.6426 119.133C87.6426 118.324 87.0126 117.669 86.2354 117.669C85.4581 117.669 84.8281 118.324 84.8281 119.133C84.8281 119.941 85.4581 120.596 86.2354 120.596Z" fill="#528BBF"/>
<path d="M112.554 117.214H112.045V118.194H112.554V117.214Z" fill="#528BBF"/>
<path d="M87.0203 117.006H86.5107V117.986H87.0203V117.006Z" fill="#528BBF"/>
<path d="M99.4932 120.804C100.27 120.804 100.9 120.148 100.9 119.34C100.9 118.532 100.27 117.876 99.4932 117.876C98.7159 117.876 98.0859 118.532 98.0859 119.34C98.0859 120.148 98.7159 120.804 99.4932 120.804Z" fill="#528BBF"/>
<path d="M99.7478 116.806H99.2383V118.371H99.7478V116.806Z" fill="#528BBF"/>
<path d="M100.298 115.637H98.6904V116.994H100.298V115.637Z" fill="#528BBF"/>
<path d="M102.709 92.0105H96.2801V103.932H102.709V92.0105Z" fill="#528BBF"/>
<path d="M100.599 101.517H98.3885V114.153H100.599V101.517Z" fill="#528BBF"/>
<path d="M66.6943 119.447L74.299 120.016L75.3575 120.098L76.6863 120.196L77.0431 115.421L73.2604 115.178L71.2453 116.869L66.7414 118.831L66.6943 119.447Z" fill="#19132E"/>
<path d="M73.6635 113.445L73.5371 115.136L76.9107 115.388L77.0371 113.698L73.6635 113.445Z" fill="#F3C6A0"/>
<path d="M81.5283 120.553L89.1487 120.745L90.211 120.769L91.544 120.804L91.6615 116.017L87.8747 115.962L85.9422 117.751L81.544 119.933L81.5283 120.553Z" fill="#19132E"/>
<path d="M88.4934 114.312L88.4512 116.007L91.8332 116.091L91.8754 114.397L88.4934 114.312Z" fill="#F3C6A0"/>
<path d="M83.1974 98.3508C84.9654 95.0194 94.0405 96.534 100.438 91.0836C106.836 85.6331 90.4928 84.9111 90.4928 84.9111C90.4928 84.9111 81.0926 90.1183 79.3991 90.6009C77.7056 91.0836 76.7804 92.971 76.2003 96.071C75.6201 99.1709 71.2607 115.173 71.2607 115.173L78.1094 115.789C78.1094 115.789 81.4256 101.682 83.1936 98.3508H83.1974Z" fill="#314572"/>
<path d="M94.3194 97.1618C95.4445 93.5595 103.206 95.0389 108.491 88.5016C113.775 81.9642 98.2552 86.355 98.2552 86.355C98.2552 86.355 90.4936 90.4086 88.9217 91.1973C87.3458 91.986 86.7852 94.0108 86.7852 97.1657V116.193H92.2966C92.2966 116.193 93.1983 100.768 94.3194 97.1657V97.1618Z" fill="#41587F"/>
<path d="M110.067 86.1326C110.067 86.1326 108.875 89.3346 99.6866 88.2986C90.498 87.2588 89.4902 84.771 89.4902 84.771C89.4902 84.771 90.2746 69.4713 91.1762 64.7428C92.0778 60.0144 96.5739 58.4369 96.5739 58.4369L100.447 60.038L104.222 58.4369C104.222 58.4369 109.62 58.2839 110.968 63.9148C112.317 69.5458 110.067 86.1326 110.067 86.1326Z" fill="#528BBF"/>
<path d="M99.6265 88.3883C99.6892 88.3962 99.748 88.4 99.8068 88.4078C102.359 80.4578 104.158 67.9403 104.158 58.5305C104.158 58.5305 104.256 59.5783 100.242 60.1315C96.228 60.6848 96.91 58.5305 96.91 58.5305C94.7579 63.1177 95.1027 79.2218 93.1309 87.0894C94.6283 87.5839 96.7178 88.0587 99.6265 88.3883Z" fill="#ECF5FC"/>
<path d="M89.8435 67.8456L89.4592 72.8998L82.6856 79.4686C82.5954 80.6419 84.5867 81.9838 85.7588 82.0702L89.7337 81.5404C89.961 77.6399 90.4276 70.3727 90.9725 66.123C90.3492 66.4566 89.8984 67.0922 89.8435 67.8456Z" fill="#6DA2C9"/>
<path d="M100.864 80.226L99.8253 78.1855L93.165 80.1201C92.3457 79.916 91.2955 79.7943 90.1469 79.7943C87.5165 79.7943 85.3877 80.434 85.3877 81.2227C85.3877 82.0114 87.5205 82.651 90.1469 82.651C91.856 82.651 93.3532 82.3803 94.1921 81.9761L100.86 80.226H100.864Z" fill="#F3C6A0"/>
<path d="M112.878 75.663C112.878 73.3008 112.317 66.0924 110.965 63.9146C109.616 61.7367 110.13 63.8832 108.433 63.9617C106.735 64.0402 105.406 65.496 105.489 67.199C105.489 67.199 107.041 75.145 105.912 76.2477C104.783 77.3503 95.4492 78.1391 95.4492 78.1391V83.6562C95.4492 83.6562 109.436 81.1684 110.706 80.6112C111.98 80.054 112.882 77.523 112.878 75.663Z" fill="#6DA2C9"/>
<path d="M86.0601 81.9018C85.8327 81.1053 85.3271 80.3793 84.6058 79.775C83.9237 79.6612 83.1358 79.5945 82.3008 79.5945C79.6704 79.5945 77.542 80.2341 77.542 81.0229C77.542 81.8116 79.6744 82.4512 82.3008 82.4512C83.8296 82.4512 85.1898 82.2354 86.0601 81.8979V81.9018Z" fill="#F3C6A0"/>
<path d="M97.293 55.2458V59.4563C97.293 59.4563 100.578 63.0624 103.593 59.5387L103.33 55.2458H97.293Z" fill="#E8BEA9"/>
<path d="M100.509 58.1269C100.431 58.1386 100.349 58.1465 100.266 58.1544C99.255 58.2289 98.3222 57.9424 97.5656 57.3264C97.4951 57.2714 97.4951 57.1734 97.5656 57.1106C97.6323 57.0478 97.742 57.04 97.8125 57.0988C98.4985 57.66 99.3454 57.9189 100.259 57.8483C101.211 57.7776 102.027 57.3303 102.677 56.5181C102.732 56.4474 102.842 56.4278 102.92 56.4749C102.999 56.522 103.014 56.6162 102.96 56.6868C102.305 57.4991 101.466 57.9934 100.517 58.1269H100.509Z" fill="#BA745D"/>
<path d="M96.0686 50.4588C95.6726 53.8923 96.1195 57.6084 98.8126 57.8478C101.615 58.0989 104.571 56.5019 104.967 53.0684C105.363 49.6348 103.521 46.3897 100.855 45.8247C98.1893 45.2596 96.4645 47.0253 96.0686 50.4588Z" fill="#F3C6A0"/>
<path d="M95.8873 47.532C95.7501 47.1788 95.793 46.7551 96.091 46.2921C96.1498 46.1979 96.2203 46.1037 96.3027 46.0017C96.6398 45.5661 97.134 45.1619 97.5809 44.8088C97.5966 44.8088 97.6123 44.8088 97.628 44.8127C99.8428 44.126 102.403 43.9573 104.406 44.9383C105.386 45.4013 105.93 46.0998 106.181 46.9042C106.699 47.9872 106.546 49.7334 106.26 51.0479C106.185 51.405 106.099 51.7307 106.013 52.0015C105.625 53.2611 105.123 54.972 104.092 55.9255C103.876 56.0982 103.532 56.2747 103.214 56.2354C103.198 56.2354 103.183 56.2316 103.167 56.2277C103.202 56.1688 103.241 56.1099 103.276 56.0471C103.378 55.6664 103.355 55.2348 103.355 54.8581C103.512 54.9994 103.637 55.0739 103.782 55.0818C103.923 55.0936 104.08 55.0386 104.288 54.9131C104.837 54.6149 105.029 54.0459 105.049 53.4573C105.049 53.3043 105.021 53.0374 104.958 52.7824C104.958 52.7824 104.958 52.7745 104.951 52.7706C104.903 52.5901 104.833 52.4213 104.731 52.3075C104.648 52.2172 104.555 52.1584 104.429 52.1584C104.261 52.1584 103.971 52.3742 103.822 52.5547C103.81 52.5704 103.798 52.5861 103.786 52.6018C103.755 52.7823 103.716 52.9589 103.668 53.1355C103.621 53.3395 103.559 53.5397 103.496 53.7359C103.253 53.8575 103.006 54.0184 102.736 54.0459L102.724 53.9164C103.112 52.8294 103.104 51.6758 103.061 50.5261C103.049 50.2435 103.037 49.9649 103.026 49.6824C103.014 49.4194 103.006 49.1605 103.006 48.9015V48.8584C101.803 48.7838 100.58 48.7053 99.5447 48.2698C99.9446 48.4463 100.286 48.6896 100.595 48.9604C100.701 49.0506 100.803 49.1448 100.901 49.2351C101.14 49.4587 101.371 49.6863 101.61 49.9021C100.238 50.0002 98.1923 49.2429 96.8007 48.3992C96.6008 48.2775 96.4126 48.152 96.2441 48.0304H96.2403L96.2322 48.0421C96.2048 48.3404 96.1854 48.6386 96.1736 48.9447C96.1148 50.0277 96.1107 51.1539 96.2165 52.2447C96.1969 52.2447 96.1733 52.2447 96.1537 52.2487C96.0989 51.9583 96.0166 51.6797 95.9382 51.3972C95.8324 51.0166 95.7345 50.632 95.7032 50.2278C95.6404 49.4391 95.4481 48.2619 95.8754 47.5281L95.8873 47.532Z" fill="#314572"/>
<path d="M100.85 45.8242C100.85 46.9347 97.8355 47.4684 96.6987 47.4684C95.5618 47.4684 94.6406 46.5697 94.6406 45.4592C94.6406 44.3487 95.5618 43.4502 96.6987 43.4502C97.8355 43.4502 100.85 44.7137 100.85 45.8203V45.8242Z" fill="#314572"/>
<path d="M98.0329 57.2865C97.1626 57.2551 96.5629 56.9137 96.167 56.3761C96.3473 57.8986 96.9825 59.1033 98.3977 59.221C100.632 59.4015 102.988 58.2478 103.305 55.76C103.337 55.5206 103.349 55.2813 103.349 55.0459C102.263 56.5959 100.083 57.3571 98.0329 57.2865Z" fill="#314572"/>
<path d="M90.6958 79.5203H79.3984V81.1016H90.6958V79.5203Z" fill="white"/>
<path d="M80.8766 80.948H65.2668L60.1631 68.7168H75.7729L80.8766 80.948Z" fill="white"/>
<path d="M80.1432 80.948H64.5334L59.4297 68.7168H75.0395L80.1432 80.948Z" fill="#ADCDE0"/>
<path d="M69.6013 82.328L54.9922 118.779L55.9636 119.169L70.5726 82.7181L69.6013 82.328Z" fill="#6D819E"/>
<path d="M172.439 82.6718L157.83 119.123L158.801 119.513L173.411 83.0619L172.439 82.6718Z" fill="#6D819E"/>
<path d="M180.39 81.4634L179.419 81.8535L194.028 118.305L194.999 117.915L180.39 81.4634Z" fill="#6D819E"/>
<path d="M77.5641 81.8921L76.5928 82.2822L91.2019 118.734L92.1733 118.343L77.5641 81.8921Z" fill="#6D819E"/>
<path d="M189.293 81.1797H62.0434C61.8485 81.1797 61.6904 81.3379 61.6904 81.5329V82.302C61.6904 82.497 61.8485 82.6551 62.0434 82.6551H189.293C189.488 82.6551 189.645 82.497 189.645 82.302V81.5329C189.645 81.3379 189.488 81.1797 189.293 81.1797Z" fill="#314572"/>
<path d="M139.622 122.241L134.307 122.935L136.823 119.651L137.388 114.569H140.144L139.85 118.752L139.622 122.241Z" fill="#F3C6A0"/>
<path d="M138.19 122.04C138.19 122.04 136.026 122.275 135.152 122.413C133.423 122.687 132.325 123.782 132.325 123.782H135.234L138.186 122.676V123.484H139.577V121.342L138.186 122.04H138.19Z" fill="url(#paint0_linear_248_56101)"/>
<path d="M150.387 122.684L145.169 123.916L147.341 120.393L147.388 115.28L150.128 115.001L150.261 119.192L150.387 122.684Z" fill="#F3C6A0"/>
<path d="M148.94 122.63C148.94 122.63 146.811 123.085 145.957 123.309C144.263 123.756 143.283 124.957 143.283 124.957L146.18 124.663L149.006 123.258L149.089 124.062L150.473 123.921L150.257 121.79L148.944 122.626L148.94 122.63Z" fill="url(#paint1_linear_248_56101)"/>
<path d="M150.125 119.98L146.127 119.694C146.127 119.694 146.389 111.183 146.283 101.62C146.178 92.057 144.943 83.6007 144.943 83.6007L140.043 119.258L136.734 119.023C136.734 119.023 137.452 94.3133 137.809 87.1206C138.169 79.9318 139.831 73.2021 139.831 73.2021C139.831 73.2021 144.449 73.316 147.683 73.0884C150.917 72.8608 153.152 71.6914 153.152 71.6914C153.152 71.6914 154.865 78.323 154.865 87.2658C154.865 96.2086 150.121 119.98 150.121 119.98H150.125Z" fill="#314572"/>
<path d="M153.154 71.6923L148.478 73.5523L140.022 73.203L138.533 71.5981C138.533 71.5981 138.874 67.313 138.298 61.6272C137.721 55.9452 137.733 54.0539 138.783 53.1317C139.834 52.2096 142.17 51.6131 145.985 51.2875C148.827 51.0442 152.159 51.5857 153.154 51.5857C155.491 51.5857 157.404 55.4155 157.404 55.4155L154.852 61.9058C154.852 61.9058 153.182 63.44 152.88 65.8533C152.574 68.2666 153.154 71.6962 153.154 71.6962V71.6923Z" fill="#F7882D"/>
<path d="M157.404 55.415L154.868 61.4776L158.573 67.1164L154.868 72.7552L156.765 74.3484L163.144 66.6887L157.404 55.415Z" fill="#F7882D"/>
<path d="M139 77.2364H137.106L138.533 71.6016L139.835 73.2025L139 77.2364Z" fill="#F7882D"/>
<path d="M150.603 51.9023C150.603 51.9023 146.283 56.0656 145.147 56.0852C144.014 56.1088 142.81 56.2971 141.748 55.4103C140.686 54.5235 142.1 51.8983 142.1 51.8983C142.1 51.8983 145.429 50.623 143.731 47.786C142.03 44.9489 148.4 44.9489 147.659 47.786C146.918 50.623 150.603 51.8983 150.603 51.8983V51.9023Z" fill="#ECB5A1"/>
<path d="M147.506 48.3274C147.517 48.1548 147.549 47.9743 147.596 47.7899C148.337 44.9528 141.967 44.9528 143.668 47.7899C144.252 48.767 144.244 49.5596 143.978 50.1796C145.416 50.0501 146.675 49.3516 147.51 48.3274H147.506Z" fill="#BB673D"/>
<path d="M149.19 43.7131C149.19 46.711 147.438 49.14 145.274 49.14C143.11 49.14 142.106 47.0995 141.546 43.7131C141.056 40.7583 143.11 38.2861 145.274 38.2861C147.438 38.2861 149.19 40.7151 149.19 43.7131Z" fill="#ECB5A1"/>
<path d="M146.142 34.3154C142.661 34.3154 139.839 36.8542 139.839 39.9895C139.839 41.3394 140.509 42.7089 141.544 43.8311C141.544 43.7919 141.544 43.7487 141.544 43.7134C141.544 41.9908 143.073 40.6292 145.049 40.6292C145.543 40.6292 147.385 39.8836 147.385 39.8836C147.385 39.8836 147.302 40.9039 147.604 41.9045C147.922 42.9561 148.624 44.0077 148.624 44.6708C148.624 45.1417 148.439 45.6871 148.138 46.2326C150.874 45.5773 152.45 42.7403 152.45 39.9895C152.45 36.8582 149.627 34.3154 146.146 34.3154H146.142Z" fill="#314572"/>
<path d="M148.727 38.2863C150.154 38.2863 151.31 37.1286 151.31 35.7005C151.31 34.2723 150.154 33.1145 148.727 33.1145C147.3 33.1145 146.144 34.2723 146.144 35.7005C146.144 37.1286 147.3 38.2863 148.727 38.2863Z" fill="#314572"/>
<path d="M156.507 74.0378L154.962 73.0647L154.39 73.6886C153.841 74.0732 153.261 74.8462 152.865 75.7879C152.253 77.2398 152.32 78.5425 153.01 78.6956C153.7 78.8486 154.755 77.797 155.366 76.3451C155.633 75.7133 155.77 75.1091 155.782 74.6147L156.503 74.0378H156.507Z" fill="#F3C6A0"/>
<path d="M138.833 77.2354L137.01 77.255L136.865 78.0869C136.61 78.7069 136.539 79.6722 136.712 80.6767C136.982 82.2306 137.743 83.2901 138.405 83.0429C139.072 82.7996 139.389 81.3438 139.119 79.7899C139.001 79.115 138.79 78.5303 138.535 78.1104L138.833 77.2314V77.2354Z" fill="#F3C6A0"/>
<path opacity="0.7" d="M66.8537 37.2419H57.3633V49.2768H66.8537V37.2419Z" fill="#89BCC9"/>
<path d="M66.2434 36.8152H56.792V48.6265H66.2434V36.8152Z" fill="#E2E2E1"/>
<path d="M65.714 37.3489V48.0928H57.3288V37.3489H65.714ZM66.2469 36.8152H56.7959V48.6265H66.2469V36.8152Z" fill="#2A2B47"/>
<path d="M64.466 38.5183H58.5859V46.7744H64.466V38.5183Z" fill="white"/>
<path opacity="0.7" d="M90.6881 25.9189H75.251V40.9872H90.6881V25.9189Z" fill="#89BCC9"/>
<path d="M89.9291 25.3809H74.5391V40.1704H89.9291V25.3809Z" fill="#E2E2E1"/>
<path d="M89.2627 26.0479V39.4994H75.2094V26.0479H89.2627ZM89.9291 25.3809H74.5391V40.1704H89.9291V25.3809Z" fill="#2A2B47"/>
<path d="M87.7028 27.5107H76.7852V37.8427H87.7028V27.5107Z" fill="white"/>
<path d="M127.954 33.2609V27.2139C127.954 23.9295 125.779 21.1278 122.799 20.1782L122.207 14.2529H116.962L116.367 20.2253C113.454 21.2103 111.341 23.9766 111.341 27.2139V33.2609H127.954Z" fill="#262042"/>
<path d="M122.98 23.2769C124.862 25.6627 123.972 29.5043 120.992 31.8548C118.013 34.2092 112.196 31.796 112.196 31.796C112.196 31.796 111.204 25.5685 114.183 23.218C117.162 20.8636 121.102 20.8911 122.98 23.2769Z" fill="#3F3A55"/>
<path d="M118.958 20.2567H116.21L116.963 14.2568H118.958V20.2567Z" fill="#3F3A55"/>
<path d="M127.954 33.259H111.341V34.0077H127.954V33.259Z" fill="white"/>
<path d="M119.577 0H119.213V14.2558H119.577V0Z" fill="#262042"/>
<path d="M129.647 81.0003H125.903L124.915 75.7461H130.634L129.647 81.0003Z" fill="#F7AB5E"/>
<g style="mix-blend-mode:multiply">
<path d="M125.144 76.9465L125.363 78.1159H130.193L130.412 76.9465H125.144Z" fill="#F7AB5E"/>
</g>
<path d="M131.023 75.5801H124.531V77.3262H131.023V75.5801Z" fill="#F7AB5E"/>
<path d="M127.698 74.0576C130.255 74.0576 132.328 71.9828 132.328 69.4233C132.328 66.8639 130.255 64.7891 127.698 64.7891C125.141 64.7891 123.068 66.8639 123.068 69.4233C123.068 71.9828 125.141 74.0576 127.698 74.0576Z" fill="#7BB842"/>
<path d="M130.292 69.3686L130.222 69.2548L127.854 70.7694V67.1279H127.67V68.211L126.302 67.4772L126.235 67.5989L127.67 68.368V72.2213L125.29 70.9421L125.228 71.0637L127.67 72.3744V75.5411H127.854V70.9304L130.292 69.3686Z" fill="#716657"/>
<path d="M125.287 68.1782C125.476 68.1782 125.628 68.0254 125.628 67.8371C125.628 67.6487 125.476 67.4961 125.287 67.4961C125.099 67.4961 124.946 67.6487 124.946 67.8371C124.946 68.0254 125.099 68.1782 125.287 68.1782Z" fill="#92C84E"/>
<path d="M126.455 70.4321C126.644 70.4321 126.796 70.2794 126.796 70.091C126.796 69.9026 126.644 69.75 126.455 69.75C126.267 69.75 126.114 69.9026 126.114 70.091C126.114 70.2794 126.267 70.4321 126.455 70.4321Z" fill="#92C84E"/>
<path d="M124.669 69.8864C124.858 69.8864 125.01 69.7338 125.01 69.5454C125.01 69.3571 124.858 69.2043 124.669 69.2043C124.481 69.2043 124.328 69.3571 124.328 69.5454C124.328 69.7338 124.481 69.8864 124.669 69.8864Z" fill="#92C84E"/>
<path d="M176.202 77.543H166.179V81.1609H176.202V77.543Z" fill="#9DD1F1"/>
<path d="M183.097 77.543H176.202V81.1609H183.097V77.543Z" fill="#F6F8FA"/>
<path d="M177.56 80.8584H166.634C166.384 80.8584 166.184 80.6544 166.184 80.4072V78.143C166.184 77.8919 166.387 77.6918 166.634 77.6918H177.56V77.3896H166.634C166.219 77.3896 165.882 77.7271 165.882 78.143V80.4072C165.882 80.8231 166.219 81.1606 166.634 81.1606H177.56V80.8584Z" fill="#124859"/>
<path d="M183.738 77.3896H177.561V77.6915H183.738V77.3896Z" fill="#268EAE"/>
<path d="M183.738 80.8586H177.561V81.1605H183.738V80.8586Z" fill="#268EAE"/>
<path opacity="0.3" d="M176.202 78.0684H183.097" stroke="#93A3BA" stroke-width="0.195695" stroke-miterlimit="10"/>
<path opacity="0.3" d="M176.202 78.6729H183.097" stroke="#93A3BA" stroke-width="0.195695" stroke-miterlimit="10"/>
<path opacity="0.3" d="M176.202 79.2773H183.097" stroke="#93A3BA" stroke-width="0.195695" stroke-miterlimit="10"/>
<path opacity="0.3" d="M176.202 79.8616H183.097" stroke="#93A3BA" stroke-width="0.195695" stroke-miterlimit="10"/>
<path opacity="0.3" d="M176.202 80.4463H183.097" stroke="#93A3BA" stroke-width="0.195695" stroke-miterlimit="10"/>
<path d="M175.372 77.337H167.234C167.152 77.337 167.085 77.2625 167.085 77.1683V74.4412C167.085 74.347 167.152 74.2725 167.234 74.2725H175.372C175.454 74.2725 175.431 74.2725 175.431 74.3627L175.195 74.7394L175.231 77.0193L175.521 77.341C175.521 77.4351 175.454 77.341 175.372 77.341V77.337Z" fill="#3ABDB2"/>
<path d="M181.675 74.2891H175.317C175.263 74.2891 175.219 74.333 175.219 74.3872V77.2831C175.219 77.3373 175.263 77.3812 175.317 77.3812H181.675C181.729 77.3812 181.773 77.3373 181.773 77.2831V74.3872C181.773 74.333 181.729 74.2891 181.675 74.2891Z" fill="#D9E8E6"/>
<path d="M182.757 77.133H175.497C175.332 77.133 175.195 76.9682 175.195 76.7602V74.9042C175.195 74.7002 175.328 74.5314 175.497 74.5314H182.757V74.2842H175.497C175.223 74.2842 174.995 74.5628 174.995 74.9042V76.7602C174.995 77.1016 175.219 77.3803 175.497 77.3803H182.757V77.133Z" fill="#2D9285"/>
<g opacity="0.4">
<path d="M175.401 74.5899L175.542 74.3626C175.542 74.2686 175.565 74.2725 175.483 74.2725H167.345C167.263 74.2725 167.196 74.3469 167.196 74.441V74.5899H175.401Z" fill="#289285"/>
</g>
<path opacity="0.3" d="M175.051 74.8545H181.793" stroke="#93A3BA" stroke-width="0.195695" stroke-miterlimit="10"/>
<path opacity="0.3" d="M175.051 75.46H181.793" stroke="#93A3BA" stroke-width="0.195695" stroke-miterlimit="10"/>
<path opacity="0.3" d="M175.051 76.0637H181.793" stroke="#93A3BA" stroke-width="0.195695" stroke-miterlimit="10"/>
<path opacity="0.3" d="M175.051 76.6482H181.793" stroke="#93A3BA" stroke-width="0.195695" stroke-miterlimit="10"/>
<path opacity="0.3" d="M175.051 77.2314H181.793" stroke="#93A3BA" stroke-width="0.195695" stroke-miterlimit="10"/>
<path d="M9.00849 95.7734H44.0341L35.026 37.4902H0L9.00849 95.7734Z" fill="#314572"/>
<path d="M10.5435 92.3244H41.4297L33.4878 40.9395H2.60156L10.5435 92.3244Z" fill="white"/>
<path d="M35.6767 120.82V96.1533H37.3465V120.82H40.0159V122.527H33.0107V120.82H35.6767Z" fill="#CDCEEC"/>
<path d="M12.9081 120.82V96.1533H14.578V120.82H17.2474V122.527H10.2422V120.82H12.9081Z" fill="#CDCEEC"/>
<path d="M21.3916 46.9385H8.05957V47.5461H21.3916V46.9385Z" fill="#627089"/>
<path d="M31.0695 48.7913H8.34082V49.4499H31.0695V48.7913Z" fill="#627089"/>
<path d="M31.3674 50.6387H8.63867V51.2973H31.3674V50.6387Z" fill="#627089"/>
<path d="M22.8643 55.9492H9.53223V56.5568H22.8643V55.9492Z" fill="#627089"/>
<path d="M32.5393 57.8047H9.81055V58.4633H32.5393V57.8047Z" fill="#627089"/>
<path d="M32.8416 59.6494H10.1133V60.308H32.8416V59.6494Z" fill="#627089"/>
<path d="M19.7284 53.4102L22.9862 61.8978C22.9862 61.8978 31.9864 54.6148 34.9029 55.4585L34.8049 59.7003L24.7854 66.018C24.7854 66.018 21.3983 67.568 20.2379 64.4994C19.0776 61.4308 16.4082 54.3754 16.4082 54.3754L19.7284 53.4102Z" fill="#528BBF"/>
<path d="M19.058 48.8184L18.0899 48.5595L17.7607 50.2585L16.4748 48.1003L16.4082 47.0762L15.236 47.9748L14.7969 50.2938L15.7692 52.4717L16.8943 54.1982L19.0776 54.0256L19.058 48.8184Z" fill="#E8BEA9"/>
<path opacity="0.3" d="M41.2965 127C49.9348 127 56.9373 125.795 56.9373 124.308C56.9373 122.821 49.9348 121.616 41.2965 121.616C32.6582 121.616 25.6553 122.821 25.6553 124.308C25.6553 125.795 32.6582 127 41.2965 127Z" fill="#C7D0DD"/>
<path d="M36.259 124.956C37.5056 125.332 38.5444 124.924 38.5444 124.924C38.5444 124.924 38.7406 125.548 39.7794 124.669C40.8182 123.79 38.5796 123.386 38.5796 123.386L35.2594 122.876L34.2756 123.005C34.2756 123.005 32.2018 124.124 33.6248 124.351C35.0478 124.579 35.2908 124.669 36.2551 124.96L36.259 124.956Z" fill="#19132E"/>
<path d="M38.4574 100.314H33.3418L36.8304 122.582C36.7207 122.575 36.6385 122.602 36.5954 122.669C36.4974 122.83 36.658 123.167 36.9755 123.501V123.536L37.0188 123.544C37.0893 123.614 37.1676 123.689 37.2538 123.756C37.7438 124.152 38.2377 124.309 38.3671 124.105C38.4063 124.042 38.4063 123.952 38.3671 123.846L38.4574 123.866V100.31V100.314Z" fill="#ECB5A1"/>
<path d="M43.436 125.185C44.4905 125.44 45.2704 125.106 45.2704 125.106C45.2704 125.106 45.294 125.173 46.1015 124.568C46.9091 123.96 45.1805 123.238 45.1805 123.238L42.4089 123.05L41.6092 123.273C41.6092 123.273 39.9902 124.588 41.1819 124.674C42.3736 124.761 42.6244 124.988 43.4398 125.188L43.436 125.185Z" fill="#19132E"/>
<path d="M45.0219 100.356H39.9062L43.3949 122.624C43.2851 122.617 43.2029 122.644 43.1598 122.711C43.0618 122.872 43.2224 123.209 43.54 123.543V123.578L43.5832 123.586C43.6538 123.656 43.732 123.731 43.8183 123.798C44.3083 124.194 44.8021 124.351 44.9315 124.147C44.9707 124.084 44.9707 123.994 44.9315 123.888L45.0219 123.908V100.352V100.356Z" fill="#ECB5A1"/>
<path d="M46.4052 101.71C46.4052 101.71 41.7484 101.483 37.4951 101.597C33.2418 101.71 30.0703 100.592 30.0703 100.592C30.0703 100.592 31.117 97.8923 30.9366 94.1448C30.7563 90.3974 30.388 85.6807 30.8976 82.1531C31.4072 78.6293 33.967 74.0107 33.967 74.0107H43.9594C43.9594 74.0107 46.4837 77.2206 46.9894 85.4767C47.4951 93.7328 46.3975 101.71 46.3975 101.71H46.4052Z" fill="#314572"/>
<path d="M45.0599 73.5078C46.2908 75.36 32.7392 74.1357 32.7392 74.1357C32.7392 74.1357 30.7676 72.2326 32.4728 64.9025C34.178 57.5725 33.5194 55.3437 33.5194 55.3437L43.9309 54.7158C43.9309 54.7158 46.0009 59.201 45.9342 62.0694C45.8637 64.9378 43.8328 71.6557 45.0637 73.5039L45.0599 73.5078Z" fill="#528BBF"/>
<path d="M49.5021 69.2942C49.5021 69.2942 47.3735 58.1501 43.818 56.0272C40.2625 53.9043 43.63 61.9877 43.63 61.9877L45.9778 69.1412L44.3118 73.3673C44.3118 73.3673 44.9625 77.4797 45.817 77.1815C46.6716 76.8832 49.4982 69.2981 49.4982 69.2981L49.5021 69.2942Z" fill="#528BBF"/>
<path d="M35.8277 51.86C36.9191 51.7941 37.7175 50.3098 37.6112 48.5446C37.5049 46.7794 36.5341 45.4018 35.4428 45.4677C34.3514 45.5335 33.553 47.0179 33.6593 48.7831C33.7656 50.5483 34.7364 51.9258 35.8277 51.86Z" fill="#ECB5A1"/>
<path d="M43.3909 50.2549C42.8186 49.3249 43.1399 48.7638 43.6103 47.6887C44.0807 46.6135 43.83 45.2518 43.7791 44.4121C43.634 41.9831 41.2543 40.1506 38.4633 40.3194C35.6722 40.4881 33.5318 42.5914 33.6769 45.0242C33.7788 46.688 35.1 47.3316 35.7273 48.2733C36.3545 49.2151 35.9703 49.8468 35.7273 50.8592C35.4803 51.8677 35.1117 52.99 35.194 54.3595C35.3508 56.9415 37.7736 58.8995 40.6078 58.7268C43.442 58.5542 45.6134 56.3214 45.4566 53.7394C45.3704 52.2954 43.9672 51.1888 43.3909 50.2549Z" fill="#314572"/>
<path d="M136.174 47.6685H102.25L110.537 32.667H128.447L136.174 47.6685Z" fill="url(#paint2_linear_248_56101)"/>
<defs>
<linearGradient id="paint0_linear_248_56101" x1="135.955" y1="123.782" x2="135.955" y2="121.342" gradientUnits="userSpaceOnUse">
<stop stop-color="#002D49"/>
<stop offset="1" stop-color="#002737"/>
</linearGradient>
<linearGradient id="paint1_linear_248_56101" x1="146.862" y1="124.787" x2="146.614" y2="122.359" gradientUnits="userSpaceOnUse">
<stop stop-color="#002D49"/>
<stop offset="1" stop-color="#002737"/>
</linearGradient>
<linearGradient id="paint2_linear_248_56101" x1="119.212" y1="47.6685" x2="119.212" y2="32.667" gradientUnits="userSpaceOnUse">
<stop stop-color="#9ACBDD" stop-opacity="0"/>
<stop offset="0.77" stop-color="white" stop-opacity="0.8"/>
</linearGradient>
</defs>
</svg>
